<?xml version="1.0" encoding="UTF-8"?>
<svg width="184px" height="100px" viewBox="0 0 184 100" version="1.1" xmlns="http://www.w3.org/2000/svg" xmlns:xlink="http://www.w3.org/1999/xlink">
    <title>01_logos / Clients / Keakr / Black</title>
    <g id="01_logos-/-Clients-/-Keakr-/-Black" stroke="none" stroke-width="1" fill="none" fill-rule="evenodd">
        <path d="M102.043643,40.388125 L89.2921868,60.1297917 L97.0140962,60.1297917 L98.9076293,57.1707778 L113.786946,57.1707778 L115.706124,60.1297917 L123.429957,60.1297917 L110.678821,40.388125 L102.043643,40.388125 Z M17.024039,40.3194444 C17.1381575,40.3194444 17.244262,40.3801389 17.3016418,40.4794861 L22.8694049,50.0893333 C22.9267847,50.1886806 22.9267847,50.30975 22.8694049,50.4090972 L17.3016418,60.0189444 C17.244262,60.1182917 17.1381575,60.1799444 17.024039,60.1799444 L5.88787178,60.1799444 C5.77407387,60.1799444 5.66796934,60.1182917 5.6109101,60.0189444 L0.0428264808,50.4090972 C-0.0142327526,50.30975 -0.0142327526,50.1886806 0.0428264808,50.0893333 L5.6109101,40.4794861 C5.66796934,40.3801389 5.77407387,40.3194444 5.88787178,40.3194444 L17.024039,40.3194444 Z M36.9370063,40.3880611 L36.9370063,47.1273806 L47.8032641,40.4890056 L58.8423024,40.4890056 L43.2106369,50.2592139 L58.8423024,60.0287833 L47.8032641,60.0287833 L36.9370063,53.3904083 L36.9370063,60.1300472 L30.1399052,60.1300472 L30.1399052,40.3880611 L36.9370063,40.3880611 Z M131.252906,40.3880611 L131.252906,47.1273806 L142.119164,40.4890056 L153.157561,40.4890056 L137.526537,50.2592139 L153.157561,60.0287833 L142.119164,60.0287833 L131.252906,53.3904083 L131.252906,60.1300472 L124.455805,60.1300472 L124.455805,40.3880611 L131.252906,40.3880611 Z M88.1719024,54.7752319 L88.1719024,60.1297597 L60.6879443,60.1297597 L60.6879443,54.7752319 L88.1719024,54.7752319 Z M174.595645,40.388125 C179.614934,40.388125 182.12522,42.1281389 182.12522,45.6072083 C182.12522,46.69875 181.868774,47.7289583 181.357484,48.696875 C180.846516,49.6644722 180.06115,50.3186944 179.002348,50.6582639 C180.06115,51.1457361 180.8603,51.7082778 181.399477,52.3449306 C181.938655,52.9825417 182.258571,53.6322917 182.359226,54.2932222 C182.461805,54.9538333 182.520467,55.8636111 182.5397,57.02 C182.557331,58.1751111 182.963157,59.2139444 183.754934,60.1301111 L177.026753,60.1301111 C176.649136,60.0384306 176.388523,59.7614722 176.246195,59.2982778 C176.103547,58.8344444 176.008983,58.3064028 175.962822,57.7141528 C175.917303,57.1235 175.832035,56.5395556 175.707979,55.9661528 C175.583282,55.3930694 175.286446,54.9078333 174.815868,54.5133194 C174.347213,54.1194444 173.687826,53.9223472 172.840592,53.9223472 L161.125178,53.9223472 L161.125178,60.1301111 L154.245693,60.1301111 L154.245693,40.388125 L174.595645,40.388125 Z M16.8387568,40.9592917 L6.07347456,40.9592917 L0.691634843,50.249375 L6.07347456,59.5397778 L16.8387568,59.5397778 L22.2205965,50.249375 L16.8387568,40.9592917 Z M9.81133519,46.9981653 L9.81133519,49.2179847 L13.3906801,47.0313875 L17.0264432,47.0313875 L11.8779693,50.2491514 L17.0264432,53.4672347 L13.3906801,53.4672347 L9.81133519,51.2803181 L9.81133519,53.5004569 L7.57256167,53.5004569 L7.57256167,46.9981653 L9.81133519,46.9981653 Z M88.172223,47.7276486 L88.172223,52.8068153 L60.6879443,52.8068153 L60.6879443,47.7276486 L88.172223,47.7276486 Z M106.353218,45.6072083 L110.539699,52.0909722 L102.153274,52.0909722 L106.353218,45.6072083 Z M172.951826,45.7576667 L161.125178,45.7576667 L161.125178,49.1306806 L173.061777,49.1306806 C173.872467,49.1306806 174.466139,49.0096111 174.844397,48.7665139 C175.221693,48.5224583 175.410502,48.0707639 175.410502,47.4091944 C175.410502,46.7485833 175.198293,46.3080694 174.774836,46.0876528 C174.35138,45.8691528 173.742962,45.7576667 172.951826,45.7576667 Z M88.172223,40.3880931 L88.172223,45.7576347 L60.6879443,45.7576347 L60.6879443,40.3880931 L88.172223,40.3880931 Z" id="Fill-4" fill="#000000"></path>
    </g>
</svg>