<?xml version="1.0" encoding="UTF-8"?>
<svg width="184px" height="100px" viewBox="0 0 184 100" version="1.1" xmlns="http://www.w3.org/2000/svg" xmlns:xlink="http://www.w3.org/1999/xlink">
    <title>01_logos / Clients / TotalClub/Black</title>
    <g id="01_logos-/-Clients-/-TotalClub/Black" stroke="none" stroke-width="1" fill="none" fill-rule="evenodd">
        <path d="M3.83429218,60.715527 C4.96771896,62.1519835 6.55626882,62.6776978 7.89700557,62.7357247 L7.89700557,62.7357247 L7.99873119,62.7335399 C8.2397084,62.7284473 8.67868084,62.7187913 8.82675939,62.7005118 C10.4677154,63.3174821 12.7339076,63.9546214 15.5411889,63.9546214 C15.7868528,63.9546214 16.0333434,63.9491659 16.2801646,63.9390814 C14.8741269,64.614244 13.3945222,65.051182 11.813577,65.1388011 C9.52986092,65.2656007 7.43047547,64.7446807 5.6404018,63.2501973 C4.85794717,62.5970221 4.26445211,61.7965477 3.88306128,60.8454677 C3.8736381,60.8216618 3.86504151,60.7973599 3.83429218,60.715527 Z M165.15592,35.2560606 C166.318939,35.2496956 167.276466,35.6218286 168.130504,36.2667378 C169.485624,37.2902275 170.169052,38.6699795 170.176988,40.3692931 C170.186411,42.375604 170.179137,44.3822455 170.179137,46.5108924 C170.383471,46.3374728 170.523992,46.2440676 170.632772,46.1220622 C174.005279,42.3407217 180.089678,42.9656273 182.600377,47.3536884 C184.788869,51.1783425 184.334738,57.5456022 181.720549,61.0154818 C178.896901,64.7635932 172.83482,65.029922 170.228236,60.9982886 C170.175665,60.9167863 170.099618,60.8501628 169.963396,60.6965815 C169.660531,61.7805779 169.100761,62.6258537 168.110005,62.9842652 C167.191162,63.3167217 166.206192,63.4663353 165.15592,63.7194386 L165.15592,35.2560606 Z M127.258764,44.1781096 C129.102897,44.8750943 129.833442,46.4783576 129.260612,48.4039928 L128.780497,48.2675572 L128.780497,48.2675572 L127.822316,47.9816442 C127.342664,47.8421563 126.860924,47.7156873 126.371498,47.6374088 C122.637438,47.0406074 120.255027,48.8779623 119.86041,52.6379766 C119.700878,54.1575885 119.862394,55.6598419 120.509453,57.065053 C121.283476,58.7461815 122.606854,59.7891788 124.465701,59.7738041 C125.817183,59.7627278 127.167012,59.4087799 128.514858,59.1912201 C128.793255,59.1462534 129.059914,59.027885 129.329219,58.9442336 C129.91296,60.62685 129.29847,62.2160611 127.750258,62.999673 C125.873061,63.9499263 123.852698,63.9401725 121.849197,63.6559892 C118.249542,63.1454843 115.937392,61.0745337 115.034254,57.5578688 C114.165668,54.1757736 114.228489,50.8321977 115.971447,47.6913028 C117.109999,45.6398598 118.866017,44.3373118 121.163289,43.8428428 C123.215559,43.4009452 125.272292,43.4275615 127.258764,44.1781096 Z M139.500088,40.3291702 C139.516289,44.9805844 139.491987,49.6321639 139.484382,54.2834128 C139.479919,57.0594487 139.474959,59.8353193 139.47,62.6113553 L139.47,63.4751468 L139.47,63.4751468 C138.245813,63.5262304 137.239682,63.1360776 136.361342,62.4304963 C135.095164,61.4131235 134.406611,60.0785035 134.407436,58.4385394 C134.41124,50.8789995 134.425788,43.3191288 134.440336,35.7595889 C134.440666,35.5830282 134.487948,35.4067982 134.512084,35.2394954 C137.1557,35.0821118 139.490169,37.4547695 139.500088,40.3291702 Z M1.54310368,46.3918462 C0.054571788,48.6014994 1.37166792,50.5697869 2.98683414,52.2479396 L2.98683414,52.2479396 L2.99675328,52.227936 C4.23747206,53.5599109 5.62036514,54.7255748 7.14725103,55.7241013 C9.33375957,57.1542757 11.7007964,58.1832208 14.2113301,58.8901247 C16.214004,59.4312137 18.6546077,59.8856755 21.411632,59.9022074 L21.4110284,59.9020366 L21.9443441,59.8962069 C23.1815925,59.8596326 24.3798046,59.6680463 25.5639489,59.3844529 L26.0706509,59.2574634 C26.0802394,59.2764751 26.0901585,59.2953215 26.0999123,59.3143332 C25.9456697,59.4546889 25.796552,59.6014922 25.6361926,59.734078 C24.4994595,60.672759 23.2830426,61.4886081 21.940322,62.1062397 C20.6938171,62.6798965 19.3970552,63.0764967 18.046234,63.2872783 C17.1705394,63.410441 16.3336949,63.4636737 15.5411558,63.4636737 C13.1579177,63.4636737 11.172437,62.9847447 9.71845678,62.497715 C9.71911806,62.4975497 9.72010997,62.497219 9.72110189,62.4968884 C9.61612435,62.4472927 9.54470656,62.405467 9.46799856,62.3783547 C7.68387637,61.7479935 6.02787637,60.876432 4.54265085,59.7018408 C3.06370746,58.5322092 1.84464546,57.1407195 1.04350979,55.4151202 C0.464893441,54.1687806 0.156077628,52.8516845 0.0358907457,51.4861499 C-0.0456115004,50.5601984 0.00795184187,49.645158 0.236257323,48.7428471 C0.475639173,47.7962307 0.915718239,47.0167518 1.54310368,46.3918462 Z M143.537921,43.410947 C144.421385,43.7123235 145.255585,43.8693765 145.95819,44.2616783 C147.700983,45.2349111 148.505755,46.8125499 148.516005,48.7927403 C148.527247,50.9075004 148.502449,53.0224259 148.518485,55.1370207 C148.546589,58.8446289 149.674064,60.1179155 153.379027,60.3358059 C155.022133,60.4325175 156.684084,60.205204 158.645098,60.1101456 C157.805443,60.7510872 157.152598,61.3535094 156.406348,61.7998706 C154.155531,63.1460629 151.677399,63.6195364 149.090158,63.378832 C146.234107,63.1133297 144.287973,61.3925247 143.781105,58.5303576 C143.493284,56.9060988 143.501716,55.2200108 143.479728,53.5602084 C143.439556,50.5737215 143.475761,47.5862426 143.483861,44.599425 C143.484378,44.4046586 143.495033,44.2098922 143.50941,43.9532119 L143.528037,43.6115144 C143.531303,43.5482909 143.534614,43.4816002 143.537921,43.410947 Z M171.161793,49.4522473 C170.387604,50.7156147 170.180955,52.1135518 170.166077,53.1578717 C170.168887,55.2913128 170.50713,56.833904 171.125257,57.9296381 C172.512449,60.3889229 175.622925,60.6926138 177.299094,58.417825 C177.928959,57.5629606 178.323245,56.4391224 178.521131,55.3809157 C178.952449,53.0758735 178.714555,50.8210882 177.122037,48.9387666 C175.511169,47.0347881 172.46682,47.3232697 171.161793,49.4522473 Z M161.137793,43.6047339 C161.137793,44.3483385 161.138951,45.0544158 161.137628,45.7604931 C161.132338,48.6674616 161.132999,51.5742649 161.118451,54.4810681 C161.107375,56.6624518 160.170512,58.0286476 158.15081,58.7858084 C156.859008,59.2700277 155.513477,59.400299 154.013538,59.3637635 C154.160837,59.1733161 154.202828,59.0737941 154.277718,59.028662 C155.716819,58.1600762 156.117387,56.8400043 156.07457,55.2365757 C156.016212,53.0436198 156.03572,50.8466961 156.084654,48.6527482 C156.144169,45.9841696 158.125517,43.8330394 160.65903,43.6062217 C160.784341,43.5949801 160.911802,43.6047339 161.137793,43.6047339 Z M20.1917103,44.8193819 C21.6410616,45.4399892 22.2581973,45.8217107 23.4150994,46.5372111 L23.4150994,46.5372111 L23.6379493,46.6749218 C24.7986537,47.3917448 25.9433222,48.463673 26.4820967,49.0472489 C26.2167597,50.3053261 25.8241272,51.5462102 25.3982656,52.7503935 C24.5744812,54.9934412 22.9831209,57.6583827 22.2457984,58.7561006 C22.089572,58.9569632 21.9354947,59.1598095 21.7825747,59.3631518 C21.7258703,59.3634825 21.6685046,59.3644744 21.6119655,59.3644744 C19.2535252,59.3644744 16.9856798,59.0773154 14.7262656,58.4920863 C14.913572,58.2426199 15.1015396,57.9832345 15.3071964,57.705168 C15.8147256,56.9599102 16.373669,55.9671698 16.9104597,54.9028464 C17.7322602,53.2437053 18.4097373,51.5267026 18.9749628,49.7650638 C19.4720769,48.2155292 19.8812413,46.6431806 20.1606304,45.0387601 C20.1731946,44.9660198 20.1824525,44.8926181 20.1917103,44.8193819 Z M12.5180176,36.4792223 C14.6577409,36.2249617 16.8882243,36.3725916 18.9894282,36.8335008 L18.9800257,36.8316295 C18.9558363,36.8309521 18.900707,36.8406646 18.9894282,36.8335008 C21.5513761,37.4117865 24.1726735,38.4876823 26.4765585,40.458119 C28.7683752,42.520473 30.124156,45.0774613 30.4747975,48.155039 C30.7401344,50.4850444 30.3970976,52.7147012 29.3246735,54.8216913 C28.4000446,56.6378854 26.8943195,57.6683184 24.9468622,58.0925269 C24.3250976,58.2282537 23.6912647,58.3081028 23.0600769,58.401508 C23.8613779,57.1262376 25.0543195,55.0235457 25.7789125,53.1326275 C26.7141218,52.6732061 27.5684902,52.10765 28.3010185,51.3559447 C28.4263303,51.2269959 28.4317858,51.1253247 28.3630131,50.9672798 C27.9670742,50.0560417 27.3891191,49.2714379 26.7141218,48.5521351 C26.6979206,48.5351073 26.7242063,48.5481675 26.6979206,48.5351073 C26.0726843,47.8910246 24.968519,46.9197757 23.8959296,46.2573427 C22.5302296,45.41372 21.786625,44.9371055 20.0749125,44.214827 C18.5004147,43.5373499 16.8702045,43.0349456 15.2031281,42.6477686 C12.9719835,42.1293283 10.7135612,41.834234 8.41959533,41.8790354 C6.77500234,41.9111073 5.16148931,42.140074 3.61972471,42.7491091 C2.53159533,43.178773 1.6008496,43.8188881 0.920066128,44.7888144 C0.91328805,44.7984029 0.89741743,44.8015439 0.834761545,44.8349384 C1.06488553,44.3690695 1.2581434,43.9367605 1.48545696,43.5234631 C2.64483881,41.416473 4.19057107,39.6622735 6.29607332,38.4656949 C8.22451896,37.3696302 10.3159691,36.7407569 12.5180176,36.4792223 Z M5.07408518,51.8471734 C5.71205103,52.1422677 6.35828284,52.4727403 7.02798994,52.7455166 C9.75856316,53.8581132 12.5752676,54.6562731 15.5110016,54.99931 C15.7531939,55.0275795 15.9975353,55.0370027 16.2415461,55.0495669 C15.7657581,55.9730386 15.2879863,56.7731824 14.7561553,57.5429075 C13.0064194,57.0081006 11.3664553,56.2967332 9.80981204,55.3914465 C8.08669254,54.3894483 6.50855777,53.194027 5.07408518,51.8471734 Z M58.7887605,45.6369172 C60.0691558,46.056166 61.1333139,46.7901822 61.6224927,48.0940528 C62.2814541,49.8500708 62.155481,51.5354976 60.8476428,52.9886512 C60.1162717,53.8013592 59.1351037,54.1971328 58.0914451,54.4467644 C57.2627012,54.6451472 56.4192438,54.7086296 55.569835,54.7144158 C54.3053103,54.6997024 53.0614505,54.5616611 51.8891738,54.0471885 C50.5257883,53.4484032 49.578676,52.4731867 49.3040812,50.974901 C49.0010516,49.3217114 49.2981297,47.816317 50.6049761,46.639246 C51.3656086,45.9538336 52.2907335,45.5866602 53.2818207,45.3953862 C55.1340543,45.0382972 56.9800058,45.0450753 58.7887605,45.6369172 Z M50.5566368,42.6506451 C50.562919,42.6961078 50.5754832,42.7453729 50.5756485,42.7944726 C50.5768058,43.4043342 50.5710196,44.0143612 50.579689,44.6240575 C50.582096,44.8011141 50.5215892,44.8497179 50.3481696,44.8492219 L48.0276701,44.8451923 L48.0276701,44.8451923 L45.40629,44.8457502 L45.40629,54.6051896 C45.0916881,54.5552633 44.8015533,54.5190584 44.5155515,54.461858 C43.934786,54.3456388 43.3849351,54.1456029 42.8957563,53.8038886 C42.1549621,53.2862749 41.7704302,52.5806936 41.7715874,51.6684636 C41.7743978,49.5041078 41.7725793,47.3399173 41.7725793,45.1755615 L41.7725793,44.8550081 L37.1413341,44.8550081 L37.1413341,42.6506451 L50.5566368,42.6506451 Z M73.9399454,45.4138688 L73.9399454,47.3991842 L70.095949,47.3991842 L70.095949,53.6173261 L70.095949,53.6173261 C70.0957836,54.0377323 69.9807217,54.2372722 69.5829642,54.3799425 C68.8005096,54.6606541 68.0094584,54.6598275 67.2268385,54.3728338 C66.8760316,54.2442156 66.7138537,53.9980557 66.7163335,53.6036047 C66.7285671,51.6186199 66.7188133,49.6336352 66.7265833,47.6488158 C66.7274099,47.4515903 66.6769876,47.397035 66.4799274,47.3986882 C65.3722904,47.4079461 64.2644881,47.4029865 63.1566857,47.4029865 L62.8710146,47.4029865 L62.8710146,45.4138688 L73.9399454,45.4138688 Z M81.6170602,45.6213606 C83.8280359,47.6200668 85.6848985,49.8927066 86.8887511,52.6469204 C87.0868032,53.0998943 87.2023612,53.5894038 87.3485031,54.0643651 C87.3893369,54.1971163 87.403389,54.337968 87.4354609,54.5044442 L87.1972363,54.5044442 C86.35692,54.5044442 85.5166038,54.49965 84.6762875,54.5084451 C84.50915,54.510065 84.4532722,54.4502196 84.4073136,54.2963076 C84.2505912,53.770924 84.0715508,53.2519878 83.9044133,52.7294146 C83.8599425,52.5900507 83.7824079,52.5356607 83.6281653,52.5361567 C81.5385337,52.5412816 79.4489021,52.5407856 77.3591051,52.536818 C77.2189146,52.5366527 77.1385696,52.5791396 77.0950907,52.7142052 C76.9221671,53.2504999 76.7419695,53.7846455 76.5700377,54.3214361 C76.5399497,54.4148413 76.5392884,54.506428 76.4000898,54.5059321 L75.6969728,54.5039922 L75.6969728,54.5039922 L73.5222174,54.5037829 L73.5222174,54.5037829 C73.6936532,53.9354164 73.8250818,53.3896985 74.0218113,52.8687784 C74.6080323,51.3164334 75.5187745,49.9517254 76.5369739,48.6556248 C77.3926649,47.5663382 78.3067134,46.5289617 79.3635975,45.6278081 C79.9605642,45.1186257 81.0356334,45.0956464 81.6170602,45.6213606 Z M91.5513409,45.4549671 C91.8892528,45.5731702 92.0486203,45.8117254 92.0456446,46.1869995 C92.0342376,47.5778279 92.0403544,48.9686562 92.0423382,50.3593193 C92.0425035,50.5524119 92.0408503,50.7479842 92.0682933,50.938101 C92.1851738,51.7496518 92.6034307,52.1642717 93.4733391,52.3157039 C93.7795098,52.3691019 94.0936158,52.4000165 94.4042501,52.4016697 C96.0032151,52.4099357 97.6023454,52.4051414 99.2013103,52.4051414 L99.2013103,54.4131055 C99.1318764,54.441871 99.0624424,54.495269 98.9930084,54.495269 C97.2156643,54.4972528 95.4376589,54.5227119 93.6616374,54.4775799 C92.8947227,54.4580722 92.1203687,54.3421836 91.3691594,54.1795098 C89.9325376,53.8685448 89.1561998,52.8987838 88.9077254,51.4841495 C88.8439123,51.1201172 88.8171306,50.7453391 88.8144855,50.3751899 C88.8039051,48.9696482 88.817296,47.5637757 88.8053497,46.158234 C88.8024173,45.8072618 88.9528575,45.5834199 89.2595242,45.4705071 C90.0186688,45.1909527 90.787402,45.187977 91.5513409,45.4549671 Z M54.1575152,47.513618 C52.8888575,47.8105308 52.2783346,48.5814131 52.2196464,49.885945 C52.1664137,51.0668183 52.7423849,51.9430088 53.8741585,52.2827393 C54.4225215,52.4473969 55.0057668,52.4960007 55.4192295,52.5695677 C55.9479195,52.5204679 56.3132744,52.5069118 56.6715206,52.4497114 C57.8413175,52.2630663 58.9314307,51.6980061 58.9780507,50.0492801 C59.0084694,48.9756988 58.6161675,48.0380097 57.3888395,47.6202487 C56.3276571,47.2588615 55.2385358,47.26068 54.1575152,47.513618 Z M7.37340737,44.1738279 C10.3197218,43.8521172 13.2040417,44.1852349 16.0354595,45.0346437 C16.0837326,45.0491917 16.1306832,45.0683687 16.1763112,45.0847353 C13.1729617,45.3904101 10.3362537,46.2728827 7.6099788,47.5306293 C6.23435975,48.1651235 4.93263827,48.9250947 3.82566253,49.9790031 C3.41583684,50.3694864 3.05775597,50.7996464 2.77687907,51.2893211 C2.3655655,50.8107227 2.00847655,50.3185682 1.75851429,49.8140147 C1.17857538,48.6428952 1.26784762,47.6018818 2.03955651,46.5380543 C2.30026451,46.1788162 2.63734987,45.7551037 3.02733729,45.3545358 L3.02733729,45.3545358 L3.06750979,45.3345323 C4.43106056,44.6795385 5.87975058,44.3368323 7.37340737,44.1738279 Z M80.503637,47.8725089 C79.6400108,48.7210911 78.8947529,49.6230713 78.2247152,50.6396176 L82.7688374,50.6396176 C82.0954933,49.6255511 81.3604852,48.7197686 80.503637,47.8725089 Z M15.0680791,34.190497 C17.4547889,33.757196 19.7480934,34.0541089 21.9083163,35.1748061 C23.7218652,36.1156363 25.0077161,37.5296093 25.8470404,39.3299328 C23.7369093,37.7693218 21.3121761,36.7374009 18.4969596,36.1986264 C17.4385876,35.2842473 16.1747242,34.8993847 14.7478562,34.9317872 C14.0224367,34.9483191 13.3153675,35.0757801 12.6168949,35.2629211 C12.5401869,35.283586 12.4629829,35.3014404 12.342796,35.3313632 C13.1826164,34.7071188 14.0963342,34.3668924 15.0680791,34.190497 Z" id="Fill-2" fill="#000000"></path>
    </g>
</svg>