<?xml version="1.0" encoding="UTF-8"?>
<svg width="184px" height="100px" viewBox="0 0 184 100" version="1.1" xmlns="http://www.w3.org/2000/svg" xmlns:xlink="http://www.w3.org/1999/xlink">
    <title>01_logos / Clients / Badoo / Black</title>
    <g id="01_logos-/-Clients-/-Badoo-/-Black" stroke="none" stroke-width="1" fill="none" fill-rule="evenodd">
        <path d="M100.357629,53.480506 C100.478372,49.5645245 97.1527549,44.6445986 91.206897,45.0575569 C87.3011594,45.3287699 83.7030987,48.5388579 83.5608991,53.2436079 C83.4138698,58.1119829 87.1917386,61.8808671 91.8296931,61.9689366 C96.3458753,62.0545662 100.358262,58.5147884 100.357629,53.480506 M63.4048549,40.1273838 C67.4132041,40.5704856 70.5893375,42.4423745 72.9391141,45.6580505 C74.5795555,47.9030736 75.4423332,50.4529949 75.452626,53.2463468 C75.4689362,57.6781523 75.449459,62.1102727 75.4644333,66.5420782 C75.4657692,66.9344162 75.3321998,66.9843144 74.989369,66.9786477 C73.6842367,66.9572403 72.3783126,66.9522032 71.0733386,66.9754208 C70.7647909,66.9808514 70.7187106,66.8784579 70.7217985,66.6221199 C70.7312204,65.8354764 70.7248863,65.0486755 70.724728,64.2618745 L70.7246488,63.7587218 L70.7246488,63.7587218 C70.3932985,64.0079764 70.160997,64.1873421 69.9239449,64.3603329 C68.2104243,65.6110134 66.3103657,66.4357495 64.2069048,66.7516662 C59.8951542,67.399319 56.1273408,66.2189995 52.9273755,63.2994069 C50.8917681,61.4420782 49.6141889,59.1264579 48.9872757,56.4532866 C48.2693104,53.3916338 48.6537876,50.4484301 50.0139471,47.6365042 C51.5851098,44.3884023 54.1099438,42.1392866 57.4940718,40.870819 C59.3950805,40.1582356 61.3669514,39.9020551 63.4048549,40.1273838 Z M135.379027,53.630838 C135.373243,61.1094213 129.024302,67.0912176 121.894925,66.9273565 C114.700308,67.0690231 108.724205,60.908412 108.536875,53.9275509 C108.32603,46.070088 114.671488,40.3440787 121.114411,40.045162 C129.460401,39.6580972 135.384723,46.286838 135.379027,53.630838 Z M105.358842,33.0130569 C105.365413,33.1552745 105.37721,33.2941079 105.37729,33.4329412 C105.378081,40.2648162 105.40611,47.0969273 105.364384,53.9285662 C105.346728,56.8254921 104.410079,59.4467977 102.579458,61.7299134 C100.979633,63.7250523 99.0225683,65.2423023 96.6054132,66.1378718 C95.0622787,66.7097329 93.4641963,66.9392329 91.8149664,66.9247514 C88.4246627,66.8949227 85.5010206,65.7178301 83.0177538,63.4520292 C80.6664729,61.3067236 79.1831161,58.6622005 78.7524002,55.5161773 C78.3041866,52.2427329 78.8357722,49.1215801 80.6779534,46.3077653 C82.4271822,43.6360894 84.7780672,41.688881 87.8495304,40.6847792 C89.6164154,40.1071727 91.4343688,39.9480338 93.296423,40.1163023 C95.9028872,40.3517838 98.1971616,41.3061449 100.242428,42.9003671 C100.27014,42.9219319 100.310836,42.926969 100.407985,42.9626218 L100.407985,33.0130569 L105.358842,33.0130569 Z M23.9894075,33.0000079 L23.9894075,43.0428366 C24.280299,42.8327764 24.487581,42.6874894 24.6902708,42.5360634 C26.4655485,41.2088829 28.4663977,40.4079153 30.6610691,40.1505542 C33.7402914,39.7893829 36.6738305,40.2843505 39.3248706,41.9512162 C42.3663261,43.8633227 44.49544,46.4877764 45.39353,50.0037069 C46.1148207,52.827281 45.9995409,55.6259847 44.9712068,58.357869 C44.0911689,60.6959199 42.5817632,62.586619 40.6208977,64.1325958 C39.0688956,65.356281 37.3305138,66.1858181 35.39926,66.624119 C34.250183,66.8847856 33.087171,66.9483782 31.9142621,66.9156375 C28.8523001,66.8303227 26.1734693,65.7667995 23.8545713,63.791494 C21.5112871,61.7954894 19.956593,59.3197069 19.3379932,56.3022856 C19.176158,55.5127301 19.0655496,54.6973597 19.0630159,53.8934014 C19.0416385,47.086869 19.0508229,40.2803366 19.0508229,33.4738042 L19.0508229,33.0000079 L23.9894075,33.0000079 Z M164.979376,53.3634579 C165.010697,61.3780921 158.420348,67.0348421 151.566424,66.9176523 C144.430397,67.0847403 137.974014,60.9003606 138.1406,53.1674856 C138.293409,46.0733699 144.268008,40.2934486 150.909345,40.0370319 C158.933328,39.7272542 164.951077,46.1421569 164.979376,53.3634579 Z M121.244338,45.0596898 C117.331396,45.3925278 113.611325,48.643463 113.556298,53.4424213 C113.502696,58.115375 117.19648,61.9482454 121.976397,61.9766366 C126.637075,62.0040463 130.538537,57.8610833 130.424682,53.5095556 C130.587388,49.1790417 126.660748,44.5988796 121.244338,45.0596898 Z M151.586693,45.0566755 C147.111366,44.9091847 143.212121,48.7026245 143.156302,53.3832912 C143.101037,58.0327125 146.82665,61.9344486 151.416228,61.9767125 C156.185139,62.0206292 159.861742,58.2288421 160.019064,53.7482403 C160.188342,48.9301569 156.102796,44.8986384 151.586693,45.0566755 Z M61.2280772,45.0581708 C57.2866315,45.4032866 53.6625219,48.7595273 53.6384948,53.4400366 C53.6143039,58.1961014 57.4118874,61.9710458 62.078741,61.9733292 C66.8071933,61.9756106 70.57469,58.0339718 70.4887052,53.5171662 C70.6566369,49.1923977 66.8622996,44.564856 61.2280772,45.0581708 Z M32.4133858,45.0551329 C27.8276081,44.9558875 24.1701656,48.8354292 23.9947123,53.1322579 C23.7924183,58.088781 27.8048055,61.929994 32.2848836,61.9710773 C37.0447687,62.0146005 40.8608793,58.2196653 40.8725425,53.4903597 C40.8835235,49.0122764 37.1625821,44.9218088 32.4133858,45.0551329 Z" id="Fill-4" fill="#000000"></path>
    </g>
</svg>