<?xml version="1.0" encoding="UTF-8"?>
<svg width="104px" height="41px" viewBox="0 0 104 41" version="1.1" xmlns="http://www.w3.org/2000/svg" xmlns:xlink="http://www.w3.org/1999/xlink">
    <title>Fill 10</title>
    <g id="Symbols" stroke="none" stroke-width="1" fill="none" fill-rule="evenodd">
        <g id="01_logos-/-Clients-/-Ulys-/-Black" transform="translate(-40.000000, -30.000000)" fill="#000000">
            <path d="M133.760226,39.8035226 C135.702733,39.8766998 137.58837,40.3041971 139.418186,40.9529313 C140.074405,41.1855859 140.738416,41.4150524 141.357171,41.7269638 C141.873874,41.9875696 142.345546,42.346783 142.800059,42.7079982 C142.899788,42.787255 142.911776,43.0887866 142.847263,43.2386998 C142.262001,44.5980759 141.646243,45.9445515 141.049142,47.2990344 C140.760969,47.9528101 140.481114,48.6107378 140.221188,49.2758571 C140.035067,49.7521392 139.79792,49.804038 139.346554,49.573311 C138.519724,49.1503363 137.683978,48.7215045 136.807696,48.4215298 C135.659874,48.0285081 134.465748,47.7694593 133.297995,47.4312278 C132.323557,47.149047 131.328364,47.0299024 130.336543,47.2059873 C129.047782,47.4347866 128.373805,48.3720778 128.964687,49.4482351 C129.182877,49.8456311 129.657621,50.1841591 130.093477,50.3694376 C131.073235,50.7858879 132.097125,51.1038788 133.111724,51.4361049 C134.765984,51.9778535 136.429384,52.4802333 137.989085,53.2812532 C139.190854,53.8984774 140.343021,54.5648571 141.36916,55.4465425 C142.098433,56.0731085 142.663615,56.8123689 143.077142,57.6652875 C143.511125,58.5603183 143.837586,59.4904919 143.881569,60.4972532 C143.884491,60.5650181 143.931621,60.6308553 143.958145,60.6975823 L143.958145,62.3286854 C143.840583,62.8059313 143.713805,63.2813237 143.606958,63.7609421 C143.23022,65.4523219 142.222065,66.7648409 140.94709,67.860868 C139.110606,69.4395533 136.894537,70.2400542 134.521344,70.6329277 C133.726284,70.7644539 132.920433,70.8321447 132.119529,70.929047 L130.171402,70.929047 C129.518854,70.8492712 128.867505,70.7586709 128.213609,70.6917957 C126.744047,70.5413635 125.318993,70.1898608 123.918664,69.7439024 C122.14954,69.1805787 120.535967,68.3129801 119.033661,67.2323743 C118.746462,67.0258174 118.713344,66.8687125 118.904036,66.5697758 C119.88799,65.0274195 120.854036,63.4739421 121.817609,61.9190561 C122.051609,61.5413816 122.254289,61.1445045 122.467534,60.7544485 C122.59656,60.5182351 122.745592,60.5279476 122.95037,60.6744503 C124.392808,61.7067902 126.020318,62.3345425 127.706647,62.8607957 C128.890658,63.2302405 130.111609,63.2916293 131.318474,63.3351501 C132.080416,63.3625823 132.904699,63.2127432 133.536416,62.6256944 C134.035361,62.1620163 134.009661,61.1001682 133.449275,60.6276673 C132.902601,60.1668065 132.270433,59.8544503 131.598255,59.614085 C130.039978,59.0567667 128.47301,58.5216166 126.92792,57.9305642 C125.210122,57.2733779 123.504537,56.5815678 122.089598,55.3578698 C120.850589,54.2863834 119.95505,53.0182007 119.502335,51.4218698 C119.119828,50.0727251 119.128145,48.719651 119.36192,47.3860018 C119.630762,45.8526908 120.397125,44.536094 121.517148,43.4071483 C122.49848,42.4179584 123.655517,41.7098373 124.899021,41.1329458 C126.17984,40.5387794 127.558664,40.2318354 128.944082,39.9759005 C130.539073,39.681264 132.15467,39.7430235 133.760226,39.8035226 Z M49.1502092,41.0071284 C49.1576271,43.3789747 49.1644455,45.750821 49.1685666,48.1226673 C49.1738115,51.1863978 49.122336,54.2515371 49.2009354,57.31334 C49.2455925,59.055877 50.1959787,60.3253201 51.7354484,61.1955136 C52.2883418,61.5080922 52.8766761,61.6559295 53.4656098,61.7170958 C54.0203764,61.7747034 54.628117,61.7088662 55.1599556,61.5374521 C56.9059268,60.9748698 58.0743533,59.8203454 58.4967222,58.0160488 C58.5914311,57.6114611 58.6155579,57.1831483 58.6160824,56.76566 C58.6223764,51.9475298 58.6190795,47.1294738 58.6141343,42.3114177 C58.6136847,41.8677577 58.5798922,41.4242459 58.5705262,40.9804376 C58.5653562,40.7390344 58.6495752,40.5995009 58.9427683,40.6009837 C60.9028086,40.6112893 62.8629239,40.6120307 64.8230392,40.6034304 C65.6402035,40.5997975 66.4572928,40.5678427 67.2743072,40.5442658 C67.6235464,40.5342568 67.745679,40.6507324 67.745604,41.0036438 L67.7451545,49.3416203 L67.7451545,49.3416203 L67.7509988,49.3416203 C67.7509988,51.8618228 67.7629873,54.3820995 67.7468778,56.9022278 C67.7357135,58.6427631 67.401385,60.3240597 66.7716156,61.956349 C65.9751314,64.0208065 64.7045781,65.7411754 63.0443994,67.1973797 C61.9258749,68.17834 60.6874657,68.9938174 59.3072179,69.5440922 C57.7222669,70.1760705 56.0704801,70.5691664 54.3375464,70.577396 C53.0976386,70.583179 51.8630507,70.5485552 50.6609066,70.2413146 C49.2833562,69.8892929 47.948215,69.4334738 46.7379037,68.6468373 C45.7015003,67.9731917 44.6999383,67.2749313 43.853702,66.3682604 C42.8153504,65.255774 41.9161401,64.0632893 41.2993331,62.6597993 C40.7745378,61.4656094 40.3536674,60.2448029 40.1822323,58.959642 C40.0588259,58.0340651 40.0246588,57.0926221 40.0147683,56.1576293 C39.9920651,54.0227378 40.0092236,51.8875497 40.0092986,49.7525099 L40.0072006,44.6826709 L40.0072006,44.6826709 C40.0060017,43.4746908 40.0035291,42.2667848 39.999998,41.0588047 C39.9987337,40.613217 40.1255118,40.5357396 40.5626415,40.5558318 C41.41697,40.5949042 42.2734715,40.5886022 43.1290738,40.5992043 C43.507385,40.6038752 43.885921,40.6103255 44.2642323,40.6049132 C45.1523533,40.5922351 46.0403994,40.5705859 46.9285205,40.5570181 C47.5109354,40.5481953 48.0935003,40.5514575 48.6758403,40.5410778 C49.0893677,40.5336637 49.1488605,40.5818553 49.1502092,41.0071284 Z M96.5438334,40.4648756 C96.7860006,40.4564976 96.8558334,40.5854289 96.8628017,40.7772318 C96.8779372,41.1967219 96.8870035,41.6165826 96.8877527,42.0363693 C96.8914991,44.1611776 96.9058104,46.28606 96.8872282,48.4107201 C96.8783118,49.4334217 97.3231591,50.2718828 97.9123925,51.0429497 C98.5444098,51.8701414 99.3882484,52.4562264 100.410341,52.7005212 C101.7783,53.0274832 103.081672,52.8379787 104.268681,52.0368105 C105.136197,51.4513186 105.768514,50.6468141 106.074744,49.6917291 C106.317361,48.9350456 106.343661,48.0916911 106.355799,47.2851848 C106.387493,45.1857327 106.358047,43.0853168 106.35415,40.9852716 C106.353326,40.5687472 106.466243,40.4949027 106.901874,40.5185537 C107.234779,40.5366441 107.57113,40.4811125 107.905609,40.4843747 C108.577787,40.490825 109.249891,40.5312318 109.92192,40.5286369 C111.22724,40.523447 112.532485,40.4969787 113.83773,40.4822987 C114.220686,40.4779244 114.604168,40.4946061 114.9866,40.4810383 C115.302646,40.469843 115.448456,40.6138991 115.466214,40.9123168 C115.47056,40.9862354 115.477228,41.0603765 115.477153,41.1343693 C115.474381,43.6544235 115.525782,46.176183 115.44898,48.6940872 C115.394433,50.4857797 114.998663,52.2260184 114.198133,53.8646839 C113.127563,56.0559967 111.610197,57.8619986 109.600929,59.2621523 C108.649344,59.9252698 107.635868,60.4779913 106.533378,60.8564814 C106.284692,60.9418919 106.181367,61.0684506 106.181966,61.3392879 C106.188335,64.0681233 106.180842,66.7969588 106.180842,69.5258684 C106.180842,70.2548973 106.186537,70.2565284 105.45981,70.2575664 C102.788179,70.2613476 100.116473,70.2588268 97.4448421,70.2728671 C97.0889343,70.2747671 96.9745193,70.1765302 96.9807383,69.8086423 C97.0041908,68.4131595 96.9901793,67.0170835 96.9901793,65.6211559 L96.9928017,65.6211559 C96.9928017,64.2129208 96.9859084,62.8045374 96.9978219,61.3963765 C97.0006692,61.0608141 96.877113,60.9054886 96.549528,60.787975 C94.6054473,60.0907526 92.9392744,58.9724832 91.5809055,57.4279769 C91.0024617,56.7702716 90.4367556,56.0950691 89.9325654,55.3812391 C88.7964329,53.7726007 88.2516317,51.9405754 87.9117585,50.0244741 C87.6327268,48.4509787 87.8076836,46.8746658 87.7668478,45.3005031 C87.7293839,43.856013 87.7553839,42.409966 87.753136,40.9645863 C87.7523867,40.5029841 87.8219948,40.4705844 88.2742599,40.5075808 C88.6672571,40.5396839 89.0669977,40.4802228 89.4635164,40.4842264 C90.2606,40.4922336 91.0575337,40.530268 91.8544674,40.5295266 C92.8601504,40.528711 93.8658334,40.5005374 94.8715164,40.4862282 C95.4289804,40.4782951 95.986819,40.4842264 96.5438334,40.4648756 Z M82.4131706,30.0000461 C82.6660524,29.9993105 82.7693032,30.070041 82.7666572,30.3386541 C82.7519948,31.7839597 82.7505712,33.2294136 82.7501965,34.6748675 C82.7487729,39.8148439 82.749672,44.9548204 82.749672,50.0947969 L82.7549919,50.0947969 C82.7549919,56.6804497 82.7537182,63.2660284 82.7591879,69.8516071 C82.7594127,70.1455763 82.6836605,70.2661297 82.3574991,70.264879 C79.6606173,70.2544895 76.9636605,70.2609398 74.2667037,70.2619778 C73.5428997,70.2622743 73.5476951,70.2617553 73.5473954,69.5534118 C73.545672,65.8837264 73.5390035,62.2141893 73.5383291,58.5445781 C73.5366058,49.5002599 73.5372052,40.4560157 73.5366058,31.4116233 C73.5366058,31.0188982 73.5145769,30.6244678 73.5488939,30.2348566 C73.5565366,30.148334 73.7579429,30.0147318 73.8729573,30.011692 C74.6216375,29.9921929 75.3710669,30.00324 76.1202715,30.0033882 C78.2178795,30.0036848 80.3154876,30.006428 82.4131706,30.0000461 Z" id="Fill-10"></path>
        </g>
    </g>
</svg>