<?xml version="1.0" encoding="UTF-8"?>
<svg width="184px" height="100px" viewBox="0 0 184 100" version="1.1" xmlns="http://www.w3.org/2000/svg" xmlns:xlink="http://www.w3.org/1999/xlink">
    <title>01_logos / Clients / ASD_Group / Black</title>
    <g id="01_logos-/-Clients-/-ASD_Group-/-Black" stroke="none" stroke-width="1" fill="none" fill-rule="evenodd">
        <path d="M54.5115584,67.3219901 C62.3373375,67.3219901 68.2818993,63.0099901 68.2818993,54.1605204 C68.2818993,46.2184597 62.3373375,40.9990508 54.5115584,40.9990508 C46.6857794,40.9990508 40.5897045,45.6888188 40.5897045,54.1605204 C40.5897045,62.6322221 46.6857794,67.3219901 54.5115584,67.3219901 L54.5115584,67.3219901 Z M101.591125,78.1476796 C102.558608,78.1476796 103.442717,78.3710221 104.242604,78.8177072 C105.042069,79.2643923 105.664627,79.8650773 106.109009,80.619337 L104.642548,81.4680387 C104.366185,80.9720055 103.956084,80.572116 103.413091,80.269221 C102.870099,79.9667514 102.262354,79.8153039 101.591125,79.8153039 C100.504717,79.8153039 99.6108742,80.1726519 98.9100202,80.8873481 C98.2087431,81.6020442 97.8583161,82.4954144 97.8583161,83.5674586 C97.8583161,84.6395028 98.2112824,85.527768 98.9176382,86.2326796 C99.6235708,86.9375912 100.549155,87.2898343 101.694814,87.2898343 C102.613204,87.2898343 103.361458,87.0737238 103.938732,86.6423536 C104.516428,86.2101326 104.884207,85.6324199 105.042069,84.9070884 L101.576312,84.9070884 L101.576312,83.373895 L106.760769,83.373895 L106.760769,84.0885912 C106.760769,85.5179834 106.29184,86.6865967 105.35356,87.5952818 C104.415279,88.5035414 103.190477,88.9574586 101.680001,88.9574586 C100.080226,88.9574586 98.7593536,88.436326 97.7178067,87.3940608 C96.6754135,86.3517956 96.1544285,85.0712983 96.1544285,83.5525691 C96.1544285,82.0436243 96.6754135,80.7656796 97.7178067,79.7183094 C98.7593536,78.6713646 100.050601,78.1476796 101.591125,78.1476796 Z M132.845698,78.3412006 L132.845698,85.2052613 C132.845698,85.8408304 133.031069,86.3466481 133.401387,86.7239906 C133.771705,87.1013331 134.326971,87.2897917 135.067608,87.2897917 C135.808245,87.2897917 136.363934,87.1013331 136.734252,86.7239906 C137.10457,86.3466481 137.289518,85.8408304 137.289518,85.2052613 L137.289518,78.3412006 L138.992982,78.3412006 L138.992982,85.3094878 C138.992982,86.4210956 138.627743,87.3072337 137.89684,87.9674768 C137.165514,88.6277199 136.223001,88.957416 135.067608,88.957416 C133.912215,88.957416 132.968855,88.6277199 132.238376,87.9674768 C131.507473,87.3072337 131.142233,86.4210956 131.142233,85.3094878 L131.142233,78.3412006 L132.845698,78.3412006 Z M123.662014,78.1477221 C125.163179,78.1477221 126.434535,78.6714072 127.476082,79.7183519 C128.518052,80.7657221 129.039037,82.0436669 129.039037,83.5526116 C129.039037,85.0615564 128.518052,86.3395011 127.476082,87.3864459 C126.434535,88.433816 125.163179,88.9575011 123.662014,88.9575011 C122.160849,88.9575011 120.889494,88.433816 119.847947,87.3864459 C118.805554,86.3395011 118.284992,85.0615564 118.284992,83.5526116 C118.284992,82.0436669 118.805554,80.7657221 119.847947,79.7183519 C120.889494,78.6714072 122.160849,78.1477221 123.662014,78.1477221 Z M113.20397,78.3413282 C114.132517,78.3413282 114.919708,78.6663448 115.56639,79.3168033 C116.213494,79.9668365 116.536835,80.7581072 116.536835,81.6914663 C116.536835,82.356389 116.346809,82.9643061 115.966757,83.5152177 C115.586281,84.0661293 115.089843,84.4660188 114.477865,84.7140354 L116.833513,88.7639801 L114.966685,88.7639801 L112.776517,84.9671569 L110.759869,84.9671569 L110.759869,88.7639801 L109.056828,88.7639801 L109.056828,78.3413282 L113.20397,78.3413282 Z M145.51067,78.3413282 C146.48831,78.3413282 147.305127,78.6684718 147.961966,79.3236099 C148.618805,79.9787481 148.946801,80.7929912 148.946801,81.7654884 C148.946801,82.7286265 148.618805,83.5398917 147.961966,84.2001348 C147.305127,84.8603779 146.48831,85.190074 145.51067,85.190074 L143.392026,85.190074 L143.392026,88.7639801 L141.688985,88.7639801 L141.688985,78.3413282 L145.51067,78.3413282 Z M123.662014,79.8153464 C122.625546,79.8153464 121.753711,80.1705674 121.047778,80.8801586 C120.341422,81.5897497 119.988456,82.4805674 119.988456,83.5526116 C119.988456,84.6242304 120.341422,85.5154735 121.047778,86.2250646 C121.753711,86.9350812 122.625546,87.2898768 123.662014,87.2898768 C124.698906,87.2898768 125.570741,86.9350812 126.27625,86.2250646 C126.982183,85.5154735 127.335572,84.6242304 127.335572,83.5526116 C127.335572,82.4805674 126.982183,81.5897497 126.27625,80.8801586 C125.570741,80.1705674 124.698906,79.8153464 123.662014,79.8153464 Z M145.51067,79.9493945 L143.392026,79.9493945 L143.392026,83.5824331 L145.51067,83.5824331 C146.01388,83.5824331 146.42906,83.4114166 146.754516,83.0685326 C147.08082,82.726074 147.24376,82.2921514 147.24376,81.7654884 C147.24376,81.2396762 147.08082,80.8057536 146.754516,80.4628696 C146.42906,80.120411 146.01388,79.9493945 145.51067,79.9493945 Z M113.20397,79.9493945 L110.759869,79.9493945 L110.759869,83.4331127 L113.20397,83.4331127 C113.658509,83.4331127 114.04364,83.2646486 114.359787,82.927295 C114.675509,82.5899414 114.833371,82.1777149 114.833371,81.6914663 C114.833371,81.2052177 114.675509,80.7929912 114.359787,80.4552122 C114.04364,80.1178586 113.658509,79.9493945 113.20397,79.9493945 Z M54.5115584,36.8389238 C64.5947981,36.8389238 72.7968206,43.0410398 72.7968206,55.4461227 L72.7968206,71.4816917 L68.4329891,71.4816917 L68.4329891,67.8512055 C68.4329891,66.9433713 68.4329891,65.8087912 68.5832326,64.8256586 C65.9495285,68.9857856 60.3807869,71.4816917 54.5115584,71.4816917 C43.8260753,71.4816917 36.0002963,64.5227635 36.0002963,54.1605204 C36.0002963,43.7974265 43.8260753,36.8389238 54.5115584,36.8389238 Z M108.876916,36.8389238 L108.876916,40.9990508 L88.4780888,40.9990508 C83.4362573,40.9990508 81.5609652,42.7389956 81.5609652,46.8991227 C81.5609652,50.7567801 84.7969127,51.664189 89.010924,51.664189 L96.7613697,51.664189 C103.759752,51.664189 108.876916,54.0090729 108.876916,60.5902331 C108.876916,67.6240343 105.351486,71.4816917 96.1705532,71.4816917 L76.9711337,71.4816917 L76.9711337,67.3219901 L96.0203097,67.3219901 C101.287718,67.3219901 104.286662,65.5820453 104.286662,60.5902331 C104.286662,56.4296807 100.900471,55.8247414 95.9339727,55.8247414 L89.9140775,55.8247414 C83.7435157,55.8247414 76.9711337,54.840758 76.9711337,46.8991227 C76.9711337,39.8644707 81.1034633,36.8389238 88.4023322,36.8389238 L108.876916,36.8389238 Z M147.790011,12.4252442 L147.790011,71.4816917 L143.350423,71.4816917 L143.350423,65.8513326 C139.994704,69.5443547 135.034131,71.4816917 129.504326,71.4816917 C118.593689,71.4816917 110.993064,64.674211 110.993064,54.160095 C110.993064,43.7974265 118.818843,36.8389238 129.504326,36.8389238 C135.298644,36.8389238 140.867809,39.3352552 143.576423,43.3435094 C143.42618,42.0579072 143.42618,40.2426641 143.42618,38.8056144 L143.42618,38.8056144 L143.42618,12.4252442 L147.790011,12.4252442 Z M129.504326,40.9990508 C121.678547,40.9990508 115.582895,45.6888188 115.582895,54.160095 C115.582895,62.6322221 121.678547,67.3219901 129.504326,67.3219901 C137.330528,67.3219901 143.350423,62.1025812 143.350423,54.160095 C143.350423,45.3106254 137.330528,40.9990508 129.504326,40.9990508 Z" id="Fill-1" fill="#000000"></path>
    </g>
</svg>