<svg xmlns="http://www.w3.org/2000/svg" width="164" height="44" viewBox="0 0 164 44">
    <path fill-rule="evenodd" d="M27.388 7.262c1.43 1.878 1.86 4.237 2.064 6.578.48 5.496-1.17 10.515-3.6 15.33-2.648 5.247-6.164 9.911-10.027 14.328-.15.17-.346.301-.521.451l-.193-.168 1.2-2.454c.198-.41.396-.82.592-1.23 2.413-5.074 4.523-10.274 5.23-15.871.336-2.666.38-5.449.01-8.104-.625-4.49-3.07-7.874-7.41-9.713 3.126-2.662 10.279-2.265 12.655.853zm-.796-3.221c.492.407.885.932 1.324 1.402l-.202.32c-.307-.074-.636-.1-.918-.228-8.516-3.889-17.988.803-19.995 9.91-1.137 5.161-.298 10.171 1.64 14.938 1.626 4 3.761 7.794 5.67 11.68.128.261.247.526.486 1.037-.37-.216-.519-.261-.605-.36-5.04-5.772-9.618-11.844-12.303-19.106C.188 19.576-.561 15.408.492 11.118 1.968 5.106 7.192.848 13.593.283c4.832-.426 9.222.628 12.999 3.758zm120.466 12.321c2.866.723 5.06 4.28 4.266 7.015-.073.249-.637.5-.977.505-2.62.042-5.239.023-7.858.023h-1.28c.007 4.258 4.073 5.592 8.887 2.965l1.092 1.91c-2.439 1.915-5.099 2.507-8.023 1.586-2.856-.9-4.471-2.95-4.822-5.864-.662-5.503 3.589-9.432 8.715-8.14zm-29.01.399c1.372.69 2.316 1.832 2.37 3.316.123 3.405.039 6.816.039 10.3h-2.315l-.146-1.366c-1.745 1.659-3.75 2.097-5.966 1.543-1.795-.448-3.022-1.844-3.206-3.54-.2-1.845.573-3.535 2.394-4.185 1.717-.613 3.597-.784 5.41-1.124.34-.063.703-.009 1.175-.009.094-1.209-.121-2.189-1.072-2.72-2.04-1.14-3.892-.258-5.82.781l-1.096-1.844c2.1-1.811 5.9-2.324 8.233-1.152zm45.48.974l-.99 1.844c-.945-.35-1.8-.798-2.708-.962-.702-.126-1.526-.045-2.194.209-1.14.434-1.264 1.724-.265 2.437.601.43 1.328.687 2 1.015.957.466 1.989.82 2.861 1.409 2.35 1.583 2.196 4.821-.236 6.287-2.445 1.472-6.455.875-8.488-1.33l1.121-1.653c1.197.479 2.25 1.005 3.366 1.303.604.161 1.38.083 1.955-.166.463-.201.987-.799 1.032-1.264.043-.452-.369-1.161-.788-1.403-1.157-.668-2.434-1.125-3.64-1.711-1.415-.687-2.531-1.63-2.63-3.352-.093-1.63.611-2.813 2.038-3.572 2.248-1.197 5.494-.827 7.566.909zm-58.31-.9c1.352.613 1.379.734.694 1.987-.149.272-.315.534-.346.585-1.421-.331-2.617-.735-3.842-.854-.865-.084-1.77.263-1.998 1.307-.226 1.04.544 1.492 1.308 1.853 1.143.54 2.35.952 3.468 1.533 1.816.943 2.58 2.338 2.328 3.992-.253 1.667-1.517 2.903-3.414 3.341-2.522.582-5.197-.133-6.964-1.907l1.147-1.707c1.096.465 2.09.936 3.12 1.304.43.153.949.17 1.407.105.846-.12 1.66-.411 1.868-1.376.21-.973-.493-1.446-1.218-1.8-1.135-.552-2.332-.983-3.458-1.552-1.876-.947-2.663-2.318-2.433-4.055.211-1.594 1.423-2.77 3.348-3.244 1.72-.424 3.386-.236 4.985.489zm-33.092-4.363c3.232.022 5.185 1.454 5.925 4.543.355 1.48.45 3.023.65 4.46-.19 1.555-.247 3.024-.567 4.434-.756 3.329-2.743 4.863-6.057 4.858-3.255-.006-5.207-1.515-5.984-4.791-.71-2.995-.694-6.024.049-9.011.754-3.035 2.794-4.515 5.984-4.493zm-15.858-.001c3.073-.025 5.097 1.318 5.893 4.139.949 3.366.97 6.785-.062 10.138-.853 2.774-2.823 4.047-5.863 4.018-3.002-.028-5.01-1.379-5.763-4.157-.438-1.618-.541-3.326-.794-4.991.25-1.672.35-3.34.769-4.923.753-2.853 2.729-4.199 5.82-4.224zm78.198.379v1.255c.001 3.9-.012 7.8.008 11.7.01 1.853.148 1.996 1.894 2.437v2.088c-2.177.745-4.186-.367-4.514-2.572-.156-1.045-.154-2.119-.16-3.18-.018-3.466-.006-6.933-.006-10.4V12.85h2.778zm-7.345-.011v2.85c0 3.422-.01 6.844.005 10.266.007 1.624.265 1.92 1.863 2.255v2.156c-2.39.668-4.42-.515-4.485-2.901-.132-4.828-.04-9.662-.04-14.626h2.657zm-80.838.062v17.48H43.73V16.116l-3.157 2.19c-.607-3.195 2.095-5.728 5.711-5.406zm40.212-.006V30.37h-2.516V16.143l-3.145 2.113c-.818-2.986 2.006-5.67 5.66-5.36zm31.326 10.62c-1.712.312-3.271.497-4.77.902-.985.267-1.56 1.07-1.425 2.174.14 1.14.885 1.837 1.962 1.858.851.016 1.859-.163 2.535-.63 1.302-.9 1.826-2.306 1.698-4.303zm-61.589-8.56c-1.669.032-2.75.848-3.194 2.62-.657 2.631-.657 5.3-.029 7.935.47 1.967 1.575 2.777 3.441 2.732 1.723-.041 2.836-.965 3.218-2.874.244-1.224.287-2.488.372-3.283-.068-1.406-.092-2.35-.17-3.288-.035-.426-.15-.852-.275-1.264-.532-1.757-1.655-2.61-3.363-2.577zm15.775 0c-1.69.035-2.832.934-3.22 2.745-.27 1.26-.338 2.562-.502 3.886.17 1.347.236 2.731.54 4.061.405 1.767 1.513 2.576 3.195 2.595 1.78.021 2.917-.768 3.352-2.555.647-2.67.647-5.38.03-8.053-.426-1.845-1.628-2.714-3.395-2.678zm73.173 3.353c-2.074.021-3.759 1.546-3.821 3.468h7.164c-.143-2.213-1.414-3.488-3.343-3.468z"/>
</svg>
