<svg xmlns="http://www.w3.org/2000/svg" width="184" height="100" viewBox="0 0 184 100">
    <path fill-rule="evenodd" d="M98.874 89.503c.055.039.115.073.163.12.119.116.201.24.02.375l-.016.016c-.417.422-.415.42-.931.129-.83-.469-1.757-.324-2.376.281-.74.724-.747 2.1-.167 2.83.688.864 1.965.911 2.771.356.073-.05.124-.172.132-.265.02-.212.006-.427.006-.67-.338 0-.644-.003-.95.002-.174.003-.25-.071-.248-.246.01-.754-.095-.676.646-.677.43 0 .86.005 1.289-.002.19-.003.28.06.279.264-.006.867-.006 1.735 0 2.602.002.17-.054.212-.222.231-.305.035-.468-.11-.582-.375-.555.34-1.151.446-1.786.418-.619-.028-1.16-.247-1.638-.62-.573-.447-.931-1.033-1.075-1.75-.185-.918.012-1.742.587-2.48.446-.572 1.03-.905 1.733-1.06.874-.192 1.649.019 2.365.52zm21.308-.328c.361.115.4.215.234.553-.04.081-.078.163-.113.246-.06.14-.142.175-.3.138-.416-.097-.836-.19-1.26-.236-.189-.02-.393.068-.586.125-.27.08-.368.297-.386.555-.019.266.12.456.35.559.499.223 1.006.428 1.511.639.674.281 1.177.72 1.26 1.487.051.483-.15.89-.541 1.183-.47.354-.998.527-1.571.457-.575.046-1.1-.079-1.614-.272-.345-.13-.386-.228-.224-.558.023-.047.06-.091.072-.141.057-.251.21-.254.413-.181.511.18 1.04.295 1.58.228.221-.027.445-.13.64-.245.291-.172.321-.698-.19-.942-.33-.159-.682-.27-1.017-.42-.355-.157-.725-.3-1.045-.515-.413-.277-.637-.686-.645-1.211-.006-.47.093-.89.444-1.216.295-.276.666-.399 1.057-.464.666-.11 1.303.03 1.931.23zm-46.893-.218c.064-.005.166.094.203.17.62 1.304 1.231 2.612 1.847 3.917.225.477.457.95.688 1.423.126.261.058.337-.215.382-.568.093-.928-.103-1.082-.664-.02-.072-.085-.132-.097-.203-.069-.412-.337-.453-.693-.438-.604.027-1.21.007-1.813.007-.18.382-.347.76-.538 1.124-.041.079-.165.149-.258.16-.212.023-.428.009-.643.006-.184-.003-.253-.108-.177-.282.156-.358.314-.715.481-1.068.471-.992.95-1.981 1.421-2.973.22-.462.426-.93.652-1.387.04-.08.144-.168.224-.174zm15.94.003c.069-.008.184.108.226.195.374.772.737 1.549 1.102 2.325.477 1.014.952 2.028 1.427 3.043.097.207.027.313-.206.318-.1.002-.2 0-.357 0-.325.104-.518-.084-.64-.425-.09-.246-.21-.484-.338-.712-.041-.073-.156-.144-.238-.146-.652-.012-1.304-.002-1.955-.01-.135-.002-.21.042-.264.16-.143.315-.296.626-.438.942-.064.142-.157.207-.319.195-.19-.014-.383 0-.575-.004-.222-.005-.29-.109-.197-.306.29-.62.586-1.238.876-1.858.549-1.171 1.093-2.344 1.649-3.512.043-.092.156-.195.247-.205zm-21.536-.008c.04.099.113.198.113.297.007 1.766.002 3.532.008 5.298.001.222-.061.325-.299.298-.159-.018-.323-.014-.483 0-.182.014-.24-.052-.238-.236.008-.99.004-1.98.004-2.971v-.268c-.283.32-.533.6-.78.883-.276.314-.547.63-.823.943-.106.12-.228.12-.335.004-.303-.33-.605-.663-.902-1-.228-.259-.446-.526-.705-.834v3.169c0 .28-.026.305-.3.307-.17 0-.339-.009-.507.002-.165.01-.21-.06-.209-.217.004-1.82.002-3.64.007-5.459 0-.067.053-.187.09-.19.084-.009.204.014.256.072.478.538.943 1.087 1.414 1.631.244.282.492.56.74.837.084.095.174.184.276.291.326-.36.656-.715.977-1.079.26-.295.51-.6.766-.899.208-.241.411-.487.632-.716.075-.078.197-.11.298-.163zm38.727.033c.209-.002.274.068.255.265-.013.137-.013.277 0 .414.019.199-.08.25-.254.249-.667-.004-1.335-.002-2.002-.002h-.683v1.659h1.728c.613 0 .613 0 .61.616-.001.256-.046.304-.308.305-.598.002-1.197 0-1.795 0h-.234v1.43h.242c.783 0 1.565-.001 2.347 0 .312 0 .346.034.346.336.001.585.001.585-.594.585-1.036 0-2.071-.005-3.107.004-.199.001-.264-.052-.263-.258.008-1.78.008-3.562 0-5.342 0-.203.06-.262.261-.26 1.15.008 2.301.008 3.451-.001zm3.478 0c.806.012 1.611.014 2.417.002.663-.01 1.283.468 1.511 1.092.243.662.21 1.298-.113 1.918-.153.294-.372.53-.71.666.124.254.241.497.361.738.175.351.355.7.529 1.052.141.287.077.388-.24.389-.19 0-.383-.01-.574.003-.165.012-.249-.063-.317-.2-.276-.562-.562-1.12-.834-1.683-.055-.113-.112-.154-.237-.151-.343.009-.687.003-1.059.003 0 .513-.002 1.009 0 1.505.004.552.03.53-.522.522-.571-.007-.489.08-.49-.481-.003-1.697.003-3.394-.006-5.09 0-.223.062-.289.284-.285zm-30.817.024c.378.26.75.529 1.123.795.65.463 1.298.927 1.948 1.388.177.125.357.243.577.393v-2.286c0-.282.026-.308.298-.31.177 0 .354.006.53-.001.14-.006.187.053.187.19-.003 1.828-.003 3.655 0 5.483 0 .145-.063.186-.195.182-.192-.006-.384-.005-.576 0-.175.004-.246-.076-.245-.25.004-.537.006-1.075-.004-1.612-.002-.085-.048-.205-.113-.248-.914-.607-1.835-1.203-2.754-1.801-.017-.01-.037-.016-.074-.031v2.104c0 .507.001 1.014-.001 1.52-.001.274-.046.316-.32.317-.17 0-.338-.006-.507.001-.14.006-.187-.053-.187-.19.002-1.843 0-3.686.005-5.528 0-.06.042-.163.074-.167.076-.01.171.008.234.051zm-5.801 2.077l-.722 1.538h1.46c-.247-.512-.485-1.01-.738-1.538zm15.94.01l-.722 1.52h1.457l-.734-1.52zM110.644 90v1.892c.544 0 1.073.018 1.599-.009.198-.01.393-.094.528-.295.22-.33.212-.679.136-1.031-.065-.296-.243-.538-.57-.55-.56-.022-1.122-.007-1.693-.007zM88.335 79.83c.067.025.134.186.117.265-.04.18-.11.363-.212.516-.041.061-.206.085-.298.06-.46-.124-.921-.254-1.402-.2-.189.021-.4.067-.547.176-.358.269-.427.778.123 1.059.459.234.953.4 1.427.604.545.234 1.04.526 1.234 1.141.227.723-.058 1.373-.73 1.725-.41.216-.833.347-1.117.323-.792-.023-1.383-.106-1.932-.393-.178-.094-.233-.205-.133-.4.254-.494.246-.49.782-.327.552.169 1.113.288 1.683.09.263-.091.467-.267.503-.557.031-.252-.167-.398-.34-.53-.116-.088-.264-.141-.404-.196-.445-.176-.906-.319-1.338-.523-.504-.238-.889-.598-1.003-1.19-.175-.909.264-1.645 1.132-1.879.843-.227 1.66-.066 2.455.236zm-17.207.327l.42.923c.352.74.709 1.479 1.079 2.25.452-.975.883-1.91 1.32-2.843.124-.266.261-.527.4-.787.024-.046.08-.103.125-.106.256-.022.514-.052.77-.035.174.012.216.172.126.374-.123.275-.248.549-.377.82l-1.75 3.693c-.139.292-.271.588-.42.875-.037.07-.131.158-.193.153-.078-.006-.183-.082-.218-.156-.407-.855-.803-1.716-1.203-2.574-.15-.32-.301-.64-.454-.96l-.865-1.813c-.133-.277-.043-.424.26-.427.769-.008.67-.032.98.613zm47.84.087c-.007 1.604-.003 3.209 0 4.814 0 .38-.091.392-.37.387-.645-.011-.645-.003-.645-.64 0-.383-.007-.767.004-1.15.004-.17-.042-.273-.193-.37-.916-.59-1.822-1.194-2.732-1.793-.01-.006-.029 0-.072 0v3.649c0 .275-.026.3-.306.3-.17 0-.342.02-.505-.009-.076-.014-.14-.12-.198-.193-.02-.023-.004-.074-.004-.113 0-1.773 0-3.546.003-5.32 0-.083.038-.237.065-.238.104-.006.23.008.313.066.759.529 1.51 1.07 2.264 1.604.399.283.8.56 1.201.84.041.028.089.048.16.086 0-.802.007-1.562-.004-2.321-.003-.226.094-.3.296-.3.752-.005.727-.02.724.701zm-8.256-.7c.246 0 .329.1.335.35.015.565.03.625-.622.619-.78-.008-1.562-.002-2.36-.002v1.613h1.36l.46.003c.077 0 .153-.002.23-.006.223-.012.305.085.289.3-.01.137-.01.276 0 .414.011.16-.051.215-.212.213-.621-.007-1.242-.003-1.863-.003h-.262v1.475h.234c.82 0 1.64.005 2.46-.004.216-.002.284.096.286.287.007.752 0 .637-.596.638h-3.106c-.278 0-.304-.025-.304-.302 0-1.765.003-3.53-.004-5.295-.001-.224.091-.301.294-.301 1.127 0 2.254-.001 3.381.001zm-7.13.015c.065.02.137.143.138.222.007 1.789.005 3.578.006 5.368 0 .201-.072.316-.299.295-.16-.014-.322-.006-.483-.002-.171.005-.236-.065-.235-.244.007-.999.004-1.997.004-2.996v-.269c-.355.402-.685.77-1.01 1.144-.207.24-.398.495-.615.726-.081.088-.208.12-.319-.005-.39-.445-.788-.886-1.18-1.33-.13-.147-.252-.3-.422-.503v3.13c0 .312-.034.346-.336.346-.153 0-.307.002-.46 0-.174-.003-.264-.09-.263-.268v-.737c0-1.536-.002-3.072.005-4.608 0-.092.057-.245.115-.26.086-.021.229.027.291.096.564.626 1.117 1.262 1.672 1.896.245.28.486.562.732.846.313-.358.598-.683.88-1.009.509-.583 1.013-1.17 1.528-1.747.055-.061.182-.113.252-.091zm-37.022-.015c.887 0 .741-.059.743.697.004 1.627.002 3.254.001 4.881 0 .297-.02.318-.31.32-.154 0-.307-.004-.46 0-.177.006-.245-.078-.244-.25.004-.545.006-1.09-.004-1.635-.001-.08-.051-.19-.115-.233-.942-.629-1.89-1.248-2.872-1.892 0 1.268-.006 2.496.005 3.724.002.225-.074.302-.287.287-.145-.01-.292-.012-.437 0-.228.022-.295-.099-.295-.298v-1.404c0-1.29-.002-2.579.005-3.868 0-.103.036-.269.1-.293.081-.032.223.023.311.083.744.509 1.483 1.025 2.22 1.542.448.314.89.634 1.37.977V79.98c0-.07-.02-.148.006-.205.04-.084.11-.154.174-.224.015-.016.059-.007.09-.007zm25.035-.002c.383.004.766.001 1.15.001h2.3c.305 0 .39.087.392.391 0 .077.002.154 0 .23-.005.248-.098.344-.345.346-.413.003-.825 0-1.266 0v2.494c0 .713-.005 1.427.003 2.14.003.213-.065.316-.29.3-.144-.011-.291-.011-.436 0-.221.016-.294-.08-.293-.297l.004-2.175v-2.461h-.988c-.107 0-.215.003-.322-.001-.165-.007-.275-.068-.258-.264.01-.122.013-.246 0-.368-.031-.274.082-.339.349-.336zm34.004.005c.122.001.244.058.366.088v.784c-.2.03-.397.078-.598.088-.312.015-.626.004-.968.004v4.563c0 .34-.027.368-.36.367-.693-.002-.658.075-.653-.53v-4.4h-1.154c-.43 0-.457-.027-.457-.444 0-.524 0-.524.512-.524 1.104 0 2.208-.003 3.312.004zm-44.011-.003c.268.002.353.091.36.35.014.563.031.625-.622.619-.78-.008-1.562-.002-2.362-.002v1.613h1.29c.261 0 .522.006.782-.002.2-.007.279.08.267.274-.007.138-.011.277.001.414.017.181-.049.242-.234.239-.62-.01-1.242-.004-1.863-.004h-.24v1.475h2.74c.206.008.238.04.24.44v.118c-.002.175.022.366-.25.364-.76-.003-1.518 0-2.277 0-.407 0-.813-.005-1.22.001-.184.003-.261-.07-.261-.257.003-1.796.004-3.591 0-5.387-.001-.233.138-.256.313-.256h3.336zm-22.813-.001c.481.006.376.076.378.703.005 1.628.002 3.256.002 4.884 0 .29-.023.31-.319.311-.138 0-.277-.007-.414.002-.209.014-.285-.075-.283-.283.006-.89.003-1.781.003-2.672 0-.883.006-1.767-.004-2.65-.003-.227.1-.295.3-.295h.337zm65.892-63.114l-16.029 20.997c.12 0 .2-.006.278.001.852.075 1.704.14 2.555.23 1.141.12 2.235.443 3.311.828 1.108.395 2.157.912 3.153 1.536.813.51 1.58 1.081 2.293 1.726.77.696 1.479 1.444 2.122 2.26.798 1.01 1.465 2.097 2.01 3.26.587 1.248 1.04 2.543 1.278 3.903.121.69.19 1.389.284 2.084.003.025.028.047.043.07v2.58c-.03.197-.072.393-.09.591-.125 1.386-.45 2.727-.925 4.031-.543 1.492-1.282 2.88-2.213 4.168-.635.878-1.338 1.694-2.124 2.435-.913.862-1.91 1.62-2.992 2.26-1.169.69-2.392 1.266-3.701 1.632-.793.222-1.603.385-2.411.547-1.174.235-2.368.23-3.553.174-.84-.04-1.678-.183-2.509-.33-.99-.175-1.96-.463-2.877-.87-.919-.407-1.818-.872-2.682-1.385-.962-.57-1.828-1.28-2.642-2.056-1.142-1.086-2.108-2.303-2.92-3.651-.652-1.081-1.167-2.22-1.564-3.415-.317-.957-.559-1.932-.684-2.933-.06-.48-.13-.964-.134-1.446-.015-1.84-.006-3.68-.006-5.539h6.815v.237c0 1.52-.002 3.041 0 4.562.003 1.222.297 2.384.733 3.518.344.892.804 1.726 1.404 2.458.517.63 1.129 1.188 1.724 1.752.539.511 1.188.874 1.848 1.204.883.441 1.808.773 2.792.903.472.062.947.107 1.422.136 1.256.077 2.473-.133 3.656-.548 1.066-.374 2.052-.897 2.927-1.616.328-.27.67-.528.962-.833.67-.699 1.256-1.464 1.726-2.317.533-.97.895-2 1.101-3.082.093-.489.11-.993.147-1.49.095-1.307-.126-2.57-.551-3.8-.387-1.118-.957-2.136-1.699-3.062-.772-.964-1.682-1.768-2.737-2.399-1.039-.62-2.156-1.047-3.352-1.27-.542-.1-1.082-.134-1.63-.134l-6.94.003h-7.261l16.96-21.884h-11.117c.15-2.043-.015-4.04-.516-6.026h24.315zM76.175 57.674v13.841h-6.326v-13.84h6.326zM85.492 6c.19.03.377.071.567.09 1.204.121 2.36.43 3.49.855 1.103.415 2.145.947 3.102 1.634.514.368 1.017.758 1.489 1.18.493.441.988.896 1.4 1.41.57.707 1.104 1.45 1.58 2.225.78 1.273 1.205 2.692 1.49 4.15.128.657.198 1.326.278 1.992.037.31.04.623.047.935.008.362-.001.724.003 1.086.01 1.08-.1 2.149-.27 3.216-.168 1.065-.432 2.103-.775 3.12-.465 1.379-1.065 2.7-1.811 3.95-.466.78-.923 1.569-1.437 2.316-.58.844-1.219 1.647-1.836 2.465-.631.835-1.264 1.67-1.903 2.5-.705.913-1.42 1.819-2.126 2.732l-1.786 2.333c-.71.919-1.43 1.83-2.14 2.75-.485.625-.957 1.26-1.44 1.886-.316.412-.642.817-.989 1.257h7.469v5.576H69.888c.136-.188.258-.368.392-.54.853-1.103 1.713-2.202 2.563-3.308.624-.812 1.234-1.636 1.855-2.45.764-1 1.53-2 2.301-2.994.884-1.138 1.778-2.268 2.662-3.406.822-1.06 1.634-2.128 2.454-3.19.797-1.032 1.599-2.06 2.398-3.091.75-.965 1.5-1.93 2.248-2.895.744-.96 1.515-1.898 2.222-2.885.647-.903 1.248-1.842 1.825-2.792.552-.907.973-1.88 1.274-2.904.204-.695.371-1.397.406-2.122.03-.649.075-1.301.04-1.948-.061-1.117-.298-2.201-.725-3.243-.493-1.204-1.246-2.223-2.222-3.06-1.046-.9-2.258-1.493-3.62-1.79-.767-.169-1.54-.222-2.31-.164-1.266.096-2.457.467-3.558 1.12-.733.434-1.385.963-1.944 1.596-.902 1.02-1.512 2.2-1.82 3.532-.021.094-.044.187-.074.31-.317-.17-.62-.33-.92-.498l-1.412-.801c-.877-.495-1.755-.988-2.634-1.48-.309-.173-.616-.349-.93-.509-.13-.065-.174-.109-.119-.27.3-.88.693-1.72 1.194-2.497.476-.739.979-1.47 1.546-2.138.515-.607 1.11-1.152 1.712-1.676.527-.46 1.089-.888 1.676-1.265 1.37-.877 2.849-1.512 4.436-1.886.778-.184 1.56-.343 2.362-.371.024-.001.046-.028.07-.043h2.256zm-9.301 15.565v.23c0 7.424-.001 14.849.006 22.273 0 .24-.14.38-.257.533-.638.841-1.293 1.67-1.938 2.505-.658.853-1.31 1.711-1.97 2.563-.665.858-1.337 1.712-2.005 2.567l-.131.171-.054-.021V32.34c-.271.14-.518.26-.758.391-.566.312-1.128.633-1.695.944l-2.928 1.604c-.103.057-.167.053-.276-.01-.96-.547-1.93-1.078-2.893-1.618-1.081-.606-2.16-1.215-3.292-1.852.267-.155.5-.295.736-.429 1.1-.622 2.198-1.244 3.3-1.862.819-.46 1.643-.91 2.463-1.37.93-.523 1.854-1.055 2.785-1.578.819-.46 1.644-.91 2.463-1.37l2.785-1.579c.813-.456 1.63-.903 2.444-1.357.393-.219.783-.444 1.215-.69z"/>
</svg>
