<svg xmlns="http://www.w3.org/2000/svg" width="184" height="100" viewBox="0 0 184 100">
    <path fill-rule="evenodd" d="M123.201 68.705l.308.187v-1.028c.152-.05 3.863-.066 4.412-.024l.05.005V86.38l-2.226.002h-2.232v-1.005c-2.927 1.768-5.96 2.063-9.095.737-1.937-.818-3.439-2.174-4.516-3.989-2.188-3.686-1.728-8.343 1.123-11.525 1.589-1.774 3.569-2.843 5.92-3.171 2.227-.311 4.303.13 6.256 1.276zm-44.545-7.234v24.896h-4.45v-.997c-2.732 1.659-5.58 2.028-8.562.966-2.003-.713-3.596-1.99-4.783-3.762-2.402-3.588-2.174-8.331.567-11.654 1.566-1.9 3.568-3.068 5.995-3.46 2.418-.39 4.664.118 6.779 1.432l.001-.219v-7.202h4.453zm-32.478 5.993c2.426-.4 4.679.11 6.804 1.429v-1.029c.168-.052 4.008-.072 4.432-.028.05.162.073 17.945.025 18.503-.146.053-4.18.067-4.46.01v-.978c-2.487 1.52-5.102 1.963-7.881 1.182-2.132-.6-3.858-1.82-5.18-3.604-2.634-3.558-2.565-8.494.266-11.982 1.557-1.919 3.56-3.102 5.994-3.503zm60.778-5.99v24.894h-4.446v-.992c-.08.04-.137.063-.188.095-.905.559-1.873.97-2.91 1.205-.95.215-1.907.307-2.881.217-3.105-.285-5.546-1.725-7.327-4.285-.878-1.262-1.392-2.676-1.594-4.206-.579-4.4 1.866-8.564 5.837-10.28.976-.422 1.995-.672 3.056-.755 2.076-.16 3.997.319 5.778 1.394.04.024.082.047.132.075l.084.047v-7.408h4.459zm33.68 5.821c.918.13 1.814.358 2.65.772 1.202.595 2.13 1.468 2.646 2.738.308.756.425 1.548.435 2.36 0 .014-.004.027-.01.045l-.008.031h-4.72l-.046-.156c-.086-.286-.158-.578-.26-.859-.204-.557-.612-.912-1.155-1.121-.723-.278-1.475-.316-2.235-.283-.437.02-.872.063-1.29.201-.165.055-.33.118-.48.204-.561.321-.806.821-.781 1.462.007.2.101.364.229.51.17.196.382.337.608.458.543.292 1.127.471 1.721.615.996.24 1.997.462 2.992.708.889.22 1.778.447 2.63.789.897.36 1.7.866 2.336 1.61.525.615.84 1.33.957 2.13l.031.282.023.282v.483c-.014.108-.033.215-.04.323-.103 1.771-.858 3.183-2.305 4.206-.905.64-1.922 1.026-2.995 1.27-1.376.312-2.768.336-4.167.23-1.114-.084-2.205-.282-3.259-.665-.912-.332-1.748-.794-2.462-1.465-.919-.863-1.443-1.932-1.62-3.178-.047-.331-.062-.667-.09-.973.028-.036.032-.043.038-.047.005-.005.01-.01.017-.011.029-.006.057-.014.086-.014h4.736c.029 0 .057.008.105.016.009.078.02.155.026.233.078.981.567 1.668 1.46 2.066.416.186.858.276 1.306.333.6.076 1.204.092 1.808.045.563-.044 1.107-.165 1.598-.465.245-.15.457-.336.628-.569.15-.205.24-.434.273-.686.039-.3-.045-.564-.238-.794-.207-.246-.47-.413-.752-.554-.59-.296-1.221-.465-1.86-.617-1.286-.306-2.574-.606-3.856-.931-.698-.177-1.384-.396-2.026-.737-.703-.374-1.33-.839-1.816-1.48-.47-.622-.738-1.328-.823-2.099-.114-1.027-.006-2.033.38-2.997.515-1.286 1.399-2.247 2.601-2.913.825-.457 1.718-.71 2.646-.842 1.445-.205 2.89-.15 4.328.054zm-54.878.036v19.012c-.155.046-4.304.057-4.81.013l-.04-.005V67.33h4.85zm-34.489 5.785c-1.44-1.254-3.105-1.654-4.944-1.174-2.59.676-4.372 3.31-3.857 6.169.502 2.78 3.145 4.75 5.924 4.364 1.894-.263 3.271-1.296 4.144-3 .306-.597.502-1.232.447-1.92-.01-.139-.001-.278-.001-.418 0-.27.006-.542-.003-.812-.005-.152-.02-.307-.055-.455-.262-1.094-.811-2.02-1.655-2.754zm44.598-1.173c-2.694.7-4.347 3.34-3.886 6.107.468 2.81 3.13 4.825 5.938 4.421 2.198-.315 3.66-1.595 4.42-3.69.122-.34.19-.69.167-1.055-.004-.065-.005-.131-.005-.197l.003-.395c0-.293.002-.586-.001-.879-.001-.087-.01-.175-.027-.26-.208-.976-.65-1.835-1.342-2.545-1.468-1.505-3.242-2.033-5.267-1.507zm-28.312-.003c-2.743.72-4.409 3.434-3.868 6.234.525 2.714 3.086 4.685 5.934 4.298 1.939-.264 3.328-1.343 4.187-3.105.274-.564.449-1.159.398-1.8-.012-.146-.002-.293-.002-.44 0-.263.007-.527-.003-.79-.005-.16-.02-.322-.058-.477-.265-1.092-.816-2.018-1.661-2.75-1.437-1.247-3.097-1.65-4.927-1.17zm49.33-.001c-2.631.668-4.354 3.306-3.907 6.057.452 2.786 3.038 4.868 5.96 4.476 1.895-.254 3.265-1.304 4.134-3.01.301-.592.493-1.22.438-1.9-.01-.138-.001-.278-.001-.417 0-.3.002-.6-.002-.9-.001-.095-.012-.19-.032-.283-.21-.967-.653-1.817-1.341-2.52-1.464-1.496-3.23-2.016-5.25-1.503zM84.25 30.882l18.247 30.593H85.76v4.348c-.168.053-4.32.06-4.81.013l-.038-.005v-4.356h-.005L68.374 40.5l15.876-9.619zm59.033 28.448c1.447.005 2.8 1.118 2.803 2.868.004 1.599-1.246 2.855-2.839 2.855-1.527.005-2.834-1.185-2.839-2.856-.004-1.626 1.237-2.873 2.875-2.867zm-.037.471c-1.3-.007-2.374 1.074-2.376 2.388-.002 1.315 1.039 2.385 2.366 2.387 1.333.002 2.374-1.032 2.377-2.366.02-1.305-1.015-2.402-2.367-2.409zm-1.203.9c.529.01 1.059.015 1.587.04.206.01.392.102.533.265.386.445.206 1.103-.363 1.322-.073.028-.149.049-.21.068.173.217.352.423.51.644.158.224.296.463.471.74-.212 0-.375.007-.537-.005-.043-.004-.094-.061-.121-.106-.089-.143-.166-.292-.25-.437-.063-.107-.135-.209-.195-.317-.187-.342-.487-.435-.855-.448l-.125-.001v1.303h-.484v-3.043c.016-.01.028-.026.039-.026zm.66.413l-.203.003v.934c.323-.013.619-.023.914-.037.043-.002.086-.016.126-.03.195-.072.294-.228.285-.443-.008-.2-.118-.342-.323-.385-.263-.056-.528-.05-.799-.042zM103.335 14l28.318 47.475h-21.589l-22.585-37.88L103.335 14zM65.157 47.789l8.153 13.66-21.4.012-2.565-3.956 15.812-9.716z"/>
</svg>
