<svg xmlns="http://www.w3.org/2000/svg" width="184" height="100" viewBox="0 0 184 100">
    <path fill-rule="evenodd" d="M43.25 38.107c5.026.09 9.607 1.544 13.71 4.455.036.026.052.08.118.189-.926.48-1.844.963-2.769 1.432-.574.291-.682.26-1.235-.288l.791-.63c-.954-.698-1.845-1.37-2.763-2.003-.152-.105-.43-.083-.636-.048-.701.12-1.4.254-2.092.421-.197.048-.461.185-.528.35-.458 1.123-1.55 1.353-2.485 1.79-.398.185-.666.355-.575.858.072.399.232.61.66.626.333.012.662.092 1.067.153l-.295 1.113-.388-.627c-.864.632-1.647 1.379-2.574 1.835-.944.465-2.029.645-3.193.992.043.226.12.566.169.91.037.27.13.741.04.782-.332.153-.732.224-1.102.21-.278-.01-.558-.176-.82-.308-.468-.234-.736-.045-.928.376-.193.424-.423.833-.58 1.269-.107.29-.267.73-.137.904.294.392.694.783 1.311.605.47-.136.944-.265 1.424-.36.384-.075.653-.195.59-.66-.013-.102.058-.299.126-.317.758-.201 1.44-.786 2.304-.47.137.051.309.16.416.118.955-.374 1.286.374 1.726.927.324.408.642.821 1.04 1.332l-1.027.135c-.114.802.149 1.052.83.815 1.265-.44 1.466-1.319.512-2.237-.194-.187-.43-.346-.572-.566-.097-.15-.066-.384.008-.607.816.78 1.843 1.397 1.629 2.748-.104.654.345 1.051.792 1.396.333.257.846-.109 1.006-.634.06-.2.218-.37.33-.554.137.164.365.312.394.492.215 1.305 1.047 1.841 2.286 1.935.26.02.514.115.873.2-.21.514-.354.976-.59 1.387-.094.162-.408.314-.594.287-.874-.126-1.745-.286-2.6-.501-.255-.064-.467-.333-.676-.533-.846-.812-1.383-.796-2.1.129-.925-.628-1.874-1.233-2.77-1.907-.2-.151-.259-.539-.307-.83-.05-.308-.011-.63-.011-1.022-1.483.059-2.854-.717-4.337-.332-.165.042-.348.09-.51.06-1.741-.313-2.82.784-3.948 1.804-.942.852-1.898 1.689-2.873 2.503-.404.338-.576.606-.177 1.09.161.196.159.587.119.873-.05.358-.163.73-.342 1.041-.568.985-.229 1.792.374 2.614.606.826 1.16 1.693 1.702 2.564.302.484.67.738 1.26.693.514-.038 1.053.083 1.544-.027 1.646-.37 2.57.788 3.637 1.635.118.094.153.42.09.59-.48 1.309-.369 2.59.124 3.859.283.73.189 1.356-.368 1.94-.627.657-.674 1.46-.53 2.323.247 1.47.437 2.95.656 4.425.02.14.038.305.122.405.286.343 2.13.55 2.595.379 1.68-.621 2.67-2.006 3.741-3.303 1.293-1.564 2.5-3.21 3.909-4.662.795-.82 1.931-1.307 2.895-1.97.817-.563 1.688-1.082 2.382-1.773.51-.508.77-1.262 1.238-2.07l-2.201-.096c.28-.724.744-1.002 1.405-1.076 1.554-.174 3.01-.572 4.257-1.616.588-.493.315-1.035.291-1.544-.009-.184-.464-.473-.732-.492-.63-.044-.96-.352-1.21-.887-.3-.641-.66-1.254-.994-1.879l.456-.366c.052.195.052.428.164.578.82 1.099 1.822 1.95 3.166 2.381.803.258 1.5.663 1.786 1.58.11.351.527.597.741.931.113.176.143.444.121.662-.123 1.217-.242 2.436-.425 3.646-.158 1.04.46 1.668 1.094 2.436-.932 1.856-2.209 3.599-3.684 5.209-7.884 8.604-21.52 10.114-31.097 3.463-2.176-1.512-4.065-3.301-5.683-5.389-.412-.532-.677-1.027-.508-1.772.203-.9.143-1.856.307-2.767.15-.835.378-1.671.696-2.456.29-.72.143-1.2-.444-1.651-.64-.492-1.224-1.055-1.869-1.54-.787-.59-1.2-1.348-1.389-2.312-.165-.848-.744-1.431-1.606-1.684v-1.763c.236-1.37.377-2.764.725-4.105 1.917-7.383 6.355-12.72 13.258-16.018.131-.063.274-.101.414-.146.016-.006.042.018.118.055l.082 1.52c.434-.157.776-.256 1.099-.402.626-.282 1.244-.582 1.859-.888.776-.387 1.563-.709 2.462-.553 1.596.278 2.752-.46 3.746-1.597.103-.118.323-.195.487-.192zm121.602 7.408v2.84l-.008 6.832c-.001 2.277.003 4.554.023 6.831.007.784-.238 1.006-.987 1.147-6.024 1.135-12.037 2.324-18.054 3.497-7.39 1.44-14.78 2.888-22.173 4.318-7.246 1.401-14.5 2.771-21.746 4.178-8.91 1.73-17.815 3.483-26.723 5.223-.933.182-1.87.342-2.89.528-.016-.357-.038-.618-.038-.879-.002-5.24.014-10.481-.02-15.722-.005-.729.252-.945.921-1.073 8.989-1.709 17.973-3.44 26.955-5.175 7.248-1.401 14.495-2.808 21.737-4.238.684-.135 1.195-.095 1.535.567.043.084.134.142.197.217.737.872.826.892 2 .43l-.515-1.824 39.786-7.697zM81.402 64.69c-2.033.316-4.052.724-6.08 1.078-.523.092-.483.445-.483.82.003 3.156 0 6.313-.001 9.47v1.368c1.063-.198 1.98-.34 2.883-.544 1.55-.35 3.138-.614 4.626-1.145 1.934-.69 3.195-2.117 3.403-4.22.122-1.236.092-2.497.02-3.74-.092-1.571-1.019-2.677-2.47-2.99-.613-.133-1.283-.192-1.898-.097zm16.323-3.25c-1.02.202-1.948.425-2.89.555-.536.074-.68.296-.675.804.025 2.055.018 4.11.014 6.164 0 .316-.003.64-.071.947-.195.874-1.194 1.488-2.165 1.363-.746-.096-.98-.478-.987-1.605-.001-.17.002-.342.002-.513V62.76c-1.272.243-2.45.45-3.615.715-.16.037-.356.375-.358.574-.02 2.421-.026 4.843.007 7.264.02 1.414.763 2.426 2.094 2.883 1.83.629 3.61.244 5.288-.5 2.232-.99 3.469-2.69 3.402-5.235-.055-2.078-.008-4.158-.01-6.237 0-.236-.02-.471-.036-.784zm-15.929 8.222c.004.66.009 1.32-.006 1.978-.027 1.16-.442 1.679-1.578 1.96-.418.103-.847.159-1.414.262v-2.608-.625c.003-.733.022-1.465.013-2.198-.005-.403.132-.594.565-.684 2.03-.42 2.409-.138 2.42 1.915zm23.206-9.381c-1.078.625-1.896 1.54-2.268 2.779-.472 1.572.2 2.906 1.79 3.281 1.209.286 2.467.355 3.69.592.299.058.726.37.761.612.038.264-.265.632-.508.863-.174.165-.488.213-.75.254-1.2.188-2.335-.025-3.431-.543-.214-.102-.647-.137-.75-.014-.574.692-1.077 1.443-1.628 2.206 3 2.098 8.02 1.344 10.094-1.455 1.45-1.957 1.403-4.511-2.07-4.903-.803-.09-1.61-.163-2.405-.301-.459-.08-1.088-.081-1.134-.718-.046-.64.555-.793 1.026-.984.153-.063.344-.086.507-.06.972.155 1.94.33 3.093.529l1.839-1.997c-.148-.156-.206-.237-.283-.294-.118-.088-.244-.166-.373-.235-2.478-1.327-4.886-.956-7.2.388zm13.08-2.772c-1.156.218-2.207.446-3.267.603-.59.088-.737.356-.732.925.028 3.281.014 6.563.018 9.845 0 .3.031.602.05.937 1.134-.212 2.166-.422 3.205-.59.554-.09.754-.329.748-.915-.034-3.11-.02-6.22-.022-9.33v-1.475zm11.165-2.102c-.324.025-.52.021-.707.058-2.696.523-5.387 1.072-8.089 1.56-.589.107-.748.322-.744.896.026 3.33.013 6.66.015 9.989 0 .24.02.479.03.717.121.022.195.056.26.043 2.964-.565 5.927-1.13 8.886-1.715.142-.028.347-.24.352-.37.03-.918.016-1.836.016-2.858l-5.567 1.038c0-.414.036-.708-.008-.989-.099-.627.177-.867.778-.949.8-.11 1.588-.312 2.385-.45.381-.066.556-.235.526-.636-.028-.382-.006-.768-.006-1.273l-3.624.661c-.02-.32-.025-.582-.057-.84-.08-.65.066-.99.852-1.089 1.384-.171 2.748-.51 4.113-.812.216-.048.552-.26.562-.414.056-.838.027-1.682.027-2.567zm-77.291 5.626c.244.47.577.916.714 1.416.348 1.267.614 2.557.898 3.841.043.195.006.406.006.61l-.268.113c-.337-.572-.94-1.137-.958-1.72-.042-1.36-.295-2.655-.658-3.946-.018-.063.013-.14.022-.21l.244-.104zM133.47 54.7c-2.017 1.214-3.264 2.925-3.174 5.397.03.807.007 1.616.042 2.423.046 1.084.49 1.973 1.382 2.625 2.65 1.936 7.918.37 9.174-2.724.15-.368.085-.592-.328-.714-.422-.123-.843-.269-1.237-.46-.429-.209-.678-.125-.982.256-.689.865-1.596 1.363-2.748 1.282-.633-.045-1.084-.33-1.156-1.004-.06-.558-.075-1.12-.11-1.679l.028-.002c0-.392-.01-.783.002-1.175.028-.916.448-1.612 1.295-1.964.93-.388 1.85-.389 2.715.26.165.125.55.142.725.034.562-.345 1.062-.787 1.606-1.162.422-.29.443-.583.138-.97-.806-1.021-1.908-1.41-3.153-1.488-1.518-.095-2.939.295-4.219 1.065zm12.605-2.6c-1.193.217-2.267.423-3.346.603-.46.076-.628.266-.624.768.027 3.398.012 6.796.015 10.194 0 .23.025.46.043.747 3.071-.6 6.05-1.18 9.026-1.774.158-.031.412-.19.415-.296.033-.958.019-1.918.019-2.94l-5.548 1.062V52.1zm15.77-3.076c-2.864.553-5.726 1.121-8.594 1.653-.554.103-.631.401-.63.87.015 3.353.01 6.706.016 10.058 0 .214.03.429.044.617.096.042.145.084.184.077 2.985-.568 5.97-1.135 8.951-1.722.143-.028.353-.236.357-.365.031-.941.017-1.883.017-2.863l-5.509 1.047c-.025-.35-.03-.613-.065-.87-.09-.683.149-1.031.889-1.106.777-.078 1.546-.267 2.306-.457.18-.045.422-.267.446-.434.062-.446.02-.906.02-1.422l-3.607.637c-.024-.319-.027-.535-.059-.746-.11-.736.152-1.093.944-1.203 1.38-.192 2.75-.486 4.115-.776.198-.042.491-.287.502-.453.051-.824.023-1.652.023-2.518-.205-.015-.28-.038-.35-.024zM77.343 31.05v23.024l4.574-.852v5.35l-9.726 1.885v-1.415c-.002-8.791-.008-17.582.01-26.373 0-.24.225-.648.41-.69 1.527-.34 3.07-.612 4.732-.93zm18.472-3.526l.466 3.8c.528 4.294 1.06 8.588 1.583 12.883.409 3.35.813 6.7 1.205 10.05.116 1 .083 1.013-.88 1.19-1.134.209-2.266.426-3.4.634-.236.043-.476.06-.79.099l-.396-4.68c-.812.155-1.54.256-2.242.452-.196.055-.424.379-.448.6-.131 1.214-.225 2.434-.288 3.654-.028.528-.237.756-.764.844-1.445.24-2.88.535-4.444.832.15-1.476.271-2.829.427-4.177.42-3.642.86-7.28 1.283-10.922.5-4.297 1.008-8.593 1.474-12.893.087-.798.337-1.148 1.212-1.266 1.82-.246 3.615-.676 5.42-1.028.164-.032.332-.042.582-.072zm13.845-2.68v2.297c.002.759-.032 1.52.02 2.276.04.598-.217.807-.768.9-1.3.221-2.592.492-3.889.743v7.546l4.638-.857c0 1.73.02 3.343-.028 4.953-.006.183-.38.459-.622.512-1.315.287-2.643.517-4.023.778v10.11c-1.708.328-3.362.647-5.111.985-.023-.317-.052-.547-.053-.776-.003-8.937 0-17.874-.015-26.81-.001-.579.124-.86.765-.973 2.777-.492 5.542-1.048 8.312-1.578.211-.041.427-.06.774-.106zm10.788-2.019c0 1.668.012 3.28-.02 4.891-.004.145-.276.374-.455.413-1.198.26-2.409.459-3.603.729-.212.048-.523.335-.526.516-.031 2.3-.015 4.6-.008 6.901 0 .045.035.09.09.222 1.458-.268 2.938-.54 4.523-.833 0 1.751.013 3.385-.022 5.018-.003.14-.295.358-.484.4-1.125.249-2.253.498-3.393.662-.613.088-.738.362-.735.92.018 2.89.006 5.779-.019 8.668-.002.246-.139.675-.283.706-1.572.348-3.158.633-4.84.954-.027-.377-.063-.657-.063-.936-.006-8.913-.007-17.826-.015-26.74 0-.416.005-.722.56-.825 2.87-.53 5.733-1.108 8.6-1.661.187-.036.388-.005.693-.005zm10.04-2.06c1.12 9.24 2.236 18.427 3.367 27.75l-5.17 1.01-.407-4.725-2.652.47c-.108 1.446-.228 2.834-.307 4.224-.028.495-.2.734-.718.822-1.47.25-2.932.554-4.527.862.143-1.327.27-2.556.41-3.784.683-5.951 1.366-11.902 2.057-17.852.268-2.306.549-4.611.853-6.913.027-.205.241-.516.416-.552 2.18-.453 4.368-.865 6.677-1.312zm9.121-1.776c.022.312.054.564.054.817.003 8.961 0 17.922.013 26.884.001.526-.106.764-.7.842-1.14.15-2.264.426-3.395.648-.328.064-.658.122-1.104.204v-1.043c0-8.814.007-17.629-.011-26.443-.002-.66.092-.986.86-1.086 1.407-.182 2.791-.527 4.283-.823zM40.866 45.338c.002.286.135.568.177.857.023.153.009.329-.047.472-.083.215-.349.551-.307.59.23.215.532.355.638.419 1.196.072 1.503-.36 1.155-1.25-.14-.357-.278-.745-.278-1.12.002-.692-.499-.743-.941-.77-.635-.04-.399.49-.397.802zm9.025-1.89c-.072.174-.098.395-.223.513-.6.571-.544 1.304.207 1.607.31.125.71.02 1.157.194-.211.105-.435.32-.63.297-.769-.094-1.197.304-1.601.872-.545.767-1.131.834-2.247.198 1.1-.19 1.168-.975 1.28-1.663.169-1.025 1.024-1.432 1.677-2.025.068-.062.25.002.38.007zm-10.73 2.349l-.083 1.442 1.592-1.04-.06-.288-1.45-.114zm111.617-28.23c1.614.343 2.645 1.432 2.85 2.998.267 2.025.305 4.084.359 6.131.065 2.458-.622 4.684-2.414 6.576 1.872.607 2.37 2.028 2.399 3.719.03 1.761.023 3.524.061 5.285.017.728.11 1.453.179 2.298-1.5.294-3.037.593-4.573.896-.456.09-.648-.166-.686-.553-.06-.608-.104-1.22-.11-1.83-.02-1.933-.003-3.866-.033-5.8-.021-1.373-.447-1.732-1.804-1.674-.555.023-.812.187-.806.82.028 2.986-.015 5.972.014 8.958.006.596-.202.799-.75.892-1.443.245-2.878.537-4.406.827V18.652c2.534-.423 5.062-.88 7.605-1.244.685-.098 1.427.013 2.115.159zM92.41 35.64l-.227.006-.807 10.777c1.763.086 1.893-.067 1.72-1.658-.11-1.02-.15-2.049-.226-3.073-.152-2.018-.307-4.035-.46-6.052zm72.443-21.494c0 1.566-.02 3.132.009 4.698.009.495-.168.688-.646.767-1.137.188-2.27.406-3.394.66-.22.05-.556.315-.56.487-.04 1.81-.023 3.622-.017 5.433 0 .066.053.132.116.28l4.436-.806v5.316c-1.341.273-2.684.528-4.015.834-.21.049-.522.326-.525.503-.039 1.856-.024 3.712-.024 5.702l4.62-.851c0 1.75.01 3.384-.018 5.016-.003.142-.247.373-.41.405-2.982.589-5.969 1.155-8.955 1.721-.112.022-.232.003-.411.003V42.31c-.005-8.519-.006-17.037-.026-25.556-.001-.565.15-.793.745-.898 2.535-.451 5.059-.965 7.585-1.464.257-.051.502-.162.752-.245h.738zm-37.81 14.558l-.178.01-.81 11.039c.242-.01.384-.007.524-.025 1.331-.167 1.313-.168 1.208-1.479-.149-1.85-.258-3.705-.4-5.557-.101-1.33-.229-2.658-.345-3.988zm-42.663.936c-.186 1.264-.35 2.44-.532 3.612-.222 1.421-.475 2.837-.684 4.26-.16 1.094-.242 1.182-1.52 1.147.063-.65.117-1.294.191-1.936.24-2.084.474-4.169.754-6.247.03-.227.31-.502.54-.599.346-.144.75-.15 1.25-.237zm61.994-6.533c-.096.08-.16.25-.16.38-.01 2.242-.007 4.484-.007 6.773 1.432-.03 2.414-.62 2.502-1.7.125-1.524.11-3.071.016-4.6-.058-.93-1.632-1.45-2.351-.853z"/>
</svg>
