<svg xmlns="http://www.w3.org/2000/svg" width="184" height="100" viewBox="0 0 184 100">
    <path fill-rule="evenodd" d="M36.384 30.124l-.33.715 1.438-.168v-.547h1.231l-.046.268c.43.144.79.262 1.147.385.074.025.137.092.21.102.606.082 1.24.071 1.814.253.596.19 1.161.522 1.693.865.825.532 1.65 1.077 2.399 1.709.538.453.97 1.04 1.415 1.595.526.655 1.023 1.335 1.523 2.012.683.925 1.28 1.891 1.566 3.03.186.738.46 1.452.679 2.181.046.152.033.325.034.488.002 1.008-.001 2.016.001 3.025.004 1.103-.302 2.117-.658 3.164-.442 1.295-1.117 2.44-1.87 3.524-.582.836-1.452 1.474-2.205 2.188-.308.292-.656.54-.968.83-.348.323-.681.664-1.007 1.01-.087.093-.186.252-.161.35.02.085.223.195.324.176.402-.075.632.14.892.394.84.823 1.698 1.628 2.564 2.422.221.203.52.318.744.519.16.142.252.36.373.543.13.198.233.424.396.59.833.848 1.682 1.68 2.56 2.553-.438.408-.85.786-1.257 1.171-1.066 1.01-2.14 2.01-3.186 3.04-.534.527-.992 1.13-1.526 1.657-.426.42-1.177.267-1.537-.19-.364-.462-.81-.857-1.198-1.302-.987-1.135-1.935-2.305-2.949-3.415-.789-.864-1.653-1.658-2.52-2.52l-8.074 8.143c-1.049-1.047-2.071-2.095-3.124-3.113-1.154-1.116-2.319-2.224-3.517-3.293-.377-.335-.287-.598-.037-.866.943-1.007 1.89-2.012 2.876-2.978.286-.28.763-.364 1.05-.644.723-.7 1.378-1.47 2.08-2.192.31-.318.672-.583 1.004-.88.36-.32.363-.638.007-.98-.53-.51-1.072-1.01-1.548-1.565-.437-.51-.793-1.09-1.184-1.64-.023-.033-.034-.08-.065-.1-1.003-.66-1.322-1.778-1.77-2.78-.311-.699-.405-1.493-.612-2.24-.33-1.194-.435-2.445-.187-3.617.21-.986-.03-2.046.597-2.988.418-.626.461-1.496.858-2.142.614-1 1.343-1.94 2.107-2.831.495-.578 1.111-1.066 1.727-1.521.673-.497 1.373-.984 2.126-1.336.635-.298 1.36-.407 2.049-.583.65-.166 1.317-.278 1.952-.49.148-.05.194-.406.287-.621-.217.003-.435-.011-.649.015-.102.013-.195.15-.291.15-.672-.002-1.345-.065-2.013-.028-.447.024-.904.136-1.326.292-.48.18-.926.454-1.39.679-.043.02-.114-.019-.253-.182.358-.188.71-.388 1.075-.561.417-.198.857-.352 1.267-.563.37-.19.683-.513 1.132-.1.067.062.445-.215.64-.406.451.034.837.003.759-.656h.862zm24.864 38.693l.13.17-.579.78c-.112-.243-.267-.495-.235-.522.205-.17.451-.29.684-.428zm1.53-1.206c.068.222.143.442.19.668.002.014-.228.075-.349.114l-.2-.674.359-.108zm11.924-29.744c.274.366.382.857.574 1.287.35.78.71 1.556 1.057 2.336.375.839.74 1.683 1.114 2.522.088.198.231.377.29.582.145.495.73.734.631 1.428-.056.394.427.854.63 1.302.278.61.505 1.246.786 1.855.282.614.638 1.196.901 1.817.287.677.486 1.39.761 2.072.115.285.37.514.484.8.272.683.455 1.402.755 2.07.21.47.602.854.822 1.32.298.63.762 1.168.935 1.88.068.279.47.477.771.76-.395.407-.36.729-.125 1.155.405.736.7 1.533 1.048 2.302.119.263.217.527-.162.637-.264.076-.545.117-.82.128-.142.006-.301-.155-.43-.128-.873.185-1.712.232-2.623.059-.617-.117-1.228-.064-1.668-.599-.097-.118-.154-.273-.22-.415-.12-.261-.24-.523-.343-.79-.09-.234-.122-.494-.24-.71-.277-.514-.714-.918-.703-1.609.005-.28-.364-.679-.887-.67-1.823.027-3.648-.018-5.47.028-.518.013-1.028.25-1.546.364-.18.039-.468.095-.546.004-.639-.745-1.452-.314-2.16-.275-.239.012-.467.643-.656 1.014-.167.33-.23.715-.413 1.033-.527.924-1.09 1.827-1.64 2.741-.418.198-.974-.27-1.334.27-.02.03-.18.018-.224-.026-.38-.37-.647-.349-.874.172-.04.091-.364.04-.546.092-.139.04-.261.138-.391.21.09.104.19.2.27.311.158.214.306.435.457.653l-.744.426.418.796c-.392.37-.832.808-1.308 1.203-.073.06-.331-.057-.474-.143-.08-.048-.162-.262-.133-.292.086-.088.229-.169.347-.166.738.015.378-.353.245-.614l.649-.695-.979-.276.987-2.164c-.215.138-.297.213-.393.248-.249.089-.628.3-.73.21-.21-.19-.374-.539-.384-.828-.052-1.41.343-2.816 1.115-3.88.778-1.072 1.043-2.327 1.75-3.408.92-1.406 1.502-3.018 2.13-4.59.4-1.002 1-1.922 1.454-2.904.528-1.144.98-2.324 1.497-3.474.204-.454.5-.866.737-1.306.702-1.302 1.465-2.577 2.065-3.926.309-.696.598-1.372 1.037-2.004.658-.947 1.775-1.098 2.45-.195zm62.999 28.72c.065.071.103.167.224.368-.222.05-.39.137-.537.109-.568-.108-1.127-.304-1.67.094-.09.066-.241.086-.356.07-.441-.065-.879-.16-1.32-.228-.11-.017-.23.017-.344.037-.218.04-.449.156-.647.114-.23-.05-.44-.224-.636-.372-.03-.024.029-.272.09-.294.26-.092.534-.152.807-.198.165-.028.339-.011.508-.01.126 0 .258-.019.375.015.58.169 1.15.296 1.725-.04.407-.237 1.452-.027 1.78.335zm-18.11-.102c.078 0 .158 0 .234.017.183.04.391.052.533.153.057.042-.032.288-.055.441l-.692-.15-.405.26c-.137-.44-.131-.723.384-.72zm6.028.059c-.865.79-.865.79-1.298.261.413-.538 1.071-.67 1.298-.261zm-3.505-.318c.351.231.377.551.186.794-.391.05-.628.097-.866.104-.104.003-.258-.044-.304-.12-.063-.105-.089-.274-.05-.388.112-.327.749-.578 1.034-.39zm5.662-.288c.588.08 1.229.047 1.744.286.42.195.624.218.908-.119.087-.102.299-.188.419-.155.395.11.782.26 1.155.432.1.046.212.233.192.33-.02.101-.18.22-.299.246-.191.044-.398.017-.598.023-.693.023-1.386.07-2.078.064-.727-.006-1.462-.006-2.178-.112-.593-.087-.585-.158-.483-.675.382-.11.71-.206 1.038-.298.057-.017.122-.03.18-.022zm2.61-27.644c1.069.122 2.169-.036 3.24.072 1.2.12 2.427.276 3.561.657.808.27 1.472.957 2.22 1.425.653.407 1.144 1.016 1.881 1.344.344.152.504.738.726 1.14.147.267.239.565.387.832.148.264.335.505.504.758.146.217.29.435.384.578.072.394.12.734.195 1.068.162.72.391 1.432.477 2.16.03.257-.279.554-.437.84.529 1.034.431 2.095-.094 3.083-.154.29-.647.482-1.017.556-.808.162-1.636.252-2.459.3-.299.018-.616-.264-.913-.242-.589.044-1.17.203-1.94.35-.076-.02-.315-.087-.559-.137-.116-.024-.308.031-.35-.03-.364-.534-.852-.27-1.32-.262-1.138.018-2.276-.036-3.413-.029-.908.006-1.814.067-2.722.088-.593.013-1.187-.02-1.78.007-.318.014-.632.127-.951.16-.207.021-.421-.016-.631-.037-.17-.017-.336-.05-.504-.075-.029.197-.107.402-.076.59.111.664.236 1.329.405 1.98.06.233.217.492.408.63.725.527 1.19 1.244 1.665 1.983.247.383.695.65 1.085.922.347.242.736.426 1.113.622.176.09.363.167.554.218 2.162.575 4.284.656 6.342-.434.914-.484 1.863-.905 2.807-1.331.638-.289 1.54.043 1.918.639.33.52.711 1.007 1.037 1.53.178.288.289.619.438.948-.86 1.097-2.204 1.434-3.395 2.013-.507.246-1.096.317-1.629.518-.266.1-.47.365-.737.471-1.545.615-3.17.526-4.783.48-.91-.025-1.82-.095-2.726-.178-.528-.049-1.064-.117-1.571-.266-.33-.096-.61-.36-.918-.538-.664-.382-1.324-.77-2-1.127-.254-.134-.625-.107-.814-.288-.824-.79-1.605-1.625-2.393-2.451-.208-.219-.391-.463-.58-.699-.128-.158-.29-.306-.362-.489-.368-.945-.728-1.894-1.05-2.856-.08-.238-.022-.529-.003-.794.031-.422-.01-.786-.348-1.12-.129-.128-.034-.48-.045-.73-.036-.82-.084-1.637-.107-2.456-.014-.534.002-1.068.014-1.601.002-.074.041-.171.096-.216.447-.362.489-.873.38-1.35-.185-.817.44-1.342.616-2.024.116-.447.37-.8.757-1.11.198-.16.146-.625.22-.949.033-.144.064-.314.158-.415.35-.38.753-.714 1.088-1.107.372-.438.828-.722 1.344-.941.147-.062.328-.127.41-.248.753-1.119 1.994-1.516 3.145-1.802.99-.247 1.944-.756 3.052-.63zm24.33-.257c.773.719 1.876.196 2.729.777.644.439 1.503.548 2.193.935.52.29.932.78 1.37 1.204.07.07.083.313.02.391-.307.375-.234.945-.777 1.233-.332.175-.532.652-.726 1.027-.357.69-1.264.888-1.873.443-.554-.406-1.152-.768-1.772-1.064-.636-.304-1.317-.516-1.985-.75-.85-.297-2.419.18-2.96.954-.3.43-.63.84-.935 1.268-.212.295-.364.62-.09.953.412.502.831 1 1.273 1.478.373.403.729.865 1.188 1.14.734.437 1.548.739 2.327 1.102.416.195.821.419 1.246.594.589.243 1.192.45 1.788.677.09.035.203.066.255.137.504.683 1.24 1.09 1.858 1.63.607.528.95 1.374 1.371 2.102.236.41.4.862.587 1.298.069.161.208.387.15.492-.47.85-.115 1.763-.242 2.633-.048.332-.1.693-.266.972-.63 1.066-.643 1.07.291 1.387v2.217c-.3-.362-.56-.581-.687-.861-.08-.18.037-.448.062-.677.015-.142.023-.285.035-.427-.14.022-.317-.001-.414.076-.863.682-1.692 1.41-2.573 2.068-.513.383-1.102.664-1.659.987-.07.04-.15.08-.23.086-.761.063-1.523.135-2.286.17-.582.028-1.168.03-1.75 0-.416-.02-.828-.111-1.242-.174-.1-.016-.198-.05-.299-.064-.663-.087-1.328-.168-1.99-.259-.099-.013-.204-.051-.284-.108-.844-.601-1.772-1.043-2.757-1.328-.75-.217-.814-1.047-1.384-1.417-.052-.034.124-.508.263-.736.35-.58.814-1.102 1.1-1.71.52-1.11 1.756-1.075 2.465-.497.543.443 1.117.611 1.788.642.175.008.333.24.513.344.197.115.413.196.615.303.24.127.46.34.713.384l.382.07c.826.151 1.643.279 2.482-.203.792-.454 1.406-1.005 1.72-1.852.176-.478.074-.916-.139-1.42-.42-.998-1.23-1.61-2.029-2.142-.722-.481-1.503-1.104-2.462-1.026-.72.058-.917-.629-1.44-.833-.283-.11-.485-.441-.769-.535-1.442-.476-2.32-1.702-3.47-2.565-.122-.093-.272-.271-.262-.399.06-.818-.586-1.36-.763-2.073-.105-.423-.117-.871-.141-1.31-.044-.795-.154-1.602-.067-2.385.065-.577.345-1.154.629-1.676.321-.591.753-1.123 1.139-1.679.046-.066.098-.141.166-.179 1.222-.683 2.316-1.614 3.897-1.467.78.072 1.59-.259 2.394-.358.465-.058.941-.02 1.413-.023.102 0 .243-.031.3.023zm-54.15-.285c.338.622.74.617 1.269.17.151-.129.508-.038.767-.008.192.022.405.198.561.15 1.014-.312 1.974.06 2.954.173.193.023.462.065.576-.037.356-.318.604-.114.93.044.434.212.912.337 1.373.493.095.032.206.021.298.06 1.247.522 2.418 1.168 3.453 2.058.246.212.607.286.901.45.118.065.227.186.288.309.345.692.814 1.252 1.454 1.712.496.356.685.959.777 1.568.014.094.048.217.117.268.92.683.783 1.658.742 2.613-.005.128.05.3.14.384.545.504.39 1.21.554 1.824.01.036.005.089-.016.118-.56.775.071 1.27.444 1.863l-.496.55c.363.375.261.693-.06 1.056-.162.184-.172.51-.234.775-.064.277-.126.557-.155.84-.114 1.101-1.105 1.788-1.328 2.84-.035.17-.166.331-.285.468-.698.797-1.411 1.58-2.109 2.379-.707.808-1.622 1.259-2.613 1.605-.566.197-1.091.543-1.668.676-1.076.249-2.056.843-3.211.83-.362-.004-.727.26-1.13.416-.325-.332-.716-.545-1.26-.246-.195.107-.514.123-.722.041-.778-.304-1.483.054-2.22.154-.289.04-.6-.13-.903-.133-1.433-.016-2.866-.007-4.3-.007-.587 0-1.066-.788-.815-1.32.077-.161.137-.35.137-.526.002-.97.003-1.94-.035-2.91-.044-1.137-.162-2.272-.181-3.41-.012-.705.1-1.413.156-2.12.006-.081.04-.193 0-.24-.481-.567-.035-1.11.098-1.615.191-.728.337-1.401-.054-2.098-.048-.085-.024-.263.037-.348.198-.28.305-.526-.006-.808-.06-.054-.055-.247-.008-.34.311-.603.223-1.164.03-1.804-.173-.568-.08-1.22-.091-1.834-.016-.833-.02-1.667-.03-2.5-.002-.137-.07-.299-.018-.407l.098-.204c.191-.406.33-.803-.04-1.246-.055-.065.089-.29.128-.443.043-.169.136-.36.094-.508-.271-.94.04-1.368.967-1.567.733-.157 1.405-.096 2.127.04.634.121 1.31.043 1.965.013.178-.008.349-.16.552-.261zm-8.532.766c.02 1.124.112 2.251.053 3.371-.053 1.004.03 2 .01 3-.02 1.066-.036 2.133-.066 3.2-.005.156-.071.311-.119.464-.035.114-.158.268-.12.328.424.67.121 1.32.01 1.988-.033.204.195.438.217.667.049.505.038 1.015.061 1.523.041.891.137 1.783.123 2.674-.02 1.3-.126 2.599-.18 3.9-.02.509-.015 1.021.016 1.53.01.153.15.299.269.518-.536.38-.245.961-.276 1.466-.038.622-.422 1.077-1.029 1.055-.626-.024-1.25-.121-1.875-.14-.472-.015-.948.017-1.416.074-.665.082-1.064-.307-.919-.934.032-.14.11-.307.065-.42-.38-.95.155-1.896.001-2.836-.13-.803-.348-1.593-.437-2.398-.041-.377.031-.84.227-1.155.431-.697-.106-1.21-.2-1.805-.023-.15 0-.427.075-.456.485-.193.222-.426.169-.76-.117-.72-.088-1.47-.056-2.207.032-.726.154-1.448.208-2.173.013-.188-.092-.382-.124-.577-.036-.214-.14-.475-.062-.642.428-.9.124-1.773-.038-2.651-.022-.117-.168-.21-.287-.352.748-.429.467-1.173.5-1.768.085-1.476.027-2.96.03-4.44 0-.59.287-.837.875-.78.698.066 1.397.168 2.096.169.387 0 .773-.176 1.16-.27.583-.14 1.029.227 1.04.837zm10.98 3.542c-.717.426-1.436.078-2.152.005-.412-.042-.973.333-.94.727.065.775-.24 1.587.225 2.332.07.111.01.318-.021.475-.06.308-.202.612-.204.918-.016 3.063-.02 6.126 0 9.19.002.498.134.995.197 1.494.011.092.003.2-.034.284-.266.6-.067 1.435.452 1.744.715.426 1.505.25 2.267.224.763-.025 1.531-.192 2.282-.125.724.065 1.706-.274 2.05-.888.28.026.601.16.774.052.476-.295.946-.641 1.317-1.058.552-.623 1.04-1.307 1.507-1.998.224-.332.35-.733.495-1.113.183-.48.286-.998.522-1.448.282-.537-.026-1.042.029-1.493.058-.478.376-.934.17-1.474-.33-.859-.725-1.701-.952-2.587-.243-.946-.87-1.629-1.375-2.397-.14-.214-.43-.338-.664-.48-.646-.395-1.285-.804-1.953-1.157-.582-.307-1.182-.602-1.807-.798-.65-.204-1.337-.283-2.009-.415-.058-.012-.134-.038-.175-.014zm-29.813 5.916c-.365.24-.55.518-.227.947.158.21.2.41-.165.472-.104.017-.241.102-.282.193-.322.712-.629 1.431-.927 2.153-.06.145-.011.355-.1.465-.577.724-.935 1.524-.942 2.534.094.031.168.077.243.078 1.615.004 3.23.016 4.845-.001.636-.007.996-.415.797-.832-.569-1.192-1.14-2.383-1.704-3.576-.077-.162-.097-.356-.191-.504-.418-.659-.286-1.703-1.347-1.929zm-35.791-8.99c-.978.228-1.957.473-2.694 1.111-1.312 1.135-2.358 2.484-2.284 4.349-.056 1.544.556 2.823 1.547 3.866 1.214 1.278 2.55 2.443 3.856 3.63.102.094.46.061.58-.046.995-.883 1.974-1.783 2.933-2.705.98-.94 1.853-1.907 2.265-3.309.346-1.174.146-2.292-.21-3.256-.457-1.243-1.316-2.397-2.664-2.95-1.06-.434-2.068-.985-3.33-.69zm93.274 3.428c-.516.055-1.036.167-1.526.335-.786.269-1.661.449-1.942 1.433-.03.108-.175.21-.29.26-.638.275-1.222.795-1.332 1.364-.147.763-.633 1.251-.955 1.863-.28.53-.096.969.487.975 1.232.013 2.465-.005 3.698.011.23.003.46.11.692.156.133.027.273.048.408.04.574-.034 1.147-.105 1.72-.111.364-.005.731.128 1.093.113.411-.018.82-.201 1.227-.19.842.026 1.68.159 2.522.19.249.008.504-.178.844-.308l.252.328c.492-.25.917-.605.69-1.072-.488-1.004-.381-2.362-1.644-2.932-.057-.026-.069-.145-.109-.216-.582-1.04-1.63-1.568-2.57-2.135-.99-.596-2.17-.22-3.265-.104zm-61.706-8.52c.552.492 1.109.65 1.676.159.621.35 1.208.56 1.92.29.485-.185.559.222.56.604-.195.263-1.207-.073-.456.926-.317 0-.52-.007-.722.002-.252.011-.526-.022-.751.065-.749.291-1.48.628-2.285.976v.519l.652-.083c-.053.219-.122.435-.155.657-.126.84-.718.803-1.35.773-.211-.01-.43.143-.704.242l-.352-.272-.122.07c.092.241.282.497.248.72-.033.22-.291.405-.451.607l.534.666-1.112.136c.727.545.735.627.104 1.01-.31.189-.414.33-.082.575.406.3.338.584-.01.881-.113.097-.187.24-.286.37.5.25.308.22.198.909-.154.967-.977 1.29-1.399 1.97-.612-.424-.79-1.092-.474-1.708.245-.48.236-1.159.976-1.265.012-.001.005-.254-.022-.383-.027-.127-.162-.328-.13-.356.56-.475.22-1.19.47-1.718.302-.643.735-1.224 1.142-1.882-.264-.252-.355-.522-.017-.927.23-.275.26-.733.34-1.117.096-.464.15-.937.232-1.476-.236-.014-.458-.006-.669-.05-.116-.024-.238-.12-.309-.217-.033-.047.04-.25.079-.255.118-.013.28-.004.36.068.286.264.442.312.576-.146.087-.3.314-.564.509-.82.052-.07.268-.112.321-.065.584.517.808.155.961-.454zm-1.117 5.411c.395.175.349.524.244.856-.024.077-.237.094-.362.139l-.152-.936.27-.059zm17.131-4.527c.614.197 1.342.014 2.017.047.536.026 1.068.168 1.603.183.359.01.72-.168 1.082-.17 1.37-.004 2.74.035 4.11.047 1.015.009 2.028.002 3.105.002v.677c-.886-.04-1.747-.111-2.607-.11-.958 0-1.92.028-2.873.121-.492.048-.96.303-1.452.39-.295.054-.615-.027-.923-.06-.114-.013-.231-.104-.337-.089-.668.095-.985.053-1.56-.27l-.733.908c-.003-.89-.45-.937-1.02-.908-.71.036-1.426.004-2.138-.037-.199-.011-.39-.16-.584-.244.192-.15.378-.418.578-.43.57-.033 1.1-.26 1.732-.057zm-9.926.143l.968.121.014.233c-.242.154-.224.775-.716.433-.182-.127-.183-.517-.266-.787zm7.02-.6c.134.286.339.53.282.642-.118.234-.343.472-.581.569-.223.09-.518 0-.782-.012l-.637-.03-.173.155-.3-.959c.768-.414 1.55.705 2.192-.365zm-4.226.503c.148.001.294.15.578.316-.262.204-.455.426-.52.393-.17-.086-.283-.284-.418-.437.12-.098.241-.274.36-.272zm-29.529-.867l-.967-.764c.583-.105.91.134.967.764zm-1.917-2.014c.243.213.45.465.67.703l-.129.156c-.3-.167-.61-.316-.889-.513-.066-.046-.02-.252-.025-.385.127.01.297-.028.373.04zm-1.492-.953l.599.468-.075.253c-.165 0-.4.067-.48-.015-.133-.139-.168-.373-.244-.567l.2-.139zm-6.042-.066c.557.792.604.801 1.41.269l-1.41-.269z"/>
</svg>
