<svg xmlns="http://www.w3.org/2000/svg" width="127" height="29" viewBox="0 0 127 29">
    <path fill-rule="evenodd" d="M80.304.269c.55 0 .89.381 1.136.754l.065.1 7.252 15.225 7.254-15.224c.23-.368.543-.78 1.055-.846l.144-.01h4.703c.56 0 .99.439 1.045 1.028l.006.128-13.105 26.934c-.25.301-.652.553-1.102.553-.4 0-.76-.2-1.01-.455l-.09-.098L74.551 1.424c0-.609.392-1.088.932-1.149l.118-.006h4.703zm-42.199 0c.608 0 1.041.395 1.096.937l.006.118v21.707h3.601c.607 0 .997.394 1.046.937l.005.119v3.768c0 .563-.35.995-.924 1.05l-.127.006h-8.955c-.606 0-.994-.394-1.044-.937l-.005-.119V1.325c0-.562.392-.995.931-1.05l.118-.006h4.252zm18.516 0c.561 0 .99.395 1.045.937l.006.118v26.43c0 .564-.392.995-.932 1.05l-.119.006H52.37c-.606 0-1.039-.393-1.094-.937l-.005-.118v-9.9h-9.804v-5.828h9.804V1.324c0-.561.392-.994.972-1.05L52.37.27h4.252zm12.822 0c.606 0 1.039.395 1.094.937l.006.118v26.43c0 .564-.392.995-.973 1.05l-.127.006H65.24c-.559 0-.988-.393-1.043-.937l-.006-.118V1.325c0-.562.392-.995.931-1.05l.118-.006h4.203zM14.207.119c.4 0 .72.2.999.455l.102.098 13.105 26.983c0 .609-.392 1.088-.933 1.149l-.118.006H22.66c-.6 0-.944-.385-1.15-.761l-.05-.094-2.252-4.672H9.154c-.75 1.708-1.45 2.964-2.2 4.672-.23.37-.543.78-1.056.846l-.145.01H1.051c-.559 0-.99-.439-1.045-1.028L0 27.655 13.107.672c.25-.301.65-.553 1.1-.553zm111.732.15c.65 0 1.05.454 1.05 1.055v3.92c0 .603-.4 1.055-1.05 1.055h-12.555v5.477h9.853c.651 0 1.05.403 1.05 1.055V16.5c0 .655-.399 1.107-1.05 1.107h-9.853v5.325h12.555c.65 0 1.05.452 1.05 1.056v3.768c0 .603-.4 1.055-1.05 1.055H108.03c-.65 0-1.048-.452-1.048-1.055V1.325c0-.602.399-1.056 1.048-1.056zM14.207 12.83l-2.501 4.975h4.853l-2.352-4.975z"/>
</svg>
