<svg xmlns="http://www.w3.org/2000/svg" width="184" height="100" viewBox="0 0 184 100">
    <path fill-rule="evenodd" d="M122.088 68.926c.151.188.28.398.384.627l-1.468.752c-.118-.25-.258-.446-.418-.584-.399-.34-1.037-.244-1.397.1-.366.351-.487.86-.52 1.35-.11 1.681.716 2.09.988 2.2.311.129.808.112 1.23.046v-.958h-.937v-1.304h2.582v3.339c-.877.332-1.778.376-2.124.397-1.16.07-2.191-.197-2.89-1.121-.434-.573-.619-1.294-.655-2.004-.038-.739.058-1.496.39-2.163.43-.864 1.232-1.413 2.184-1.533.947-.119 2.024.075 2.651.856zm-54.762-.158c.144.139.262.277.354.415l-1.18.916c-.052-.078-.118-.16-.196-.246-.205-.223-.495-.38-.791-.443-.27-.056-.613-.058-.86.08-.234.13-.337.44-.157.663.173.215.482.31.732.397.603.209 1.257.35 1.785.725.515.365.767.918.775 1.543.028 2.06-2.669 2.476-4.144 1.742-.443-.22-.788-.497-1.037-.833l1.209-.936c.144.184.34.346.585.488.267.153.575.218.881.212.248-.006.607-.057.741-.3.143-.258.017-.555-.214-.701-.237-.15-.515-.236-.78-.323-.6-.198-1.25-.366-1.742-.783-.495-.42-.661-1.072-.552-1.7.162-.933 1.012-1.456 1.887-1.591.917-.141 2.008.01 2.704.675zm5.742 0c.144.138.262.276.354.414l-1.18.917c-.052-.08-.118-.161-.196-.247-.206-.223-.495-.38-.791-.443-.27-.056-.613-.058-.86.08-.234.13-.337.44-.157.663.173.215.482.31.732.397.603.208 1.257.35 1.785.725.515.366.766.918.775 1.543.028 2.06-2.669 2.476-4.144 1.742-.442-.22-.788-.497-1.037-.832l1.21-.937c.143.184.338.346.584.488.267.153.575.218.88.211.249-.005.608-.056.742-.298.143-.259.017-.556-.214-.702-.237-.15-.515-.236-.78-.323-.6-.197-1.25-.365-1.743-.783-.494-.42-.66-1.072-.551-1.7.162-.933 1.012-1.457 1.887-1.591.917-.141 2.008.01 2.704.676zm17.029-.591l1.632 3.914 1.543-3.914h1.82v6.576H93.39v-3.214l-1.307 3.253h-.718L89.99 71.52v3.234h-1.701v-6.576h1.809zm41.49 0l1.632 3.914 1.544-3.914h1.819v6.576h-1.7v-3.214l-1.308 3.253h-.718l-1.377-3.273v3.234h-1.7v-6.576h1.808zm-46.14 0v1.508h-1.82v5.068h-1.77v-5.068H80.02v-1.508h5.427zm57.27 0v1.508h-2.91v1.085h2.37v1.39h-2.37v1.075h3.116v1.518h-4.876v-6.576h4.67zm-63.415 0v1.508H76.39v1.085h2.37v1.39h-2.37v1.075h3.117v1.518H74.63v-6.576h4.67zm-19.723-.01l2.566 6.586h-1.888l-.423-1.134h-2.202l-.433 1.134H55.39l2.547-6.586h1.642zm40.507 0l2.566 6.586h-1.888l-.422-1.134h-2.203l-.432 1.134h-1.81l2.547-6.586h1.642zm45.719.01l2.133 3.48v-3.48h1.73v6.576h-1.603l-2.32-3.717v3.717h-1.72v-6.576h1.78zm-17.335 0v1.508h-2.91v1.085h2.37v1.39h-2.37v1.075h3.117v1.518H123.8v-6.576h4.67zm27.5 0v1.508h-1.819v5.068h-1.77v-5.068h-1.838v-1.508h5.427zm-41.874-.01l2.567 6.586h-1.888l-.423-1.134h-2.202l-.433 1.134h-1.809l2.547-6.586h1.641zm-8.858.01l2.133 3.48v-3.48h1.73v6.576H107.5l-2.32-3.717v3.717h-1.72v-6.576h1.779zm-46.514 2.1l-.708 2.001h1.415l-.707-2.001zm40.507 0l-.708 2.001h1.416l-.708-2.001zm14.01 0l-.708 2.001h1.416l-.708-2.001zm42.729-12.125v5.012H28.229v-5.012H155.97zm-9.408-31.604v26.594h-5.405l-.178-1.18c-1.173 1.055-2.838 1.52-3.952 1.59-1.261.079-2.589-.216-3.735-.744-1.73-.798-5.219-3.333-5.186-9.729.013-2.63 1.003-5.31 2.875-7.192.86-.865 2.946-2.676 6.752-2.676.85 0 1.695.102 2.522.29l.412.102v-7.055h5.895zM93.4 33.673V44.68c0 .951.198 3.128 1.538 3.645 1.247.481 2.723.102 3.318-.196.432-.217.854-.476 1.253-.757l.294-.214V33.673h5.93v19.47h-5.432l-.253-1.67c-.49.508-1.121.912-1.748 1.23-.903.46-1.895.741-2.906.811-2.192.152-4.558-.475-6.058-2.159-1.417-1.59-1.83-3.8-1.864-5.878l-.003-.295v-11.51H93.4zm-49.825-7.126L54.63 53.142h-6.25l-2.161-5.175h-9.807l-2.162 5.175H28l11.055-26.595h4.52zm80.65 8.299c.889.782 2.366 2.562 2.452 6.5l.004.364v11.432h-5.931V42.1c0-1.65-.475-3.019-1.515-3.604-1.266-.714-2.741-.27-3.358.083-.454.26-.899.552-1.308.882l-.3.255v13.427h-5.93v-19.47h5.405l.24 1.595c1.162-1.142 2.59-1.6 2.88-1.7 1.661-.573 5.154-.663 7.36 1.279zm-46.616-1.628c.618.017 3.575.064 5.495 1.807 1.833 1.663 2.18 4.203 2.203 6.288l.002.248v11.581h-5.891V41.79c0-.785-.11-2.508-1.196-3.268-.502-.352-2.043-.65-3.394-.05-.595.266-1.2.527-1.74.894.09.563.159 1.123.183 1.69l.01.426v11.66h-5.892V41.698c-.007-.615-.085-2.29-.956-3.023-1.186-.996-2.827-.415-3.489-.096-.476.23-.927.533-1.333.879l-.238.213v13.471h-5.932v-19.47h5.452l.24 1.595c1.162-1.142 2.591-1.597 2.88-1.7 2.65-.934 5.876.32 7.189 1.664 0 0 2.759-1.957 6.407-2.013zm77.864.455v19.47h-5.892v-19.47h5.892zm-17.044 4.485c-2.56-.015-3.712 1.713-4.143 2.83-.472 1.225-.483 2.424-.285 3.69.551 3.51 3.17 4.454 5.22 3.614.47-.192.956-.464 1.305-.848l.141-.172v-8.709c-.794-.275-1.543-.4-2.238-.405zM41.316 34.62v.002l-.002-.002-3.17 8.299h6.341l-3.17-8.299zm111.211-8.515c2.16 0 3.443 1.498 3.443 3.165 0 1.668-1.164 3.184-3.443 3.184-2.28 0-3.443-1.516-3.443-3.184 0-1.667 1.283-3.165 3.443-3.165z"/>
</svg>
