<svg xmlns="http://www.w3.org/2000/svg" width="184" height="100" viewBox="0 0 184 100">
    <path fill-rule="evenodd" d="M42.938 46.594c.113.55.204 1.106.337 1.835.56-.233 1.085-.4 1.558-.657 2.158-1.173 4.332-2.322 6.433-3.587.774-.466 1.453-1.16 2.02-1.87.915-1.142.638-2.268-.731-2.814-1.01-.403-2.13-.54-3.198-.807-.324-.082-.637-.202-.956-.304l.082-.48c1.568.083 3.136.159 4.703.256.282.017.561.11.837.185 3.156.851 3.905 2.805 1.815 5.308-1.28 1.534-2.797 2.952-4.437 4.104-2.47 1.734-5.15 3.174-7.713 4.784-.403.253-.815.697-.948 1.134-2.605 8.522-11.825 12.925-20.142 9.532-1.036-.422-2.039-1.064-2.87-1.808-2.132-1.906-2.233-4.29-.389-6.475 2.334-2.764 5.367-4.642 8.489-6.384 1.981-1.106 4.02-2.111 6.188-3.242-.288-.038-.417-.094-.523-.064-8.17 2.265-16.212 4.883-23.796 8.688-1.771.888-3.423 2.038-5.032 3.199-.843.607-1.763 1.445-1.43 2.639.313 1.12 1.501 1.204 2.46 1.403 2.846.59 5.703.307 8.555-.002.357-.039.722-.006 1.202-.006-.138.232-.173.37-.236.384-3.897.845-7.81 1.421-11.806.71C2.02 62.006.863 61.39 0 60.272v-1.482c1.3-3.048 3.857-4.945 6.49-6.719 2.034-1.37 4.181-2.582 6.312-3.808.583-.335.871-.715.99-1.366 1.23-6.776 7.367-11.819 14.437-11.897 7.05-.078 13.322 4.865 14.71 11.593zm94.067.016l-.794.863c-1.181-.964-2.51-1.399-3.99-1.3-2.834.19-4.777 2.82-4.334 5.839.438 2.978 3.103 4.724 6.147 4.026 2.133-.489 2.44-1.042 2.114-4.01h-3.535l-.052-1.156h4.958c0 1.468.014 2.903-.016 4.338-.004.204-.17.468-.342.595-2.129 1.56-4.467 2.041-6.978 1.091-2.403-.91-3.529-2.813-3.688-5.241-.159-2.419.742-4.434 2.865-5.781 2.296-1.458 5.557-1.154 7.645.736zm34.7-1.369V57.06h-1.115l-.145-1.74c-1.127 1.357-2.427 2.025-4.06 2.04-2.595.024-4.355-1.374-4.811-3.89-.07-.379-.093-.77-.095-1.155-.008-2.32-.004-4.64-.004-7.005h1.278v4.447c0 .917-.036 1.836.018 2.75.14 2.376 1.467 3.692 3.668 3.696 2.227.004 3.973-1.597 4.048-3.816.065-1.938.023-3.879.029-5.819v-1.23l1.19-.096zm-50.783.007c3.116.893 4.095 4.07 3.932 6.32-.014.196-.527.502-.814.507-2.251.044-4.504.028-6.757.03h-1.243c.476 3.227 3.49 3.975 6.776 1.775l1.499 1.264c-1.572 1.851-3.55 2.42-5.846 2.14-3.524-.432-5.826-3.791-5.08-7.387.757-3.64 4.014-5.658 7.533-4.649zm32.31-.27c3.446.041 6.095 2.758 6.071 6.225-.024 3.5-2.767 6.19-6.268 6.146-3.465-.042-6.08-2.722-6.063-6.215.017-3.485 2.776-6.199 6.26-6.157zm-57.67.501c1.616.547 2.57 1.774 2.644 3.403.124 2.668.034 5.346.034 8.12h-2.51c-.029-.347-.06-.72-.106-1.304-1.393 1.35-2.973 1.825-4.762 1.572-2.377-.337-3.689-2.031-3.349-4.314.238-1.596 1.493-2.752 3.397-3.028.772-.112 1.569-.13 2.35-.09.772.042 1.538.21 2.383.334.015-1.638-.615-2.546-2.11-2.628-1.396-.077-2.81.177-4.372.297l-.638-1.798c2.343-.999 4.65-1.372 7.039-.564zm-26.22.15c1.498.622 2.29 1.883 2.357 3.404.114 2.633.032 5.275.032 8.029h-2.5l-.216-1.31c-1.39 1.318-2.975 1.766-4.75 1.514-2.534-.36-3.936-2.506-3.169-4.865.48-1.477 1.639-2.26 3.096-2.425 1.294-.146 2.625.006 3.939.048.307.01.61.109.925.168.065-1.62-.607-2.592-2.108-2.66-1.4-.064-2.813.191-4.35.316l-.631-1.792c2.447-1.034 4.872-1.467 7.375-.427zm77.234-.551v1.205c-.412.09-.83.157-1.233.274-2.262.658-3.666 2.657-3.722 5.353-.035 1.684-.007 3.37-.007 5.131l-1.193.069V45.292h1.17v2.493c1.365-1.509 2.805-2.662 4.985-2.707zm-37.657.216c1.687.581 2.469 1.96 2.536 3.604.11 2.672.03 5.352.03 8.116H108.8v-2.542-1.26c-.002-1.13.043-2.262-.026-3.388-.09-1.435-.991-2.307-2.368-2.421-1.405-.116-2.56.647-2.849 2.026-.164.783-.138 1.61-.147 2.418-.02 1.692-.006 3.383-.006 5.19h-2.624V45.322h2.549l.142 1.492c.29-.235.501-.38.682-.555 1.38-1.335 3.017-1.567 4.766-.965zm71.856.123c2.13.256 3.265 1.763 3.224 3.71-.04 1.882-1.332 3.327-3.359 3.68-.7.123-1.422.14-2.136.167-.71.027-1.421.006-2.27.006v4.034h-1.217V45.37c1.933 0 3.87-.18 5.758.047zm-99.67-.364v2.658c-.127.039-.255.095-.39.117-2.508.417-3.747 1.795-3.807 4.315-.037 1.584-.006 3.17-.006 4.857h-2.637V45.302h2.592v2.11c1.129-1.333 2.274-2.468 4.248-2.36zm4.315.263v11.677h-2.538V45.316h2.538zm67.696.84c-2.702.01-4.811 2.237-4.786 5.053.025 2.802 2.205 5.016 4.889 4.966 2.694-.051 4.721-2.192 4.729-4.994.007-2.798-2.143-5.035-4.832-5.025zm-60.29 5.41c-.417.108-1.151.181-1.774.48-1.136.544-1.25 2.078-.284 2.833 1.32 1.031 4.063.386 4.764-1.12.56-1.202.265-1.784-1.022-1.991-.459-.074-.923-.112-1.684-.201zm-26.532.001c-.433.109-1.169.178-1.793.475-1.154.548-1.269 2.07-.286 2.815 1.296.984 3.86.488 4.674-.903.721-1.23.368-1.987-1.032-2.194-.424-.064-.852-.106-1.563-.193zm109.974-5.07v5.347c1.471-.065 2.866-.013 4.222-.217 1.386-.21 2.176-1.322 2.15-2.634-.026-1.279-.825-2.316-2.199-2.464-1.36-.146-2.75-.032-4.173-.032zm-57.235.658c-1.672.05-2.955 1.404-2.938 3.13h6.036c-.117-1.955-1.361-3.183-3.098-3.13zm-74.476-10.15c1.155.002 2.12.95 2.123 2.085.003 1.156-.92 2.066-2.11 2.078-1.137.012-2.128-.952-2.127-2.07 0-1.13.976-2.095 2.114-2.093z"/>
</svg>
