<svg xmlns="http://www.w3.org/2000/svg" width="184" height="100" viewBox="0 0 184 100">
    <path fill-rule="evenodd" d="M100.327 38.527c-1.167.529-2.212.942-3.201 1.46-3.189 1.673-5.44 4.148-6.264 7.713-.523 2.258-.233 4.471.715 6.597.634 1.42 1.498 2.67 2.647 3.724 1.655 1.517 3.582 2.44 5.814 2.766 2.415.352 4.705-.019 6.86-1.135 1.9-.984 3.416-2.396 4.653-4.155 1.122-1.594 2.75-2.406 4.709-2.484.62-.024 1.245.062 1.868.103.294.02.342.158.274.448-.631 2.715-1.838 5.137-3.629 7.28-2.45 2.933-5.588 4.685-9.323 5.367-1.345.246-2.725.452-4.084.428-3.019-.054-5.876-.79-8.407-2.52-3.312-2.266-5.395-5.358-6.159-9.29-.595-3.065-.28-6.028 1.219-8.82 1.21-2.254 3-3.94 5.196-5.203 1.808-1.038 3.784-1.66 5.812-2.113.37-.083.757-.099 1.3-.166zm-59.95-1.733c1.524.088 2.703.796 3.502 2.112 1.91 3.146 3.829 6.287 5.736 9.435 1.692 2.791 3.37 5.591 5.059 8.385 1.125 1.862 2.257 3.72 3.383 5.58.1.168.177.35.295.585-2.683 0-5.265.006-7.846-.014-.185-.002-.439-.16-.54-.32-1.165-1.838-2.317-3.685-3.444-5.545-.211-.348-.443-.463-.839-.462-3.231.015-6.463.008-9.695.008h-.69c.401-.727.764-1.411 1.15-2.082.48-.833.997-1.645 1.462-2.485.175-.317.373-.443.735-.439 1.56.017 3.12.007 4.773.007l-4.365-7.517c-.544.928-1.037 1.767-1.527 2.608-1.015 1.738-2.03 3.476-3.041 5.216-1.031 1.772-2.057 3.547-3.087 5.32-1.066 1.834-2.13 3.669-3.21 5.495-.063.107-.249.2-.378.2-2.562.012-5.125.01-7.81.01l1.224-2.033c1.394-2.313 2.786-4.628 4.185-6.94 1.596-2.636 3.202-5.268 4.799-7.905 1.55-2.559 3.193-5.068 4.596-7.705.667-1.255 1.645-1.431 2.776-1.51.928-.065 1.867-.058 2.796-.004zm118.408.11c.118.013.229.1.367.163-.614 1.126-1.211 2.243-1.829 3.349-.797 1.426-1.612 2.84-2.416 4.263-1.366 2.417-2.734 4.834-4.092 7.256-.95 1.693-1.878 3.399-2.825 5.094-1.054 1.885-2.115 3.766-3.186 5.642-.062.108-.246.21-.373.21-1.97.014-3.939.016-5.908-.002-.157-.002-.378-.134-.46-.27-.531-.888-1.042-1.788-1.542-2.695-1.515-2.75-3.022-5.506-4.533-8.26l-2.16-3.938-1.824 15.135h-7.344c.089-.872.162-1.707.262-2.538.092-.776.215-1.548.319-2.322.148-1.1.296-2.198.434-3.298.123-.977.226-1.955.349-2.931.138-1.1.293-2.199.433-3.299.085-.669.152-1.34.235-2.01.18-1.443.37-2.886.546-4.33.125-1.032.227-2.066.346-3.098.067-.578.137-1.156.236-1.73.018-.107.167-.263.27-.274 1.2-.13 2.406-.335 3.608-.325 1.947.016 3.463.773 4.43 2.623 1.57 3.007 3.294 5.935 4.94 8.904 1.286 2.317 2.551 4.646 3.829 6.968.19.347.399.684.636 1.087.394-.696.768-1.347 1.133-2.004 1.63-2.937 3.251-5.878 4.884-8.813 1.244-2.236 2.474-4.481 3.763-6.692.605-1.038 1.59-1.609 2.77-1.879 1.574-.36 3.136-.143 4.702.015zm-73.608-.14c.825.156 1.677.161 2.516.246.214.022.424.09.68.147-.747 1.268-1.475 2.516-2.214 3.757-1.262 2.12-2.53 4.235-3.795 6.353-1.302 2.18-2.602 4.36-3.902 6.54-1.142 1.916-2.285 3.832-3.426 5.749-.613 1.028-1.216 2.063-1.844 3.082-.076.124-.278.24-.422.242-2.08.015-4.161.02-6.242-.005-.181-.002-.428-.184-.53-.352-.627-1.04-1.218-2.103-1.828-3.155-1.01-1.741-2.024-3.48-3.036-5.22-.884-1.521-1.765-3.045-2.65-4.566-1.013-1.74-2.03-3.477-3.041-5.217-.885-1.522-1.766-3.045-2.646-4.569-.497-.86-.99-1.72-1.564-2.72 1.749-.141 3.366-.365 4.984-.376 1.564-.012 3.063.396 4.12 1.679.445.541.796 1.17 1.125 1.794 1.493 2.83 2.96 5.674 4.44 8.51 1.203 2.303 2.412 4.603 3.62 6.904.056.106.127.204.227.364.573-1.012 1.12-1.966 1.657-2.927 1.52-2.727 3.04-5.454 4.552-8.185.906-1.636 1.817-3.27 2.688-4.924.742-1.409 1.704-2.552 3.328-2.939 1.05-.25 2.104-.42 3.203-.212zm74.868 5.05l.157.02 2.454 21.03h-7.29c-.115-.922-.232-1.852-.346-2.783-.147-1.21-.299-2.419-.435-3.63-.09-.797-.153-1.598-.236-2.396-.052-.505-.133-1.008-.172-1.515-.013-.165.025-.36.106-.504.988-1.774 1.987-3.542 2.985-5.31.925-1.638 1.851-3.274 2.777-4.911zm-56.247-8.707c2.945.313 5.601 1.36 8.036 3.005 1.417.957 2.677 2.067 3.572 3.561.716 1.196.628 2.185-.325 3.203-1.454 1.551-3.183 2.746-5.012 3.784-2.404 1.365-4.836 2.688-7.312 3.918-2.466 1.226-5 2.316-7.505 3.465l-.073-.135c.649-.566 1.293-1.137 1.947-1.696.708-.607 1.449-1.178 2.135-1.809 1.398-1.286 2.817-2.555 4.137-3.918 1.294-1.337 2.61-2.676 3.555-4.304.233-.402.523-.852.528-1.284.005-.394-.262-.86-.542-1.178-1.549-1.752-3.62-2.596-5.824-3.145-1.554-.387-3.158-.593-4.75-.43-1.8.182-3.58.55-5.406.844.51-.383 1.013-.824 1.575-1.17 1.753-1.083 3.592-1.977 5.627-2.424 1.865-.41 3.736-.49 5.637-.287z"/>
</svg>
