<svg xmlns="http://www.w3.org/2000/svg" width="184" height="100" viewBox="0 0 184 100">
    <path fill-rule="evenodd" d="M65.96 18.142V82.92H1V18.142h64.96zm-25.076 32.01h-3.553l23.607-30.468H2.547v53.794c.052-.053.089-.09.107-.103.084-.062 3.975-4.878 7.55-9.627 3.211-4.142 6.225-8.17 6.49-8.553.613-.889 1.486-2.766 1.558-2.92l.004-.01h4.755s.147 1.842.285 2.29c.121.386 2.903 9.489 3.08 9.956l.008.018 1.602-2.043-2.738-8.404s-.568-1.4-.809-1.763l-.04-.055h5.552s-.043.813.181 1.506c.226.693 1.417 4.977 1.417 4.977s3.787-4.735 4.009-5.075c.389-.532.46-1.297.467-1.397v-.01h4.628s-.847.617-2.332 2.49c-.463.584-4.713 5.97-5.314 6.732l-.07.09s.426 1.45.633 2.17c.057.208.096.348.096.363 0 .006.108-.125.293-.362 1.261-1.593 6.996-9.092 7.343-9.734.234-.432.559-.913.8-1.433l.134-.317h4.515s.091 1.182.216 1.636l.026.08 2.826 9.768c1.056 2.945 3.208 10.513 4.127 11.412l.057.049h-5.834s-.021-1.157-.274-2.053c-.245-.874-2.264-7.353-2.358-7.654l-.003-.01h-9.266L34.81 67.55s1.75 5.462 1.858 5.73c.178.456.934 1.77 1.017 1.915l.007.013h-5.59s-.145-.835-.2-1.182c-.043-.28-.529-1.817-.529-1.817s-1.267 1.384-1.612 2.026c-.32.588-.476.915-.5.966l-.003.007h-4.374s-.146-.835-.2-1.182c-.043-.28-.578-1.94-.578-1.94s-1.224 1.482-1.573 2.123c-.32.592-.471.942-.493.992l-.002.007h-4.326s1.222-1.16 1.65-1.66c.697-.818 3.239-4.126 3.397-4.332l.007-.01-1.076-3.716h-9.196s-5.243 6.87-5.45 7.083c-.198.2-1.587 2.183-1.755 2.585l-.016.05H2.547v6.169h61.866V19.685L40.884 50.152zm45.952 1.586c1.388 0 2.608.283 3.661.848s1.914 1.217 2.586 1.955l-1.562 1.87c-.602-.647-1.284-1.166-2.047-1.558-.764-.392-1.632-.588-2.603-.588-1.088 0-2.071.213-2.95.64-.88.427-1.631 1.038-2.256 1.834-.625.796-1.105 1.76-1.44 2.89-.336 1.13-.503 2.4-.503 3.806 0 1.431.167 2.717.503 3.859.335 1.142.803 2.117 1.405 2.924.602.808 1.336 1.431 2.204 1.869.868.439 1.845.657 2.932.657 1.111 0 2.083-.225 2.916-.674.833-.45 1.62-1.079 2.36-1.886l1.596 1.799c-.902 1.038-1.92 1.846-3.054 2.422-1.134.577-2.441.866-3.921.866-1.435 0-2.754-.266-3.957-.796-1.203-.53-2.25-1.298-3.14-2.302-.892-1.004-1.586-2.238-2.083-3.703-.498-1.465-.746-3.12-.746-4.966 0-1.822.255-3.46.764-4.914.508-1.454 1.214-2.688 2.117-3.703.902-1.014 1.966-1.793 3.192-2.335 1.226-.543 2.568-.814 4.026-.814zm89.398 5.883c1.063 0 2.018.185 2.863.554.844.37 1.55.9 2.117 1.592.566.692 1 1.523 1.301 2.491.3.97.451 2.054.451 3.253 0 .3-.006.595-.017.883-.012.288-.04.537-.087.744h-11.383c.116 1.8.677 3.225 1.683 4.274 1.007 1.05 2.32 1.574 3.94 1.574.809 0 1.555-.12 2.237-.363.683-.242 1.337-.56 1.961-.952l1.007 1.87c-.74.46-1.562.864-2.464 1.21-.902.346-1.932.52-3.089.52-1.134 0-2.192-.203-3.175-.606-.984-.404-1.84-.98-2.568-1.73-.729-.75-1.302-1.667-1.718-2.751-.417-1.085-.625-2.32-.625-3.704 0-1.384.214-2.623.642-3.72.428-1.095.995-2.024 1.7-2.786.706-.761 1.51-1.343 2.413-1.748.902-.402 1.839-.605 2.81-.605zm-76.141-7.406v21.456c0 .462.08.785.243.97.161.184.347.276.555.276h.26c.081 0 .203-.023.365-.069l.381 2.146c-.185.091-.405.161-.66.207-.254.046-.577.07-.97.07-1.089 0-1.863-.324-2.326-.97-.463-.645-.694-1.591-.694-2.838V50.215h2.846zm48.585 7.406c2.059 0 3.551.63 4.477 1.886.925 1.258 1.388 2.937 1.388 5.036v10.312h-2.36l-.243-2.007h-.104c-.81.67-1.677 1.24-2.603 1.713-.925.473-1.92.71-2.984.71-1.412 0-2.586-.416-3.522-1.246-.938-.83-1.406-2.007-1.406-3.53 0-1.846.82-3.259 2.464-4.24 1.642-.98 4.268-1.666 7.878-2.058 0-.53-.052-1.05-.157-1.558-.104-.507-.283-.957-.538-1.35-.254-.391-.607-.71-1.058-.952-.451-.242-1.024-.363-1.718-.363-.971 0-1.886.185-2.741.554-.857.37-1.62.785-2.29 1.246l-1.111-1.973c.786-.507 1.746-.997 2.88-1.47 1.133-.473 2.383-.71 3.748-.71zm13.708-4.291v4.707h4.547v2.318h-4.547v9.344c0 1.038.191 1.84.573 2.405.382.565 1.059.848 2.03.848.3 0 .625-.046.972-.139.347-.091.66-.195.937-.311l.555 2.145c-.463.162-.966.306-1.51.433-.543.127-1.081.19-1.613.19-.902 0-1.66-.138-2.274-.415-.613-.276-1.11-.657-1.492-1.142-.381-.484-.653-1.072-.815-1.765-.162-.692-.243-1.453-.243-2.284v-9.31h-2.499V58.21l2.638-.172.347-4.707h2.394zm-30.297 4.29c1.736 0 3.025.555 3.87 1.662.844 1.107 1.267 2.746 1.267 4.915v10.658h-2.846V64.577c0-1.592-.255-2.74-.764-3.444-.509-.703-1.295-1.055-2.36-1.055-1.272 0-2.684.866-4.233 2.596v12.181h-2.846V64.577c0-1.592-.255-2.74-.764-3.444-.509-.703-1.307-1.055-2.394-1.055-1.273 0-2.685.866-4.234 2.596v12.181h-2.846V58.037h2.36l.243 2.422h.104c.74-.807 1.544-1.482 2.412-2.025.867-.541 1.81-.813 2.828-.813 1.296 0 2.308.283 3.037.848.729.566 1.266 1.356 1.614 2.37.879-.968 1.763-1.747 2.655-2.335.89-.589 1.856-.883 2.897-.883zm-23.494.417v16.818h-2.846V58.037h2.846zm43.068 8.028c-1.412.185-2.598.404-3.558.658s-1.734.553-2.325.9c-.59.346-1.018.744-1.284 1.194-.266.45-.399.94-.399 1.47 0 .97.289 1.661.868 2.077.578.415 1.284.622 2.117.622.81 0 1.573-.19 2.29-.57.717-.38 1.48-.94 2.29-1.679v-4.672zm-122.565-.448l-1.645 2.127 1.059 3.267 1.7-2.33c-.13-.139-.81-2.155-1.04-2.839l-.074-.225zm147.205-5.746c-.602 0-1.175.116-1.718.346-.544.23-1.035.57-1.475 1.02-.44.45-.804.999-1.093 1.645-.29.645-.48 1.384-.573 2.214h9.024c0-1.707-.365-3.005-1.094-3.893-.729-.888-1.752-1.332-3.071-1.332zM42.949 56.65c-.646 1.387-4.376 5.93-4.557 6.15l-.007.008h6.179s-1.198-3.678-1.407-4.507c-.166-.66-.121-1.509-.121-1.61 0-.076-.014-.198-.087-.041zm-23.74 0c-.646 1.387-4.376 5.93-4.557 6.15l-.007.008h6.179s-1.197-3.678-1.406-4.507c-.166-.66-.121-1.509-.121-1.61 0-.076-.015-.198-.088-.041zm87.998-5.743c.555 0 1.024.168 1.405.502.382.335.573.779.573 1.332 0 .532-.19.97-.573 1.316-.381.346-.85.519-1.405.519s-1.024-.173-1.406-.52c-.381-.345-.572-.783-.572-1.315 0-.553.19-.997.572-1.332.382-.334.85-.502 1.406-.502z"/>
</svg>
