<svg xmlns="http://www.w3.org/2000/svg" width="184" height="100" viewBox="0 0 184 100">
    <path fill-rule="evenodd" d="M86.009 76.558c.727-.987 1.385-1.868 2.026-2.762.063-.089.064-.264.026-.375-.194-.555-.417-1.1-.618-1.652-.234-.644-.457-1.292-.722-2.043l-.247.322c-.537.69-1.063 1.39-1.618 2.065-.197.239-.201.45-.11.719.32.955.622 1.916.938 2.873.087.262.196.517.325.853m-18.003-10.65h7.872c-.12-.37-.227-.692-.329-1.015-.346-1.091-.69-2.183-1.038-3.274-.326-1.02-.657-2.036-.59-3.129.008-.124-.02-.25-.04-.444-1.741 2.826-3.836 5.283-5.875 7.863m30.995-.002h7.881c-.119-.34-.227-.625-.32-.915-.358-1.133-.706-2.27-1.067-3.401-.322-1.008-.656-2.011-.574-3.093.01-.125-.02-.254-.037-.461-1.748 2.824-3.836 5.281-5.883 7.87M71.956 82.093l-.05-.106c.05-.027.11-.045.148-.084.654-.65 1.366-1.253 1.946-1.962 1.47-1.795 2.882-3.636 4.307-5.466.072-.093.09-.274.057-.393-.394-1.42-.804-2.835-1.207-4.253-.067-.235-.181-.348-.459-.348-3.766.01-7.531.004-11.297.018-.16 0-.371.117-.472.246-2.124 2.728-4.224 5.475-6.355 8.198-1.01 1.29-1.996 2.592-2.842 3.996-.058.096-.242.164-.368.166-.953.014-1.906.02-2.859.001-.327-.007-.433.086-.43.42.013 2.335.007 4.67.007 7.005 0 .535 0 .535.548.535h79.668c.524 0 .524 0 .524-.51V39.265 10.632c0-.128-.018-.256-.028-.385-.471.486-.865.993-1.259 1.5-1.734 2.224-3.471 4.446-5.2 6.673-1.918 2.471-3.826 4.95-5.744 7.42-1.89 2.435-3.79 4.861-5.679 7.296-2.295 2.956-4.58 5.919-6.875 8.875-1.89 2.434-3.79 4.86-5.673 7.3-.162.21-.32.282-.572.28-1.297-.01-2.594-.004-3.892-.006-.12 0-.24-.017-.397-.03.065-.11.097-.182.145-.243 1.669-2.146 3.338-4.291 5.009-6.435l6.586-8.45c2.776-3.562 5.55-7.125 8.328-10.686 1.58-2.027 3.165-4.05 4.746-6.076 1.47-1.884 2.938-3.768 4.405-5.653.426-.548.849-1.099 1.268-1.651.051-.068.072-.157.106-.237-.09-.032-.18-.07-.272-.095-.042-.012-.091-.003-.137-.003H52.6c-.51 0-.518.01-.518.518V79.637c.175-.054.272-.127.347-.219.68-.826 1.364-1.649 2.03-2.486 1.487-1.87 2.978-3.738 4.444-5.625 1.865-2.397 3.711-4.809 5.557-7.22 1.907-2.495 3.803-4.997 5.706-7.494.936-1.228 1.58-2.619 2.255-3.991.112-.228.246-.292.476-.292 1.86.004 3.72.008 5.58-.004.279-.001.339.104.362.354.067.701.116 1.41.263 2.096.17.795.427 1.572.666 2.351.593 1.942 1.198 3.88 1.797 5.82.505 1.636 1.006 3.274 1.514 4.909.023.075.093.153.162.19.028.015.128-.064.171-.119.533-.666 1.05-1.345 1.596-2 .216-.258.207-.491.104-.783-.262-.748-.5-1.504-.746-2.257-.302-.927-.602-1.854-.905-2.781-.408-1.25-.807-2.504-1.23-3.749-.283-.835-.588-1.663-.908-2.485-.195-.5-.437-.983-.667-1.494.102-.017.179-.042.256-.042 2.216-.003 4.432-.002 6.647-.005.214 0 .32.072.315.298-.027 1.032.354 1.981.622 2.953.3 1.081.616 2.158.925 3.237l.526 1.838c.123-.13.204-.205.273-.29 1.463-1.831 2.92-3.666 4.388-5.493.533-.664 1.006-1.355 1.12-2.22.035-.265.146-.328.398-.327 1.745.01 3.49.004 5.235.007.114 0 .228.03.314.041-.83.91-1.688 1.76-2.441 2.694-2.437 3.02-4.832 6.072-7.254 9.103-.203.254-.14.485-.071.735.09.328.195.652.293.978l.531 1.769c.112-.14.176-.217.238-.297.978-1.256 1.965-2.507 2.933-3.772 1.625-2.122 3.237-4.255 4.856-6.382 1.087-1.428 2.17-2.862 2.933-4.495.151-.324.337-.383.65-.381 1.7.011 3.4.01 5.098 0 .275-.002.38.068.394.354.055 1.12.363 2.192.678 3.26.243.827.508 1.647.748 2.474.353 1.22.685 2.447 1.04 3.667.354 1.22.717 2.436 1.09 3.65.408 1.32.83 2.637 1.251 3.953.287.897.584 1.79.874 2.686.308.95.605 1.903.922 2.85.335 1 .683 1.995 1.035 2.99.472 1.331.914 2.677 1.732 3.894h-7.545c-.088-.708-.1-1.403-.27-2.057-.389-1.479-.849-2.94-1.293-4.404-.305-1.009-.634-2.01-.95-3.016-.284-.91-.569-1.82-.845-2.732-.086-.284-.22-.4-.553-.398-3.743.016-7.486.013-11.229.004-.268 0-.444.069-.597.294-.474.695-.953 1.387-1.461 2.057-.185.243-.205.469-.123.727.223.702.452 1.403.683 2.104.358 1.087.745 2.166 1.072 3.262.347 1.158.773 2.275 1.407 3.31.16.262.292.54.453.841-.132.018-.199.034-.265.035-2.25 0-4.5-.004-6.75.006-.311.002-.335-.167-.382-.399-.167-.821-.349-1.64-.544-2.456-.075-.311-.202-.61-.322-.962-1.032 1.106-1.969 2.186-2.564 3.511-.085.19-.188.308-.432.306-1.722-.01-3.444-.01-5.167 0-.234.001-.335-.094-.37-.3-.071-.414-.111-.836-.217-1.24-.206-.795-.45-1.58-.69-2.417-.108.092-.166.13-.208.18-.906 1.068-1.776 2.165-2.346 3.455-.118.267-.262.321-.517.32-1.63-.006-3.26-.003-4.89-.004-.112 0-.223-.012-.334-.019m62.991 9.891H50.006c-.002-.205-.006-.41-.006-.615V8.787v-.342C50.004 8 50.005 8 50.466 8h84.449v.586l.001 82.856c0 .18.02.361.031.542"/>
</svg>
