<svg xmlns="http://www.w3.org/2000/svg" width="184" height="100" viewBox="0 0 184 100">
    <path fill-rule="evenodd" d="M161.718 98.151v1.257H21.97V98.15h139.747zM120.953 84.28c2.59 0 4.976 1.91 4.976 4.63 0 2.913-2.089 4.967-4.976 4.967s-4.975-2.054-4.975-4.966c0-2.721 2.387-4.631 4.975-4.631zm28.339.299l3.388 8.999h-2.494l-.585-1.564h-3.22l-.62 1.564h-2.482l3.46-9h2.553zm9.738 0v7.018h2.803v1.98h-5.142V84.58h2.339zm-66.073 0l3.388 8.999H93.85l-.585-1.564h-3.221l-.62 1.564h-2.482l3.46-9h2.554zm-68.482 0v8.998h-2.338v-8.999h2.338zm51.825 0l4.282 5.501h.024v-5.502h2.338v9h-2.338l-4.283-5.515H76.3v5.514H73.96v-8.999H76.3zm-44.676 0l4.283 5.501h.024v-5.502h2.338v9h-2.338l-4.283-5.515h-.024v5.514h-2.338v-8.999h2.338zm16.966 0v1.98h-1.932v7.018H44.32V86.56h-1.933v-1.982h6.203zm9.248 0v1.98h-2.78v1.504h2.638v1.983h-2.637v1.551h2.78v1.98H52.72v-8.999h5.117zm53.783 0v8.998h-2.337v-8.999h2.337zm21.015 0l4.282 5.501h.024v-5.502h2.339v9h-2.339l-4.283-5.515h-.023v5.514h-2.338v-8.999h2.338zm-66.575 0c1.778 0 3.125.847 3.125 2.77 0 1.24-.692 2.314-1.968 2.541l2.828 3.688h-2.91l-2.208-3.46h-.024v3.46h-2.338v-9h3.495zm39.092 0v1.98h-1.933v7.018h-2.338V86.56h-1.933v-1.982h6.204zm15.8 1.97c-1.396 0-2.54 1.132-2.54 2.374 0 1.553 1.144 2.685 2.54 2.685 1.397 0 2.54-1.132 2.54-2.685 0-1.242-1.143-2.374-2.54-2.374zm-29.273.81h-.024l-.966 2.866h1.944l-.954-2.866zm56.335 0h-.024l-.965 2.866h1.943l-.954-2.866zm-82.885-.99h-.226v2.244h.226c.763 0 1.623-.144 1.623-1.122 0-.979-.86-1.122-1.623-1.122zM127.545.342c20.48 0 37.142 16.672 37.142 37.165 0 20.492-16.662 37.163-37.142 37.163H56.127C35.653 74.66 19 57.993 19 37.507 19 17.014 35.664.342 56.146.342h71.4zm0 .64h-71.4C36.017.981 19.64 17.365 19.64 37.506c0 20.139 16.377 36.523 36.507 36.523h71.4c20.127 0 36.501-16.384 36.501-36.523 0-20.14-16.374-36.526-36.502-36.526zm.653 25.093c6.298 0 11.422 5.128 11.422 11.432 0 6.301-5.124 11.428-11.422 11.428H55.493c-6.3 0-11.424-5.127-11.424-11.428 0-6.304 5.125-11.432 11.424-11.432h72.705zm0 .64H55.493c-5.947 0-10.785 4.841-10.785 10.792 0 5.949 4.838 10.788 10.785 10.788h72.705c5.945 0 10.783-4.84 10.783-10.788 0-5.95-4.838-10.792-10.783-10.792zM78.065 39.493l2.687 7.138h-2.18l-.447-1.195h-2.288l-.475 1.195h-2.17l2.744-7.138h2.129zm7.147 0v1.771h-1.478v5.367H81.69v-5.367h-1.477v-1.77h5zm2.729 0v7.138h-2.045v-7.138h2.045zm28.572 0v1.771h-1.478v5.367h-2.044v-5.367h-1.478v-1.77h5zm-24.635 0l1.31 3.455 1.389-3.455h1.975l1.08 7.138h-2.05l-.461-3.63-1.513 3.63h-.883l-1.447-3.63-.526 3.63h-2.043l1.212-7.138h1.957zm10.695 0v1.771h-2.126v.894h2.017v1.772h-2.017v.93h2.126v1.771h-4.17v-7.138h4.17zm-32.488 0c1.44 0 2.171.645 2.171 1.917 0 .614-.186 1.06-.566 1.356.795.214 1.213.838 1.213 1.82 0 1.3-.954 2.045-2.617 2.045h-2.884v-7.138h2.683zm35.607 0l3.101 3.986v-3.986h2.046v7.138h-1.98l-3.102-3.995v3.995h-2.044v-7.138h1.979zm10.565.256h-4.488v1.26h1.478v5.366h1.532v-5.367h1.478V39.75zm-28.573 0h-1.533v6.626h1.533V39.75zm17.882 0h-1.597v6.626h1.532v-4.217h.19l.058.05 3.235 4.167h1.599V39.75h-1.534v4.208h-.19l-.056-.05-3.237-4.158zm-35.481 0h-2.427v6.626h2.628c.71 0 2.361-.174 2.361-1.788 0-.967-.434-1.515-1.292-1.627l-.112-.014v-.191l.07-.054c.463-.235.687-.657.687-1.29 0-1.118-.626-1.662-1.915-1.662zm21.617 0h-1.565l-1.125 6.626h1.518l.574-3.96h.198l.05.08 1.546 3.88h.54l1.65-3.96h.199l.033.111.486 3.85h1.528l-1.002-6.627H94.75l-1.568 3.902-1.48-3.902zm-13.815 0h-1.776l-2.547 6.626h1.624l.475-1.195h2.639l.447 1.195h1.633l-2.495-6.626zm24.43 0h-3.658v6.626h3.658v-1.259h-2.125v-1.442h2.016v-1.26h-2.016v-1.406h2.125V39.75zm-17.36 0h-4.489v1.26h1.478v5.366h1.533v-5.367h1.477V39.75zm-14.08 4.06c.146.144.22.344.22.595 0 .226-.07.411-.21.55-.294.295-.82.308-1.225.308h-.472v-1.735h.456c.417-.006.936-.01 1.231.282zm-1.229-.027l-.203.001v1.223h.156c.37.003.87.002 1.106-.233.09-.09.134-.211.134-.369 0-.183-.047-.318-.144-.413-.219-.218-.68-.212-1.049-.209zm7.426-2.162l.047.087.787 2.36h-1.844l.825-2.447h.185zm-.084.503l-.57 1.688h1.133l-.563-1.688zm-7.544-1.26c.408 0 1.167 0 1.167.793 0 .748-.704.792-1.037.795h-.386v-1.588h.256zm0 .255v1.077h.073c.603 0 .839-.15.839-.539 0-.452-.32-.538-.912-.538zm1.552-12.667c2.685 0 4.864 2.18 4.864 4.869 0 2.69-2.179 4.87-4.864 4.87-2.689 0-4.867-2.18-4.867-4.87 0-2.688 2.178-4.869 4.867-4.869zm26.221 0c2.146 0 3.967 1.39 4.615 3.32l-2.649.01c-.457-.585-1.166-.96-1.966-.96-1.379 0-2.498 1.119-2.498 2.499 0 1.38 1.12 2.499 2.498 2.499.827 0 1.56-.417 2.014-1.037h-2.586v-2.005l5.411.02c.018.172.028.347.028.523 0 2.69-2.179 4.87-4.867 4.87s-4.867-2.18-4.867-4.87c0-2.689 2.179-4.869 4.867-4.869zm24.198-.018c1.661 0 3.01 1.353 3.01 3.016h-2.206v-.283c0-.46-.345-.832-.804-.832-.46 0-.832.372-.832.832 0 .218.087.42.222.569 0 0 .218.252.715.395.382.11.7.083 1.293.331l.003-.001c1.007.421 1.727 1.417 1.727 2.579 0 1.733-1.394 3.138-3.128 3.138-1.734 0-3.139-1.398-3.139-3.132h2.182c-.023.077-.006.166-.006.25 0 .53.433.96.963.96.532 0 .961-.43.961-.96 0-.451-.307-.827-.724-.93-.367-.088-.305-.073-.625-.14-.315-.07-1.012-.328-1.012-.328-.95-.409-1.616-1.356-1.616-2.459 0-1.663 1.354-3.005 3.016-3.005zm-42.166.141v6.132c0 .602.5 1.09 1.1 1.09.6 0 1.073-.488 1.073-1.09v-6.132h2.386v6.132c0 1.911-1.55 3.46-3.458 3.46-1.912 0-3.458-1.549-3.458-3.46v-6.132h2.357zm26.37 0v6.132c0 .602.502 1.09 1.102 1.09.602 0 1.072-.488 1.072-1.09v-6.132h2.386v6.132c0 1.911-1.547 3.46-3.458 3.46-1.908 0-3.458-1.549-3.458-3.46v-6.132h2.357zm-42.967 0c1.31.002 2.371 1.064 2.371 2.373 0 .817-.422 1.532-1.049 1.957.857.467 1.432 1.37 1.432 2.417 0 1.521-1.232 2.754-2.754 2.754v-.008h-3.512v-9.493h3.512zm24.524.001l1.475 3.193 1.461-3.193h2.47l-2.747 6.027v3.473H87.47v-3.473l-2.762-6.027h2.47zm29.864 0v2.178h-2.791v1.478h2.79v2.179h-2.792v1.464h2.787v2.194h-5.124v-9.493h5.13zm-54.648 5.499h-.892v1.808l.892-.008c.497 0 .897-.408.897-.904 0-.496-.4-.896-.897-.896zm8.604-3.253c-1.382 0-2.499 1.12-2.499 2.499 0 1.38 1.117 2.499 2.499 2.499 1.377 0 2.496-1.12 2.496-2.5 0-1.379-1.12-2.498-2.496-2.498zm-8.604-.086l-.892.008v1.401l.892-.003c.39 0 .705-.319.705-.708 0-.389-.315-.698-.705-.698z"/>
</svg>
