<svg xmlns="http://www.w3.org/2000/svg" width="184" height="100" viewBox="0 0 184 100">
    <path fill-rule="evenodd" d="M50.702 31v15.046c1.787-1.936 4.22-2.93 7.347-2.93 6.85 0 11.914 5.463 11.914 12.862 0 7.4-5.063 12.862-11.914 12.862-3.376 0-6.156-1.291-7.893-3.625v3.03H44V31h6.702zm36.29 12.117c7.198-.1 13.353 5.81 13.204 12.812.15 7.002-6.056 13.01-13.254 12.861-7.199.15-13.255-5.86-13.106-12.861-.149-7.002 5.957-12.961 13.155-12.812zM112.11 31v23.141l8.836-10.478h7.943l-9.234 10.875 9.979 13.706h-7.645l-9.88-13.606v13.606h-6.701V31h6.702zm27.8 0v37.244h-6.701V31h6.701zM56.808 49.175c-3.425 0-6.206 2.433-6.206 6.803 0 4.42 2.83 6.754 6.206 6.754 3.624 0 6.354-2.682 6.354-6.803 0-4.023-2.78-6.754-6.354-6.754zm30.183.05c-3.723 0-6.354 2.83-6.354 6.753 0 3.824 2.631 6.655 6.354 6.655 3.624 0 6.355-2.83 6.355-6.655 0-3.823-2.73-6.753-6.355-6.753zm11.495-18.184v5.65H75.263v-5.65h23.223z"/>
</svg>
