<?xml version="1.0" encoding="UTF-8"?>
<svg width="146px" height="100px" viewBox="0 0 146 100" version="1.1" xmlns="http://www.w3.org/2000/svg" xmlns:xlink="http://www.w3.org/1999/xlink">
    <!-- Generator: Sketch 63.1 (92452) - https://sketch.com -->
    <title>BouyguesBat_Black</title>
    <desc>Created with Sketch.</desc>
    <g id="Symbols" stroke="none" stroke-width="1" fill="none" fill-rule="evenodd">
        <g id="01_logos-/-Clients-/-BouyguesConstruction-/-Black" transform="translate(-19.000000, 0.000000)" fill="#000000">
            <path d="M161.717729,98.1511945 L161.717729,99.4078498 L21.9708271,99.4078498 L21.9708271,98.1511945 L161.717729,98.1511945 Z M120.953267,84.2799659 C123.543061,84.2799659 125.928865,86.1895222 125.928865,88.9106826 C125.928865,91.8229693 123.840178,93.8768942 120.953267,93.8768942 C118.066356,93.8768942 115.978351,91.8229693 115.978351,88.9106826 C115.978351,86.1895222 118.364837,84.2799659 120.953267,84.2799659 Z M149.291696,84.5785666 L152.679715,93.5775427 L150.186458,93.5775427 L149.601435,92.0144027 L146.380907,92.0144027 L145.760065,93.5775427 L143.27943,93.5775427 L146.738061,84.5785666 L149.291696,84.5785666 Z M159.029692,84.5786007 L159.029692,91.5970307 L161.832687,91.5970307 L161.832687,93.5775768 L156.691304,93.5775768 L156.691304,84.5786007 L159.029692,84.5786007 Z M92.9566752,84.5785666 L96.3446939,93.5775427 L93.8507547,93.5775427 L93.2664136,92.0144027 L90.044521,92.0144027 L89.4250444,93.5775427 L86.9430444,93.5775427 L90.403722,84.5785666 L92.9566752,84.5785666 Z M24.4753411,84.5784983 L24.4753411,93.5774744 L22.1369533,93.5774744 L22.1369533,84.5784983 L24.4753411,84.5784983 Z M76.2995762,84.57843 L80.5816743,90.0804778 L80.6058939,90.0804778 L80.6058939,84.57843 L82.9442818,84.57843 L82.9442818,93.5774061 L80.6058939,93.5774061 L76.3231136,88.063413 L76.2995762,88.063413 L76.2995762,93.5774061 L73.9611883,93.5774061 L73.9611883,84.57843 L76.2995762,84.57843 Z M31.6236444,84.57843 L35.9067659,90.0804778 L35.9309855,90.0804778 L35.9309855,84.57843 L38.2693734,84.57843 L38.2693734,93.5774061 L35.9309855,93.5774061 L31.6475229,88.063413 L31.6236444,88.063413 L31.6236444,93.5774061 L29.2862799,93.5774061 L29.2862799,84.57843 L31.6236444,84.57843 Z M48.5902771,84.5784983 L48.5902771,86.559727 L46.658165,86.559727 L46.658165,93.5774744 L44.3197771,93.5774744 L44.3197771,86.559727 L42.3869827,86.559727 L42.3869827,84.5784983 L48.5902771,84.5784983 Z M57.8383879,84.5783276 L57.8383879,86.5595563 L55.0589299,86.5595563 L55.0589299,88.0633106 L57.6957991,88.0633106 L57.6957991,90.0459044 L55.0589299,90.0459044 L55.0589299,91.597099 L57.8383879,91.597099 L57.8383879,93.5773038 L52.7205421,93.5773038 L52.7205421,84.5783276 L57.8383879,84.5783276 Z M111.621308,84.5784983 L111.621308,93.5774744 L109.283944,93.5774744 L109.283944,84.5784983 L111.621308,84.5784983 Z M132.635928,84.57843 L136.918026,90.0804778 L136.942245,90.0804778 L136.942245,84.57843 L139.280633,84.57843 L139.280633,93.5774061 L136.942245,93.5774061 L132.659465,88.063413 L132.635928,88.063413 L132.635928,93.5774061 L130.29754,93.5774061 L130.29754,84.57843 L132.635928,84.57843 Z M66.0609168,84.5785324 C67.8385009,84.5785324 69.186272,85.426314 69.186272,87.3488396 C69.186272,88.5887713 68.4944776,89.6631741 67.2180009,89.8904778 L70.045557,93.5775085 L67.1354495,93.5775085 L64.9280523,90.117099 L64.9041738,90.117099 L64.9041738,93.5775085 L62.565786,93.5775085 L62.565786,84.5785324 L66.0609168,84.5785324 Z M105.153167,84.5784983 L105.153167,86.559727 L103.220373,86.559727 L103.220373,93.5774744 L100.881985,93.5774744 L100.881985,86.559727 L98.9491907,86.559727 L98.9491907,84.5784983 L105.153167,84.5784983 Z M120.953267,86.5489078 C119.557398,86.5489078 118.412253,87.6806485 118.412253,88.9233106 C118.412253,90.4758703 119.557398,91.6082935 120.953267,91.6082935 C122.349818,91.6082935 123.493599,90.4758703 123.493599,88.9233106 C123.493599,87.6806485 122.349818,86.5489078 120.953267,86.5489078 Z M91.6801986,87.3594539 L91.6563201,87.3594539 L90.6895818,90.2246416 L92.6343154,90.2246416 L91.6801986,87.3594539 Z M148.01522,87.3594539 L147.991341,87.3594539 L147.025967,90.2246416 L148.969336,90.2246416 L148.01522,87.3594539 Z M65.1299963,86.3689761 L64.9041738,86.3689761 L64.9041738,88.6133447 L65.1299963,88.6133447 C65.8934262,88.6133447 66.7530523,88.4693174 66.7530523,87.4908191 C66.7530523,86.5123208 65.8934262,86.3689761 65.1299963,86.3689761 Z M127.545371,0.341535836 C148.025283,0.341535836 164.687021,17.0138908 164.687021,37.5067235 C164.687021,57.9985324 148.025283,74.6702048 127.545371,74.6702048 L56.1268107,74.6702048 C35.6533808,74.6599659 18.9998294,57.9927304 18.9998294,37.5067235 C18.9998294,17.0138908 35.6636145,0.341535836 56.1455724,0.341535836 L127.545371,0.341535836 Z M127.545371,0.981467577 L56.1455724,0.981467577 C36.015993,0.981467577 19.6394322,17.3664505 19.6394322,37.5067235 C19.6394322,57.6459727 36.015993,74.030273 56.1455724,74.030273 L127.545371,74.030273 C147.672563,74.030273 164.047418,57.6459727 164.047418,37.5067235 C164.047418,17.3664505 147.672563,0.981467577 127.545371,0.981467577 Z M128.197596,26.0753242 C134.496404,26.0753242 139.62039,31.2033106 139.62039,37.5067235 C139.62039,43.80843 134.496404,48.9353925 128.197596,48.9353925 L55.4926659,48.9353925 C49.1935164,48.9353925 44.068507,43.80843 44.068507,37.5067235 C44.068507,31.2033106 49.1935164,26.0753242 55.4926659,26.0753242 L128.197596,26.0753242 Z M128.197596,26.715256 L55.4926659,26.715256 C49.5458949,26.715256 44.7081098,31.5562116 44.7081098,37.5067235 C44.7081098,43.4558703 49.5458949,48.2954608 55.4926659,48.2954608 L128.197596,48.2954608 C134.143343,48.2954608 138.980787,43.4558703 138.980787,37.5067235 C138.980787,31.5562116 134.143343,26.715256 128.197596,26.715256 Z M78.0645388,39.4933788 L80.7518939,46.6312628 L78.5714453,46.6312628 L78.1245762,45.436041 L75.8370154,45.436041 L75.3618332,46.6312628 L73.1912771,46.6312628 L75.9355995,39.4933788 L78.0645388,39.4933788 Z M85.2121257,39.4932765 L85.2121257,41.2642662 L83.7343874,41.2642662 L83.7343874,46.6311604 L81.6903874,46.6311604 L81.6903874,41.2642662 L80.2126491,41.2642662 L80.2126491,39.4932765 L85.2121257,39.4932765 Z M87.9406542,39.4931741 L87.9406542,46.631058 L85.895972,46.631058 L85.895972,39.4931741 L87.9406542,39.4931741 Z M116.512718,39.4932765 L116.512718,41.2642662 L115.034979,41.2642662 L115.034979,46.6311604 L112.990979,46.6311604 L112.990979,41.2642662 L111.513241,41.2642662 L111.513241,39.4932765 L116.512718,39.4932765 Z M91.8782879,39.4932765 L93.1885355,42.947884 L94.5765589,39.4932765 L96.5519935,39.4932765 L97.6313019,46.6311604 L95.5811617,46.6311604 L95.1208294,43.0005358 L93.6077738,46.6311604 L92.7249514,46.6311604 L91.277914,43.0014676 L90.7515636,46.6311604 L88.7092692,46.6311604 L89.9205916,39.4932765 L91.8782879,39.4932765 Z M102.57289,39.4932765 L102.57289,41.2642662 L100.447362,41.2642662 L100.447362,42.1584642 L102.464072,42.1584642 L102.464072,43.9301365 L100.447362,43.9301365 L100.447362,44.8601706 L102.57289,44.8601706 L102.57289,46.6311604 L98.4026799,46.6311604 L98.4026799,39.4932765 L102.57289,39.4932765 Z M70.0849565,39.4932423 C71.5258537,39.4932423 72.2561949,40.1382935 72.2561949,41.4103072 C72.2561949,42.0236177 72.0702836,42.4700341 71.6895921,42.7659386 C72.4850874,42.980273 72.9033023,43.6038225 72.9033023,44.5867577 C72.9033023,45.8857338 71.9491855,46.6311263 70.285536,46.6311263 L67.402036,46.6311263 L67.402036,39.4932423 L70.0849565,39.4932423 Z M105.691628,39.4932765 L108.793445,43.4786007 L108.793445,39.4932765 L110.83881,39.4932765 L110.83881,46.6311604 L108.858941,46.6311604 L105.756782,42.6355973 L105.756782,46.6311604 L103.713464,46.6311604 L103.713464,39.4932765 L105.691628,39.4932765 Z M116.256877,39.7492491 L111.769082,39.7492491 L111.769082,41.0082935 L113.246821,41.0082935 L113.246821,46.3751877 L114.779138,46.3751877 L114.779138,41.0082935 L116.256877,41.0082935 L116.256877,39.7492491 Z M87.684472,39.7491468 L86.151472,39.7491468 L86.151472,46.3750853 L87.684472,46.3750853 L87.684472,39.7491468 Z M105.566095,39.7492491 L103.969305,39.7492491 L103.969305,46.3751877 L105.500941,46.3751877 L105.500941,42.1584642 L105.691628,42.1584642 L105.748595,42.2079522 L108.984132,46.3751877 L110.582969,46.3751877 L110.582969,39.7492491 L109.049286,39.7492491 L109.049286,43.9567577 L108.858941,43.9567577 L108.803338,43.9076109 L105.566095,39.7492491 Z M70.0849565,39.749215 L67.6578771,39.749215 L67.6578771,46.3751536 L70.285536,46.3751536 C70.9957509,46.3751536 72.6474612,46.2007509 72.6474612,44.5867577 C72.6474612,43.6198635 72.2125313,43.0724232 71.3549519,42.9604778 L71.2434051,42.945802 L71.2434051,42.7550171 L71.3136762,42.7014334 C71.7758958,42.4662799 72.0003537,42.0440956 72.0003537,41.4103072 C72.0003537,40.2925597 71.3737136,39.749215 70.0849565,39.749215 Z M91.701928,39.7492491 L90.1365215,39.7492491 L89.012185,46.3751877 L90.5301757,46.3751877 L91.1042832,42.4144369 L91.3017925,42.4144369 L91.3512551,42.4946416 L92.8982411,46.3751877 L93.4372131,46.3751877 L95.0885822,42.4144369 L95.2867738,42.4144369 L95.3195215,42.5263823 L95.8063019,46.3751877 L97.334185,46.3751877 L96.3319701,39.7492491 L94.7495075,39.7492491 L93.1820542,43.6512969 L91.701928,39.7492491 Z M77.8874967,39.7493515 L76.110936,39.7493515 L73.5637818,46.3752901 L75.1882023,46.3752901 L75.6633846,45.1800683 L78.3019593,45.1800683 L78.7491696,46.3752901 L80.3821182,46.3752901 L77.8874967,39.7493515 Z M102.317049,39.7492491 L98.658521,39.7492491 L98.658521,46.3751877 L102.317049,46.3751877 L102.317049,45.1161433 L100.191521,45.1161433 L100.191521,43.6741638 L102.208231,43.6741638 L102.208231,42.4144369 L100.191521,42.4144369 L100.191521,41.0082935 L102.317049,41.0082935 L102.317049,39.7492491 Z M84.9562846,39.7492491 L80.4684902,39.7492491 L80.4684902,41.0082935 L81.9462285,41.0082935 L81.9462285,46.3751877 L83.4785463,46.3751877 L83.4785463,41.0082935 L84.9562846,41.0082935 L84.9562846,39.7492491 Z M70.8773818,43.8086007 C71.0230407,43.952628 71.097064,44.1529693 71.097064,44.4041638 C71.097064,44.6301024 71.0264519,44.8154266 70.8876154,44.9539932 C70.5925453,45.2485324 70.0675593,45.2621843 69.6619659,45.2621843 L69.1895126,45.261843 L69.1895126,43.527372 L69.6455921,43.5263481 C70.0634659,43.5212287 70.5823117,43.5164505 70.8773818,43.8086007 Z M69.648321,43.7823208 L69.4453537,43.7833447 L69.4453537,45.0058703 L69.6012463,45.0058703 C69.9706808,45.008942 70.4717883,45.0075768 70.706821,44.7731058 C70.7972182,44.6826621 70.8412229,44.561843 70.8412229,44.4041638 C70.8412229,44.2212287 70.7941481,44.0860751 70.6972696,43.9905119 C70.4782696,43.7734471 70.0177556,43.7785666 69.648321,43.7823208 Z M77.0735808,41.6196587 L77.1206556,41.7070307 L77.9076229,44.0667577 L76.0635201,44.0667577 L76.8893752,41.6196587 L77.0735808,41.6196587 Z M76.989665,42.1230717 L76.4199921,43.810785 L77.5525154,43.810785 L76.989665,42.1230717 Z M69.446036,40.8625256 C69.8540173,40.8625256 70.6133537,40.8625256 70.6133537,41.6563823 C70.6133537,42.4041839 69.9086935,42.4481722 69.5763777,42.4507598 L69.1895126,42.4509215 L69.1895126,40.8625256 L69.446036,40.8625256 Z M69.446036,41.1184983 L69.4453537,41.1184983 L69.4453537,42.1949488 L69.5186949,42.1949488 C70.1221388,42.1949488 70.3575126,42.0440956 70.3575126,41.6563823 C70.3575126,41.2041638 70.0371995,41.1184983 69.446036,41.1184983 Z M70.9976953,28.4511263 C73.6833449,28.4511263 75.8620879,30.6316724 75.8620879,33.319727 C75.8620879,36.0094881 73.6833449,38.1900341 70.9976953,38.1900341 C68.3093168,38.1900341 66.1305738,36.0094881 66.1305738,33.319727 C66.1305738,30.6316724 68.3093168,28.4511263 70.9976953,28.4511263 Z M97.2192612,28.4512287 C99.3652565,28.4512287 101.186163,29.8416724 101.833953,31.7713652 L99.1854855,31.7812628 C98.7277005,31.1962799 98.01885,30.8215358 97.2192612,30.8215358 C95.840107,30.8215358 94.7208874,31.9399659 94.7208874,33.3198294 C94.7208874,34.6996928 95.840107,35.8188055 97.2192612,35.8188055 C98.0461397,35.8188055 98.7785276,35.4017406 99.2329014,34.7822867 L96.6472005,34.7822867 L96.6472005,32.7771672 L102.058411,32.7966212 C102.07649,32.9686348 102.0857,33.1440614 102.0857,33.3198294 C102.0857,36.0095904 99.9069575,38.1901365 97.2192612,38.1901365 C94.5305416,38.1901365 92.3517986,36.0095904 92.3517986,33.3198294 C92.3517986,30.6314334 94.5305416,28.4512287 97.2192612,28.4512287 Z M121.41651,28.4330717 C123.078113,28.4330717 124.427248,29.786314 124.427248,31.4494539 L122.221215,31.4494539 L122.221215,31.1661775 C122.221215,30.7061092 121.876,30.3340956 121.41651,30.3340956 C120.956678,30.3340956 120.584856,30.7061092 120.584856,31.1661775 C120.584856,31.3842662 120.672183,31.5859727 120.806926,31.7347782 C120.806926,31.7347782 121.024561,31.9866553 121.521575,32.13 C121.903972,32.2398976 122.221215,32.2125939 122.815449,32.4613993 L122.818178,32.4600341 C123.824828,32.8811945 124.544594,33.877099 124.544594,35.0385324 C124.544594,36.7723208 123.150771,38.1774403 121.41651,38.1774403 C119.68293,38.1774403 118.278192,36.7794881 118.278192,35.0450171 L120.459664,35.0450171 C120.43715,35.1224915 120.454206,35.2108874 120.454206,35.2945051 C120.454206,35.824198 120.886748,36.2549147 121.41651,36.2549147 C121.948659,36.2549147 122.378472,35.824198 122.378472,35.2945051 C122.378472,34.8436519 122.071463,34.467884 121.653589,34.364471 C121.286543,34.277099 121.348968,34.2924573 121.029337,34.2245392 C120.714141,34.1559386 120.017229,33.8965529 120.017229,33.8965529 C119.067888,33.4880205 118.400996,32.5405802 118.400996,31.4381911 C118.400996,29.7750512 119.754907,28.4330717 121.41651,28.4330717 Z M79.2506523,28.5743686 L79.2506523,34.7057679 C79.2506523,35.3078157 79.7503953,35.795529 80.3517925,35.795529 C80.9514841,35.795529 81.4239374,35.3078157 81.4239374,34.7057679 L81.4239374,28.5743686 L83.8097411,28.5743686 L83.8097411,34.7057679 C83.8097411,36.6170307 82.2607084,38.1661775 80.3517925,38.1661775 C78.4404888,38.1661775 76.894185,36.6170307 76.894185,34.7057679 L76.894185,28.5743686 L79.2506523,28.5743686 Z M105.621629,28.5743686 L105.621629,34.7057679 C105.621629,35.3078157 106.123078,35.795529 106.72277,35.795529 C107.32519,35.795529 107.794914,35.3078157 107.794914,34.7057679 L107.794914,28.5743686 L110.180718,28.5743686 L110.180718,34.7057679 C110.180718,36.6170307 108.634414,38.1661775 106.72277,38.1661775 C104.814877,38.1661775 103.265162,36.6170307 103.265162,34.7057679 L103.265162,28.5743686 L105.621629,28.5743686 Z M62.654307,28.5744369 C63.9635313,28.5764846 65.0254425,29.6375768 65.0254425,30.9467918 C65.0254425,31.764198 64.6031341,32.4785324 63.9761528,32.9037884 C64.8327089,33.3713652 65.4078397,34.2744369 65.4078397,35.3211945 C65.4078397,36.8423549 64.17605,38.0754608 62.654307,38.0754608 L62.654307,38.0754608 L62.654307,38.066587 L59.141779,38.066587 L59.141779,28.5744369 L62.654307,28.5744369 Z M87.1776336,28.5750512 L88.6533252,31.7682253 L90.1143486,28.5750512 L92.5844093,28.5750512 L89.8373579,34.6023549 L89.8373579,38.0753925 L87.4689514,38.0753925 L87.4689514,34.6023549 L84.7072318,28.5750512 L87.1776336,28.5750512 Z M117.041797,28.5744027 L117.041797,30.752901 L114.250741,30.752901 L114.250741,32.2313993 L117.041797,32.2313993 L117.041797,34.4098976 L114.248694,34.4098976 L114.248694,35.8744027 L117.036339,35.8744027 L117.036339,38.0679181 L111.912353,38.0679181 L111.912353,28.5750853 L117.041797,28.5744027 Z M62.3943724,34.0737543 L61.5023397,34.0737543 L61.5023397,35.8822867 L62.3943724,35.8744369 C62.8913864,35.8744369 63.2911808,35.4655631 63.2911808,34.9696587 C63.2911808,34.4744369 62.8913864,34.0737543 62.3943724,34.0737543 L62.3943724,34.0737543 Z M70.9976953,30.8214334 C69.6164944,30.8214334 68.4993215,31.9402048 68.4993215,33.319727 C68.4993215,34.6995904 69.6164944,35.8190444 70.9976953,35.8190444 C72.3748028,35.8190444 73.4940224,34.6995904 73.4940224,33.319727 C73.4940224,31.9402048 72.3748028,30.8214334 70.9976953,30.8214334 Z M62.3943724,30.7348464 L61.5023397,30.7426962 L61.5023397,32.1440614 L62.3943724,32.1413311 C62.7842743,32.1413311 63.0991294,31.8222184 63.0991294,31.4327986 C63.0991294,31.0440614 62.7842743,30.7348464 62.3943724,30.7348464 L62.3943724,30.7348464 Z" id="BouyguesBat_Black"></path>
        </g>
    </g>
</svg>