<svg xmlns="http://www.w3.org/2000/svg" width="131" height="56" viewBox="0 0 131 56">
    <path fill-rule="evenodd" d="M118.948 38.617c-3.01-.145-5.17 2.354-5.204 5.134-.037 2.88 2.227 5.3 5.083 5.286 2.903-.014 5.172-2.176 5.211-5.175.038-2.882-2.184-5.34-5.09-5.245zm-81.442-4.78c2.121 1.497 3.693 3.449 4.459 5.935.37 1.201.632 2.483.661 3.734.086 3.7.014 7.402.045 11.102.006.691-.219.929-.895.904-.992-.036-1.986.015-2.978-.014-.93-.028-1.44-.638-1.413-1.575.01-.353-.036-.706-.064-1.187-1.041.707-1.89 1.392-2.833 1.904-3.396 1.844-6.76 1.588-10.003-.388-2.471-1.506-4.027-3.69-4.866-6.483-.907-3.023-.86-5.976.384-8.831.838-1.925 2.163-3.523 3.886-4.849 2.02-1.555 4.258-2.253 6.73-2.345 2.524-.094 4.829.638 6.887 2.092zm-20.752-2.052c.216.091.442.447.45.687.046 1.405.039 2.813.027 4.22-.007.86-.637 1.432-1.6 1.446-1.253.017-2.507-.005-3.761.003-1.706.011-2.897.978-3.765 2.278-2.21 3.312-.19 7.263 2.97 8.053 1.312.328 2.8.159 4.177-.025 1.868-.249 1.97-.346 1.976 1.315v1.517c.02 0 .039.002.058.003-.06 1.06-.153 2.121-.168 3.183-.007.477-.245.612-.624.737-3.278 1.076-6.465.85-9.559-.657-2.57-1.251-4.499-3.216-5.697-5.754-1.348-2.854-1.635-5.882-.664-8.955 1.471-4.652 4.697-7.477 9.36-8.615 2.277-.556 4.615-.367 6.82.564zm75.974-10.097c.15.006.396.353.413.557.058.674.035 1.354.035 2.031.002 6.492.017 12.983-.003 19.475-.007 2.494-.707 4.748-2.154 6.851-2.336 3.393-5.501 5.18-9.571 5.251-3.772.066-6.928-1.467-9.25-4.403-2.926-3.7-3.39-7.893-1.885-12.293.324-.947.974-1.802 1.564-2.635.602-.852 1.198-1.775 2.003-2.406 3.03-2.373 6.423-3.039 10.106-1.722.592.212 1.122.597 1.864 1.003v-2.204c-.004-2.216.062-4.435-.04-6.647-.068-1.47 1.344-2.883 2.769-2.905 1.383-.02 2.767-.005 4.149.047zM125.59 33.81c2.693 1.87 4.242 4.489 5.034 7.603.12.471.154.964.228 1.447v12.358c-.226.094-.45.264-.677.27-1.098.03-2.196.028-3.294.013-.865-.011-1.354-.576-1.347-1.454.003-.425-.062-.851-.109-1.424-.344.223-.569.313-.716.474-1.51 1.648-3.482 2.479-5.612 2.688-4.174.409-7.479-1.342-9.839-4.71-1.847-2.635-2.368-5.677-2.002-8.85.365-3.158 1.856-5.769 4.274-7.777 3.908-3.247 9.568-3.756 14.06-.638zm-68.485-2.047c2.239.153 4.217.925 5.995 2.34 2.755 2.192 3.94 5.07 3.974 8.483.042 4.09.022 8.18.042 12.269.002.515-.204.67-.707.658-1.306-.03-2.617-.075-3.918.004-1.32.08-2.81-1.381-2.797-2.868.032-3.595-.003-7.19-.026-10.786-.016-2.521-2.541-4.068-4.733-2.853-1.026.569-1.596 1.51-1.6 2.746-.009 4.299-.05 8.598-.041 12.897.001.706-.251.885-.916.871-1.802-.039-3.606-.015-5.409-.02-.957 0-1.064-.11-1.064-1.083v-6.566h.072c0-2.005-.002-4.01 0-6.016.004-2.72 1.148-5.023 2.964-6.905 2.184-2.263 4.949-3.391 8.164-3.171zm40.216.16c1.983.041 3.969.013 5.953.016 1.322 0 1.344.044 1.34 1.362-.011 3.515-.004 7.03-.004 10.544h.03c0 3.671-.004 7.342.007 11.013.001.463-.151.651-.634.646-1.67-.017-3.343.03-5.013-.016-1.085-.03-2.522-1.387-2.517-2.562.029-6.717.024-13.434.007-20.152-.001-.632.16-.864.83-.85zm-66.5 6.7c-2.905-.19-5.126 2.288-5.222 5.133-.085 2.497 2.138 5.453 5.44 5.28 2.565-.133 4.84-2.436 4.867-5.148.034-3.28-2.755-5.465-5.084-5.264zm45.303 4.983c-.05 2.93 1.968 5.379 5.198 5.414 2.773.031 5.036-2.217 5.16-4.956.145-3.188-2.35-5.607-5.075-5.443-3.067-.17-5.24 2.346-5.283 4.985zm29.147-18.294c.046 2.408-2.07 4.605-4.381 4.716-2.895.14-5.062-2.195-5.075-4.678-.015-2.734 2.157-4.73 4.559-4.81 2.63-.087 5.01 2.094 4.897 4.772zM66.686.156c-.58 1.176-1.073 2.404-1.76 3.515-1.384 2.24-2.967 4.36-4.29 6.632-1.135 1.948-1.51 4.157-1.067 6.382.707 3.542 2.9 5.694 6.472 6.417 4.338.878 8.77-2.317 9.348-6.713.42-3.193-.8-5.894-2.498-8.45-1.257-1.895-2.598-3.734-3.822-5.649-.401-.629-.55-1.418-.814-2.134h1.255c.965.28 1.96.483 2.89.851 4.665 1.847 7.765 5.21 8.953 10.043 1.092 4.443.107 8.547-2.783 12.206-2.43 3.078-5.618 4.799-9.403 5.307-3.339.447-6.538-.283-9.406-2.14-3.617-2.339-5.873-5.669-6.486-9.883-.624-4.29.463-8.19 3.433-11.536 2.315-2.606 5.14-4.135 8.54-4.71.066-.012.122-.09.183-.138h1.255z"/>
</svg>
