<svg xmlns="http://www.w3.org/2000/svg" width="184" height="100" viewBox="0 0 184 100">
    <path fill-rule="evenodd" d="M75.031 50.673c2.91 0 4.074 2.173 4.074 5.18 0 2.928-1.358 5.178-4.074 5.178-1.552 0-2.483-.64-3.084-1.92h-.04v5.761h-1.221V50.906h1.222l-.078 1.804h.039c.31-.543 1.067-2.037 3.162-2.037zm-20.463-3.647c.795 0 2.406.136 3.104.505l-.077 1.241c-.854-.446-2.076-.582-3.027-.582-3.511 0-5.49 2.483-5.49 5.84 0 3.413 1.92 5.838 5.49 5.838.892 0 2.25-.117 3.027-.582l.077 1.164c-.737.446-2.25.581-3.104.581-4.268 0-6.829-2.812-6.829-7.002 0-4.113 2.639-7.003 6.83-7.003zm119.214 1.067v2.813h2.25v1.048h-2.25v6.4c0 .893.33 1.63 1.32 1.63.465 0 .775-.097 1.125-.233l.077 1.009c-.29.116-.892.271-1.493.271-2.105 0-2.244-1.401-2.25-3.129v-5.948h-1.941v-1.048h1.94V48.52l1.222-.427zm-109.36 2.58c2.444 0 3.472 1.106 3.472 3.686v4.364c0 .796 0 1.397.097 2.076h-1.203v-1.59h-.039c-.543 1.182-1.92 1.822-3.143 1.822-2.813 0-3.26-1.9-3.26-2.793 0-3.243 3.377-3.463 5.92-3.471h.405v-.505c0-1.688-.601-2.541-2.25-2.541-1.028 0-1.998.233-2.91.814v-1.183c.757-.368 2.037-.679 2.91-.679zm93.184 0c1.184 0 2.037.272 2.386.388l-.097 1.164c-.66-.291-1.455-.504-2.114-.504-2.387 0-3.725 1.726-3.725 4.132 0 2.25 1.358 4.13 3.589 4.13.776 0 1.494-.173 2.23-.445l.117 1.144c-.834.292-1.61.35-2.541.35-3.182 0-4.734-2.425-4.734-5.18 0-3.045 1.96-5.179 4.889-5.179zm-73.536 0c.523 0 1.571.116 2.444.447l-.116 1.066c-.64-.29-1.513-.465-2.192-.465-1.261 0-2.135.388-2.135 1.649 0 1.843 4.87 1.61 4.87 4.849 0 2.095-1.96 2.812-3.453 2.812-.95 0-1.901-.116-2.774-.465l.116-1.202c.737.368 1.63.62 2.58.62 1.164 0 2.192-.64 2.192-1.765 0-2.347-4.753-1.979-4.753-4.85 0-1.959 1.591-2.696 3.22-2.696zm14.838 0c2.445 0 3.473 1.106 3.473 3.686v4.364c0 .796 0 1.397.097 2.076h-1.203v-1.59h-.039c-.543 1.182-1.92 1.822-3.143 1.822-2.813 0-3.259-1.9-3.259-2.793 0-3.243 3.376-3.463 5.92-3.471h.405v-.505c0-1.688-.602-2.541-2.25-2.541-1.029 0-1.999.233-2.91.814v-1.183c.756-.368 2.036-.679 2.91-.679zm47.622 0c3.201 0 4.618 2.483 4.618 5.18 0 2.696-1.417 5.178-4.618 5.178-3.2 0-4.616-2.482-4.616-5.178 0-2.697 1.415-5.18 4.616-5.18zm-55.38-2.58v2.813h2.25v1.048h-2.25v6.4c0 .893.33 1.63 1.319 1.63.465 0 .776-.097 1.125-.233l.077 1.009c-.29.116-.892.271-1.493.271-2.105 0-2.244-1.401-2.25-3.129v-5.948h-1.94v-1.048h1.94V48.52l1.222-.427zm74.234 2.58c2.444 0 3.473 1.106 3.473 3.686v4.364c0 .796 0 1.397.097 2.076h-1.203v-1.59h-.039c-.543 1.182-1.92 1.822-3.143 1.822-2.813 0-3.259-1.9-3.259-2.793 0-3.243 3.375-3.463 5.92-3.471h.405v-.505c0-1.688-.602-2.541-2.25-2.541-1.03 0-2 .233-2.91.814v-1.183c.756-.368 2.036-.679 2.91-.679zm15.323 0c.524 0 1.57.116 2.444.447l-.116 1.066c-.64-.29-1.514-.465-2.193-.465-1.26 0-2.133.388-2.133 1.649 0 1.843 4.869 1.61 4.869 4.849 0 2.095-1.96 2.812-3.453 2.812-.95 0-1.901-.116-2.774-.465l.116-1.202c.737.368 1.63.62 2.58.62 1.164 0 2.192-.64 2.192-1.765 0-2.347-4.753-1.979-4.753-4.85 0-1.959 1.59-2.696 3.22-2.696zM0 51.08c1.286 4.6 4.853 8.242 9.407 9.636l.327.096H0V51.08zm41.588 0v9.732h-9.757c4.722-1.315 8.437-5.024 9.757-9.732zm-25.707 0c1.286 4.6 4.852 8.242 9.406 9.636l.327.096h-9.733V51.08zm93.754-.407c2.444 0 3.376 1.63 3.376 3.802V60.8h-1.223v-6.014c0-1.861-.66-3.064-2.347-3.064-2.23 0-2.93 1.959-2.93 3.608v5.47h-1.222v-7.565c0-.757 0-1.533-.077-2.328h1.183v1.765h.039c.407-.892 1.145-1.998 3.2-1.998zm17.612-3.414l5.374 13.54h-1.397l-1.455-3.627h-6.829l-1.455 3.627h-1.3l5.549-13.54h1.513zm6.791 3.647l2.736 8.554h.039l2.87-8.554h1.281l-3.472 9.893h-1.436l-3.356-9.893h1.338zm-67.367 4.907h-.349c-2.115 0-4.636.214-4.636 2.386 0 1.3.93 1.785 2.056 1.785 2.791 0 2.924-2.365 2.93-3.477v-.694zm34.488 0h-.35c-2.114 0-4.636.214-4.636 2.386 0 1.3.93 1.785 2.056 1.785 2.792 0 2.924-2.365 2.93-3.477v-.694zm66.476 0h-.35c-2.115 0-4.637.214-4.637 2.386 0 1.3.932 1.785 2.057 1.785 2.791 0 2.924-2.365 2.93-3.477v-.694zm-92.798-4.092c-2.173 0-2.93 2.328-2.93 4.132 0 1.803.757 4.13 2.93 4.13 2.328 0 2.93-2.21 2.93-4.13 0-1.921-.602-4.132-2.93-4.132zm71.693 0c-2.133 0-3.278 1.843-3.278 4.132 0 2.288 1.145 4.131 3.278 4.131 2.134 0 3.279-1.843 3.279-4.131 0-2.29-1.145-4.132-3.279-4.132zm-20.136-3.182l-2.95 7.469h5.88l-2.93-7.469zM25.614 36.482v9.732c-1.284-4.6-4.853-8.242-9.406-9.636l-.327-.096h9.733zm-15.88 0v9.732c-1.285-4.6-4.853-8.242-9.407-9.636L0 36.482h9.734zm160.659 1.55l1.208 3.598h.011l1.245-3.598h.559l-1.727 4.962c-.204.593-.508 1.186-1.11 1.186-.194 0-.398-.026-.576-.068l.051-.458c.102.035.203.068.398.068.458 0 .61-.38.78-.94l.11-.38-1.534-4.37h.585zm-95.347-.101c1.398 0 2.016 1.084 2.016 2.26 0 1.177-.618 2.261-2.016 2.261-1.397 0-2.015-1.084-2.015-2.26 0-1.177.618-2.261 2.015-2.261zm31.766 0c.516 0 .889.118 1.041.169l-.042.508c-.288-.127-.635-.22-.923-.22-1.042 0-1.626.753-1.626 1.804 0 .982.593 1.803 1.567 1.803.338 0 .652-.076.973-.195l.051.5c-.364.127-.702.152-1.109.152-1.39 0-2.067-1.058-2.067-2.26 0-1.33.856-2.261 2.135-2.261zm53.98 0c1.067 0 1.517.482 1.517 1.608v1.906c0 .347 0 .61.042.906h-.526v-.695h-.016c-.237.517-.839.796-1.372.796-1.228 0-1.423-.83-1.423-1.219 0-1.394 1.43-1.509 2.533-1.515h.228v-.22c0-.738-.263-1.11-.983-1.11-.448 0-.872.102-1.27.356v-.517c.33-.16.89-.296 1.27-.296zm-25.763 0c1.067 0 1.517.482 1.517 1.608v1.906c0 .347 0 .61.042.906h-.525v-.695h-.017c-.237.517-.839.796-1.372.796-1.228 0-1.423-.83-1.423-1.219 0-1.394 1.43-1.509 2.533-1.515h.228v-.22c0-.738-.263-1.11-.983-1.11-.448 0-.872.102-1.27.356v-.517c.33-.16.89-.296 1.27-.296zM129.24 36v2.76h.016c.076-.212.5-.83 1.347-.83 1.27 0 1.778.948 1.778 2.26 0 1.279-.593 2.261-1.778 2.261-.619 0-1.059-.237-1.347-.787h-.017v.686h-.533V36h.533zM50.13 38.031v2.625c0 .813.288 1.338 1.025 1.338.973 0 1.278-.855 1.278-1.575v-2.388h.534v3.303c0 .33 0 .668.034 1.016h-.517v-.77h-.017c-.178.389-.5.871-1.397.871-1.067 0-1.474-.711-1.474-1.66v-2.76h.534zm68.425-1.693c.449 0 1.185.076 1.583.28l-.068.541c-.456-.254-.998-.313-1.515-.313-1.533 0-2.397 1.084-2.397 2.549 0 1.49.838 2.548 2.397 2.548.364 0 .973-.042 1.253-.212v-2.074h-1.372v-.508h1.956v2.938c-.6.263-1.185.364-1.837.364-1.864 0-2.981-1.228-2.981-3.056 0-1.796 1.151-3.057 2.98-3.057zM65.632 37.93c1.067 0 1.516.482 1.516 1.608v1.906c0 .347 0 .61.042.906h-.525v-.695h-.017c-.237.517-.838.796-1.372.796-1.228 0-1.422-.83-1.422-1.219 0-1.394 1.429-1.509 2.533-1.515h.227v-.22c0-.738-.262-1.11-.982-1.11-.449 0-.872.102-1.27.356v-.517c.33-.16.889-.296 1.27-.296zm110.146 0c1.22 0 1.719.982 1.719 2.142v.271h-2.956c0 .914.492 1.651 1.423 1.651.39 0 .957-.16 1.211-.322v.542c-.373.152-.855.237-1.253.237-1.431 0-1.965-.965-1.965-2.26 0-1.321.728-2.261 1.82-2.261zm-50.163 0c1.397 0 2.015 1.084 2.015 2.26 0 1.177-.618 2.261-2.015 2.261-1.397 0-2.015-1.084-2.015-2.26 0-1.177.618-2.261 2.015-2.261zm-41.408 0c.228 0 .686.05 1.067.194l-.051.466c-.28-.127-.66-.203-.957-.203-.55 0-.932.17-.932.72 0 .804 2.126.702 2.126 2.117 0 .914-.855 1.227-1.507 1.227-.415 0-.83-.05-1.211-.203l.05-.525c.322.161.712.271 1.127.271.508 0 .957-.28.957-.77 0-1.025-2.075-.864-2.075-2.117 0-.855.694-1.177 1.406-1.177zM69.018 36v2.76h.017c.076-.212.5-.83 1.347-.83 1.27 0 1.778.948 1.778 2.26 0 1.279-.593 2.261-1.778 2.261-.618 0-1.059-.237-1.347-.787h-.017v.686h-.533V36h.533zm28.252 1.93c1.068 0 1.516.482 1.516 1.608v1.906c0 .347 0 .61.043.906h-.526v-.695h-.016c-.238.517-.84.796-1.372.796-1.228 0-1.423-.83-1.423-1.219 0-1.394 1.429-1.509 2.533-1.515h.227v-.22c0-.738-.262-1.11-.982-1.11-.449 0-.872.102-1.27.356v-.517c.33-.16.89-.296 1.27-.296zm-41.764 0c.229 0 .686.05 1.067.194l-.05.466c-.28-.127-.66-.203-.957-.203-.55 0-.932.17-.932.72 0 .804 2.126.702 2.126 2.117 0 .914-.856 1.227-1.508 1.227-.415 0-.83-.05-1.21-.203l.05-.525c.322.161.711.271 1.126.271.509 0 .957-.28.957-.77 0-1.025-2.074-.864-2.074-2.117 0-.855.694-1.177 1.405-1.177zm127.146 0c.229 0 .686.05 1.067.194l-.05.466c-.28-.127-.661-.203-.958-.203-.55 0-.93.17-.93.72 0 .804 2.124.702 2.124 2.117 0 .914-.855 1.227-1.507 1.227-.415 0-.83-.05-1.21-.203l.05-.525c.322.161.712.271 1.127.271.507 0 .956-.28.956-.77 0-1.025-2.075-.864-2.075-2.117 0-.855.695-1.177 1.406-1.177zm-72.276 0c1.22 0 1.719.982 1.719 2.142v.271h-2.956c0 .914.491 1.651 1.423 1.651.39 0 .957-.16 1.211-.322v.542c-.373.152-.855.237-1.253.237-1.432 0-1.965-.965-1.965-2.26 0-1.321.728-2.261 1.82-2.261zm-15.866 0c.127 0 .28.025.373.05v.56c-.11-.035-.254-.051-.39-.051-.847 0-1.075.948-1.075 1.727v2.134h-.534v-3.354c0-.474 0-.652-.034-.965h.534v.83h.017c.195-.483.559-.931 1.11-.931zm48.554-1.49v2.616h2.989V36.44h.584v5.91h-.584v-2.785h-2.99v2.786h-.584v-5.91h.585zm-94.898 0v5.91h-.584v-5.91h.584zm90.3-.441v6.35h-.533V36h.534zm-16 0v6.35h-.534V36h.533zm-30.664.44v.508h-2.228v2.109H91.7v.508h-2.126v2.786h-.584v-5.91h2.812zm10.268 1.49c1.068 0 1.474.712 1.474 1.66v2.76h-.534v-2.624c0-.813-.287-1.338-1.024-1.338-.974 0-1.28.855-1.28 1.575v2.388h-.533v-3.303c0-.33 0-.669-.033-1.016h.516v.77h.017c.178-.389.5-.871 1.397-.871zm61.6.102l1.135 3.734h.017l1.203-3.734h.643l1.143 3.734h.017l1.194-3.734h.534l-1.423 4.319h-.644l-1.177-3.735h-.016l-1.177 3.735h-.644l-1.389-4.319h.584zm-13.9-1.592c1.05 0 1.735.45 1.735 1.533 0 .762-.584 1.27-1.312 1.363v.017c.474.06.576.314.762.711l1.008 2.287h-.644l-.855-1.999c-.339-.762-.593-.787-1.152-.787h-.482v2.786h-.585v-5.91h1.525zm6.29 0v5.402h2.371v.509h-2.956v-5.91h.585zm-76.247 1.49c.127 0 .28.026.373.052v.558c-.11-.034-.254-.05-.39-.05-.847 0-1.075.948-1.075 1.727v2.134h-.534v-3.354c0-.474 0-.652-.034-.965h.534v.83h.017c.195-.483.559-.931 1.109-.931zm100.443 0c.127 0 .28.026.373.052v.558c-.11-.034-.254-.05-.39-.05-.847 0-1.075.948-1.075 1.727v2.134h-.534v-3.354c0-.474 0-.652-.034-.965h.534v.83h.017c.194-.483.559-.931 1.11-.931zM60.9 36.44v5.402h2.371v.509h-2.955v-5.91h.584zm20.791 1.556v4.318h-.533v-4.318h.533zm-11.393.392c-.974 0-1.279 1.016-1.279 1.803 0 .788.33 1.804 1.279 1.804 1.016 0 1.279-.965 1.279-1.804 0-.838-.263-1.803-1.28-1.803zm91.478 1.786h-.153c-.923 0-2.023.094-2.023 1.042 0 .567.406.779.897.779 1.199 0 1.274-1 1.278-1.494v-.327zm-86.729-1.786c-.931 0-1.43.804-1.43 1.803 0 1 .499 1.804 1.43 1.804.932 0 1.432-.805 1.432-1.804s-.5-1.803-1.432-1.803zm55.47 0c-.973 0-1.278 1.016-1.278 1.803 0 .788.33 1.804 1.279 1.804 1.016 0 1.279-.965 1.279-1.804 0-.838-.263-1.803-1.28-1.803zm-63.902 1.786h-.152c-.923 0-2.024.094-2.024 1.042 0 .567.406.779.898.779 1.199 0 1.274-1 1.278-1.494v-.327zm31.638 0H98.1c-.923 0-2.024.094-2.024 1.042 0 .567.407.779.898.779 1.199 0 1.274-1 1.278-1.494v-.327zm37.76 0h-.152c-.924 0-2.024.094-2.024 1.042 0 .567.406.779.897.779 1.2 0 1.274-1 1.278-1.494v-.327zm-10.397-1.786c-.931 0-1.431.804-1.431 1.803 0 1 .5 1.804 1.43 1.804.932 0 1.432-.805 1.432-1.804s-.5-1.803-1.431-1.803zM171.6 41.63h-.005l.008.01-.003-.01zm4.21-3.242c-.787 0-1.27.787-1.27 1.499h2.372c0-.754-.305-1.499-1.102-1.499zm-65.402 0c-.787 0-1.27.787-1.27 1.499h2.372c0-.754-.305-1.499-1.102-1.499zm39.022-1.44h-.601v2.109h.618c.686 0 1.473-.263 1.473-1.084 0-.965-.686-1.025-1.49-1.025zm-67.74-.815v.711h-.534v-.71h.533z"/>
</svg>
