<svg xmlns="http://www.w3.org/2000/svg" width="184" height="100" viewBox="0 0 184 100">
    <path fill-rule="evenodd" d="M143.739 76.963c1.08.148 1.98.68 2.503 1.7.311.608.458 1.249.454 1.934-.013 2.236-.012 4.473-.014 6.709 0 .258.022.516.04.879-.993-1.758-2.507-2.256-4.282-2.26-1.168-.002-2.24.419-3.32.767-2.066.665-4.118 1.37-6.168 2.077-1.401.484-2.786 1.016-4.187 1.499-2.05.705-4.103 1.4-6.165 2.068-.852.277-1.693.615-2.614.637-1.004.025-1.87-.997-2.008-1.819-.205-1.21-.265-2.453-.791-3.606-.494-1.08-1.32-1.655-2.531-1.633-1.397.026-2.73.393-4.04.807-1.952.615-3.876 1.318-5.81 1.99-1.824.635-3.638 1.299-5.469 1.913-1.505.505-3.013 1.015-4.55 1.407-.91.233-1.88.27-2.794-.14-.782-.353-1.21-1.003-1.22-1.8-.037-2.567.003-5.134.01-7.7.001-.235-.019-.47-.028-.662.438.4.819.84 1.287 1.154.9.602 1.904.487 2.868.172 2.601-.85 5.194-1.725 7.784-2.61 1.654-.567 3.292-1.18 4.943-1.754 1.245-.432 2.485-.89 3.755-1.239 1.218-.334 2.46-.607 3.748-.508 1.33.102 2.38 1.076 2.636 2.419.192 1.008.406 2.013.651 3.009.148.602.397 1.195 1.055 1.41.34.112.756.189 1.086.098 1.255-.346 2.493-.755 3.73-1.163 1.32-.436 2.63-.898 3.947-1.346 1.823-.621 3.644-1.248 5.471-1.86 2.082-.695 4.174-1.364 6.254-2.07 1.228-.416 2.487-.654 3.769-.479zm-28.203-18.566c1.604.117 2.987 1.038 3.288 2.55.06.305.052.626.054.94.013 2.76.014 5.521.037 8.282.004.506.08 1.013.143 1.518.037.296-.094.413-.369.436-.256.02-.51.053-.766.077-.493.044-.573-.036-.553-.538.005-.145 0-.29 0-.517-.166.07-.29.098-.388.166-1.866 1.29-3.85 1.533-5.904.546-1.228-.59-1.853-1.67-1.982-3.005-.08-.82-.07-1.638.269-2.424.52-1.203 1.454-1.969 2.667-2.347.967-.302 1.983-.451 2.981-.649.664-.131 1.333-.23 2-.342.263-.044.394-.153.346-.455-.086-.53-.027-1.108-.226-1.586-.163-.39-.558-.815-.949-.956-.676-.242-1.429-.372-2.15-.375-1.139-.005-2.21.358-3.209.915-.057.032-.213-.106-.317-.175-.01-.007.033-.08.036-.124.024-.338-.087-.823.094-.983.34-.3.84-.431 1.287-.593 1.17-.425 2.396-.45 3.611-.361zm25.167.728c.88.586 1.568 1.348 1.983 2.358.432 1.05.486 2.147.596 3.246.04.387-.126.427-.432.426-1.574-.007-3.147-.003-4.72-.003v-.012c-1.558 0-3.116.01-4.674-.008-.311-.003-.395.108-.4.387-.032 2.228 1.196 4.45 3.41 5.2 1.89.64 3.67.273 5.325-.784.25-.16.474-.363.715-.538.063-.046.149-.062.224-.092.034.09.105.18.098.266-.036.433-.077.866-.148 1.293-.022.13-.117.29-.227.358-1.588.982-3.32 1.318-5.173 1.135-1.045-.102-2.035-.33-2.928-.911-1.59-1.035-2.431-2.495-2.774-4.342-.24-1.3-.212-2.574.053-3.83.31-1.471 1.006-2.776 2.239-3.728 1.042-.805 2.236-1.14 3.553-1.172 1.17-.03 2.297.095 3.28.751zm-19.282-.512c.15.002.386.199.432.352.577 1.884 1.114 3.78 1.687 5.666.34 1.119.734 2.222 1.09 3.337.292.918.565 1.843.848 2.765.016.053.046.102.108.236.118-.156.235-.25.273-.37.32-1.016.62-2.037.94-3.053.685-2.18 1.385-4.357 2.067-6.538.186-.593.33-1.198.494-1.798.103-.376.302-.576.743-.527.42.046.85.01 1.34.01-.669 1.794-1.31 3.45-1.902 5.124-.55 1.553-1.053 3.123-1.564 4.69-.354 1.084-.673 2.18-1.045 3.26-.055.158-.313.33-.493.35-.554.06-1.116.046-1.674.072-.33.015-.506-.166-.597-.446-.646-1.974-1.265-3.957-1.935-5.923-.722-2.12-1.492-4.225-2.239-6.338-.044-.125-.059-.262-.108-.385-.096-.238.006-.335.233-.36.434-.048.869-.13 1.302-.124zm-17.791-4.6c-.063.326-.033.775-.235.941-.191.158-.631.012-.961.011-1.48-.002-2.96 0-4.486 0 0 .485-.002.957 0 1.429.017 3.268.02 6.537.058 9.805.021 1.799.094 3.597.163 5.394.015.385-.11.555-.499.553-.316-.003-.633.026-.95.03-.307.002-.547-.06-.45-.465.038-.157.017-.329.017-.494 0-5.177.004-10.355-.003-15.533-.001-.905.084-.73-.746-.732-1.557-.002-3.114.006-4.671.035-.37.007-.5-.084-.421-.458.067-.319.085-.648.125-.981.926 0 1.785-.007 2.644.002.74.007 1.479.051 2.218.045 2.583-.021 5.166-.058 7.75-.088.492-.006.536.042.447.506zm4.49 4.502c.371.133.737.223.515.757-.06.142.012.331-.02.49-.045.22-.131.433-.209.676-1.108-.786-2.517-.272-3.145.65-.532.78-.687 1.656-.691 2.551-.01 2.353.03 4.705.052 7.058.003.36-.003.72.02 1.078.017.28-.102.371-.37.368-.36-.005-.722.027-1.083.02-.286-.005-.434-.086-.422-.46.057-1.732.074-3.466.08-5.2.006-1.42-.01-2.842-.043-4.262-.025-1.003-.085-2.006-.153-3.007-.023-.333.087-.465.419-.48.299-.013.615-.025.89-.127.402-.15.499.027.49.357-.015.49-.053.98-.077 1.471-.003.052.024.105.07.29.158-.281.274-.457.36-.645.456-.994 1.95-2.072 3.317-1.585zm38.371-6.12c.075-.007.241.167.241.258-.004 4.153-.025 8.305-.036 12.458-.004 1.365.006 2.73.03 4.094.003.146.14.29.216.436v2.342c-.519.062-1.036.147-1.556.178-.287.017-.345-.196-.344-.463.008-2.895.004-5.79.002-8.685 0-2.19.023-4.38-.013-6.57-.018-1.106-.134-2.211-.226-3.315-.027-.324.024-.506.399-.54.431-.039.856-.15 1.287-.192zM117.09 64.335c-1.305.265-2.631.456-3.908.82-1.634.464-2.72 1.682-2.477 3.46.148 1.081 1.211 2.206 2.3 2.391 1.597.272 2.968-.181 4.155-1.234.12-.107.192-.33.194-.5.015-1.303.006-2.607.005-3.911v-1.014c-.15-.008-.212-.024-.269-.012zm20.481-4.726c-1.321.023-2.4.487-3.271 1.447-.697.768-.939 1.734-1.175 2.777h8.477c-.133-.91-.222-1.785-.745-2.533-.794-1.135-1.855-1.715-3.286-1.69zm-56.342-23.45c1.162-.004 2.325.02 3.487-.001.331-.006.44.087.406.403-.045.43-.049.867-.118 1.293-.019.114-.21.287-.32.286-.661-.004-1.321-.05-2.016-.085.029.067.04.14.081.181 1.149 1.152 1.349 2.555.93 4.025-.526 1.844-1.841 2.88-3.728 3.257-.797.16-1.578.224-2.377.06-.067-.015-.183.033-.224.09-.262.355-.51.721-.806 1.147 1.349.337 2.578.64 3.805.953 1.222.312 2.45.613 3.385 1.545 1.002.997 1.317 2.83.773 4.131-.706 1.69-2.037 2.632-3.75 3.016-1.842.413-3.713.396-5.513-.263-1.277-.467-2.304-1.287-2.671-2.64-.275-1.013-.182-2.051.4-2.979.462-.738 1.024-1.39 1.906-1.853-.396-.199-.72-.384-1.062-.526-.308-.128-.398-.287-.2-.575.558-.81 1.11-1.625 1.714-2.51-.281-.174-.569-.337-.841-.523-.94-.64-1.424-1.543-1.63-2.647-.175-.943-.108-1.854.232-2.728.584-1.5 1.666-2.443 3.27-2.844 1.617-.405 3.242-.206 4.867-.212zm-4.606 13.338c-.537.568-1.087 1.131-1.35 1.906-.374 1.104.017 2.327 1.01 2.934.73.448 1.521.713 2.41.618.765.087 1.477-.12 2.151-.483.905-.487 1.4-1.838 1.054-2.647-.365-.853-1.03-1.265-1.82-1.535-.928-.319-1.882-.565-2.832-.818-.198-.053-.52-.084-.623.025zM65.94 35.829c1.165.007 2.345.156 3.31.945.523.427.877.947 1.07 1.603.434 1.475.2 2.979.247 4.47.071 2.262.109 4.526.175 6.789.01.328-.159.37-.413.378l-1.02.024c-.34.01-.68.025-1.017.061-.463.05-.562-.129-.514-.521.02-.17.018-.342.032-.637-.726.73-1.536 1.09-2.416 1.27-1.69.346-3.302.155-4.611-1.039-.473-.43-.827-1.072-1.04-1.684-.316-.907-.312-1.862-.09-2.828.245-1.068.884-1.805 1.757-2.382 1.093-.722 2.342-1.041 3.613-1.276.898-.165 1.802-.297 2.788-.457-.034-.439-.011-.895-.116-1.32-.206-.833-.964-1.27-2.175-1.334-1.419-.077-2.751.359-4.047.902-.11.046-.299.101-.348.051-.086-.087-.128-.253-.124-.384.013-.449.025-.902.1-1.343.03-.178.186-.422.342-.478 1.45-.527 2.961-.82 4.497-.81zm27.81.085c1.146.109 2.157.482 3.07 1.135 1.037.742 1.668 1.781 1.985 2.988.2.763.357 1.548.417 2.332.14 1.818-.094 3.604-1.068 5.177-.9 1.454-2.221 2.406-3.979 2.665-2.008.296-3.936.142-5.663-1.033-1.5-1.02-2.188-2.528-2.46-4.251-.1-.634-.117-1.282-.152-1.676.045-1.572.19-2.87.802-4.071.762-1.497 1.953-2.485 3.571-2.975 1.14-.346 2.287-.405 3.477-.291zm37.17-3.892c.016.109.055.246.052.381-.024 1.125-.034 2.25-.097 3.374-.021.37.108.443.426.44.872-.009 1.744-.003 2.65-.003 0 .579.015 1.205-.019 1.829-.004.088-.246.232-.38.235-.74.013-1.483.014-2.222-.03-.436-.026-.539.139-.537.538.01 1.966-.016 3.932-.002 5.898.006.73.022 1.472.148 2.188.157.895.531 1.164 1.427 1.145.396-.008.793-.101 1.183-.185.279-.06.373.061.357.3-.035.507-.073 1.015-.142 1.518-.015.109-.152.264-.258.287-1.291.286-2.592.452-3.85-.116-1.127-.51-1.568-1.495-1.6-2.645-.052-1.859-.03-3.719-.037-5.578-.004-1.08 0-2.158 0-3.257-.551 0-1.093-.035-1.626.014-.299.027-.346-.073-.342-.308.008-.464.034-.93.015-1.393-.014-.35.092-.493.464-.46.375.035.756-.001 1.133.02.33.02.413-.115.397-.426-.042-.854-.03-1.71-.088-2.563-.027-.383.168-.515.462-.59.807-.207 1.618-.4 2.487-.613zm-89.513-.403c.233 1.306.548 2.597.813 3.898.236 1.153.433 2.315.674 3.468.316 1.517.661 3.028.987 4.544.142.659.276 1.319.46 1.993l.149.504.05-.113c.034-.078.068-.156.085-.237.184-.843.363-1.687.537-2.532.249-1.21.49-2.421.739-3.631.152-.746.315-1.49.466-2.235.21-1.038.416-2.077.619-3.117.176-.904.35-1.809.515-2.715.048-.261.142-.36.448-.35.815.03 1.634.024 2.448-.027.4-.024.51.167.57.474.208 1.082.42 2.163.618 3.246.227 1.23.428 2.465.665 3.693.176.907.408 1.804.587 2.71.307 1.566.593 3.135.89 4.702.007.038.037.073.105.2.107-.202.22-.336.254-.489.453-2.023.902-4.046 1.336-6.073.361-1.688.704-3.38 1.047-5.072.177-.874.35-1.75.503-2.63.122-.702.2-.768.89-.747.709.021 1.42.038 2.126 0 .364-.018.39.127.322.392-.543 2.099-1.097 4.195-1.63 6.296-.51 2.006-1.025 4.011-1.485 6.029-.42 1.843-.774 3.702-1.146 5.556-.109.544-.208.63-.772.651-.77.028-1.54.063-2.306.128-.325.027-.4-.183-.445-.389-.17-.77-.308-1.549-.47-2.322-.156-.74-.326-1.479-.489-2.219-.26-1.19-.512-2.382-.783-3.57-.245-1.074-.513-2.142-.765-3.214-.2-.854-.388-1.71-.593-2.562-.05-.208-.144-.406-.254-.707-.314 1.304-.6 2.475-.876 3.648-.263 1.12-.514 2.242-.771 3.362-.326 1.42-.663 2.838-.977 4.26-.235 1.064-.427 2.137-.68 3.197-.037.155-.294.355-.463.37-.872.072-1.749.099-2.624.117-.109.002-.297-.126-.318-.222-.231-1.044-.432-2.095-.65-3.142-.154-.73-.319-1.457-.484-2.185-.26-1.146-.519-2.293-.79-3.437-.223-.94-.468-1.873-.695-2.81-.202-.837-.374-1.681-.59-2.514-.294-1.14-.612-2.273-.928-3.406-.09-.32-.229-.629-.311-.951-.083-.325.198-.332.391-.337.71-.02 1.42-.014 2.129-.018.075 0 .154.019.226.003.453-.1.568.1.646.532zm77.455-1.305c.022.098.083.234.08.37-.044 2.473-.119 4.947-.141 7.421-.02 2.19.01 4.381.03 6.572.011 1.35.038 2.7.069 4.05.006.269.046.539.1.802.062.307-.053.47-.357.486-.798.042-1.598.077-2.397.106-.312.011-.353-.19-.347-.45.046-1.755.11-3.51.115-5.265.008-3.255-.008-6.51-.043-9.764-.012-1.138-.109-2.276-.165-3.413-.004-.088.008-.176.014-.3l3.042-.615zm-8.14 5.904c1.147.396 2.128 1.685 2.167 2.864l.234 7.64c.032.989.097 1.977.12 2.965.003.107-.164.304-.264.312-.811.065-1.625.11-2.439.116-.092 0-.267-.27-.267-.415.003-2.875.081-5.752.019-8.626-.025-1.125-.407-2.224-1.593-2.756-.991-.444-1.952-.168-2.87.243-.5.224-.976.52-1.425.834-.17.118-.334.383-.333.58.018 2.788.062 5.576.11 8.364.007.418.044.84.117 1.25.059.33-.12.41-.362.423l-2.355.094c-.345.018-.386-.152-.385-.442.012-1.815.006-3.63.006-5.445l.139-.003c-.11-2.38-.21-4.763-.342-7.143-.028-.491.219-.606.613-.673.709-.12 1.415-.257 2.12-.395.344-.068.428.134.425.4-.003.281-.048.561-.058.842-.002.075.036.171.09.22.031.027.148-.004.2-.043.8-.624 1.709-1.031 2.685-1.28 1.218-.308 2.442-.343 3.649.074zm14.132.082c-.026 2.024-.072 4.048-.079 6.073-.008 2.265.012 4.531.033 6.797.008.825.026.819-.81.84-.605.016-1.213.014-1.81.092-.404.053-.428-.125-.42-.422.053-1.949.101-3.898.15-5.847l-.117-.001.002-3.69c0-.614-.004-1.23-.01-1.844-.003-.416-.08-.835-.154-1.246-.059-.325.014-.512.368-.577.855-.157 1.706-.335 2.56-.503.285-.057.289.142.287.328zm-35.79 4.467c-.337 1.537-.36 3.086 0 4.635.287 1.231 1.278 2.65 2.918 2.936 1.463.255 3.016-.45 3.692-1.751.558-1.074.672-2.224.692-3.415-.087-.74-.15-1.484-.267-2.22-.148-.935-.513-1.79-1.27-2.396-1.774-1.423-5.073-.94-5.765 2.211zm-21.51 1.751c-.749.147-1.503.273-2.244.455-.872.214-1.751.429-2.388 1.15-.657.744-.783 1.562-.48 2.492.297.911.957 1.421 1.845 1.568 1.038.172 2.034-.068 2.92-.659.397-.265.684-.561.604-1.13-.078-.558-.013-1.137-.012-1.707v-2.152c-.129-.01-.19-.028-.245-.017zm9.096-4.097c-.638.473-.946 1.127-1.117 1.874-.292 1.273.324 3.366 2.32 3.625 1.018.132 1.964-.058 2.65-.887.486-.586.657-1.296.656-2.057-.042-.31-.064-.625-.127-.93-.457-2.198-2.859-2.755-4.382-1.625zm48.131-7.465c.024.075.096.197.098.32.015.725.032 1.452-.001 2.176-.006.137-.223.365-.36.378-.868.082-1.74.125-2.612.152-.093.003-.271-.18-.275-.282-.024-.718-.013-1.436-.014-2.154 0-.322.24-.338.468-.358.881-.078 1.763-.152 2.696-.232zM61.365 8.882c.703.146 1.405.307 2.092.51.163.05.38.302.376.455-.021.657-.116 1.312-.183 1.967-.029.285-.144.444-.436.252-1.537-1.012-3.246-1.165-5.024-1.03-1.075.08-2.06.4-2.93 1.024-1.188.852-1.963 1.988-2.401 3.389-.434 1.388-.534 2.796-.38 4.217.229 2.086.976 3.939 2.798 5.175.97.658 2.072.97 3.259 1.025 1.96.092 3.709-.448 5.282-1.591.033-.024.084-.024.186-.05.025.133.073.256.067.376-.032.657-.094 1.313-.111 1.97-.009.327-.133.531-.426.666-2.014.924-4.11 1.28-6.324.982-1.607-.215-3.104-.7-4.406-1.669-1.255-.934-2.162-2.153-2.72-3.61-.885-2.314-1.013-4.704-.535-7.105.397-1.995 1.292-3.75 2.899-5.105 1.016-.856 2.156-1.47 3.44-1.75 1.81-.396 3.645-.481 5.477-.098zm37.977 4.913c.765.128 1.512.366 2.265.563.241.064.291.203.25.47-.08.5-.07 1.015-.11 1.523-.035.446-.143.499-.523.278-1.06-.614-2.187-.984-3.429-.93-.656.03-1.293.168-1.809.594-.886.732-.948 1.91.252 2.517.738.373 1.563.581 2.358.833 1.173.373 2.354.734 3.18 1.72.755.902 1.026 1.966.802 3.102-.392 1.98-1.724 3.066-3.633 3.514-2.026.475-4.005.272-5.935-.488-.31-.122-.424-.286-.368-.642.078-.5.058-1.015.096-1.523.012-.162.076-.32.1-.42.838.385 1.546.849 2.322 1.035 1.385.332 2.822.505 3.989-.634.89-.87.761-1.982-.337-2.572-.675-.363-1.436-.565-2.15-.86-.863-.356-1.735-.7-2.572-1.11-1.278-.627-2.01-2.599-1.406-4.239.501-1.36 1.523-2.078 2.851-2.49 1.252-.386 2.528-.456 3.807-.241zm-26.226.003c1.497.258 2.73.991 3.12 2.543.224.887.199 1.843.224 2.77.034 1.214-.008 2.429.009 3.643.022 1.57.066 3.14.112 4.71.009.315-.125.433-.424.441-.738.021-1.476.065-2.214.066-.09 0-.243-.2-.254-.318-.024-.243.029-.494.06-.853-.222.177-.36.3-.51.406-1.71 1.206-4.44 1.48-6.25.085-1.045-.804-1.61-1.88-1.613-3.189-.001-.66.07-1.346.265-1.973.423-1.358 1.511-2.088 2.778-2.589 1.575-.623 3.244-.827 4.905-1.056.297-.041.407-.117.405-.44-.012-1.303-.63-2.117-2.004-2.247-.848-.08-1.738.073-2.584.242-.665.132-1.291.454-1.938.682-.086.03-.192.004-.24.004 0-.63-.02-1.21.013-1.789.009-.146.156-.369.288-.413 1.9-.633 3.84-1.073 5.852-.725zm39.011.009c2.069.382 3.604 1.498 4.383 3.492.455 1.165.652 2.386.656 3.897-.044 1.53-.331 3.245-1.456 4.726-.831 1.095-1.916 1.796-3.263 2.067-1.344.27-2.7.3-4.034-.059-1.965-.528-3.349-1.718-4.048-3.64-.713-1.962-.716-3.981-.232-5.962.546-2.233 2.022-3.681 4.274-4.331 1.23-.355 2.48-.42 3.72-.19zm15.173-.015c1.745.147 2.817.929 3.44 2.462.17.416.199.907.209 1.366.053 2.44.071 4.883.122 7.324.017.838.084 1.676.15 2.513.025.31-.135.424-.388.427-.842.013-1.685.005-2.588.005v-1.542c0-2.447.033-4.894-.014-7.34-.022-1.117-.342-2.183-1.455-2.734-.409-.202-.927-.286-1.389-.266-1.198.052-2.205.63-3.135 1.334-.12.091-.215.299-.214.452.011 2.476.031 4.951.07 7.426.011.734.076 1.468.138 2.2.029.335-.122.472-.428.483-.783.028-1.567.057-2.351.057-.086 0-.23-.178-.247-.288-.032-.219.014-.448.012-.673-.019-3.015-.024-6.03-.07-9.045-.017-1.047-.117-2.095-.22-3.138-.03-.29.074-.394.302-.442.84-.174 1.68-.346 2.526-.487.08-.013.272.196.284.314.037.376.014.757.014 1.19.36-.204.654-.362.94-.533 1.321-.795 2.749-1.196 4.292-1.065zm-37.01-5.69c.288.252.185.573.18.888l-.083 5.132c-.025 1.711-.044 3.422-.044 5.132 0 2.58.098 5.16.16 7.741.022.904.033.906-.906.922-.574.01-1.15-.011-1.723.03-.373.026-.441-.135-.43-.445l.077-1.844c.024-.615.042-1.23.045-1.844.016-3.423.024-6.847-.003-10.27-.011-1.438-.118-2.876-.18-4.314-.006-.147 0-.294 0-.465.832-.155 1.642-.301 2.449-.464.101-.02.184-.13.276-.199h.181zm-4.43 5.655c.207.025.344.068.291.331-.175.877-.333 1.756-.495 2.616-.477-.052-.914-.133-1.353-.138-.77-.01-1.646.653-1.82 1.404-.137.591-.268 1.202-.265 1.803.012 2.565.078 5.13.107 7.694.001.148-.153.426-.243.429-.903.032-1.807.02-2.726.02 0-1.656.006-3.259-.002-4.862-.01-2.16-.02-4.32-.05-6.48-.009-.583-.067-1.168-.153-1.745-.044-.293.036-.425.307-.476l1.64-.303c.119-.021.24-.03.358-.056.744-.163.798-.12.718.663-.046.446-.118.89-.178 1.335l.13.034c.113-.19.243-.372.337-.57.738-1.553 2.172-1.847 3.398-1.699zm21.057 5.107c-.245 1.297-.252 2.603-.04 3.929.313 1.971 1.739 3.618 3.957 3.442 1.05-.083 1.92-.522 2.528-1.413.777-1.138.855-2.43.856-3.742l.131-.022c-.195-1.053-.34-2.12-.602-3.155-.198-.783-.702-1.414-1.442-1.796-2.328-1.202-4.867-.005-5.388 2.757zm-33.183 1.462c-1.162.242-2.225.43-3.27.69-1.419.354-2.19 1.215-2.274 2.46-.074 1.105.396 1.902 1.228 2.303 1.332.642 3.13.227 4.2-.832.067-.065.11-.184.111-.278.007-1.42.005-2.84.005-4.343z"/>
</svg>
