<svg xmlns="http://www.w3.org/2000/svg" width="184" height="100" viewBox="0 0 184 100">
    <path fill-rule="evenodd" d="M22.572 30.194c3.527.328 6.786 1.481 9.689 3.544 4.325 3.074 7.022 7.243 8.13 12.452.096.452.17.909.25 1.364.011.061.002.126.002.208h-4.554c-.89-4.949-3.53-8.691-7.894-11.142-3.302-1.855-6.877-2.43-10.594-1.74-8.004 1.484-13.39 8.548-13.045 16.293.35 7.892 6.257 13.852 13.346 14.994 8.618 1.388 16.964-4.454 18.195-12.88h4.57c-.078.498-.133.974-.23 1.441-.623 3.015-1.793 5.79-3.661 8.242-2.85 3.743-6.57 6.158-11.114 7.297-1.28.32-2.576.535-3.896.584-.059.002-.116.04-.174.062h-2.26c-.327-.043-.652-.095-.98-.127-4.103-.399-7.749-1.937-10.919-4.563-3.61-2.99-5.941-6.797-6.969-11.405C.06 53-.074 51.161.038 49.314c.254-4.215 1.675-8.01 4.275-11.329 2.804-3.579 6.403-5.98 10.775-7.19 1.187-.328 2.392-.589 3.625-.62 1.286-.032 2.583-.1 3.859.019zM180.674 61.92c.35.017.71.068 1.044.17.537.165.786.568.768 1.163-.35 0-.702.005-1.054-.006-.054-.001-.123-.069-.157-.124-.248-.4-1.045-.512-1.394-.19-.185.172-.156.418.102.513.32.117.662.176.993.264.31.084.627.15.927.264.4.152.652.446.691.893.043.485-.069.92-.499 1.186-.241.148-.523.261-.8.313-.649.122-1.306.138-1.945-.066-.643-.205-.926-.627-.908-1.347h1.202c.16.621 1.038.896 1.546.496.245-.193.214-.49-.095-.605-.3-.11-.622-.158-.933-.239-.311-.08-.634-.134-.929-.256-.86-.355-.989-1.446-.247-2.024.499-.388 1.093-.433 1.688-.405zm-110.582 0c.33.016.667.056.984.146.585.165.827.516.858 1.186-.362 0-.723.005-1.084-.007-.052-.001-.116-.08-.15-.137-.235-.392-1.066-.492-1.397-.162-.174.174-.13.415.132.51.312.112.643.167.964.253.31.082.627.15.928.26.404.149.656.443.698.888.048.496-.067.944-.514 1.21-.262.154-.568.272-.867.318-.64.098-1.288.116-1.914-.099-.606-.207-.905-.682-.849-1.331h1.08c.206.234.342.533.526.568.353.065.736 0 1.1-.057.08-.012.19-.225.178-.334-.012-.108-.144-.259-.252-.291-.41-.123-.833-.202-1.25-.304-.187-.046-.376-.091-.555-.163-.388-.157-.696-.405-.747-.854-.057-.507.079-.944.523-1.244.49-.332 1.045-.383 1.608-.356zm79.212.17c.606.191.983.592 1.046 1.314-.398 0-.762.008-1.125-.007-.068-.003-.135-.1-.197-.158-.143-.135-.258-.336-.427-.4-.996-.378-1.904.308-1.851 1.376.043.88.545 1.375 1.421 1.38.31 0 .62-.04.951-.064v-.758h-1.084v-.786h2.252v1.505c0 .79.001.82-.801.857-.78.035-1.572.069-2.342-.026-.782-.097-1.392-.559-1.59-1.374-.212-.88-.137-1.737.564-2.402.219-.207.514-.364.802-.458.786-.257 1.59-.247 2.38.002zm-25.255-.054c.084.004.179.138.238.23.58.912 1.153 1.827 1.781 2.824v-3.038h1.102v4.261c-.533.003-1.12.166-1.521-.037-.392-.199-.608-.765-.88-1.183-.37-.568-.72-1.15-1.138-1.715v2.92h-1.106v-4.273c.519 0 1.022-.01 1.524.01zm13.162.043c.293.176.41.656.593 1.009.517.995 1.029 1.993 1.542 2.99.033.064.06.132.11.244-.452 0-.868.018-1.28-.014-.09-.007-.21-.176-.244-.292-.13-.45-.401-.582-.856-.542-.533.047-1.074.021-1.61.006-.205-.006-.329.058-.385.25-.14.482-.434.702-.948.605-.185-.034-.382-.005-.63-.005.211-.41.394-.773.584-1.133.512-.973 1.032-1.942 1.536-2.92.098-.188.206-.27.421-.258.396.023.873-.118 1.167.06zm-24.458-.06c.343.017.688-.006 1.031.013.095.005.23.073.27.152.702 1.339 1.391 2.683 2.083 4.027.009.017.007.04.02.114-.419 0-.815.014-1.21-.01-.091-.007-.23-.13-.254-.224-.138-.524-.46-.668-.976-.617-.5.05-1.01.022-1.515.006-.217-.007-.36.055-.408.266-.122.526-.468.66-.956.588-.177-.026-.362-.004-.612-.004.129-.254.23-.46.337-.662.6-1.136 1.205-2.268 1.796-3.408.093-.18.194-.25.394-.24zm-8.903.005v4.28h-1.155v-3.211l-.064-.024c-.04.075-.086.147-.118.225-.373.92-.75 1.84-1.11 2.766-.079.202-.181.274-.4.275-1.008.006-1.007.013-1.384-.922-.323-.8-.648-1.598-1.039-2.389v3.288h-1.05v-4.287c.606 0 1.195-.009 1.784.01.075.003.175.14.214.235.35.86.688 1.725 1.03 2.589.034.085.076.166.143.312l.762-1.808c.158-.378.306-.762.478-1.134.04-.087.156-.193.24-.196.546-.017 1.094-.009 1.67-.009zm64.16-.006c.807.015 1.614-.004 2.42.012.255.005.516.05.76.124.475.143.726.47.743.91.02.48-.188.806-.648 1.016-.076.035-.156.064-.324.133.692.054.843.484.915.991.052.362.127.72.2 1.123-.403 0-.787.01-1.17-.01-.064-.003-.16-.129-.177-.211-.062-.307-.062-.63-.155-.925-.052-.168-.225-.397-.369-.418-.397-.058-.807-.02-1.234-.02v1.571h-1.236c-.008-.102-.025-.204-.025-.307-.002-1.223.004-2.447-.005-3.67-.002-.234.055-.323.305-.319zm-7.188.034v.854h-2.378v.791h2.25v.878h-2.24v.863h2.422v.888h-3.68v-4.274h3.626zm-77.675-.029l-1.862 1.941 1.99 2.359c-.557 0-1.047.01-1.534-.01-.09-.004-.19-.122-.26-.21-.497-.62-.988-1.248-1.48-1.873l-.081.03v2.048h-1.227v-4.264h1.222v1.826c.124-.114.195-.17.255-.236.436-.477.865-.96 1.31-1.43.085-.09.229-.166.35-.173.406-.021.815-.008 1.317-.008zm-30.688.07c.442.017.823.258.963.738.144.494-.041.93-.491 1.18-.102.058-.21.105-.396.198.757.09.81.634.894 1.161.05.307.11.612.172.953-.399 0-.784.01-1.167-.01-.065-.003-.163-.124-.18-.204-.055-.264-.076-.535-.116-.802-.065-.435-.186-.56-.624-.587-.33-.02-.661-.004-1.022-.004v1.585h-1.245c-.003-.074-.008-.137-.008-.2v-4.021c1.1 0 2.161-.028 3.22.013zm8.877-.048v4.264h-1.217v-4.264h1.217zm51.841.842l-.857 1.777h1.684l-.827-1.777zm23.275-.009l-.843 1.773h1.668l-.825-1.773zm-85.935-.03v.983c.444 0 .863.02 1.279-.008.246-.016.408-.173.413-.452.004-.283-.157-.43-.406-.454-.425-.04-.853-.048-1.286-.07zm118.464 0v.976c.45 0 .897.023 1.34-.01.232-.017.365-.195.362-.455-.003-.264-.147-.417-.38-.44-.431-.045-.867-.05-1.322-.072zM28.553 43.146c1.156 1.209 1.935 2.65 2.352 4.28.026.103.043.209.073.353h-.725l-2.239-.001c-.373 0-.746.003-1.119.008-.235.003-.321-.083-.412-.288-.937-2.107-2.528-3.377-4.804-3.75-2.257-.37-4.257.195-5.952 1.741-1.185 1.08-1.856 2.445-2.086 4.044-.526 3.646 1.966 6.945 5.456 7.644 2.95.592 6.047-.605 7.446-3.683.043-.094.17-.21.26-.211 1.333-.012 2.668-.006 4.002-.002.02 0 .04.013.093.033-.415 1.94-1.327 3.575-2.737 4.93-1.73 1.662-3.798 2.605-6.161 2.926-3.027.412-5.771-.296-8.204-2.142-2.204-1.674-3.612-3.899-4.063-6.638-.63-3.835.53-7.112 3.34-9.782 1.712-1.628 3.757-2.617 6.091-2.86 3.648-.38 6.822.714 9.389 3.398zm150.41.92c1.435.067 2.761.444 3.952 1.256.325.221.618.49.954.761l-1.34 1.265c-.579-.54-1.208-.98-1.954-1.222-1.772-.577-3.52-.56-5.139.436-2.091 1.286-2.051 4.068.044 5.36 1.09.67 2.289.857 3.55.76 1.086-.083 2.074-.413 2.936-1.09.194-.151.366-.33.572-.52l1.36 1.27c-.648.653-1.36 1.177-2.2 1.495-2.497.946-4.952.874-7.298-.457-1.22-.692-2.092-1.715-2.4-3.134-.427-1.976.266-3.547 1.817-4.744 1.513-1.167 3.269-1.525 5.147-1.436zm-45.596.928c.403.218.774.495 1.237.796l-1.34 1.224c-.508-.263-1.043-.612-1.627-.828-1.62-.598-3.255-.606-4.85.097-1.237.545-2.054 1.436-2.073 2.88-.019 1.415.708 2.389 1.928 2.953 1.8.832 3.626.853 5.402-.115.616-.336 1.075-.84 1.35-1.55h-4.612v-1.618h6.81c.082 1.072-.142 2.06-.734 2.948-.897 1.343-2.189 2.109-3.729 2.452-2.194.489-4.29.205-6.202-1.018-1.443-.922-2.256-2.259-2.258-4.01-.003-1.708.821-2.98 2.2-3.907 1.176-.79 2.49-1.156 3.9-1.23 1.615-.084 3.161.15 4.598.926zm-75.346-.07c.56.305 1.064.714 1.653 1.116l-1.381 1.32c-.613-.61-1.305-1.054-2.112-1.287-1.856-.536-3.659-.479-5.277.698-1.69 1.229-1.638 3.736.066 4.96 1.145.821 2.439 1.056 3.815.952 1.035-.078 1.996-.368 2.833-1.005.239-.182.46-.385.701-.589l1.377 1.27c-.415.326-.795.669-1.217.947-1.17.773-2.484 1.087-3.867 1.136-1.924.068-3.701-.373-5.227-1.606-2.368-1.915-2.3-5.425.118-7.276 1.235-.945 2.63-1.396 4.164-1.49 1.529-.092 2.998.12 4.354.855zm83.713-.619c.245 0 .489.003.732.006.095 0 .215.047.28.114 1.72 1.786 3.435 3.577 5.151 5.367l1.937 2.019v-7.48h1.995v9.876c-.557 0-1.104-.028-1.646.01-.443.03-.746-.111-1.057-.442-2.238-2.38-4.5-4.736-6.756-7.1-.043-.044-.093-.083-.208-.186v.397c0 2.316-.007 4.633.005 6.95.002.298-.075.393-.375.378-.504-.025-1.01-.007-1.54-.007v-9.902h1.482zm-41.876.729c1.16 1.541 2.386 3.033 3.61 4.577l1.304-1.652c.922-1.167 1.842-2.336 2.77-3.499.058-.074.17-.146.26-.147.815-.012 1.631-.007 2.48-.007v9.901c-.475 0-.942.004-1.41 0-.633-.007-.54.085-.54-.554-.004-2.295-.002-4.59-.002-6.885v-.39l-4.882 6.241-4.88-6.246v.435c0 2.349-.005 4.698.007 7.047.002.292-.083.37-.364.359-.513-.022-1.027-.007-1.557-.007v-9.902c.561 0 1.133.053 1.69-.014.694-.083 1.105.2 1.514.743zm61.697-.735c.624.02 1.249-.003 1.873.014.114.003.274.083.331.178 1.935 3.182 3.86 6.37 5.786 9.559.016.026.02.06.05.157-.755 0-1.472.009-2.19-.011-.09-.002-.199-.141-.259-.241-.603-1.007-1.201-2.016-1.79-3.03-.102-.176-.188-.221-.405-.182-1.797.326-3.597.636-5.4.93-.409.067-.69.222-.889.612-.297.585-.665 1.133-.986 1.706-.093.164-.195.223-.38.22-.651-.01-1.302-.004-2.016-.004.078-.149.121-.242.173-.33 1.859-3.09 3.72-6.179 5.573-9.273.13-.216.269-.314.53-.305zm-93.199.001c.645.014 1.29-.005 1.936.014.123.003.294.09.356.19 1.92 3.165 3.83 6.335 5.742 9.505.026.045.045.094.094.198-.762 0-1.47.01-2.179-.012-.098-.003-.22-.144-.284-.25-.6-.995-1.191-1.995-1.777-2.999-.103-.176-.18-.247-.422-.202-1.785.33-3.575.635-5.366.93-.415.067-.714.196-.916.615-.285.59-.653 1.139-.996 1.699-.054.09-.16.207-.244.209-.694.017-1.389.01-2.152.01.148-.257.26-.459.379-.656 1.81-3.006 3.62-6.01 5.425-9.02.101-.169.205-.235.404-.23zm19.307.005c1.125.005 2.145.33 2.9 1.215 1.285 1.505.831 3.698-.934 4.596-.256.13-.527.23-.82.357l3.029 3.734h-1.444c-1.038 0-1.026-.009-1.648-.831-.668-.885-1.359-1.754-2.05-2.622-.068-.087-.204-.172-.31-.172-1.43-.011-2.862-.008-4.293-.006-.03 0-.06.014-.122.03v1.807c0 .52.007 1.04-.008 1.56-.003.079-.111.221-.174.223-.578.017-1.157.01-1.759.01v-9.876c.079-.009.16-.025.24-.025 2.465-.002 4.929-.01 7.393 0zm30.33.024v9.862h-1.923V44.33h1.923zm-99.049 4.198l11.372 1.934.009.065-11.38 1.94v-3.94zm143.463-2.63l-2.26 3.867 4.868.592-2.608-4.459zm-93.122.003l-2.26 3.862 4.87.594-2.61-4.456zm12.987.12c-.093 0-.186.013-.29.02v2.823c.067.01.098.02.129.02 1.795 0 3.59.017 5.385-.013.37-.006.77-.126 1.098-.302.91-.487.916-1.784.002-2.257-.363-.188-.815-.271-1.229-.279-1.698-.03-3.397-.013-5.095-.012z"/>
</svg>
