<svg xmlns="http://www.w3.org/2000/svg" width="184" height="100" viewBox="0 0 184 100">
    <path fill-rule="evenodd" d="M125.829 40.68c1.878.004 3.755.014 5.633.013.221 0 .39.05.56.204 1.148 1.033 2.299 2.063 3.465 3.076 2.595 2.252 5.202 4.491 7.8 6.742 1.35 1.17 2.69 2.354 4.034 3.532.075.065.144.148.3.121.01-.083.028-.162.027-.241-.006-2.546-.007-5.091-.028-7.636-.007-.743-.024-1.491-.172-2.224-.071-.354-.163-.709-.29-1.047-.268-.716-.78-1.214-1.477-1.53-.431-.196-.889-.294-1.35-.382-.102-.02-.205-.032-.334-.052-.1-.203-.103-.364-.032-.5.04-.036.05-.05.065-.058s.034-.012.05-.012l1.408.003 6.05-.007c.033 0 .067.016.098.028.016.006.03.018.066.042v.469c-.108.038-.217.081-.328.116-.166.052-.334.095-.5.147-1.086.338-1.768 1.071-2.063 2.152-.114.415-.192.846-.223 1.275-.058.793-.094 1.59-.094 2.386-.001 3.982.013 7.964.018 11.947 0 .198.047.407-.063.623-.2-.047-.308-.188-.433-.297-1.057-.926-2.107-1.862-3.17-2.781l-11.702-10.11c-1.103-.954-2.19-1.925-3.287-2.886-.11-.096-.2-.24-.415-.237-.014.128-.039.242-.037.355.008.572.03 1.143.033 1.714.014 2.216.02 4.432.032 6.649.003.692-.012 1.386.026 2.077.034.603.101 1.208.209 1.802.212 1.17.906 1.962 2.021 2.379.373.14.76.244 1.15.367.097.152.073.32.024.523-.107.015-.221.047-.336.046-.608-.003-1.217-.004-1.825-.025-1.6-.056-3.2-.02-4.799.02-.223.006-.447.001-.671.001-.122-.181-.096-.347-.051-.551.13-.044.275-.09.418-.14.343-.122.698-.22 1.025-.373.795-.375 1.324-.991 1.583-1.833.195-.634.283-1.285.305-1.944.025-.727.034-1.454.035-2.181.004-3.03.002-6.06.002-9.09 0-.636-.002-.635-.52-1.034-.602-.466-1.294-.734-2.026-.913-.202-.05-.406-.094-.596-.138-.148-.19-.098-.365-.044-.57.159-.006.294-.018.429-.018zm46.541.85c.165.05.326.11.536.183-.136 1.463-.248 2.874-.397 4.297-.112.022-.194.047-.276.05-.084.004-.169-.015-.27-.025-.051-.136-.103-.263-.147-.392-.735-2.15-2.227-3.507-4.4-4.133-1.298-.375-2.632-.464-3.977-.39-.92.05-1.838.136-2.733.375-.488.13-.971.282-1.409.534-.298.173-.592.368-.847.598-1.213 1.094-.87 2.865-.052 3.634.347.325.739.574 1.168.77.73.335 1.499.556 2.284.71 1.124.222 2.254.42 3.382.624 1.607.29 3.218.564 4.785 1.034.75.226 1.482.499 2.174.868.57.304 1.1.665 1.552 1.13.908.935 1.245 2.053 1.084 3.334-.148 1.179-.716 2.117-1.632 2.859-.627.508-1.338.868-2.09 1.153-.93.352-1.892.576-2.873.73-1.81.282-3.633.364-5.46.293-2.848-.11-5.634-.57-8.32-1.545-.243-.088-.478-.194-.74-.301.14-1.592.28-3.157.42-4.722.187-.112.35-.097.543-.03.033.087.07.18.104.277.837 2.452 2.536 4.039 4.963 4.891 1.024.36 2.084.553 3.164.61 1.55.081 3.093.006 4.621-.29.702-.135 1.386-.326 2.038-.623.414-.188.795-.424 1.141-.72 1.238-1.06 1.119-2.977-.098-3.91-.389-.299-.816-.525-1.269-.708-.793-.32-1.616-.537-2.452-.698-1.519-.29-3.042-.556-4.563-.835-1.436-.263-2.87-.542-4.245-1.044-.488-.179-.961-.4-1.427-.633-.278-.138-.535-.323-.787-.506-1.979-1.442-2.211-4.56-.281-6.278.51-.454 1.078-.815 1.695-1.106.95-.446 1.95-.727 2.98-.918 1.164-.217 2.34-.31 3.525-.337 2.928-.07 5.788.333 8.586 1.19zM26.198 40.434c2.055.158 4.062.543 6.022 1.175.347.112.69.236 1.034.358.064.023.124.06.198.097.066.361-.006.72-.037 1.079l-.1 1.138c-.032.362-.06.724-.095 1.086-.035.36-.076.717-.116 1.093l-.432.02c-.046-.055-.087-.09-.11-.134-.039-.077-.068-.16-.1-.24-.819-2.027-2.282-3.396-4.308-4.194-1.028-.404-2.101-.621-3.197-.698-1.708-.119-3.405-.031-5.074.391-.743.188-1.462.444-2.146.792-2.066 1.053-3.42 2.687-4.008 4.924-.463 1.758-.486 3.527-.01 5.288.515 1.898 1.607 3.395 3.229 4.512 1.221.841 2.584 1.347 4.034 1.611 1.954.356 3.91.336 5.855-.077.665-.14 1.309-.348 1.928-.628 1.908-.862 3.203-2.279 3.884-4.251.067-.196.132-.393.216-.642l.451.023c.018.106.04.189.044.272.043.975.029 4.017-.023 4.44-.108.05-.23.11-.356.162-1.975.8-4.017 1.333-6.139 1.57-1.75.196-3.5.228-5.258.11-1.601-.107-3.18-.335-4.726-.763-1.227-.34-2.404-.805-3.501-1.456-.934-.553-1.773-1.22-2.473-2.052-1.094-1.3-1.696-2.799-1.85-4.49-.207-2.29.518-4.26 2.02-5.971.785-.895 1.714-1.618 2.737-2.225 1.63-.967 3.394-1.582 5.244-1.965 2.369-.491 4.76-.54 7.163-.355zm44.826-.328c.082.111.151.232.222.351 1.011 1.697 2.027 3.39 3.031 5.091 1.823 3.089 3.634 6.183 5.46 9.27.343.581.71 1.152 1.103 1.7.291.406.624.79.976 1.146.622.631 1.363 1.067 2.254 1.215.066.01.128.045.21.076v.484c-.154.012-.29.031-.425.03-.556-.002-1.113 0-1.668-.018-2.382-.082-4.764.009-7.145.022-.206.001-.412-.006-.595-.009-.15-.19-.105-.351-.05-.536.24-.055.48-.094.708-.165.313-.098.633-.194.925-.34.477-.238.71-.64.681-1.185-.016-.297-.072-.585-.189-.857-.143-.333-.285-.67-.466-.984-.65-1.125-1.316-2.24-1.978-3.36-.025-.043-.063-.08-.116-.148-.114-.012-.25-.037-.385-.037-2.92-.002-5.841-.002-8.762 0-.137 0-.275.017-.394.025-.051.061-.093.096-.117.14-.474.867-.956 1.728-1.415 2.602-.267.507-.46 1.044-.562 1.612-.154.849.072 1.824 1.204 2.34.313.142.644.247.992.378v.449c-.056.024-.103.061-.15.061-.52 0-1.042.003-1.563-.014-1.512-.047-3.024-.04-4.537.015-.17.006-.341-.005-.545-.008l-.039-.459c.063-.051.097-.097.142-.114.498-.19.902-.516 1.28-.879.514-.494.97-1.04 1.383-1.62.493-.69.989-1.382 1.436-2.103 2.33-3.754 4.647-7.515 6.962-11.278.517-.842 1.004-1.7 1.506-2.551.07-.12.139-.241.223-.35.103-.134.3-.13.403.008zm14.869.576l5.374.009h5.374c1.392-.003 2.783.002 4.171.101 1.059.076 2.11.211 3.134.506.553.16 1.087.366 1.58.664 1.135.685 1.707 1.69 1.73 3.01.025 1.52-.6 2.712-1.839 3.587-.821.58-1.747.926-2.723 1.137-.491.106-.994.16-1.491.238-.22.034-.448.027-.677.12.137.182.324.132.485.159.462.076.931.122 1.387.224 1.21.272 2.148.946 2.833 1.974.395.594.705 1.233.984 1.887.237.557.46 1.121.712 1.672.173.377.366.748.58 1.103.533.881 1.295 1.481 2.289 1.78.066.02.132.043.197.066.016.005.03.017.062.037.108.142.096.301-.002.499-.11.005-.228.014-.345.014-1.392-.004-2.783-.023-4.174-.005-.432.005-.745-.14-.968-.486-.225-.349-.462-.696-.636-1.07-.409-.88-.782-1.775-1.17-2.663-.21-.475-.401-.96-.636-1.422-.939-1.847-2.465-2.907-4.494-3.277-.685-.124-1.378-.198-2.074-.197-1.165.001-2.33.018-3.496.03-.137.002-.273.022-.434.036-.023.11-.062.206-.061.302.006 1.697.014 3.394.027 5.09.004.436.083.861.206 1.279.24.81.762 1.347 1.565 1.606.295.095.6.162.89.24.024.04.054.07.056.099.006.119.002.238.002.358-.06.029-.104.066-.15.068-.173.01-.347.012-.52.01l-2.331-.043c-.388-.005-.777-.009-1.165-.009-1.426.001-2.852.033-4.278.047-.187.002-.381.047-.59-.055v-.456l.297-.09c.315-.095.64-.167.942-.292.556-.23.938-.643 1.166-1.199.145-.355.239-.725.27-1.105.039-.483.078-.968.08-1.452.006-3.17.006-6.338 0-9.508 0-.657-.025-1.316-.174-1.962-.042-.185-.099-.368-.167-.545-.223-.578-.623-1-1.196-1.237-.287-.118-.594-.186-.894-.274-.098-.03-.198-.052-.327-.085l-.022-.452c.077-.03.123-.062.172-.064.156-.007.312-.004.469-.004zm-39.791.056v.453c-.11.034-.207.065-.304.093l-.57.154c-.095.028-.188.058-.278.095-.61.246-1.034.685-1.27 1.302-.181.475-.257.97-.287 1.472-.022.363-.024.727-.024 1.09-.002 3.084-.002 6.167-.001 9.25 0 .571-.005 1.144.113 1.707.036.17.07.34.123.504.21.667.637 1.14 1.284 1.416.518.221 1.064.336 1.62.369 1.494.088 2.99.103 4.478-.099.847-.114 1.672-.321 2.464-.646 1.284-.529 2.343-1.356 3.181-2.451.4-.523.742-1.088 1.108-1.635.094-.142.18-.29.272-.438.095.011.164.012.229.03.08.021.158.056.215.077.019.049.027.064.03.08.004.017.008.036.003.051-.614 1.894-1.229 3.787-1.846 5.68-.015.048-.048.089-.075.136-.052.014-.101.04-.15.039-6.384-.081-12.767-.092-19.15-.002-.049 0-.098-.024-.152-.039-.021-.05-.056-.095-.059-.141-.004-.102.007-.204.013-.324.105-.036.199-.073.296-.1.25-.07.508-.118.753-.204.718-.253 1.193-.748 1.439-1.468.181-.532.224-1.084.263-1.636.02-.293.016-.588.016-.883 0-3.065.005-6.13-.004-9.197-.001-.553-.035-1.107-.092-1.658-.033-.323-.117-.648-.223-.957-.22-.641-.668-1.088-1.3-1.336-.257-.101-.531-.159-.798-.234-.099-.027-.2-.048-.281-.068-.127-.16-.098-.31-.054-.472.042-.02.086-.058.132-.061.156-.009.312-.009.469-.005 2.608.055 5.217.05 7.826.002.188-.004.382-.05.59.054zm75.282-.054c.048-.001.097.03.157.05.01.086.026.17.025.255 0 .066-.021.133-.036.211-.088.028-.168.057-.25.077l-.407.093c-1.103.264-1.728.975-1.927 2.07-.058.322-.093.65-.113.978-.023.38-.025.762-.025 1.142-.002 2.995-.003 5.99 0 8.985 0 .468-.002.937.04 1.402.035.394.102.79.209 1.171.217.768.721 1.292 1.484 1.549.31.105.632.178 1 .28v.45c-.042.026-.056.04-.072.043-.05.01-.101.027-.151.026-2.869-.079-5.737-.067-8.606 0-.05.001-.1-.017-.18-.033-.064-.157-.06-.317.005-.505.115-.025.231-.053.348-.077 1.498-.307 2.1-1.05 2.299-2.498.059-.427.087-.863.088-1.294.007-3.324.011-6.649-.004-9.972-.002-.568-.069-1.141-.165-1.702-.185-1.083-.837-1.756-1.912-2.018l-.673-.166v-.463c.06-.022.11-.055.157-.055 2.903.046 5.806.054 8.71 0zm-52.219 3.424c-.134.117-.217.29-.315.449l-2.631 4.3c-.372.604-.752 1.204-1.122 1.81-.048.079-.057.18-.086.275.485.077 4.425.102 7.9.054.137-.002.273-.02.505-.036-.114-.217-.178-.354-.255-.483-.499-.832-.997-1.664-1.5-2.493-.729-1.2-1.46-2.398-2.193-3.594-.067-.11-.105-.262-.303-.282zm27.229-2.664c-1.407.002-2.815.03-4.222.047-.171.003-.342.015-.522.023-.121.219-.087.395-.088.565-.004.657-.002 1.315-.002 1.972 0 1.626 0 3.253.002 4.879 0 .185-.027.376.06.579.144.01.28.028.414.028 1.633 0 3.267.009 4.9-.012.693-.008 1.388-.057 2.078-.126.781-.078 1.54-.268 2.245-.626.788-.401 1.376-.996 1.69-1.827.344-.91.428-1.853.22-2.807-.16-.74-.557-1.343-1.206-1.749-.306-.191-.64-.348-.98-.474-.687-.258-1.412-.367-2.141-.407-.815-.046-1.632-.066-2.448-.065z"/>
</svg>
