<svg xmlns="http://www.w3.org/2000/svg" width="184" height="100" viewBox="0 0 184 100">
    <path fill-rule="evenodd" d="M108.732 70.342c3.764 1.057 5.896 3.609 6.52 7.408.24 1.454.24 2.947.355 4.5h-16.81c.36 2.003 1.21 3.56 3.045 4.296.965.387 2.05.616 3.09.643 3.078.083 6.16.03 9.241.03h.71V90.8c-.188.012-.388.035-.587.035-3.556.002-7.113.037-10.669-.018-1.148-.018-2.321-.161-3.435-.44-3.064-.77-5.102-2.717-5.987-5.755-.806-2.763-.836-5.567.083-8.314 1.274-3.813 4.018-5.886 7.947-6.419 2.189-.297 4.367-.145 6.497.453zm-43.097-.007c.112 0 .223.017.367.028v3.53h-.644c-2.606 0-5.212-.016-7.817.012-.698.008-1.41.086-2.087.25-1.847.449-3.134 1.6-3.824 3.364-.756 1.93-.788 3.903-.102 5.86.858 2.45 2.942 3.828 5.752 3.838 2.682.01 5.364.002 8.046.002h.665v3.563c-.08.018-.151.049-.222.048-3.632-.015-7.264.004-10.895-.067-1.63-.032-3.188-.486-4.613-1.317-1.984-1.156-3.173-2.917-3.758-5.093-.649-2.414-.671-4.854-.06-7.28.946-3.75 3.412-5.86 7.169-6.5.895-.154 1.814-.22 2.722-.229 3.1-.027 6.2-.01 9.3-.009zm18.966.104c3.521 1.138 5.471 3.62 6.02 7.236.126.824.168 1.666.172 2.5.02 3.351.008 6.701.008 10.052v.572H85.97v-.712c-.006-3.579.051-7.16-.042-10.736-.062-2.412-.998-4.41-3.385-5.421-2.466-1.043-5.588-.409-7.138 1.442-.999 1.192-1.387 2.624-1.406 4.133-.045 3.521-.025 7.043-.031 10.565v.724h-4.764c-.016-.092-.046-.18-.045-.27.003-3.844-.054-7.69.031-11.534.109-4.926 3.163-8.284 8.025-9.009 2.497-.372 4.969-.324 7.387.458zm53.481-.084v3.539h-.656c-3.29 0-6.581-.019-9.87.014-.752.007-1.52.119-2.247.307-1.015.262-1.533.934-1.595 1.846-.08 1.176.307 2.042 1.334 2.39.917.312 1.914.462 2.886.525 1.761.113 3.536.036 5.295.173 1.514.117 2.957.583 4.103 1.656 2.816 2.636 1.822 7.592-1.807 9.074-1.594.65-3.278.822-4.973.835-3.632.028-7.265.009-10.898.007-.149 0-.298-.02-.478-.034V87.18h.672c3.176 0 6.352.02 9.528-.013.829-.008 1.673-.097 2.48-.284 1.078-.251 1.614-.957 1.681-1.967.073-1.088-.404-1.985-1.442-2.338-.795-.27-1.658-.415-2.5-.461-1.763-.098-3.537-.026-5.297-.15-1.65-.117-3.178-.628-4.482-1.753-2.059-1.777-2.287-7.03 1.306-8.757 1.637-.786 3.377-1.06 5.145-1.085 3.916-.055 7.833-.017 11.815-.017zm-35.705 2.848c-2.417.664-4.082 3.501-3.493 5.901h11.47c.015-.196.029-.328.033-.46.084-2.652-1.235-4.695-3.513-5.388-1.487-.452-3.003-.464-4.497-.053zM90.857 10v.667c0 9.935-.004 19.87.002 29.805.005 6.52 4.474 12.356 10.707 13.9 3.814.946 7.338.133 10.59-2.006.15-.098.294-.205.53-.244l-.39.804c-.067.133-.136.265-.209.394-3.236 5.759-8.185 9.184-14.61 10.344-6.655 1.201-12.755-.27-17.993-4.636-4.444-3.705-6.852-8.501-6.81-14.343.044-6.299 2.87-11.231 7.826-14.992 2.427-1.842 5.176-3.013 8.201-3.703V10h2.157zm2.83 15.369c1.346.178 2.71.272 4.036.549 5.61 1.17 10.165 4 13.455 8.753 1.78 2.571 1.138 5.309-1.683 6.653-4.004 1.909-7.63 1.208-10.884-2.13-2.269-2.328-3.477-5.238-4.19-8.354-.396-1.733-.627-3.505-.932-5.26l.197-.211z"/>
</svg>
