<svg xmlns="http://www.w3.org/2000/svg" width="184" height="100" viewBox="0 0 184 100">
    <path fill-rule="evenodd" d="M132.208 53.638c1.052.222 2.109.43 3.15.693.2.051.467.324.483.513.058.692.023 1.392.023 1.917-1.912-.218-3.739-.55-5.573-.602-2.163-.06-3.937 1.253-4.507 3.043-.974 3.056.927 5.828 4.246 5.95 1.62.06 3.254-.267 4.88-.426.24-.024.476-.09.731-.14.063.153.084.18.085.208.079 2.147.1 2.244-1.99 2.694-3.062.658-6.117.728-8.892-1.056-3.74-2.405-4.384-8.558-.073-11.376 2.252-1.473 4.757-1.983 7.437-1.418zm19.31 1.471c2.827 1.892 3.653 6.153 1.866 9.065-1.757 2.862-4.523 3.603-7.144 3.688-3.204-.01-5.693-.663-7.482-2.817-3.273-3.94-1.168-9.9 3.869-11.17 3.145-.795 6.147-.601 8.89 1.234zm-57.836-.715v2.246c-2.074-.173-4.145-.427-6.22-.488-1.348-.04-2.592.436-3.62 1.405-1.796 1.693-1.76 6.479 1.8 7.527 1.803.53 3.544.43 5.314.063.195-.04.465-.338.476-.53.052-.853.023-1.712.023-2.697h-4.237c.341-1.902.787-2.286 2.608-2.29 1.581-.003 3.162 0 4.828 0v7.405c-2.633.264-5.208.692-7.788.73-2.106.03-4.197-.509-5.808-2.05-3.266-3.122-3.13-9.457 2.466-11.435 3.375-1.194 6.747-.846 10.158.114zm25.393-.478v6.964c0 1.91-.039 3.82.019 5.727.023.763-.237.964-.955.917-.831-.054-1.67-.012-2.602-.012-.02-.322-.04-.501-.04-.68V53.916h3.578zm-19.262-.081c2.55.017 5.1-.015 7.647.076 1.296.047 2.537.36 3.574 1.293 1.427 1.286 1.733 4.808-.758 5.885-.336.145-.637.369-1.083.632l3.663 5.784c-1.247 0-2.302.06-3.343-.035-.349-.032-.748-.402-.972-.722-.79-1.134-1.522-2.308-2.26-3.478-.288-.458-.634-.685-1.212-.649-.829.053-1.664.014-2.517.014.589-2.016.924-2.257 2.967-2.38.608-.037 1.236-.134 1.805-.34.965-.35 1.36-1.095 1.213-2.033-.138-.887-.716-1.48-1.716-1.515-1.732-.06-3.469-.017-5.3-.017-.017.365-.045.692-.045 1.018-.004 3.083-.02 6.167.012 9.25.007.685-.199.945-.9.905-.83-.048-1.664-.011-2.569-.011V53.834c.627 0 1.21-.003 1.794 0zm-31.376-.022c.986.089 1.99-.029 2.98.048.348.027.841.284.98.572 1.553 3.204 3.044 6.437 4.563 9.657.52 1.102 1.077 2.187 1.682 3.414-1.224 0-2.28.055-3.325-.036-.284-.025-.63-.446-.776-.763-1.55-3.334-3.066-6.684-4.595-10.028-.048-.104-.141-.188-.366-.477-.87 1.972-1.68 3.805-2.57 5.818h4.602c-.36 1.796-1.016 2.348-2.69 2.346-.591-.001-1.191.066-1.77-.015-1.092-.151-1.643.348-2.009 1.308-.663 1.741-.732 1.848-2.384 1.854h-1.894c.484-1.034.895-1.924 1.318-2.81 1.573-3.297 3.158-6.59 4.72-9.893.316-.67.69-1.07 1.534-.995zm91.994.096v1.05c-.013 3.204-.01 6.41-.053 9.614-.009.628.325.62.758.62l3.032-.003h4.22c-.349.752-.607 1.402-.957 2-.105.18-.462.304-.705.306-3.079.02-6.157.008-9.235.021-.505.003-.741-.16-.74-.688.01-4.282.005-8.564.005-12.92h3.675zm22.746 1.335c.065.23.113.462.204.844h-9.842c0 2.973.007 5.742-.004 8.511-.003.695.477.59.901.59 2.89.003 5.781 0 8.671.003.246 0 .49.022.825.039-.279.64-.497 1.241-.805 1.793-.123.22-.447.465-.68.467-4.038.028-8.076.02-12.194.02V53.92c.312-.014.64-.041.968-.042l5.082-.002h5.081c1.405 0 1.406 0 1.793 1.368zM48.93 63.135v4.012H0v-4.012h48.93zm96.849-7.39c-2.608.033-4.885 1.914-4.7 4.908-.265 3.126 2.2 4.907 4.636 4.947 2.88.048 4.845-1.998 4.855-5.01.01-2.845-1.978-4.882-4.791-4.845zm31.393 3.596c1.443.085 2.896.019 4.431.019-.664 1.557-1.62 2.416-3.281 2.36-1.42-.048-2.843-.01-4.422-.01.18-.323.285-.473.353-.637.538-1.301 1.498-1.816 2.919-1.732zM21.178 33.155c1.07 2.639 1.085 2.818 2.002 5.347C-4.532 43.784-2.848 65.848 33.6 48.709l1.115-.531-3.588-8.511-4.89 10.827s-6.087 2.417-8.868 2.358c1.094-2.036 10.166-18.521 10.393-18.933l.004-.008h7.487l5.183 11.332c3.3-1.787 6.83-3.853 10.597-6.232l.873-.555v5.908c-2.962 1.949-5.781 3.687-8.465 5.236l-.802.459 4.531 9.905h-7.487l-2.86-6.787C-10.27 76.801-7.962 34.344 21.177 33.155zm49.454.88c1.376.098 2.723.543 4.094.772.633.106.828.417.798 1.002-.028.543-.006 1.088-.006 1.605-1.618-.282-3.119-.674-4.64-.783-3.593-.257-6.597 2.057-5.542 5.989.496 1.848 1.923 2.81 3.815 2.985 1.033.095 2.087.083 3.121 0 1-.081 1.987-.315 3.153-.51 0 .72.024 1.415-.018 2.106-.009.155-.222.391-.381.43-3.092.76-6.18 1.223-9.292.029-4.595-1.763-5.867-8.002-2.302-11.343 2.04-1.912 4.526-2.474 7.2-2.283zm42.024.331c2.725.103 5.462.092 8.172.35 2.752.263 4.614 1.824 5.362 4.512.758 2.722.208 5.188-2.002 7.023-.903.75-2.144 1.386-3.291 1.504-3.102.32-6.236.333-9.453.472V34.364c.428 0 .82-.012 1.212.002zm-28.083.012c1.483.038 2.985.082 4.44.343 3.22.576 3.817 4.165 2.506 5.86-.291.376-.715.662-1.11.946-.366.265-.775.47-1.243.75l3.736 5.832c-1.31 0-2.44.026-3.565-.023-.211-.01-.464-.28-.604-.492-.863-1.308-1.666-2.655-2.567-3.937-.219-.31-.712-.555-1.105-.598-.821-.091-1.66-.028-2.541-.028.49-1.671 1.44-2.389 3.113-2.292.72.041 1.577-.205 2.166-.612.43-.297.687-1.061.726-1.637.048-.714-.449-1.338-1.193-1.45-1.185-.179-2.393-.269-3.593-.29-2.208-.041-2.331-.017-2.338 1.941v9.368h-3.366V34.364c2.201 0 4.37-.04 6.538.014zm48.436-.013v13.742c-1.085 0-2.13.028-3.17-.029-.165-.009-.44-.403-.44-.62-.027-4.125-.03-8.25.006-12.376.002-.24.355-.668.57-.684.98-.074 1.971-.033 3.034-.033zm-24.814 1.114c.075.354.19.7.32 1.17h-9.772c-.036.366-.084.627-.085.888-.006 2.433.023 4.866-.018 7.298-.013.78.262 1.004 1.025.992 2.485-.04 4.972-.005 7.458-.024.6-.005 1.198-.109 1.996-.186-.395.862-.688 1.558-1.038 2.225-.073.14-.352.245-.536.246-4.069.014-8.138.01-12.286.01V34.364h.975c3.482 0 6.965.044 10.445-.029.946-.02 1.343.318 1.516 1.144zm41.044-1.113c-.221 1.857-.563 2.164-2.331 2.165-.684 0-1.37.044-2.05-.012-.812-.067-1.08.225-1.07 1.043.041 3.233.017 6.466.017 9.699v.78h-3.433v-6.699c0-1.232-.054-2.466.018-3.694.054-.924-.314-1.17-1.185-1.133-1.331.058-2.668.016-4.145.016.306-.685.57-1.317.878-1.925.064-.125.3-.23.458-.23 4.278-.012 8.557-.01 12.843-.01zm-34.235 2.168v9.275c.936 0 1.81.085 2.66-.02 1.21-.15 2.48-.178 3.509-.991 1.294-1.024 1.66-2.358 1.67-3.977.008-1.46-1.386-3.483-2.818-3.693-1.633-.24-3.28-.392-5.021-.594zm-63.098-5.35v5.302l-10.549 5.952-2.03-4.096 12.58-7.157zm50.628 8.705c1.317.124 2.656.025 3.99.025-.159 1.123-1.043 2.156-2.086 2.204-1.747.079-3.501.021-5.294.021.543-1.757 1.642-2.415 3.39-2.25zm2.902-8.704c-1.007 2.025-2.42 2.768-4.582 2.346.46-.677.875-1.351 1.363-1.968.136-.17.486-.215.745-.238.76-.068 1.525-.096 2.287-.14h.187z"/>
</svg>
