<svg xmlns="http://www.w3.org/2000/svg" width="184" height="100" viewBox="0 0 184 100">
    <path fill-rule="evenodd" d="M110.115 44.288c.15.607.014 1.211-.275 1.722-.468.828-1.013 1.616-1.572 2.387-.807 1.115-1.556 2.25-1.874 3.618-.222.95-.023 1.809.526 2.595.335.48.664.46.928-.065.516-1.025.959-2.09 1.529-3.083 1.592-2.774 3.919-4.782 6.717-6.27.487-.26.966-.132 1.36.335.57.675.882 1.486 1.009 2.333.627 4.205-1.215 9.509-6.726 11.4-.632.216-1.318.274-1.969.445-.162.043-.378.218-.41.367-.442 2.018-.942 4.028-1.25 6.067-.286 1.882-.342 3.797-.536 5.693-.039.376.07.809-.204 1.138l-.095.095h-.416c-.598-.328-1.215-.627-1.79-.993-.544-.346-.77-.848-.786-1.54-.094-3.933.749-7.71 1.803-11.456.09-.32.058-.494-.208-.726-1.39-1.215-2.062-2.738-2.034-4.617.023-1.455.461-2.735 1.2-3.952 1.07-1.758 2.27-3.418 3.643-4.95.248-.278.528-.531.818-.766.324-.262.509-.194.612.223zm61.196 20.564c.667.043 1.323.24 1.985.359.28.05.398.188.364.483-.028.242-.006.49-.006.758-.557-.159-1.06-.353-1.582-.437-.483-.077-.99-.083-1.475-.027-.213.024-.399.28-.596.431.153.174.275.426.467.508.543.228 1.12.372 1.673.578.373.139.753.286 1.085.498 1.053.672 1.027 1.97-.05 2.607-.775.458-1.646.583-2.519.496-.664-.066-1.313-.281-1.97-.425-.263-.057-.358-.207-.338-.473.02-.273.004-.549.004-.82.581.19 1.116.419 1.674.528.492.096 1.01.09 1.515.069.29-.012.585-.163.62-.509.035-.331-.218-.496-.488-.588-.534-.183-1.086-.312-1.61-.518-.457-.18-.94-.365-1.315-.668-.83-.67-.726-1.767.174-2.335.73-.461 1.56-.569 2.388-.515zm-38.013.135c.444.256.631.967.92 1.484.761 1.366 1.517 2.736 2.274 4.104.072.131.139.266.244.466-.637 0-1.225.012-1.811-.012-.094-.004-.23-.153-.262-.26-.25-.845-.802-1.094-1.65-.99-.656.08-1.33.03-1.994.009-.278-.009-.47.067-.532.336-.188.808-.695 1.065-1.479.926-.255-.045-.525-.007-.876-.007.238-.479.438-.886.642-1.29.758-1.51 1.524-3.015 2.27-4.53.115-.232.24-.322.499-.311.595.023 1.306-.184 1.755.075zm10.551-.111c1.427.045 2.839.034 4.239.154.947.08 1.611.874 1.606 1.671-.004.542-.297.904-.727 1.178-.161.103-.337.181-.547.292 1.047.702 1.37 1.864 2.085 2.87-.703 0-1.308.014-1.91-.014-.106-.005-.23-.171-.302-.29-.283-.475-.531-.971-.826-1.439-.32-.507-.749-.827-1.406-.78-.3.022-.42.088-.408.401.019.54.006 1.083.003 1.624 0 .1-.007.2-.014.306l-.01.167h-1.783v-6.14zm-25.486.036l.98.013c.507.013 1.026.044 1.515.167.96.242 1.514.958 1.455 1.762-.055.746-.795 1.491-1.68 1.596-.613.073-1.233.089-1.893.115l-.503.023v2.43h-1.839v-6.1l.984-.004.98-.002zm42.029.025v6.07h-1.816v-6.07h1.816zm-28.087 1.337l-.953 2.03-.235.499h2.509l-1.321-2.529zm-13.805-.297c-.086-.001-.244.142-.25.226-.025.412-.01.826-.01 1.337.578-.045 1.085-.068 1.588-.128.379-.045.597-.292.6-.674.004-.394-.256-.62-.609-.675-.434-.069-.878-.082-1.319-.086zm27.192-.052v1.607c.556-.05 1.08-.059 1.588-.155.312-.058.527-.323.526-.666-.002-.341-.197-.603-.53-.653-.512-.078-1.034-.09-1.584-.133zm16.662-21.12c2.46.172 4.732.894 6.821 2.189 1.398.866 2.566 1.975 3.436 3.384 1.303 2.112 1.287 4.228.005 6.338-1.455 2.393-3.632 3.647-6.366 3.99-.505.064-1.02.075-1.53.079-.24.001-.367.058-.445.304-.274.867-.433.977-1.361 1.034-.85.052-1.22-.141-1.543-.89-.173-.402-.256-.843-.41-1.255-.06-.163-.173-.327-.306-.437-.551-.458-1.182-.835-1.665-1.353-.87-.932-.743-2.549-.28-3.487.219-.446.81-.519 1.153-.154.227.242.42.516.644.762.114.126.26.221.471.394l.152-1.317c.156-1.33.352-2.653.833-3.913.117-.307.272-.607.457-.878.26-.38.719-.502 1.14-.345.433.16.474.52.471.918-.014 2.304-.02 4.608-.028 6.911 0 .068.014.135.026.243.477.082.946.212 1.42.234 1.201.056 2.408.108 3.578-.27 1.535-.494 1.69-1.15 1.451-2.526-.43-2.488-1.937-4.312-3.906-5.77-1.44-1.067-2.997-1.957-4.779-2.298-.728-.14-1.51-.129-2.25-.035-.613.078-.768.438-.705 1.074.032.323-.254.532-.57.414-.614-.229-.886-1.184-.466-1.767.19-.263.453-.49.723-.672 1.16-.777 2.442-.999 3.829-.902zM20.008 26l.723.012c7.946.24 15.16 2.804 21.818 7.05 2.807 1.789 5.37 3.882 7.56 6.404 1.738 2.002 3.209 4.17 3.906 6.774.882 3.298.138 6.251-2.019 8.842-2.245 2.696-5.235 4.197-8.55 5.119-1.924.535-3.894.795-5.892.748-2.107-.049-4.153-.49-6.166-1.093l-.47-.141c-.05.275-.091.527-.138.778-.191 1.027-.843 1.651-1.695 1.624-1.15-.036-1.872-.658-2.002-1.759-.076-.644-.137-1.293-.16-1.941-.012-.29-.177-.37-.382-.468-1.927-.92-3.772-1.98-5.48-3.268-1.412-1.063-2.764-2.203-3.681-3.744-.324-.545-.566-1.177-.68-1.8-.19-1.031.447-1.729 1.203-2.3 1.2-.905 2.588-1.434 4.013-1.815 1.632-.437 3.299-.743 4.946-1.123.116-.027.28-.184.288-.291.076-1.023.048-2.059.197-3.07.219-1.482.512-2.958.866-4.414.193-.791.842-.87 1.34-.205.68.904 1.062 1.958 1.128 3.071.063 1.05.036 2.103.023 3.157l-.006.79v.455c.256 0 .486.015.714-.002 2.794-.201 5.548.003 8.225.867 1.354.436 2.616 1.065 3.59 2.149.983 1.093 1.272 2.432.442 3.55-.799 1.077-1.833 1.76-3.245 1.666-.468-.031-.867-.215-1.254-.596.226-.11.42-.176.58-.289.446-.313.96-.58 1.297-.989.487-.592.328-1.12-.374-1.43-.627-.277-1.278-.546-1.946-.67-1.528-.28-3.067-.53-4.613-.677-1.109-.105-2.235-.02-3.387-.02.001-.005-.025.046-.024.097.052 3.207.105 6.415.172 9.621.003.106.147.281.249.3l1.573.304c.787.15 1.576.29 2.37.372 1.373.143 2.764.213 4.143.168 2.834-.091 5.53-.734 7.836-2.498 2.298-1.759 3.47-4.1 3.316-7.016-.084-1.6-.696-3.059-1.475-4.445-1.314-2.338-3.077-4.306-5.08-6.06-4.403-3.857-9.475-6.468-15.091-8.044-1.898-.533-3.819-.969-5.785-1.132-1.79-.148-3.587-.322-5.378-.295-1.704.025-3.405.29-5.105.466-.227.024-.462.109-.66.224-.132.076-.204.255-.302.389.154.112.296.29.465.321.236.045.492-.018.739-.037.11-.008.219-.025.329-.03.335-.018.562.182.57.474.005.18-.19.5-.338.527-.603.108-1.223.184-1.833.165-.65-.02-1.146-.33-1.371-.954l-.047-.15v-.166c.866-1.79 2.324-2.735 4.25-3.064 1.67-.285 3.35-.454 5.036-.484l.722-.004zm102.179 17.24c.348.265.69.555.972.89.856 1.017 1.208 2.171 1.114 3.533-.15 2.171-.75 4.223-1.39 6.269l-.35 1.115c-.107.342-.202.688-.274 1.039-.135.651.232 1.14.892 1.061.813-.098 1.614-.312 2.417-.495.468-.107.925-.267 1.394-.373.904-.205 1.427.283 1.246 1.186-.192.959-.67 1.755-1.498 2.305-1.025.682-2.105 1.219-3.383 1.19-1.032-.034-2.02-.267-2.944-.728-1.026-.514-1.494-1.424-1.692-2.514-.248-1.367.185-2.618.616-3.877.787-2.295 1.565-4.593 2.324-6.897.358-1.087.391-2.193.05-3.3-.04-.128-.031-.386.015-.402.152-.05.383-.085.49-.003zm16.132.892c1.356 1.157 2.164 2.68 2.848 4.283.687 1.612 1.125 3.29 1.202 5.045.05 1.16.094 2.322.072 3.482-.025 1.365-.629 2.452-1.791 3.182-.267.168-.618.301-.925.29-.822-.03-1.054-.308-1.06-1.149-.011-1.264.003-2.527-.006-3.791-.002-.286-.055-.57-.09-.908-1.368.202-2.661.398-3.956.583-.6.086-1.202.169-1.806.212-.253.018-.397.11-.447.335-.087.389-.202.78-.218 1.174-.033.846-.005 1.694-.01 2.541-.006.953-.398 1.221-1.255.793-1.012-.506-1.543-1.398-1.596-2.5-.035-.735.123-1.48.2-2.22.037-.356-.005-.651-.19-1.005-.304-.586-.44-1.266-.603-1.918-.089-.354-.087-.73-.143-1.252.358.128.6.212.84.302.036.013.062.053.096.078.68.51.83.46 1.023-.373.512-2.216 1.346-4.291 2.642-6.17.728-1.058 1.832-1.445 3.004-1.744.899-.228 1.544.197 2.169.73zm-35.974.125c.822.005 2.108 1.28 2.237 2.071.055.337-.105.607-.401.696-.666.202-1.345.369-2.028.5-.257.05-.527.027-.796.016l-.2-.005h-2.903c-.45.002-.813.091-.984.607-.124.374-.382.704-.57 1.058-.206.389-.131.574.305.617.783.078 1.57.116 2.357.164.634.038 1.27.071 1.904.094.354.013.486.212.492.53.007.334-.018.669.009 1 .026.322-.132.464-.41.509-.409.066-.818.146-1.23.166-.967.048-1.937.059-2.906.095-.372.014-.753.018-1.112.101-.2.046-.45.209-.529.386-.345.78-.664 1.574-.937 2.382-.18.532-.036.721.514.658.458-.052.913-.12 1.367-.196l1.363-.233c.909-.152 1.814-.327 2.725-.465.648-.1 1.602.595 1.722 1.236.086.464-.117.835-.512 1.046-1.12.597-2.228 1.234-3.396 1.721-1.009.421-2.084.703-3.15.96-.511.123-1.076.094-1.607.04-.293-.029-.62-.195-.841-.397-.678-.618-1.347-1.286-1.491-2.24-.196-1.3-.032-2.564.626-3.733.108-.193.252-.374.317-.58.06-.196.093-.432.042-.625-.153-.584-.233-1.156-.1-1.759.08-.372.237-.597.636-.52.48.095.688-.134.84-.557.268-.754.575-1.494.885-2.231.126-.3-.096-.354-.264-.398-.384-.101-.782-.15-1.17-.24-.5-.117-1.062-.819-1.082-1.324-.016-.378.246-.471.536-.491.62-.043 1.245-.04 1.865-.093 1.416-.12 2.828-.281 4.244-.389 1.21-.091 2.422-.183 3.633-.177zm51.537-.218c.365.234.722.528.98.874 1.136 1.516 1.723 3.26 1.98 5.12.123.902.17 1.816.252 2.724-.04 1.466-.172 2.907-.668 4.293-.277.778-.68 1.48-1.31 2.038-1.152 1.02-2.448.942-3.317-.318-.551-.8-.98-1.695-1.384-2.585-.574-1.27-1.068-2.575-1.61-3.86-.134-.316-.303-.623-.493-.91-.199-.3-.404-.304-.557.022-.244.522-.5 1.06-.614 1.618-.402 1.956-.754 3.921-1.107 5.886-.09.505-.349.891-.755.992-.404.1-1.144-.196-1.355-.625-.152-.309-.284-.692-.244-1.02.215-1.78.398-3.57.763-5.321.384-1.844.944-3.653 1.46-5.467.27-.947 1.057-1.354 1.927-1.567.207-.051.572.115.713.299.58.754 1.164 1.518 1.629 2.345.88 1.566 1.674 3.18 2.517 4.768.16.303.366.589.588.852.09.107.285.191.417.173.079-.01.172-.237.183-.372.044-.553.085-1.108.082-1.662-.015-2.58-.3-5.128-.92-7.637-.055-.22-.017-.596.123-.698.158-.113.535-.081.72.038zm-67.899-2.476c1.03.635 1.72 1.591 2.376 2.577.89 1.342 1.225 2.885 1.582 4.416.29 1.242.469 2.505.413 3.782-.073 1.657-.477 3.22-1.445 4.6-1.15 1.639-2.593 1.462-3.771.162-.857-.946-1.366-2.108-1.887-3.255-.457-1.006-.881-2.027-1.345-3.03-.161-.349-.375-.68-.61-.985-.09-.117-.304-.189-.46-.186-.074.002-.188.22-.209.352-.096.613-.202 1.228-.236 1.846-.06 1.066-.048 2.136-.105 3.203-.054 1.007-.141 2.014-.248 3.017-.05.461-.72.93-1.192.9-.518-.033-1.048-.522-1.09-1.02-.044-.523-.076-1.049-.124-1.708.117-1.556.238-3.24.371-4.924.124-1.555.295-3.107.756-4.604.157-.509.384-1.01.662-1.462.34-.554.888-.677 1.377-.26.552.469 1.05 1.022 1.49 1.6 1.237 1.627 2.11 3.474 3.097 5.252.308.555.67 1.083 1.037 1.602.098.138.305.2.462.297.092-.158.256-.312.262-.473.029-.702.056-1.41.002-2.109-.087-1.1-.154-2.213-.385-3.288-.302-1.41-.761-2.788-1.14-4.183-.15-.556-.318-1.116-.383-1.685-.065-.568.249-.738.743-.434zm-15.138 1.941c1.454.121 3.16.261 4.867.408.15.012.318.027.438.103.23.145.55.295.622.513.134.405.051.883-.385 1.08-.557.253-1.15.524-1.746.574-1.792.147-3.596.145-5.388.29-1.522.123-3.035.369-4.552.56-.04.006-.093 0-.121.022-.218.177-.43.36-.645.542.194.158.365.405.585.46.837.207 1.683.417 2.538.509 1.999.216 4.022.243 5.964.847 1.003.312 1.921.772 2.636 1.576.432.487.66 1.064.708 1.692.08 1.054.01 2.095-.353 3.11-.306.851-.886 1.424-1.665 1.821-1.256.64-2.6.95-3.996 1.11-1.91.221-3.745-.013-5.506-.778-.922-.4-1.768-.918-2.387-1.743-.618-.823-.839-1.732-.59-2.738.162-.655.56-1.136 1.142-1.463.9-.507 1.87-.715 2.9-.699 1.83.029 3.585.397 5.27 1.1.303.128.6.289.87.475.377.26.39.532-.02.718-.62.282-1.273.525-1.936.681-1.13.267-2.203.11-3.213-.54-.634-.406-1.322-.747-2.107-.804-.678-.05-1.183.23-1.537.786-.319.5-.19 1.076.373 1.381.415.225.889.39 1.354.463 2.466.38 4.9.195 7.275-.576.48-.156.955-.38 1.374-.661.946-.634.944-1.647-.074-2.137-1.11-.534-2.28-1.008-3.475-1.28-1.186-.27-2.436-.256-3.657-.37-1.167-.11-2.343-.163-3.497-.35-1.733-.279-2.006-1.848-1.651-2.981.438-1.401 1.406-2.261 2.728-2.681 1.12-.356 2.289-.588 3.453-.765 1.035-.157 2.093-.164 3.404-.255zm-12.351.461c.426.608.603 1.307.654 2.028.085 1.202.13 2.407.183 3.611.075 1.718.142 3.436.213 5.154l-.055.002v2.291c-.001 1.322-.87 1.985-2.13 1.626-.08-.022-.155-.057-.235-.077-.708-.18-.826-.732-.836-1.343-.03-1.956-.114-3.913-.065-5.866.037-1.476.235-2.948.384-4.42.09-.891.217-1.78.337-2.668.052-.382.295-.628.657-.719.377-.095.676.072.893.381zm57.779 4.453c-.292.177-.57.4-.8.654-1.8 1.977-3.224 4.214-4.447 6.583-.083.163-.127.429-.048.565.06.102.358.133.527.094.889-.202 1.763-.467 2.51-1.015 1.206-.884 2.043-2.09 2.841-3.33.45-.698.59-1.476.685-2.35-.036-.203-.06-.48-.138-.742-.17-.568-.629-.762-1.13-.459zm-89.455-1.464h-.094c-1.912.14-3.83.243-5.735.446-.797.085-1.59.33-2.35.598-.814.287-.99.764-.59 1.533.25.484.574.954.952 1.345 1.79 1.855 4.015 3.057 6.326 4.115.472.216.955.405 1.484.627l.212-8.644-.107-.01-.098-.01zm108.02-.073c-.11.124-.212.258-.297.4-.858 1.42-1.266 2.985-1.502 4.61-.059.402.116.451.43.44.926-.035 1.854-.036 2.778-.098.712-.048 1.419-.168 2.162-.26-.143-.637-.238-1.251-.422-1.837-.32-1.023-.618-2.065-1.07-3.03-.508-1.082-1.283-1.121-2.079-.225zM63.015 29.49c.744.232 1.302.684 1.542 1.44.104.328.261.43.588.399 1.1-.104 1.923.344 2.507 1.28.382.613.494 1.266.162 1.89-.36.679-.77 1.353-1.277 1.923-1.208 1.36-2.68 2.406-4.298 3.225-1.838.93-3.79 1.022-5.77.588-.474-.104-.766.017-1.014.385-.124.183-.252.365-.374.549-.268.402-.957.421-1.125-.178-.187-.667-.307-1.32.067-1.964-1.299-1.297-1.339-2.85-.786-4.432.36-1.03 1.16-1.816 1.966-2.544 1.498-1.355 3.24-2.247 5.229-2.616.858-.159 1.728-.211 2.583.055zm-.662 3.692c-.825.522-1.61 1.132-2.326 1.797-1.033.958-1.99 2.001-2.978 3.008l.036.172c.423.083.844.224 1.27.242 2.1.087 4.002-.53 5.73-1.701.765-.518 1.452-1.12 1.797-2.015.33-.853.086-1.437-.74-1.83-1-.474-1.944-.208-2.79.327zm-3.344-.97c-.283.017-.586.057-.839.175-1.273.595-2.344 1.464-3.242 2.54-.164.198-.282.446-.371.69-.195.53-.046.97.447 1.34 1.27-1.73 2.76-3.202 4.56-4.53-.253-.103-.408-.223-.555-.215z"/>
</svg>
