<svg xmlns="http://www.w3.org/2000/svg" width="184" height="27" viewBox="0 0 184 27">
    <path fill-rule="evenodd" d="M80.203 15.812c.822.84 1.866 1.26 3.132 1.26 1.265 0 2.314-.42 3.147-1.26.833-.84 1.25-1.919 1.25-3.238 0-1.318-.417-2.397-1.25-3.238-.833-.84-1.882-1.26-3.147-1.26-1.266 0-2.31.42-3.132 1.26-.823.84-1.234 1.92-1.234 3.238 0 1.319.411 2.398 1.234 3.238M55.36 4.599l4.126 10.72L62.986 4.6h4.365l-5.767 15.976c-.822 2.277-1.913 3.932-3.271 4.965-1.36 1.032-3.05 1.495-5.071 1.39V23.1c1.096.021 1.966-.212 2.61-.702.643-.49 1.154-1.276 1.534-2.36l-6.485-15.44h4.46zm28.733-.447c2.13 0 3.949.814 5.457 2.441 1.508 1.627 2.262 3.62 2.262 5.981 0 2.36-.754 4.354-2.262 5.981-1.508 1.628-3.327 2.44-5.457 2.44-2.215 0-3.923-.775-5.125-2.328v8.262h-4.08V4.6h4.08v1.882c1.202-1.552 2.91-2.329 5.125-2.329zm-39.742 0c1.286 0 2.457.293 3.512.878 1.054.585 1.887 1.42 2.499 2.504l-3.48 1.914c-.506-1.085-1.35-1.627-2.53-1.627-.529 0-.966.117-1.314.35-.348.235-.522.554-.522.958 0 .425.28.771.839 1.037.558.266 1.238.5 2.04.701.801.203 1.603.458 2.404.766.802.308 1.482.824 2.04 1.547.56.723.839 1.627.839 2.712 0 1.638-.607 2.898-1.819 3.78-1.213.882-2.726 1.324-4.54 1.324-3.248 0-5.462-1.265-6.643-3.797l3.543-2.009c.464 1.383 1.497 2.074 3.1 2.074 1.456 0 2.183-.458 2.183-1.372 0-.425-.28-.77-.838-1.037-.56-.266-1.24-.505-2.04-.718-.803-.212-1.604-.478-2.405-.797-.802-.32-1.482-.824-2.04-1.515-.56-.691-.839-1.558-.839-2.6 0-1.574.575-2.813 1.724-3.717 1.15-.903 2.579-1.356 4.287-1.356zm-18.411 0c2.214 0 3.933.777 5.156 2.33V4.598h4.081v15.95h-4.08v-1.882c-1.224 1.553-2.943 2.329-5.157 2.329-2.11 0-3.918-.813-5.426-2.44-1.508-1.628-2.261-3.621-2.261-5.982 0-2.36.753-4.354 2.261-5.981 1.508-1.627 3.317-2.44 5.426-2.44zm-17.59 0c2.32 0 4.234.809 5.742 2.425 1.508 1.616 2.262 3.615 2.262 5.997 0 .532-.053 1.096-.158 1.69H4.271c.548 2 2.035 3 4.46 3 1.56 0 2.742-.532 3.543-1.596l3.29 1.914c-1.56 2.276-3.859 3.414-6.896 3.414-2.615 0-4.714-.798-6.296-2.393C.791 17.008 0 15 0 12.573c0-2.402.78-4.406 2.341-6.012 1.56-1.606 3.564-2.409 6.01-2.409zm93.206 0c2.214 0 3.932.777 5.156 2.33V4.598h4.08v15.95h-4.08v-1.882c-1.224 1.553-2.942 2.329-5.156 2.329-2.11 0-3.919-.813-5.426-2.44-1.508-1.628-2.262-3.621-2.262-5.982 0-2.36.754-4.354 2.262-5.981 1.507-1.627 3.316-2.44 5.426-2.44zm62.604 0c2.32 0 4.234.809 5.742 2.425 1.508 1.616 2.262 3.615 2.262 5.997 0 .532-.053 1.096-.158 1.69H160.08c.549 2 2.035 3 4.46 3 1.561 0 2.742-.532 3.544-1.596l3.29 1.914c-1.561 2.276-3.86 3.414-6.896 3.414-2.616 0-4.714-.798-6.296-2.393-1.582-1.595-2.372-3.604-2.372-6.03 0-2.402.78-4.406 2.34-6.012 1.561-1.606 3.565-2.409 6.011-2.409zM131.672.133v4.466h3.575v3.956h-3.575v6.635c0 .553.137.957.411 1.212.274.255.675.399 1.203.43.527.033 1.18.028 1.96-.015v3.732c-2.804.32-4.781.053-5.93-.797-1.15-.85-1.725-2.372-1.725-4.562V8.555h-2.752V4.599h2.752V1.377l4.081-1.244zm-8.288 4.147v4.594c-1.245-.149-2.356.106-3.337.765-.98.66-1.471 1.755-1.471 3.286v7.624h-4.081V4.6h4.08v2.743c.38-1.02 1.008-1.786 1.883-2.296.875-.51 1.85-.766 2.926-.766zm23.79-.128c1.728 0 3.157.586 4.286 1.755 1.128 1.17 1.692 2.786 1.692 4.849v9.793h-4.08v-9.283c0-1.063-.285-1.876-.854-2.44-.57-.563-1.33-.846-2.278-.846-1.055 0-1.899.33-2.531.99-.633.659-.95 1.648-.95 2.966v8.613h-4.08V4.6h4.08v1.787c.992-1.489 2.563-2.234 4.714-2.234zm36.728.128v4.594c-1.245-.149-2.357.106-3.338.765-.98.66-1.47 1.755-1.47 3.286v7.624h-4.082V4.6h4.081v2.743c.38-1.02 1.007-1.786 1.882-2.296.875-.51 1.85-.766 2.927-.766zm-81.586 3.796c-1.266 0-2.31.42-3.132 1.26-.823.84-1.234 1.92-1.234 3.238 0 1.319.411 2.398 1.234 3.238.822.84 1.866 1.26 3.132 1.26 1.265 0 2.314-.42 3.147-1.26.833-.84 1.25-1.919 1.25-3.238 0-1.318-.417-2.397-1.25-3.238-.833-.84-1.882-1.26-3.147-1.26zm-75.616 0c-1.265 0-2.31.42-3.132 1.26-.822.84-1.234 1.92-1.234 3.238 0 1.319.412 2.398 1.234 3.238.823.84 1.867 1.26 3.132 1.26 1.265 0 2.314-.42 3.148-1.26.833-.84 1.25-1.919 1.25-3.238 0-1.318-.417-2.397-1.25-3.238-.834-.84-1.883-1.26-3.148-1.26zm137.461-.223c-1.097 0-2.004.282-2.72.845-.718.564-1.192 1.356-1.424 2.377h8.067c-.232-1.085-.712-1.893-1.44-2.424-.727-.532-1.555-.798-2.483-.798zm-155.81 0c-1.096 0-2.003.282-2.72.845-.717.564-1.192 1.356-1.424 2.377h8.067c-.232-1.085-.711-1.893-1.439-2.424-.728-.532-1.555-.798-2.484-.798z"/>
</svg>
