<svg xmlns="http://www.w3.org/2000/svg" width="184" height="100" viewBox="0 0 184 100">
    <path fill-rule="evenodd" d="M121.438 73.953c5.601 0 8.406 2.016 8.406 6.032 0 4.01-2.805 6.01-8.406 6.01-5.625 0-8.437-2-8.437-6.01 0-4.016 2.812-6.032 8.437-6.032zM52.192 71.24c2.912 0 5.55 1.027 7.251 2.756.523.53.425 1.404-.21 1.797l-6.5 4.027c-.745.465-1.748.262-2.23-.457-.22-.337-.302-.75-.22-1.154.092-.404.334-.749.702-.967l4.131-2.57-.212-.104c-.812-.346-1.718-.526-2.712-.526-3.19 0-5.408 1.83-5.408 4.467 0 2.623 2.218 4.452 5.408 4.452 2.72 0 4.748-1.353 5.279-3.392.137-.523.59-.903 1.133-.903h1.425c.767 0 1.328.728 1.122 1.463-.914 3.266-4.525 5.641-8.96 5.641-5.15 0-9.191-3.2-9.191-7.26 0-4.077 4.042-7.27 9.192-7.27zm53.096-2.42c.641 0 1.161.516 1.161 1.154v11c0 .607-.188 1.626.43 1.978.867.487 2.88.24 5.082.24v2.053c-8.684.453-9.032-.512-9.046-3.826V69.974c0-.638.52-1.155 1.16-1.155h1.213zm-35.026 4.638c4.855 0 7.275 1.177 7.275 3.522h-2.723c-.368 0-.74-.155-.932-.467-.077-.126-.192-.228-.347-.305-.544-.293-1.637-.441-3.273-.441-1.628 0-2.722.148-3.265.448-.316.15-.482.413-.482.765 0 .443.226.742.672.884.444.15 1.507.255 3.22.33 2.065.09 3.588.285 4.59.6 1.695.562 2.54 1.543 2.54 2.937 0 2.353-2.42 3.537-7.275 3.537-3.252 0-5.419-.533-6.493-1.595-.72-.711-.164-1.942.851-1.942h1.08c.368 0 .744.15.937.46.082.13.202.237.36.32.543.292 1.637.45 3.265.45 1.636 0 2.729-.158 3.273-.45.316-.165.466-.427.466-.78 0-.435-.204-.719-.604-.869-.481-.165-1.551-.278-3.224-.36-2.088-.083-3.627-.285-4.607-.591-1.719-.548-2.587-1.53-2.587-2.931 0-2.345 2.437-3.522 7.283-3.522zm16.653 0c4.856 0 7.284 1.177 7.284 3.522H91.48c-.368 0-.746-.149-.94-.46-.081-.128-.202-.233-.36-.312-.544-.293-1.629-.441-3.266-.441-1.634 0-2.72.148-3.256.448-.317.15-.483.413-.483.765 0 .443.228.742.665.884.437.15 1.516.255 3.212.33 2.065.09 3.595.285 4.598.6 1.695.562 2.548 1.543 2.548 2.937 0 2.353-2.428 3.537-7.284 3.537-3.258 0-5.42-.533-6.49-1.596-.716-.713-.16-1.94.853-1.94h1.084c.368 0 .744.149.937.46.081.13.202.236.36.319.536.292 1.622.45 3.256.45 1.637 0 2.722-.158 3.267-.45.315-.165.481-.427.481-.78 0-.435-.203-.719-.62-.869-.466-.165-1.55-.278-3.224-.36-2.09-.083-3.62-.285-4.592-.591-1.735-.548-2.586-1.53-2.586-2.931 0-2.345 2.421-3.522 7.274-3.522zm54.025 0v2.309c-2.201 0-3.723.202-4.56.598-.619.293-.92.758-.92 1.38v6.346c0 .637-.52 1.154-1.162 1.154h-1.22c-.642 0-1.162-.517-1.162-1.154v-6.346c0-2.856 3.008-4.287 9.024-4.287zm-42.037 0c.641 0 1.161.517 1.161 1.154v9.479c0 .637-.52 1.154-1.161 1.154h-1.22c-.642 0-1.161-.517-1.161-1.154v-9.479c0-.637.52-1.154 1.161-1.154h1.22zm22.535 2.855c-1.878 0-3.197.338-3.943 1.02-.619.546-.92 1.439-.92 2.652 0 1.229.301 2.105.92 2.653.746.666 2.065.997 3.943.997 1.884 0 3.203-.33 3.95-.997.61-.548.92-1.424.92-2.653 0-1.213-.31-2.106-.92-2.653-.747-.68-2.066-1.019-3.95-1.019zm-21.374-7.494v2.31h-2.381c-.642 0-1.161-.518-1.161-1.155 0-.638.52-1.155 1.161-1.155h2.38zM139.576 15c.598 0 1.091.45 1.154 1.029l.007.125V62.66c0 .595-.453 1.085-1.035 1.148l-.126.006H44.773c-.598 0-1.091-.45-1.154-1.028l-.007-.126V16.154c0-.595.453-1.085 1.035-1.147l.126-.007h94.803zm-44.534 5.097c-23.472.535-30.387 20.135-30.523 20.527l-.002.006-.066.193s8.993 16.479 28.685 16.194c21.04-.31 28.883-16.76 30.237-20.036.144-.348.11-.744-.094-1.06-10.723-16.625-28.237-15.824-28.237-15.824zm3.243 2.832s15.26 2.778 21.159 19.358c.125.352.069.744-.148 1.049-1.924 2.696-12.022 15.307-30.148 11.41-16.906-3.626-21.412-19.497-21.5-19.814l-.002-.005.099-.165s9.95-16.074 30.54-11.833zm-4.283 4.639c-8.134 0-14.504 5.051-14.504 11.486 0 6.447 6.37 11.496 14.504 11.496 7.488 0 13.493-4.287 14.397-10 .104-.657-.377-1.256-1.028-1.324l-.123-.007h-3.79c-.562 0-1.048.4-1.14.95-.584 3.463-3.843 5.797-8.316 5.797-4.944 0-8.406-2.843-8.406-6.912 0-4.068 3.462-6.915 8.406-6.915 1.406 0 2.698.229 3.874.68l.349.143.196.083-6.363 3.957c-.581.36-.988.922-1.132 1.589-.142.645-.007 1.312.355 1.866.759 1.112 2.272 1.468 3.472.83l.154-.09 10.954-6.778c.598-.37.727-1.178.282-1.72-2.626-3.198-7.14-5.131-12.141-5.131z"/>
</svg>
