<svg xmlns="http://www.w3.org/2000/svg" width="184" height="100" viewBox="0 0 184 100">
    <path fill-rule="evenodd" d="M40.83 39.758c.286-.106.572-.21.851-.33.01-.004-.068-.273-.086-.27-.336.042-.692.069-.765.6zm.574 29.585c-.278-.189-.425-.355-.503-.328-.196.07-.36.226-.538.347.1.102.213.297.299.286.2-.025.39-.15.742-.305zm5.444-19.718l-.07-.188c-.752-.07-1.062.076-1.136.695l1.206-.507zm-3.152-6.197c.226-.136.368-.242.526-.312.163-.073.352-.091.51-.173.074-.038.145-.172.138-.256-.007-.082-.1-.196-.18-.225-.347-.127-1.009.442-.994.966zm3.45 5.948c.204 0 .435.051.468-.008.247-.446.769-.313 1.104-.555.125-.09.262-.164.4-.25-.35-.395-1.653.118-1.971.813zm2.208-1.034c.446.046 1.674-.718 2.165-1.319-.66-.038-1.856.673-2.165 1.32zm6.038-13.16c.375-.724.417-.762-.09-1.311-.41-.447-.928-.8-1.422-1.163-.09-.067-.326-.018-.44.058-.071.047-.098.328-.046.364.447.314.444.642.124.914l1.874 1.139zm-18.305.61c-.184.03-.303.018-.385.067-.716.428-1.433.854-2.13 1.31-.136.089-.285.34-.248.458.045.141.285.311.44.311.471 0 .955-.027 1.41-.14.46-.114 1.082-.197.722-.975-.048-.102.063-.273.09-.414.036-.186.062-.374.1-.617zm-.332 13.186c-.05.013-.173.008-.213.063-.396.552-.713.273-1.025-.085-.107-.124-.214-.249-.312-.38-.583-.778-.828-.784-1.489-.078-.242.26-.162.39.107.536.987.536 1.965 1.086 2.954 1.617.166.089.37.107.588.166l-.61-1.84zM46.485 27c.407.612.756 1.278 1.253 1.806.17.18.756.118 1.074-.017.613-.26.735-.181.92.463.19.664.034 1.007-.721 1.094l.023.168c.23.13.446.323.692.375.354.075.731.077 1.095.058.956-.05 1.838.201 2.695.587.623.28 1.251.55 1.875.831.74.333.94.86.671 1.616-.089.25-.042.544-.102.807-.055.243-.171.47-.26.705l-.177-.023.213.447c.132-.11.235-.18.32-.266 1.698-1.743 4.47-1.22 5.382.763.383.832.258 1.703.048 2.568-.275 1.135-1.084 1.958-1.688 2.896-.985 1.53-2.486 2.527-3.92 3.584-.103.076-.218.136-.318.215-.639.507-.652.52-1.173-.039-.858-.92-1.807-1.784-2.515-2.81-1.079-1.563-2.15-3.149-2.206-5.193-.05-1.863.797-3.118 2.728-3.386.046-.006.087-.045.19-.102-.446-.234-.81-.278-1.254-.067-.781.37-1.354.941-1.831 1.633-.01.015-.027.03-.03.046-.124.758-.353 1.519-.335 2.273.012.485-.147.7-.508.796-.375.1-.612.247-.714.643-.038.148-.26.248-.398.37l-.346.313c.146.145.271.329.446.422.09.048.325-.02.393-.111.445-.599 1.026-.343 1.533-.211.573.15.551.794.798 1.216.198.338.375.689.556 1.036.144.275.266.563.427.828.09.147.245.253.363.385.298.334.594.67.89 1.007.181.209.334.45.544.625.472.393-.012.57-.27.938.286.021.486 0 .659.058.209.07.472.162.566.327.073.127-.06.39-.146.573-.03.067-.245.133-.28.1-.38-.367-.69-.086-1.066.036-.921.3-1.756.73-2.503 1.337-.042.034-.112.065-.12.107-.074.417-.138.837-.215 1.314 1.124-.448 2.383-.582 3.322-1.686 0 .22.025.3-.004.337-.601.734-1.348 1.273-2.256 1.557-1.13.354-2.286.638-3.396 1.044-.235.086-.507.612-.446.86.203.834-.124 1.59-.198 2.379-.098 1.05-.208 2.105-.407 3.14-.184.962-.409 1.932-.763 2.841-.498 1.278-1.14 2.5-1.708 3.75-.54 1.19-1.26 2.261-2.038 3.31-.264.356-.283.893-.414 1.348l.248.138.83-1.067.57.544-.808.438.055.196c.53-.08 1.058-.158 1.586-.243.084-.013.174-.108.24-.09.766.214 1.51-.026 2.255-.118.43-.053.809-.263.947-.773.175-.642.583-.883 1.253-.897.93-.019 1.86-.067 2.79-.104.055-.002.12.005.163-.021.739-.464 1.482-.115 2.229-.031.454.05.915.037 1.373.052 1.385.045 2.77.083 4.154.139.253.01.512.066.752.148.118.04.199.187.297.286-.136.069-.277.206-.405.194-.453-.042-.9-.166-1.353-.194-.207-.012-.423.127-.634.198.17.215.319.454.522.633.083.073.283.024.429.016.63-.032.93.235.962.86.018.363-.302.595-.624.408-.532-.308-1.038-.651-1.68-.28-.05.028-.162.012-.208-.027-.493-.415-1.02-.292-1.561-.128-.134.04-.32.054-.433-.008-.72-.394-1.48-.176-2.215-.135-1.317.072-2.632.308-3.945.293-.829-.009-1.664.42-2.495-.002-.126-.064-.316-.022-.474-.005-.763.08-1.527.158-2.287.264-.16.022-.303.154-.494.257-.346-.239-.666-.129-1.072.066-.453.218-1.013.21-1.524.312-.549.11-1.094.238-1.641.354-.196.041-.392.082-.59.1-.2.02-.425-.045-.601.024-.64.25-1.242.177-1.881-.025-.211-.067-.519.135-.771.24-.393.165-.76.419-1.166.52-1.26.311-2.578.381-3.745 1.058-.41.238-.926.532-1.483-.105.444-.148.851-.247 1.225-.419.47-.214.913-.487 1.366-.737.423-.233.633-.578.684-1.07.016-.159.273-.365.46-.422.71-.218 1.43-.428 2.162-.56 1.125-.2 2.265-.32 3.393-.502.785-.127 1.566-.285 2.34-.465.42-.097.68-.395.94-.762.98-1.386 1.286-3.073 2.103-4.53.156-.279.153-.759.023-1.059-.275-.63-.201-1.16-.04-1.823.336-1.393.52-2.835.625-4.267.077-1.044-.062-2.105-.13-3.158-.027-.418-.273-.533-.694-.438-.35.079-.723.054-1.087.065-.145.005-.326-.079-.43-.018-.614.355-1.295.2-1.941.291-.055.008-.115.03-.164.017-1.221-.346-2.575-.226-3.683-.942-.763-.493-1.476-1.072-2.158-1.672-.33-.29-.574-.7-.787-1.092-.078-.143-.02-.45.092-.588.5-.623 1.05-1.206 1.564-1.82.111-.132.145-.33.215-.497-.17-.024-.339-.073-.507-.069-1.005.03-2.01.095-3.014.098-.439.002-.737-.319-1.038-.976.39.204.698.479 1.032.515.622.066 1.26.01 1.889-.028.399-.023.795-.104 1.192-.162.108-.016.236-.01.318-.066.186-.128.348-.29.52-.438-.21-.15-.436-.444-.629-.424-.623.065-1.236.24-1.85.383-.198.045-.39.12-.702.218.386-1.005.762-1.818 1.697-2.227.797-.348 1.582-.724 2.36-1.113.114-.057.24-.266.216-.375-.022-.103-.248-.25-.357-.23-.37.066-.745.157-1.085.311-1.326.604-2.52 1.414-3.604 2.386-.175.157-.347.317-.58.531.01-.15-.023-.288.032-.35.37-.422.705-.898 1.15-1.224 1.167-.856 2.267-1.819 3.656-2.348.275-.104.458-.458.671-.707.312-.363.664-.618 1.182-.555.14.017.318.011.424-.062.132-.092.26-.256.284-.406.012-.073-.22-.269-.336-.264-.67.033-1.351.053-2.006.187-.526.106-1.027.354-1.528.564-.433.181-.674-.076-.858-.373-.34-.547-.254-1.326.173-1.836.457-.546.927-1.082 1.395-1.62.059-.067.138-.168.207-.167.998.012 1.4-.97 2.194-1.295.501-.205.99-.441 1.481-.668.444-.203.591-.562.4-.99-.324-.729-.054-1.304.389-1.858.182-.228.394-.438.534-.69.212-.38.562-.358.914-.463.8-.24 1.691-.146 2.4-.79.431-.39 1.085-.53 1.62-.816.335-.18.635-.425.951-.641h.22zm22.613 2.745c2.16.02 4.32.02 6.48.03 4.395.018 8.79.032 13.185.06.944.005 1.528.625 1.53 1.56.003 1.609.004 3.218.005 4.828.001 1.036-.653 1.624-1.7 1.617-3.554-.023-7.108-.024-10.662-.03-.382 0-.57.145-.475.582.059.273.002.571.002.858-.003 1.806-.003 3.612-.008 5.418 0 .34.005.68-.03 1.017-.043.424.2.498.534.496l1.923-.008c2.93-.009 5.862-.015 8.792-.027.79-.003 1.613.778 1.616 1.562.005 1.682.01 3.365.009 5.048 0 .821-.812 1.598-1.636 1.594-3.553-.014-7.106-.023-10.659-.035-.334-.002-.588.006-.585.486.028 4.057.03 8.113.04 12.17.002.727-.027 1.456.013 2.181.055.978-.892 1.57-1.777 1.523-1.619-.084-3.246-.015-4.87-.008-.652.003-1.308.055-1.957.007-.77-.056-1.339-.752-1.338-1.527l.012-14.487V50.16h-.024V31.287c0-.94.646-1.551 1.58-1.542zm65.665.001c2.017.083 4.04.021 6.06.028 4.443.014 8.887.032 13.331.051 1.153.005 1.738.615 1.733 1.774-.006 1.537-.003 3.074 0 4.611.003.95-.672 1.616-1.618 1.614-3.581-.008-7.163-.007-10.744-.014-.382 0-.545.11-.541.544.02 2.432.018 4.865-.01 7.297-.005.414.16.52.505.52.606.002 1.212 0 1.818 0 2.975-.003 5.95-.008 8.926-.009.896 0 1.67.79 1.667 1.682-.004 1.573-.007 3.147-.002 4.72.004.957-.806 1.78-1.765 1.778-3.525-.005-7.051-.004-10.577-.02-.472-.003-.614.08-.559.62.097.961.043 1.937.044 2.907.002 3.513-.004 7.026.003 10.54.001.565.064 1.118-.286 1.633-.298.437-.71.667-1.194.67-1.481.013-2.963-.038-4.445-.046-.85-.004-1.702.028-2.553.048-.778.018-1.39-.473-1.48-1.254-.055-.47-.038-.949-.038-1.424-.002-5.965-.002-11.93-.002-17.895h-.021c0-6.239.016-12.478-.016-18.716-.005-1.065.805-1.698 1.764-1.659zm-15.47 0c2.107.058 4.217.02 6.325.018 1.212-.002 1.76.537 1.76 1.728-.006 4.762-.007 9.525-.01 14.287v4.45h.009c0 6.227-.01 12.454.01 18.68.003 1.008-.449 1.787-1.89 1.742-1.984-.063-3.974.02-5.96.033-.323.002-.655 0-.967-.072-.712-.162-1.22-.805-1.221-1.554-.007-4.576-.01-9.153.005-13.73.003-1.042.039-1.034-1.02-1.034-3.319 0-6.638-.003-9.957-.013-.442-.002-.646.082-.506.605.101.378.04.8.04 1.202.003 4.286.004 8.573.003 12.859 0 .932-.553 1.674-1.325 1.731-.5.038-1.007-.001-1.51-.006l-4.504-.047c-.417-.003-.835.019-1.25-.007-.78-.048-1.357-.657-1.357-1.444 0-4.726.018-9.451.01-14.177-.004-2.652-.063-5.305-.066-7.957-.004-2.617.04-5.234.049-7.851.009-2.613 0-5.226.001-7.84.001-.909.57-1.565 1.471-1.576 2.365-.026 4.731-.023 7.096.004.943.011 1.377.586 1.38 1.724.007 2.546.002 5.093.003 7.639v5.77c0 .146.007.294-.015.438-.12.754-.082.793.7.793 3.374-.004 6.748-.004 10.122-.004.737 0 .793-.065.668-.793-.027-.16-.038-.326-.038-.49-.002-4.396-.009-8.792.002-13.188.003-1.344.645-1.956 1.941-1.92z"/>
</svg>
