<svg xmlns="http://www.w3.org/2000/svg" width="99" height="69" viewBox="0 0 99 69">
    <path fill-rule="evenodd" d="M96.526 66.637c.6 0 1.201.029 1.801.027.316-.002.478.11.436.443l-.228 1.788h-1.396c-.23-.02-.46-.058-.69-.058-31.106-.002-62.21-.002-93.316 0-.23 0-.46.038-.69.058h-1.28c-.46-.65-.163-1.377-.186-2.07-.002-.05.281-.152.436-.16.522-.027 1.045-.028 1.568-.028h93.545zm.385-17.902c1.252.86 1.745 2.11 1.936 3.529.059.44.051.892.034 1.336-.02.5-.206.77-.812.758-1.995-.044-3.992-.018-5.988-.017-.114 0-.228.024-.374.04.039 1.243.906 2.145 2.06 2.242 1.244.105 2.421-.174 3.562-.615.384-.149.583-.065.736.27.194.418.379.841.572 1.26.146.317.024.506-.268.65-2.127 1.055-4.364 1.23-6.594.547-1.66-.509-2.627-1.842-2.864-3.541-.156-1.117-.164-2.294.001-3.408.27-1.82 1.439-3.377 3.508-3.78 1.595-.31 3.096-.227 4.49.73zm-45.357-.64c1.089.321 1.967.967 2.548 2.022.593 1.079.732 2.22.752 3.405.01.609-.169.817-.774.816-1.86-.002-3.72-.019-5.58-.024-.267 0-.533.029-.784.044-.191.889.589 1.966 1.385 2.1 1.416.238 2.805.21 4.128-.468.156-.08.542-.014.619.11.279.45.505.94.678 1.442.055.161-.058.517-.195.588-2.31 1.184-4.716 1.337-7.119.384-1.043-.414-1.729-1.316-2.1-2.407-.601-1.764-.629-3.535.012-5.286.561-1.535 1.632-2.472 3.282-2.814 1.08-.224 2.13-.214 3.148.087zm22.82.653c.118.065.204.392.148.534-.2.5-.488.963-.706 1.456-.169.38-.379.356-.74.26-.683-.184-1.395-.377-2.092-.363-1.025.02-1.815.5-1.889 1.747-.054.913.004 1.846.14 2.751.092.618.53 1.01 1.225 1.128 1.011.173 1.971.098 2.87-.383.325-.174.491-.047.612.183.294.561.565 1.136.812 1.72.038.088-.062.312-.16.369-.396.232-.797.5-1.233.619-1.906.515-3.783.599-5.527-.566-1.076-.718-1.51-1.815-1.747-3.006-.113-.565-.1-1.156-.144-1.735l-.127-.04c.222-.95.353-1.935.686-2.845.644-1.763 2.06-2.544 3.863-2.714 1.43-.135 2.763.204 4.01.885zm-56.728-.308c1.166.558 1.774 1.534 2.091 2.669.24.856.213 1.786.31 2.682.046.427-.188.542-.557.54-2.013-.007-4.027-.013-6.04-.015-.17 0-.339.032-.496.048-.115.695.303 1.512.867 1.834 1.324.757 2.656.412 3.984.042.384-.107.744-.3 1.151-.47.3.596.588 1.157.864 1.725.175.36.007.596-.32.741-1.623.72-3.312 1.018-5.084.813-1.288-.15-2.47-.555-3.283-1.61-.402-.522-.784-1.138-.923-1.768-.387-1.752-.477-3.51.307-5.224.6-1.313 1.595-2.08 2.964-2.408 1.432-.343 2.807-.25 4.165.4zm11.306-.33c.442.106.863.315 1.28.507.31.143.405.384.231.716-.246.471-.482.948-.699 1.433-.162.363-.402.463-.737.263-.68-.406-1.423-.43-2.182-.404-1.016.034-1.751.682-1.863 1.702-.108.982-.167 1.963.205 2.917.236.608.892 1.082 1.551 1.097.878.02 1.735-.021 2.533-.47.118-.065.456.037.531.16.299.49.536 1.016.791 1.532.224.45-.03.675-.4.86-1.14.569-2.36.712-3.608.655-.969-.045-1.907-.183-2.735-.795-1.066-.789-1.571-1.888-1.846-3.117-.12-.542-.11-1.113-.158-1.671-.046-1.352.299-2.607.978-3.753.5-.844 1.324-1.35 2.236-1.64 1.286-.41 2.6-.304 3.892.007zm6.34-5.364c.113-.008.355.276.355.425.003 1.702-.035 3.405-.046 5.107-.001.22.091.44.147.692.185-.092.375-.151.522-.266 1.242-.972 2.656-1.099 4.052-.578 1.043.389 1.773 1.218 2.036 2.388.495 2.206.146 4.438.25 6.655.019.423-.013.848 0 1.272.01.288-.082.432-.392.43-.697-.003-1.395 0-2.091.022-.403.013-.53-.152-.528-.548.006-2.015-.063-4.032 0-6.045.034-1.136-.941-1.751-2.023-1.554-.394.072-.773.23-1.168.298-.726.126-.764.657-.765 1.22v4.884l-.013.89c0 .148.004.296.013.443.02.31-.09.431-.384.43-.828-.002-1.656 0-2.582 0v-2.05c0-4.032-.002-8.064.001-12.095 0-.445 0-.893.048-1.334.015-.147.162-.38.278-.4.759-.13 1.524-.23 2.29-.286zm44.45.456c-.042 1.663-.034 3.328-.034 4.992 0 .249.059.497.106.87.247-.18.41-.307.58-.421 1.442-.958 3.526-1.23 5.033.15.817.747 1.155 1.765 1.193 2.827.07 1.956.036 3.915.045 5.873 0 .116-.014.232-.016.348-.02 1.042-.02 1.045-1.048 1.045-.484 0-.969-.036-1.452-.024-.409.01-.476-.21-.474-.55.011-1.919-.01-3.837.021-5.755.027-1.573-.995-1.989-2.293-1.786-.114.018-.224.06-.337.084-1.277.283-1.318.332-1.317 1.61.001 1.957-.011 3.914.014 5.87.006.45-.145.57-.568.555-.657-.024-1.317-.006-1.976.016-.32.011-.463-.1-.455-.43.01-.406-.011-.813-.011-1.22-.001-4.13-.002-8.26 0-12.391 0-.484-.01-.971.041-1.451.017-.156.195-.398.33-.42.7-.118 1.41-.177 2.117-.256.345-.039.513.025.502.464zm-15.1 5.359c-.06.673-.144 1.344-.212 2.016-.038.375-.254.477-.613.543-.884.162-1.75.411-2.63.597-.387.082-.41.326-.409.64.007 1.142.002 2.285-.002 3.428-.002.888-.02 1.777-.01 2.666.004.29-.066.436-.381.432-.677-.01-1.355-.008-2.032.006-.406.009-.536-.18-.533-.57.013-2.342.014-4.684.014-7.027 0-.618-.12-.711-.723-.606-.73.126-.876.01-.886-.712-.002-.116.002-.233.002-.349.006-1.558.006-1.56 1.593-1.557.794.002 1.588.026 2.38.01.32-.006.41.12.401.409-.012.396-.003.792-.003 1.188l.153.043c.259-.244.533-.475.773-.736.616-.668 1.439-.904 2.271-1.125.589-.155.899.099.846.704zm-56.071.877c-.004.058-.022.114-.032.172-.275 1.534-.277 1.516-1.839 1.721-.503.067-.985.283-1.486.387-.345.072-.413.264-.411.573.012 1.958-.005 3.916.029 5.873.008.443-.096.662-.545.665-.714.006-1.43.035-2.141-.005-.13-.007-.349-.293-.35-.453-.02-2.014-.009-4.03-.004-6.044 0-.135-.002-.272.013-.406.137-1.152.139-1.17-.991-1.193-.436-.009-.593-.2-.59-.596.004-.563-.013-1.126.024-1.686.008-.131.194-.358.3-.36 1.332-.025 2.664-.016 4.063-.016v1.628c.704-.517 1.328-.978 1.956-1.432.108-.078.228-.154.354-.19 1.902-.538 1.75-.218 1.65 1.362zm4.323 2.476c-.092.32.184.38.432.378.425-.004.85-.03 1.275-.033.826-.006 1.651-.002 2.472-.002.048-1.04-.806-2.033-1.763-2.081-1.54-.08-2.112.677-2.416 1.738zm80.887-1.746c-1.127-.015-2.042.913-2.052 2.088h.563c.966.001 1.931.008 2.897-.001.219-.002.615-.028.625-.092.043-.269.04-.587-.071-.83-.378-.824-1.087-1.154-1.962-1.165zm-46.186 2.033h4.183c.066-1.05-.502-1.83-1.409-1.97-1.576-.241-2.39.317-2.774 1.97zM59.69 33.02c.164.913.191 1.904.026 2.813-.445 2.44-2.729 3.397-4.882 2.132-.15-.087-.292-.187-.535-.344v3.872h-1.307V30.665h1.195l.073.495c.751-.22 1.485-.577 2.24-.63 1.809-.126 2.869.693 3.19 2.489zm8.728.908c.007.194 0 .388 0 .582h.03c-.023.329-.016.662-.072.985-.442 2.552-2.88 3.798-5.188 2.582-.542-.285-1.066-.831-1.325-1.385-.694-1.49-.685-3.064.057-4.543.252-.502.73-.983 1.226-1.254 2.484-1.356 5.172.215 5.272 3.033zm8.232-3.268v7.622h-1.188l-.099-.692c-.847.622-1.728.967-2.744.862-1.289-.134-2.103-.82-2.234-2.113-.125-1.23-.087-2.475-.11-3.714-.012-.636-.002-1.273-.002-1.953h1.306v.632c.01 1.473-.029 2.948.048 4.417.06 1.138.782 1.638 1.908 1.465.19-.03.38-.073.566-.128 1.136-.337 1.298-.556 1.298-1.735v-4.663h1.25zm20.608.019c1.251.39 1.664 1.453 1.706 2.642.054 1.529.012 3.06.024 4.591.003.308-.131.42-.415.408l-.779-.038-.104-.69c-.17.104-.316.187-.456.278-.671.436-1.403.632-2.205.59-1.462-.077-2.287-.934-2.279-2.38.008-1.322.892-2.176 2.32-2.211.85-.021 1.7-.004 2.584-.004.18-1.463-.477-2.233-1.853-2.112-.775.068-1.532.332-2.37.525l-.386-.95c1.357-.76 2.746-1.106 4.213-.649zm-73.331-7.049c.464.046.88-.08 1.13.582 1.727 4.56 3.515 9.097 5.281 13.642.047.12.072.25.132.462-.608 0-1.164.024-1.714-.017-.132-.01-.3-.214-.362-.365-.375-.934-.736-1.873-1.077-2.82-.116-.323-.283-.44-.634-.435-1.782.02-3.565.03-5.346.004-.432-.007-.604.149-.738.532-.314.894-.697 1.765-1.009 2.66-.126.364-.315.479-.68.454-.419-.03-.84-.007-1.354-.007.161-.441.285-.8.423-1.154 1.679-4.307 3.37-8.61 5.025-12.925.188-.488.422-.662.923-.613zm60.003 6.915l-.094 1.044c-.947.357-1.808.668-2.658 1.008-.353.141-.49.412-.48.828.032 1.376.012 2.753.012 4.13 0 .779-.002.78-.802.765-.15-.002-.3-.022-.518-.04v-5.713c0-.788 0-.787-.788-.77-.115.001-.23-.012-.395-.02v-1.109h2.427l.068 1.128c.934-.821 1.888-1.452 3.228-1.251zm6.476-3.92v.673c-.001 3.003-.002 6.007-.005 9.01 0 .406.002.78.56.832.898.082.925.13.868 1.153-.405 0-.77.005-1.136-.001-1.155-.022-1.578-.43-1.59-1.59-.015-1.723-.004-3.448-.004-5.172 0-1.434-.002-2.868 0-4.302 0-.132.017-.265.03-.434l1.277-.169zm-55.429-3.14v14.804H33.17v-.645c0-4.414.008-8.828-.01-13.242-.003-.536.072-.846.703-.804.354.024.716-.069 1.115-.114zm-21.445.146c.422.032.848.007 1.319.007v14.617h-1.7V27.012l-.107-.047c-.23.38-.47.755-.69 1.14-1.174 2.052-2.342 4.106-3.514 6.157-.346.607-1.451.597-1.802-.016l-3.948-6.91c-.083-.148-.177-.29-.35-.571v11.503H1.012V23.642c.569 0 1.108-.037 1.637.021.17.02.353.266.46.45 1.55 2.68 3.09 5.369 4.633 8.055.047.08.102.156.21.32l3.722-6.478c.376-.654.767-1.301 1.125-1.966.167-.31.374-.442.732-.414zm34.572.042l-.177 1.598h-7.022v5.262h6.05v1.644H40.87v6.092h-1.8V23.672h9.034zm47.285 11.302c-.173.002-.346.033-.517.064-.547.097-.785.469-.81.983-.027.515.101 1 .646 1.178.97.32 1.812-.066 2.633-.55.638-.377.27-.972.364-1.466.006-.034-.017-.073-.052-.212-.761 0-1.512-.004-2.264.003zm-30.444-3.293c-1.067 0-1.767.39-1.978 1.336-.172.775-.208 1.61-.134 2.402.114 1.213.878 1.835 2.05 1.856 1.199.02 1.882-.54 2.13-1.766.065-.32.09-.648.148-1.081-.074-.417-.115-.943-.268-1.434-.28-.906-.93-1.313-1.948-1.313zm-9.46.248c-.307.106-.615.257-.866.457-.168.134-.322.388-.333.597-.04.753-.02 1.51-.02 2.265 0 1.253.194 1.506 1.42 1.827.224.058.454.105.685.124 1.09.091 1.777-.4 2.023-1.476.095-.411.12-.838.177-1.258-.046-2.283-1.148-3.206-3.086-2.536zm-31.502-5.73l-2.537 6.836h5.065l-2.528-6.836zM53.819 5.795c1.478.079 2.78.525 3.433 1.958.313.686.502 1.483.524 2.237.067 2.324.028 4.65.027 6.976 0 .073-.024.146-.041.244h-1.725v-1.112c-.523.314-.962.618-1.435.852-1.195.59-2.445.697-3.723.31-1.425-.433-2.187-1.585-2.174-3.257.013-1.601.78-2.696 2.232-3.068.555-.142 1.146-.184 1.723-.2 1.08-.03 2.16-.008 3.227-.008.385-1.92-.613-3.165-2.493-3.132-.612.011-1.235.101-1.828.252-.594.152-1.156.425-1.817.677l-.63-1.502c1.47-.851 3.006-1.318 4.7-1.227zM45.595.116v17.077h-1.797l-.065-1.034c-.215.147-.369.251-.522.357-1.114.767-2.351 1.078-3.687.932-1.818-.198-3.039-1.188-3.608-2.92-.59-1.795-.61-3.63-.11-5.442.805-2.921 3.848-4.213 6.564-2.82.44.226.857.497 1.344.782V.338l1.88-.222zM14.599 5.77c2.874.164 4.482 1.641 4.852 4.496.175 1.357.145 2.71-.297 4.024-.592 1.757-1.8 2.798-3.641 3.09-1.354.214-2.676.13-3.89-.552-1.683-.943-2.213-2.553-2.395-4.337-.028-.269-.004-.542-.004-.814l-.102-.012c.116-.782.161-1.584.36-2.345.623-2.374 2.564-3.695 5.117-3.55zm68.208.242c1.909.55 3.118 2.198 3.298 4.464.033.406.051.813.088 1.398-.066.498-.097 1.183-.252 1.838-.495 2.095-1.761 3.41-3.954 3.689-1.782.227-3.489.027-4.743-1.406-.516-.589-.914-1.361-1.13-2.118-.448-1.57-.42-3.18.06-4.759.532-1.74 1.667-2.838 3.474-3.204 1.061-.216 2.119-.202 3.159.098zM63.94 3.125c0 .806.03 1.553-.01 2.296-.026.475.139.593.592.577.963-.033 1.93-.01 2.935-.01v1.703H64c-.024.176-.058.303-.058.43.003 2.054.001 4.108.018 6.162.007.941.276 1.207 1.212 1.233.717.02 1.434.013 2.15.02.037.001.073.024.172.06l.244 1.708c-1.388-.072-2.723-.059-4.032-.237-.968-.132-1.552-.96-1.59-2.093-.066-1.993-.055-3.99-.075-5.984-.004-.403 0-.806 0-1.29h-1.99V6h1.99c0-.77.014-1.48-.007-2.187-.01-.36.088-.532.48-.541.44-.01.879-.087 1.426-.147zm6.753 2.68c.56.065 1.11.113 1.65.205.09.015.206.226.207.347.01 3.601.009 7.202.009 10.864h-1.866V5.805zm-41.37.052c1.63.28 2.734 1.45 2.895 3.124.122 1.27.109 2.553.126 3.83.019 1.45.004 2.902.004 4.406H30.49c-.01-.208-.025-.395-.025-.582l-.005-6.166c0-.213-.009-.426-.03-.638-.179-1.809-1.332-2.417-2.899-2.194-.836.119-1.63.55-2.435.864-.4.156-.533.463-.528.916.027 2.404.015 4.809.017 7.213v.567h-1.87V6.034h1.83V7.17l.828-.546c1.21-.802 2.554-1.008 3.95-.768zm66.576-.01c1.659.253 2.877 1.443 2.956 3.188.121 2.702.032 5.413.032 8.164h-1.76c-.013-.146-.04-.311-.04-.476 0-2.015.006-4.03.002-6.045 0-.328-.024-.658-.063-.984-.16-1.342-.893-2.054-2.253-2.097-1.24-.039-2.365.36-3.338 1.126-.154.121-.221.432-.223.656-.01 1.628-.012 3.255-.012 4.883v2.953h-1.838V6.027h1.824V7.17c.283-.189.482-.315.674-.45 1.222-.866 2.599-1.092 4.039-.873zM7.519.155c0 .53.026.992-.017 1.447-.012.12-.227.29-.37.316-.648.116-1.306.17-1.954.28-.896.154-1.22.55-1.23 1.47-.01.75-.002 1.502-.002 2.323 1.057 0 2.059.018 3.06-.008.41-.012.56.118.527.527-.029.363-.006.73-.006 1.16H3.958v9.536h-1.92V7.69H0V6.062l2.038-.118c0-.689-.02-1.38.007-2.07.019-.501.058-1.008.163-1.496.148-.685.589-1.172 1.225-1.46C4.713.343 6.095.346 7.52.156zm44.376 12.266c-.877.05-1.27.615-1.293 1.552-.025 1.02.352 1.577 1.224 1.747 1.524.299 2.794-.311 3.983-1.167.09-.064.155-.222.158-.338.015-.596.007-1.193.007-1.813-1.421 0-2.754-.056-4.079.019zM14.284 7.474c-1.471.042-2.45.727-2.86 2.028-.374 1.191-.362 2.407-.156 3.623.428 2.516 2.44 2.94 4.331 2.446.666-.174 1.218-.604 1.445-1.25.304-.864.48-1.772.684-2.56-.177-.917-.243-1.7-.486-2.423-.43-1.287-1.49-1.906-2.958-1.864zm66.607.004c-1.418.025-2.472.703-2.805 1.99-.22.85-.253 1.753-.308 2.636-.025.397.073.81.164 1.204.383 1.667 1.35 2.43 3.047 2.431 1.708.002 2.639-.701 3.04-2.353.136-.561.176-1.145.279-1.85-.123-.65-.192-1.431-.425-2.16-.418-1.311-1.455-1.925-2.992-1.898zm-43.26 2.227c-.324 1.34-.321 2.692.05 4.026.331 1.184 1.134 1.805 2.354 1.887 1.252.084 2.368-.3 3.377-1.006.155-.109.282-.364.29-.556.032-.793.014-1.588.015-2.383v-1.279c0-1.759-.139-1.97-1.824-2.529-.435-.144-.902-.233-1.36-.265-1.519-.105-2.547.633-2.903 2.105zm34.482-8.693c.134 0 .267.014.49.026 0 .542.009 1.075-.008 1.607-.004.09-.101.217-.187.255-.577.254-1.162.488-1.811.757V1.01h1.516z"/>
</svg>
