<svg xmlns="http://www.w3.org/2000/svg" width="169" height="44" viewBox="0 0 169 44">
    <path fill-rule="evenodd" d="M80.689 36.658c1.375.451 1.955 1.528 2.094 2.876.132 1.29.033 2.57-.99 3.511-.415.38-1.01.561-1.522.833h-1.81c-2.068-.838-2.82-2.193-2.488-4.474.19-1.308.78-2.312 2.092-2.745.869-.287 1.755-.287 2.624-.001zm25.469-.065v4.713c0 1.36-.498 2.04-1.794 2.459-.086.027-.166.075-.249.113h-1.973c-.29-.114-.591-.206-.867-.347-.786-.4-1.213-1.028-1.206-1.944.013-1.65.004-3.3.004-4.986h1.727v4.904c0 .891.475 1.374 1.36 1.38.898.008 1.38-.48 1.38-1.4V36.593h1.618zm60.552-19.8c1.038 1.005 1.713 2.237 2.043 3.653.043.183.103.362.154.543v2.396c-.153.507-.282 1.023-.463 1.52-1.097 3.006-4.468 5.61-8.63 4.72-3.806-.815-7.136 2.249-7.032 5.904.056 1.994.006 3.991.011 5.987.002.763-.245 1.422-.872 1.862-.325.228-.732.337-1.103.5h-8.88c-.088-.03-.174-.065-.264-.086-.99-.23-1.702-1.083-1.705-2.104-.01-2.863-.013-5.726 0-8.588.006-1.138.864-2.087 2-2.115 2.163-.053 4.327-.033 6.49-.038 1.008-.003 1.945-.26 2.823-.752 2.014-1.128 3.361-3.598 2.855-6.078-.447-2.191-.148-4.236 1.122-6.106 2.617-3.854 8.11-4.448 11.451-1.217zm-71.331 19.68c2.337.16 3.168 1.859 3.112 3.903-.014.513-.126 1.038-.284 1.529-.301.935-.956 1.547-1.896 1.843-.114.036-.224.086-.336.13h-1.89c-.044-.028-.084-.07-.13-.08-1.414-.347-2.214-1.493-2.33-2.99-.042-.528-.035-1.076.052-1.597.334-2.023 1.804-2.868 3.702-2.738zM68.8 36.59v4.876c0 1.171-.503 1.87-1.61 2.246-.138.047-.27.11-.405.165h-1.973c-.29-.114-.591-.206-.867-.347-.737-.376-1.195-.957-1.197-1.822-.006-1.69-.002-3.382-.002-5.109h1.723v4.99c.002.812.507 1.29 1.363 1.296.855.005 1.373-.47 1.376-1.284.005-1.513.002-3.027.002-4.54v-.471h1.59zm55.572.276l-.351.79c-.432-.089-.84-.22-1.252-.241-.329-.018-.695.031-.991.168-.63.291-.709 1.111-.154 1.525.28.208.63.32.952.469.409.189.846.33 1.226.566 1.146.714 1.243 2.215.18 3.055-.373.296-.853.456-1.285.679h-2.138l-1.08-.345.386-.879c.594.08 1.152.191 1.714.217.27.012.573-.089.816-.221.66-.359.691-1.213.06-1.62-.294-.192-.642-.298-.964-.45-.37-.173-.766-.311-1.1-.54-1.02-.698-1.08-2.04-.153-2.867.468-.418 1.029-.614 1.642-.682.845-.095 1.66.012 2.492.376zm-65.65-.22c.287.183.363.708.522 1.086.781 1.86 1.56 3.721 2.339 5.583.062.149.114.302.185.492-.544 0-1.05.013-1.553-.01-.097-.005-.231-.128-.274-.228-.19-.441-.335-.902-.536-1.337-.056-.122-.244-.253-.375-.257-.793-.024-1.588-.004-2.382-.017-.218-.004-.313.083-.383.275-.159.438-.344.867-.503 1.306-.07.192-.165.283-.383.274-.405-.018-.812-.005-1.273-.005l.992-2.362c.637-1.52 1.277-3.037 1.904-4.56.097-.236.216-.348.48-.327.422.032.934-.11 1.24.087zm30.212.125c1.017.351 1.53 1.183 1.378 2.16-.123.79-.665 1.204-1.355 1.455-.305.111-.635.156-1.03.25l2.702 3.17c-.668 0-1.225.012-1.78-.01-.109-.004-.235-.122-.313-.22-.698-.866-1.386-1.74-2.078-2.61-.09-.114-.188-.222-.343-.404v3.22h-1.67c-.007-.141-.022-.285-.022-.43-.002-2.023.004-4.046-.008-6.069-.002-.31.074-.462.395-.542 1.38-.347 2.758-.442 4.124.03zM75.25 36.6v.884h-1.666v6.308h-1.702v-6.27H70.19V36.6h5.061zm37.347-.002v.894h-1.683v6.284h-1.704v-6.272h-1.693v-.906h5.08zm5.794-.018v.903h-2.716v2.155h2.401v.916h-2.41v2.333h2.727v.886h-4.424V36.58h4.422zm-23.285.788c-.685-.023-1.204.286-1.453.93-.474 1.224-.473 2.473-.012 3.698.25.664.792.937 1.501.907.67-.027 1.132-.362 1.323-.978.177-.569.249-1.171.37-1.774-.123-.603-.199-1.205-.374-1.775-.197-.636-.682-.985-1.355-1.008zm-15.753-.001c-.655.007-1.143.328-1.373.931-.467 1.225-.47 2.475-.008 3.7.23.608.716.9 1.38.907.68.006 1.196-.269 1.413-.907.196-.576.277-1.191.417-1.827-.138-.625-.225-1.267-.428-1.87-.213-.633-.73-.942-1.401-.934zm-21.468.595l-1.214 3.173h2.38l-1.166-3.173zm28.24-.584v2.818c.674.09 1.32.1 1.915-.255.525-.312.646-.818.617-1.387-.025-.487-.201-.9-.66-1.104-.606-.27-1.237-.254-1.872-.072zM23.67 15.008l4.167 3.834-13.916 12.562L0 18.834l4.175-3.822c3.245 3.13 6.48 6.248 9.746 9.396l9.75-9.4zm66.412.053c3.342.11 6.666.424 9.947 1.111.3.063.398.166.394.478-.017 1.43-.008 2.861-.008 4.327-.821-.123-1.611-.253-2.404-.358-4.572-.606-9.158-.917-13.768-.6-1.228.085-2.45.256-3.674.405-.103.012-.271.159-.272.245-.016 1.718-.012 3.438-.012 5.182 6.748 1.036 13.427.54 20.113-.467v4.705c-8.511 1.596-17.016 1.602-25.552.002V16.242c.809-.15 1.61-.32 2.418-.449 4.248-.676 8.526-.874 12.818-.732zm-21.443.247v15.666h-.453c-1.535 0-3.07.01-4.604-.011-.236-.004-.51-.1-.7-.243-4.19-3.131-8.606-5.867-13.455-7.856-.152-.063-.304-.125-.457-.185-.023-.009-.052 0-.11 0v8.267h-5.414V15.312c7.353 1.644 13.586 5.5 19.752 9.653v-9.657h5.441zm43.409.005V30.95h-5.55V15.313h5.55zm-74.901-.008v15.638h-5.595V15.305h5.595zM150.528.001c1.32 0 2.256.916 2.26 2.25.01 2.782.01 5.563.001 8.344-.004 1.353-.94 2.28-2.282 2.282-1.863.002-3.73.068-5.588-.019-1.853-.087-3.36.595-4.72 1.76-1.753 1.503-2.616 3.422-2.63 5.725-.013 2.45-.002 4.9-.002 7.352v.495h-12.86V15.287h.46l5.014.008c.835 0 1.671-.004 2.507-.013 3.914-.041 6.427-2.997 7.132-5.533.098-.353.136-.732.139-1.1.012-2.106.005-4.212.006-6.319.001-1.416.905-2.33 2.302-2.33h8.261z"/>
</svg>
