<svg xmlns="http://www.w3.org/2000/svg" width="119" height="54" viewBox="0 0 119 54">
    <path fill-rule="evenodd" d="M31.542 27.615c.316-.041.672-.071 1.02-.138.947-.179 1.844-.5 2.669-1.008.346-.214.411-.345.325-.74-.053-.246-.134-.49-.239-.72-.608-1.322-1.536-2.388-2.66-3.288-.256-.205-.531-.403-.828-.538-.522-.238-.972-.098-1.3.377-.147.213-.29.448-.356.695-.18.674-.34 1.356-.461 2.043-.094.533-.144 1.078-.162 1.62-.03.916.458 1.486 1.355 1.636.196.033.397.04.637.061m-20.45-9.646c3.941.163 6.952 2.004 9.04 5.332 1.251 1.994 1.35 4.16.435 6.323-.404.953-.9 1.884-1.482 2.736-.384.562-.957 1.02-1.514 1.427-1.167.854-2.382 1.642-3.574 2.463-.236.162-.457.347-.685.523-.155.119-.197.251-.134.455.841 2.726 1.69 5.45 2.502 8.185.7 2.357 1.359 4.727 2.035 7.092.033.118.058.238.079.36.07.401-.124.769-.502.934-.62.272-1.205.19-1.69-.279-.627-.606-1.25-1.222-1.822-1.879-1.637-1.877-3.283-3.747-4.861-5.673-2.75-3.356-4.96-7.06-6.765-11.01C1.397 33.303.727 31.61.291 29.837.155 29.287.095 28.72 0 28.16v-.79c.08-.429.135-.865.246-1.286.329-1.25 1.019-2.302 1.885-3.23 1.358-1.456 2.857-2.752 4.566-3.773 1.347-.804 2.834-1.177 4.396-1.112zm92.415 30.222c.869.036 1.482.153 2.02.549 1.152.849 1.257 3.39-.65 4.182-.608.253-1.245.325-1.893.194-1.096-.223-1.878-1.13-2.059-2.367-.19-1.3.198-1.948 1.449-2.331.436-.134.898-.181 1.133-.227zm-12.893-30.19c1.293-.01 2.247.042 3.168.35 1.177.395 2.1 1.154 2.873 2.105.496.61.963 1.243 1.413 1.888.662.95.451 1.858-.577 2.555-.55.373-1.167.565-1.82.677-.624.107-1.09-.17-1.538-.546-.547-.46-1.078-.946-1.662-1.353-1.159-.81-2.315-.768-3.57-.01-1.562.941-2.178 2.38-2.547 4.028-.06.264-.103.534-.135.803-.15 1.268.284 2.098 1.431 2.637.581.274 1.2.466 1.793.712.296.123.602.25.855.44.704.527.925 1.412.634 2.371-.37 1.227-1.248 1.9-2.519 1.938-.808.024-1.616.046-2.393.325-1.113.4-1.962 1.154-2.678 2.064-.436.554-.838 1.143-1.187 1.756-.455.799-.423 1.684-.275 2.562.092.55.295 1.061.627 1.514.469.641 1.1.99 1.882 1.104 1.048.154 2.099.302 3.135.518.68.143 1.292.474 1.71 1.075.877 1.26.46 3.112-.861 3.872-.984.566-2.063.762-3.172.85-2.315.185-4.434-.421-6.366-1.677-1.646-1.07-2.39-2.641-2.29-4.604.035-.707.165-1.41.222-2.116.156-1.958.808-3.796 1.346-5.658 1.278-4.414 2.637-8.804 4.189-13.128.85-2.37 2.387-4.256 4.383-5.756 1.259-.946 2.694-1.358 3.929-1.296zm-26.258-7.149c.287.143.442.39.575.656.41.823.43 1.705.353 2.596-.131 1.543-.582 3.024-.886 4.534-.392 1.94-.787 3.884-.712 5.884.03.803.152 1.593.512 2.317.76 1.528 2.123 2.082 3.698 2.192.777.055 1.407-.345 1.771-1.045.223-.428.418-.9.487-1.374.13-.89.184-1.794.225-2.694.125-2.745.553-5.437 1.308-8.076.206-.719.48-1.41.958-1.997.62-.763 1.411-.92 2.282-.473.85.435 1.337 1.09 1.411 2.076.125 1.655.03 3.3-.256 4.925-.49 2.785-1.04 5.56-1.558 8.341-.604 3.243-1.02 6.509-1.234 9.801-.153 2.353-.318 4.705-.525 7.054-.13 1.46-.525 2.857-1.272 4.133-.122.21-.274.406-.434.589-.682.777-1.492.679-2.176.054-.519-.473-.636-1.132-.69-1.795-.083-1.047.016-2.093.235-3.111.618-2.872.56-5.764.359-8.666-.037-.525-.091-1.05-.102-1.575-.016-.815-.468-1.316-1.14-1.65-.892-.444-1.846-.59-2.837-.557-.619.02-1.062.3-1.273.87-.276.744-.561 1.495-.727 2.268-.278 1.3-.44 2.625-.695 3.93-.463 2.365-1.005 4.713-1.937 6.944-.24.576-.548 1.14-.915 1.642-.624.853-1.723.772-2.243-.16-.201-.36-.262-.805-.363-1.218-.043-.175-.029-.366-.03-.55V42.08c.262-3.308.485-6.729.824-10.138.185-1.862.526-3.712.866-5.555.563-3.057 1.155-6.11 1.787-9.153.33-1.593.744-3.172 1.404-4.668.242-.548.566-1.047 1.017-1.45.58-.518 1.258-.602 1.933-.265zm-32.598 2.57c1.103.218 2.068.755 2.99 1.38 2.073 1.407 3.552 3.33 4.72 5.521.99 1.86 1.67 3.846 2.347 5.836 1.125 3.31 1.92 6.695 2.349 10.167.217 1.757.45 3.511.648 5.27.06.528.028 1.068.028 1.602 0 .139-.027.28-.056.416-.114.525-.383.614-.772.24-.2-.193-.39-.406-.54-.639-1.104-1.698-2.286-3.349-3.107-5.22-.467-1.065-.941-2.13-1.474-3.162-.326-.632-.725-1.238-1.168-1.795-.524-.66-1.26-1.007-2.094-1.115-.544-.07-1.056.068-1.54.304-.383.187-.756.396-1.126.608-.681.39-.93 1.05-1.012 1.775-.18 1.577-.085 3.154.132 4.72.259 1.86.548 3.717.373 5.6-.088.94-.265 1.872-.418 2.804-.033.203-.121.404-.215.59-.26.515-.655.626-1.105.266-.296-.236-.559-.53-.783-.837-.748-1.03-1.3-2.173-1.805-3.338-1.59-3.672-2.796-7.47-3.656-11.38-.483-2.192-.687-4.828-.669-8.043.049-2.437.304-5.365 1.053-8.232.055-.211.134-.417.186-.629.18-.726.64-1.225 1.253-1.61 1.685-1.057 3.494-1.49 5.461-1.1zm86.089 3.798c.653.747.959 1.661 1.075 2.635.243 2.022-.116 3.94-1.008 5.764-1.409 2.877-2.997 5.653-4.606 8.417-1.548 2.66-3.106 5.312-4.676 7.957-.447.753-.955 1.474-1.66 2.01-.312.237-.675.43-1.044.565-.42.154-.76-.011-1.001-.398-.31-.497-.396-1.063-.447-1.631-.042-.47-.052-.945-.065-1.192.03-1.869.233-3.495.487-5.114.836-5.328 2.079-10.562 3.593-15.733.189-.644.43-1.277.7-1.892.14-.32.355-.631.606-.872 1.223-1.17 2.655-1.927 4.368-1.987 1.424-.05 2.705.36 3.678 1.471zM50.185.085c2.082.09 4.028.593 5.762 1.79 1.054.726 1.937 1.625 2.576 2.748.125.219.228.453.317.69.191.507.044.916-.458 1.115-.384.152-.797.274-1.205.309-1.022.087-2.049.113-3.073.172-.408.024-.815.065-1.221.111-.66.075-1.085.464-1.362 1.05-.415.877-.565 1.818-.664 2.77-.194 1.872-.136 3.748-.088 5.624.073 2.822.538 5.598.943 8.381.493 3.39 1.026 6.776 1.251 10.2.092 1.392.153 2.786-.086 4.17-.057.335-.164.663-.274.984-.052.154-.149.3-.253.425-.344.417-.609.44-1.019.09-.574-.489-.975-1.115-1.334-1.77-1.116-2.03-1.789-4.222-2.152-6.499-.282-1.772-.447-3.563-.64-5.349-.44-4.098-1-8.175-2.092-12.159-.415-1.513-.917-2.996-1.652-4.388-.073-.138-.156-.274-.245-.402-.5-.715-1.002-.873-1.83-.594-.79.267-1.572.568-2.377.779-1.202.315-2.429.46-3.67.244-.262-.046-.528-.123-.768-.239-.68-.329-.955-.89-.815-1.641.191-1.025.726-1.877 1.41-2.626 1.537-1.683 3.394-2.913 5.483-3.793C43.037 1.27 45.53.65 48.08.257c.694-.107 1.403-.118 2.104-.172zm-40.3 23.912c-.648.01-1.278.103-1.776.56-.241.221-.43.503-.634.763-.707.903-.798 1.888-.39 2.944.398 1.027 1.046 1.89 1.704 2.754.368.482.825.595 1.379.527.965-.119 1.861-.446 2.682-.955.432-.267.83-.603 1.203-.952.317-.295.444-.692.426-1.143-.104-2.58-1.85-4.381-4.595-4.498zm83.347-13.36c.71.16 1.43.281 2.127.487 2.325.685 4.546 1.63 6.672 2.801.196.108.378.253.538.41.316.309.362.706.075 1.038-.579.672-1.31 1.141-2.185 1.27-.384.055-.812-.068-1.2-.18-1.66-.477-3.324-.952-4.967-1.49-.644-.211-1.247-.567-1.848-.895-.386-.21-.68-.542-.874-.949-.51-1.063.074-2.194 1.231-2.383.137-.022.276-.03.415-.045l.016-.065z"/>
</svg>
