<svg xmlns="http://www.w3.org/2000/svg" width="168" height="24" viewBox="0 0 168 24">
    <path fill-rule="evenodd" d="M30.19 12.684h.46c1.862 0 3.724-.009 5.585.003.923.006 1.836-.041 2.722-.321 1.02-.322 1.847-.878 2.366-1.844.512-.955.652-1.982.572-3.033-.08-1.053-.467-2.006-1.287-2.716-.942-.815-2.095-1.178-3.31-1.206-2.247-.052-4.495-.015-6.742-.015h-.366v9.132zM133.314.158c2.19.187 4.208.92 5.997 2.211 1.225.885 2.22 1.983 3.015 3.27.738 1.196 1.238 2.484 1.49 3.855.24 1.307.236 2.63.106 3.958-.144 1.48-.57 2.867-1.263 4.174-.693 1.305-1.609 2.426-2.749 3.385-1.424 1.198-3.036 1.995-4.84 2.413-.632.147-1.286.2-1.93.299-.083.013-.161.05-.241.077h-1.916c-.328-.052-.654-.113-.983-.157-1.975-.264-3.761-.988-5.375-2.152-1.181-.853-2.146-1.897-2.914-3.128-.792-1.27-1.373-2.634-1.564-4.112-.15-1.154-.24-2.338-.154-3.495.17-2.268.984-4.33 2.385-6.148 1.104-1.432 2.491-2.52 4.117-3.3 1.214-.584 2.492-.993 3.845-1.084.99-.066 1.991-.15 2.974-.066zM61.204.154c1.425.065 2.8.422 4.108 1.017 1.113.506 2.094 1.205 3.037 1.967.23.186.26.323.034.571-.662.724-1.285 1.483-1.916 2.219-.617-.445-1.206-.892-1.818-1.304-1.176-.791-2.473-1.232-3.89-1.4-2.258-.267-4.269.332-5.995 1.739-1.572 1.28-2.59 2.956-2.955 4.97-.13.716-.249 1.45-.23 2.173.052 2.017.615 3.89 1.873 5.506 1.298 1.666 3.014 2.69 5.104 2.998 2.305.34 4.45-.153 6.37-1.495.512-.358.985-.772 1.487-1.146.082-.06.277-.101.326-.054.694.663 1.37 1.343 2.059 2.026-1.77 1.885-3.813 3.098-6.253 3.61-.523.11-1.067.114-1.601.173-.07.007-.135.05-.202.076h-1.995c-.328-.053-.655-.113-.984-.157-1.883-.254-3.59-.944-5.119-2.063-1.519-1.112-2.696-2.517-3.504-4.208-.603-1.258-1.003-2.585-1.086-3.988-.043-.721-.107-1.447-.072-2.167.07-1.486.396-2.92 1.01-4.288.645-1.438 1.523-2.707 2.69-3.769 1.32-1.2 2.84-2.035 4.556-2.56 1.634-.501 3.3-.523 4.967-.446zm99.324.002c1.368.087 2.686.437 3.952.997 1.148.507 2.137 1.232 3.102 2.005.188.151.263.279.052.512-.673.746-1.316 1.519-1.92 2.223-.907-.599-1.75-1.21-2.646-1.732-.953-.554-2.012-.804-3.114-.94-1.617-.2-3.137.082-4.554.82-2.175 1.134-3.582 2.925-4.211 5.28-.22.822-.392 1.687-.39 2.531.01 2.21.606 4.243 2.07 5.981 1.225 1.455 2.756 2.352 4.618 2.713 2.339.452 4.494-.05 6.485-1.29.573-.357 1.084-.816 1.602-1.253.191-.162.302-.198.489-.006.563.58 1.137 1.151 1.72 1.712.191.183.176.3-.003.484-1.66 1.71-3.644 2.85-5.981 3.355-.509.11-1.04.116-1.56.175-.096.011-.188.05-.282.077h-1.995c-.482-.079-.962-.164-1.445-.236-1.306-.194-2.51-.682-3.65-1.313-1.09-.603-2.028-1.414-2.84-2.347-1.187-1.36-1.995-2.925-2.447-4.677-.348-1.344-.476-2.71-.383-4.083.164-2.39.9-4.588 2.375-6.518 1.135-1.484 2.544-2.62 4.234-3.409 1.138-.531 2.33-.908 3.589-.992 1.042-.069 2.094-.135 3.133-.069zM83.733.16c1.887.136 3.69.674 5.288 1.725.75.493 1.5 1.02 2.13 1.651 1.656 1.662 2.736 3.66 3.103 5.986.158 1.004.262 2.032.23 3.044-.046 1.428-.358 2.82-.927 4.15-.517 1.21-1.222 2.284-2.104 3.26-1.654 1.828-3.713 2.949-6.098 3.498-.57.131-1.162.166-1.743.25-.07.01-.134.05-.201.076h-1.996c-.327-.053-.654-.11-.982-.157-1.998-.282-3.81-1.01-5.433-2.21-1.416-1.047-2.512-2.363-3.316-3.913-.575-1.109-.974-2.29-1.116-3.535-.098-.87-.185-1.753-.152-2.625.056-1.524.385-3 1.02-4.404.665-1.474 1.584-2.76 2.793-3.832 1.332-1.182 2.866-2 4.58-2.52C80.427.11 82.083.04 83.733.16zm25.792.395c1.98.04 3.826.617 5.368 1.953 1.224 1.06 1.828 2.423 2.043 3.99.197 1.433.072 2.834-.396 4.206-.573 1.684-1.646 2.944-3.246 3.73-.555.274-1.157.452-1.751.68l5.904 8.252c-.139.016-.235.036-.331.036h-2.235c-.373 0-.745.002-1.117.007-.275.004-.432-.108-.583-.316-1.354-1.875-2.718-3.743-4.076-5.615-.297-.41-.567-.84-.884-1.234-.115-.143-.33-.29-.502-.292-1.916-.02-3.831-.012-5.747-.012-.051 0-.103.01-.197.02v7.423h-3.409V.535h.464c3.565 0 7.132-.051 10.695.02zM37.995.56c2.149.054 4.145.73 5.677 2.343.879.924 1.414 2.045 1.584 3.32.065.49.171.985.15 1.474-.077 1.73-.374 3.403-1.467 4.838-.839 1.1-1.91 1.862-3.227 2.288l-.824.263 5.915 8.279c-.175.018-.272.037-.369.037-1.117.002-2.234-.002-3.35.004-.212.001-.34-.047-.48-.243-1.14-1.61-2.305-3.204-3.465-4.801-.55-.757-1.106-1.51-1.666-2.26-.054-.073-.157-.155-.238-.155-2.005-.009-4.01-.007-6.073-.007v7.444h-3.394V.553c.121-.006.249-.017.377-.017C30.762.535 34.38.469 37.995.56zM13.273.308c.117.002.285.132.337.245.501 1.095.986 2.198 1.47 3.302.503 1.15 1 2.304 1.5 3.455.702 1.615 1.401 3.231 2.108 4.845l1.758 3.982 2.084 4.77c.359.815.733 1.624 1.128 2.496H20.75c-.767 0-.748-.007-1.034-.697-.682-1.65-1.383-3.294-2.077-4.94l-.773-1.825H9.372v-2.844H15.7l-3.962-9.116L3.46 23.403H0v-.159c.371-.793.755-1.581 1.11-2.382.5-1.124.975-2.258 1.466-3.385.714-1.639 1.43-3.276 2.15-4.912.59-1.34 1.193-2.674 1.78-4.015.686-1.565 1.358-3.137 2.043-4.702.488-1.116.984-2.228 1.493-3.335.046-.1.209-.205.319-.207.97-.016 1.942-.018 2.912.002zm67.632 2.994c-1.951.356-3.566 1.278-4.832 2.764-1.411 1.656-2.014 3.64-2.066 5.782-.016.655.107 1.322.228 1.972.372 1.997 1.323 3.66 2.9 4.979 1.552 1.296 3.354 1.84 5.389 1.92.398-.03.852-.026 1.289-.108 1.304-.244 2.532-.693 3.602-1.5 1.316-.99 2.287-2.241 2.862-3.787.447-1.203.618-2.443.568-3.729-.034-.853-.149-1.682-.417-2.49-.77-2.32-2.222-4.08-4.445-5.142-1.606-.767-3.301-.986-5.078-.661zm49.284.03c-1.91.396-3.53 1.36-4.73 2.91-1.636 2.112-2.16 4.536-1.803 7.144.166 1.21.585 2.353 1.25 3.401.773 1.219 1.77 2.198 3.041 2.878 1.749.935 3.597 1.243 5.573.891 2.113-.376 3.818-1.402 5.1-3.076 1.231-1.606 1.794-3.465 1.837-5.497-.072-.555-.133-1.112-.216-1.665-.326-2.193-1.414-3.987-3.117-5.349-2.021-1.616-4.387-2.164-6.935-1.637zm-27.97.22h-.435v9.132c1.943 0 3.844.015 5.744-.008.813-.01 1.638-.03 2.437-.166 1.625-.277 2.798-1.153 3.339-2.761.248-.739.204-1.5.196-2.259-.012-1.268-.602-2.253-1.606-2.979-.923-.668-2.004-.94-3.132-.952-2.18-.023-4.362-.007-6.542-.007z"/>
</svg>
