<svg xmlns="http://www.w3.org/2000/svg" width="110" height="75" viewBox="0 0 110 75">
    <path fill-rule="evenodd" d="M24.438 34.782c3.776.762 7.07 2.459 9.925 5.045 1.218 1.102 2.27 2.326 3.127 3.841-.37.048-.673.098-.977.124-1.009.085-2.018.18-3.028.228-.205.01-.486-.119-.62-.278-2.633-3.133-6.01-4.926-10.012-5.553-4.82-.754-9.13.471-12.826 3.634-3.506 3-5.542 6.846-5.989 11.474-.451 4.676 1.013 8.747 4.076 12.242 2.187 2.495 4.892 4.236 8.083 5.175 2.697.794 5.409.871 8.144.167 2.796-.72 5.243-2.08 7.258-4.131 1.086-1.106 1.983-2.398 2.976-3.597.125-.15.309-.334.48-.351 1.307-.129 2.618-.22 3.928-.321.03-.002.062.03.153.075-.2.424-.383.861-.607 1.275-2.151 3.969-5.191 7.016-9.255 9.02-3.522 1.735-7.22 2.37-11.117 1.957-2.391-.253-4.672-.897-6.818-1.956-3.252-1.605-5.925-3.899-7.96-6.937C1.558 63.197.545 60.197.107 56.978c-.043-.312-.072-.626-.107-.939v-2.783l.207-1.437c.036-.239.073-.478.113-.716.685-4.044 2.477-7.524 5.308-10.477 2.757-2.877 6.105-4.742 9.945-5.669 2.925-.706 5.895-.775 8.865-.175zm36.575 7.986c2.494 1.21 4.388 3.038 5.568 5.569.976 2.092 1.387 4.315 1.549 6.61.23 3.284.539 6.563.808 9.845.142 1.739.275 3.478.396 5.219.009.118-.109.348-.183.354-1.143.102-2.288.175-3.48.258l-.349-4.267c-.21-2.553-.421-5.106-.629-7.66-.115-1.418-.198-2.84-.34-4.256-.24-2.371-.866-4.615-2.432-6.48-1.26-1.5-2.91-2.395-4.818-2.715-3.676-.615-6.8.427-9.085 3.453-.998 1.322-1.521 2.92-1.55 4.586-.029 1.794.079 3.594.193 5.387.133 2.095.339 4.186.51 6.279.18 2.2.358 4.402.534 6.603.013.158.002.318.002.547-.942.073-1.873.157-2.805.214-.881.054-.87.04-.942-.875-.265-3.32-.544-6.64-.81-9.96-.199-2.483-.377-4.968-.581-7.451-.226-2.75-.473-5.5-.703-8.25-.062-.741-.098-1.485-.15-2.284 1.245-.1 2.44-.194 3.685-.293l.313 3.607c.17-.18.288-.272.365-.39 1.815-2.806 4.464-4.228 7.705-4.622 2.485-.301 4.93-.143 7.23.972zm13.766 5.748c.08 1.012.164 2.023.25 3.034.215 2.535.445 5.07.646 7.606.164 2.06.29 4.121.443 6.182.098 1.313.206 2.626.334 3.937.036.366-.071.529-.437.549-.743.04-1.485.097-2.308.153l-1.745-21.633c.85-.079 1.627-.141 2.401-.227.325-.036.395.136.416.4zm17.582-1.799c4.743 1.095 8.435 5.597 8.676 10.523.035.699.026.681-.676.731-2.109.15-4.215.328-6.322.492-1.575.122-3.151.232-4.726.364-1.946.163-3.89.347-5.835.515-.619.053-1.24.082-1.87.123-.234.633.023 1.188.245 1.704 1.293 3.002 3.555 4.817 6.776 5.361 2.439.412 4.61-.322 6.514-1.817 1.14-.895 2.033-2.02 2.427-3.473.039-.143.201-.344.324-.357.876-.094 1.758-.147 2.829-.227-.32.816-.527 1.515-.853 2.152-1.45 2.83-3.635 4.865-6.69 5.806-4.048 1.247-7.736.45-10.934-2.322-2.142-1.856-3.376-4.235-3.704-7.09-.436-3.805.734-7.064 3.453-9.665 2.902-2.777 6.396-3.737 10.366-2.82zm13.924-18.733l2.1 26.057 1.053 13.044-3.706.31-3.155-39.093 3.708-.318zm-25.04 28.48c-.049.36.049.522.45.487 2.085-.18 4.172-.338 6.258-.508 2.136-.175 4.272-.352 6.408-.53 1.198-.1 2.396-.207 3.597-.31-.43-2.664-2.614-5.173-5.339-6.187-4.914-1.828-10.593 1.266-11.374 7.047zm-7.352-15.952c.09-.004.264.223.275.355.124 1.4.232 2.802.313 4.205.008.14-.18.405-.3.42-.789.093-1.585.134-2.429.195-.136-1.703-.264-3.312-.4-4.998.89-.068 1.715-.143 2.541-.177zM74.4 3.59c.104.141.287.223.483.29.681 1.221.675 2.539.378 3.884-.18.815-.377 1.628-.52 2.45-.17.969.341 1.804.58 2.696-.412.22-.34.639.295 1.11l-.255-.753.133-.056.935 2.123-.36-.059c0 .819.035 1.638-.014 2.453-.025.403-.172.809-.319 1.192-.32.835-.67 1.658-1.026 2.479-.039.09-.186.175-.292.188-.738.09-1.478.161-2.361.253.92-1.282 1.391-2.563 1.671-3.918.263-1.273-.06-2.45-.608-3.595-.434-.906-.873-1.816-1.206-2.762-.287-.815-.074-1.647.2-2.451.442-1.295.727-2.624.308-3.967-.162-.517-.547-.97-.86-1.432-.235-.344-.519-.653-.881-1.103.489-.057.85-.064 1.193-.144 1.13-.26 1.89.27 2.526 1.122zm2.424-1.497c.157-.007.324.066.474.037.7-.133.967.363 1.265.834.185.292.375.583.59.854.75.944 1.058 2.063.642 3.147-.292.76-.212 1.788-1.193 2.253-.172.082-.116.648-.166.99l.166-.042c.11.255.281.5.318.766.06.436.005.89.287 1.274.068.093.106.238.195.28.656.31.915.833.935 1.539.006.214.235.422.242.637.022.64-.07 1.286-.015 1.921.073.836-.498 1.463-.619 2.174-.104.61-.289 1.192-.416 1.79-.117.547-.39.883-1.012.864-.83-.026-1.66-.007-2.547-.007.33-.975.713-1.923.963-2.906.28-1.099.477-2.223.634-3.347.12-.872-.3-1.62-.776-2.315-1.115-1.627-1.134-3.325-.371-5.09.414-.957.677-1.98.096-2.914-.48-.77-1.171-1.407-1.779-2.095-.124-.14-.292-.242-.44-.362.007-.05.012-.1.018-.151.836-.045 1.672-.093 2.509-.13zm6.786-.545c.138.001.374.255.393.414.106.845.152 1.699.228 2.548.17 1.891.347 3.78.515 5.672.025.283.003.57.024.855.121 1.592.259 3.183.372 4.775.103 1.455.172 2.911.276 4.365.037.518-.237.657-.671.658h-1.861c-.016-.108-.05-.277-.063-.448-.14-1.842-.279-3.684-.412-5.527-.072-.993-.113-1.988-.202-2.979-.13-1.447-.293-2.891-.439-4.336-.014-.142-.002-.286-.013-.428-.136-1.653-.286-3.304-.392-4.959-.01-.16.232-.46.39-.485.611-.095 1.236-.132 1.855-.125zm3.82-.236c.026.081.097.212.104.346.053.92.06 1.845.143 2.763.147 1.626.355 3.246.502 4.872.082.91.076 1.826.138 2.737.061.9.163 1.796.24 2.695.09 1.061.164 2.124.259 3.185.06.668.144 1.334.222 2.001.046.4-.04.638-.524.644-.563.008-1.125.133-1.687.132-.128 0-.352-.3-.366-.476-.098-1.257-.13-2.519-.23-3.776-.11-1.395-.292-2.784-.404-4.179-.085-1.064-.097-2.135-.166-3.2-.038-.58-.126-1.156-.193-1.733-.006-.053-.037-.106-.03-.156.153-1.178-.231-2.313-.272-3.476-.02-.568-.073-1.135-.133-1.7-.05-.472.172-.668.609-.655.369.011.737.065 1.106.07.215.002.431-.057.682-.094zm1.809-.142c.494.083 1.02.191 1.55.258 1.026.129 2.054.237 3.082.347.35.038.7.076 1.05.082.767.012 1.029.264 1.04 1.048.005.446-.026.894.007 1.337.13 1.722.281 3.442.419 5.163.045.564.068 1.129.11 1.692.068.907.132 1.815.218 2.72.13 1.383.286 2.764.414 4.147.05.529.073 1.062.064 1.592-.002.101-.207.276-.328.286-.81.06-1.621.079-2.432.125-1.16.065-2.32.138-3.48.216-.373.025-.495-.061-.47-.497.035-.645-.08-1.3-.134-1.95-.008-.104-.043-.207-.05-.311-.108-1.562-.221-3.122-.317-4.684-.083-1.341-.112-2.687-.225-4.025-.14-1.645-.37-3.283-.506-4.929-.068-.824-.012-1.658-.012-2.617zm12.524-.946c1.15.686 2.3 1.375 3.427 2.1.107.067.137.429.06.581-.394.773-.857 1.511-1.255 2.283-.552 1.07-1.048 2.169-1.61 3.234-.25.476-.117.793.234 1.118.88.817 1.734 1.661 2.63 2.46.365.327.32.623.11.977-.653 1.1-1.3 2.204-1.96 3.299-.252.418-.285.726.145 1.103.56.49 1.021 1.095 1.525 1.65l-.077.158c-.275.026-.55.05-.825.079-.51.054-1.022.105-1.532.167-.61.075-1.095-.03-1.552-.547-.862-.974-1.806-1.88-2.76-2.768-.33-.307-.317-.592-.136-.886.328-.532.712-1.03 1.072-1.541.225-.319.392-.714.688-.939.676-.514.602-1.307.838-1.981.032-.09-.124-.278-.23-.38-.559-.537-1.113-1.079-1.7-1.581-.36-.308-.78-.545-1.17-.82-.306-.218-.377-.48-.18-.827.499-.88.992-1.762 1.461-2.658.469-.895.903-1.81 1.356-2.713.23-.458.482-.906.698-1.37.179-.386.452-.372.743-.198z"/>
</svg>
