<svg xmlns="http://www.w3.org/2000/svg" width="124" height="78" viewBox="0 0 124 78">
    <path fill-rule="evenodd" d="M20.069 43.292c9.913.003 17.356 7.984 17.346 17.384-.011 9.58-7.79 17.316-17.368 17.3-9.673-.015-17.384-7.77-17.333-17.493.047-9.228 7.417-17.195 17.355-17.191zm-.553 6.304c-.774.753-1.557 1.503-2.393 2.185-1.017.83-2.139 1.533-3.135 2.385-2.592 2.219-3.631 5.106-3.17 8.435.742 5.37 5.9 8.49 10.6 7.786 4.588-.688 8.105-4.697 7.957-8.859.021-3.104-1.066-5.488-3.238-7.36-.792-.682-1.65-1.29-2.495-1.906l-.607-.438c-.908-.657-1.797-1.331-2.476-2.257-.316-.432-.642-.36-1.043.03zm98.655 5.203c.99.03 1.983.022 2.974.004.382-.007.524.133.58.515.59 3.963 1.2 7.923 1.8 11.884.156 1.03.295 2.063.458 3.205h-1.367c-.706 0-1.411-.017-2.116.006-.39.013-.504-.127-.55-.518-.327-2.753-.686-5.503-1.038-8.253-.006-.048-.051-.09-.14-.236-.117.24-.21.41-.283.586-1.095 2.614-2.219 5.217-3.26 7.852-.278.7-.755.514-1.236.57-.48.058-.652-.179-.811-.585-1.004-2.569-2.034-5.127-3.057-7.688-.09-.223-.189-.442-.284-.663l-.151.004c-.106.66-.22 1.32-.316 1.983-.314 2.18-.614 4.363-.948 6.54-.023.152-.274.38-.424.383-1.16.032-2.32.018-3.57.018.167-1.016.32-1.98.484-2.94.553-3.258 1.108-6.515 1.663-9.772.14-.823.297-1.643.423-2.468.045-.298.15-.427.47-.422 1.048.016 2.097.02 3.145-.002.374-.008.48.2.588.488.907 2.401 1.822 4.8 2.736 7.199.072.189.16.372.302.702.152-.346.253-.557.34-.773.951-2.365 1.909-4.727 2.843-7.098.147-.373.329-.533.745-.52zm-14.639.556c-.018 2.418-.008 4.836-.008 7.254 0 2.399-.012 4.798.01 7.197.004.474-.131.628-.609.611-.95-.034-1.904-.023-2.856-.004-.371.008-.503-.121-.502-.492.007-4.874.007-9.748 0-14.622 0-.37.13-.503.501-.496.971.018 1.943.025 2.914-.002.428-.012.553.128.55.554zm-28.115-.558c2.534.026 5.069.022 7.603.003.46-.003.648.11.624.602-.038.74-.033 1.486-.002 2.228.018.438-.145.551-.562.543-1.276-.023-2.553.008-3.83-.017-.424-.008-.577.12-.552.55.032.55.027 1.105.001 1.656-.019.403.133.532.529.525 1.124-.02 2.249.013 3.372-.016.452-.012.605.125.585.58-.033.741-.029 1.486-.001 2.228.015.417-.107.573-.545.561-1.066-.028-2.135.02-3.2-.02-.561-.022-.764.117-.748.719.042 1.637.002 3.276.022 4.915.005.414-.1.576-.541.562-.952-.03-1.906-.035-2.858.002-.48.018-.574-.179-.572-.6.013-2.401.006-4.802.006-7.203 0-2.381.013-4.763-.01-7.144-.006-.525.153-.679.679-.674zm-25.059.691c-.024 3.563-.012 7.126-.012 10.69 0 .877.001.878.859.878 1.124 0 2.25-.029 3.372.013.54.02.799-.15.994-.667 1.383-3.663 2.81-7.31 4.197-10.972.175-.461.387-.653.898-.634 1.104.041 2.21.022 3.316.008.312-.004.48.101.592.401 1.861 4.966 3.733 9.929 5.6 14.893.025.066.03.14.063.307-1.355 0-2.629.012-3.902-.017-.144-.003-.345-.207-.412-.364-.269-.629-.51-1.27-.73-1.918-.107-.318-.267-.453-.615-.45-1.6.015-3.201.016-4.802 0-.35-.005-.512.142-.626.445-.24.64-.515 1.269-.749 1.911-.109.298-.276.402-.592.4-3.64-.009-7.28-.01-10.92.001-.375.002-.492-.124-.491-.494.009-4.878.009-9.755 0-14.633-.001-.385.146-.49.506-.483.914.018 1.83.036 2.743-.006.541-.024.715.13.711.691zm38.665-.693c1.084.046 2.171.022 3.257.01.299-.004.491.06.608.372 1.862 4.964 3.733 9.924 5.6 14.885.033.085.043.178.08.342-1.356 0-2.663.01-3.97-.017-.125-.002-.298-.209-.36-.358-.26-.632-.501-1.273-.719-1.921-.116-.348-.317-.457-.675-.453-1.562.017-3.124.02-4.685-.002-.395-.006-.582.136-.709.493-.222.626-.47 1.245-.74 1.853-.071.162-.257.385-.395.388-1.29.03-2.58.017-3.958.017.207-.565.38-1.061.57-1.551 1.717-4.471 3.445-8.938 5.147-13.415.185-.486.421-.665.95-.643zm-26.91 4.834l-1.675 4.983h3.51l-1.66-4.979-.174-.004zm28.487.012l-.175.006-1.67 4.963h3.503L90.6 59.64zM72.77 39.599c2.512 4.02.695 10.465-5.041 11.7-.61.13-1.24.177-1.67.237-4.365-.104-7.325-2.37-8.186-6.1-.967-4.191 1.264-7.922 5.405-9.175 3.57-1.08 7.627.353 9.492 3.338zM56.282 36.54c.293.107.475.231.469.6-.023 1.275-.01 2.551-.01 3.937-.933-.918-1.952-1.436-3.217-1.452-1.29-.015-2.355.405-3.165 1.4-1.31 1.612-1.237 4.094.138 5.568 1.489 1.596 3.702 1.554 6.244-.166 0 1.37.011 2.664-.014 3.958-.003.154-.173.386-.32.443-3.449 1.356-7.507.19-9.567-2.77-2.662-3.827-1.309-10.428 4.782-11.869 1.568-.37 3.138-.205 4.66.351zm52.315-.112c1.672.082 3.159.7 3.89 2.353.724 1.635.637 3.264-.397 4.775-.541.791-1.352 1.197-2.4 1.46l4.578 5.982c-.909 0-1.698.006-2.487-.002-.703-.006-1.527.193-2.076-.106-.547-.297-.828-1.094-1.21-1.683-.806-1.242-1.6-2.492-2.533-3.721-.012.19-.034.381-.035.572-.003 1.448-.016 2.896.008 4.344.007.435-.1.62-.568.604-.876-.03-1.753-.02-2.63-.003-.386.008-.541-.122-.54-.525.01-4.535.009-9.069 0-13.603 0-.38.154-.487.513-.485 1.963.016 3.929-.058 5.887.038zm-8.18-.038c.377-.002.498.13.486.5-.022.703-.024 1.41.001 2.114.014.389-.1.548-.513.53-.685-.028-1.373.024-2.057-.017-.522-.03-.641.176-.639.66.017 3.373-.002 6.746.02 10.118.004.54-.132.747-.696.714-.78-.044-1.565-.046-2.343 0-.575.035-.698-.188-.688-.72.031-1.676.011-3.353.011-5.03 0-1.695-.016-3.391.01-5.086.008-.488-.112-.688-.633-.656-.703.042-1.41-.003-2.115.015-.344.01-.475-.106-.466-.46.02-.742.021-1.485 0-2.228-.01-.362.142-.453.474-.453 3.05.008 6.098.01 9.147-.001zm-13.948-.005c.875.037 1.754.025 2.63.004.38-.008.49.136.489.501-.01 4.537-.01 9.073 0 13.61 0 .37-.124.509-.496.502-.933-.015-1.87.027-2.8-.023-.273-.015-.616-.196-.786-.411-2.114-2.677-4.203-5.374-6.3-8.064-.11-.141-.237-.27-.464-.525-.018.362-.035.56-.035.758-.002 2.535-.019 5.07.012 7.605.006.55-.18.685-.686.665-.838-.033-1.678-.024-2.516-.003-.4.01-.523-.142-.522-.536.01-4.517.01-9.034 0-13.551-.002-.394.116-.54.52-.529.876.024 1.755.03 2.63-.002.429-.016.703.129.962.463 2.05 2.655 4.115 5.297 6.176 7.942.139.178.284.35.542.667.025-.351.05-.54.051-.73.003-2.573.012-5.146-.007-7.72-.004-.46.108-.643.6-.623zm29.229 0c2.4.023 4.8.017 7.2.004.379-.001.556.086.538.508-.03.703-.028 1.41 0 2.113.014.4-.117.532-.52.525-1.18-.022-2.362.005-3.543-.015-.389-.006-.552.105-.528.514.03.513.033 1.03 0 1.542-.03.445.163.552.568.544 1.028-.02 2.058.013 3.085-.015.457-.012.66.108.634.601-.036.665-.03 1.334-.002 2 .017.433-.153.554-.569.543-1.009-.025-2.019-.008-3.029-.008h-.645v2.574c.197.01.397.03.597.03 1.162.003 2.324.011 3.486-.004.347-.005.472.112.463.461-.019.743-.02 1.486 0 2.228.01.35-.123.472-.464.47-2.457-.007-4.914-.01-7.372.002-.47.003-.472-.27-.47-.571v-8.933c0-1.504.012-3.009-.005-4.513-.005-.427.104-.604.576-.6zm-49.91 3.138c-2.299-.006-4.239 1.81-4.241 3.968-.003 2.44 1.892 4.429 4.216 4.427 2.3-.001 4.202-1.976 4.214-4.375.011-2.176-1.905-4.014-4.19-4.02zm40.542-.305c-.12-.012-.37.236-.384.382-.049.489-.019.986-.02 1.48 0 .495.01.99-.003 1.483-.008.278.086.473.379.427.63-.097 1.282-.158 1.876-.372.664-.24.877-.872.87-1.534-.005-.687-.248-1.31-.946-1.544-.565-.19-1.176-.26-1.772-.322zM20.479.212c4.114 3.48 6.584 7.875 7.32 13.215.179 1.293.213 2.606.325 4.047 1.726-1.401 3.525-2.615 5.535-3.478 2.016-.867 4.102-1.462 6.407-1.648-.054 1.071-.046 2.078-.164 3.069-.46 3.864-1.881 7.343-4.268 10.426-1.58 2.039-3.483 3.72-5.61 5.163-2.237 1.519-4.481 3.027-6.698 4.576-1.034.723-1.945 1.588-2.619 2.68-.297.482-.964.539-1.243.087-1.095-1.78-2.79-2.888-4.453-4.033-2.117-1.458-4.302-2.825-6.352-4.372-4.52-3.41-7.35-7.916-8.301-13.526C.137 15.116.12 13.778 0 12.327c4.644.477 8.535 2.263 12.094 5.247v-1.05c-.02-4.89 1.426-9.297 4.467-13.128.917-1.155 2.062-2.129 3.095-3.193.29-.299.524-.244.823.01zm85.123 20.309c2.868 3.848 1.285 10.941-4.877 12.365-.68.158-1.386.206-2.08.305-4.157-.07-7.34-2.522-8.213-6.39-1.016-4.504 1.712-8.738 6.281-9.592 3.589-.67 6.664.326 8.889 3.312zm-34.009-2.837c.183.066.447.27.45.416.035 1.381.02 2.764.02 4.185-2.684-1.865-4.952-1.884-6.508-.092-1.421 1.636-1.393 4.316.062 5.862 1.611 1.714 3.936 1.646 6.447-.229 0 1.442.007 2.843-.013 4.244-.002.12-.165.3-.293.35-4.074 1.54-8.074-.034-10.018-3.004-2.82-4.31-.825-10.71 4.985-12.112 1.664-.401 3.284-.195 4.868.38zm48.523-.169c.933.032 1.868.019 2.801.005.342-.005.519.063.518.468-.012 4.705-.01 9.41-.002 14.116 0 .336-.097.488-.451.483-1.048-.012-2.097.02-3.143-.023-.234-.01-.52-.21-.675-.408-2.177-2.77-4.336-5.555-6.5-8.336-.12-.155-.255-.3-.383-.45l-.134.05c-.01.217-.028.433-.028.65-.003 2.61-.018 5.22.011 7.83.006.565-.177.72-.716.695-.875-.04-1.753-.022-2.63-.006-.37.007-.492-.132-.491-.503.009-4.686.009-9.373 0-14.06 0-.357.089-.516.478-.508 1.01.02 2.02-.017 3.029.025.236.01.532.188.684.38 2.157 2.738 4.294 5.492 6.438 8.24.145.187.303.365.591.501v-.596c0-2.648.012-5.296-.01-7.944-.004-.48.141-.625.613-.609zm-46.26.004c3.142.011 6.284.01 9.426.001.339 0 .48.105.471.458-.018.78-.018 1.562 0 2.342.008.358-.138.463-.475.451-.552-.02-1.105-.014-1.657-.003-1.274.026-1.16-.257-1.164 1.195-.006 2.265-.002 4.531-.002 6.797 0 1.047-.021 2.095.01 3.141.014.506-.123.72-.669.694-.835-.04-1.676-.035-2.512-.001-.512.02-.684-.125-.68-.668.025-3.466.013-6.93.013-10.396v-.764c-.963 0-1.836-.016-2.709.007-.39.01-.55-.109-.538-.514.022-.742.016-1.485.002-2.227-.007-.352.094-.515.484-.513zm11.811-.004c.914.034 1.83.023 2.744.003.378-.008.491.132.49.5-.009 4.688-.01 9.375.002 14.063 0 .424-.179.514-.55.508-.914-.015-1.83-.022-2.744.002-.43.012-.552-.152-.549-.567.016-2.344.007-4.688.007-7.032 0-2.287.012-4.574-.01-6.86-.003-.47.128-.635.61-.617zm-33.755 0c1.085.03 2.171.02 3.257.003.336-.005.517.106.636.424 1.783 4.751 3.575 9.498 5.362 14.248.038.101.038.217.065.385-1.287 0-2.54.011-3.793-.016-.129-.002-.306-.205-.369-.354-.25-.595-.48-1.2-.687-1.812-.11-.327-.303-.443-.634-.44-1.524.007-3.048.007-4.572-.001-.331-.002-.524.118-.64.439-.218.608-.456 1.21-.722 1.798-.072.16-.272.368-.418.372-1.233.03-2.467.017-3.756.017.056-.212.08-.358.132-.494 1.8-4.684 3.606-9.366 5.396-14.054.144-.377.328-.527.743-.516zm46.67 3.251c-2.377 0-4.325 1.838-4.324 4.08 0 2.554 1.919 4.575 4.339 4.572 2.412-.003 4.331-2.037 4.33-4.588-.002-2.232-1.96-4.064-4.345-4.064zm-45 1.442l-.194.012-1.602 4.77h3.37l-1.574-4.782z"/>
</svg>
