<svg xmlns="http://www.w3.org/2000/svg" width="178" height="39" viewBox="0 0 178 39">
    <path fill-rule="evenodd" d="M98.853 19.384c1.254.16 2.442.116 3.572-.392.566-.255.977-.673 1.096-1.313.194-1.033-.258-1.825-1.267-2.22-1.02-.4-2.087-.324-3.147-.281-.088.003-.242.194-.244.3-.016 1.28-.01 2.56-.01 3.906M39.477.147v38.816h-.611l-38.211.001c-.218 0-.437.013-.655.02V.148h39.477zM20.393 29.432c-.402.503-.778.888-1.05 1.334-.536.879-1.348 1.19-2.305 1.273l-.79.092c-.28.026-.561.04-.842.058l-.019.136c.619.212 1.237.424 1.932.664l-1.866 1.468.048.124c1.012-.38 2.039-.726 3.03-1.155.493-.214.957-.413 1.51-.381.28.017.568-.062.976-.113-.683-.895-.143-1.358.487-1.792.09-.061.168-.14.248-.213l1.343-1.251-.06-.073-2.503 1.39-.14-1.561zM6.277 23.355l-.164.021v4.628l-2.121.762-.005.131c.846.461 1.702.906 2.534 1.392.25.146.495.374.63.624.539.993 1.162 1.912 1.994 2.696l-.143-2.275 3.575.592.033-.157c-.135-.064-.28-.115-.405-.194-.827-.525-1.65-1.057-2.477-1.582-.275-.175-.312-.384-.162-.67.369-.7.72-1.41 1.1-2.156-.844.136-1.676.247-2.497.414-.316.065-.472-.02-.569-.293-.38-1.07-.76-2.141-1.132-3.215-.081-.233-.128-.478-.19-.718zm170.338-9.686c.096.018.224.203.227.313.02.78.01 1.56.01 2.386-.554-.213-1.068-.428-1.595-.607-1.146-.39-2.308-.675-3.532-.426-.428.088-.833.248-.953.718-.129.505.05.96.486 1.223.65.394 1.332.738 2.018 1.067.955.458 1.95.837 2.882 1.332.848.45 1.508 1.118 1.725 2.109.313 1.433-.276 2.771-1.563 3.565-1.154.711-2.446.902-3.764.967-1.45.07-2.854-.25-4.252-.577-.113-.026-.262-.22-.266-.34-.024-.765-.012-1.531-.012-2.302.988.348 1.927.724 2.894 1.007.98.286 1.996.361 3.01.155.492-.101.91-.318 1.056-.867.154-.579-.062-1.036-.508-1.354-.466-.332-.972-.62-1.49-.866-.789-.372-1.618-.66-2.401-1.042-.571-.278-1.141-.593-1.635-.987-1.486-1.186-1.541-3.242-.16-4.55.866-.82 1.945-1.146 3.09-1.317 1.61-.24 3.17.1 4.733.393zm-63.143-.005c.135.005.336.111.386.225 1.8 4.027 3.585 8.06 5.372 12.093.005.011 0 .028-.005.11-1.054 0-2.083.01-3.112-.013-.114-.003-.273-.175-.327-.303-.305-.733-.597-1.473-.866-2.22-.106-.293-.258-.421-.577-.418-1.406.017-2.812.006-4.217.034-.146.003-.364.169-.419.31-.296.753-.541 1.526-.832 2.282-.052.135-.232.31-.358.314-.856.028-1.713.015-2.632.015.072-.185.118-.324.177-.457 1.744-3.899 3.487-7.798 5.243-11.69.058-.13.25-.273.387-.28.592-.03 1.187-.027 1.78-.002zm-46.122.807c1.429 2.216 2.907 4.4 4.367 6.595.04.06.087.112.184.234l-.298-7.62h2.793v12.41c-.633 0-1.332.011-2.03-.01-.106-.003-.238-.129-.309-.232-1.786-2.617-3.567-5.237-5.344-7.86-.172-.255-.312-.532-.467-.8l-.13.013.155 8.85h-2.725V13.653c.692 0 1.44.059 2.176-.016.763-.078 1.22.2 1.628.834zm94.092-.434c1.629 3.693 3.268 7.382 4.904 11.072.131.297.26.596.428.983-1.12 0-2.147.01-3.174-.014-.115-.003-.277-.174-.33-.302-.315-.763-.61-1.535-.898-2.308-.088-.235-.205-.338-.475-.335-1.421.014-2.843.012-4.264 0-.263-.003-.394.081-.474.33-.25.77-.51 1.538-.787 2.299-.048.13-.2.312-.308.315-.871.026-1.743.014-2.698.014.076-.193.125-.33.184-.463 1.74-3.899 3.485-7.797 5.218-11.7.1-.225.224-.287.455-.28.546.016 1.095.03 1.64-.004.329-.021.458.118.58.393zm-35.08-.373c1.236.024 2.457.193 3.594.73 1.565.741 2.223 2.13 1.786 3.785-.29 1.097-1.097 1.702-2.084 2.12-.184.078-.372.144-.609.234l3.772 5.557h-2.152c-.465 0-.925-.003-1.385-.007-.084 0-.2-.09-.247-.17-1.26-2.134-2.511-4.271-3.783-6.44.323 0 .688.025 1.048-.004.723-.06 1.364-.326 1.862-.87.88-.956.641-2.454-.534-2.994-.55-.253-1.188-.357-1.798-.433-.566-.071-1.147-.016-1.803-.016-.109 3.652-.142 7.25.077 10.894h-3.327V13.683c.078-.008.183-.028.288-.028 1.765-.002 3.53-.025 5.295.009zm-70.544.015c.948.04 1.908.28 2.821.563.797.247 1.415.814 1.642 1.67.289 1.082-.132 1.94-.978 2.585-.424.324-.929.543-1.422.823.387.172.773.322 1.138.512 1.03.534 1.81 1.27 1.957 2.503.132 1.12-.29 1.983-1.195 2.621-1.002.707-2.162 1.016-3.348 1.06-2.279.085-4.561.055-6.842.07-.044 0-.089-.022-.087-.022V13.672c.088-.004.225-.018.361-.018 1.985-.001 3.972-.06 5.953.025zm27.695-.013c1.346.032 2.666.234 3.882.896 2.135 1.164 2.003 4.323.094 5.35-.635.343-1.337.652-2.04.756-1.275.189-2.575.214-3.864.304-.168.011-.338.001-.598.001l.191 5.092h-3.292v-12.39c.09-.006.21-.02.331-.02 1.766-.002 3.532-.032 5.296.01zm54.241.005v12.386h-3.194V13.67h3.194zm-34.724.187c.783.132 1.592.392 2.273.791 1.998 1.172 1.987 4.022.03 5.261-1.002.634-2.132.883-3.287.958-1.04.067-2.087.014-3.243.014l.18 5.17h-3.279V13.687c-.015.01.011-.021.036-.02 2.432.044 4.876-.215 7.29.191zm44.467-.198c.988.01 1.955.181 2.861.602.923.427 1.583 1.085 1.632 2.153.048 1.042-.525 1.769-1.363 2.3-.349.22-.74.376-1.178.594.227.095.414.15.577.246.575.336 1.213.607 1.698 1.046 1.38 1.25 1.207 3.29-.315 4.36-.96.675-2.07 1.004-3.208 1.038-2.368.072-4.74.022-7.077.022V13.673c.06-.003.195-.019.33-.019 2.014-.001 4.03-.014 6.043.006zm-94.816 1.448v9.534c.588 0 1.1.009 1.61-.002.405-.01.817 0 1.212-.076.454-.088.922-.2 1.33-.406 1.135-.574 1.33-1.966.44-2.878-.463-.475-1.04-.757-1.68-.857-.62-.096-1.253-.112-1.923-.166.18-.474.363-.92.516-1.374.084-.247.211-.32.477-.315.644.012 1.277-.073 1.836-.441.571-.376.773-.912.699-1.575-.066-.584-.374-1-.914-1.198-1.153-.423-2.34-.428-3.603-.246zm91.64.356c-.008 2.282-.029 4.563-.042 6.844-.004.76 0 1.521 0 2.265 1.025 0 1.944.049 2.854-.02.482-.037.984-.212 1.412-.444 1.047-.568 1.25-1.908.4-2.74-.375-.369-.874-.69-1.374-.832-.708-.2-1.468-.214-2.263-.315.166-.441.348-.887.498-1.343.084-.254.23-.291.481-.316.522-.05 1.062-.109 1.546-.293.772-.293 1.043-.849.983-1.718-.045-.637-.415-1.153-1.17-1.277-.96-.157-1.946-.15-2.92-.22-.308-.023-.405.111-.406.41zm-31.978 1.921l-.13.024-1.8 4.142h3.703l-1.773-4.166zm47.354-.002l-1.787 4.14h3.684l-1.747-4.128-.15-.012zm-143.18-5.318c-1.26.379-2.319.959-3.342 1.625-.228.148-.535.222-.81.237-1.013.058-2.03.032-3.039.126-.789.073-1.565.277-2.347.423l.008.135c1.26.175 2.545.275 3.643 1.109-1.636 1.69-2.88 3.595-3.888 5.668 1.646-1.397 3.206-2.89 5.065-4.071l1.322 3.939.141-.033c.017-.072.033-.144.052-.216.366-1.387.738-2.772 1.096-4.16.101-.393.343-.569.732-.58 1.308-.04 2.617-.13 3.923-.104.897.017 1.79.194 2.685.3-1.915-1.183-3.99-1.926-6.297-2.299l1.057-2.099zm64.784 3.112c-.092.003-.252.187-.254.289-.017 1.292-.011 2.585-.011 3.911 1.183.18 2.322.114 3.419-.31.871-.338 1.35-1.05 1.318-1.857-.033-.842-.521-1.444-1.42-1.78-.994-.37-2.026-.287-3.052-.253zM22.637 4.51c1.929 1.116 3.91 2.08 5.726 3.504-3.044.546-5.858 1.403-8.636 2.669l8.14-.876.076.188c-.897 1.14-1.795 2.278-2.737 3.473l5.614-2.924c1.091 2.124.99 4.443 1.169 6.71l.138.027c.215-.824.5-1.637.629-2.474.271-1.756.507-3.521.654-5.291.04-.48.107-.777.512-1.042.564-.368 1.006-.864 1.252-1.59-.725.065-1.39.128-2.056.183-.409.034-.902.22-1.216.06-2.625-1.337-5.421-2.077-8.308-2.533-.315-.05-.638-.057-.957-.084z"/>
</svg>
