<svg xmlns="http://www.w3.org/2000/svg" width="156" height="37" viewBox="0 0 156 37">
    <path fill-rule="evenodd" d="M116.1 23.378c.036.006.07.026.105.033 1.32.27 1.307.271 1.393 1.625.059.936.157 1.87.238 2.804l-.207.107c-.09-.18-.199-.352-.27-.54-.517-1.373-1.24-2.584-2.716-3.075-1.962-.654-3.961-.1-5.243 1.662-1.516 2.085-1.615 5.326-.173 7.469 1.068 1.587 2.593 2.178 4.475 2.012 2.027-.179 3.593-1.19 4.952-2.617l.088-.096c.16-.175.322-.318.61-.023-1.11 2.061-2.77 3.426-5.055 4-3.229.813-6.912-.901-8.321-3.864-1.888-3.968.351-8.62 4.65-9.656 1.838-.442 3.657-.167 5.474.159zm-68.931.271l.405 4.263-.148.094c-.101-.138-.227-.265-.3-.417-.247-.513-.431-1.062-.719-1.55-1.483-2.517-5.292-2.744-7.223-.224-1.585 2.068-1.698 5.558-.218 7.709 1.025 1.488 2.49 2.02 4.21 1.933 2.11-.105 3.769-1.137 5.173-2.654.316-.342.322-.337.769-.097-.54 1.142-1.343 2.058-2.35 2.793-2.944 2.151-7.14 1.824-9.72-.744-3.43-3.414-2.334-9.128 2.157-11.073.76-.33 1.613-.526 2.438-.6 1.882-.168 3.73.16 5.526.567zm-17.523-.14c0 1.075.002 2.179-.006 3.283 0 .068-.085.135-.13.203-.084-.095-.207-.176-.243-.286-.42-1.256-1.273-2.044-2.57-2.215-.944-.124-1.908-.1-2.864-.107-.51-.003-1.023.065-1.571.103v4.523c.944-.087 1.884-.1 2.791-.28.936-.185 1.528-.833 1.745-1.791.034-.152.098-.296.149-.444l.175.01v5.825c-.147-.191-.286-.295-.317-.424-.346-1.453-1.109-1.999-2.73-2.024-.588-.01-1.177-.002-1.851-.002v5.548c3.518.505 6.77.339 9.17-2.822 0 .134.036.28-.005.399-.597 1.724-1.817 3.641-4.576 3.598-2.818-.044-5.638.035-8.457.06h-.636l-.024-.137.341-.109c.057-.017.115-.033.173-.046 1.097-.246 1.454-.66 1.463-1.793.015-1.907.007-3.813.008-5.72 0-1.036.003-2.073-.003-3.11-.009-1.424-.334-1.81-1.736-2.081-.085-.016-.168-.04-.247-.16h11.95zm124.477-.004v3.513c-.11-.074-.29-.127-.32-.225-.56-1.907-2.04-2.388-3.768-2.429-.993-.023-1.989.047-2.981.106-.117.006-.316.206-.318.32-.022 1.365-.014 2.732-.014 4.197 1.173-.126 2.32.064 3.392-.446.686-.327 1.032-.915 1.225-1.62.04-.145.091-.287.138-.43l.143.024v5.68l-.13.052c-.073-.166-.173-.326-.215-.5-.26-1.044-.888-1.71-1.971-1.796-.835-.067-1.68-.014-2.584-.014v2.877c0 .74-.012 1.482.013 2.221.004.138.14.37.248.39 2.062.389 4.099.34 6.057-.504 1.058-.456 1.871-1.229 2.564-2.138.063-.083.156-.143.266-.24.05.09.116.154.109.207-.221 1.685-1.89 3.465-3.546 3.77-.324.06-.66.065-.991.068-2.912.03-5.824.054-8.736.078-.173.001-.345-.02-.53-.153.248-.058.496-.123.747-.174.715-.144 1.117-.54 1.214-1.245.057-.42.106-.846.108-1.27.01-2.518.01-5.036 0-7.554-.003-.424-.05-.85-.11-1.27-.097-.676-.5-1.08-1.175-1.225-.262-.056-.524-.11-.776-.27h11.941zm-70.661-.014v3.644c-.17-.214-.3-.316-.344-.446-.499-1.478-1.553-2.2-3.07-2.24-1.283-.035-2.568-.008-3.897-.008v4.603c1-.126 2.003-.185 2.975-.392 1.106-.234 1.447-1.237 1.732-2.242l.182.12v5.84c-.187-.233-.344-.341-.374-.478-.31-1.43-1.13-1.981-2.682-2.006-.605-.01-1.21-.002-1.845-.002v5.546c3.496.517 6.728.312 9.064-2.951.061.169.108.232.101.288-.207 1.614-1.759 3.346-3.337 3.7-.374.083-.766.114-1.15.119-2.912.034-5.823.056-8.735.08-.168 0-.336-.022-.508-.164.236-.055.472-.116.71-.164.713-.146 1.051-.476 1.175-1.202.06-.345.094-.698.095-1.048.008-2.684.005-5.369.004-8.053 0-.148 0-.297-.008-.444-.07-1.272-.396-1.653-1.63-1.907-.13-.027-.26-.053-.38-.193h11.922zm14.972.293c1.145.45 1.956 1.256 2.155 2.53.24 1.53-.575 2.966-2 3.588-.431.188-.872.352-1.391.56 1.665 2.349 2.929 5.045 5.996 5.995-1.597-.076-3.277.303-4.67-.724-.693-.511-1.23-1.261-1.762-1.961-.613-.806-1.16-1.664-1.696-2.524-.233-.372-.462-.618-.941-.61-.34.006-.682-.112-1.035-.177 0 1.516-.062 3.027.024 4.53.05.852.607 1.237 1.503 1.34.165.02.328.042.492.063l-.013.141h-6.575l-.023-.117c.263-.059.527-.119.79-.176.656-.142 1.015-.56 1.106-1.215.043-.31.087-.625.088-.937.007-2.74.006-5.478.001-8.218 0-.275-.023-.555-.069-.827-.148-.88-.461-1.194-1.337-1.382-.193-.041-.385-.09-.577-.136l-.002-.149c.173-.01.346-.024.52-.028 1.617-.03 3.236-.034 4.852-.097 1.553-.06 3.097-.045 4.564.531zm40.052-.395l.031.126c-.192.05-.383.105-.577.147-.88.19-1.252.558-1.315 1.455-.068.959-.084 1.923-.084 2.884.002 2.185-.018 4.37.061 6.553.048 1.296.471 1.637 1.776 1.789.079.009.154.05.218.184h-6.581l-.025-.1c.116-.03.23-.076.35-.088 1.12-.117 1.584-.57 1.625-1.696.052-1.405.063-2.811.086-4.217.003-.124-.027-.25-.044-.395h-7.143v2.494c0 .412 0 .824.002 1.235 0 .26.016.518.025.777.037 1.155.533 1.69 1.667 1.8.119.012.236.042.347.182h-6.535l-.02-.1c.266-.061.532-.126.8-.183.638-.137.977-.557 1.08-1.178.057-.346.098-.698.1-1.048.008-2.685.004-5.37.004-8.055 0-.148-.003-.296-.015-.444-.103-1.286-.4-1.623-1.654-1.89-.139-.03-.273-.073-.401-.212h6.59l.023.118c-.218.047-.437.092-.655.14-.848.187-1.26.56-1.299 1.413-.058 1.253-.015 2.511-.015 3.864h2.838c1.254 0 2.508-.018 3.762.009.444.01.575-.14.553-.572-.05-1.034-.05-2.071-.094-3.106-.044-1.01-.41-1.413-1.401-1.614-.199-.04-.395-.09-.593-.137l.026-.135h6.487zm-70.794.008l.022.147c-.191.038-.382.078-.574.112-.902.161-1.215.448-1.314 1.356-.084.77-.12 1.549-.124 2.324-.014 2.26-.005 4.518.002 6.777.005 1.699.524 2.149 1.927 2.243.046.003.089.05.278.165h-6.714l-.026-.078c.097-.035.192-.09.292-.102 1.115-.13 1.607-.534 1.667-1.622.076-1.366.03-2.74.036-4.11v-.562h-7.176c0 .736-.007 1.43.002 2.124.012.869-.022 1.744.073 2.604.121 1.092.563 1.455 1.648 1.562.117.012.231.045.338.186h-6.58l-.03-.072c.097-.038.19-.098.29-.109 1.217-.136 1.661-.57 1.692-1.808.039-1.532.02-3.064.02-4.597 0-1.497.02-2.996-.019-4.493-.033-1.265-.448-1.67-1.686-1.802-.13-.014-.257-.066-.385-.1l.03-.132h6.594l.008.138c-.26.05-.523.09-.78.152-.665.161-1.092.587-1.113 1.272-.039 1.29-.011 2.581-.011 3.922h7.07c0-1.212.045-2.411-.013-3.606-.05-1.052-.464-1.435-1.526-1.64-.188-.037-.374-.085-.55-.251h6.632zm-57.535.393c1.373.566 2.22 1.534 2.245 3.102.021 1.3-.709 2.14-1.708 2.786-.486.314-1.042.519-1.712.845.85 1.168 1.657 2.355 2.544 3.48.894 1.131 1.994 2.014 3.563 2.36-.179.091-.247.159-.312.155-1.064-.065-2.137-.074-3.19-.227-1.123-.164-1.896-.93-2.528-1.827-.732-1.04-1.463-2.084-2.153-3.153-.255-.397-.48-.702-1.013-.68-.32.013-.645-.105-1.054-.18v1.372c.004.907-.003 1.814.016 2.72.024 1.146.548 1.695 1.672 1.794.135.012.269.04.395.184H.225c.1-.08.156-.16.222-.171 1.447-.226 1.81-.529 1.838-1.977.053-2.923.048-5.848.003-8.772-.022-1.383-.356-1.69-1.719-2.006-.103-.023-.204-.056-.308-.21.216-.01.432-.025.648-.029 1.562-.03 3.126-.032 4.687-.096 1.553-.063 3.095-.075 4.561.53zm-5.307.691c0 1.532-.006 2.991.01 4.45.002.13.119.339.225.372 1.18.369 2.355.415 3.456-.252.938-.569 1.243-1.476 1.161-2.516-.078-.998-.64-1.67-1.57-2.01-1.07-.391-2.152-.314-3.282-.044zm88.19.005c0 1.53-.007 3.008.011 4.485.001.119.145.305.26.342.989.319 1.985.362 2.969-.021 1.083-.423 1.65-1.351 1.623-2.63-.021-1.011-.642-1.845-1.663-2.175-1.042-.336-2.094-.28-3.2-.001zM113.5 14.7c2.287.37 4.344 1.462 6.534 2.133 1.202.368 2.455.71 3.698.769 1.724.08 3.375-.44 4.9-1.289l.382-.208.138.101c-.105.169-.184.364-.32.501-1.603 1.614-3.573 2.405-5.808 2.627-2.03.201-3.886-.306-5.677-1.231-1.518-.784-3.047-1.561-4.624-2.21-1.594-.656-3.275-.605-4.945-.22-.137.032-.293-.02-.44-.034.106-.12.188-.29.321-.354 1.875-.894 3.846-.908 5.84-.585zM139.902.525l.034.121c-.095.054-.184.143-.284.158-1.142.173-1.48.734-1.558 1.88-.074 1.107-.038 2.22-.045 3.331-.005.963 0 1.926 0 2.89-.002 2.306-1.08 3.91-3.24 4.706-2.074.765-4.16.728-6.173-.198-1.861-.856-2.84-2.33-2.822-4.432.018-2.037.005-4.074.002-6.111 0-.259-.004-.52-.036-.776-.09-.737-.357-1.021-1.085-1.205-.21-.053-.415-.127-.622-.192l.031-.162h6.606l.024.16c-.157.04-.313.092-.472.118-1.242.202-1.68.7-1.687 1.976-.01 2.074-.007 4.148-.002 6.222.005 2.276 1.544 3.783 3.818 3.747 1.974-.032 3.516-1.155 3.924-2.876.063-.267.086-.549.086-.824-.004-2.018.004-4.037-.036-6.054-.027-1.338-.465-2.046-1.689-2.208-.08-.011-.148-.112-.346-.27h5.572zM34.506.111c1.09.309 2.234.494 3.258.95 2.687 1.199 4 3.788 3.885 6.295-.137 2.98-1.742 4.96-4.427 6.055-2.52 1.026-5.097.965-7.557-.152-2.722-1.235-4.163-3.408-4.027-6.472.13-2.9 1.712-4.817 4.29-5.914.916-.39 1.943-.516 2.919-.762h1.66zm79.77 0c.958.243 1.956.385 2.864.75 2.157.867 3.684 2.399 4.17 4.737.547 2.638-.202 4.901-2.28 6.652-3.1 2.613-8.193 2.346-10.967.195-1.947-1.51-2.847-3.51-2.613-5.959.262-2.751 1.83-4.581 4.31-5.624 1.17-.492 2.426-.717 3.714-.671.23.008.461-.052.692-.08h.11zm-46.689 0c1.073.3 2.213.455 3.207.922 4.37 2.054 4.82 6.91 2.795 9.83-1.262 1.82-3.09 2.725-5.217 3.093-2.565.445-4.944-.019-7.048-1.583-3.33-2.476-3.484-7.427-.386-10.195C62.275.983 63.828.4 65.573.223c.12-.012.237-.074.355-.112h1.66zm18.698 0c.632.072 1.267.121 1.894.223.723.117 1.442.267 2.154.439.129.03.294.226.31.362.15 1.187.27 2.378.4 3.585-.355.18-.512-.028-.66-.32-.5-.987-1.19-1.808-2.082-2.473-1.457-1.088-3.854-.848-5.148.389-1.618 1.547-2.175 3.481-1.875 5.65.12.863.358 1.754.75 2.526 1.397 2.754 4.724 2.986 6.917 1.649.152-.092.275-.34.29-.527.042-.478.016-.962.015-1.443-.003-1.067-.413-1.543-1.47-1.72-.211-.036-.418-.091-.627-.137l.026-.149h6.486l.03.131c-.23.051-.46.1-.69.153-.818.19-1.134.506-1.204 1.348-.06.718-.059 1.442-.045 2.163.006.343-.116.535-.41.698-2.615 1.455-5.352 1.867-8.236.965-2.414-.756-4.024-2.355-4.664-4.808-.673-2.578.102-4.779 2.048-6.553 1.318-1.2 2.89-1.867 4.664-2.049.083-.008.161-.067.242-.102h.885zM6.845.46c1.317.013 2.585.325 3.72 1.046 1.01.643 1.581 1.557 1.511 2.77-.067 1.179-.841 1.876-1.816 2.389-.114.06-.233.106-.434.197.54.231 1.008.427 1.474.632 2.035.895 2.544 3.94.224 5.317-1.603.95-3.347 1.145-5.155 1.075-1.93-.075-3.86-.142-5.79-.21-.188-.007-.376-.001-.565-.001L0 13.508c.215-.041.432-.075.644-.125.855-.203 1.209-.594 1.213-1.468.015-3.202.015-6.404.001-9.607C1.854 1.385 1.408.918.506.786.343.762.182.728.03.576.11.559.189.529.269.528 2.46.498 4.653.438 6.845.459zm147.37.06c0 1.125.004 2.193-.007 3.26 0 .105-.097.208-.15.313-.095-.113-.234-.21-.28-.339-.477-1.367-1.429-2.115-2.864-2.202-.805-.048-1.614-.046-2.422-.037-.548.007-1.097.065-1.701.104 0 1.39-.008 2.736.015 4.082.002.103.223.294.335.288.789-.037 1.588-.048 2.36-.196.981-.19 1.609-.835 1.856-1.827.035-.142.098-.278.148-.417l.171.027V9.35c-.088-.043-.245-.07-.308-.16-.09-.131-.12-.307-.162-.468-.28-1.076-1.023-1.601-2.078-1.677-.749-.054-1.504-.01-2.293-.01-.014.084-.045.188-.045.292-.004 1.555-.012 3.11.01 4.664.002.168.157.46.276.48 2.257.366 4.498.39 6.536-.83.712-.427 1.285-1.088 1.918-1.647.118-.104.216-.23.397-.425.029.2.077.307.05.39-.689 2.153-1.945 3.802-4.658 3.772-2.857-.03-5.714.026-8.57.041-.188.001-.375-.018-.561-.027l-.018-.172c.213-.053.424-.117.639-.159.866-.167 1.212-.504 1.316-1.39.066-.568.085-1.144.086-1.717.006-2.295-.002-4.59-.008-6.886 0-.277-.009-.556-.033-.832-.105-1.218-.433-1.57-1.634-1.777-.141-.024-.277-.078-.416-.118l.044-.174h12.051zM51.357.55l.027.148c-.25.066-.498.144-.752.195-1.576.317-1.907.693-1.914 2.3-.012 2.701-.004 5.403-.004 8.105v.279c.008 1.026.103 1.015 1.311 1.104 1.116.082 2.198-.045 3.279-.317 1.526-.385 2.566-1.379 3.412-2.638.107-.158.22-.311.33-.47.09.068.143.09.142.11-.048 1.826-1.542 3.793-3.266 4.223-.51.127-1.06.122-1.59.126-2.56.024-5.12.03-7.679.04-.133 0-.266-.029-.4-.044l-.016-.13.397-.098c.066-.016.133-.03.2-.041.968-.165 1.391-.639 1.393-1.61.004-2.942.003-5.884-.004-8.827 0-.275-.043-.552-.09-.824-.16-.918-.525-1.265-1.444-1.397-.144-.02-.288-.052-.431-.079l.016-.155h7.083zM22.623.575l.023.086c-.07.036-.138.093-.212.105-1.341.208-1.73.636-1.746 2.014-.018 1.665-.007 3.331-.008 4.997 0 1.221-.008 2.443.007 3.664.016 1.33.373 1.743 1.653 1.987.16.03.314.098.47.148l-.029.144h-6.6l-.039-.106c.169-.055.334-.13.506-.162 1.022-.193 1.454-.59 1.465-1.615.032-3.127.033-6.255.001-9.382-.01-1.07-.528-1.542-1.605-1.676-.129-.016-.254-.056-.364-.204h6.478zm80.011-.024l.04.085c-.146.049-.29.118-.44.143-1.105.188-1.55.65-1.556 1.783-.014 2.977-.013 5.955.022 8.933.016 1.344.35 1.675 1.685 1.95.132.028.256.092.384.14l-.03.13H96.15l-.021-.135c.184-.046.366-.102.552-.135.783-.136 1.22-.535 1.307-1.343.089-.825.12-1.66.126-2.49.016-2.164.007-4.328 0-6.493 0-.255-.05-.51-.076-.766-.096-.938-.577-1.48-1.545-1.541-.15-.01-.297-.08-.446-.123l.014-.138h6.572zM30.261 2.608c-1.26 1.228-1.727 2.8-1.838 4.555.178.825.266 1.683.55 2.47.75 2.069 2.28 3.278 4.458 3.415 2.006.126 3.577-.818 4.528-2.593 1.232-2.3 1.223-4.646-.153-6.892C36.168.887 32.493.43 30.261 2.608zM109.01 4.07c-.94 2.004-.955 4.05-.03 6.06 1.569 3.403 6.125 4.019 8.523.755.807-1.098 1.141-2.384 1.202-3.78-.15-.772-.243-1.562-.464-2.314-.552-1.88-2.406-3.409-4.24-3.569-2.121-.184-4.08.905-4.991 2.848zm-46.358-.726c-1.406 2.038-1.451 5.251-.157 7.36 1.743 2.838 5.603 2.952 7.569 1.036 1.288-1.255 1.792-2.838 1.845-4.432-.017-1.63-.377-2.965-1.284-4.145C68.6.529 64.536.611 62.652 3.345zM4.515 7.303c0 1.311-.064 2.644.02 3.967.062.967.645 1.497 1.599 1.608.592.07 1.205.071 1.797 0 1.944-.238 2.922-1.702 2.448-3.6-.323-1.294-1.504-2.08-2.776-1.859-.162.029-.331.034-.496.026-.877-.044-1.754-.095-2.592-.142zm.168-5.813c-.116.026-.248.29-.256.448-.03.61-.012 1.22-.012 1.831 0 .592.03 1.186-.01 1.776-.029.42.13.644.519.686.76.082 1.533.252 2.28.175.98-.1 1.77-.632 2.072-1.655.294-.997.045-1.873-.741-2.555C7.396 1.21 6.06 1.182 4.683 1.49z"/>
</svg>
