<svg xmlns="http://www.w3.org/2000/svg" width="80" height="100" viewBox="0 0 80 100">
    <path fill-rule="evenodd" d="M53.4 36.231l-8.842-.012v-2.588l8.843-.005v2.605zm-.888 12.74c-.41.328-.75.607-1.244.993.036-.988.175-1.995-.299-2.581-1.16-1.157-2.21-2.211-3.257-3.243-.387-.422-.7-1.027-.444-1.584.12-.269.287-.572.467-.814 0 .543.237.852.543 1.16 1.422 1.403 3.881 3.361 4.08 4.19.211.56.145 1.228.154 1.88zm-1.935.351c-.273.303-.37.414-.688.73l-.648-.783v-2.176c-.909.449-.69 1.748-.69 2.875-.538-.442-.81-.692-1.326-1.182-.292-1.3.478-2.039 1.064-2.954l2.288 2.206v1.284zm.545-11.64c.542.448.816.696 1.33 1.188.292 1.3-.482 2.038-1.061 2.95l-2.293-2.204v-1.284c.273-.3.37-.412.688-.726l.648.782v2.171c.911-.446.688-1.748.688-2.876zm-3.961 1.001c.415-.324.75-.606 1.244-.996-.036.99-.173 1.995.3 2.583 1.163 1.162 2.214 2.212 3.258 3.244.39.422.697 1.026.444 1.584-.123.271-.29.571-.467.816 0-.543-.232-.857-.54-1.164-1.422-1.403-3.882-3.36-4.08-4.191-.214-.556-.146-1.23-.16-1.876zm-.41 17.335c-.249.426-.643.862-1.092 1.077-.775.438-1.944.32-2.642-.192-.636-.459-1.035-1.149-1.044-1.855 1.96-.002 3.2-.002 5.056-.002-.02.422-.09.564-.279.972zm-5.452 1.077h-1.742v-3.143l-2.713.002v-1.266h2.724l.855-1.015c.415.487.449.522.88 1.015h2.72v1.266l-2.724-.002v3.143zm-3.466-.192c-.701.511-1.866.63-2.643.192-.447-.215-.848-.65-1.092-1.077-.184-.408-.26-.55-.276-.972 1.849 0 3.098 0 5.058.002-.012.706-.408 1.396-1.047 1.855zm5.515-11.648l.007-7.633c1.084-.015 1.433.015 2.56-.006v7.64h-2.567zm-1.005 1.533c.218-.29.246-.466.182-.784.866.04 1.741.764 2.079 1.575.344.83.21 1.915-.324 2.606-.666.813-1.589 1.244-2.664 1.05-.678-.151-1.346-.567-1.736-1.206.554-.186 1.343-.507 1.499-1.048-.041-.844.535-1.52.964-2.193zm-9.63 5.153c-.422-.28-.52-.555-.668-.943-.358-1.641 1.613-2.23 2.08-3.595.367-2.282.477-4.685 2.054-6.462.155-3.35 1.233-6.315 3.601-8.75-.112-.757-.42-1.411-.645-2.116-.31-.012-.52-.072-.8-.322-.205-.293-.29-.51-.342-.864-.825 1.029-1.846 2.178-2.97 2.873-.205.117-.467-.128-.843-.48-1.379-1.097-1.611-3.574-3.713-3.466-.955-.323-.909-1.454-1.066-2.3.353-.26.93-.248 1.354-.082 1.312.707 2.188 2.194 3.425 3.189.33.266.63.615.935.743.813-.705 1.463-1.31 2.017-2.396.38-.62 1.014-.886 1.716-.895l.499-.592-.265-1.48c-.512-.657-.936-1.348-1.28-2.088.18-.847.29-1.834 1.141-2.302.559-.349 1.012.445 1.47-.058.333-.069.623.023.856.214.347.606.755 1.207.777 1.912-.212.684-.533 1.318-.855 1.958-.073.14-.269.186-.401.29.08.288.148.61.346.839.254.053.496.098.799.042.246-.748 1.046-1.083 1.714-1.285l1.465-.962c-.235-1.119.479-2.102.082-3.215-.839-.4-1.078-1.349-1.258-2.097.135-.462.36-.957.693-1.352l.048.059c.802.935 1.536 1.9 1.791 3.063.144 1.486.287 3.009.192 4.56-.793.794-1.748 1.265-2.647 1.853l-.667 1.288c-.08 1.33-.467 2.525-.67 3.811.57 1.555 1.244 3.625.747 5.063-.383.858-1.183 1.326-1.777 1.803l-1.503 1.208c1.51 1.67 1.145 3.563 1.208 5.985-.015.584 1.026 1.07.472 1.738-.465.747-1.188 1.353-1.067 2.334-.463.781-1.564.948-2.088.94-.11.008-.198-.078-.198-.19.11-.401.42-.715.583-1.096.538-.826.292-1.968.957-2.736-.547-1.8-1.376-3.467-1.604-5.386l-.014-.123c-.449.882-.2 1.747.034 2.444-1.479 1.876-3.083 3.68-3.083 6.147-.634 1.13-1.532 2.16-2.001 3.356-.155.2-.452.026-.632-.08zm-1.095-5.627c-.515.362-.99.393-1.497.392-.164-.002-.458-.025-.627-.078-.38-.096-.92-.303-1.244-.821l-.064-.122-.057-.156-.07-.165-.028-.26.002-4.834c-.043-.608-.269-.62-.76-.99l.175-.059 1.946-.64c.276.304.34.693.365 1.096v3.777c-.005.246.207.386.487.4.333 0 .47-.127.497-.393.025-1.692-.027-2.167 0-3.705.044-.516.502-1.033.935-1.151.54-.26 1.192-.159 1.673.082.868.412.825 2.119.815 3.504-.34-.225-.394-.252-.733-.346-.297-.065-.623-.007-.853.17-.28.258-.31.508-.314.96-.023 1.603.152 2.706-.648 3.339zm-.94-17.873c.368-.1.726.132 1.009.346-.043 1.5-.043 1.483-.075 3.058h-.821l-.004-.252c-.032-1.193-.083-1.975-.11-3.152zm-3.422 5.19l8.843-.005v2.586l-8.843.007v-2.588zm5.593-11.026h-.772l-.333 2.771c-.33-.3-.707-.511-1.12-.645-.195-1.177-.213-1.261-.32-2.126h-.746v-.823c1.285-.005 1.999.002 3.289.002l.002.82zm-3.323-5.988l.002-.006c.201.594.575 1.02 1.167 1.304-.068-.318-.344-.604-.433-.938-.257-.652-.232-1.582.19-2.15.298-.447.729-.63 1.2-.781-.18.538-.234 1.178-.015 1.722.31-.235.326-.25.565-.484.089-.087.13-.115.207-.175.44.942.935 2.239.645 3.336l-.177.47c-.071-.773-.196-1.144-.714-1.424-.068.45.219.774.285 1.36.212.91.046 1.812-.513 2.337h-1.443c-1.103-1.185-1.178-2.965-.966-4.571zm14.084 1.707l.456.803-1.138 1.252c-.307-.297-.332-.325-.638-.647.586-.617.643-.682 1.32-1.408zm3.478-5.026c.446-.13 1.055-.073 1.433.264.509.37.657.997.534 1.58-.356 1.258-1.753 1.492-2.886 1.79l-.62-.849c.23-1.084.354-2.336 1.539-2.785zm2.336 16.69c.073.002.417-.072.424-.29v-4.54c.622-.146 1.249-.36 1.834-.48v2.737c.356-.042.532-.087.967-.154v3.607l-1.117.169-.349 1.454h-3.977l-.592-1.295c-.964-.09-1.033-.09-2.004-.16.912-1.182 1.849-2.36 2.482-3.654v-1.845l1.794-.231v4.374c0 .152.221.307.445.307h.093zm30.565 58.075v11.825H0V88.063h79.99zm-10.105 1.744c-2.02 0-2.954 1.18-2.954 2.56 0 2.592 4.595 1.635 4.595 3.268 0 .901-.912 1.076-1.733 1.076-1.005 0-1.57-.708-1.63-1.3l-.006-.104-1.46.055c0 1.118.892 2.576 3.213 2.576 1.88 0 3.209-.87 3.209-2.588 0-2.59-4.62-1.88-4.62-3.262 0-.537.435-1.027 1.557-1.027.971 0 1.364.51 1.406 1.093l.004.11 1.47-.054c0-.49-.25-2.403-3.051-2.403zm-56.428.268l-1.65.003c-.522 1.917-1.09 4.086-1.648 5.693-.503-1.461-1.016-3.387-1.503-5.167l-.145-.53-1.67.004 2.589 7.687h1.463l2.564-7.69zm28.941 0H40.8v7.69h1.598v-7.69zM53 90.133h-6.163v1.256l2.286-.001.007 6.377h1.59v-6.377H53v-1.255zm7.382-.055h-1.639l-2.68 7.687h1.566l.551-1.676h2.76l.554 1.676h1.564l-2.676-7.687zm-36.73-.005H18.04v7.691h5.611l-.004-1.278h-4.011v-2.153l3.5.004v-1.329l-3.496-.003v-1.657l4.007-.003.007-1.272zm5.39-.01v7.68h1.59l-.007-3.13c.729-.006 1.187-.04 1.923.002 1.262.08.811 2.914 1.098 3.116l.035.012h1.504c-.49-1.212.19-3.344-1.632-3.741.784-.257 1.626-.599 1.534-2.09-.077-1.292-1.253-1.769-2.432-1.831-1.315 0-2.153-.008-3.612-.017zm30.526 1.52v.014l.946 3.218H58.61l.955-3.218v-.013l.002.009.002-.01zm-26.915-.24c.451.034.866.344.87.913.005.564-.295.972-.747 1.018-.428.045-.655.053-1.906.05h-.232v-1.98c.746.01 1.566-.042 2.015 0zM79.99 74.377V86.2H0V74.376h79.99zm-59.254 2.06h-1.574v5.585c.025.574.168 1.058.71 1.505.575.495 1.335.721 2.122.753l.215.004h.023c.857.003 1.709-.217 2.338-.757.49-.406.654-.843.694-1.35l.008-.155v-5.585h-1.575l-.002 5.585c-.007.416-.36.795-.757.94-.216.097-.467.14-.718.126-.25.014-.503-.029-.72-.125-.363-.132-.682-.425-.747-.82l-.012-.121-.005-5.585zm47.33-.014h-1.582v5.589c.023.572.171 1.056.709 1.501.577.499 1.341.724 2.124.755l.214.003h.02c.863.005 1.713-.214 2.34-.758.492-.404.656-.842.7-1.347l.01-.154v-5.59h-1.58l-.001 5.59c-.007.414-.363.79-.757.943-.217.09-.467.131-.718.125-.255.006-.504-.035-.725-.125-.35-.137-.67-.423-.74-.81l-.014-.133v-5.59zm-36.257-.01v7.681h1.59l-.007-3.135c.73-.01 1.19-.042 1.924.007 1.264.076.809 2.911 1.1 3.116l.035.012h1.5c-.486-1.215.189-3.352-1.632-3.745.786-.257 1.625-.6 1.536-2.092-.08-1.29-1.256-1.767-2.436-1.825-1.31 0-2.15-.01-3.61-.02zm27.102-.004h-1.646l-2.673 7.685h1.563l.554-1.677h2.76l.554 1.677h1.559l-2.671-7.685zm-47.817.01h-.974c-.724.001-1.408.002-2.314 0h-.402v7.672h3.61c1.876 0 2.548-1.18 2.543-2.05-.004-1.021-.556-1.808-1.413-2.047.969-.245 1.222-.948 1.142-1.76-.089-1.173-1.017-1.816-2.192-1.816zm38.392-.025h-5.613v7.686h5.613l-.002-1.278h-4.016l.003-2.148h3.503l-.005-1.33-3.494-.003v-1.652l4.01-.004.001-1.271zm-39.884 4.26c.43.003.909.011 1.412.042.592.038.946.55.946 1.028 0 .479-.258.967-.805 1.03-.51.06-.586.045-1.94.06l-.225.003.007-2.149v-.014H9.6zm48.484-2.738l.002.01v.004l.953 3.211h-1.904l.949-3.21v-.015zm-22.67-.232c.456.044.871.349.876.916 0 .564-.292.977-.746 1.023-.43.04-.653.045-1.911.043H33.4v-1.982c.75.017 1.565-.035 2.015 0zm-24.57-.08c.505 0 .952.263.952.854 0 .576-.291.944-.778.994l-.116.005H8.996l-.003-1.852h1.851zM40.23.129c3.9 0 7.743.572 11.301 1.654 3.82 1.336 7.366 4.02 9.559 7.358 3.614 5.324 6.896 15.61 7.033 25.85v.03c-.137 10.241-3.419 20.526-7.033 25.848-2.193 3.341-5.821 6.024-9.64 7.359-3.556 1.08-7.23 1.655-11.14 1.655h-.164c-3.902 0-7.663-.587-11.216-1.663-3.822-1.338-7.364-4.01-9.554-7.351-3.62-5.322-6.901-15.607-7.042-25.847v-.031c.141-10.24 3.423-20.526 7.042-25.85 2.19-3.339 5.732-6.022 9.554-7.358C32.484.7 36.327.128 40.231.128zm-.048.948c-3.247 0-6.43.396-9.44 1.174-5.593 1.54-9.406 5-11.895 10.7-2.256 4.98-4.59 14.34-4.467 22.054-.123 7.714 2.211 17.077 4.467 22.06 2.49 5.695 6.302 9.157 11.895 10.694 3.01.78 6.193 1.178 9.44 1.178 3.251 0 6.415-.398 9.426-1.178 5.597-1.537 9.405-5 11.901-10.694 2.2-4.87 4.482-13.922 4.467-21.531l-.004-.529c.125-7.713-2.211-17.074-4.463-22.055C59.014 7.25 55.206 3.79 49.609 2.25c-3.011-.778-6.175-1.174-9.426-1.174zm2.973 60.642c.522.087 1.133.404 1.35.954.278.597.184 1.366-.256 1.87-.567.607-1.306.94-1.777 1.624l2.424-.145c.021.298.042.594.053.871l-3.825.224c-.025-1.412 1.348-2.124 2.211-3.06.235-.224.322-.674.155-1.044-.104-.232-.253-.347-.446-.395-.301-.069-.556-.023-.75.145-.267.252-.34.579-.326.93l-.965.057c-.082-.535.05-1.054.374-1.46.45-.481 1.122-.614 1.778-.57zm-6.58-.093l.196.008c.458.023.902.138 1.246.374.379.303.632.716.552 1.22-.027.413-.37.735-.707.879l-.1.038.273.155c.46.305.6.756.58 1.25-.023.554-.368 1.044-.855 1.291-.372.176-.844.258-1.315.23-.48-.033-.94-.166-1.279-.387-.456-.304-.743-.833-.695-1.387.033-.45.189-.845.595-1.098l.13-.072.291-.123c-.35-.162-.718-.556-.695-1.008-.018-.506.28-.887.695-1.14.264-.137.573-.21.894-.227l.194-.003zm-.516 2.995c-.328.107-.524.415-.53.757-.005.239.097.477.31.644.154.118.398.196.653.21.256.018.511-.028.677-.132.226-.139.365-.367.386-.593.034-.347-.124-.674-.44-.821-.13-.064-.326-.11-.522-.126-.198-.01-.39.019-.534.061zm-4.364-3.87l.818.264-.016.046-1.58 4.877-1.009-.334 1.085-3.334.016-.058c-.403-.143-.889-.282-1.279-.42l.205-.635c.51.137 1.035.225 1.482-.148.162-.128.19-.162.278-.258zm18.4-.23c.454.17.814.49.89.992.094.4-.138.812-.42 1.052l-.085.067.308.066c.531.154.798.54.925 1.02.144.537-.043 1.107-.435 1.492-.3.28-.725.494-1.19.61-.465.11-.94.118-1.333.018-.524-.156-.957-.579-1.073-1.119-.098-.442-.065-.862.245-1.228l.101-.108.24-.201c-.381-.054-.848-.317-.956-.756-.17-.48.003-.929.32-1.294.3-.296.715-.495 1.162-.596.44-.119.905-.141 1.301-.016zm-.608 2.856c-.19.054-.365.136-.493.22-.28.2-.376.553-.28.889.064.223.237.416.488.512.182.076.437.068.688.006.248-.06.479-.176.606-.327.178-.198.237-.454.19-.684-.069-.338-.315-.605-.664-.646-.14-.022-.34-.01-.535.03zm-13.32-.871c-.27.136-.377.479-.324.717.034.185.15.317.287.408.141.087.324.134.51.143.187.013.374-.012.527-.077.148-.078.276-.188.333-.372.08-.23.018-.585-.233-.75-.143-.108-.344-.168-.544-.18-.196-.015-.406.021-.556.11zm12.807-1.234c-.196.048-.378.142-.502.275-.218.211-.218.569-.095.778.091.167.235.259.396.307.162.037.349.031.53-.018.181-.042.357-.122.48-.234.12-.115.203-.264.207-.452.005-.245-.157-.56-.442-.647-.173-.062-.383-.062-.574-.009zm-8.7-51.96c2.678 0 5.354.378 7.82 1.047 2.628.755 4.784 2.578 5.867 5.054 2.354 5.088 3.904 12.402 3.904 19.592 0 7.195-1.55 14.506-3.904 19.592-1.083 2.476-3.239 4.302-5.867 5.056-2.276.617-4.731.984-7.203 1.037l-.618.007h-.084c-2.68 0-5.353-.376-7.822-1.044-2.628-.754-4.78-2.58-5.866-5.056-2.361-5.086-3.905-12.397-3.905-19.592 0-7.19 1.544-14.504 3.905-19.592 1.087-2.476 3.238-4.299 5.866-5.054 2.279-.618 4.732-.987 7.204-1.04l.618-.007h.084zM60.832 31.99l.066.992c-.321.042-.635.207-.781.526-.215.517-.167 1.34.214 1.644.141.156.456.136.629.044.595-.429.474-1.498.773-2.214.098-.304.38-.611.658-.766.527-.227 1.201-.145 1.625.274.684.65.714 1.923.399 2.694-.178.537-.759.925-1.354.959l-.064-.986.076-.002.095-.017.117-.03.084-.034c.34-.183.42-.637.399-1.004-.01-.374-.126-.752-.472-.892-.182-.048-.408-.064-.531.124-.581.863-.178 2.692-1.67 3.01-.652.113-1.225-.176-1.562-.7-.463-.827-.499-2.129.03-2.938.319-.42.75-.68 1.27-.684zm-39.954.89c.25.72.153.977.17 2.784l.003.257-.002.373-5.098.005c.034-1.108-.114-3.03.225-3.465.246-.438.74-.58 1.256-.516.492.062.786.454.864.768.22-.536.613-.888 1.13-.954.613-.03 1.208.19 1.452.748zm-3.473.441l-.119.006c-.682.072-.546.646-.563 1.71l-.004.182h1.262c0-1.025.025-1.305-.057-1.569-.078-.209-.167-.31-.417-.327l-.102-.002zm1.875-.058c-.641.126-.518.736-.524 1.77l-.002.186h.01l1.433-.002c-.01-1.062.08-1.531-.212-1.814-.176-.18-.467-.204-.705-.14zm39.23-8.062l5.333 1.077.155 1.1-4.84 2.507-.14-1.05 1.053-.525-.253-1.848-1.162-.213-.146-1.048zm-41.609-.698l3.67.574c.378.077.685.224.92.635.26.417.333.931.28 1.446l-.027.193v.012c-.089.573-.321 1.119-.743 1.481-.312.28-.611.349-.94.328l-.124-.011-3.674-.58.164-1.048 3.67.571c.305.038.56-.16.701-.402.09-.137.14-.302.162-.469.03-.17.03-.34-.009-.497-.05-.244-.222-.496-.453-.578l-.09-.022-3.673-.587.166-1.046zm43.799 2.125l.178 1.279 2.037-.936h.003l.004-.003h-.007l-2.215-.34zm1.589-7.884l1.034 4.04-.82.211-.379-1.492L58 22.572l-.262-1.046 4.119-1.07-.383-1.499.816-.214zm-41.502-1.275c.292.283.31.577.312.93.598-.93 1.7-.252 2.56-.231l.12-.002-.3 1.028c-.515.074-1.82-.726-2.17.09-.084.118-.25.618-.376 1.065l-.041.147.077.022 1.947.58-.31 1.035-4.919-1.475c.636-2.093.787-3.412 1.93-3.588.44-.029.89.104 1.17.399zm-.973.677c-.58-.047-.725.738-.977 1.565l-.049.155 1.29.382c.233-.851.54-1.514.3-1.811-.143-.18-.313-.248-.564-.29zm41.194-3.05l.424.99-4.72 2.045-.42-.984 4.716-2.05zM22.057 9.659l.737.42-1.313 2.368.969.542 1.146-2.064.78.436-1.152 2.063 1.256.71 1.318-2.374.742.417-1.839 3.319-4.48-2.521 1.836-3.316zm34.85-2.182c1.482 1.6 2.536 2.395 2.117 3.478-.196.401-.537.722-.932.82-.392.115-.655-.016-.962-.196.5.986-.636 1.596-1.088 2.339l-.06.107-.724-.779c.184-.489 1.538-1.214 1.01-1.933-.055-.133-.405-.526-.722-.862l-.103-.11-.065.057-1.477 1.394-.73-.786 3.737-3.53zM27.442 5.272l4.202 3.474-.895.55-.903-.77-1.581.97.266 1.157-.902.546-1.126-5.352.939-.575zm29.595 3.56l-.974.925c.611.631 1.02 1.232 1.404 1.173.23-.033.37-.144.531-.34.356-.511-.342-1.071-.961-1.759zm-7.548-4.93l3.61 1.101-.252.818-2.575-.787-.32 1.066 2.241.688-.25.86-2.258-.694-.416 1.382 2.586.79-.25.82-3.611-1.1 1.495-4.944zM27.495 6.423l.003.01-.005-.004.005.009.567 2.178 1.094-.673-1.66-1.507-.004-.013zM43.012 3.43c.354 1.287.734 2.748 1.108 3.825.377-1.079.754-2.539 1.105-3.82l1.109-.004-1.722 5.17h-.983l-1.742-5.169 1.125-.002zm-6.259-.775l.586 3.697c.048.379.002.718-.308 1.071-.322.38-.783.61-1.281.718l-.189.035h-.013c-.575.1-1.16.042-1.632-.247-.363-.212-.52-.479-.602-.8l-.027-.122-.59-3.691 1.041-.17.595 3.69c.06.303.326.49.604.546.153.037.324.035.488.004.17-.022.33-.071.467-.16.215-.124.389-.36.406-.603l-.003-.105-.59-3.694 1.048-.169zm-7.857-.862l.012-.004-.012.004.035-.01z"/>
</svg>
