<svg xmlns="http://www.w3.org/2000/svg" width="112" height="73" viewBox="0 0 112 73">
    <path fill-rule="evenodd" d="M88.926 53.582h1.4v-7.746h-1.4v7.746zm-13.177-6.458l.316.01.079-1.344-.384-.022c-2.615-.161-3.464 1.873-3.464 3.838 0 1.908.77 4.206 3.413 4.045l.376-.022-.08-1.334-.315.012c-1.41.045-1.944-1.31-1.944-2.713 0-1.493.622-2.517 2.003-2.47zm8.557 2.46l2.95 4.114h.197v-7.862h-1.34v4l-2.954-4.115h-.196v7.861h1.343v-3.999zM31.681 47.18l.64 3.563H31.03l.652-3.563zm-.8 4.758h1.579l.306 1.643h1.46l-1.816-7.86H30.98l-1.806 7.86h1.401l.307-1.643zm50.66 1.643v-7.746h-1.4v2.85h-1.756v-2.85h-1.402v7.746h1.402v-3.677h1.757v3.677h1.4zm-22.775 0V47.16h1.403v-1.323h-4.204v1.323h1.401v6.423h1.4zm5.318 0h1.403V47.16h1.401v-1.323h-4.206v1.323h1.402v6.423zm7.422-1.24h-2.359v-2.425h2.359v-1.23h-2.359v-1.621h2.359v-1.23h-3.76v7.746h3.76v-1.24zM41.4 53.581h1.401V47.16h1.402v-1.323h-4.204v1.323H41.4v6.423zm13.973-1.24h-2.36v-2.425h2.36v-1.23h-2.36v-1.621h2.36v-1.23h-3.76v7.746h3.76v-1.24zm-18.285-3.115h-.544v-2.161h.702c.533 0 .947.333.947 1.012 0 .93-.601 1.15-1.105 1.15zm2.497-1.24c0-1.335-.898-2.15-2.21-2.15h-2.232v7.745h1.401v-3.148h.426l1.353 3.148h1.528l-1.706-3.494c.857-.195 1.44-.988 1.44-2.102zm8.051-1.024c.148 0 .316.01.385.023l.12.023.087-1.23-.127-.011c-.13-.013-.425-.035-.7-.035-1.314 0-2.794.643-2.794 2.137 0 1.081.681 1.622 1.341 2.116.8.608 1.156.896 1.156 1.448 0 .942-1.274.988-1.826.988-.177 0-.405-.012-.453-.023l-.1-.011-.088 1.24.139.012c.127.011.325.024.532.024 1.381 0 3.187-.541 3.187-2.346 0-1.068-.572-1.62-1.45-2.286-.493-.38-1.056-.714-1.056-1.254 0-.712.897-.815 1.647-.815zm60.72 5.459c-.177 0-.405-.012-.453-.023l-.1-.011-.088 1.24.138.012c.128.011.326.024.533.024 1.381 0 3.186-.541 3.186-2.346 0-1.068-.57-1.62-1.45-2.286-.493-.38-1.055-.714-1.055-1.254 0-.712.898-.815 1.647-.815.148 0 .317.01.385.023l.12.023.087-1.23-.127-.011c-.128-.013-.425-.035-.7-.035-1.314 0-2.794.643-2.794 2.137 0 1.081.68 1.622 1.343 2.116.798.608 1.155.896 1.155 1.448 0 .942-1.275.988-1.827.988zm-1.371-5.356v-1.23h-3.76v7.746h3.76v-1.24h-2.359v-2.425h2.359v-1.23h-2.359v-1.621h2.359zm-7.423 6.666c1.718 0 2.28-1.195 2.28-2.46v-5.436h-1.39v5.218c0 .781-.228 1.448-.89 1.448-.61 0-.867-.678-.867-1.46v-5.206h-1.402v5.436c0 1.242.632 2.46 2.27 2.46zm-5.704-1.138c-.849 0-1.016-1.506-1.016-2.896 0-1.38.157-2.873 1.016-2.873.849 0 1.007 1.459 1.007 2.884 0 1.368-.139 2.885-1.007 2.885zm0-6.94c-1.824 0-2.428 2.17-2.428 4.044 0 1.885.584 4.057 2.419 4.057h.04l1.597 1.758.77-1.056-1.144-1.174c.85-.746 1.165-2.264 1.165-3.585 0-1.92-.573-4.045-2.419-4.045zM63.087 16.437c1.996 1.108 2.643 1.551 2.643 2.248 0 .854-.809 1.139-2.158 1.139-1.348 0-2.534-.222-3.154-.316l-.376-.063-.271 5.727.405.032c.7.063 1.402.063 2.104.063 5.068 0 11.134-1.202 11.134-7.594 0-3.481-1.779-4.938-3.964-6.109-1.482-.79-2.29-1.17-2.29-1.74 0-.475.323-.823 1.751-.823 1.348 0 2.886.222 3.21.285l.403.063.27-5.695-.403-.064c-.54-.095-1.727-.158-3.1-.158-4.505 0-9.816 1.456-9.816 7.088 0 3.07 1.401 4.684 3.612 5.917zm-21.569 8.83l1.43-.095-.38-6.36h-.807c-2.752 0-4.125-2.28-4.125-4.685 0-3.258 1.725-4.145 4.151-4.145h.755l.405-6.392-1.376-.095c-9.41-.664-11.97 5.506-11.97 10.632 0 4.938 2.319 11.773 11.917 11.14zm59.964-15.855h.809c.485 0 .727.696.727 1.361 0 .791-.35 1.582-.727 1.582h-.81V9.413zm0 8.608h.404l1.7 7.026h8.33l-3.774-9.051c1.752-.95 2.642-3.07 2.642-5.665 0-4.208-2.858-6.613-7.497-6.613h-9.57v21.329h7.765V18.02zm-43.41 1.108h-5.795v-2.31h5.796V10.9h-5.796V9.636h5.796V3.718H52.83l2.334-2.078h-5.007l-1.32 2.078H44.51v21.329h13.563v-5.918zM82.987 9.7l.728 6.866h-1.483l.755-6.866zM81.8 21.439h2.291l.46 3.608h8.033L87.326 3.623h-8.465l-5.23 21.424h7.736l.433-3.608zM42.7 31.57l.448.016.113-1.915-.547-.033c-3.727-.229-4.937 2.669-4.937 5.469 0 2.717 1.098 5.991 4.866 5.763l.534-.033-.112-1.899-.45.016c-2.01.065-2.771-1.866-2.771-3.864 0-2.128.888-3.586 2.856-3.52zm66.87 2.717c-.703-.54-1.503-1.014-1.503-1.784 0-1.014 1.279-1.162 2.347-1.162.21 0 .448.017.548.032l.169.034.126-1.753-.182-.016c-.183-.015-.606-.05-1-.05-1.87 0-3.978.918-3.978 3.046 0 1.539.97 2.308 1.912 3.014 1.14.866 1.644 1.276 1.644 2.062 0 1.343-1.813 1.408-2.6 1.408-.252 0-.575-.017-.646-.033l-.14-.015-.129 1.767.2.016c.182.017.463.034.758.034 1.967 0 4.54-.77 4.54-3.341 0-1.522-.813-2.308-2.065-3.259zm-40.09.558l1.87 2.357h.183l1.926-2.39v5.959h1.927V29.571h-.24l-3.698 4.83-3.655-4.83h-.239V40.77h1.926v-5.926zm-23.098 1.883l.928-5.077.914 5.077h-1.842zm-.07-7.156L43.737 40.77h1.998l.434-2.341h2.25l.436 2.341h2.082l-2.587-11.199h-2.04zm-12.807 2.08l.914 5.076h-1.842l.928-5.077zm-3.571 9.119h1.996l.436-2.341h2.25l.435 2.341h2.08l-2.586-11.199h-2.038L29.934 40.77zm35.976-9.282v-1.753h-2.245l1.375-1.53h-2.22l-.852 1.53h-1.416V40.77h5.358v-1.767h-3.36v-3.455h3.36v-1.752h-3.36v-2.308h3.36zm28.463 7.53h-.943v-7.515h.943c1.293 0 1.87 1.671 1.87 3.635 0 1.965-.563 3.88-1.87 3.88zm3.867-3.912c0-2.048-.662-5.37-3.867-5.37h-2.938V40.77h2.938c2.896 0 3.867-3.323 3.867-5.664zm6.86 3.897h-3.36v-3.455h3.36v-1.752h-3.36v-2.308h3.36v-1.753h-5.356V40.77h5.356v-1.767zM77.478 40.77h1.998V29.735h-1.998v11.036zm9.45-9.283v-1.753H81.57V40.77h5.356v-1.767h-3.36v-3.455h3.36v-1.752h-3.36v-2.308h3.36zm-31.744 7.53h-.942v-7.515h.942c1.292 0 1.868 1.671 1.868 3.635 0 1.965-.56 3.88-1.868 3.88zm0-9.283h-2.94V40.77h2.94c2.896 0 3.864-3.323 3.864-5.664 0-2.048-.66-5.37-3.864-5.37zM45.916 66.58c0 .628-.184.916-.509.916-.308 0-.478-.304-.478-.916v-8.23h-4.445v8.68c0 2.102 1.483 3.683 4.94 3.683 3.61 0 4.936-1.617 4.936-3.684v-8.68h-4.444v8.231zm41.102-9.882h-3.33l-1.019 1.651h-2.82V70.46h7.76V67.1h-3.317v-1.313h3.317v-3.36h-3.317v-.717h3.317v-3.362h-2.39l1.8-1.651zM74.17 62.23l-4.845-4.061h-.586v12.31h4.444v-3.9l4.846 4.062h.585V58.33H74.17v3.9zm31.71 3.415l.43-3.9.417 3.9h-.848zm-1.93-7.35l-2.992 12.165h4.428l.246-2.048h1.313l.261 2.048h4.598l-3.008-12.165h-4.846zm-9.427 4.097l-5.293-4.223h-.446v12.29h4.442v-3.988l1.112.97h.338l1.174-1.043v4.062h4.46V58.169h-.51l-5.277 4.223zm-33.02-.486h.43l.233-3.628-.787-.055c-5.384-.377-6.851 3.127-6.851 6.038 0 2.803 1.327 6.684 6.82 6.325l.818-.053-.216-3.613h-.462c-1.575 0-2.361-1.293-2.361-2.66 0-1.85.987-2.354 2.377-2.354zm1.558 8.554h4.444V58.348H63.06V70.46zm-28.73-3.307h-.218v-5.516h.201c.803 0 .833 1.851.833 2.66 0 .772-.062 2.856-.817 2.856zM8.335.123c.38-.017.62-.026.756.005.047.013.09.027.137.044l.044.014c.059-.007.12-.011.191-.011.193 0 .478.034.7.132.143.064.22.092.33.131l.061.022c.14.047.23.09.345.144l.1.047c.193.094.295.126.312.13.168.018.993.225 1.176.274.318.079.591.155.723.194.09-.002.218-.006.366-.006.25 0 .473.01.665.029.354.04.437.019.445.016.148-.066.674-.219 1.038-.194l.181.013c.16.014.275.025.425.025l.134-.004c.147 0 .366.01.578.024l.142.008c.16.009.36.02.415.013l.04-.008c.265-.048.557-.097.723-.097.14 0 .57.029.752.077.044.015.096.023.155.034l.084.016c.12.022.252.048.35.073.01 0 .736.2 1.033.427l.066.018c.15.051.5.227.76.477.266-.096.854-.14 1.206-.14.279 0 .507.021.698.065.23.053.436.13.59.19.049.02.09.034.118.042l.053.016c.186.045.593.143.71.528.026.086.086.28.028.476-.001.033-.005.065-.011.096.06.041.11.094.15.16.065.1.125.268.049.496.024.084.03.173.03.25l.024.034c.112.158.158.325.135.485.017.057.025.117.025.179.018.07.027.149.033.243.012.268-.035.511-.148.77-.017.038-.034.073-.05.104.125.374.27 1.008.06 1.558-.107.283-.175.436-.22.53.006.12.003.302-.021.467.152.134.31.313.35.503.023.09.086.336-.005.619.015.075.015.156 0 .241l.004.019c.038.605.027.833-.017.98l.005.03c.015.103.03.206-.005.325-.098.324-.112.485-.112.553 0 .198-.016.639-.075.927.01.19.02.6-.042.851l-.045.162c-.091.372-.22.844-.39 1.146l-.07.122c-.168.278-.31.512-.24 1.092.01.026.12.263.163.336.16.13 1.055.877 1.426 1.525.341.608.614 1.23.706 1.48.087.225.113.51.076.842l-.054.4-.025.181c-.033.15-.106.465-.51.702l-.004.042-.013.09c-.029.176-.182.701-.349 1.036-.078.154-.114.266-.139.356l-.04.127c-.05.109-.277.503-.565.703-.104.074-.21.184-.3.283l-.096.097c-.04.036-.104.096-.172.163-.113.102-.248.227-.326.302l-.062.062c-.054.077-.16.162-.393.345-.1.074-.188.146-.244.193l-.039.038c-.06.057-.124.116-.2.168v.003l.01.054c.076.319.11.556.104.71-.016.353-.007.562.007.64.021.146.064.276.191.586l.15.342c.1.225.193.438.238.623l.039.156c.066.26.106.417.114.55l.003.095c.014.098.033.24.018.386.09.185.208.45.277.658l.035.114c.178.543.27.842.294.966.019.108.027.246.027.455l.003.098c.002.053.002.097.006.123l.024.134.013.07c.038.244.074.454.085.492.13.275.303.693.317 1.082.006.16.061.443.165.843.029.105.046.189.05.225.02.184.067.824-.21 1.233-.048.071-.136.17-.219.26.019.084.034.161.04.189.002 0 .034.062.045.079.145.157.213.482.07.743.02.157-.024.32-.07.464l-.013.074c-.02.168-.047.322-.13.458v.016c.102.19.27.528.189.864.014.04.022.074.028.104.012.087.058.256.074.291.126.195.196.41.168.942 0 .112.004.27.008.31.004 0 .03.057.047.094l.008.018c.163.238.17.603.02 1.085l-.06.196c-.023.1-.084.349-.295.47-.092.107-.229.215-.362.286-.044.481-.403.588-.52.61-.043.009-.09.024-.134.04-.003.064-.014.13-.038.199.046.134.053.285.02.458-.013.075-.028.145-.048.21.14.218.414.676.482 1.029l.053.332c.021.125.039.23.046.323.08.132.094.277.088.416.347.212.636.672.768 1.047.181.506.29 1.156.323 1.932v.04l-.01.085-.003.015c.064.086.126.201.14.348l.005.03c.035.221.073.56-.01.941-.033.179-.028.232-.021.294l.003.045c.006.067.01.138.002.225l-.012.096c-.029.247-.068.583-.117.793-.112.489-.313.732-.42.862l-.156.216c-.033.05-.075.111-.109.165.036.201.094.605.018.94-.077.345-.092.438-.113.585-.043.234-.12.65-.528 1.116.022.3.04.388.048.412.025.106.042.216.057.32l.012.076c.01.09.016.135.022.165.013.037.165.51.197.703.01.092.107.42.136.478.051.084.12.274.143.893l.007.117c.01.269.017.452-.029.604-.023.077-.043.129-.069.178l-.009.04c-.026.107-.078.215-.15.309.07.071.144.148.194.192.18.162.292.278.351.41.361.284.453.91.454.918.052.33.075.815-.119 1.223-.09.2-.131.344-.157.448-.009.036-.02.07-.028.1-.027.086-.046.135-.07.187-.032.078-.04.11-.042.12-.017.105-.06.212-.13.32.003.319-.022.56-.077.735.025.084.036.165.031.247.008.04.019.129.019.217 0 .125-.017.241-.049.346.031.124.066.31.048.485-.007.075-.002.128.003.19.008.051.013.097.018.15 0 .033.004.071.013.114.026.235.053.495.025.71l-.006.078c-.007.076-.018.204-.013.242.03.166.045.579.026.718-.005.029-.005.06-.006.092l-.002.046c-.005.132-.009.245-.036.353l.005.028c.03.145.013.285-.066.543-.01.267-.145.482-.375.593-.02.013-.092.072-.165.13l-.18.144c-.146.116-.286.226-.392.294-.381.234-1.146.368-2.102.368h-.122c-1.123-.01-1.604-.13-2.144-.539-.148.002-.376.13-.463.194l-.119.068-.058.014c-.124.031-.68.172-.895.215l-.104.048c-.253.126-.732.362-1.604.401-.886.042-1.758.204-2.395.448-.665.25-2.222.359-2.87.359-.04 0-.08-.002-.115-.003l-.074-.002c-.094-.005-.193-.007-.309-.009-.762-.022-2-.058-2.818-.4-.753-.315-1.557-1.008-1.786-1.519-.332-.063-.546-.13-.67-.208l-.04-.02c-.03-.014-.056-.027-.083-.042-.106-.016-.203-.04-.291-.074-.302.056-.856.126-1.516.065l-.054-.013c-.238-.037-.911-.187-1.539-.607-.65-.443-.668-.921-.677-1.151l-.005-.04c-.067-.44.045-1.036.068-1.152.044-.206.145-.455.251-.72.044-.106.175-.424.186-.506l.014-.1c.023-.136.031-.184-.218-.475C1.03 65.44.81 64.683.81 64.19c0-.368-.022-1.444-.065-1.77C.692 62.03.641 60.523.68 60.2c.03-.314.163-1.377.249-1.908.07-.452.282-1.31.396-1.747l.022-.092c.055-.207.304-1.053.398-1.315-.146-.312-.14-.904-.123-1.051.005-.042-.008-.084-.029-.15-.009-.024-.017-.053-.024-.078l-.02-.068c-.012-.077-.06-.444-.06-.625 0-.047-.005-.075-.034-.137-.095-.204-.18-.584-.154-.888-.008-.01-.026-.028-.061-.058-.28-.255-.6-.735-.554-1.594.005-.122.035-.258.063-.39l.025-.12c.008-.038.016-.073.019-.102.023-.17.09-.35.152-.505l.015-.043c.014-.036.027-.07.032-.096.007-.048-.01-.273-.15-.697l-.02-.06-.066-.212c-.107-.384-.178-.887.175-1.195.097-.083.203-.143.316-.179-.05-.252-.067-.5.03-.706.087-.186.183-.357.46-.544-.003-.029-.01-.075-.023-.149l-.028-.189c-.043-.3-.11-.727-.198-.989-.104-.326-.312-.758-.375-.88-.144-.251-.223-.783-.097-1.192.066-.212.142-.452.304-.614 0-.04.002-.078.008-.113-.36-.119-.823-.35-.936-.772-.088-.324-.097-.64.13-1.217.138-.36.205-1.01.151-1.478-.02-.153-.038-.24-.05-.285l-.009-.007-.03-.03c-.208-.247-.377-.749-.166-1.35l.02-.07c.094-.276.162-.463.215-.571.03-.055.078-.123.131-.197l.04-.055c.011-.021.04-.065.07-.108l.019-.027c-.164-.136-.265-.292-.301-.465-.016-.06-.023-.132-.025-.21l.002-.076c.005-.204.042-.46.105-.793l.009-.05c.037-.205.222-2.322.207-2.596-.007-.143-.014-.629-.019-1.301C.882 28.34.868 27.89.857 27.78c-.008-.068-.02-.24-.038-.473L.735 26.2c-.07-.92-.159-2.065-.19-2.242-.074-.482-.118-.933.144-1.212.052-.055.17-.205.254-.314 0-.033-.005-.08-.018-.146-.071-.356-.318-2.262-.421-3.065l-.02-.163c-.113-.988-.264-2.32-.27-2.496-.007-.178-.097-1.822-.11-2.051-.062-.323.086-.772.565-.935.025-.01.087-.037.219-.111.023-.174.071-.316.148-.432l.201-.302.201-.302c.004-.16.022-.338.099-.503-.064-.253-.144-.567-.223-.868l-.006-.02c-.116-.442-.23-.852-.28-.985-.066-.174-.2-.602-.341-1.056L.615 8.77C.387 8.031.314 7.811.293 7.757.135 7.35-.106 6.601.05 6.137c.197-.607.564-.787.765-.84l.013-.003c.07-.354.177-.763.363-1.05l.064-.096c.11-.171.196-.304.3-.42.009-.21.045-.596.18-.923.04-.291.142-.67.405-.913.095-.244.26-.433.465-.529.101-.127.3-.293.654-.31.092-.036.312-.112.538-.103.193-.123.404-.188.614-.188l.062.003c.305.019.648.04.963.235.103.063.215.143.32.222l.063.045c.05.036.094.069.124.084l.4.192c.171.03.602.1.738.115.073.006.226.025.377.045.014-.07.04-.146.063-.212l.012-.03c-.048-.154-.116-.41-.047-.678.109-.418.394-.64.849-.66zm.773 68.131l.157.251c.11.175.173.285.208.503.039.642.771 1.604.957 1.689.176.05.277.13.383.236l.082.085.199.21-.27.106c-.127.05-.24.075-.357.075-.08 0-.163-.012-.252-.036-.326-.019-.794-.62-1.04-.976-.227-.328-.423-1.023-.41-1.314-.023-.218.042-.372.125-.507l.051-.078.167-.244zm-6.793-9.255l.289.822c.08.227.18.39.296.58.096.156.205.334.313.569.15.307.735 1.374 1.163 2.153.271.494.426.775.503.944.11.076.216.307.63 1.304.292.701.732 1.761.92 1.946.295.344.46.536.744.75l.153.11.714.488c.084-.027.174-.03.256-.01l.079.027.176.082-.082.177c-.035.077-.067.242-.092.374-.02.105-.035.18-.052.238l-.018.053c.003.166.191.788.274.895.073.057.11.122.141.2l.03.081.109.285-.207.057c-.067.018-.132.027-.193.027-.138 0-.26-.045-.367-.137-.192-.12-.421-.756-.444-1.007-.056-.224-.024-.842.103-1.074.038-.107.118-.193.227-.245.018-.008.035-.015.053-.02l-.847-.137c-.464-.075-.861-.232-1.296-.754-.23-.252-.825-1.462-1.605-3.09l-.118-.246-.128-.269c-.557-1.163-1.11-2.306-1.451-2.873-.214-.458-.37-.795-.37-1.237l.01-.196.087-.867zm7.573 8.867l.194.254c.094.124.208.368.328.643l.06.14.074.2c.085.186 1.184 1.12 1.386 1.19.21.067.326.166.438.282l.068.072.218.234-.307.087c-.112.032-.216.052-.33.052-.094 0-.194-.014-.31-.048-.213-.041-1.042-.61-1.237-.87-.226-.205-.72-.975-.78-1.274-.085-.224-.046-.415.025-.588l.038-.085.135-.289zm24.47-9.518c4.722 0 5.23 3.918 5.23 5.913 0 2.514-1.21 6.042-4.975 6.194l-.255.005h-4.69V58.348h4.69zm-22.847 9.304c.37.14 2.065.9 2.136.932 0 0 1.753.784 2.099.933.263.108.417.233.578.384l.098.094.362.345-.37.073c-.143.027-.27.042-.389.042-.203 0-.389-.042-.61-.13-.361-.14-2.053-.909-2.125-.942-.016-.007-1.753-.777-2.097-.914-.253-.1-.407-.218-.56-.352l-.091-.082-.403-.355.367-.088c.373-.09.646-.073 1.005.06zm12.278-2.771l.055.525c.033.31.044.497.002.855.016.44-.718 1.79-1.058 2.127-.23.413-1.275 1.59-1.622 1.717-.168.102-.341.154-.513.154-.138 0-.276-.033-.41-.101l-.1-.058-.428-.276.503-.08c.176-.03.27-.069.393-.139l.1-.058.162-.088c.363-.19 2.101-2.654 2.253-3.183l.01-.056-.007-.034.008-.02c.043-.293.132-.499.268-.716l.087-.133.297-.436zM7.868 70.165l.012-.004-.02-.075.008.08zm15.915-2.158l.032.204c.023.143.049.304-.063.478-.056.1-.332.473-.448.627l-.038.052c-.136.21-.535.632-.597.674-.102.093-.216.12-.326.12l-.074-.004-.07-.009-.193-.031.032-.193c.028-.173.05-.31.185-.43.064-.053.298-.332.413-.474l.046-.058.02-.026c.107-.148.4-.55.456-.639.101-.149.225-.197.35-.229l.074-.017.201-.045zm-21.4-4.89l.358.43c.064.076.12.137.174.195.123.134.24.26.382.496.06.133.144.302.243.492l.077.147.087.16c.656 1.198 1.707 2.934 1.882 3.084.149.15.234.26.316.368.045.06.09.118.145.182l.09.1.388.407-.556-.08c-.353-.05-.61-.188-.888-.477-.162-.138-1.102-1.445-1.336-1.918-.063-.071-.144-.25-.361-.725-.219-.478-.548-1.2-.674-1.343-.185-.305-.274-.546-.302-.818l-.009-.139-.017-.56zm21.09-1.867l.302.356c.35.413.411.893.175 1.388-.065.235-.339.514-.774.937-.152.147-.3.29-.414.417-.179.286-.276.722-.323.932-.013.061-.025.112-.04.152-.086.476-.951 2.481-1.363 2.883-.258.39-.585.548-.932.662l-.13.042-.455.138.228-.42c.154-.28.26-.442.396-.647l.124-.19.071-.11.038-.043c.178-.151.6-1.263.909-2.075l.112-.294.11-.286.073-.19c.184-.467.35-.861.48-1.076.231-.256.428-.45.598-.617.239-.234.465-.456.495-.563.15-.318.227-.486.265-.773l.016-.156.038-.467zM6.981 62.653l.288.23c.08.063.143.1.205.138.08.047.158.094.255.176.106.11.698.418 1.037.583l.103.05.135.059c.2.088 1.186.529 1.443.77.181.124.299.334.293.528-.003.127-.057.24-.152.322l-.078.055-.294.168.004-.34c0-.033-.003-.044-.003-.045 0 .008-.014.002-.029-.006-.05-.027-.12-.063-.192-.134-.12-.123-.965-.527-1.217-.638l-.053-.022c-.334-.115-1.323-.668-1.458-.814-.19-.146-.3-.348-.314-.588l.001-.124.026-.368zm11.763.016l.034.013.367.144-1.442.876c-.016.085-.05.214-.124.374l-.062.125-.028.039c-.281.31-.6.286-.755.276-.02-.001-.036-.005-.05-.003-.114.01-.17 0-.223-.008-.036-.006-.06-.01-.095-.006l-.06.01-.304.072.07-.306c.056-.24.255-.415.49-.438l.089-.001.077.02c.037.018.08.03.146-.014.111-.074.182-.235.19-.3-.023-.06-.03-.152.044-.264.149-.228.827-.705 1.148-.675.182-.03.397.034.488.066zM5.88 60.481l.346.2c.07.04.13.07.186.096.114.054.232.11.378.233.18.158 2.494 1.429 2.86 1.615.174.11.529.338.454.702l-.032.102-.147.363-.199-.337c-.02-.033-.044-.044-.138-.074-.08-.025-.18-.057-.289-.13l-.366-.17c-.774-.362-1.09-.51-1.198-.612-.433-.222-1.385-.9-1.394-.909-.206-.169-.325-.344-.38-.566l-.023-.115-.058-.398zm7.076.406c-.577.26-1.166.457-1.75.457-.18 0-.357-.026-.534-.067l.293.37c.156.194.279.346.438.603.082.16.44.66.871.885.335.186.43.153.607.078l.068-.029.033-.014c.087-.034.153-.129.197-.281.148-.514-.028-1.473-.223-2.002zm-8.234-1.914l.412.008c.269.006.452.031.708.154.236.118 1.35.687 1.489.758l.028.014c.138.07 1.254.637 1.486.758.216.113.342.223.469.379l.077.099.24.318-.397-.006c-.266-.003-.449-.028-.708-.155-.235-.118-1.35-.685-1.488-.755l-.028-.015c-.138-.07-1.253-.636-1.488-.761-.209-.102-.333-.217-.454-.36l-.09-.112-.256-.324zm14.313-2.74c-.92.82-1.955 1.73-2.903 2.516.065.102.127.209.188.315l.126.218c.757 1.735 2.097 1.567 2.298 1.531.196-.109 1.5-.911.986-2.643l-.008-.056c0-.383-.165-.696-.34-1.027-.136-.256-.279-.533-.347-.855zm-6.284-11.14c.164.002.32.049.463.153l.106.088.039.033c.113.092.314.255.325.618l-.003.129-.015.06c-.126.296-.274.41-.382.492-.033.025-.06.046-.083.07l-.032.036-.042.042.08.033c.13.053.297.12.49.22.558.238.96.729 1.153 1.413.244.874.083 1.957-.393 2.642-.471 1.128-.98 2.399-1.089 3.263-.02.54.027 1.022.054 1.28.008.087.015.152.014.203l-.003.047.001.029c.013.188.049.761-.021 1.564-.02.863-.522 2.589-2.276 2.854-.044.012-.096.017-.154.017-.398 0-1.08-.252-1.328-.349l-.06-.024-1.104-.445 1.187.07c.008 0 .813.045 1.463-.095.572-.123 1.333-1.267 1.403-2.11.065-.718.033-1.254.023-1.43-.003-.045-.005-.086.001-.123-.001-.026-.006-.067-.012-.122-.025-.237-.078-.731-.061-1.447.133-.975.567-2.088 1.018-3.185l.151-.364.023-.041c.385-.524.516-1.222.352-1.868-.119-.47-.376-.829-.705-.983-.074-.034-.15-.066-.228-.098-.2-.083-.405-.168-.62-.311-.216-.162-.32-.387-.299-.637.023-.28.2-.556.363-.66.08-.076.144-.134.195-.178-.17-.178-.477-.05-.727.084-.063.035-.213.114-.316-.022-.055-.073-.055-.152 0-.237l.052-.064.055-.059c.197-.216.529-.577.942-.589zm-1.034 2.016l-.356.748c-.182.38-.354.74-.406 1.027.291.42.423 1.497.561 2.845.041.397.087.84.125.995.074.069.204.328.22 1.572.015 1.058-.092 2.381-.667 2.768-.113.2-.229.359-.331.5-.128.174-.234.319-.308.503l-.049.147-.172.63-.2-.622c-.188-.585.006-1.025.262-1.51l.07-.134.03-.053.052-.027c.579-.303.463-2.897.339-3.39-.119-.106-.153-.441-.241-1.295-.085-.825-.224-2.172-.46-2.58l-.05-.069-.057-.063.008-.086c.076-.829.453-1.079.818-1.32L11 47.63l.096-.068.62-.454zm5.773-1.612l.116.068.034.028c.206.215.353.449.492.696l.105.188.036.065c.394.704.543 1.697.37 2.47-.121.769.073 1.56.26 2.323.162.662.33 1.343.3 2.034l-.025.297-.008.036c-.474 1.46-2.014 2.157-2.209 2.24l-.018.008-.178-.345c.014-.01 1.419-.936 1.714-2.076.087-.558-.077-1.234-.25-1.95-.209-.855-.424-1.74-.285-2.662.14-.726.05-1.335-.305-2.046-.226-.434-.376-.704-.55-.758-.079-.024-.184-.008-.32.05l-.109.052-.05.018c-.717.155-1.207.33-1.457.434.246.104.55.233.86.41.441.144.78.503.945 1.021.29.909-.002 2.298-.677 3.233-.908 1.692-1.283 3.016-1.131 4.022l.032.174.005.022v.023c-.005.331.525.809.92 1.08l.105.069-.19.34c-.132-.066-1.292-.664-1.528-1.35-.331-1.604.413-3.299 1.182-4.747.592-.907.843-2.028.607-2.683-.09-.249-.246-.424-.466-.522l-.115-.043-.04-.017c-.261-.15-.495-.25-.72-.345-.121-.051-.237-.1-.349-.155l-.165-.085-.053-.03-.027-.055c-.129-.265-.152-.473-.07-.635.075-.151.214-.207.307-.23.243-.185 1.053-.44 1.696-.588l.17-.038.029-.006.028.002c.065.005.118-.016.209-.056.172-.075.403-.177.773.019zM4.768 38.21l.062.074.025.042.011.023.01.025.02.052-.01.055c-.058.303-.09.606-.102.902.021.323.066.641.109.95.02.147.04.29.057.431.05.348.08.688.091 1.005.061.257.12.462.159.599.028.1.049.172.055.23.012.035.023.077.036.125.391 1.465.92 2.726 1.572 3.747.116.148.301.334.467.287.467-.126.886-1.63 1.06-2.755l.025-.174.386.036c-.022.481-.155 2.907-.606 3.433-.159.282-.458.448-.82.448-.052 0-.106-.004-.16-.01-.496-.065-.968-.41-1.092-.794-.077-.122-.196-.321-.335-.571-.025.023-.05.047-.08.069-.035.045-.084.083-.142.116l-.094.047.298.528c.09.16.154.281.219.506.049.222.803 2.222.942 2.414.098.137.16.224.224.336l.065.123.212.423c.352-.53.807-.652 1.176-.636.119-.019.232-.02.342-.002l.108.023.107.036c.375.147.68.52.872 1.08l.06.192.035.136c.132.494.441 1.651.31 2.796.001.047-.002.091-.005.136.031.099.028.19.011.282l-.02.09-.109.168c-.27.682-.928 1.04-1.359 1.151-.043.011-.097.025-.148.025-.017 0-.034-.002-.05-.005-.182.018-.482-.058-.7-.136l-.12-.047-.034-.02c-.421-.35-.722-.965-.784-1.605-.18-1.182-.113-2.395-.024-2.92.058-.197.125-.365.2-.51l.075-.14-.466-.285c-.136-.083-.277-.168-.415-.359-.034-.038-.563-1-.623-1.325-.2-.325-.36-1.03-.404-1.231l-.012-.055c-.04-.166-.052-.286-.052-.418l.005-.137.031-.6c-.245.096-.578.134-.824.134-.127 0-.23-.01-.285-.025-.034-.01-.062-.023-.086-.038l-.02-.005c-.166-.056-1.23-1.048-1.23-1.048.07-.392.295-.813.532-1.259.233-.436.473-.887.604-1.364.036-.128.06-.26.075-.395l.016-.202.004-.108c.008-.385-.04-.763-.085-1.059l-.026-.167-.03-.202c-.018-.155-.04-.31-.062-.468-.053-.378-.107-.77-.12-1.2-.035-.246.002-.531.054-.799l.04-.196.028-.131.026-.004.13-.02c.168-.023.427-.004.588.15zM8.62 50.588c-.401.194-.548.541-.693.98l-.048.149-.034.104c-.056.293-.14 1.586.03 2.657.048.598.264.891.443 1.037-.018-.152-.074-.734-.074-.734l-.076-.758c-.008-.179.058-.294.138-.39l.048-.057.122-.134.142.113c.12.096.23.197.26.384.014.125.062.651.072.755l.003.036c.01.104.064.63.072.745.003.028-.002.05-.003.075.235-.102.535-.325.629-.809l-.254-.418s-.337-.537-.4-.648c-.08-.142-.074-.27-.047-.395l.019-.076.048-.177.179.038c.149.03.303.075.408.239l.073.117c-.053-.523-.163-1.005-.239-1.314l-.03-.122-.038-.152c-.041-.114-.079-.235-.114-.348-.144-.463-.227-.727-.636-.897zm13.811-5.28c.097.067.208.187.234.392l.006.11-.012.532-.333-.415c-.05-.062-.12-.051-.391.065-.109.047-.224.095-.344.129-.138.056-.75.42-.848 1.039-.022.543.05 1.178.064 1.301.12.449.02 3.006-.212 3.503-.123.439-.271.773-.605 1.051l-.135.103-.436.303.14-.515c.05-.19.068-.351.087-.522.021-.198.044-.404.118-.667.196-.43.249-2.636.208-3.044l-.007-.05-.018-.064-.007-.059c-.025-.206-.093-.754-.063-1.467.168-1.082 1.17-1.65 1.41-1.733.354-.143.85-.198 1.144.008zm-13.83 5.911l.067.005c.515.103.565.932.36 1.294-.205.363-.723.311-.928-.207-.18-.453.12-1 .434-1.082l.067-.01zm-3.416-3.555c.013.298.59 3.013.743 3.273.052.094.09.158.124.218.046.078.087.15.13.235l.065.14.353.814-.743-.664c-.137-.117-.279-.24-.402-.467-.096-.135-.558-1.454-.55-1.792-.195-.478-.263-1.604-.268-1.702-.024-.288.112-.404.236-.417.124-.013.28.075.312.362zM1.3 52.14H1.3h.002zm2.936-5.128c.124.006.266.11.259.389-.01.244-.028 1.324-.025 1.554v.038l.001.023c0 .138.036 1.343.093 1.548.016.147.03.228.043.305.012.067.023.13.03.204l.01.12.04.782-.445-.746c-.074-.118-.155-.249-.193-.43l-.02-.146c-.025-.233-.137-1.304-.092-1.654-.05-.393-.003-1.39.009-1.618.015-.281.172-.37.29-.369zm19.081 3.35l.002.002-.002-.002zm-.012-.017l.006.008.006.009-.006-.009-.006-.008zM7.543 37.918l-.174.77c-.101.45-.266.764-.604 1.144.018.2.128.697.303.978l.079.106.028.04c.199.37.562 1.455-.06 2.125-.001.117.045.417.087.685.075.483.173 1.12.175 1.688l-.008.277-.048.765L7 45.801c-.514-1.114-.552-1.5-.535-1.693.01-.36-.06-.734-.112-1.008-.031-.166-.054-.287-.05-.378-.016-.075.01-.163.044-.278.068-.23.195-.659.007-.909-.466-.883-.416-1.61-.207-2.039l.047-.087.024-.032c.147-.16.268-.282.382-.396.108-.109.209-.21.319-.332l.114-.13.51-.6zm-2.857 5.88c-.222.506-.46.764-.693 1.016-.097.106-.408.398-.501.52.063.065.609.449.86.54l.085.028.086.022.06.011c.276.05.536.02.64-.022l.035-.018.046-.043c.06-.037.116-.06.17-.078-.268-.546-.562-1.226-.788-1.976zm5.172-4.486l.648.327c.564.285.862.425 1.463.491.11.023.328.021.579.021.47-.003 1.155-.004 1.83.123l.252.053.041.016c.838.423 1.23.874 1.44 1.117.026.031.057.067.084.095l.035.037.044-.01.074.055c.002.002.185.14.487.339l.137.092.147.096.263.175c.038.029.067.049.096.069.078.054.159.112.259.206.056.026.094.078.121.142l.024.067.006.38c-.046.105-.111.18-.195.221-.125.062-.247.033-.33.004l-.044-.017-.088-.033-.063-.038-.105-.062c-.495-.415-1.315.082-1.665.295l-.022.013c.043.14.047.307.051.48.007.276.02.484.117.564l.047.027.76.266-.798.111c-.032.005-.064.007-.095.007-.4 0-.646-.368-.74-.702-.022-.156-.043-.192-.073-.242-.072-.125-.126-.251-.145-.673l-.006-.151v-.061l.033-.052c.2-.304.507-.427.833-.557.083-.033.17-.067.258-.106.042-.034.092-.065.148-.093l.088-.04-.022-.015c-.008-.006-.209-.15-.517-.415-.153-.123-.266-.266-.366-.393-.178-.226-.28-.345-.503-.358-.643-.153-1.348-.153-1.862-.154-.308 0-.552 0-.719-.028-.835-.098-1.242-.543-1.54-.98l-.068-.1-.399-.609zm10.336-13.975c.124.08.239.156.344.18l.077.009.034.388c-.293.035-.57-.05-.793-.117-.11-.034-.276-.085-.32-.069-.025.151.006.452.04.77.027.254.057.54.064.83.13.763-.107 3.146-.518 5.176-.057 1.867.394 5.924 1.118 7.46.198.243.42.479.654.728l.305.328c.074-.123.148-.261.217-.408.305-.627.488-1.201.604-1.588l.04-.137.042-.138c.027-.144.065-.313.103-.481.143-.64.292-1.3.06-1.59-.084-.105-.226-.166-.43-.18l-.13-.004-.713.006.612-.368c.286-.173.623-.173.924 0 .351.2.586.593.584.977.07.462.039.969-.103 1.596l-.068.276-.028.099c-.111.387-.318 1.109-.71 1.914-.086.172-.17.34-.274.511l-.113.174-.053.053c-.081.157-.18.291-.494.345l-.128.016-.071.006-.058-.042c-.26-.187-.308-.244-.351-.324-.006-.01-.009-.015-.035-.039-.144-.163-.28-.31-.42-.458-.145-.156-.294-.315-.44-.481l-.216-.256-.025-.042c-.82-1.785-.988-4.183-1.15-6.502l-.056-.776-.06-.77-.003-.028.006-.027c.396-1.99.626-4.217.512-4.965 0-.25-.014-.448-.028-.638-.026-.36-.05-.704.052-1.102l.062-.204.043-.07c.519-.54.983-.238 1.291-.038zM2.173 37.85c-.077.072-.15.157-.171.222-.093.174-.193.254-.304.326 0 .537-.088 1.106-.242 1.498-.123.319-.124.441-.104.535.063.036.277.137.432.164.03.005.056.014.084.022l-.114-.168c-.044-.064-.153-.225-.105-.438-.005-.077.005-.154.038-.229.016-.042.203-.311.388-.51l.716-.754zm13.42-3.384c.467.61.487 1.656.458 1.975-.048.509-.302 1.042-.688 1.363.019.19.008.36-.089.578-.107.28-.578.913-1.163 1.066-.115.03-.238.045-.363.045-.547 0-1.133-.267-1.224-.61-.07-.269-.077-.42-.014-.593l.037-.09.183-.39.17.396c.218.504.681.69 1.003.577.317-.111.58-.42.696-.61l.04-.072-.435.04.34-.372c.574-.627.758-1.296.776-1.593.031-.488-.265-1.093-.404-1.294-.117-.168-.315-.368-.549-.477l-.12-.046-.594-.182.592-.19c.353-.114 1.096.15 1.348.48zM12.775 6.79l.407.943c.426.989.466 1.132.616 1.665.067.236.156.551.31 1.055.04.09.103.226.177.387.533 1.165 1.644 3.587 1.996 6.029.24 1.71.399 3.3.494 4.25.032.323.061.614.081.782l.01.073.029.22c.019.166.068.524.127.953.136.991.342 2.49.53 4.12.057 1.54-.094 3.076-.215 4.31-.107 1.089-.191 1.948-.1 2.388.077 1.725.065 2.741-.055 4.109l-.032.35-.1 1.039-.256-1.505c-.219-1.272-.391-2.276-.474-3.928-.105-.487-.013-1.43.103-2.624.124-1.273.265-2.715.206-4.056-.189-1.637-.406-3.227-.536-4.177-.083-.604-.117-.857-.122-.973-.025-.1-.047-.324-.101-.868-.098-.977-.26-2.614-.5-4.312-.341-2.313-1.36-4.555-1.907-5.76-.084-.185-.156-.344-.212-.473-.344-1.143-.32-1.446-.29-1.83.018-.224.038-.474-.018-.957l-.025-.192-.143-1.018zm-.862 26.927c.151.352.225.682.097 1.11l-.057.164-.022.055c-.141.352-.241.637-.312.868.038-.043.075-.083.108-.115.347-.335.61-.332.772-.27.21.087.38.258.442.438.03.09.032.18.007.263l-.034.079-.112.196-.176-.14c-.122-.097-.293-.204-.42-.162-.179.06-.29.403-.354.628l-.024.089-.017.065c-.084.307.062.928.195 1.131l.04.048.038.046c.095.16.155.277.207.45l.037.14.095.396-.366-.174-.023-.01c-.181-.087-.369-.176-.525-.413-.069-.072-.133-.199-.19-.35l-.04-.12-.159-.246c-.769-1.204-.122-2.51.122-3 .029-.06.05-.102.06-.128.052-.146.054-.395.01-.601l-.031-.118-.033.09c-.056.155-.183.256-.35.277-.206.024-.43-.08-.548-.256-.108-.16-.119-.358-.03-.547.021-.208.185-.368.44-.423.405-.088.961.093 1.153.54zm-2.757 4.16c-.02.04-.04.105-.039.195 0 .155.035.43.088.769l.03-.06-.025-.584c-.007-.172-.033-.269-.054-.32zm5.402-2.504c.267.383.365.927.324 1.235l-.019.093c-.01.08-.152.784-.838 1.107-.136.088-.284.132-.433.132-.154 0-.308-.047-.449-.144-.307-.213-.5-.628-.436-.945.032-.163.13-.283.271-.339.134-.132.397-.158.563-.118.22.054.346.22.327.433.006.069-.023.17-.052.27l-.015.053c.276-.085.329-.237.387-.572.14-.814-1.11-1.332-1.262-1.392l-.015-.006-.716-.264.755-.112c.04-.006 1.012-.14 1.608.57zM1.59 24.271c.038.422.089 1.076.15 1.875l.115 1.545c.025.214.032.923.042 2.155.005.65.012 1.143.018 1.257.02.392-.18 2.595-.225 2.833l-.012.057c-.062.346-.08.52-.085.603.028.018.063.038.104.06.09.056.177.11.247.222.03.053.049.104.06.154.29.104.437.195.806.433l.357.23C3.44 35.87 5.532 37.24 6 37.547c.334-.169.693-.365.81-.45.072-.804.227-6.425.204-7.477.009-.651.038-1.14.106-1.638l-.11-.05c-.204-.093-.38-.164-.545-.23-.352-.141-.684-.275-1.168-.58-.054-.034-.139-.084-.247-.148-.725-.431-2.485-1.479-3.46-2.704zm21.411 10.215c.192.1.255.362.14.583-.085.165-.238.261-.39.261-.056 0-.112-.013-.164-.04-.193-.101-.253-.357-.137-.582.05-.099.13-.177.223-.222.11-.051.229-.051.328 0zm-.724-1.461c.25 0 .447.243.447.554 0 .31-.196.551-.447.551-.255 0-.454-.242-.454-.55 0-.312.2-.555.454-.555zm-11.274.78l-.02.006-.001.043-.025.024h.026l.034-.007.124-.032c-.025-.018-.05-.03-.077-.035-.024-.004-.045-.003-.06 0zm4.394-1.966c.35.191.428.522.243.899-.002.005-.213.373-.436.562l-.075.056c-.14.168-.872.45-1.253.45-.056 0-.105-.007-.143-.02-.178-.041-.301-.12-.41-.226l-.078-.084-.202-.233.353-.1c.161-.047.289-.083.473-.035.1.017.5-.152.818-.304.119-.13.234-.272.305-.374-.059-.028-.114-.064-.175-.11l-.097-.078-.226-.188.261-.135c.12-.062.344-.177.642-.08zm-1.49-.355l.013.559c.001.064-.02.41-.568.99-.13.138-.321.192-.543.192-.823 0-2.059-.75-2.074-.76-.07-.045-.148-.095-.203-.155l-.046-.063-.029-.015.01-.039c-.008-.036-.005-.075.011-.117.005-.012.02-.045.052-.075.08-.112.216-.061.348-.012 1.454.55 1.897.506 2.03.431.457-.256.629-.448.657-.483l.005-.005.336-.448zm7.814-.667c.325 0 .58.334.58.761s-.255.762-.58.762c-.326 0-.582-.335-.582-.762s.256-.76.582-.76zm-11.143-.767c.445 0 .705.389.732.773.027.39-.183.695-.51.74-.027.004-.053.006-.078.006-.157 0-.293-.071-.388-.206-.216-.305-.168-.86-.04-1.108.091-.178.217-.205.284-.205zm4.915-3.986c.563.54.737 1.62.752 1.88.03.51-.139 1.077-.472 1.454.047.185.063.354 0 .585-.064.293-.433.99-.987 1.233-.19.083-.411.12-.631.12-.458 0-.905-.164-1.023-.434-.111-.255-.14-.404-.104-.585l.023-.093.122-.414.228.365c.292.465.778.576 1.078.415.297-.158.51-.504.595-.709l.03-.078-.425.107.28-.42c.47-.708.551-1.398.524-1.694-.044-.487-.428-1.04-.597-1.216-.14-.148-.367-.316-.614-.388l-.126-.027-.614-.088.555-.28c.331-.166 1.106-.019 1.406.267zm-3.751-.173c.203.324.326.64.265 1.081l-.032.172-.013.057c-.087.37-.142.667-.176.907.03-.049.061-.094.089-.13.292-.385.554-.423.721-.388.22.055.416.197.504.366.043.084.06.174.047.259l-.021.083-.081.211-.196-.111c-.135-.077-.32-.156-.44-.096-.167.087-.225.443-.253.676l-.01.091-.008.067c-.037.318.206.917.369 1.092l.042.037.045.04c.12.143.197.249.274.411l.058.134.153.377-.387-.116-.025-.007c-.192-.057-.39-.117-.581-.327-.08-.06-.162-.176-.241-.317l-.059-.11-.193-.22c-.944-1.072-.503-2.462-.337-2.985.02-.062.035-.108.04-.134.03-.153-.007-.399-.082-.596l-.049-.111-.018.094c-.032.162-.143.281-.304.327-.198.057-.437-.012-.581-.168-.131-.143-.171-.336-.113-.536-.01-.21.127-.392.37-.486.387-.15.965-.056 1.223.356zm9.519 2.94c.328 0 .595.351.595.783 0 .429-.267.778-.595.778-.335 0-.598-.342-.598-.778 0-.439.263-.783.598-.783zm-6.654-1.711c.44.459.527 1.095.508 1.28-.006.127-.066.804-.663 1.208-.152.136-.335.206-.524.206-.116 0-.234-.026-.35-.082-.336-.163-.589-.543-.575-.866.007-.167.085-.3.217-.377.111-.152.367-.218.538-.203.226.018.375.163.39.377.016.066.002.172-.012.275l-.006.054c.26-.126.289-.284.295-.625.015-.823-1.29-1.143-1.457-1.18l-.017-.004-.748-.15.729-.227c.04-.013.978-.296 1.675.314zm6.269-.352c.318 0 .576.336.576.748 0 .419-.253.747-.576.747-.327 0-.582-.328-.582-.747 0-.412.26-.748.582-.748zM6.542 17.732c-1.321 1.048-2.46 2.09-2.958 2.546-.116.106-.19.174-.243.215 0 .001-.391.361-.995.925l-.101.092c-.156.14-.257.234-.349.492l.015.084c.067.34.035.575-.03.737.323.754 1.491 1.766 3.81 3.323.321.212.656.33.95.434.226.08.418.158.587.258-.125-.39-.203-.692-.278-1.162-.143-.618-.29-3.651-.29-3.675h.027c-.121-.712-.174-3.61-.174-3.643 0-.234.009-.433.03-.626zm4.374 8.376c-.024 0-.045.004-.06.01l-.02.009.006.042-.021.028.026-.005.033-.011.117-.05c-.027-.014-.054-.022-.081-.023zm3.856-2.62l.126.01c.376.135.503.45.378.85l-.022.056c-.05.118-.174.396-.324.568l-.065.067c-.122.202-.91.644-1.257.644-.021 0-.04-.002-.057-.005-.183-.013-.316-.072-.44-.16l-.09-.07-.236-.2.334-.153c.153-.07.274-.125.462-.108.095-.008.471-.227.762-.426.099-.148.19-.305.246-.417-.063-.018-.123-.045-.19-.081L14.29 24l-.252-.152.238-.173c.078-.057.203-.149.381-.178l.114-.01zm-1.401-.112l.098.551c.012.063.044.409-.41 1.067-.148.215-.437.292-.773.292-.808 0-1.884-.444-1.9-.45-.076-.034-.16-.072-.223-.123l-.055-.055-.031-.01.003-.04c-.012-.034-.016-.073-.006-.118.003-.012.013-.047.04-.082.062-.123.204-.094.342-.065 1.52.32 1.951.208 2.072.113.412-.323.552-.54.575-.579l.004-.006.264-.495zm5.234-20.583c.512.147.895.624 1.203 1.007.142.177.357.445.44.454.332-.058.636-.234.989-.437.248-.143.523-.302.839-.43l.245-.09.107-.035.084.076c.532.49.491.791.405 1.059-.026.079-.032.106-.024.131l.01.02.02.051c-.002-.01.016.019.04.059.146.249.305.534.333.769.13.653.024 1.177-.088 1.5-.093.285-.248.54-.442.73l-.12.107-.06.038-.02.014-.02.016-.016.208c-.039.466-.467 1.126-.577 1.29l-.02.03-.448.647.096-.783c.001-.008.084-.686.113-1.131l.006-.106.025-.414c.124-.252.198-.385.3-.437l.054-.02.025-.024c.118-.096.217-.255.28-.447.083-.22.14-.588.068-1-.138-.152-.55-.647-.626-1.215-.186.082-.313.169-.444.26-.211.144-.428.293-.863.397l-.174.037-.043.007-.042-.01c-.74-.198-1.05-.618-1.3-.956-.171-.231-.312-.421-.556-.52l-.132-.043-.047-.017c-.519-.28-1.055-.402-1.276-.292-.044.022-.09.058-.105.16-.094.53.156 1.152.42 1.56.322.443.94.674 1.236.786.136.05.237.088.277.17l.018.011c.234.147.855.535 1.374 1.402.397.63.446 1.5.413 2.133.239.66-.502 1.455-.739 1.687-.051.05-.098.093-.14.13.32.295.664.788.48 1.247-.014.18.11.424.24.654l.066.114.042.072c.223.356.36.727.453 1.095l.051.22.22-.175c.263-.207.447-.319.702-.417l.162-.058.044-.014.045.006c.134.02.251-.017.359-.112.26-.229.438-.794.433-1.375-.002-.216-.102-.42-.298-.61-.278-.268-.7-.435-.986-.47l-.114-.006h-.021l-.021-.004c-.201-.038-.342-.08-.493-.123-.073-.021-.149-.043-.236-.066l-.14-.035-.388-.092.31-.25c.355-.287.689-.373 1.116-.289.238.037.916.248 1.443.653.545.332.705 1.015.696 1.232.068.475.013.898-.16 1.277-.265.627-.866.92-1.164 1.048l-.073.031-.044.019c-.196.062-.365.085-.518.085-.157 0-.298-.024-.438-.054l-.14-.032-.273-.064c.035.183.062.364.086.541l.034.261.024.187c.127 1.285.127 2.374.121 3.02v.14l-.002.136c-.058 2.132-.922 5.072-.976 5.254l-.003.008.022-.542c.032-.877.041-1.64.05-2.5.008-.661.017-1.375.037-2.233.133-1.232-.052-4.62-1.41-7.063l-.15-.258-.019-.038c-.29-.85.163-1.096.434-1.243.042-.023.106-.058.14-.085l.023-.023.012-.058.042-.04c.13-.128.155-.254.17-.512l.005-.12.007-.158c.046-.749-.05-1.318-.287-1.694-.386-.65-.873-.96-1.08-1.093-.068-.044-.125-.08-.158-.128l-.05-.016c-.252-.076-.758-.23-1.426-.9l-.145-.153-.025-.032c-.369-.62-.69-1.319-.542-2.22.127-.414.355-.677.683-.809.727-.292 1.694.195 1.93.325zM9.543 22.135c.443.034.672.441.669.826-.004.393-.236.68-.565.7H9.61c-.17 0-.313-.08-.404-.232-.193-.32-.105-.872.042-1.112.085-.142.188-.176.258-.181h.038zm4.801-3.997c.564.54.737 1.62.753 1.88.03.511-.14 1.077-.472 1.454.047.185.062.354 0 .585-.064.293-.433.99-.987 1.233-.19.083-.411.12-.631.12-.458 0-.905-.164-1.023-.434-.111-.255-.14-.404-.104-.585l.023-.093.122-.413.228.364c.292.465.777.576 1.078.415.296-.158.51-.504.595-.709l.029-.078-.424.107.28-.42c.47-.708.55-1.398.524-1.694-.044-.487-.428-1.04-.597-1.216-.14-.148-.367-.316-.615-.388l-.125-.027-.614-.088.555-.28c.331-.166 1.106-.02 1.405.267zm-3.75-.173c.202.325.326.64.265 1.081l-.032.172-.014.057c-.086.37-.141.667-.175.907.03-.05.06-.094.089-.13.292-.385.553-.423.72-.388.222.055.417.197.504.366.044.084.06.174.048.259l-.022.083-.08.211-.196-.111c-.135-.077-.32-.156-.44-.096-.167.087-.226.443-.253.676l-.01.092-.008.066c-.037.318.206.917.369 1.092l.042.037.045.04c.12.143.196.249.273.411l.059.134.153.377-.388-.116-.024-.007c-.192-.057-.391-.117-.581-.327-.08-.06-.162-.176-.241-.317l-.059-.11-.193-.22c-.944-1.072-.504-2.462-.338-2.985.02-.062.036-.107.04-.134.03-.153-.007-.399-.08-.596l-.05-.111-.018.094c-.032.162-.143.281-.305.327-.198.057-.436-.012-.58-.168-.131-.142-.171-.336-.113-.536-.01-.21.127-.392.37-.486.387-.15.964-.056 1.222.356zm12.87-.109c.195.093.88.516 1.355 1.173.485.535.44 1.326.362 1.558-.079.537-.273.977-.582 1.332-.493.6-1.25.72-1.607.76l-.075.009-.054.005h-.043c-.457 0-.745-.131-1.024-.286l-.12-.068-.397-.227.425-.17c.35-.14.585-.2.892-.225l.195-.01.051-.002.047.022c.139.064.278.062.424-.005.355-.164.728-.72.908-1.35.067-.234.023-.489-.128-.756-.219-.386-.626-.71-.93-.834l-.109-.037-.045-.018c-.207-.107-.347-.197-.495-.293-.072-.046-.147-.094-.233-.147l-.141-.083-.391-.225.416-.17c.476-.196.864-.182 1.3.047zM13.46 19.194c.439.459.527 1.095.508 1.28-.006.127-.066.804-.663 1.208-.153.136-.335.206-.524.206-.116 0-.235-.026-.35-.082-.336-.163-.589-.543-.575-.866.007-.167.085-.3.217-.377.111-.151.366-.22.538-.203.226.018.375.163.389.377.016.066.003.172-.01.275l-.008.054c.26-.126.29-.284.296-.625.015-.823-1.29-1.143-1.457-1.18l-.017-.004-.748-.15.728-.227c.04-.013.98-.296 1.676.314zM1.147 15.092c.03.577.07 1.32.073 1.437 0 .111.112 1.105.235 2.144l.046.39c.063.512.147 1.169.224 1.744.014-.014.028-.03.042-.04.593-.56.991-.922.991-.922l.098-.088c.043-.035.095-.083.159-.142.52-.479 1.74-1.602 3.18-2.728l.01-.006-.046-.17c-.243-.04-.487-.082-.708-.128-1.165-.243-2.041-.47-2.282-.535-.246-.094-.457-.143-.662-.191-.477-.111-.93-.217-1.36-.763zm8.62 3.09c-.023 0-.044.004-.06.01l-.02.009.007.042-.022.028.026-.004.034-.012.117-.05c-.027-.014-.055-.022-.081-.023zm3.857-2.62l.126.01c.376.135.503.45.377.851-.001.006-.153.401-.345.623l-.066.067c-.121.202-.91.644-1.257.644-.02 0-.04-.002-.056-.005-.183-.013-.316-.072-.44-.16l-.09-.07-.236-.2.334-.153c.153-.07.273-.125.462-.108.095-.008.471-.227.762-.426.098-.148.19-.305.245-.417-.062-.018-.123-.045-.19-.081l-.107-.062-.252-.152.238-.173c.077-.057.203-.149.381-.178l.114-.01zm-1.401-.111l.098.55c.011.063.043.409-.41 1.067-.148.215-.438.292-.773.292-.808 0-1.885-.444-1.9-.45-.076-.034-.16-.072-.224-.123l-.054-.055-.031-.01.003-.04c-.013-.034-.016-.073-.006-.118.003-.012.012-.047.04-.082.062-.123.204-.094.341-.065 1.522.32 1.952.208 2.073.113.412-.323.552-.54.575-.579l.003-.006.265-.494zm-3.462-.918c.444.034.672.441.669.826-.004.393-.236.68-.565.699l-.038.001c-.17 0-.312-.081-.403-.232-.194-.32-.105-.873.04-1.113.087-.141.189-.175.26-.18l.037-.001zM2.37 4.348l-.044.036c-.054.05-.106.128-.215.296l-.077.119c-.025.038-.056.103-.091.203.044.127.066.296.06.517l-.007.047c-.122.441.254 1.876 1.116 4.263.05.14.085.235.108.304.076.095.15.334.36 1.002.3.963 1.002 3.217 1.446 3.364l.07.04c.137.126.3.226.457.324.352.217.742.465.793.988.226.037.46.073.694.108l-.055-.436c-.069-.585-.107-.912-.638-1.313-1.038-.242-2.175-2.918-2.735-4.408l-.164-.456c-.015-.042-.044-.117-.085-.221-.155-.405-.446-1.16-.718-2.02-.139-.63-.146-1.235-.152-1.72-.005-.45-.01-.876-.123-1.037zm7.772 7.753c.069.065.114.143.13.228l.008.085-.007.226-.221-.04c-.148-.026-.344-.036-.437.063-.162.176-.042.657.003.838.072.294.512.823.72.94l.05.02.056.023c.16.095.267.17.394.297l.1.106.269.305-.405.02-.025.001c-.054.003-.109.006-.165.006-.15 0-.308-.02-.488-.117-.428-.118-1.042-.95-1.157-1.376-.1-.374-.124-1.113.143-1.515.108-.164.259-.263.436-.286.224-.023.458.046.596.176zm1.629-2.587c.71.32 1.232 1.281 1.333 1.52.198.472.225 1.063.036 1.53.106.157.176.312.194.55.037.299-.08 1.08-.522 1.494-.293.275-.758.432-1.136.432-.224 0-.417-.055-.527-.173-.19-.203-.267-.333-.292-.516l-.01-.096-.022-.43.336.266c.429.34.923.283 1.154.03.231-.252.316-.659.327-.878v-.073l-.364.242.125-.49c.21-.824.056-1.502-.067-1.772-.203-.445-.748-.836-.966-.947-.182-.092-.452-.174-.708-.158l-.127.016-.608.123.43-.45c.258-.268 1.037-.39 1.414-.22zm-9.032-6.62c-.004.028-.01.056-.012.085l-.043.175c-.054.106-.086.266-.105.424.056.048.112.101.173.165.445.285.45 1.003.456 1.763.003.49.006.996.122 1.4.252.803.54 1.557.696 1.961.048.127.08.212.099.274.025.053.053.13.095.241 1.318 3.529 2.103 4.154 2.454 4.212l.08.034c.282.2.462.43.573.669.016-.222.034-.44.056-.653l-.113-.317c-.158-.446-.23-.54-.464-.848l-.223-.298c-1.004-.486-2.15-4.256-2.28-4.697H4.3c-.017-.046-.4-.984-.683-2.168l-.006-.042c-.028-1.458-.225-2.21-.585-2.238l-.075-.021c-.069-.036-.141-.077-.212-.12zm8.547 7.913c.416.21.759.642.867.933l.028.091c.029.075.233.764-.217 1.374-.144.261-.396.414-.688.414-.031 0-.063-.001-.094-.005-.371-.04-.736-.314-.83-.623-.048-.16-.02-.312.08-.429.055-.18.273-.327.44-.371.22-.06.407.027.491.224.038.058.06.162.082.263l.011.054c.204-.206.179-.365.072-.688-.261-.788-1.62-.642-1.77-.624l-.013.002-.755.109.612-.459c.033-.025.825-.606 1.684-.265zM3.544 2.039l-.069.038-.065-.006-.323.228c.054.022.105.04.163.07l.057.033c.234.133.72.412.865 1.046.068.332.078.66.088.976.008.267.015.518.055.761.18.752.453 1.495.585 1.853.027.072.048.13.063.177.062.1.131.31.28.76.333 1.012 1.115 3.381 1.789 3.663l.05.021.031.045c.222.305.347.507.421.71.085-.587.177-1.104.252-1.52l-.107-.107c-.164-.162-.323-.277-.49-.4-.222-.161-.45-.328-.71-.61-.918-.535-1.609-3.817-1.561-4.315-.075-.408-.017-1.434.066-1.953.17-.78-.354-.988-.953-1.15l-.135-.044c-.156-.09-.268-.184-.352-.276zm8.174 4.615l.06.008.008-.003c.097.028.193.093.27.151l.07.055.091.073-.02.115c-.021.115-.075.213-.155.289-.032.108-.072.275-.09.48l-.009.16-.006.044c-.185.74-.808.851-1.108.904l-.08.015-.03.008-.03.02h-.02c-.294.06-.495.043-.706.025l-.09-.008-.095-.006-.273-.015-.194.179.027-.188-.097-.006.11-.081.038-.267c.045-.312.09-.543.284-.853.046-.275.32-.52.798-.715.231-.093.667-.223 1.031-.249.012-.025.028-.048.05-.07.033-.031.07-.05.108-.06l.058-.005zm-.454.915l-.009.002h-.008l-.199.03c-.43.008-.619.253-.75.492-.084.125-.158.226-.23.315.09-.037.185-.066.29-.093l.167-.04.04-.008c.604-.13.662-.275.665-.317 0-.104.012-.238.034-.38zm-1.132-6.186l-.073.39c-.058.306.015.56.1.853.036.125.073.253.102.39l.005.026c.02.03.057.08.088.121.101.137.24.325.356.564l.016.047c.006.036.025.079.045.129.04.096.091.217.096.367l.037.015.026-.023.105.03c.455.127.899.29 1.146.38.036-.039.075-.06.112-.07.067-.048.166-.106.304-.188 1.88-1.117 2.165-1.496 2.167-1.624l-.072-.029c-.209-.175-.412-.301-.627-.435l-.094-.06c-.115-.006-.242-.011-.394-.011-.199 0-.357.007-.396.008l-.093.006-.086-.026-.047-.014c-.107-.03-.384-.113-.717-.197-.591-.146-.997-.238-1.058-.248-.137-.015-.346-.089-.61-.218l-.04-.019c-.112-.054-.186-.089-.31-.135l-.088-.03zm13.16 48.946l-.13-.183c-1.124-1.743-.258-3.582-.142-3.812l.013-.024s-.045 2.45.893 3.549c.25.292.666.834.657.914-.262 1.22-.951 1.65-1.505 1.996-.277.173-.516.322-.658.537l-.038.043c-.615.512-1.008.85-1.009.85l-.15.13-.015-.018c-.11.088-.285.24-.496.427.116.152.232.269.317.35.902.837 1.477 1.288 2.35 1.925l.074.054c-.023-.211-.036-.423-.038-.479l-.018-.232.18-.162c.342-.33.371-.586.383-.683.031-.195.052-.295.134-.676.04-.187-.017-.537-.052-.677l-.023-.1.015-.097c.023-.15.091-.268.35-.655l.066-.096c.01-.018.037-.053.071-.093l.027-.032c.059-.066.148-.166.214-.45.042-.17.09-.564.11-.748.002-.021 0-.034-.003-.061-.012-.147-.026-.31.042-.625.045-.211.02-.419.002-.542-.047-.05-.109-.124-.145-.23-.033-.091-.055-.212-.003-.487-.035-.645-.126-1.19-.264-1.576-.1-.27-.257-.454-.319-.508-.382-.077-.557-.446-.528-.77l.006-.052c-.086-.16-.077-.322-.073-.38 0-.072-.042-.288-.06-.38l-.032-.192c-.028-.153-.263-.564-.408-.767-.189-.28-.101-.547-.059-.676.01-.035.021-.07.028-.11-.011-.019-.022-.039-.032-.061-.1-.239-.02-.462.04-.58-.033-.37.204-.655.652-.824l.003-.038c.02-.262.204-.452.546-.565.005-.002.021-.013.034-.024.038-.072.085-.133.142-.185l.043-.142c.05-.16.061-.252.064-.293-.086-.142-.152-.367-.152-.37-.016-.064-.045-.188-.045-.579.017-.293-.002-.361-.004-.368-.023-.031-.036-.052-.047-.073-.077-.149-.143-.43-.165-.554-.045-.116-.08-.268-.028-.509-.009-.02-.032-.08-.093-.2-.031-.059-.045-.088-.053-.11-.077-.183-.107-.587.07-.877l.006-.098.008-.05c.012-.065.021-.118.039-.16l-.001-.01c.002-.012.01-.04.02-.071l.009-.03.008-.028c-.018-.113-.009-.23.024-.338-.063-.114-.113-.244-.132-.342l-.158-.693.205-.2c.13-.127.267-.279.292-.315.042-.066.067-.383.048-.511-.006-.013-.021-.063-.036-.127-.063-.247-.182-.713-.195-1.053-.007-.198-.14-.515-.197-.65l-.042-.084c-.053-.122-.08-.258-.149-.715l-.008-.055c-.007-.042-.011-.075-.016-.094-.02-.094-.026-.178-.031-.414L23.719 32c-.002-.065-.003-.123-.008-.156-.01-.048-.1-.333-.26-.834l-.037-.107c-.065-.21-.223-.54-.281-.652l-.003-.002-.044-.538-.004-.04-.01-.086c-.004-.037-.008-.07-.008-.098-.002-.02-.038-.186-.079-.339l-.041-.164c-.023-.095-.093-.256-.161-.412l-.054-.124-.058-.132c-.023-.05-.046-.102-.067-.153-.14-.338-.218-.556-.258-.815-.03-.182-.036-.465-.018-.841 0-.053-.043-.31-.075-.433l-.014-.06c-.086-.085-.121-.177-.136-.217-.013-.034-.022-.071-.027-.113-.07-.172-.063-.353.02-.503.116-.213.34-.314.606-.277l.027-.025.052-.051c.077-.07.193-.161.31-.25l.096-.078c.063-.05.125-.099.147-.12.04-.052.152-.16.462-.45l.113-.104.064-.06.09-.095c.106-.108.25-.254.418-.371.06-.044.19-.228.216-.28.022-.099.073-.288.202-.539.125-.245.24-.659.25-.724.02-.196.062-.606.503-.857l.029-.019c.02-.12.055-.413.065-.502.026-.188.012-.308-.009-.358-.062-.167-.307-.757-.645-1.346-.208-.371-.795-.928-1.234-1.292-.206-.174-.456-.765-.476-.957-.112-.924.182-1.408.376-1.728l.06-.105c.1-.175.209-.58.274-.822l.061-.24c.016-.069.019-.354.004-.606l-.004-.091.022-.08c.03-.1.062-.442.062-.744 0-.282.082-.596.123-.742-.02-.122-.033-.287.03-.46 0-.139-.008-.349-.025-.62l-.004-.052c-.016-.033-.03-.069-.039-.107-.06-.22.03-.399.085-.479-.039-.038-.09-.084-.127-.109-.287-.202-.386-.556-.248-.856.006-.068.012-.215.007-.256-.03-.214.025-.34.08-.463.053-.115.114-.243.205-.483.116-.306-.044-.827-.14-1.031l-.14-.305.226-.247c-.01.008.022-.04.062-.134.052-.105.067-.18.065-.317-.021-.057-.035-.117-.04-.186l-.137-.417c-.06-.107-.078-.24-.047-.374-.02-.055-.038-.12-.043-.196-.086-.074-.173-.175-.217-.305-.055-.171-.028-.381.02-.54l-.027-.008c-.038-.008-.116-.035-.21-.071-.134-.053-.292-.112-.453-.149-.114-.026-.278-.04-.474-.04-.423 0-.802.06-.86.08-.254.108-.708.023-.74.012l-.165-.042-.106-.156c-.07-.1-.33-.255-.404-.281-.074-.012-.237-.042-.388-.192-.12-.06-.501-.197-.647-.231-.083-.026-.19-.043-.293-.06-.135-.027-.254-.052-.32-.072-.047-.011-.351-.04-.483-.04-.058 0-.301.034-.592.089-.129.027-.395.015-.785-.007-.193-.01-.385-.021-.516-.021h-.139c-.197 0-.343-.01-.507-.024l-.173-.015c-.096 0-.225.023-.335.05.199.157.3.398.265.682-.078.66-.806 1.408-1.405 1.637l-.487.3h.004-.006l-.164.101c-.34.207-.664.403-.74.455l-.015.014-.337.2c-.155.048-.34.054-.537-.044-.302-.108-.68-.242-1.088-.359l-.052-.014-.037-.04-.027.007c-.365.106-.532-.165-.697-.67l-.002-.06c-.002-.04-.034-.186-.067-.244-.067-.154-.145-.26-.228-.373-.095-.128-.194-.261-.25-.43-.174-.687-.186-1.206.28-1.71l.255-.276c-.063-.025-.13-.054-.221-.095-.07-.031-.27-.055-.345-.042-.238.037-.435-.034-.53-.068l-.015-.005h-.043c-.069 0-.153.004-.241.008l-.1.004.01.036c.017.047.026.082.033.112.058.215-.006.4-.052.534-.01.033-.02.056-.027.078-.01.103-.067.285-.189.572l-.154.349-.375-.05s-.373-.051-.61-.08l-.144-.017c-.188-.02-.875-.134-.875-.134l-.127-.04-.181-.088-.233-.115c.33.405.435.878.283 1.357-.072.592-.072 1.218-.022 1.827l.006.074c.158 1.766.732 3.369 1.196 3.555l.044.017.135.156c.291.336.53.622.69 1.009l.031-.211c.013-.59.017-1.13.022-1.624l.007-.718c.005-.05-.026-.09-.053-.116-.207-.202-.884-.378-1.415-.295l-.056-.272.156-.041c.646-.173 1.62-.433 2.103.626l.012.04c.085.638.162 1.378.142 2.453-.03.226-.081.513-.144.86-.251 1.388-.672 3.71-.43 5.964.169 1.103.392 2.92.498 5.28l.005.118c.004.023.003.05.002.12-.033 1.72.474 3.378 1.464 4.798l.026.037-.001.046c-.036 1.361-.197 2.625-.34 3.74-.183 1.437-.328 2.573-.097 3.154l.01.044c.024.463.086.916.146 1.354.166 1.215.31 2.263-.38 3.01l-.172.186-.139.515c.16.891.393 2.006.547 2.738.057.274.105.5.135.65.044.218.093.595.145.994.044.34.105.812.168 1.175l-.001-.001.14-.874.214 1.045c.143.692.134.992-.036 1.282-.145.182-.312.223-.457.223-.067 0-.13-.009-.183-.016-.04-.005-.08-.011-.12-.014l-.1-.005-.053-.086c-.182-.29-.208-.568-.212-.667v-.04l-.053-.807c-.095-.86-.246-1.674-.295-1.942-.012-.064-.02-.11-.02-.146-.011-.09-.103-.531-.2-.998-.262-1.261-.658-3.167-.663-3.777-.01-.327.128-.65.36-.84.194-.159.437-.213.688-.153l.054.022c.036.022.061.046.09.07-.046-.26-.11-.537-.179-.829-.137-.582-.293-1.241-.34-1.944-.283-.686-.06-2.39.175-4.192.117-.89.237-1.81.29-2.59-.14-.29-.293-.583-.447-.874-.472-.893-.96-1.816-.998-2.699-.05-.796-.071-1.353-.08-1.562l-.002-.084c-.005-.044-.008-.108-.013-.204-.086-1.772-.244-3.419-.465-4.908-.08.036-.16.067-.235.094v.006c.038.287.074.559.08.954-.003.51.097 2.792.132 3.44h.003l.01.206c.075 1.461.188 3.163.279 3.555.086.571.072.912.013 1.424l-.001.006.034.247c.113.808.194 1.392.19 2.39.001.055-.064 5.769-.231 6.86.013.096-.011.317-.097.987-.044.317-.822.782-1.468 1.116l-.102.053-.095-.065c-1.277-.867-2.711-1.824-3.2-2.14-.504-.326-.67-.52-.83-.706-.049.094-.117.194-.206.321-.057.082-.102.145-.126.184-.01.023-.056.15-.129.368l-.036.107c-.072.205-.031.322-.014.358.096.091.165.208.218.365.221-.202.672-.487.966-.399.083.025.148.077.188.149.22.173.665.82.72.982.085.15.086.292.066.441l.022.006-.033.178c-.025.139-.054.297-.213.412-.057.037-.23.19-.416.36l-.185.175c.117.067.243.15.386.274.186.122.65.611.754.805.117.172.123.384.016.6l-.105.208-.185-.14c-.039-.03-.07-.05-.097-.07-.076-.052-.142-.098-.223-.205 0 0-.753-.7-1.02-.871l-.021.018c-.036.029-.081.065-.133.121l-.144.158c.156.052.283.147.37.282.115.189.135.412.062.666l-.014.049c.046.321-.199.61-.279.694-.017.039-.049.134-.057.17-.058.19-.016.422.004.471.063.119.304.619.447 1.028.109.34.177.796.227 1.13l.033.204c.046.286.13.807-.385 1.137-.075.05-.087.058-.108.102.003.036.017.143.087.4.1.309.007.526-.088.652-.07.092-.228.243-.52.253.024.1.058.215.102.349.11.317.28.91.173 1.287l-.014.04c-.02.055-.045.126-.073.198-.052.127-.08.216-.085.238-.007.062-.02.13-.036.204l-.02.096c-.028.113-.045.216-.047.257-.019.371.057.644.217.793.184.156.43.424.392.89-.008.134.045.34.065.383.088.183.128.358.128.564 0 .095.032.369.045.418l.012.044c.045.133.097.33.071.578-.007.062-.004.16.004.257.239-.156.5-.242.773-.24.408.008.748.223.866.547.108.295.008.62-.273.904.084.167.334.396.546.56.215-.444.806-1.168 1.035-1.441-.046-.057-.109-.14-.194-.266-.124-.159-.214-.338-.3-.51-.184-.365-.343-.68-.822-.816-.718-.203-1.033-.874-1.203-1.234-.03-.064-.055-.118-.078-.159-.914-2.07-.354-4.055-.33-4.138l.203-.697.068.723c.002.023.223 2.336.553 3.209.477 1.265 1.122 1.529 1.469 1.67.094.04.169.07.223.114.482.552.559.672.711.91.068.106.15.236.293.44.18.265.659.865.664.87l.082.104-.098.087c-.246.222-.815.729-.997.832-.236.212-.408.49-.463.748l-.109.521c-.075.182-.2.267-.358.267l-.094-.01c-.484-.095-1.188-.884-1.47-1.537-.108-.248-.138-.436-.126-.58-.142.025-.25.051-.582.612-.051.129-.033.173.067.284.257.243.393.467.536.703.048.079.096.159.15.242.364.613.712 1.266 1.124 2.06.615 1.08 1.195 2.338 1.706 3.449.716 1.553 1.391 3.02 1.795 3.144.231.072.478.11.74.151.211.033.43.067.639.12.068.021.124.035.18.048.163.038.331.078.59.242l.048.041c.033.03.134.124.175.13.247.057.503.064.774.072.53.015 1.133.032 1.645.426l.982.755-1.124-.518c-.436-.2-.89-.13-1.37-.056-.313.048-.638.096-.967.073l-.056-.016c-.502-.274-.829-.314-1.323-.374-.31-.038-.695-.085-1.21-.208l-.037-.014c-.955-.539-1.618-2.031-2.386-3.76-.46-1.035-.981-2.208-1.618-3.27-.376-.719-.74-1.408-1.1-2.014-.107-.18-.24-.4-.354-.559-.102.415-.245 1.012-.297 1.349-.08.488-.21 1.536-.246 1.857-.022.205.019 1.623.064 1.98.058.444.07 1.69.07 1.9 0 .237.13.763.478 1.172.505.59.5.932.446 1.286l-.01.08c-.028.208-.135.478-.252.76l-.018.045c-.07.171-.157.384-.172.484-.069.332-.084.648-.065.782.004.028.007.058.009.09l.006.064c.003.155.004.215.232.37.532.356 1.135.45 1.14.451.647.065 1.204-.047 1.316-.072l.252-.063.185.129c.017.01.082.026.138.028l.198.007.12.112c.04.017.087.04.151.078.045.019.34.086.635.128l.414.064.021.512c.11.172.6.686 1.235.949.628.266 1.726.301 2.382.322l.233.007c.06.001.116.002.164.005.043.002.092.002.151.002.701 0 2.06-.116 2.512-.292.73-.279 1.691-.46 2.707-.507.667-.034 1.008-.203 1.211-.305l.038-.018c.102-.048.2-.095.32-.116.15-.027.564-.13.747-.179.613-.385 1.177-.423 1.579-.125.275.21.482.327 1.542.336h.118c1.007 0 1.48-.157 1.566-.211.084-.056.247-.184.39-.299.119-.095.206-.164.275-.215.003-.02.007-.037.012-.055.02-.063.033-.105.04-.133-.022-.117-.033-.28.023-.448-.004.004-.004-.037-.002-.079l.013-.268c.01-.072-.003-.322-.02-.45-.018-.136-.013-.296.019-.57.01-.107-.016-.337-.03-.46l-.008-.084c-.006-.051-.01-.094-.01-.126 0-.019-.001-.039-.004-.059l-.005-.04c-.01-.094-.023-.222-.006-.384.001-.036-.028-.166-.06-.249l.059-.465v-.016c0-.027-.008-.08-.015-.109l-.026-.117v-.003l.039-.556c.02-.055.036-.296.019-.539l-.011-.196.122-.154c.02-.025.034-.044.044-.059.014-.072.047-.154.082-.241l.018-.046.039-.109.01-.046.022-.078c.037-.128.093-.321.207-.559.074-.158.063-.423.028-.62-.017-.114-.062-.242-.088-.298-.12-.085-.213-.197-.267-.32-.03-.03-.069-.07-.129-.125-.13-.116-.403-.414-.414-.426l-.144-.14.024-.923.209-.08c.015-.052.032-.092.05-.129l.013-.037c.008-.04.003-.127 0-.203l-.014-.209c-.006-.251-.029-.436-.04-.496-.041-.083-.087-.216-.127-.352l-.584.517c-.583.517-1.068 1.337-1.58 2.205l-.029.047c-.188.319-.283.708-.383 1.12-.162.669-.33 1.36-.931 1.752-.637.416-3.793 1.88-5.435 2.14.744.4 1.865 1.134 1.605 1.816l-.405 1.058.138-1.125c.04-.329-.482-.513-1.072-.697l-.137-.042c-.862-.265-1.935-.595-1.725-1.558l.026-.118.12.01c1.122.096 5.26-1.694 6.296-2.345.292-.183.384-.498.511-.934.117-.397.262-.892.623-1.4.486-.686 1.929-2.003 2.223-2.157l.715-.374c-.04-.139-.07-.27-.078-.338-.005-.04-.046-.186-.095-.345l-1.336 1.029c-.009.113-.04.304-.14.55l-.023.04c-.258.354-.597.372-.76.38-.022.002-.04.002-.055.005-.121.023-.182.02-.238.02-.06-.002-.092-.004-.172.025l-.295.107.036-.313c.034-.285.26-.5.551-.523l.04-.004.038.013c.043.017.102.024.176-.04.112-.096.168-.276.168-.345-.03-.058-.049-.147.01-.268.122-.254.79-.833 1.14-.857.218-.063.5.001.558.015l.272.069-.035-.11c-.025-.076-.039-.183-.055-.314l-.016-.1c-.008-.048-.016-.094-.026-.137l-.318-.114c-1.099-.395-1.795-.74-2.778-1.633l-.03-.03c-.07-.072-.162-.166-.263-.285l-.04.035c-.083.071-.239.205-.259.261l-.037.083c.026.135.169.442.277.673.23.494.49 1.053.52 1.52.475 1.532-.313 2.818-1.137 3.455-.228.177-.359.23-.452.217-.22.1-.673.266-1.302.071-.89-.262-1.538-1.202-2.001-1.992l-.143-.243-.084-.144-.074.052c-.098.059-.24.16-.384.263l-.258.181-.039.029c.132.25.27.486.396.7.23.39.411.7.462.937.247.848.175 1.69-.198 2.241-.257.38-.645.605-1.123.648l-1.127.104 1.029-.475c.892-.412.794-1.167.527-2.36-.037-.16-.195-.431-.379-.746-.098-.168-.205-.357-.313-.555-.162.099-.31.181-.433.234l-.16.08c.34.552.78 1.486.732 1.946 0 .675-.511 1.23-.746 1.333-.128.083-.398.164-.712.164-.257 0-.544-.054-.807-.208-.624-.329-1.066-.936-1.212-1.21-.256-.43-.259-.777-.183-1.163l.058-.295c-.261-.078-.52-.203-.775-.394l-.939-.705 1.115.363c.946.307 1.63-.047 2.575-.54.183-.095.375-.195.58-.295.988-.405 4.124-3.2 5.998-4.87 1.04-.926 1.42-1.262 1.593-1.38.072-.08.215-.191.47-.392.64-.5 1.816-1.422 2.414-2.203-.035-.17-.224-.464-.356-.63l.024.034.073.105.002.005zM9.249 39.106l-.003-.071-.007.008.01.063zm8.64-17.398c-.172-1.121-.307-1.845-.55-3.159-.438-.994-.133-4.053.218-7.1.09-.774.174-1.506.167-1.699-.03-.056-.025-.123-.019-.213.012-.172.036-.53-.016-.98.018-.335-.063-.558-.213-.62-.15-.061-.436.024-.786.442-1.43 1.485-.664 4.18-.608 4.369l.003.01-.36.14c-.063-.135-1.487-3.322.326-5.11.345-.363.735-.715 1.31-.753l.162-.003.172.015.052.015c.653.29.733.861.78 1.202.009.06.016.117.027.166.063.578.032.987.02 1.161l-.003.034c.047.126.018.447-.152 1.948-.224 1.986-.635 5.623-.288 6.646l.04.1.017.05c.227 1.243.225 2.044.117 3.053l-.032.28-.171 1.404-.214-1.398zM2.214 10.535c.044.165.155.58.175.66l.03.112c.076.293.13.509.131.514l.036.144-.134.367c-.006.026-.01.085-.01.166 0 .27-.128.445-.154.477-.04.053-.312.458-.411.614.004-.003-.001.058.003.125l.032.295-.22.147c.202.307.604.734 1.698 1.047.738.19 1.49.366 2.233.52.056.01.113.019.169.03-.095-.078-.222-.14-.392-.215-.227-.101-.483-.215-.74-.437-.694-.4-1.249-2.074-1.757-3.756-.054-.178-.108-.358-.156-.507l-.226-.558-.018-.048-.02-.054c-.68-1.87-1.067-3.16-1.181-3.954-.072.024-.136.036-.176.043l-.051.007c.018-.016-.029.055-.07.184-.017.077.047.476.224.927.045.12.152.458.347 1.082.16.517.33 1.062.391 1.23.053.141.141.447.233.784z"/>
</svg>
