<svg xmlns="http://www.w3.org/2000/svg" width="135" height="48" viewBox="0 0 135 48">
    <path fill-rule="evenodd" d="M121.657 25.199c2.076.093 4.111.423 6.042 1.238 2.193.926 3.987 2.32 5.156 4.424.547.984.879 2.039.958 3.174.06.834.004 1.644-.323 2.415-.376.886-1.085 1.386-2.027 1.447-.976.063-1.96.014-2.94.014v.046c-.788 0-1.576.004-2.363 0-2.412-.016-4.824-.025-7.236-.057-.649-.009-1.275-.164-1.744-.663-.831-.884-.514-2.323.614-2.818.554-.243 1.142-.26 1.734-.273 1.046-.025 2.092-.063 3.138-.1.809-.03 1.618-.058 2.427-.103.604-.034 1.212-.057 1.807-.153.589-.095 1.076-.379 1.167-1.047.068-.492-.18-.88-.497-1.213-.752-.791-1.703-1.254-2.731-1.574-1.575-.49-3.196-.578-4.826-.495-1.696.087-3.328.464-4.837 1.278-1.883 1.016-3.162 2.503-3.513 4.654-.304 1.867.14 3.53 1.51 4.904 1.16 1.164 2.588 1.857 4.122 2.363 1.142.377 2.312.644 3.51.765.87.088 1.743.166 2.617.198.859.032 1.722.04 2.58-.009 1.57-.088 3.127-.3 4.67-.613.404-.082.835-.115 1.245-.076.723.069 1.217.596 1.325 1.313.123.806-.217 1.509-1.055 1.864-.871.37-1.782.655-2.693.917-1.318.378-2.671.602-4.032.758-.81.092-1.628.12-2.444.167-.446.025-.894.049-1.34.04-1.862-.033-3.71-.197-5.535-.59-1.81-.39-3.553-.962-5.185-1.842-1.718-.927-3.198-2.129-4.265-3.786-.71-1.102-1.163-2.303-1.307-3.607-.063-.576-.112-1.159-.09-1.736.092-2.493.922-4.705 2.608-6.575 1.528-1.693 3.436-2.794 5.567-3.54 1.457-.51 2.958-.815 4.494-.982 1.23-.133 2.461-.183 3.692-.127zm-41.513 0c1.975.071 3.942.244 5.876.685.819.187 1.653.318 2.407.717.615.326 1.025.79 1.005 1.532-.022.815-.59 1.433-1.399 1.574-.672.117-1.328.005-1.988-.067-.501-.055-.999-.152-1.501-.18-1.49-.083-2.981-.211-4.47-.192-2.398.03-4.768.32-7.012 1.246-1.566.645-2.93 1.556-3.862 3.015-1.303 2.038-1.108 4.657.477 6.494 1.25 1.449 2.853 2.337 4.639 2.936.974.327 1.974.535 3.001.625 2.801.246 5.484-.17 8.012-1.425.87-.431 1.646-1 2.215-1.803.152-.214.271-.469.34-.722.136-.5-.185-.967-.807-1.157-.358-.11-.737-.17-1.112-.2-.545-.046-1.095-.043-1.643-.067-1.095-.049-2.19-.1-3.285-.153-.63-.03-1.262-.05-1.891-.104-.726-.062-1.47.001-2.17-.263-.77-.291-1.323-.855-1.22-1.913.071-.727.652-1.392 1.478-1.51.69-.097 1.395-.094 2.094-.115.55-.017 1.101-.003 1.652-.003 1.024 0 2.05.005 3.074-.002 2.175-.013 4.349-.034 6.523-.048.577-.004 1.142.075 1.677.3.909.38 1.387 1.105 1.547 2.037.33 1.927-.153 3.695-1.153 5.337-1.122 1.843-2.726 3.164-4.62 4.159-1.655.868-3.418 1.404-5.256 1.71-1.055.175-2.116.3-3.188.306-.515.003-1.03.051-1.543.036-2.666-.082-5.297-.388-7.836-1.258-1.826-.625-3.522-1.48-4.966-2.78-1.582-1.426-2.633-3.161-2.997-5.271-.113-.659-.19-1.332-.192-2-.005-2.111.633-4.023 1.919-5.711 1.145-1.504 2.61-2.62 4.276-3.485 1.913-.995 3.949-1.625 6.079-1.936.98-.143 1.968-.242 2.957-.302.952-.057 1.91-.077 2.863-.043zm-62.826-.003c2.547.094 5.023.524 7.297 1.745 2.355 1.263 4.071 3.084 4.815 5.7.339 1.19.397 2.402 0 3.597-.339 1.014-1.08 1.59-2.13 1.662-.968.066-1.943.014-2.915.014v.043c-.797 0-1.593.004-2.389 0-2.411-.016-4.822-.024-7.233-.058-.623-.008-1.222-.162-1.689-.625-.823-.818-.604-2.225.42-2.772.572-.306 1.188-.34 1.815-.356 1.071-.026 2.142-.062 3.213-.1.826-.03 1.653-.058 2.478-.103.587-.033 1.175-.07 1.757-.15.398-.055.763-.23.995-.586.321-.494.192-1.13-.299-1.648-.846-.894-1.915-1.396-3.08-1.688-.737-.186-1.5-.293-2.259-.364-.712-.066-1.436-.081-2.15-.045-2.183.111-4.24.64-6.017 1.978-1.365 1.028-2.196 2.379-2.44 4.084-.211 1.467.039 2.819.904 4.04.632.892 1.466 1.554 2.409 2.085 1.512.852 3.148 1.352 4.855 1.623.844.134 1.697.225 2.548.303.646.06 1.298.113 1.943.088 1.21-.047 2.423-.114 3.627-.245 1.008-.11 2.006-.323 3.009-.489.54-.089 1.079-.112 1.569.185.972.589 1 2.013.073 2.744-.55.433-1.21.608-1.855.814-1.348.429-2.726.736-4.122.949-.847.13-1.703.2-2.557.27-.68.054-1.363.092-2.045.092-2.194 0-4.364-.215-6.501-.734-2.054-.5-4.002-1.247-5.76-2.43-1.605-1.08-2.895-2.443-3.687-4.23-.394-.887-.63-1.814-.72-2.783-.145-1.588.03-3.132.566-4.635.527-1.477 1.368-2.756 2.492-3.844 1.376-1.33 3.005-2.262 4.797-2.924 1.33-.49 2.701-.809 4.101-1.002.657-.091 1.323-.133 1.986-.164.726-.035 1.454-.067 2.179-.04zm41.827 2.28c.038.24.047.485.048.728.002 5.404.008 10.807-.005 16.211-.002.84-.173 1.654-.727 2.336-.464.571-1.083.82-1.801.894-1.277.13-2.274-.38-3.182-1.233-1.332-1.253-2.715-2.452-4.076-3.676-1.317-1.184-2.627-2.376-3.95-3.554-1.278-1.137-2.557-2.274-3.863-3.38-.345-.292-.768-.523-1.192-.684-.872-.33-1.78.113-2.032 1.003-.204.723-.326 1.47-.458 2.21-.193 1.08-.365 2.163-.54 3.245-.198 1.207-.379 2.416-.59 3.62-.08.457-.166.927-.35 1.348-.322.738-.94 1.074-1.752 1.103-.783.029-1.394-.265-1.772-.936-.165-.294-.272-.662-.275-.998-.021-2.777-.012-5.555-.012-8.333 0-2.744-.01-5.488.006-8.232.006-.902.263-1.736.887-2.428.49-.543 1.115-.84 1.82-.956 1.073-.178 2.062.039 2.907.749 1.368 1.149 2.727 2.309 4.089 3.465 2.749 2.334 5.495 4.67 8.248 7 .444.376.921.71 1.513.828.705.142 1.303-.169 1.502-.855.138-.478.19-.982.268-1.477.134-.868.258-1.737.386-2.606.126-.853.245-1.707.376-2.56.148-.966.26-1.941.475-2.893.183-.806.66-1.45 1.526-1.65 1.184-.271 2.315.37 2.526 1.71zm43.605 4.804c-.05 1.014-.097 2.03-.158 3.043-.059.963-.13 1.924-.203 2.886-.08 1.07-.164 2.14-.255 3.209-.078.935-.156 1.87-.256 2.802-.07.662-.098 1.33-.33 1.972-.315.873-1.067 1.515-2.1 1.45-1.178.068-1.985-.722-2.234-1.851-.11-.496-.152-1.008-.208-1.514-.092-.824-.176-1.649-.252-2.474-.061-.669-.108-1.338-.159-2.007-.084-1.111-.173-2.222-.248-3.334-.035-.511-.04-1.025-.064-1.538-.026-.519-.052-1.039-.094-1.557-.037-.446.064-.568.501-.635 1.079-.166 2.155-.345 3.232-.52.778-.127 1.555-.26 2.334-.383.387-.06.513.06.494.45zm-3.385-7.096c.928-.011 1.787.188 2.494.836.607.558.945 1.259 1.034 2.068.043.388.01.785.009 1.178-.001.233-.13.347-.352.384-1.54.25-3.08.504-4.619.756-.422.069-.844.134-1.266.202-.409.066-.572-.065-.575-.474-.004-.47-.001-.941-.001-1.412l-.063-.002c-.019-1.121.305-2.105 1.2-2.838.618-.505 1.354-.688 2.139-.698zM70.19.114c1.072.028 2.144.058 3.215.103.925.038 1.851.084 2.775.152 1.358.102 2.715.222 4.071.343.897.08 1.794.16 2.689.266 1.108.132 2.214.284 3.32.44 1.047.147 2.095.3 3.139.47 1.052.173 2.106.346 3.15.563 2.012.418 4.024.842 6.025 1.31 2.812.66 5.589 1.45 8.341 2.325 2.872.911 5.712 1.915 8.5 3.055 1.799.735 3.579 1.517 5.345 2.326 1.517.695 3.015 1.432 4.498 2.197 2.442 1.259 4.833 2.611 7.157 4.078.805.508 1.606 1.023 2.41 1.535.048.031.093.068.126.138-.382-.12-.765-.238-1.145-.362-3.09-1.005-6.203-1.936-9.355-2.725-2.572-.643-5.149-1.272-7.736-1.848-1.931-.43-3.88-.78-5.827-1.142-1.543-.287-3.09-.555-4.642-.799-1.46-.23-2.924-.425-4.389-.62-1.349-.18-2.699-.35-4.05-.507-1.278-.147-2.557-.278-3.835-.407-.92-.092-1.841-.175-2.763-.252-1.09-.091-2.182-.173-3.274-.255-.739-.055-1.478-.105-2.218-.15-.891-.056-1.782-.105-2.674-.153-.681-.037-1.363-.072-2.045-.101-.851-.037-1.702-.073-2.554-.101-1.122-.038-2.244-.073-3.367-.102-.887-.022-1.774-.044-2.662-.05-3.165-.018-6.33-.034-9.496-.04-.878-.002-1.757.026-2.636.048-1.148.03-2.296.064-3.444.102-.851.028-1.703.062-2.554.101-1.01.046-2.02.097-3.03.152-.833.046-1.665.097-2.497.152-.949.063-1.897.129-2.845.203-1.215.096-2.43.195-3.644.305-1.004.091-2.007.192-3.009.303-1.252.14-2.503.292-3.753.445-1.092.133-2.184.264-3.273.416-1.206.168-2.409.352-3.61.542-1.343.214-2.685.434-4.024.667-1.125.197-2.251.389-3.367.631l-3.515.759c-1.757.381-3.512.773-5.255 1.209-2.85.71-5.671 1.54-8.497 2.346-1.292.368-2.565.806-3.846 1.211-.031.01-.063.016-.095.023L0 19.366c.917-.583 1.82-1.189 2.753-1.742 1.79-1.059 3.585-2.112 5.403-3.12 1.353-.75 2.727-1.47 4.129-2.124 2.216-1.034 4.451-2.03 6.7-2.992 2.625-1.124 5.318-2.076 8.032-2.968 3.129-1.028 6.293-1.94 9.502-2.687 2.265-.526 4.545-.989 6.827-1.44 1.463-.29 2.94-.524 4.414-.754 1.053-.165 2.113-.29 3.172-.418 1.317-.158 2.636-.308 3.955-.446.695-.072 1.393-.115 2.09-.165 1.167-.084 2.334-.169 3.501-.242.556-.034 1.114-.05 1.67-.06C64.27.17 66.393.134 68.515.105 69.073.098 69.632.1 70.19.115z"/>
</svg>
