<svg xmlns="http://www.w3.org/2000/svg" width="184" height="64" viewBox="0 0 184 64">
    <path fill-rule="evenodd" d="M42.67 38.458c1.055.303.982 1.061.933 1.662-.186 2.299-.363 4.586-1.1 6.824-.91 2.76-1.548 5.606-2.35 8.401-.584 2.033-1.439 3.946-2.938 5.505-.706.734-1.495 1.396-2.155 2.167-.602.703-1.27.94-2.399.606 2.326-2.61 5.153-4.669 5.977-8.167-.44.698-.863 1.408-1.323 2.093-1.628 2.423-3.752 4.388-6.128 6.04-.601.419-1.67.178-2.748.256.244-.383.322-.678.502-.762 3.91-1.844 6.362-5.146 9.003-8.372 2.021-2.469 2.071-5.558 3.496-8.177 1.106-2.03 1.509-4.31 1.237-6.656-.05-.43-.007-.87-.007-1.42zm-1.012 2.406c.465 4.001-1.809 7.076-3.576 10.41l.911.094c0 .201.072.425-.01.55-3.097 4.74-6.539 9.12-12.134 11.208-.773.288-1.49.182-2.074-.37 4.504-1.903 8.503-4.393 10.988-8.692l-.24-.289c-.269.247-.565.47-.803.743-2.345 2.694-4.93 5.094-8.274 6.535-1.033.445-2.117.774-3.183 1.142-.211.073-.465.152-.665.1-.415-.107-.807-.3-1.21-.457.351-.183.683-.427 1.054-.542 5.158-1.591 9.305-4.655 12.677-8.744 1.498-1.817 2.88-3.77 4.022-5.821.88-1.58 1.298-3.41 1.932-5.126.105-.283.264-.546.585-.74zm1.871 6.26l.428.082c-.033.464-.007.941-.108 1.39-.407 1.817-.67 3.694-1.327 5.42-1.085 2.846-1.84 5.871-3.877 8.286-.515.61-1.057 1.236-2.196.573 2.994-2.492 3.76-5.832 4.665-9.113.515-1.867 1.06-3.727 1.65-5.572.126-.396.503-.713.765-1.066zm.909 3.027l.505.08c0 .48.11.99-.017 1.434-.98 3.42-1.838 6.885-3.57 10.044-.432.79-.94 1.273-1.76.715.92-2.087 1.74-4.15 2.729-6.133.974-1.953.92-4.281 2.113-6.14zm1.651.415l.607.132c-.034.566.01 1.15-.117 1.694-.5 2.146-.96 4.308-1.628 6.404-.334 1.045-1.054 1.981-1.676 2.917-.156.235-.605.28-.92.41-.025-.316-.195-.734-.053-.936 1.994-2.829 2.423-6.16 3.17-9.395.1-.432.406-.819.617-1.226zm3.133-1.629l.273.158c-.036.426-.022.862-.115 1.275-.518 2.282-.974 4.585-1.632 6.828-.383 1.304-1.073 2.526-1.702 3.746-.123.238-.603.296-.919.438-.04-.352-.244-.805-.096-1.04 1.398-2.226 1.576-4.771 2.089-7.241.246-1.191.77-2.333 1.25-3.463.128-.3.56-.471.852-.701zm-9.437-11.356c1.261 1.182.94 2.579.653 3.823-1.497 6.485-5.379 11.42-10.69 15.258-2.045 1.477-4.369 2.622-6.68 3.669-1.083.49-2.436.406-3.672.54-.195.022-.415-.174-.652-.48 2.682-.74 5.438-1.128 7.61-3.021 2.077-1.81 4.458-3.315 6.344-5.293 1.902-1.994 3.77-4.098 4.869-6.739 1.04-2.498 1.966-5.005 2.218-7.757zM16.104 57.144c.04.614.07 1.04.104 1.557.305-.051.584-.146.856-.13.236.013.566.089.668.252.11.175.094.563-.036.712-.129.146-.527.223-.708.134-.923-.456-1.815-.975-2.717-1.472l.078-.387 1.755-.666zm36.131-12.401l.495.216c-.144.456-.32.905-.428 1.37-.848 3.69-1.67 7.387-2.537 11.074-.132.562-.4 1.11-.706 1.604-.106.17-.589.29-.766.193-.183-.1-.332-.524-.274-.752.632-2.488 1.297-4.97 1.976-7.446.46-1.675.926-3.349 1.453-5.003.145-.455.519-.84.787-1.256zm-14.112-6.646c.26.565.33 1.217.45 1.718-.389 3.063-1.362 5.799-3.219 8.09-1.721 2.124-3.554 4.215-5.63 5.985-2.074 1.768-4.484 3.16-6.81 4.616-.481.302-1.244.164-1.877.23.367-.411.673-.905 1.11-1.217 2.388-1.704 4.858-3.298 7.192-5.069.868-.658 1.416-1.718 2.16-2.552 1.128-1.262 2.383-2.42 3.43-3.743 1.34-1.695 1.748-3.785 2.035-5.86.083-.596-.287-1.241-.299-1.866-.005-.303.317-.842.53-.863.302-.028.8.253.928.53zm77.15 9.573c2.95.057 5.372 2.458 5.4 5.352.029 2.993-2.512 5.511-5.542 5.491-2.897-.02-5.455-2.614-5.433-5.51.021-2.943 2.581-5.391 5.576-5.333zm16.8.322v9.66c0 1.163-.84.597-1.51.854v-7.111l-.24-.062-3.01 5.185-3.19-5.488v7.203c-1.488.303-1.57.244-1.572-.997v-9.264c.873-.365 1.423-.227 1.88.635.851 1.609 1.822 3.155 2.888 4.976.893-1.562 1.632-2.953 2.467-4.284.486-.773.754-2.06 2.287-1.307zm11.858-.033c0 3.238.016 6.5-.034 9.763-.004.236-.492.465-.755.697-.232-.259-.662-.515-.665-.776-.022-1.99.041-3.982.072-5.973.001-.137-.043-.274-.115-.702l-3.233 5.519-3.03-5.134c-.078.556-.145.819-.146 1.082-.006 1.693-.015 3.387.015 5.08.01.601-.152.899-.821.912-.678.014-.726-.356-.724-.86.007-3.195.003-6.39.003-9.613.818-.334 1.321-.212 1.758.606.878 1.642 1.879 3.22 2.927 4.99.75-1.255 1.447-2.417 2.139-3.583.266-.45.557-.89.766-1.364.362-.818.927-1.011 1.843-.644zm-41.272-.183c.654.002.72.327.706.863-.034 1.268-.011 2.538-.011 3.874h3.036v-4.637l1.596-.083v4.017c0 1.883-.008 3.765.007 5.647.004.535 0 .951-.742.97-.807.02-.826-.426-.813-1.012.023-1.078.007-2.156.007-3.286h-3.092c0 1.103-.005 2.177.002 3.251.004.55.05 1.069-.784 1.047-.74-.02-.743-.459-.742-.986.008-2.936.026-5.873-.01-8.809-.009-.658.207-.858.84-.856zm49.283.092c.218 1.361.197 1.448-.937 1.453h-3.196v2.953c.994 0 2.005.058 3.006-.015 1.092-.08 1.49.3 1.126 1.495h-4.174v3.16h4.104c.325 1.348.236 1.483-.894 1.487-1.33.005-2.66-.018-3.989.013-.566.012-.843-.14-.84-.75.014-3.231.006-6.462.006-9.796h5.788zm-65.366-.085c.592-.009.804.2.788.794-.017.602-.27.794-.842.757-.527-.035-1.058-.008-1.789-.008v8.984c-1.001.253-1.45.064-1.424-.98.057-2.258-.036-4.519.044-6.774.036-.993-.224-1.381-1.25-1.255-.377.046-.858-.031-1.145-.245-.17-.127-.154-.67-.036-.949.076-.178.489-.298.753-.302 1.633-.027 3.268.002 4.9-.022zm-7.476.016c.746.014.794.204.467 1.515h-4.003v2.958c1.14 0 2.232.03 3.322-.012.645-.024.876.212.892.841.017.69-.388.695-.886.69-1.095-.015-2.191-.005-3.357-.005v3.167h4.077c.245 1.408.21 1.449-1.082 1.447-1.475-.002-2.949 0-4.502 0V47.789c1.742 0 3.407-.022 5.072.01zm15.628.079v9.076h3.607v1.382H93.25V47.878h1.478zM55.743 37.46l.434.077c.009.73.12 1.476.006 2.187-.321 2.025-.618 4.066-1.149 6.042-.42 1.561-1.147 3.044-1.78 4.545-.644 1.533-1.009 3.061-.293 4.675.086.195.095.453.056.667-.062.34-.196.667-.299.999l-.78-.494c-.232.873-.36 1.833-1.682 2.06.35-1.902.694-3.68.999-5.465.394-2.302 1.356-4.377 2.393-6.452.394-.79.268-1.827.433-2.742.318-1.757.652-3.512 1.036-5.256.068-.311.41-.563.626-.843zM20.451 53.939c-.062.338-.099.684-.193 1.014-.215.757-.466 1.505-.687 2.26-.086.293-.087.62-.224.882-.04.079-.554.058-.598-.035-.125-.263-.133-.586-.159-.888-.014-.17.027-.344.069-.777-.472.276-.707.51-.957.53-.21.015-.527-.172-.632-.36-.093-.167-.049-.557.088-.678.758-.668 1.54-1.315 2.366-1.896.213-.151.613-.042.927-.052zm-5.615 1.574c.142.274.173.743.024 1.004-.707 1.238-1.637 1.21-2.746-.17.677-.355 1.253-.712 1.874-.957.244-.096.769-.03.848.123zm100.348-6.338c-2.12.012-3.9 1.771-3.986 3.8-.079 1.85 1.838 4.194 4.008 3.994 2.137 0 3.992-1.826 3.98-3.917-.011-2.157-1.8-3.889-4.002-3.877zM35.726 39.12l.467.932c-.346 3.359-1.414 6.002-4.024 7.828-1.004.702-1.576 1.735-2.315 2.656-1.059 1.32-2.456 2.402-3.817 3.447-1.126.865-2.4 1.547-3.632 2.269-.25.146-.61.108-.92.155-.02-.354-.151-.753-.028-1.048.131-.313.48-.558.775-.777 1.783-1.317 3.779-2.423 5.323-3.971 2.293-2.3 4.343-4.853 6.336-7.42.626-.807.704-2.019 1.098-3.02.153-.386.486-.703.737-1.051zM13.604 53.093c.115.366.275.922.093 1.136-.52.61-1.127 1.314-1.84 1.53-.447.137-1.146-.54-1.732-.851l.087-.41c.892-.504 1.774-1.028 2.687-1.492.184-.093.674-.012.705.087zm40.462-2.602c.211.553.348.779.38 1.018.128.941.247 1.884.312 2.83.017.245-.176.504-.272.756-.216-.152-.524-.256-.633-.463-.678-1.287-.553-2.563.213-4.14zM23.26 44.878l.435.285c.056 1.062-.406 1.886-1.243 2.618-.749.656-1.4 1.42-2.094 2.137l.292.295c.369-.211.717-.478 1.111-.616.322-.112.698-.07 1.05-.097-.085.372-.083.799-.278 1.101-.188.291-.581.451-.88.673-1.678 1.248-3.354 2.497-5.013 3.733-1.03-.602-1.04-1.37-.287-1.95 1.523-1.173 2.211-2.909 3.315-4.359 1.052-1.382 2.383-2.555 3.592-3.82zm-11.088 5.539c.333.295.636.435.674.627.057.287.04.76-.141.893-.926.678-1.904 1.29-2.892 1.879-.165.098-.537.046-.692-.082-.165-.135-.318-.596-.25-.653 1.064-.901 2.165-1.76 3.3-2.664zM56.91 41.46c.158.386.483.789.445 1.155-.169 1.636-.51 3.257-.655 4.895-.139 1.567-.068 3.153-.183 4.723-.033.436-.401.847-.616 1.27-.255-.398-.639-.768-.735-1.2-.128-.574-.032-1.196-.032-1.798l-.188-.03c.185-1.135.38-2.268.55-3.406.233-1.552.409-3.114.692-4.657.065-.349.472-.636.722-.952zm-22.255-6.442l.474.055c.014.354.103.724.03 1.058l-.296 1.345c-.201.896-.417 1.788-.7 2.658-.41 1.263-.745 2.67-1.553 3.66-1.901 2.33-4.02 4.492-6.143 6.632-.943.95-2.11 1.68-3.26 2.577-1.084-1.006-.176-1.535.365-2.055 1.903-1.825 3.825-3.63 5.77-5.41 2.114-1.935 3.234-4.316 3.74-7.114.216-1.19 1.03-2.274 1.573-3.406zm-12.25 8.114l.407.227c-.147.395-.174.939-.458 1.16-2.376 1.86-3.61 4.593-5.455 6.854-.214.262-.39.593-.666.758-.324.192-.737.237-1.112.346-.017-.454-.238-1.07-.022-1.337 2.014-2.483 4.09-4.916 6.184-7.333.27-.313.743-.455 1.123-.675zm-11.175 6.72c-.348.464-.437.625-.564.745-.606.568-1.163 1.222-1.861 1.644-.345.21-1.2.167-1.4-.088-.389-.496-.172-.982.583-1.228.697-.226 1.292-.747 1.97-1.053.276-.124.655-.02 1.272-.02zm46.112-18.274c2.431.733 3.428 2.47 3.632 4.844.067.77.435 1.51.57 2.28.281 1.613.555 3.233.706 4.862.039.42-.39.883-.836 1.327-.245-3.794-1.751-7.165-2.707-10.694l-.513.123c.144.616.387 1.227.413 1.847.06 1.448-.252 2.96.07 4.336.71 3.03-.039 5.986-.124 8.97-.025.865-.137 1.874-1.486 2.508.049-1.08.045-1.893.13-2.696.226-2.124.524-4.24.716-6.367.051-.57-.186-1.165-.273-1.751-.167-1.123-.342-2.245-.477-3.372-.146-1.222-.258-2.448-.371-3.674-.083-.903-.48-1.88.55-2.543zm42.383 16.385c.247.158.475.797.348.995-.427.666-1.015 1.229-1.665 1.972-.124-.943-.26-1.444-.232-1.935.021-.361.161-.855.423-1.025.276-.18.85-.183 1.126-.007zm-89.661-.45c.063-.041.504.493.77.76l-2.716 2.21-.475-.15c-.055-.32-.266-.819-.137-.93.801-.692 1.667-1.316 2.558-1.89zm7.564-7.977c.216.1.46.412.465.638.01.514-.13 1.03-.19 1.546-.045.378-.063.76-.118 1.468.653-.456.96-.742 1.322-.896.235-.1.7-.118.803.019.167.223.28.719.144.897-1.767 2.33-3.582 4.623-5.39 6.921-.035.044-.141.033-.24.052-.705-.489-.536-.97-.07-1.573.731-.948 1.387-1.956 2.048-2.956.119-.18.109-.445.158-.67l-.297-.157c-.666.949-1.336 1.895-1.998 2.847-.472.68-.982.921-1.717.095.922-1.315 1.924-2.581 2.738-3.956.574-.97.89-2.09 1.327-3.141.115-.276.204-.58.39-.804.146-.176.49-.392.625-.33zM8.942 45.8c.217.07.341.42.568.73-.251.316-.414.598-.647.802-.815.714-1.623 1.442-2.502 2.071-.258.185-.828.206-1.104.047-.565-.327-.279-.71.111-1.062.898-.81 1.746-1.677 2.663-2.465.202-.172.642-.21.911-.123zm50.61-6.056c.215.38.57.742.622 1.143.218 1.67.497 3.354.45 5.025-.03 1.066-.594 2.117-.919 3.175l-.361-.15v-9.027l.207-.166zM47.517 24.758l.467.038c.183.551.401 1.094.542 1.656.309 1.23.655 2.456.84 3.706.186 1.248.164 2.525.286 3.784.154 1.57.373 3.133.545 4.701.27 2.464-.594 4.723-1.32 7.006-.202.638-.292 1.328-.592 1.915-.282.553-.772 1.002-1.171 1.497l-.524-.21c.131-.711.14-1.474.418-2.124.922-2.157 1.654-4.361 1.677-6.715.012-1.185-.267-2.37-.364-3.56-.158-1.942-.204-3.896-.431-5.83-.174-1.475-.614-2.919-.81-4.393-.063-.463.28-.979.437-1.47zm-14.783 5.744c1.201.644 1.785 2.364 1.26 3.856-.87 2.468-1.75 4.934-2.674 7.383-.221.587-.559 1.17-.976 1.64-1.428 1.607-2.891 3.186-4.401 4.718-.279.282-.837.295-1.266.433.081-.48.003-1.088.272-1.413 1.027-1.237 2.167-2.382 3.264-3.562l-.125-.19-1.023.53c-.341.176-.685.346-1.035.502-.193.087-.582.085-.671-.032-.114-.15-.107-.524.01-.686.234-.322.531-.683.884-.822 3.208-1.266 4.489-4.007 5.503-6.957.219-.634.388-1.284.576-1.928.247-.845.159-1.69-.72-2.011-.906-.333-1.838-.09-2.326.864-.663 1.294-1.202 2.653-1.898 3.93-.48.878-1.134 1.664-1.71 2.491l-.584-.126c-.053-.418-.29-.933-.128-1.238 1.147-2.149 2.308-4.297 3.604-6.36.816-1.3 2.888-1.707 4.164-1.022zm10.341-8.96c.261.247.7.461.754.747.298 1.579.465 3.181.754 4.761.15.819.46 1.608.697 2.41l.426-.169c-.215-1.136-.48-2.266-.613-3.411-.04-.347.292-.736.454-1.106.22.314.593.608.638.945.414 3.068 1.452 6.045 1.293 9.203-.044.875.295 1.77.463 2.655.063.33.174.655.202.988.19 2.304-1.167 7.717-2.481 9.848-.92-.477-.618-1.217-.456-1.923.52-2.277 1.128-4.54 1.513-6.84.147-.875-.249-1.83-.346-2.754-.113-1.074-.161-2.154-.252-3.23-.053-.637-.134-1.271-.203-1.907l-.369.026c0 1.527-.317 3.138.066 4.564.807 3.006.762 5.837-.639 8.625-.088.176-.248.316-.595.744-.044-.607-.155-.932-.072-1.198.758-2.434.73-4.826.044-7.301-.328-1.185-.001-2.532-.146-3.786-.217-1.882-.613-3.744-.885-5.62-.258-1.783-.476-3.572-.65-5.364-.029-.287.26-.604.403-.907zM7.618 43.877c.282.028.541.29 1.001.553L4.49 47.95c-.246-.299-.287-.326-.291-.357-.098-.859 2.57-3.802 3.419-3.716zm8.11-5.602c.07.499.23 1.004.194 1.495-.213 2.98-2.175 5.042-3.847 7.253l-.406-.032c-.008-.468-.167-1 .005-1.389.388-.882.97-1.678 1.414-2.539.529-1.022 1.002-2.072 1.486-3.116.077-.166.037-.403.143-.537.313-.397.671-.759 1.011-1.135zm26.828-24.373c1.422 1.167 2.797 2.401 4.09 3.708.84.85 1.472 1.899 2.273 2.791 1.002 1.116 1.38 2.415 1.562 3.864.202 1.622.65 3.213.89 4.832.329 2.222.543 4.461.844 6.688.214 1.587.538 3.162.721 4.752.088.759-.037 1.541-.066 2.312l-.43.015-.763-.641c-.734 1.525-.373 3.453-1.867 4.545l-.433-.138c.239-.913.515-1.818.71-2.74.36-1.708 1.172-3.507.904-5.124-.56-3.391-.04-6.914-1.37-10.215-.421-1.049-.54-2.292-.493-3.435.071-1.743-.841-2.97-1.784-4.237-.421-.565-.766-1.2-1.253-1.701-1.043-1.073-2.146-2.089-3.245-3.105-.387-.358-.9-.598-1.234-.992-.247-.29-.299-.744-.437-1.125.47-.03 1.118-.271 1.381-.054zM8.725 38.674c.23.159.328.507.508.826-.43.868-.686 1.778-1.246 2.437-1.138 1.341-2.414 2.573-3.696 3.784-.227.214-.76.11-1.15.153.104-.368.098-.837.331-1.084.824-.875 1.773-1.634 2.59-2.514.5-.538.868-1.204 1.251-1.838.268-.443.42-.958.71-1.384.14-.206.597-.451.702-.38zm5.074-1.276l.537.401c-1.007 2.223-2 4.452-3.04 6.66-.113.239-.49.355-.746.527-.14-.317-.315-.626-.405-.957-.042-.156.05-.37.131-.532.88-1.737 1.751-3.477 2.67-5.193.189-.352.564-.606.853-.906zm73.087-3.397c2.915-.033 5.483 2.578 5.47 5.474-.137 3.006-2.387 5.346-5.534 5.417-2.963.068-5.496-2.56-5.438-5.482.063-3.13 2.555-5.374 5.502-5.409zm13.66.188c.722-.017.784.336.776.914-.027 1.993.036 3.988-.02 5.98-.06 2.123-1.28 3.447-3.332 3.76-1.372.209-3.103-.894-3.744-2.396-.087-.204-.18-.428-.18-.643-.013-2.477-.008-4.954-.008-7.477 1.13-.313 1.61-.119 1.552 1.057-.093 1.914-.037 3.836-.023 5.754.009 1.23.928 2.206 2.062 2.233 1.138.026 2.1-.948 2.111-2.196.018-2.03.025-4.063-.012-6.093-.011-.624.158-.878.819-.893zm67.587 1.265c-.085 1.803-.024 3.613-.022 5.42.003 2.176-1.588 3.918-3.635 3.978-2.039.059-3.748-1.74-3.758-3.973-.009-1.807.06-3.617-.023-5.42-.048-1.067.268-1.483 1.527-1.146v3.274c0 1.13-.017 2.26 0 3.388.02 1.408.911 2.37 2.176 2.384 1.227.012 2.217-.994 2.234-2.36.028-2.215.008-4.431.008-6.693 1.225-.332 1.544.075 1.493 1.148zm-18.98-1.253c.205.226.5.419.6.684 1.087 2.89 2.141 5.794 3.213 8.691.113.304.277.59.42.889-1.27.438-1.658.248-2.004-.906-.139-.462-.358-.904-.464-1.372-.204-.901-.692-1.148-1.647-1.19-1.23-.056-1.81.358-2.006 1.502-.055.326-.232.63-.328.951-.275.93-.744 1.552-2.028 1.13.575-1.614 1.118-3.183 1.694-4.74.619-1.675 1.253-3.344 1.92-4.999.103-.256.415-.429.63-.64zm21.168-.103c1.39.136 2.823.003 4.039.451 2.348.866 2.824 3.97 1.053 5.809-.287.297-.616.554-.998.894l2.25 3.374c-1.154.18-2.027.14-2.48-1.056-.207-.546-.742-.969-.963-1.513-.315-.776-.807-.728-1.516-.528 0 .693-.066 1.37.014 2.03.14 1.15-.437 1.261-1.4 1.028V34.098zm-32.021.85c1.146 2.092 2.39 4.132 3.595 6.193l.26-.022v-6.765c1.38-.24 1.488-.25 1.496.775v9.383c-.918.357-1.455.116-1.905-.698-1.094-1.981-2.27-3.917-3.605-5.851v6.629l-1.53.112V34.288c.752-.193 1.267-.11 1.689.66zm-11.893-.757c.236.256.578.474.691.775 1.024 2.713 2.007 5.44 3.003 8.164.163.446.33.89.524 1.41-1.097.367-1.689.086-1.936-.855-.028-.106-.097-.201-.132-.307-.83-2.495-.83-2.495-3.545-2.266-.3.822-.687 1.635-.887 2.49-.273 1.168-.983 1.227-1.989.992 1.209-3.258 2.385-6.456 3.595-9.64.113-.297.446-.51.676-.763zm-21.989.007c.566.049 1.14-.02 1.708.013 1.692.098 3.151 1.06 3.433 2.452.311 1.535.129 3.008-1.312 4.031-.212.15-.41.32-.633.493l2.258 3.356c-1.213.374-1.95.02-2.449-.956-.254-.497-.526-1.012-.907-1.41-.379-.395-.904-.652-1.364-.97l-.318.264v3.085c-1.04.278-1.494.134-1.464-.996.075-2.782.059-5.567.004-8.35-.016-.829.262-1.08 1.044-1.012zm-25.613.794c1.288 1.09 1.771 2.429 1.326 3.659-.68 1.877-1.836 2.743-3.686 2.76-.264.002-.528 0-.93 0v3.181l-1.504.09V34.194c1.649.167 3.347-.429 4.794.797zm38.447-.81v9.012c1.043 0 1.976.024 2.906-.009.601-.02.92.135.929.806.01.69-.404.689-.894.686-1.437-.008-2.874-.003-4.408-.003V34.27l1.467-.087zm66.25.05c.151.004.43.504.395.736-.042.272-.345.698-.564.717-.906.077-1.824.058-2.733.011-.682-.035-.986.174-.928.89.05.633.01 1.272.01 2.034h4.163v1.593h-4.168c0 .864-.056 1.643.035 2.404.027.22.47.54.736.555 1.093.063 2.191.026 3.396.026.038.485.072.91.11 1.414h-5.625V34.198c1.716 0 3.445-.02 5.172.034zM153.85 34.2c1.777.014 3.555.005 5.459.005v1.467h-2.23v8.926h-1.622v-8.884c-.597 0-1.109-.018-1.619.004-.565.025-.812-.175-.828-.776-.017-.65.308-.746.84-.742zM6.846 37.175c.78.56.591 2.732-.565 4.065-.908 1.048-2.208 1.77-3.37 2.586-.156.11-.52-.073-.788-.12l-.09-.406c1.024-.867 2.004-1.795 3.085-2.586 1.2-.879 1.151-2.347 1.728-3.539zm80.074-1.674c-2.134-.04-3.97 1.73-4.03 3.884-.056 2.074 1.799 3.994 3.906 4.043 2.035.047 3.998-1.868 4.018-3.92.021-2.117-1.777-3.966-3.894-4.007zm-55.69-2.686c.121.362.44.802.332 1.074-.804 2.006-1.588 4.032-2.588 5.944-.83 1.589-2.693 1.95-4.141 2.777-.207.118-.721-.295-1.31-.56.65-.617.974-1.078 1.42-1.32 2.086-1.131 3.182-2.999 4.052-5.075.342-.818.753-1.62 1.238-2.362.171-.262.656-.324.998-.478zm-19.082 3.73c.13.232.417.503.37.69-.494 1.925-1.698 3.468-2.641 5.154l-.468-.153c0-.346-.11-.74.018-1.03.613-1.393 1.27-2.769 1.964-4.124.124-.243.498-.362.757-.537zM6.12 36c.113.034.256.308.223.43-.62 2.28-1.513 4.384-3.785 5.563-.133.069-.256.157-.44.27-.136-.094-.398-.193-.398-.293-.002-.346-.028-.78.162-1.022.573-.728 1.295-1.342 1.86-2.075.47-.608.795-1.323 1.193-1.986.173-.287.33-.602.568-.827.123-.116.429-.117.617-.06zm25.596-8.353c.456-.005.916.324 1.374.499l.02.498c-.884.277-1.794.495-2.646.849-.74.308-1.565.63-2.094 1.187-1.977 2.078-2.955 4.751-4.149 7.287-.135.286-.148.68-.085.998.241 1.222-.508 1.855-1.576 2.671-.15-.517-.344-.826-.304-1.101.607-4.099 2.522-7.635 4.961-10.907 1.079-1.446 2.731-1.963 4.499-1.981zm73.41 8.099c-.077-.011-.306.397-.312.615-.032 1.12-.015 2.24-.015 3.52.583 0 1.092.137 1.46-.03.639-.29 1.417-.643 1.723-1.195.444-.8.4-1.879-.518-2.399-.665-.376-1.545-.393-2.339-.511zm-29.58.007v4.058c1.242.196 2.25.108 2.92-1.05.46-.795.363-1.486-.128-2.19-.698-1-1.705-.89-2.791-.818zm96.838-.022c-.247.024-.64.395-.655.626-.068 1.11-.03 2.226-.03 3.426 1.237.225 2.226.175 2.938-.863.53-.772.525-1.488.012-2.268-.553-.84-1.377-1.007-2.265-.92zM34.291 22.884c.223.102.277.568.41.865-.402.158-.879.537-1.191.433-.95-.318-1.743-.287-2.695.636.88.124 1.562.18 2.22.332.272.063.495.335.74.512-.215.237-.389.549-.655.688-.241.127-.594.127-.88.078-2.208-.376-3.982.414-5.252 2.136-2.265 3.07-4.113 6.375-5.304 10.018-.153.466-.533.859-.808 1.285l-.58-.064c-.02-.604-.238-1.289-.027-1.799.966-2.33 2.109-4.59 3.08-6.919 1.068-2.563 2.84-4.46 5.186-5.904.402-.247.713-.663 1.013-1.043 1.189-1.5 3.04-2.028 4.743-1.254zM4.343 34.376c.203.047.452.382.478.613.12 1.055-2.355 4.493-3.352 4.725l-.19.044c-.102-.068-.374-.166-.377-.27-.008-.343-.027-.764.154-1.02.555-.788 1.233-1.49 1.797-2.271.324-.45.479-1.019.79-1.481.13-.195.498-.387.7-.34zM126.3 37.367l-.646 2.118h1.525l-.88-2.118zm22.838-.13l-.735 2.236h1.455l-.72-2.236zM41.782 8.86c.426.454.774.979 1.149 1.48.544.728 1.001 1.543 1.643 2.173 3.036 2.977 6.294 5.74 7.81 9.927.733 2.025 1.966 3.871 2.698 5.896.512 1.414.594 2.989.794 4.501.1.764.07 1.55.027 2.323-.013.235-.269.458-.61.679-.564-3.66-.96-7.31-2.727-10.585l-.42.103c.323 1.11.547 2.26.988 3.32 1.207 2.906 1.125 5.95 1.1 8.988-.004.367-.38.732-.584 1.098l-.358-.04c-.082-.438-.196-.872-.241-1.313-.26-2.536-.487-5.075-.766-7.609-.056-.507-.228-1.024-.455-1.485-.67-1.364-.703-2.806-.757-4.282-.065-1.782-.888-3.364-2.048-4.662-2.11-2.36-4.416-4.548-6.514-6.918-.736-.83-1.116-1.976-1.617-2.999-.068-.14.052-.501.188-.576.189-.104.588-.137.7-.019zM60.787 31.88c1.472 1.844 1.95 3.785 1.922 5.862-.002.167-.21.33-.323.496-.161-.121-.414-.212-.47-.37-.268-.77-.486-1.558-.719-2.34-.26-.875-.567-1.74-.743-2.63-.06-.307.212-.677.333-1.018zm-25.625-11.52c.738.24 1.284.708.985 1.46-.266.668-.889.576-1.545.268-1.878-.881-3.56-.604-5.023.95-.67.71-1.444 1.335-2.225 1.93-3.354 2.555-5.257 6.082-6.823 9.85-.3.725-.652 1.438-1.068 2.102-.167.265-.593.553-.86.519-.228-.029-.397-.505-.582-.769.24-.722.406-1.331.643-1.912 1.488-3.648 3.623-6.914 6.226-9.856.852-.962 2.067-1.613 3.128-2.39.813-.597 1.623-1.204 2.473-1.746 1.474-.941 3.05-.933 4.67-.406zM2.516 32.69c.64.351.86.792.565 1.467-.7 1.607-2.01 2.673-3.081 2.484v-1.13c.166-.04.403-.026.485-.13.682-.87 1.335-1.76 2.031-2.69zm5.573 1.489l.484 2.458c-1.182-.58-1.308-1.186-.484-2.458zm26.848-16.617c.306-.006.894.555.88.832-.034.674-.61.872-1.263.735-1.689-.357-3.264-.037-4.65.94-1.325.934-2.514 2.063-3.86 2.967-3.477 2.338-5.409 5.78-7.087 9.427-.408.886-.813 1.776-1.292 2.624-.258.457-.67.829-1.013 1.239l-.43-.18c0-.386-.12-.82.018-1.151 1.677-4.057 3.174-8.264 6.752-11.15 2.6-2.096 5.291-4.112 8.128-5.87.984-.608 2.527-.39 3.817-.413zm6.252 4.26c.332.676.919 1.326.922 1.978.01 2.433.713 4.723 1.159 7.072.316 1.662.416 3.419-.512 5.101-.874-.384-1.346-.951-1.252-1.831.325-3.02-.436-5.712-2.322-8.116-.457-.583-.818-1.263-1.099-1.949-.132-.323.03-.765.06-1.153.43.113 1.071.091 1.248.365.442.685.674 1.504 1.063 2.445.595-1.328-1.092-2.737.733-3.912zm-3.98 3.088c2.425 1.883 4.074 5.626 3.135 8.528-.157.485-.053 1.048-.162 1.555-.057.268-.313.495-.479.74-.223-.221-.515-.41-.647-.675-.104-.21-.065-.528 0-.776.752-2.89-.047-5.364-1.98-7.573-.48-.549-.897-1.212.132-1.799zm-1.797 1.794c3.36 2.735 3.561 4.418 2.696 8.178-.065.281-.66.443-1.01.66-.145-.362-.49-.781-.404-1.076.468-1.599.598-3.188-.07-4.732-.27-.622-.794-1.147-1.254-1.672-.437-.499-.617-.923.042-1.358zm-.748-11.42c.636.051 1.25.46 1.853.747.182.086.294.314.563.617-.366.17-.725.472-.88.39-2.82-1.475-5.268-.315-7.484 1.234-2.47 1.726-4.821 3.645-7.063 5.657-2.553 2.292-3.83 5.424-5.13 8.504-.364.86-.704 1.736-1.148 2.555-.123.228-.58.28-.884.413-.084-.3-.335-.692-.227-.888 1.96-3.541 2.845-7.642 5.564-10.769 1.073-1.234 2.415-2.25 3.69-3.3 1.223-1.006 2.568-1.866 3.767-2.895 2.142-1.838 4.635-2.484 7.379-2.264zm.648-4.44c.876.25 2.113.555 3.303.99.219.08.244.682.358 1.043-.334.095-.75.368-.989.26-3.389-1.551-6.629-.689-9.71.759-1.633.766-3.024 2.045-4.505 3.12-.73.53-1.386 1.164-2.128 1.678-4.804 3.322-7.164 8.27-9.159 13.462-.294.765-.47 1.592-.87 2.296-.212.373-.788.544-1.2.806-.006-.426-.141-.902.003-1.27.943-2.395 1.95-4.766 2.928-7.148 1.348-3.281 3.472-5.928 6.362-8.038 2.376-1.735 4.603-3.67 6.947-5.452 2.425-1.845 5.355-2.104 8.66-2.507zM8.865 29.213c.079.222.278.486.217.66-.581 1.652-1.208 3.29-1.82 4.931l-.546-.028c-.12-.299-.416-.663-.332-.885.55-1.45 1.165-2.878 1.807-4.291.087-.19.443-.26.674-.387zm26.56-15.957c.354.113.585.599.874.912-.364.102-.737.319-1.089.288-2.63-.229-5.041.34-7.201 1.85-1.851 1.293-3.68 2.619-5.515 3.935-2.775 1.99-4.68 4.638-5.988 7.748-.77 1.829-1.567 3.647-2.394 5.45-.191.419-.553.76-.837 1.137l-.351-.04c-.071-.342-.295-.74-.19-1.015 1.482-3.889 2.876-7.867 5.625-11.074 1.344-1.567 3.196-2.72 4.868-3.995 1.883-1.436 3.712-2.994 5.77-4.138 1.93-1.073 4.123-1.796 6.428-1.058zm27.339 18.016c.27.834.455 1.695.665 2.548l-.562.15c-.357-.68-.742-1.346-1.053-2.045-.08-.177.01-.608.129-.655.247-.098.791-.088.82.002zM37.556 9.387c.076.008.168.008.22.05.407.324 1.197.776 1.138.967-.26.84-.9.332-1.38.141-2.065-.82-4.12-.29-6.156.065-3.584.626-6.272 2.785-8.812 5.191-.903.855-1.825 1.734-2.876 2.384-3.437 2.124-5.48 5.328-7.124 8.83-.937 1.996-1.677 4.083-2.52 6.123-.12.29-.315.551-.476.826l-.4-.112c.087-.519.078-1.078.276-1.551 1.196-2.852 2.33-5.737 3.711-8.5.723-1.447 1.915-2.661 2.877-3.993.718-.994 1.414-2.005 2.106-3.016.317-.464.554-.99.923-1.405.175-.199.572-.205.869-.299-.018.294-.026.59-.06.882-.016.125-.088.244-.135.365l.235.25c.51-.419.995-.87 1.532-1.25 2.328-1.654 4.548-3.505 7.04-4.868 2.767-1.512 5.924-1.377 9.012-1.08zm-2.92 19.854c.263.08.583.09.778.25.99.81 1.294 2.93.418 4.201-.204-.49-.356-.797-.461-1.12-.265-.812-.53-1.625-.747-2.45-.072-.274.004-.586.012-.881zm-33.253 2.29c.076.414.324.902.183 1.223-.156.357-.65.59-1.033.816-.116.07-.352-.058-.533-.095v-1.583c.136.023.29.098.403.06.335-.117.654-.278.98-.422zm5.768-3.495c.042.388.218.822.103 1.156-.506 1.459-1.096 2.89-1.655 4.33l-.614-.013c-.054-.51-.264-1.061-.133-1.517.328-1.138.759-2.256 1.263-3.328.142-.303.68-.424 1.036-.628zM26.967.41l.124.203c-.708.24-1.5.352-2.105.746-1.374.895-2.859 1.747-3.937 2.937-4.62 5.1-8.125 10.986-11.789 16.763-1.894 2.986-3.317 6.166-4.612 9.423-.083.21-.13.466-.28.611-.19.183-.469.273-.71.404-.11-.211-.344-.444-.31-.629.126-.685.29-1.373.53-2.027 1.326-3.607 3.435-6.792 5.513-9.996 2.348-3.62 4.535-7.35 7.032-10.864 1.518-2.136 3.339-4.125 5.32-5.845 1.045-.909 2.72-1.117 4.123-1.604.34-.118.732-.085 1.1-.122zm103.492 21.473c.366.967-.505.85-1.014 1.08-.325-.405-.517-.878-.797-.935-.378-.078-.977.037-1.196.302-.21.254-.223.92-.025 1.196.283.394.804.676 1.28.868 1.463.589 2.467 1.543 2.853 3.098.298 1.199-1.014 3.252-2.34 3.608-1.671.449-3.134-.162-3.966-1.654-.676-1.214-.587-1.407.976-1.858.079.31.065.697.252.906.4.445.846.959 1.38 1.147.704.248 1.407-.014 1.851-.721.388-.616.673-1.283.055-1.844-.644-.584-1.391-1.074-2.143-1.522-.962-.574-1.88-1.099-1.93-2.413-.042-1.15.386-1.945 1.424-2.458 1.221-.603 2.866-.053 3.34 1.2zM0 29.63l1.11.284c-.216.563-.074 1.425-1.11 1.299V29.63zm95.96-7.456l-.999 1.035c-1.111-.985-2.453-1.618-3.89-1.173-.865.268-1.691.973-2.297 1.681-1.142 1.336-.904 3.466.36 4.811 1.447 1.539 3.347 1.563 6-.042l.717 1.037c-1.72 2.159-5.58 2.21-7.605.232-2.14-2.091-2.303-5.397-.25-7.552 2.073-2.175 5.214-2.592 7.964-.029zm70.424-1.767c2.903.018 5.433 2.593 5.407 5.512-.024 2.738-2.662 5.577-5.579 5.228-2.392.417-5.431-2.293-5.398-5.303.033-3.016 2.497-5.455 5.57-5.437zm-64.153-.04c2.632.007 5.485 2.595 5.449 5.507-.03 2.464-2.506 5.672-5.564 5.273-2.493.403-5.41-2.483-5.38-5.343.031-2.91 2.843-5.446 5.495-5.438zm-26.571.86c1.17 2.131 2.431 4.215 3.838 6.631v-7.25c1.119-.266 1.593-.1 1.565 1.024-.07 2.824-.01 5.651-.042 8.477-.004.338-.26.673-.398 1.009-.431-.206-1.05-.298-1.262-.638-1.254-2.025-2.413-4.107-3.604-6.17l-.233.012v6.71l-1.476.143V20.593c.694-.234 1.189-.136 1.612.635zm44.094-.89l.563.022c.67 1.74 1.356 3.472 2.006 5.219.66 1.772 1.285 3.558 1.956 5.424l-.216.05c-.785.183-1.474.303-1.626-.877-.022-.174-.189-.324-.256-.497-.922-2.382-.921-2.383-3.535-2.11-.311.812-.749 1.608-.91 2.457-.216 1.143-.863 1.263-1.979 1.007l3.997-10.694zm58.788.232v1.351l-2.336.107v9.026l-1.532.112v-9.184h-2.46l.074-1.412h6.254zm-27.163-.086l1.533.075c0 2.583.102 5.066-.034 7.536-.1 1.809-1.953 3.108-3.97 3.054-1.748-.048-3.21-1.434-3.303-3.362-.104-2.178-.062-4.365-.002-6.545.007-.258.535-.501.822-.751.222.266.63.529.636.801.051 2.03.008 4.063.025 6.095.01 1.142.659 2.02 1.567 2.216 1.127.245 2.108-.172 2.55-1.171.159-.357.166-.798.169-1.201.014-2.209.007-4.417.007-6.747zm-13.313.002c.786-.018.845.404.834 1-.023 1.2-.007 2.4-.007 3.664 3.052.41 3.052.41 3.052-2.367 0-.565-.079-1.146.035-1.687.05-.242.484-.555.747-.56.241-.003.698.364.7.573.045 3.302.032 6.605.032 9.882-1.433.26-1.51.249-1.513-.886v-3.27h-3.017v4.208h-1.558v-9.55c.001-.487-.093-.989.695-1.007zm18.49 1.261c-.073 2.213-.021 4.43-.021 6.647v1.18h3.602v1.515h-5.065V20.585c1.184-.311 1.52.09 1.485 1.162zm-72.679-1.195c.261-.022.798.358.801.568.052 3.29.036 6.582.036 9.945h-1.542V25.2c-.001-1.314-.043-2.629.026-3.939.013-.264.424-.689.68-.71zm26.341-.007c.209-.005.61.473.616.741.047 2.447.024 4.895.026 7.343 0 .292.024.583.042.972.98 0 1.82.061 2.649-.015 1.16-.105 1.417.388 1.083 1.462h-5.247c0-3.36-.016-6.628.036-9.896.004-.224.514-.6.795-.607zM45.077 7.106c.234.07.436.286.622.47 1.577 1.553 3.26 3.02 4.69 4.698 1.503 1.762 3.04 3.59 4.07 5.634 1.943 3.852 3.535 7.88 5.27 11.835.045.101.073.21.158.464-.208.163-.44.487-.693.505-.263.02-.657-.192-.797-.42-.207-.339-.254-.778-.346-1.18-.98-4.258-3.09-7.969-5.523-11.558-1.647-2.429-3.548-4.557-5.804-6.45-1.003-.842-1.614-2.148-2.37-3.266-.099-.145-.086-.525.024-.612.166-.132.488-.182.699-.12zm4.982-1.846c1.3 1.147 3.061 1.735 3.717 3.662.39 1.148 1.018 2.253 1.719 3.253 1.348 1.924 2.823 3.76 4.245 5.633-.478-1.067-.838-2.212-1.465-3.19-1.011-1.577-2.204-3.04-3.303-4.563-.163-.226-.236-.515-.212-.85 2.12 2.096 4.108 4.26 5.499 6.886.485.915.95 1.84 1.39 2.777.07.15-.043.386-.07.582-.19-.064-.435-.076-.56-.203-.455-.465-.871-.969-1.305-1.46l.004.002-.007-.005c.644 1.42 1.384 2.806 1.907 4.268.561 1.567.994 3.19 1.326 4.82.117.574-.23 1.241-.426 2.152l-1.398-1.157c.112.446.298.808.261 1.146-.034.31-.308.595-.477.89-.213-.206-.526-.374-.625-.625-1.086-2.737-1.942-5.582-3.244-8.212-2.114-4.274-4.442-8.46-8.64-11.202-.485-.318-.875-.84-1.177-1.345-.146-.245.015-.67.037-1.013.335.035.765-.052.992.122 4.723 3.595 8.17 8.163 10.41 13.62.811 1.977 1.538 3.99 2.398 6.23.392-1.283.436-2.357-.006-3.398-1.915-4.498-4.25-8.762-7.557-12.419-1.157-1.28-2.555-2.345-3.796-3.555-.535-.52-1.005-1.128-1.397-1.76-.142-.23.03-.648.057-.98.34.126.77.162 1.005.393.808.8 1.549 1.667 2.315 2.508l.37-.33c-.76-.8-1.518-1.6-2.277-2.402l.29-.275zm116.243 16.682c-2.198-.004-3.962 1.723-3.957 3.876.004 2.222 1.698 3.888 3.943 3.88 2.212-.007 3.935-1.72 3.985-3.87.048-2.06-1.96-4.056-3.97-3.886zm-64.154.003c-2.223.006-3.845 1.674-3.83 3.938.017 2.19 1.674 3.813 3.895 3.813 2.21 0 3.804-1.652 3.926-3.819.125-2.212-2.105-4.197-3.991-3.932zM44.424 8.805c.84 1.91 2.31 3.185 3.87 4.45.69.562 1.213 1.332 1.787 2.027 3.069 3.717 5.417 7.841 7.092 12.344.078.211.265.438.228.623-.088.437-.28.853-.43 1.277-.274-.285-.645-.524-.806-.861-1.803-3.764-3.134-7.789-5.883-11.037-1.604-1.895-3.461-3.579-5.124-5.429-.684-.761-1.145-1.718-1.73-2.57-.314-.457-.676-.88-1.093-1.417 1.01-.695 1.785-.097 2.089.594zM20.088 2.18l.22.278c-.867.932-1.822 1.799-2.583 2.81-1.468 1.953-2.884 3.95-4.218 5.996-2.797 4.285-5.56 8.594-8.263 12.937-.68 1.09-1.04 2.371-1.636 3.52-.197.382-.81.948-.993.87-.628-.264-.493-.794-.26-1.412 1.105-2.936 2.78-5.531 4.55-8.104 1.536-2.23 2.743-4.684 4.282-6.913 1.982-2.873 4.085-5.673 6.282-8.388.604-.746 1.732-1.074 2.619-1.594zm2.316 4.188c.596 1.666-.95 2.323-1.108 3.59l1.045-.268c.082.196.249.402.2.51-.178.385-.343.924-.667 1.072-2.132.976-3.07 2.961-4.377 4.69-2.238 2.964-4.59 5.837-6.348 9.125-.5.936-1.005 1.87-1.508 2.805l-.373-.054c0-.36-.127-.782.02-1.068 1.007-1.956 1.987-3.935 3.138-5.808 1.566-2.55 3.278-5.012 4.927-7.512 1.107-1.678 2.19-3.372 3.33-5.028.46-.67 1.045-1.256 1.721-2.054zm-.928-1.125l.205.356c-.968 1.51-1.914 3.036-2.908 4.53-2.507 3.772-5.066 7.509-7.54 11.3-.995 1.526-1.804 3.17-2.742 4.734-.154.256-.54.374-.82.556-.103-.326-.386-.728-.282-.964.527-1.193 1.077-2.39 1.761-3.5 1.809-2.933 3.66-5.843 5.562-8.718.617-.932 1.492-1.692 2.165-2.593 1.252-1.678 2.428-3.412 3.674-5.094.206-.277.612-.408.925-.607zm98.456 18.613l-.613 2.041h1.607l-.994-2.041zM15.428 4.408c-4.56 6.964-9.315 13.704-13.017 21.16-.677-.725-.667-.873-.153-1.803 1.12-2.028 2.159-4.104 3.352-6.089 2.098-3.49 4.193-6.989 6.49-10.35.805-1.177 2.201-1.957 3.328-2.918zm25.297 10.896c1.052.729 2.143 1.423 3.095 2.267.711.63 1.25 1.46 1.829 2.228.536.71 1.037 1.448 1.528 2.19.126.192.221.455.195.669-.012.095-.356.187-.559.214-.484.065-.973.09-1.61.143-.073-.103-.341-.32-.397-.582-.607-2.869-2.955-4.205-5.09-5.73-.55-.392-1.584-.656-.99-1.536.528-.782 1.367-.301 2 .137zM9.79 9.266c-.62 1.042-1.213 2.108-1.88 3.126-.698 1.067-1.538 2.047-2.187 3.14-.641 1.083-.994 2.345-1.707 3.369-.676.97-.366 2.52-1.828 3.162-.407-1.63.386-2.824.962-4.047 1.496-3.182 3.616-5.923 6.207-8.35l.433-.4zm28.515 10.051c.527.188 1.083.535 1.394.98.166.236-.154.805-.3 1.415l-2.076-1.63c.396-.322.793-.832.982-.765zm.488-1.87c.771.354 1.58.65 2.292 1.098.212.134.15.693.214 1.057-.318-.048-.703 0-.943-.162-.65-.439-1.24-.967-1.854-1.46l.291-.533zM86.04 6.814c3.342.034 5.447 2.783 5.464 5.428.018 2.813-2.698 5.545-5.546 5.374-2.93.006-5.457-2.388-5.426-5.438.03-2.889 2.357-5.395 5.508-5.364zm48.477.004c2.966.05 5.26 2.346 5.316 5.324.056 2.996-2.377 5.467-5.389 5.474-3.026.007-5.495-2.413-5.503-5.394-.01-3.054 2.469-5.456 5.576-5.404zm-20.11.584c1.226 3.234 2.428 6.477 3.626 9.722.033.09-.036.216-.057.321-.96.407-1.502.02-1.783-.882-.033-.108-.058-.218-.091-.325-.76-2.478-.76-2.478-3.558-2.396-.304.836-.622 1.708-.937 2.582-.431 1.198-.435 1.202-1.977 1.04.298-.88.567-1.736.877-2.576.902-2.446 1.81-4.89 2.749-7.321.097-.253.391-.472.648-.598.081-.04.43.241.503.433zm9.728-.408c.057.578.497 1.246-.45 1.428-.579.11-1.197.02-1.915.02 0 2.791-.022 5.486.014 8.18.01.735-.234 1.146-.957.909-.283-.093-.596-.61-.602-.938-.048-2.664-.027-5.329-.027-7.895-.706-.77-2.759.698-2.351-1.704h6.288zm3.034 1.127c-.072 2.813-.03 5.63-.016 8.445.003.588-.033 1.02-.821 1.018-.81 0-.688-.52-.689-.995-.004-2.965-.003-5.93.003-8.896 0-.216.051-.431.078-.64 1.051-.33 1.474-.084 1.445 1.068zm-32.092-.365c1.132 2.018 2.31 4.01 3.69 6.002V7.004h1.612v5.566c0 1.317.029 2.636-.018 3.952-.012.346-.256.685-.393 1.028-.391-.189-.954-.272-1.145-.582-1.259-2.03-2.438-4.11-3.642-6.173-.053-.091-.103-.185-.154-.278l-.279.072v1.259c.002 1.656-.014 3.313.015 4.969.011.618-.297.876-.823.721-.29-.085-.702-.457-.706-.705-.047-3.231-.031-6.463-.031-9.722.96-.398 1.464-.088 1.874.645zm48.338-.092c1.186 2.142 2.457 4.237 3.82 6.564V8.806 8.07c.001-1.236.067-1.28 1.522-.961v7.283c0 .753.044 1.509-.017 2.256-.025.313-.29.872-.412.862-.395-.03-.952-.161-1.13-.447-1.163-1.87-2.242-3.792-3.352-5.695-.159-.272-.34-.53-.67-1.044 0 2.226-.043 4.154.017 6.078.03.95-.258 1.359-1.34 1.103V7.027c.655-.247 1.14-.126 1.562.637zm-64.379-.642v1.383h-3.466v3.013c.779 0 1.567.061 2.342-.015 1.125-.11 1.423.351 1.142 1.436h-3.569c0 1.227-.062 2.382.017 3.526.08 1.135-.39 1.412-1.517 1.084V7.022h5.051zm28.964 1.868c1.404 1.787 1.638 3.759.57 5.77-1.248 2.347-3.388 3.015-6.056 2.88V7.014c2.163-.257 4.085.093 5.486 1.876zm-21.955-.532c-2.706-.06-3.952 1.833-4.027 3.796-.079 2.077 1.719 4.025 3.938 3.934 2.257.01 3.984-1.643 4.01-3.836.027-2.173-1.693-3.846-3.92-3.894zm48.284-.015c-2.234.12-3.845 1.642-3.844 3.856.002 2.249 1.66 3.892 3.924 3.887 2.223-.005 3.894-1.725 3.902-3.92.008-2.23-1.9-3.935-3.982-3.823zm-30.3.203v7.428c2.06 0 3.601-1.687 3.65-3.787.048-2-1.939-3.967-3.65-3.641zm-81.42 3.283c.029-.023.38.351.765.71-.785.56-1.429 1.02-2.077 1.476-.021.016-.096.002-.106-.018-.105-.217-.345-.572-.282-.638.527-.55 1.104-1.054 1.7-1.53zm91.239-1.765l-.721 2.244h1.536l-.815-2.244zM32.156 7.032c2.437.159 4.26.213 6.063.434.524.065.988.608 1.48.932-.56.142-1.155.486-1.671.395-3.714-.655-7.282-.297-10.701 1.301-.575.269-1.071.718-1.659.94-.415.156-.924.07-1.392.093.197-.467.263-1.138.617-1.361.941-.594 1.976-1.08 3.03-1.452 1.575-.555 3.198-.974 4.233-1.282zm1.367-2.028c1.032.026 2.052.37 3.085.519.743.107 1.498.133 2.248.178.909.054 1.71.263 2.157 1.48-.636 0-1.103.034-1.562-.006-2.774-.241-5.574-.852-8.31-.638-2.112.165-4.138 1.373-6.216 2.078-.327.11-.728.009-1.095.005.153-.303.228-.702.47-.895 1.708-1.363 3.681-2.127 5.854-2.383 1.123-.133 2.25-.366 3.37-.338zm7.631-2.777l-.62-1.217c.38 0 .652-.075.85.012 1.709.748 3.417 1.499 5.094 2.313.366.177.605.611.903.927h-1.117v1.783l-.307.23c-3.177-3.338-7.352-3.801-11.55-4.118-.754-.057-1.542.31-2.301.72.197.038.392.088.59.113 2.916.377 5.834.737 8.746 1.139.433.06.925.216 1.234.496.3.273.403.762.592 1.156-.443.053-.929.247-1.321.13-.958-.281-1.854-.956-2.809-1.028-3.092-.233-6.202-.384-9.3-.32-1.3.027-2.593.657-3.88 1.044-.654.197-1.32.584-1.66-.604 2.248-1.935 5.082-2.884 7.884-3.705 2.937-.86 5.89-.181 8.972.929zM36.974.522c-.501 0-1.006.04-1.502-.006-2.56-.24-4.922.347-7.21 1.484-1.527.76-3.276 1.065-4.575 2.305-.184.176-.687.025-1.042.025l-.07-.61C26.957 1.009 31.526-.993 36.973.522z"/>
</svg>
