<svg xmlns="http://www.w3.org/2000/svg" width="105" height="99" viewBox="0 0 105 99">
    <path fill-rule="evenodd" d="M28.097 62.775c-.046-.277-.116-.804-.22-1.323-.203-1-.668-1.884-1.332-2.643-1.42-1.62-3.216-2.368-5.378-2.264-1.545.075-2.919.588-4.05 1.624-1.841 1.687-2.55 3.77-2.009 6.243.234 1.068.763 1.972 1.49 2.775.967 1.067 2.173 1.725 3.562 2.02.91.192 1.831.14 2.75-.071 1.39-.32 2.561-1.003 3.517-2.044 1.05-1.144 1.619-2.5 1.67-4.317M55.475.166c.064.05.124.134.192.141 1.223.127 2.451.214 3.67.374.976.129 1.945.322 2.908.525 1.34.283 2.69.548 4.006.921 1.427.405 2.823.92 4.228 1.398 1.967.67 3.85 1.537 5.699 2.477 2.345 1.192 4.587 2.558 6.728 4.09 2.723 1.948 5.24 4.134 7.54 6.565 1.816 1.919 3.516 3.94 4.974 6.146 1.044 1.58 2.038 3.195 2.994 4.83 1 1.708 1.841 3.503 2.557 5.348.629 1.622 1.227 3.26 1.754 4.918.384 1.208.675 2.45.925 3.694.341 1.7.616 3.412.893 5.124.112.697.124 1.41.235 2.108.308 1.933.049 3.877.134 5.814.016.37-.018.744.006 1.114.055.834-.172 1.637-.248 2.456-.064.682-.136 1.364-.236 2.04-.125.847-.277 1.69-.428 2.532-.108.606-.212 1.214-.356 1.812-.23.952-.477 1.9-.741 2.842-.214.762-.447 1.521-.702 2.27-.303.89-.6 1.782-.967 2.645-.652 1.537-1.311 3.074-2.046 4.573-1.316 2.685-2.883 5.227-4.7 7.6-1.142 1.491-2.32 2.964-3.599 4.335-1.335 1.43-2.781 2.762-4.236 4.075-1.937 1.748-4.059 3.26-6.257 4.664-.668.426-1.353.826-2.032 1.237-.049.03-.107.046-.181.029.56-.368 1.125-.73 1.682-1.103 2.965-1.988 5.65-4.308 8.13-6.871 1.763-1.823 3.365-3.775 4.846-5.834 1.716-2.385 3.205-4.903 4.494-7.538.92-1.88 1.748-3.804 2.392-5.8.455-1.41.914-2.822 1.306-4.251.288-1.051.5-2.126.695-3.2.243-1.333.452-2.674.638-4.018.105-.765.167-1.54.19-2.311.052-1.82.14-3.644.081-5.462-.053-1.683-.253-3.363-.436-5.038-.116-1.067-.286-2.13-.495-3.182-.206-1.035-.464-2.062-.75-3.078-.39-1.395-.785-2.792-1.26-4.16-.43-1.239-.941-2.453-1.47-3.655-1.404-3.19-3.136-6.194-5.174-9.02-1.183-1.64-2.43-3.23-3.842-4.678-1.177-1.207-2.371-2.402-3.613-3.544-1.462-1.344-3.05-2.535-4.686-3.664-1.982-1.367-4.036-2.61-6.214-3.627-1.807-.843-3.65-1.616-5.516-2.32-1.268-.478-2.588-.834-3.907-1.152-1.626-.391-3.266-.748-4.918-1.007-1.566-.245-3.15-.405-4.734-.49-1.664-.088-3.338-.098-5.004-.038-1.421.052-2.842.211-4.254.397-1.397.185-2.79.423-4.17.71-1.076.224-2.139.525-3.188.852-1.49.463-2.979.935-4.434 1.491-1.243.475-2.446 1.055-3.65 1.621-2.887 1.357-5.583 3.033-8.146 4.925-2.19 1.618-4.233 3.406-6.143 5.347-2.1 2.136-4.008 4.43-5.698 6.903-.7 1.022-1.36 2.071-2.081 3.175-.438-.456-.883-.925-1.334-1.39-.342-.35-.686-.699-1.037-1.04-.132-.127-.145-.223-.047-.391 1.192-2.037 2.508-3.986 3.954-5.852 1.342-1.732 2.79-3.37 4.34-4.916 1.811-1.807 3.745-3.473 5.802-5 2.275-1.688 4.669-3.177 7.175-4.492 1.871-.98 3.802-1.832 5.772-2.586 1.028-.394 2.089-.704 3.14-1.035.839-.263 1.68-.524 2.53-.742.878-.225 1.767-.412 2.657-.588.945-.187 1.894-.36 2.847-.503.806-.12 1.62-.198 2.43-.28.509-.052 1.02-.072 1.53-.12.06-.005.112-.092.168-.142h6.688zm-34.24 54.799c2.295-.024 4.177.529 5.825 1.775 1.165.882 2.026 2.006 2.55 3.388.44 1.166.632 2.36.508 3.596-.18 1.796-.882 3.36-2.17 4.643-.96.957-2.103 1.61-3.394 2.03-1.085.354-2.194.499-3.326.47-2.359-.063-4.453-.812-6.162-2.483-1.028-1.005-1.695-2.212-2.027-3.626-.26-1.105-.296-2.209-.073-3.298.375-1.83 1.25-3.39 2.74-4.573.963-.766 2.028-1.296 3.224-1.605.84-.216 1.678-.338 2.304-.317zm57.156 2.134v11.343h9.723c0 .43.006.832-.008 1.232-.001.053-.094.12-.159.15-.054.025-.128.003-.194.003l-11.008.006c-.02 0-.04-.012-.076-.024V57.1h1.722zm-11.51-.02c.689.014 1.378-.003 2.066.014.106.003.258.097.306.192 1.236 2.41 2.458 4.827 3.687 7.24.883 1.735 1.772 3.465 2.657 5.198.009.016-.001.042-.005.105-.668 0-1.338.005-2.008-.009-.063-.001-.142-.112-.182-.189-.478-.922-.96-1.842-1.418-2.775-.124-.251-.27-.332-.547-.33-2.37.011-4.742.01-7.113 0-.221 0-.324.076-.416.265-.451.931-.918 1.854-1.374 2.782-.09.182-.199.27-.424.262-.609-.02-1.219-.007-1.887-.007.194-.404.36-.769.542-1.127.729-1.437 1.463-2.873 2.194-4.31 1.205-2.37 2.41-4.742 3.61-7.115.071-.139.144-.2.313-.196zm-25.976.012c1.21.01 2.296.39 3.126 1.321.469.527.687 1.165.839 1.852.192.872-.02 1.64-.44 2.377-.51.892-1.31 1.414-2.262 1.734-.05.017-.103.03-.152.053-.067.03-.131.066-.258.132l3.893 5.272c-.743 0-1.45.008-2.156-.01-.097-.003-.216-.119-.283-.212-1.19-1.648-2.372-3.303-3.565-4.949-.064-.088-.209-.164-.317-.165-1.628-.01-3.256-.008-4.884-.007-.042 0-.083.012-.17.025v5.308h-1.81V57.085h.31c2.71 0 5.42-.015 8.129.006zM1.758 57.08v11.35h9.702v1.368c-.046.012-.086.032-.126.032-3.714 0-7.428 0-11.143-.002-.063 0-.127-.018-.191-.028v-12.72h1.758zm57.551.02v1.375h-9.407v4.064h7.064v1.415h-7.065v4.463h9.408v1.396h-11.37V57.099h11.37zm8.588 1.818l-3.006 5.972h6.08c0-.054.008-.08-.001-.097-.929-1.823-1.857-3.646-2.79-5.467-.07-.135-.173-.251-.283-.408zm-33.283-.328h-.324v4.396h.348c1.87 0 3.738.014 5.606-.01.47-.006.954-.085 1.406-.216 1.258-.364 1.71-1.93 1.177-2.937-.482-.911-1.333-1.21-2.28-1.224-1.977-.03-3.955-.01-5.933-.01zm-22.709-1.5c-.436.84-.86 1.657-1.286 2.473-.321.614-.638 1.229-.976 1.832-.053.095-.202.184-.312.192-.358.024-.718.009-1.125.009l1.79-4.506h1.91zM56.92 55.05c.016 0 .032.021.073.048L52.4 56.73l-.026-.054c.453-.496.902-.996 1.363-1.484.073-.078.201-.145.304-.146.96-.008 1.92 0 2.88.004zm14.467-12.106c1.318.043 2.592.333 3.645 1.228 1.251 1.063 1.792 2.404 1.457 4.047-.361 1.77-1.518 2.791-3.164 3.347-1.02.344-2.066.414-3.116.216-1.802-.338-3.215-1.23-3.864-3.025-.67-1.85.132-3.87 1.802-4.921.984-.62 2.066-.859 3.24-.892zm-58.685.003c1.151.034 2.33.296 3.35 1.044.822.603 1.382 1.38 1.637 2.399.387 1.552-.03 2.863-1.1 3.983-.66.691-1.502 1.082-2.435 1.311-.916.225-1.832.275-2.746.091-1.756-.352-3.135-1.214-3.795-2.979-.763-2.039.26-4.216 2.126-5.169.903-.46 1.862-.672 2.963-.68zm23.946.15c1.729.107 3.224.756 4.108 2.366.815 1.485.676 3.183-.465 4.523-.868 1.02-1.99 1.596-3.317 1.678-1.54.095-3.086.108-4.656.157V43.08c1.472 0 2.906-.07 4.33.018zm43.41-.027c.1.008.204.109.283.19 2.05 2.082 4.098 4.167 6.147 6.25.077.078.168.14.32.266v-6.698h1.28c.007.113.02.228.02.342.002 2.666-.003 5.332.008 7.998.001.288-.081.339-.362.37-.615.066-1.026-.17-1.439-.612-1.288-1.378-2.623-2.71-3.937-4.064-.576-.594-1.142-1.199-1.716-1.795-.068-.07-.155-.122-.3-.234v6.673h-1.26v-8.695c.329 0 .644-.015.956.01zm-32.853-.06c.412-.018.59.151.753.481 1.324 2.677 2.66 5.347 3.992 8.02.033.067.045.143.083.264-.427 0-.808.012-1.188-.009-.087-.005-.201-.104-.247-.19-.376-.71-.747-1.422-1.098-2.144-.09-.187-.188-.258-.392-.257-1.213.008-2.425.008-3.638 0-.213 0-.321.063-.415.271-.31.693-.664 1.366-.982 2.056-.096.209-.212.29-.442.277-.345-.02-.691-.006-1.079-.006l1.034-2.158 2.785-5.82c.055-.115.133-.224.168-.346.1-.343.31-.423.666-.439zm-25.862.063c.125.014.248.157.35.262 1.597 1.627 3.19 3.258 4.784 4.888.433.444.863.891 1.298 1.333.064.065.146.111.282.212v-6.687h1.28v8.694c-.366 0-.693.012-1.019-.007-.093-.005-.197-.083-.268-.155-1.662-1.699-3.321-3.401-4.981-5.103-.412-.42-.825-.84-1.24-1.258-.044-.044-.105-.07-.213-.141v6.662c-.405 0-.764.014-1.12-.012-.065-.005-.164-.174-.166-.269-.015-.622-.008-1.245-.008-1.868V43.06c.351 0 .69-.024 1.021.012zm42.24.007v8.694c-.407 0-.805.005-1.203-.006-.051-.002-.104-.084-.146-.137-.017-.02-.005-.063-.005-.096l.009-8.384c0-.01.006-.02.022-.071h1.323zM0 43.047l5.045.015h.144v1.099H1.42v2.453h3.772v1.093H1.397v4.06H0v-8.72zm59.808.037c0 .299.02.601-.015.898-.009.074-.197.181-.304.183-.906.014-1.813.008-2.72.008h-.353v7.579h-1.362v-7.579h-1.729c-.47 0-.94-.008-1.409.004-.195.004-.28-.048-.269-.257.015-.27.004-.543.004-.836h8.157zm-49.048 1.36c-1.702.758-2.457 2.603-1.711 4.257.434.964 1.197 1.558 2.204 1.853 1.232.36 2.425.277 3.542-.37 1.903-1.101 2.2-3.618.6-5.104-.783-.726-1.747-1.004-2.912-.993-.531-.035-1.144.1-1.723.357zm58.514.12c-1.81.984-2.266 3.154-1.137 4.717.578.8 1.391 1.236 2.363 1.39 1.449.227 2.734-.035 3.828-1.102 1-.976 1.115-2.914.267-3.994-.835-1.062-1.944-1.502-3.38-1.488-.614-.028-1.306.132-1.941.478zm-35.368-.39c-.072-.001-.144.018-.228.03v6.448c.817 0 1.602-.006 2.387.002.636.006 1.249-.1 1.834-.351 1.52-.654 2.215-2.145 1.875-3.63-.377-1.65-1.713-2.32-3.054-2.441-.932-.085-1.876-.045-2.814-.058zm13.23.837l-1.4 3.05h3.011c-.011-.07-.01-.105-.023-.132-.455-.927-.909-1.854-1.371-2.776-.031-.062-.132-.088-.217-.142z"/>
</svg>
