<svg xmlns="http://www.w3.org/2000/svg" width="161" height="59" viewBox="0 0 161 59">
    <path fill-rule="evenodd" d="M34.391 28.117h6.57l-3.31-6.822-3.26 6.822M31.13.196l.276.044c.047.007.093.012.139.014 11.412.616 21.18 7.6 25.583 17.542.18.407.349.818.532 1.248h.388c2.893.003 5.786-.007 8.678.014 1.162.009 2.289.237 3.347.746 2.169 1.043 3.15 3.11 2.941 5.314-.125 1.322-.78 2.402-1.746 3.296-.606.562-1.306.97-2.091 1.23-.06.02-.118.047-.202.081.036.042.056.079.086.098 1.388.876 2.339 2.122 3.047 3.576.44.902.706 1.868 1.009 2.82.37 1.158.736 2.317 1.103 3.477.023.07.037.143.055.214-.237.075-3.083.098-3.57.03l-.288-.88c-.433-1.321-.856-2.645-1.303-3.961-.29-.855-.656-1.679-1.161-2.435-.769-1.152-1.846-1.768-3.224-1.795-1.663-.033-3.327-.016-4.991-.02-.042 0-.084.01-.156.018-.017.195-.038.387-.05.579-.263 4.07-1.344 7.912-3.24 11.52-4.07 7.753-11.384 13.301-19.967 15.167-1.672.364-3.36.589-5.07.655-.13.005-.257.033-.386.05h-1.957c-.14-.017-.278-.046-.417-.052-1.753-.07-3.485-.3-5.193-.693-6.237-1.436-11.507-4.526-15.76-9.308C4.143 44.964 1.896 40.54.852 35.53.565 34.152.41 32.746.193 31.35.127 30.927.064 30.5 0 30.073v-1.174c.017-.052.042-.101.05-.154.112-.774.243-1.545.327-2.322.241-2.247.713-4.442 1.491-6.562 2.855-7.772 8.066-13.4 15.544-16.926C20.6 1.432 23.972.587 27.485.313c.41-.032.82-.078 1.23-.117h2.414zm-3.96 1.456C13.693 2.91 4.674 12.98 2.485 22.61l.076-.133c.014-.02.029-.04.046-.057.43-.414.838-.858 1.304-1.228 1.774-1.411 3.84-2.131 6.055-2.473 1.262-.195 2.53-.237 3.803-.2 1.75.051 3.461.318 5.113.913 2.19.79 3.996 2.086 5.301 4.037.149.222.279.456.426.7-.071.02-.1.036-.129.036-1.218.002-2.436.001-3.654.006-.133 0-.22-.052-.308-.145-.203-.212-.41-.421-.63-.613-1.081-.942-2.35-1.516-3.728-1.859-1.557-.387-3.136-.45-4.728-.28-1.275.138-2.502.45-3.652 1.025-1.934.967-3.27 2.454-3.884 4.545-.492 1.677-.498 3.367-.055 5.053.396 1.505 1.197 2.762 2.405 3.752.958.783 2.052 1.301 3.238 1.632 1.589.442 3.208.548 4.846.399 1.421-.13 2.787-.468 4.052-1.143 2.16-1.152 3.478-2.93 3.924-5.344.021-.112.023-.228.036-.374H12.62c-1.604 0-3.21.005-4.824-.003l-.391-2.674c.378-.073 18.217-.06 18.455.01.008.036.02.078.024.12.117 1.285.062 2.56-.237 3.82-.628 2.643-2.05 4.741-4.33 6.237-1.335.876-2.803 1.43-4.362 1.748-1.768.36-3.552.453-5.353.339-1.23-.079-2.44-.262-3.625-.604-2.124-.613-3.984-1.66-5.45-3.347-.023-.027-.058-.043-.127-.092.025.12.037.193.056.264.656 2.462 1.638 4.787 2.94 6.975 4.631 7.791 12.91 13.139 22.54 13.802 2.508.173 5 .028 7.466-.46 5.369-1.064 10.085-3.431 14.064-7.194 5.145-4.867 8.056-10.846 8.732-17.901.032-.333.042-.667.063-1.023h-2.496c.003 3.035.008 6.06.002 9.08-.605.066-3.23.04-3.456-.028V19.045c1.305-.018 2.59.007 3.89-.014C52.438 9.337 41.493.315 27.17 1.65zm96.64 16.886c1.913.082 3.78.399 5.555 1.151 2.678 1.135 4.63 3.003 5.701 5.73.68 1.73.883 3.529.672 5.37-.262.078-17.025.113-18.028.038l-.392-2.66h14.972c-.062-.32-.104-.606-.173-.885-.609-2.467-2.13-4.156-4.436-5.164-1.187-.52-2.437-.774-3.727-.868-1.454-.107-2.889-.01-4.303.342-1.15.286-2.224.749-3.186 1.449-1.398 1.018-2.316 2.372-2.752 4.04-.423 1.618-.426 3.25.007 4.867.576 2.15 1.902 3.702 3.877 4.708 1.156.59 2.392.907 3.677 1.054.9.103 1.801.114 2.702.048 1.746-.13 3.406-.558 4.905-1.5.565-.355 1.076-.775 1.522-1.27.098-.11.196-.187.358-.187 1.185.007 2.37.005 3.556.007.031 0 .062.013.13.028-.036.081-.062.158-.101.225-.979 1.667-2.346 2.922-4.05 3.82-1.479.78-3.065 1.215-4.714 1.435-1.405.188-2.817.222-4.23.118-2.045-.152-4.022-.578-5.85-1.547-2.913-1.544-4.692-3.948-5.326-7.173-.46-2.342-.23-4.63.76-6.82 1.017-2.251 2.686-3.87 4.898-4.943 1.331-.647 2.742-1.027 4.203-1.236 1.253-.18 2.512-.23 3.773-.177zm-24.807.527c.067.231.098 20.2.028 20.89-.114.007-.21.016-.305.017-1.468 0-2.936-.005-4.404.006-.225.002-.356-.08-.484-.249-4.331-5.706-8.666-11.41-13-17.113-.078-.102-.158-.203-.27-.299-.042.486-.035.966-.036 1.446V39.951h-3.427V19.044h.36c1.436 0 2.871.008 4.307-.006.259-.003.412.086.563.286 4.211 5.551 8.428 11.098 12.645 16.646l.547.714c.034-.015.045-.017.053-.024.008-.006.014-.016.016-.025.004-.021.008-.043.008-.064l.013-17.446c0-.01.007-.02.011-.03.231-.062 2.81-.086 3.375-.03zm-59.366-.032c.226-.002.345.066.448.274 1.159 2.323 2.329 4.641 3.496 6.96l6.78 13.48c.032.065.05.136.083.226h-3.71c-.05-.093-.113-.203-.169-.318l-3.74-7.71c-.133-.274-.284-.54-.397-.822-.082-.205-.199-.268-.417-.267-1.99.008-3.98.004-5.97.004-.891 0-1.783.007-2.674-.005-.22-.004-.323.07-.417.267-.88 1.867-1.774 3.727-2.664 5.589l-1.435 2.997c-.042.087-.09.172-.14.267h-3.736c.063-.138.111-.253.167-.364 1.442-2.862 2.886-5.723 4.326-8.586 1.757-3.494 3.51-6.99 5.265-10.485.214-.427.442-.848.645-1.28.083-.176.191-.227.378-.226 1.293.007 2.587.01 3.881 0zm113.17.01c1.15 0 2.278.12 3.364.52 2.572.952 3.696 3.148 3.514 5.497-.08 1.026-.513 1.924-1.157 2.719-.702.866-1.581 1.481-2.636 1.846-.071.024-.142.053-.212.081-.008.003-.011.016-.04.062.567.352 1.069.764 1.516 1.243.974 1.042 1.66 2.257 2.103 3.604.557 1.692 1.085 3.393 1.624 5.09.022.071.032.145.054.244h-3.56c-.033-.094-.075-.203-.111-.313l-.99-3.035c-.167-.506-.335-1.01-.506-1.515-.29-.855-.654-1.68-1.163-2.434-.774-1.147-1.853-1.745-3.231-1.787-.804-.024-1.61-.016-2.414-.017h-6.552v9.106h-3.384c-.077-.234-.09-20.556-.01-20.91h.348c4.48 0 8.962.002 13.443 0zm-46.047.014c.073.24.087 20.53.013 20.895h-3.388V19.057h3.375zm-47.922 2.674c-.084 0-.169.01-.29.019.58 2.106.912 4.233 1.026 6.4.114.007.188.016.263.016 1.87 0 3.74.013 5.609-.009.528-.006 1.065-.07 1.58-.185 1.512-.339 2.48-1.341 2.567-2.803.08-1.369-.516-2.422-1.72-2.981-.694-.321-1.433-.445-2.186-.45-2.283-.013-4.566-.007-6.849-.007zm83.84 0c-.082 0-.164.019-.249.029v6.407h.367c3.043 0 6.087.002 9.131-.002.808 0 1.61-.07 2.367-.376 1.225-.497 1.911-1.39 1.96-2.733.054-1.435-.683-2.52-2.036-3-.59-.21-1.201-.315-1.822-.317-3.24-.01-6.478-.007-9.718-.007zm-85.614.017H55.78v6.357c.382.077 2.236.06 2.466-.019.004-.03.011-.061.01-.093-.079-1.356-.24-2.702-.52-4.031-.14-.668-.322-1.327-.486-1.99-.025-.104-.038-.224-.187-.224z"/>
</svg>
