<svg xmlns="http://www.w3.org/2000/svg" width="184" height="100" viewBox="0 0 184 100">
    <path fill-rule="evenodd" d="M92.648 64.941h.36c1.148 0 2.393-.217 2.393-1.664 0-1.423-1.34-1.628-2.454-1.628h-.299v3.292zm15.642-4.498c1.006 0 1.831.495 2.322 1.375l-.897.543c-.335-.567-.767-.856-1.449-.856-.718 0-1.508.494-1.508 1.29 0 .711.695 1.085 1.257 1.302l.646.253c1.281.507 2.239 1.218 2.239 2.737 0 1.653-1.27 2.834-2.885 2.834-1.46 0-2.597-1.085-2.789-2.544l1.137-.241c-.012 1 .778 1.724 1.748 1.724s1.663-.82 1.663-1.773c0-.976-.778-1.398-1.555-1.724l-.623-.265c-1.03-.446-1.963-1.037-1.963-2.303 0-1.471 1.293-2.352 2.657-2.352zm-15.402.193c.802 0 1.663.012 2.381.422.755.447 1.185 1.303 1.185 2.17 0 1.303-.861 2.388-2.166 2.545l2.849 3.955h-1.365l-2.657-3.846h-.467v3.846h-1.125v-9.092h1.365zm8.676 0v9.092h-1.125v-9.092h1.125zm-27.037 0c2.777 0 3.639.965 3.639 2.629 0 1.917-1.449 2.653-3.16 2.653h-.647v3.81h-1.125v-9.092h1.293zm9.48-.386l4.31 9.478h-1.21l-1.029-2.279h-4.141l-1.03 2.28H79.7l4.309-9.479zm0 2.484l-1.603 3.678h3.207l-1.603-3.678zm-9.349-1.085h-.299v3.256h.36c1.148 0 2.393-.217 2.393-1.664 0-1.423-1.34-1.592-2.454-1.592zm11.316-30.104l17.477 18.507V32.05h2.679v24.062h-.67L87.928 37.403v17.71h-2.68V31.545h.727zm-52.652-.4c4.988 0 9.22 3.473 10.729 8.292 0 0 .217.518-1.128.88-1.403.376-1.493-.175-1.493-.175-1.187-3.68-4.368-6.316-8.108-6.316-4.752 0-8.605 4.255-8.605 9.503s3.853 9.502 8.605 9.502c3.165 0 5.93-1.887 7.423-4.697h-5.429v-2.656h8.502s.42 1.396-.123 2.734c-1.748 4.297-5.734 7.3-10.373 7.3C27.07 55.512 22 50.057 22 43.329s5.07-12.183 11.322-12.183zm115.272.904v14.496c0 2.79.46 3.762 1.265 4.719.663.788 2.541 1.534 4.067 1.534 1.525 0 3.403-.746 4.067-1.534.805-.957 1.265-1.928 1.265-4.72V32.05h2.682v14.825c0 2.55-.47 4.614-1.902 6.057-1.668 1.681-3.837 2.47-6.112 2.47-2.276 0-4.445-.789-6.113-2.47-1.431-1.443-1.901-3.506-1.901-6.057V32.049h2.682zm-26.014 0v2.599h-8.971v6.602h8.744v2.606h-8.744v8.658h8.97v2.599h-11.65V32.049h11.65zm-42.131 0v23.064H77.77V32.049h2.679zm-5.32 0v2.599h-5.605v20.465H66.84V34.648h-5.605v-2.599H75.13zm59.902-.504l9.492 23.568h-2.808l-2.898-7.182h-8.648l-2.907 7.182h-2.811l9.526-23.568h1.054zm-81.138 0l9.493 23.568h-2.81L57.68 47.93H49.03l-2.907 7.182h-2.811l9.526-23.568h1.054zm80.608 5.687l-3.287 8.12h6.562l-3.275-8.12zm-81.138 0l-3.287 8.12h6.563l-3.276-8.12z"/>
</svg>
