<svg xmlns="http://www.w3.org/2000/svg" width="184" height="100" viewBox="0 0 184 100">
    <path fill-rule="evenodd" d="M154.142 87.206c.236 0 .442.03.628.092h1.616v.764h-.74c.163.196.246.433.246.7 0 .92-.7 1.58-1.75 1.58-.35 0-.65-.063-.896-.197-.144.083-.226.216-.226.371 0 .227.164.35.504.372l1.081.072c1.204.073 1.843.537 1.843 1.393 0 .927-.772 1.567-2.347 1.567-1.462 0-2.265-.568-2.265-1.424 0-.525.37-.856.916-1.03-.381-.176-.566-.455-.566-.846 0-.372.216-.66.587-.825-.268-.269-.422-.63-.422-1.032 0-.907.73-1.557 1.79-1.557zm-.937 4.58c-.226.133-.35.329-.35.597 0 .464.37.743 1.246.743.885 0 1.276-.279 1.276-.712 0-.36-.216-.495-.967-.547l-1.205-.082zM73.47 85.038v2.26h1.153v.876H73.47v2.011c0 .496.165.64.433.64.246 0 .4-.114.514-.206l.494.7c-.216.207-.556.414-1.112.414-.813 0-1.369-.413-1.369-1.569v-1.99h-.648v-.877h.648V85.04h1.04zm17.663 0v2.26h1.152v.876h-1.152v2.011c0 .496.164.64.432.64.247 0 .401-.114.515-.206l.494.7c-.217.207-.557.414-1.112.414-.813 0-1.369-.413-1.369-1.569v-1.99h-.649v-.877h.649V85.04h1.04zm-12.074 2.167c1.472 0 2.306 1.093 2.234 2.609h-3.48c.124.629.577 1.032 1.37 1.032.566 0 .978-.227 1.225-.464l.607.639c-.402.402-.957.7-1.822.7-1.483 0-2.44-.958-2.44-2.258 0-1.289 1.01-2.258 2.306-2.258zm6.66 0c.813 0 1.338.31 1.75.824l-.742.6c-.205-.3-.565-.506-1.008-.506-.772 0-1.236.567-1.236 1.34 0 .774.464 1.341 1.236 1.341.514 0 .823-.217 1.06-.485l.71.62c-.422.484-.936.783-1.77.783-1.318 0-2.306-.959-2.306-2.259 0-1.289.988-2.258 2.306-2.258zm52.15 0c1.472 0 2.307 1.093 2.234 2.609h-3.48c.124.629.577 1.032 1.37 1.032.566 0 .978-.227 1.225-.464l.607.639c-.401.402-.957.7-1.821.7-1.484 0-2.44-.958-2.44-2.258 0-1.289 1.009-2.258 2.305-2.258zm6.186 0c.69 0 1.174.288 1.503.65l-.607.598c-.206-.238-.504-.424-.896-.424s-.607.145-.607.403c0 .33.267.402.946.578.68.175 1.421.443 1.421 1.361 0 .743-.453 1.35-1.677 1.35-.989 0-1.648-.432-1.936-.896l.71-.495c.268.381.67.557 1.164.557.525 0 .762-.176.762-.464 0-.35-.32-.402-1.05-.61-.639-.174-1.277-.473-1.277-1.33 0-.865.69-1.278 1.544-1.278zm-35.363 0c1.472 0 2.306 1.093 2.233 2.609h-3.478c.123.629.575 1.032 1.368 1.032.566 0 .978-.227 1.225-.464l.608.639c-.402.402-.958.7-1.822.7-1.483 0-2.44-.958-2.44-2.258 0-1.289 1.009-2.258 2.306-2.258zm-13.01.092v2.497c0 .619.287.98.895.98.68 0 1.102-.424 1.102-1.125v-2.352h1.04v4.332h-1.04l.02-.793c-.267.556-.792.886-1.45.886-.948 0-1.607-.67-1.607-1.846v-2.579h1.04zm-38.258-.092c.814 0 1.338.31 1.75.824l-.74.6c-.207-.3-.568-.506-1.01-.506-.772 0-1.235.567-1.235 1.34 0 .774.463 1.341 1.235 1.341.515 0 .824-.217 1.06-.485l.71.62c-.422.484-.936.783-1.77.783-1.317 0-2.306-.959-2.306-2.259 0-1.289.989-2.258 2.306-2.258zm61.074-2.672c.999 0 1.647.63 1.647 1.527 0 .68-.443 1.227-1.287 1.681l1.339 1.65c.174-.423.277-.928.277-1.526h.978c0 .918-.226 1.712-.597 2.33l1.164 1.434h-1.287l-.535-.66c-.556.485-1.256.753-2.028.753-1.544 0-2.461-.815-2.461-1.99 0-1.084.628-1.62 1.709-2.177-.411-.505-.587-.98-.587-1.475 0-.856.639-1.547 1.668-1.547zm42.766 2.672c.957 0 1.616.68 1.616 1.856v2.568h-1.04v-2.485c0-.62-.287-.98-.895-.98-.679 0-1.122.412-1.122 1.113v2.352h-1.04v-4.332h1.04l-.02.805c.267-.567.813-.897 1.46-.897zm-31.732-2.59c2.244 0 3.737 1.404 3.737 3.508s-1.483 3.506-3.737 3.506h-1.925v-7.013h1.925zm-60.014 2.682v4.332h-1.05v-4.332h1.05zm79.868 0v4.332h-1.05v-4.332h1.05zM45.155 84.545l3.067 7.085H47.09l-.4-.99h-3.203l-.4.99h-1.052l2.997-7.085h.123zm7.544 2.67c.309 0 .526.073.711.187l-.35.938c-.165-.082-.33-.144-.566-.144-.618 0-1.04.361-1.04 1.33v2.104h-1.04v-4.332h1.04l-.01.815c.287-.68.782-.897 1.255-.897zm51.269 0c.309 0 .524.073.71.187l-.35.938c-.165-.082-.33-.144-.567-.144-.617 0-1.039.361-1.039 1.33v2.104h-1.04v-4.332h1.04l-.01.815c.288-.68.783-.897 1.256-.897zm-41.305-3.032v3.879c.278-.537.793-.856 1.441-.856.958 0 1.617.68 1.617 1.856v2.568h-1.04v-2.485c0-.62-.288-.98-.896-.98-.679 0-1.122.412-1.122 1.113v2.352h-1.04v-7.447h1.04zm55.268 4.002c-.75.392-1.1.815-1.1 1.475 0 .701.452 1.114 1.338 1.114.545 0 1.039-.186 1.43-.536l-1.668-2.053zm11.529-2.609h-.762v5.095h.762c1.822 0 2.676-1.052 2.676-2.547 0-1.496-.854-2.548-2.676-2.548zm-84.387.918s-.165.63-.34 1.042l-.876 2.186h2.44l-.874-2.186c-.176-.413-.35-1.042-.35-1.042zM154.12 87.99c-.535 0-.833.31-.833.774 0 .485.298.805.833.805.535 0 .844-.32.844-.805 0-.464-.309-.774-.844-.774zm-45.419.083c-.669 0-1.132.371-1.255 1.021h2.428c-.092-.587-.452-1.021-1.173-1.021zm29.177 0c-.669 0-1.132.371-1.255 1.021h2.43c-.094-.587-.454-1.021-1.175-1.021zm-58.81 0c-.669 0-1.132.371-1.255 1.021h2.43c-.094-.587-.454-1.021-1.175-1.021zm39.45-2.682c-.402 0-.69.268-.69.681 0 .361.164.62.391.898l.113.133c.566-.32.855-.629.855-1.04 0-.414-.278-.672-.67-.672zm-49.526-.453c.37 0 .69.288.69.68 0 .413-.32.691-.69.691-.37 0-.69-.278-.69-.69 0-.393.32-.681.69-.681zm79.869 0c.37 0 .689.288.689.68 0 .413-.319.691-.69.691-.37 0-.689-.278-.689-.69 0-.393.319-.681.69-.681zm-24.58-32.79v8.525c0 1.237.288 2.213.86 2.927.574.714 1.346 1.071 2.315 1.071.97 0 1.738-.357 2.304-1.071.566-.714.848-1.69.848-2.927v-8.525h3.44v8.635c0 2.24-.618 3.958-1.852 5.16-1.234 1.198-2.815 1.799-4.74 1.799-1.925 0-3.51-.604-4.751-1.812-1.242-1.207-1.862-2.923-1.862-5.147v-8.635h3.439zm-18.013 0l7.562 9.938v-9.938h3.44v15.439h-3.44l-7.341-9.675v9.675h-3.44v-15.44h3.219zm42.815 0v3.07h-7.672v3.18h6.9v2.937h-6.9v3.203h7.914v3.049h-11.353v-15.44h11.111zm7.188 0v12.369h6.57v3.07h-10.01v-15.44h3.44zm-95.327-23.08v6.45h6.129v-6.45h3.44v15.44h-3.44v-6.074h-6.13v6.074h-3.439v-15.44h3.44zm-13.361 0c2.366 0 4.089.461 5.169 1.381 1.081.92 1.622 2.334 1.622 4.24 0 1.908-.557 3.303-1.665 4.187-1.11.883-2.805 1.325-5.083 1.325h-2.05v4.307h-3.439v-15.44h5.446zm30.6 0v15.44h-3.44v-15.44h3.44zm7.671 0v12.37h6.57v3.07h-10.01v-15.44h3.44zm12.963 0v15.44h-3.44v-15.44h3.44zm25.364 0c2.367 0 4.09.461 5.17 1.381 1.081.92 1.621 2.334 1.621 4.24 0 1.908-.556 3.303-1.665 4.187-1.11.883-2.804 1.325-5.082 1.325h-2.05v4.307h-3.439v-15.44h5.445zm21.209 0v3.071h-7.672v3.18h6.9v2.937h-6.9v3.203h7.914v3.05H134.28v-15.44h11.11zm-36.895 0c2.366 0 4.089.461 5.169 1.381 1.081.92 1.621 2.334 1.621 4.24 0 1.908-.556 3.303-1.665 4.187-1.11.883-2.804 1.325-5.082 1.325h-2.05v4.307h-3.439v-15.44h5.446zM35.09 37.219v3.3H21v-3.3h14.09zm73.36-5.191h-1.96v5.191h2.314c1.147 0 1.925-.232 2.336-.696.413-.463.62-1.141.62-2.033 0-.89-.27-1.522-.806-1.898-.537-.376-1.371-.564-2.503-.564zm15.688 0h-1.961v5.191h2.314c1.147 0 1.925-.232 2.336-.696.413-.463.619-1.141.619-2.033 0-.89-.27-1.522-.806-1.898-.536-.376-1.37-.564-2.502-.564zm-76.6 0h-1.96v5.191h2.314c1.147 0 1.925-.232 2.336-.696.413-.463.62-1.141.62-2.033 0-.89-.27-1.522-.806-1.898-.537-.376-1.371-.564-2.503-.564zM67.233 6v10.072c0 1.84-.473 3.217-1.42 4.13-.95.914-2.166 1.37-3.65 1.37-1.852 0-3.47-.715-4.852-2.142l1.788-2.474c.925 1.001 1.896 1.501 2.91 1.501.484 0 .9-.187 1.245-.563.344-.375.518-.938.518-1.69V8.96h-4.564V6h8.025zm39.043.04l7.562 9.938V6.039h3.44v15.44h-3.44l-7.341-9.675v9.674h-3.44V6.04h3.22zM82.445 6v3.07h-7.672v3.18h6.9v2.937h-6.9v3.204h7.914v3.048H71.334V6h11.111zm11.729 0l6.658 15.44h-3.66l-1.434-3.335h-6.459l-1.434 3.334h-3.658L90.845 6h3.329zm68.797 6.275v3.3h-38.628v-3.3h38.628zm-70.452-1.68l-1.94 4.483h3.858l-1.918-4.483z"/>
</svg>
