<svg xmlns="http://www.w3.org/2000/svg" width="154" height="59" viewBox="0 0 154 59">
    <path fill-rule="evenodd" d="M127.965 35.45l.002.16c3.446 0 6.892-.003 10.338.002.836.001 1.051.41.731 1.185-.443 1.073-1.11 1.885-2.263 2.205-.27.075-.557.122-.837.125-4.058.05-8.119.02-12.174.156-3.836.129-7.668.426-11.501.659-2.404.145-4.81.268-7.208.471-3.218.273-6.433.59-9.644.934-2.126.228-4.244.527-6.363.813-2.193.297-4.387.59-6.573.935-1.842.29-3.673.656-5.51.98-.806.142-1.618.254-2.423.398-1.687.301-3.375.595-5.055.93-1.79.356-3.575.738-5.355 1.14-1.982.446-3.956.931-5.936 1.389-1.114.258-2.24.463-3.346.747-1.578.406-3.142.866-4.713 1.294-.936.255-1.882.474-2.812.745-1.488.432-2.966.898-4.45 1.343-1.127.339-2.264.645-3.384 1.004-1.367.437-2.72.914-4.079 1.373-1.327.447-2.66.877-3.98 1.345-1.125.399-2.238.832-3.35 1.265-1.088.424-2.167.87-3.253 1.3-.37.146-.78.22-1.114.424-.499.305-.892.132-1.227-.198-.97-.952-1.722-2.053-2.073-3.386-.134-.512-.263-1.035-.31-1.56-.08-.922.329-1.586 1.202-1.94 1.977-.806 3.944-1.65 5.96-2.345 1.63-.56 3.325-.93 4.993-1.375 2.031-.543 4.06-1.096 6.1-1.61 1.4-.352 2.815-.652 4.226-.963 1.746-.385 3.492-.766 5.242-1.13 1.1-.23 2.206-.433 3.312-.636 1.78-.327 3.56-.65 5.342-.962 1.8-.314 3.603-.618 5.406-.918 2.33-.389 4.658-.787 6.991-1.148 2.148-.333 4.3-.633 6.454-.927 2.873-.394 5.745-.793 8.623-1.143 2.786-.339 5.579-.627 8.37-.924 3.208-.341 6.418-.669 9.627-.998.323-.034.65-.04.974-.06 2.442-.152 4.884-.312 7.327-.453 2.154-.124 4.31-.256 6.466-.33 3.748-.128 7.498-.213 11.247-.316zM32.895 4.118c.09.026.177.07.263.109 1.48.668 1.22.604.743 1.79-.29.719-.468 1.483-.685 2.23-.411 1.419-.814 2.84-1.22 4.26-.523 1.823-1.022 3.654-1.574 5.468-.514 1.686-1.083 3.354-1.63 5.03-.523 1.605-1.02 3.219-1.582 4.81-.605 1.717-1.268 3.414-1.916 5.116-.425 1.115-.853 2.23-1.307 3.333-.4.973-.83 1.934-1.263 2.893-.386.853-.755 1.717-1.199 2.54-.661 1.227-1.328 2.457-2.09 3.622-.936 1.428-1.913 2.83-3.174 4.017-.916.86-1.908 1.609-3.126 1.864-.823.172-1.725.138-2.565.014-2.286-.336-4.174-1.446-5.72-3.165-1.202-1.337-2.064-2.876-2.777-4.51C.999 41.08.49 38.47.06 35.842c-.01-.056-.04-.108-.06-.161v-1.035c.694-.884 1.695-1.161 2.725-1.385.413-.089.663.115.798.464.504 1.304 1.01 2.607 1.483 3.923.708 1.973 1.486 3.907 2.563 5.719.552.927 1.262 1.666 2.123 2.284.765.55 1.917.504 2.668-.035 1.595-1.145 2.647-2.738 3.603-4.39 1.036-1.79 2.028-3.612 2.94-5.468.806-1.64 1.487-3.341 2.202-5.024.814-1.915 1.638-3.826 2.397-5.762.614-1.569 1.141-3.172 1.703-4.762.554-1.57 1.132-3.134 1.644-4.719.474-1.463.878-2.949 1.305-4.427.101-.348.173-.705.259-1.058l-.17-.113-2.569 1.684c-.427.282-.854.565-1.278.852-1.312.885-2.596 1.813-3.911 2.693-.987.66-2.01 1.266-3.01 1.908-1.161.747-1.956.26-2.435-.725-.165-.338-.323-.682-.444-1.037-.33-.96.089-1.644.854-2.178 1.138-.794 2.262-1.61 3.428-2.362 1.344-.868 2.712-1.7 4.097-2.503 1.028-.595 2.098-1.117 3.15-1.669 1.566-.82 3.126-1.654 4.703-2.451.672-.34 1.379-.18 2.066.014zm26.28-.667c1.55.386 1.288.336.803 1.625-.252.668-.533 1.325-.82 2.03l10.226-.78.094.243c-.42.341-.842.682-1.26 1.025-.569.467-1.162.907-1.695 1.412-.494.468-1.061.533-1.703.619-1.96.262-3.898.707-5.861.932-1.032.118-1.422.613-1.704 1.522-.486 1.566-1.1 3.094-1.665 4.636-.434 1.186-.9 2.361-1.304 3.558-.375 1.113-.707 2.242-1.022 3.373-.361 1.3-.713 2.602-1.002 3.918-.085.384.059.818.097 1.228.317-.187.681-.324.941-.571 1.074-1.023 1.465-2.294 1.459-3.777-.011-2.558.923-4.873 2.184-7.037.687-1.18 1.605-2.19 2.823-2.918 1.794-1.073 4.375.046 4.713 2.106.314 1.92.166 3.777-.935 5.439-1.31 1.977-2.823 3.76-5.038 4.798-.565.266-.9 1.32-.57 1.852.076.122.346.252.451.207.58-.251 1.26-.437 1.677-.866 1.07-1.096 2.02-2.308 3.016-3.475.267-.313.518-.641.795-.944.333-.364.834-.248 1.032.209.413.95-.029 1.76-.464 2.533-.747 1.328-1.73 2.48-2.937 3.41-1.167.898-2.438 1.608-3.994 1.466-.813-.074-1.457-.467-1.899-1.169-.069-.109-.15-.21-.205-.285-.654.636-1.223 1.248-1.856 1.783-.394.332-.855.652-1.34.794-1.13.33-2.159-.278-2.777-1.354-.682-1.19-.772-2.446-.667-3.754.043-.526.095-1.051.16-1.77-.774.868-1.444 1.606-2.094 2.36-.087.1-.11.284-.107.428.033 1.359.075 2.718.12 4.076.042 1.22.147 2.442.12 3.66-.021.954-.274 1.864-.962 2.613-1.06 1.157-2.428 1.414-3.887 1.37-1.816-.053-2.782-1.274-3.04-2.942-.26-1.686.423-3.07 1.27-4.422.58-.923 1.156-1.849 1.745-2.766.212-.33.458-.64.692-.956 1.007-1.361 1.05-1.592.588-3.417-.461.767-.896 1.462-1.305 2.172-.97 1.683-1.922 3.378-2.896 5.06-.477.824-.957 1.65-1.49 2.437-.782 1.154-2.658 1.169-3.36-.61-.069-.175-.145-.348-.223-.52-.343-.755-.406-.757-.906-.08-.611.828-1.164 1.69-2.028 2.32-1.255.912-2.534.293-2.996-.914-.706-1.846-.718-3.744-.16-5.655.39-1.331.66-2.697 1.061-4.025.388-1.285.866-2.543 1.319-3.807.325-.907.66-1.812 1.02-2.704.17-.42.391-.825.633-1.21.188-.3.47-.512.861-.353.799.322 1.608.626 2.376 1.01.158.078.276.517.207.72-.459 1.359-.984 2.695-1.466 4.045-.51 1.428-1.004 2.862-1.49 4.298-.298.881-.585 1.767-.845 2.66-.198.676-.363 1.363-.506 2.053-.083.396.142.543.53.38.818-.346 1.073-1.142 1.421-1.845 1.075-2.168 1.719-4.495 2.499-6.775.69-2.018 1.526-3.988 2.335-5.964.392-.957.748-1.126 1.752-.896.827.189 1.58.565 2.093 1.266.135.185.172.54.096.764-.443 1.306-.925 2.6-1.409 3.892-.417 1.117-.869 2.222-1.276 3.342-.308.85-.57 1.715-.854 2.574l.162.085c.487-.638.998-1.26 1.457-1.918.937-1.345 1.864-2.698 2.762-4.069.551-.842.929-1.734 1.102-2.77.212-1.276.704-2.507 1.095-3.751.041-.132.207-.31.326-.317.99-.067 1.936.074 2.76.695.564.424.622 1.017.419 1.591-.321.907-.693 1.805-1.138 2.656-.508.97-.505 1.984-.431 3.067l.385-.424c.064-.071.126-.144.185-.218 1.096-1.366 2.28-2.673 3.012-4.29.38-.842.695-1.715 1.027-2.578.516-1.343 1.02-2.691 1.532-4.036.093-.244.202-.482.347-.824-.512.127-.93.21-1.334.335-2.186.675-4.371 1.355-6.553 2.045-1.01.32-1.997.73-3.022.982-1.136.278-1.942.251-3.061-1.166-.304-.384-.59-.784-.855-1.196-.371-.58-.209-1.142.446-1.37 1.517-.526 3.03-1.078 4.581-1.485 1.891-.497 3.814-.875 5.73-1.27 1.845-.38 3.693-.745 5.549-1.058.585-.098.545-.591.723-.911.503-.904.901-1.865 1.368-2.79.349-.69 1.173-.937 2.236-.672zm23.687.404c1.504.048 3.017.153 4.499.397 1.23.202 2.419.643 3.39 1.512.686.615 1.154 1.376 1.288 2.268.279 1.857.026 3.668-.489 5.48-.577 2.034-1.414 3.95-2.441 5.773-1.042 1.847-2.155 3.668-3.393 5.387-1.691 2.349-3.476 4.636-5.323 6.865-1.733 2.09-3.712 3.947-5.877 5.603-1.3.995-2.673 1.893-4.218 2.382-.912.29-1.961.232-2.944.19-1.513-.063-2.89-.545-3.924-1.74-.532-.615-.637-1.36-.62-2.137.032-1.596.691-2.993 1.47-4.324 1.098-1.874 2.54-3.47 4.193-4.874.226-.192.482-.347.724-.519l.167.12c-.26.53-.483 1.084-.79 1.586-.918 1.505-1.684 3.079-2.19 4.767-.175.581-.258 1.2-.308 1.807-.068.833.81 1.496 1.716 1.376.956-.128 1.702-.701 2.507-1.148.081-.045.107-.425.04-.469-1.376-.902-1.121-2.225-.876-3.5.287-1.495.631-2.981 1.022-4.452.51-1.923 1.092-3.828 1.642-5.742l.652-2.301c.11-.384.222-.766.337-1.148.416-1.38.855-2.752 1.292-4.124.367-1.154.74-2.306 1.122-3.455.173-.518.35-1.036.574-1.533.07-.156.31-.359.448-.342.735.087 1.488.158 2.184.386.71.233.77.606.521 1.416-.318 1.033-.586 2.082-.891 3.119-.4 1.362-.817 2.719-1.225 4.078-.251.838-.497 1.678-.75 2.515-.472 1.562-.958 3.119-1.419 4.684-.428 1.455-.832 2.918-1.245 4.378-.274.966-.577 1.925-.804 2.902-.091.39-.015.819.107 1.314.619-.628 1.286-1.215 1.847-1.89 1.745-2.094 3.495-4.188 5.156-6.348 1.296-1.686 2.544-3.42 3.664-5.224 1.18-1.903 2.24-3.886 3.234-5.893.465-.94.825-2.003.924-3.04.213-2.223-.75-3.457-2.998-3.664-2.194-.202-4.379.086-6.553.47-1.524.27-3.012.633-4.378 1.334-1.86.953-3.474 2.19-4.006 4.385-.118.488.124.855.434 1.171.275.281.599.515 1.057.902-.47.194-.816.44-1.18.469-1.277.1-2.488-.13-3.292-1.247-.721-1.003-.685-2.11-.166-3.198.748-1.567 2.098-2.526 3.53-3.376 1.912-1.137 3.968-1.91 6.12-2.492 2.12-.574 4.254-.925 6.44-.856zM43.564 33c-.093.008-.151-.003-.165.017-.573.831-.979 1.735-1.13 2.738-.018.12.1.262.155.394.14-.08.351-.126.408-.245.44-.913.677-1.88.732-2.904zM110.622.26c.17.076.329.179.49.274.557.33.651.618.416 1.2-.474 1.177-.923 2.365-1.42 3.532-.626 1.471-1.288 2.927-1.938 4.388-.747 1.678-1.49 3.357-2.248 5.03-.208.46-.457.903-.62 1.39.742-.732 1.448-1.507 2.239-2.182.725-.619 1.496-1.2 2.533-1.25 1.29-.061 2.094.641 2.341 1.851.341 1.665.325 3.334-.174 4.974-.5 1.647-.954 3.313-1.549 4.925-.653 1.772-1.517 3.445-3.02 4.686-.853.703-1.844.723-2.814.437-1.075-.316-1.666-1.079-1.889-2.236-.322-1.67.2-2.932 1.507-3.932.534-.408.875-.272.956.38.04.323.012.659.088.97.049.197.234.36.358.539.164-.119.378-.203.483-.36 1.017-1.513 1.703-3.188 2.3-4.897.424-1.215.774-2.455 1.149-3.686.044-.144.065-.306.05-.455-.022-.25-.082-.498-.126-.747-.27.085-.625.09-.798.27l-.615.638c-.512.535-1.01 1.084-1.416 1.69-1.096 1.637-2.132 3.32-3.091 5.04-.798 1.43-1.471 2.93-2.159 4.418-.46.996-.431 1.025-1.524.82-.444-.084-.888-.21-1.308-.375-.711-.281-.882-.732-.647-1.456.093-.286.128-.59.189-.886l-.093-.06c-.474.598-.96 1.186-1.42 1.794-.79 1.04-1.724 1.934-2.85 2.582-.982.564-2.75.088-3.63-.916-.89-1.017-1.33-2.188-1.116-3.565.15-.96.236-1.93.403-2.887.332-1.905 1.037-3.677 1.937-5.384.776-1.47 1.715-2.798 3.009-3.854 1.03-.84 2.18-1.388 3.542-1.278 1.71.138 2.365.761 2.345 2.58-.02 1.84-.713 3.431-1.629 4.955-1.125 1.873-2.456 3.581-4.16 4.97-.364.298-.732.617-1.152.812-.66.309-.685.914-.758 1.47-.034.252.12.665.317.774.192.105.59-.014.822-.157 1.186-.725 2.064-1.779 2.94-2.836 1.356-1.634 2.645-3.32 3.648-5.191.522-.975.876-2.042 1.287-3.074.67-1.684 1.334-3.37 1.986-5.06.457-1.185.875-2.384 1.34-3.564.54-1.367 1.112-2.72 1.667-4.08.236-.58.471-1.16.693-1.745.529-1.393 1.74-1.892 3.129-1.276zm34.333 1.352c.61.243 1.148.676 1.7 1.05.379.257.295.634.146.978-.148.343-.34.667-.539 1.047.683.136 1.327.261 1.969.394 1.805.375 3.614.736 5.193 1.775.574.378.706.8.454 1.442-.117.299-.171.633-.336.901-.45.736-1.07.907-2.15.597-.82-.236-1.614-.564-2.44-.771-1.345-.338-2.706-.611-4.061-.91-.378-.084-.565.015-.77.418-.855 1.685-1.812 3.318-2.691 4.991-.605 1.151-1.159 2.33-1.707 3.51-.677 1.456-1.372 2.906-1.97 4.395l-.254.632c-.377.95-.717 1.919-.749 2.975-.037 1.226.573 1.262 1.418 1.02 1.842-.529 3.45-1.58 5.136-2.452.249-.13.486-.284.743-.395.412-.178.973-.366 1.205.04.195.34.155.952-.016 1.341-.41.934-1.247 1.517-2.036 2.129-1.716 1.33-3.644 2.136-5.783 2.471-1.254.197-2.695-.506-3.28-1.654-.532-1.045-.778-2.172-.913-3.328-.026-.222-.052-.445-.197-.702-.229.41-.469.816-.683 1.234-.423.826-1.083 1.346-1.974 1.583-1.054.281-2.202-.576-2.445-1.832-.136-.708-.261-1.417-.411-2.231-.383.577-.708 1.09-1.056 1.587-.432.616-.812 1.29-1.34 1.81-1.015.998-2.14.94-2.946-.094-.192-.245-.341-.571-.382-.877-.168-1.25-.323-2.506.11-3.743.249-.712.476-1.432.706-2.15.02-.064-.01-.145-.018-.227-1.21.482-1.353 1.633-1.827 2.57-1.07 2.11-2.035 4.294-3.934 5.852-.95.78-2.84.907-3.808.221-.89-.63-1.51-2.386-1.243-3.48.244-.998.405-2.022.723-2.995.422-1.29.898-2.57 1.47-3.8.515-1.104 1.152-2.159 1.812-3.185.353-.549.867-.995 1.315-1.482.58-.63 1.292-.428 1.972-.264.864.207 1.602.723 2.5.927.96.218 1.407 1.523 1.144 2.562-.036.145-.077.289-.123.46.942-.458 2.048-1.735 2.631-2.82.497-.924 1.12-1.78 1.671-2.676.318-.516.702-.644 1.196-.262.548.424 1.086.861 1.627 1.295.48.385.44.866.18 1.33-1.078 1.928-2.206 3.829-3.255 5.771-.517.957-.907 1.983-1.34 2.984-.048.11-.007.258-.007.551.244-.187.439-.28.554-.434.907-1.204 1.759-2.451 2.706-3.621.943-1.165 1.371-2.578 2.042-3.873.696-1.341 1.393-2.68 2.072-4.03.214-.425.543-.455.839-.209.578.48 1.148.988 1.623 1.565.162.198.141.69.016.96-.955 2.056-1.975 4.082-2.937 6.135-.553 1.177-1.037 2.385-1.552 3.58l.11.122c.193-.164.425-.298.573-.495 1.156-1.536 2.323-3.065 3.43-4.634.89-1.26 1.738-2.55 2.533-3.87.573-.952 1.025-1.978 1.54-2.965.332-.634.686-1.257 1.02-1.89.103-.194.175-.405.287-.67-1.28 0-2.477-.043-3.67.01-2.042.09-4.084.217-6.122.374-1.733.135-3.462.33-5.191.508-1.254.129-1.346-.095-1.899-1.12-.384-.711-.456-1.595-.643-2.408-.09-.391.158-.574.5-.705 1.22-.468 2.497-.5 3.78-.53 2.177-.05 4.356-.205 6.531-.162 2.77.055 5.535.256 8.302.412.328.019.531-.037.694-.345.292-.55.622-1.08.947-1.612.49-.8.729-.945 1.578-.606zM116.48 19.715c-.1.216-.267.493-.359.794-.34 1.121-.683 2.244-.96 3.383-.056.232.165.532.258.801.283-.103.656-.128.83-.326.46-.521.86-1.1 1.233-1.689.426-.673.796-1.381 1.128-1.964l-2.13-.999zm-54.441-.87c-1.015.465-2.673 3.374-3.268 5.731 1.592-1.013 3.755-4.807 3.268-5.732zm35.936-2.878c-2.072 1.665-2.814 4.005-3.852 6.156 1.369-.865 3.974-4.947 3.852-6.156zm20.675-.246c-.194.323-.287.706-.442 1.115.172.484.294.956.507 1.384.163.329.768.353.831.056.166-.786.281-1.59.315-2.39.007-.178-.38-.46-.63-.529-.155-.042-.47.18-.58.364z"/>
</svg>
