<svg xmlns="http://www.w3.org/2000/svg" width="184" height="100" viewBox="0 0 184 100">
    <path fill-rule="evenodd" d="M149.4 42.453c.443.207.834.523 1.241.8.052.035.093.151.075.212-.247.83-.505 1.656-.768 2.506-.172.067-.26-.025-.334-.214-.375-.945-.954-1.731-1.89-2.19-2.096-1.027-4.856.072-5.253 2.692-.168 1.109-.02 2.166.651 3.103.53.74 1.265 1.235 2.07 1.624 1.007.485 2.035.927 3.044 1.408.819.39 1.579.876 2.182 1.565.688.785 1.042 1.71 1.129 2.743.12 1.437-.08 2.822-.709 4.124-.971 2.012-2.602 3.215-4.773 3.68-1.98.424-3.844.06-5.57-.985-.264-.16-.49-.384-.722-.591-.05-.044-.076-.153-.062-.221.18-.906.37-1.81.566-2.752.143-.041.236.043.328.206.479.853 1.043 1.64 1.823 2.254 1.337 1.053 3.613 1.296 5.076.11.916-.741 1.444-1.708 1.666-2.848.152-.776.155-1.556-.053-2.325-.306-1.128-1.056-1.917-2.058-2.447-.993-.526-2.029-.97-3.047-1.447-.746-.35-1.467-.738-2.095-1.277-.9-.772-1.445-1.744-1.645-2.91-.23-1.341-.14-2.657.38-3.92.652-1.576 1.841-2.6 3.455-3.126 1.788-.583 3.568-.578 5.294.226zm-48.4.005c.441.206.83.525 1.235.805.051.036.08.163.06.231-.217.765-.447 1.525-.671 2.288-.029.096-.023.198-.173.205-.141.006-.181-.064-.225-.178-.357-.917-.903-1.692-1.786-2.175-2.09-1.143-5.048-.054-5.394 2.746-.137 1.11.037 2.153.73 3.067.52.688 1.222 1.16 1.987 1.53.92.446 1.864.844 2.79 1.28.866.406 1.684.886 2.35 1.59.673.71 1.073 1.553 1.195 2.508.207 1.624-.004 3.194-.763 4.663-.891 1.724-2.307 2.819-4.163 3.362-.644.189-1.304.28-1.979.286-1.533.015-2.939-.399-4.224-1.219-.224-.143-.418-.336-.615-.519-.046-.042-.074-.14-.063-.202.16-.874.329-1.746.496-2.618.008-.043.023-.084.036-.129.192-.066.278.014.361.162.466.825 1.006 1.59 1.745 2.207 1.305 1.088 3.56 1.36 5.022.286.898-.661 1.455-1.546 1.726-2.613.29-1.14.29-2.265-.236-3.347-.36-.743-.94-1.303-1.655-1.686-.913-.489-1.862-.913-2.802-1.351-.825-.385-1.642-.777-2.356-1.353-.925-.746-1.515-1.695-1.735-2.857-.277-1.461-.188-2.897.435-4.267.654-1.437 1.772-2.386 3.257-2.896 1.823-.625 3.645-.63 5.415.194zM18.13 35c.027.01.053.03.08.031l.836.063c.278.02.557.035.836.033.467-.002.934-.082 1.4-.127h.132c-.002.05-.006.101-.006.152.002 2.489.005 4.977.006 7.466 0 1.843-.001 3.686-.007 5.529 0 .187.086.277.247.22.235-.082.502-.162.672-.327.775-.755 1.542-1.52 2.273-2.317.864-.942 1.688-1.92 2.53-2.882l2.86-3.262c.938-1.07 1.879-2.138 2.815-3.21.396-.453.784-.913 1.176-1.369h.131c.285.037.57.083.856.11.654.063 1.302.008 1.946-.11h.132l-4.444 4.71c-1.471 1.56-2.953 3.11-4.408 4.684-1.07 1.158-2.104 2.35-3.158 3.524-.09.1-.077.158.001.255.905 1.126 1.804 2.257 2.708 3.384 1.387 1.727 2.78 3.45 4.165 5.178.799.997 1.606 1.989 2.376 3.007 1.002 1.325 1.971 2.675 2.955 4.013l.15.196c.024.033.047.067.068.102.04.067.052.152.09.27-.417-.027-.785-.067-1.154-.073-.697-.01-1.394-.01-2.09 0-.32.005-.64.05-.96.053-.076 0-.18-.077-.227-.148-.529-.789-1.02-1.604-1.579-2.371-.889-1.22-1.817-2.412-2.737-3.608-1.482-1.928-2.971-3.85-4.458-5.774-.728-.942-1.449-1.89-2.196-2.817-.122-.151-.36-.218-.555-.299-.12-.05-.192.023-.184.158.005.087.006.175.006.262v14.612c-.31-.023-.592-.03-.87-.068-.698-.096-1.393-.039-2.088.029-.152.015-.305.019-.457.028V35h.131zm101.913 7.325v1.863c-.967-.084-1.968-.191-2.971-.254-1.009-.063-2.02-.082-3.057-.122v20.49h-2.541V43.879c-.492-.135-5.07.114-6.344.336v-1.89h14.913zm-57.895 0c1.22.018 2.42.202 3.535.747 1.292.631 2.012 1.683 2.216 3.079.164 1.126.096 2.24-.361 3.305-.553 1.289-1.517 2.193-2.73 2.858-.801.438-1.658.733-2.55.928-.07.015-.14.036-.267.07l7.914 10.965c-.444-.021-.903-.054-1.362-.061-.413-.007-.827.011-1.24.026-.203.008-.406.045-.609.043-.055 0-.122-.082-.162-.142-.596-.9-1.172-1.815-1.785-2.705-1.122-1.63-2.25-3.258-3.405-4.865-.711-.989-1.479-1.938-2.224-2.903-.04-.052-.11-.112-.169-.113-.341-.011-.683-.006-1.049-.006V64.24H55.37V42.313h.279c2.167.002 4.334-.017 6.5.013zm18.15-.495c.429.013.429.003.58.391l6.254 16.1 2.278 5.866.02.053H86.41l-.364-1.115c-.801-2.478-1.66-4.934-2.618-7.357-.05-.128-.112-.172-.25-.171-2.342.004-4.685.004-7.027 0-.131 0-.206.025-.256.166-.963 2.681-1.945 5.356-2.708 8.104-.038.138-.078.276-.105.37h-2.06c.153-.38.306-.766.462-1.152l6.783-16.775c.575-1.421 1.152-2.842 1.72-4.266.064-.16.136-.22.312-.214zm48.406 0c.44.01.435.005.598.422 1.215 3.129 2.433 6.256 3.648 9.384l4.744 12.218c.055.14.109.282.148.385h-3.026c-.146-.45-.3-.96-.478-1.463-.83-2.336-1.666-4.67-2.496-7.007-.047-.133-.115-.172-.253-.172-2.342.004-4.683.004-7.025 0-.148 0-.215.04-.266.182-1.007 2.796-2.026 5.588-2.805 8.459h-2.045c.012-.043.023-.102.046-.157l3.284-8.13 3.105-7.687c.84-2.08 1.682-4.158 2.516-6.24.064-.158.146-.197.305-.194zm37.063.497v1.87c-2.522-.508-5.104-.346-7.694-.41v8.115c2.359-.044 4.706.102 7.03-.18v1.745c-2.312-.283-4.664-.138-7.031-.18v9.408c1.314.092 2.627-.01 3.94-.062 1.314-.053 2.632-.075 3.928-.342v1.88h-10.415V42.326h10.242zm-114.716-.001v1.873c-2.527-.51-5.12-.349-7.72-.412v8.116c2.362-.048 4.715.103 7.05-.183v1.748c-2.323-.285-4.682-.139-7.052-.18v9.405c1.321.095 2.642-.007 3.961-.059l.99-.038c.99-.042 1.977-.106 2.946-.305v1.874H40.785V42.326h10.267zm77.047 3.678l-3.186 8.264h6.427l-3.24-8.264zm-48.376.086h-.067l-3.148 8.169h6.422l-3.207-8.169zm-19.804-2.685c-.667-.002-1.335.045-2.012.07v8.861c.115.012.228.034.342.035.552.006 1.107.037 1.657.002.629-.04 1.266-.087 1.878-.226 1.321-.3 2.376-1.013 3.044-2.21.573-1.027.677-2.133.51-3.283-.274-1.902-1.518-2.936-3.326-3.159-.69-.085-1.395-.088-2.093-.09zm-10.841-8.297c.444.172.621.54.666.988.046.462-.208.777-.553 1.017-1.567 1.091-3.141 2.171-4.716 3.251-.072.05-.171.08-.26.085-.253.01-.508.003-.823.003l.94-1.044c.876-.97 1.75-1.941 2.632-2.907.337-.37.69-.725 1.035-1.09.3-.318.651-.469 1.079-.303z"/>
</svg>
