<svg xmlns="http://www.w3.org/2000/svg" width="184" height="100" viewBox="0 0 184 100">
    <path fill-rule="evenodd" d="M128.404 64.594c2.822.065 5.644.16 8.466.25 1.682.054 3.363.126 5.045.191.126.005.255.014.377.042.438.101.901.236.866.795-.035.548-.519.67-.953.707-.558.047-1.123.011-1.685.011v-.075c-5.89 0-11.779-.02-17.668.01-2.786.013-5.572.113-8.358.197-1.771.053-3.543.118-5.312.232-3.645.234-7.29.474-10.931.771-2.272.186-4.542.423-6.8.738-3.528.493-7.053 1.022-10.562 1.632-2.582.449-5.153.983-7.698 1.607-2.665.654-5.292 1.466-7.938 2.2-1.687.468-3.354 1.087-5.074 1.328-1.37.192-2.813-.016-4.21-.176-1.09-.125-2.158-.445-3.234-.685-.193-.043-.385-.101-.566-.18-.486-.208-.882-.483-.896-1.098-.014-.64.463-.853.91-1.002.924-.308 1.87-.558 2.816-.788 2.055-.498 4.112-.988 6.177-1.443 1.748-.385 3.506-.735 5.266-1.065 2.06-.385 4.124-.76 6.195-1.089 2-.318 4.009-.588 6.018-.851 1.812-.238 3.628-.452 5.445-.65 1.781-.193 3.564-.383 5.35-.523 3.262-.255 6.526-.5 9.793-.694 2.47-.147 4.946-.26 7.421-.299 5.253-.083 10.507-.12 15.76-.155 1.994-.013 3.987.016 5.98.062zM92.686 24.14c3.226.583 3.924 3.498 2.745 5.855-1.137 2.273-4.053 3.79-6.578 3.466-.225-.028-.546-.228-.601-.415-.058-.192.088-.584.261-.68.688-.387 1.41-.714 2.139-1.02 1.097-.463 2.029-1.106 2.624-2.169.33-.588.458-1.2.093-1.804-.392-.649-1.049-.785-1.748-.753-1.72.077-3.228.766-4.612 1.717-2.192 1.504-4.035 3.408-5.891 5.293-3.6 3.655-7.229 7.28-11.844 9.69-.908.475-1.85.883-2.731 1.3.389.792.844 1.55 1.147 2.366.742 2.004.678 4.085.446 6.17-.153 1.385-.322 2.768-.432 4.156-.033.422.055.873.178 1.284.324 1.084 1.56 1.775 2.85.846.997-.72 1.895-1.633 2.669-2.595 1.711-2.125 2.832-4.612 4.045-7.037.744-1.487 1.52-2.959 2.26-4.448.367-.738.935-1.04 1.75-1.02.629.015 1.26-.11 1.889-.09.37.012.86.08 1.06.32.141.17-.038.708-.199 1.016-1.56 2.975-3.166 5.926-4.712 8.91-.483.932-.79 1.951-.661 3.033.161 1.365 1.038 2.067 2.398 1.867 1.54-.226 2.911-.945 4.286-1.628.107-.053.207-.313.171-.436-1.124-3.832.159-7.045 2.572-9.947 1.588-1.91 3.525-3.32 6.001-3.866 1.122-.247 2.253-.3 3.383-.066 1.379.286 2.202 1.328 2.294 2.782.085 1.334-.423 2.473-1.057 3.585-1.149 2.018-2.85 3.505-4.725 4.797-1.353.933-2.775 1.766-4.166 2.645-.087.055-.168.12-.248.179.487.93 1.697 1.436 2.853 1.23 1.387-.245 2.583-.916 3.724-1.69 2.459-1.672 4.62-3.695 6.493-5.984.927-1.134 1.537-2.528 2.28-3.81 3.155-5.445 6.312-10.887 9.45-16.34.451-.782.996-1.234 1.96-1.106.588.078 1.195-.002 1.793.019.679.024.995.453.684 1.053-.614 1.187-1.293 2.342-1.973 3.493-2.079 3.519-4.17 7.03-6.256 10.544-.033.055-.046.122-.091.246.764-.417 1.454-.828 2.173-1.178 1.166-.568 2.39-.921 3.707-.886 1.443.038 2.952.953 2.856 3.031-.08 1.754-.98 3.104-1.838 4.508l-.964 1.572c-.479.787-.946 1.581-1.368 2.399-.28.543-.358 1.245-.346 1.872.013.686.716 1.133 1.37.901.758-.269 1.539-.568 2.187-1.027 1.386-.979 2.701-2.058 4.02-3.128.17-.138.275-.468.261-.7-.106-1.787.073-3.547.49-5.277 1.102-4.559 3.196-8.633 6.125-12.279 1.783-2.218 3.81-4.176 6.322-5.566 1.26-.698 2.585-1.174 4.061-1.198 2.078-.034 2.952 1.293 2.79 3.2-.215 2.546-1.362 4.738-2.724 6.83-1.927 2.96-4.258 5.594-6.72 8.104-2.016 2.055-4.133 4.01-6.194 6.02-.12.118-.243.361-.201.495.243.79.432 1.621.832 2.33.752 1.334 2.3 1.838 3.872 1.48 1.674-.383 2.967-1.365 4.192-2.491.394-.363.822-.705 1.284-.973.35-.202.775-.21 1.105.125.312.317.374.701.206 1.102-.103.246-.225.503-.404.695-1.466 1.58-3.076 2.977-5.179 3.639-1.863.586-3.753.754-5.652.127-1.577-.52-2.61-1.635-3.348-3.07l-.09-.18c-.043-.085-.08-.16-.102-.207-1.555 1.1-3.053 2.201-4.596 3.235-1.342.898-2.824 1.34-4.47 1.175-1.768-.176-3.082-1.474-3.237-3.247-.147-1.686.462-3.169 1.262-4.581.623-1.102 1.343-2.148 2.008-3.225.218-.352.41-.72.594-1.09.228-.459.242-.922-.121-1.317-.375-.408-.864-.417-1.36-.283-1.251.34-2.281 1.074-3.275 1.868-2.107 1.685-3.558 3.888-4.878 6.192-1.006 1.755-2.013 3.51-3.004 5.273-.349.621-.824.974-1.558.992-.522.013-1.043.1-1.565.147-.906.083-1.325-.494-.937-1.339.256-.556.584-1.08.877-1.62.081-.149.154-.303.136-.537-.13.102-.261.2-.387.307-1.777 1.508-3.652 2.869-5.932 3.505-1.757.49-3.514.544-5.12-.524-.445-.296-.818-.7-1.143-.984-1.656.71-3.253 1.466-4.905 2.08-1.418.527-2.91.636-4.347.01-1.283-.558-2.055-1.559-2.312-2.944-.015-.085-.048-.167-.103-.356-.169.214-.288.359-.4.508-1.32 1.748-2.927 3.117-5.081 3.705-2.873.784-5.236-.347-6.115-3.407-.705-2.454-.549-4.94-.268-7.432.15-1.33.289-2.661.377-3.996.035-.516-.083-1.043-.133-1.565-.033-.344-.206-.443-.555-.391-1.328.197-2.656.29-3.981-.075-.106-.029-.339.2-.43.357-1.45 2.48-2.814 5.017-4.347 7.445-1.826 2.891-4.017 5.488-6.788 7.553-2.603 1.94-5.506 3.092-8.743 3.334-2.105.157-4.173-.016-5.982-1.268-1.637-1.133-2.532-2.684-2.562-4.713-.016-1.092.103-2.131.775-3.041.787-1.064 2.613-1.566 3.648-.997.793.436 1.133 1.18 1.012 2.214-.098.836-.642 1.477-1.458 1.7-.261.07-.53.161-.795.159-.51-.005-.565.291-.51.675.188 1.349 1.045 2.155 2.243 2.621 1.617.63 3.269.512 4.911.093 2.93-.745 5.004-2.636 6.714-5.021 2.03-2.829 3.685-5.88 5.338-8.931 2.964-5.468 6.236-10.73 10.197-15.542.229-.278.468-.548.7-.824.007-.008-.006-.033-.023-.106-.431.028-.873.05-1.314.086-2.554.206-5.047-.158-7.518-.778-2.064-.518-4.122-1.088-6.213-1.47-1.34-.244-2.717-.061-3.947.646-.81.465-1.32 1.147-1.242 2.124.074.942.673 1.54 1.52 1.79.84.248 1.727.35 2.599.487.534.084 1.086.068 1.612.182.266.058.49.304.733.466-.149.212-.254.485-.453.628-1.107.792-2.38.922-3.68.77-1.66-.194-3.13-.801-4.063-2.289-1.247-1.988-.796-5.144 1.707-6.759 1.624-1.048 3.425-1.403 5.313-1.472 2.61-.095 5.022.685 7.412 1.62 1.46.57 2.937 1.13 4.453 1.512 1.751.44 3.567.563 5.256-.277.612-.304 1.127-.837 1.63-1.324.983-.95 2.117-1.222 3.393-.81.824.268 1.063.952.679 1.733-.5 1.013-1.443 1.486-2.398 1.936-.358.17-.734.302-1.1.455-.633.262-1.116.674-1.517 1.25-1.835 2.624-3.15 5.518-4.472 8.413-.222.487-.434.98-.7 1.581 1.303.002 2.421.247 3.452.824.141.08.312.136.415.252.518.585 1.028.47 1.658.133 1.983-1.06 3.744-2.42 5.325-3.991 2.825-2.81 5.56-5.71 8.376-8.53 1.961-1.964 4.064-3.767 6.562-5.041 2.032-1.038 4.17-1.58 6.455-1.167zm60.284 14.489c.623.04 1.012.38 1.062 1.001.062.755-.108 1.477-.615 2.022-.844.91-.762 1.871-.38 2.924.534 1.475 1.137 2.938 1.518 4.455.544 2.168.577 4.36-.626 6.367-1.094 1.824-2.747 2.889-4.836 3.262-1.856.332-3.617.08-5.155-1.064-1.468-1.092-1.97-2.925-1.366-4.664.023-.066.04-.134.075-.252-.499.22-.928.448-1.384.597-.463.152-.896.073-1.174-.4-.274-.466-.097-.867.24-1.167 1.15-1.022 2.344-1.994 3.49-3.018 2.285-2.04 4.537-4.118 6.242-6.692.473-.714.764-1.547 1.17-2.309.365-.683.9-1.116 1.74-1.062zm-2.175 5.995c-2.052 2.625-4.375 4.85-6.856 6.987 1.686.084 2.17.378 2.423 1.432.243 1.007-.188 1.75-1.503 2.535.047.09.072.156.112.213.825 1.185 2.665 1.426 3.992.536 1.29-.865 1.86-2.177 2.224-3.604.689-2.7.023-5.337-.392-8.1zm-56.084 1.222c-.507.16-1.017.4-1.441.717-1.998 1.497-3.219 3.53-3.938 5.892-.313 1.025-.466 2.065-.294 3.271.79-.543 1.536-1.008 2.228-1.541 1.669-1.286 3.221-2.697 4.4-4.464.529-.792.903-1.655.82-2.645-.088-1.025-.794-1.541-1.775-1.23zm43.642-14.97c-.281.116-.563.242-.822.402-1.342.827-2.43 1.944-3.449 3.123-2.953 3.417-5.205 7.246-6.618 11.543-.357 1.086-.561 2.222-.835 3.335l.129.063c.107-.083.225-.155.318-.252 1.516-1.578 3.082-3.112 4.53-4.75 2.761-3.123 5.297-6.42 7.182-10.165.347-.689.626-1.425.826-2.169.084-.313-.027-.764-.214-1.042-.245-.364-.684-.24-1.047-.089zM60.07 43.08c-.237.024-.446.333-.668.511.19.195.37.542.575.558.835.064 1.677.026 2.517.026l.05-.148c-.11-.129-.206-.275-.334-.385-.62-.532-1.375-.638-2.14-.562zm25.763-6.76c1.177.012 1.843.689 1.833 1.865-.01 1.31-.983 2.178-2.375 2.198-.967.013-1.979-.78-1.901-1.911.085-1.258 1.045-2.165 2.443-2.151zm62.987-2.029c.252.675.108 1.362-.192 1.998-.73 1.548-1.902 2.66-3.432 3.403-.361.175-.753.244-1.023-.145-.272-.391-.076-.735.228-1.003.446-.394.916-.76 1.405-1.163-1.131-1.228-1.127-2.69-.027-3.62 1.064-.902 2.601-.65 3.041.53z"/>
</svg>
