<svg xmlns="http://www.w3.org/2000/svg" width="184" height="100" viewBox="0 0 184 100">
    <path fill-rule="evenodd" d="M75.063 50.068h.366c3.21 0 6.422.004 9.633-.003.783-.002 1.56-.054 2.33-.25.858-.22 1.572-.628 2.06-1.37.53-.804.786-1.694.67-2.655-.163-1.347-.956-2.247-2.151-2.807-.702-.33-1.465-.444-2.238-.445-3.452-.005-6.904 0-10.356-.007-.239 0-.32.055-.32.31.01 2.31.006 4.621.006 6.932v.295zM52.684 36.126c1.061.11 2.13.167 3.18.341 1.32.22 2.591.631 3.821 1.173 1.025.453 1.978 1.019 2.854 1.705 1.278 1 2.362 2.18 3.22 3.568.583.946 1.072 1.932 1.404 2.987.35 1.107.583 2.237.646 3.406.066 1.25-.011 2.486-.265 3.705-.362 1.74-1.042 3.351-2.102 4.792-1.05 1.426-2.31 2.62-3.821 3.563-1.02.636-2.093 1.151-3.214 1.554-1.387.498-2.831.78-4.302.889-.779.056-1.567.097-2.344.042-.91-.064-1.816-.215-2.717-.372-1.225-.213-2.393-.622-3.52-1.14-1.064-.486-2.064-1.076-2.991-1.796-.912-.708-1.739-1.505-2.442-2.405-.683-.874-1.25-1.833-1.667-2.876-.449-1.121-.776-2.271-.912-3.466-.104-.916-.127-1.837-.05-2.763.082-.97.214-1.926.527-2.843.266-.78.592-1.54.935-2.29.39-.85.933-1.609 1.521-2.337 1.235-1.529 2.743-2.718 4.49-3.613 1.267-.651 2.61-1.09 4-1.388 1.232-.263 2.478-.402 3.741-.351l.008-.085zm99.002 3.968c.22-.005.268.068.267.275l-.004 5.775v5.776c0 2.478.003 4.957-.005 7.435 0 .226.05.312.29.31 1.18-.009 2.36-.002 3.54-.002h12.71c.45 0 .465 0 .477.435.017.604.003 1.208.01 1.812.002.152-.054.202-.203.2-1.17-.013-2.34-.023-3.51-.029-.913-.005-1.826-.002-2.739-.004-1.551-.002-3.103-.006-4.655-.007H148.776V40.099h1.06c.616 0 1.234.01 1.85-.005zm-19.696-.099l2.58.03c.319.003.637-.024.954-.011.095.003.23.073.27.152.48.916.94 1.841 1.413 2.76.518 1.002 1.046 2 1.567 3 .51.98 1.017 1.96 1.524 2.942.449.868.896 1.738 1.344 2.607l1.605 3.102c.563 1.09 1.123 2.18 1.688 3.267.558 1.074 1.12 2.146 1.682 3.217.124.237.257.469.381.705.044.083.075.174.13.304-.595 0-1.147.003-1.698-.001-.65-.005-1.299-.01-1.947-.032-.093-.002-.225-.068-.267-.144-.304-.553-.59-1.116-.883-1.675l-1.4-2.67-.345-.663c-.058-.11-.118-.219-.18-.326-.047-.08-.168-.163-.257-.164-.997-.018-1.995-.024-2.992-.025-2.745-.003-5.49.001-8.236-.003-.64 0-1.279-.031-1.918-.028-.095 0-.233.09-.279.176-.728 1.395-1.445 2.796-2.161 4.198-.19.372-.362.754-.556 1.125-.037.071-.135.158-.205.159-1.234.01-2.467.007-3.761.007.105-.218.185-.393.272-.563.488-.96.973-1.92 1.469-2.876.827-1.596 1.669-3.185 2.49-4.784.796-1.552 1.57-3.115 2.363-4.668.607-1.188 1.236-2.365 1.846-3.551.85-1.654 1.694-3.31 2.539-4.967.305-.599.301-.605.968-.6zM15.17 39.89c.965.003 1.93.001 2.931.001 0 .878.004 1.721-.001 2.565-.003.444-.031.889-.033 1.334-.001.707.012 1.415.015 2.123.006 1.145.01 2.29.012 3.436.005 2.3.009 4.599.011 6.898.002 1.04.004 2.08-.002 3.12-.001.19.053.275.258.273 1.159-.014 2.317-.024 3.476-.027.81-.001 1.618.02 2.427.016.947-.003 1.893-.029 2.84-.03 2.53-.005 5.06-.002 7.59-.002.431 0 .43 0 .43.432 0 .565-.012 1.13.008 1.693.009.256-.067.329-.326.328-4.489-.007-8.978-.007-13.467-.004-1.506.001-3.012.017-4.518.025-.482.002-.964 0-1.445 0-.343 0-.372 0-.374-.28V41.707c0-.538.001-1.075-.002-1.613 0-.122.015-.205.17-.204zm86.384.001l12.154.038c1.536.004 3.071.009 4.607.011.119 0 .209.008.208.166-.005.753-.002 1.506-.002 2.297h-.803l-7.137-.01c-.711 0-1.423.002-2.135-.003-.628-.005-1.255-.024-1.883-.026-1.39-.004-2.78.006-4.17-.007-.256-.002-.312.078-.31.318.013 2.05.012 4.102.017 6.153.002.554.004.589.5.59h11.81v2.456h-12.294v.286c0 2.346.004 4.693-.007 7.039-.001.274.073.341.344.34 3.819-.009 7.637-.007 11.455-.004.895 0 1.79.024 2.684.025.576.002 1.153-.013 1.73-.03.172-.005.242.052.24.227-.005.653-.013 1.307.004 1.96.007.244-.076.297-.306.294-.893-.014-1.787-.004-2.68-.009-1.692-.008-3.384-.024-5.075-.03-1.373-.006-2.746-.002-4.12-.002h-7.714V39.89h2.883zm-29.468-.043c2.343.006 4.686.004 7.029.004 1.321 0 2.642-.004 3.964.002.775.003 1.55.017 2.326.036.658.015 1.328-.027 1.97.085.766.134 1.525.359 2.256.63.922.341 1.718.915 2.343 1.675.716.871 1.178 1.875 1.368 2.994.058.34.154.682.155 1.024.005 1.37-.391 2.612-1.2 3.737-.975 1.354-2.332 2.109-3.876 2.602l-.202.068c-.137.046-.155.109-.066.235.667.945 1.304 1.911 1.995 2.839 1.515 2.033 3.057 4.047 4.586 6.07.015.018.016.046.032.103-.098.006-.182.017-.266.017-1.171.001-2.343-.003-3.514.005-.172.001-.279-.054-.377-.19-1.12-1.551-2.248-3.096-3.367-4.647-1.01-1.398-2.008-2.805-3.022-4.2-.069-.096-.228-.179-.345-.18-2.844-.009-5.688-.003-8.531-.012-.264-.001-.284.119-.283.325.016 2.906.028 5.812.04 8.718 0 .052-.008.103-.015.182h-1.078c-.617 0-1.235-.012-1.851.006-.245.007-.295-.077-.295-.305.007-3.957.005-7.914.005-11.87v-3.387c0-1.776.002-3.551-.002-5.327 0-.322-.02-.645-.036-.967-.009-.183.046-.272.257-.272zm-19.35-.893c-1.306.025-2.585.184-3.83.606-1.323.448-2.534 1.095-3.61 1.974-.791.648-1.491 1.39-2.09 2.232-.735 1.033-1.286 2.144-1.645 3.356-.471 1.593-.556 3.207-.256 4.837.253 1.375.747 2.66 1.5 3.848.717 1.132 1.622 2.091 2.685 2.895.931.704 1.954 1.25 3.058 1.657 1.303.48 2.643.71 4.11.727.29-.013.667-.009 1.038-.05 1.713-.189 3.313-.708 4.813-1.573 1.268-.73 2.34-1.67 3.283-2.773.595-.694 1.052-1.482 1.434-2.302.408-.878.667-1.814.816-2.775.14-.891.146-1.786.047-2.678-.103-.928-.33-1.829-.658-2.706-.485-1.3-1.202-2.46-2.115-3.5-.689-.784-1.477-1.454-2.359-2.025-.867-.562-1.803-.972-2.778-1.282-1.115-.355-2.27-.49-3.444-.468zm80.79 4.182l-5.293 10.42h10.65l-5.358-10.42zM35.871 39.89l-.553 1.03-1.55 2.89c-.653 1.214-1.303 2.43-1.96 3.642-.055.1-.16.242-.244.244-.734.02-1.469.011-2.24.011.044-.129.077-.242.121-.352l2.345-5.842c.195-.486.384-.976.585-1.46.027-.066.11-.155.167-.156 1.09-.01 2.178-.007 3.329-.007zm78.686-3.474c.024 0 .047.01.088.077l-8.362 2.9-.033-.041c.22-.251.435-.506.66-.752.617-.677 1.235-1.354 1.861-2.022.076-.081.207-.155.312-.156 1.825-.01 3.65-.007 5.474-.006z"/>
</svg>
