<svg xmlns="http://www.w3.org/2000/svg" width="184" height="100" viewBox="0 0 184 100">
    <path fill-rule="evenodd" d="M170.939 29.484v42.461h-12.066V29.484h12.066zm-145.42 19.32c6.382 0 11.551 4.93 11.551 11.406 0 6.505-5.169 11.407-11.579 11.407-6.174 0-11.491-4.812-11.491-11.14 0-1.633.266-3.178.856-4.692.325-.862.857-1.723 1.418-2.466 2.245-2.97 5.524-4.515 9.246-4.515zm58.675 0c3.958 0 7.443 1.842 9.63 5.168.644.973 1.167 2.092 1.412 3.247l.066.348h-5.85c-.857-2.258-2.836-3.833-5.287-3.833-3.545 0-5.85 3.03-5.85 6.417 0 3.386 2.305 6.535 5.879 6.535 2.367 0 4.156-1.44 5.154-3.491l.104-.223h5.85c-1.271 5.2-5.762 8.645-11.05 8.645-6.35 0-11.52-4.99-11.52-11.437 0-6.446 5.11-11.376 11.462-11.376zm-33.65.415v4.931h-6.588v3.743h6.351v4.931h-6.35v8.377h-5.348V49.22h11.935zm13.47 0v4.931h-6.586v3.743h6.35v4.931h-6.35v8.377h-5.347V49.22h11.934zm52.913 0v4.931h-6.794v3.417h6.588v4.93h-6.588v3.773h6.794V71.2h-12.14V49.22h12.14zm7.712 0v17.05h6.47v4.932h-12.053V49.22h5.583zm12.911 0v17.05h6.469v4.932h-12.052V49.22h5.583zm19.32 0v4.931h-6.794v3.417h6.588v4.93h-6.588v3.773h6.794V71.2h-12.14V49.22h12.14zm-85.734 0v21.982h-5.583V49.22h5.583zm31.168 0v21.982h-5.583V49.22h5.583zM25.55 53.734c-3.575 0-5.967 2.97-5.967 6.417 0 3.505 2.392 6.535 6.026 6.535 3.515 0 5.878-3.09 5.878-6.446 0-3.416-2.363-6.506-5.937-6.506zm143.352 10.062h-1.865v1.909h1.865v-1.909zm-3.04-9.28V56.7c.801.364 1.373 1.048 1.373 1.965 0 1.334-1.165 2.195-2.416 2.195-1.25 0-2.37-.86-2.37-2.185 0-.858.511-1.562 1.262-1.91l.154-.065v-2.185c-.471.077-.933.288-1.328.552-1.229.816-1.91 2.119-1.91 3.598 0 2.372 1.822 4.281 4.204 4.281 2.381 0 4.225-1.931 4.225-4.304 0-1.975-1.273-3.652-3.194-4.127zm-1.02-9.237c-2.393 0-4.214 1.93-4.214 4.315 0 1.39.57 2.615 1.667 3.453.275.21.593.408.912.53.559.221 1.13.32 1.734.32 2.337 0 4.115-1.986 4.115-4.292 0-2.395-1.81-4.326-4.215-4.326zm.01 2.085c1.24 0 2.383.883 2.383 2.196 0 1.358-1.121 2.251-2.416 2.251-1.272 0-2.37-.893-2.37-2.228 0-1.336 1.142-2.219 2.404-2.219zm-43.7-18.209c4.964 0 9.294 3.832 9.294 8.943 0 1.916-.377 3.477-1.435 5.063.52.48 1.383.678 2.105.613l.177-.022v3.549c-.377.023-.73.047-1.106.047-1.365 0-3.106-.331-4.094-1.372-1.553.97-3.081 1.372-4.894 1.372-4.987 0-9.199-3.927-9.199-9.013 0-5.134 4.047-9.18 9.152-9.18zm15.201.331v10.576c0 1.585.259 3.335 2.26 3.335 2.025 0 2.201-1.573 2.21-3.175V29.486h4.447v10.576c0 2.082-.235 3.856-1.741 5.37-1.317 1.349-3.011 1.892-4.87 1.892-1.812 0-3.74-.52-5.011-1.869-1.51-1.61-1.725-3.045-1.74-5.12l-.001-.273V29.486h4.446zm-51.436 0v10.576c0 1.585.26 3.335 2.259 3.335 1.959 0 2.188-1.47 2.21-3.015l.001-.32V29.486h4.447v10.576c0 2.082-.236 3.856-1.741 5.37-1.318 1.349-3.012 1.892-4.87 1.892-1.812 0-3.74-.52-5.011-1.869-1.51-1.61-1.725-3.045-1.74-5.12l-.001-.273V29.486h4.446zm-14.824-.33c5.082 0 9.2 3.926 9.2 9.084 0 5.181-4.118 9.084-9.224 9.084-4.917 0-9.151-3.832-9.151-8.87 0-1.303.212-2.532.683-3.739.258-.686.681-1.372 1.129-1.963 1.787-2.367 4.399-3.597 7.363-3.597zm-17.105.33c2.093 0 4.07.024 5.576 1.704.729.804 1.034 1.797 1.034 2.886 0 1.49-.728 2.792-2.022 3.525 1.905.662 2.87 2.082 2.87 4.07 0 1.395-.518 2.885-1.6 3.808-1.714 1.473-3.298 1.514-5.414 1.515h-5.808V29.486h5.364zm57.789 0v17.508h-4.447V29.486h4.447zm46.093 0v3.927h-5.411v2.72h5.247v3.929h-5.247v3.004h5.411v3.928h-9.67V29.486h9.67zm-51.153 0v3.927h-3.411v13.58h-4.447v-13.58h-3.435v-3.927h11.293zm-87.271 0v13.58h5.153v3.694l6.895-17.274h3.505l6.916 17.508h-4.822l-.847-2.533h-6.047l-.917 2.533H14V29.486h4.446zm150.456 6.16h-8.12v2.691l5.343 1.6v.023l-5.344 1.622v2.681h8.121v-1.92l-6.08.066-.022-.021 6.102-1.744v-1.38l-6.102-1.743.022-.022 6.08.066v-1.92zm-63.042 8.501c.067 0 .133.004.197.01l-.101-.007-.104-.003zm15.35-11.065h-.034c-1.352 0-2.443.512-3.243 1.345l-.156.17-.035.04-.046.055c-.473.574-.822 1.272-1.046 2.043-.052.211-.13.547-.148.759-.028.23-.044.463-.044.699 0 2.022 1 3.845 2.653 4.697.621.336 1.317.531 2.041.531.618 0 1.236-.09 1.79-.335l.234-.114c1.078-.52 1.897-1.464 2.354-2.594.353-.726.47-1.538.47-2.351 0-2.531-1.618-4.507-3.996-4.88l-.226-.03-.066-.008-.08-.007c-.137-.011-.277-.02-.421-.02zm-51.093 0c-2.847 0-4.753 2.365-4.753 5.11 0 2.792 1.906 5.205 4.8 5.205 2.8 0 4.681-2.46 4.681-5.134 0-2.72-1.882-5.18-4.728-5.18zm-16 6.79h-2.235v3.194h2.211c1.106 0 2.094-.379 2.094-1.68 0-1.254-1.034-1.514-2.07-1.514zM32.28 34.928h-.07l-1.788 5.985h3.646l-1.788-5.985zM53.6 33.413h-1.717v2.72h1.694c.964 0 1.764-.283 1.764-1.395s-.823-1.325-1.741-1.325z"/>
</svg>
