<svg xmlns="http://www.w3.org/2000/svg" width="184" height="100" viewBox="0 0 184 100">
    <path fill-rule="evenodd" d="M141.946 0v99.946H42V0h99.946zm-2.812 2.812H44.812v94.322h94.322V2.812zM84.98 78.499c1.088.279 1.997.765 2.504 1.307l-1.07 1.554c-.172-.12-.313-.227-.46-.323-1.391-.913-2.899-1.224-4.52-.809-.66.17-1.18.553-1.385 1.251-.177.599-.008 1.12.565 1.356.634.263 1.31.435 1.978.603 1.087.271 2.202.444 3.27.774 1.178.365 2.002 1.141 2.107 2.458.13 1.63-.487 2.896-1.927 3.717-1.19.678-2.495.8-3.826.738-1.617-.075-3.11-.523-4.392-1.552-.087-.069-.172-.14-.254-.215-.04-.037-.072-.082-.14-.161l1.127-1.61c.234.19.426.368.639.516 1.541 1.079 3.24 1.382 5.065.975.564-.126 1.062-.408 1.398-.908.559-.835.33-1.676-.606-2.013-.647-.233-1.333-.363-2.005-.524-.97-.231-1.96-.39-2.908-.687-1.126-.355-1.994-1.03-2.184-2.31-.226-1.515.437-2.9 1.816-3.668 1.659-.925 3.42-.927 5.208-.469zm-15.815-.313c3.769.007 6.487 2.708 6.477 6.435-.01 3.78-2.75 6.503-6.532 6.49-3.755-.014-6.476-2.775-6.465-6.56.011-3.67 2.779-6.372 6.52-6.365zm35.416.274c.512.024 1.027-.01 1.539.018.14.008.349.122.4.242 1.73 4.018 3.443 8.042 5.158 12.067.007.018.012.037.017.065l.023.12c-.703 0-1.368.012-2.031-.012-.106-.004-.25-.15-.3-.264-.289-.659-.564-1.324-.823-1.996-.088-.229-.208-.31-.456-.308-1.859.01-3.718.011-5.576-.001-.274-.002-.385.105-.477.342-.249.646-.536 1.277-.78 1.924-.096.253-.233.33-.492.322-.608-.017-1.217-.006-1.887-.006.067-.185.11-.325.167-.458 1.657-3.898 3.32-7.794 4.967-11.695.117-.277.258-.374.551-.36zm28.276-.004v1.829h-6.726v3.392h5.275v1.855h-5.262v3.555h6.796v1.862h-8.846V78.456h8.763zm-16.717-.006v10.647h5.74v1.85h-7.708V78.45h1.968zm-16.675.007v1.818h-3.822v10.671h-1.986V80.301H89.82v-1.844h9.643zm-42.587 0c2.043.06 3.575 1.685 3.672 3.794.092 2.023-1.324 3.77-3.31 4.044-.546.075-1.104.078-1.657.086-.562.01-1.124.008-1.696.006l-.867-.002v4.55h-2.021V78.454c.088-.01.154-.026.22-.026 1.887.006 3.774-.026 5.659.03zm8.771 3.162c-1.53 1.943-1.213 5.203.69 6.651 1.49 1.136 3.155 1.257 4.828.492 1.714-.784 2.355-2.287 2.423-3.77.028-1.827-.571-3.2-1.618-4.036-1.884-1.505-4.86-1.193-6.323.663zm39.667-.939l-1.922 4.685-.474 1.157h4.793l-2.397-5.842zm-51.396-.38l-.88.004v4.204c1.212 0 2.405.071 3.586-.02 1.172-.091 1.937-1.043 1.893-2.142-.045-1.116-.873-1.988-2.023-2.033-.85-.033-1.703-.021-2.576-.014zm50.463-18.043c2.65 2.766 2.122 7.598-1.03 9.78-.274.19-.323.33-.182.627.386.81.74 1.637 1.141 2.535-.763 0-1.46.01-2.157-.014-.081-.003-.179-.186-.23-.303-.266-.62-.52-1.246-.785-1.882-1.26.233-2.485.225-3.69-.15-2.82-.877-4.595-3.516-4.366-6.57.204-2.725 1.516-4.74 4.141-5.637 2.663-.91 5.152-.48 7.158 1.614zm6.799-1.79v3.862l.003 3.351c0 .347.005.697.06 1.038.215 1.347 1.09 2.269 2.447 2.473.62.094 1.277.093 1.896-.003 1.409-.217 2.334-1.235 2.432-2.659.068-.98.041-1.968.045-2.953l.003-2.31-.001-2.312v-.478h2.048v.428c0 2.318.01 4.636-.008 6.953-.004.55-.05 1.114-.173 1.65-.425 1.837-1.61 2.961-3.415 3.425-1.244.319-2.503.322-3.748 0-2.168-.56-3.486-2.047-3.586-4.388-.096-2.226-.05-4.459-.033-6.718l.006-1.358h2.024zm-42.086-.024c.512.022 1.027-.012 1.538.018.138.008.336.134.39.257 1.713 3.98 3.413 7.964 5.114 11.95.031.073.046.153.084.282-.713 0-1.387.012-2.06-.014-.1-.004-.228-.17-.28-.29-.287-.66-.565-1.324-.824-1.996-.084-.218-.199-.284-.427-.283-1.873.009-3.746.01-5.618 0-.247-.002-.365.076-.454.307-.252.659-.546 1.302-.796 1.962-.096.252-.233.328-.492.32-.607-.017-1.215-.005-1.88-.005.069-.182.115-.322.173-.458 1.663-3.896 3.33-7.79 4.982-11.69.117-.276.257-.373.55-.36zm-11.42.021c1.607.02 2.854 1.043 3.186 2.543.32 1.445-.213 2.625-1.594 3.463.074.035.123.063.176.083 1.459.572 2.227 1.878 2.045 3.477-.173 1.516-1.283 2.649-2.811 2.854-.315.042-.636.063-.954.064l-3.143.003h-3.593V60.494c.095-.015.186-.043.277-.043l2.137-.002h2.138zm22.303-.016l.605.017c.125.007.264.176.36.298 2.14 2.747 4.273 5.497 6.41 8.247.08.103.161.204.284.359l.101.126V60.48h2.028v12.469c-.588 0-1.18.015-1.77-.014-.113-.005-.237-.17-.325-.284-2.214-2.864-4.424-5.73-6.635-8.597-.05-.065-.107-.126-.194-.225l-.072-.083v9.176h-2.006V60.45l.608-.003h.606zm52.882.027v1.806h-7.042v3.395h5.57v1.858h-5.572v3.553h7.114v1.85h-9.173V60.475h9.103zm-35.666 2.24c-2.03 1.22-2.696 4.18-1.483 6.414.914 1.684 3.087 2.515 4.667 2.025l-.764-1.834c.422 0 .773.045 1.11-.009.797-.13 1.288.145 1.443.958.01.052.052.098.09.167 1.866-1.312 2.338-4.408 1.004-6.438-1.26-1.914-4.039-2.502-6.067-1.283zm-43.19 4.846l-.963.004v3.531c.092.013.159.03.225.03 1.483-.001 2.966.01 4.45-.013 1.03-.016 1.686-.687 1.72-1.697.033-1.02-.598-1.802-1.626-1.837-1.261-.043-2.525-.026-3.805-.018zM69.81 62.66l-1.927 4.7-.475 1.157h4.841L69.81 62.66zm-16.524-.358c-.052 0-.105.008-.168.018l-.104.016v3.392c1.425 0 2.783.01 4.142-.003 1.046-.011 1.7-.667 1.717-1.684.016-1.025-.647-1.712-1.716-1.73l-1.29-.01-1.29-.001zm14.276-19.83c.527.016 1.055-.01 1.581.015.13.006.325.106.371.214 1.736 4.011 3.458 8.028 5.18 12.045.021.048.024.103.049.215-.673 0-1.297.013-1.92-.012-.118-.005-.284-.14-.336-.257-.293-.654-.568-1.317-.826-1.986-.092-.239-.205-.336-.475-.334-1.887.013-3.774.011-5.66.001-.258-.001-.386.067-.481.323-.244.659-.537 1.299-.795 1.953-.086.217-.186.328-.445.319-.595-.022-1.19-.007-1.835-.007.045-.151.07-.27.116-.378 1.684-3.944 3.372-7.887 5.05-11.833.091-.215.199-.286.426-.278zm-14.567.025v10.656h6.54v1.792h-8.51V42.497h1.97zm15.347 2.117l-1.95 4.752-.48 1.17h4.893l-2.463-5.922zm33.192-20.303c-.084.164-.115.254-.169.324-1.64 2.133-3.272 4.273-4.932 6.391-.731.933-1.619 1.723-2.824 1.93-.87.149-1.768.136-2.655.164-5.838.185-11.677.36-17.516.541-2.982.094-5.963.196-8.945.293-.172.006-.345.001-.518.001l-.023-.15 37.582-9.494zm25.706-7.126l-.477.165c-.08.026-.16.048-.241.065-4.37.894-8.75 1.744-13.11 2.68-9.466 2.03-18.864 4.35-28.24 6.755-9.119 2.34-18.235 4.69-27.352 7.037-.013.004-.027.01-.04.01l-.484-.027c.13-.101.245-.238.391-.298 5.285-2.145 10.586-4.25 15.853-6.436 2.482-1.03 4.899-2.217 7.108-3.776 1.138-.803 2.198-1.695 3.054-2.804.636-.824 1.139-1.707 1.12-2.787.84-.185 42.002-.86 42.418-.584zm-19.411-8.173c.588-.002 1.196.079 1.76.242 1.09.314 1.58 1.147 1.293 2.245-.165.63-.445 1.259-.798 1.808-.538.838-1.173 1.615-1.795 2.395-.103.129-.354.194-.537.196-3.996.051-7.992.09-11.989.13-3.732.04-7.465.083-11.197.109-.223.001-.493-.09-.664-.23-2.21-1.812-4.722-3.104-7.322-4.226-1.816-.783-3.68-1.458-5.521-2.182-.187-.074-.369-.16-.553-.24l.03-.125c1.177 0 2.354.004 3.53 0 11.255-.043 22.509-.092 33.763-.122z"/>
</svg>
