<svg xmlns="http://www.w3.org/2000/svg" width="184" height="100" viewBox="0 0 184 100">
    <path fill-rule="evenodd" d="M133.557 63.731c1.673.004 3.224.392 4.635 1.288.989.627 1.778 1.449 2.382 2.46.867 1.449 1.174 3.029 1.036 4.682-.137 1.636-.735 3.096-1.833 4.359-1.29 1.482-2.936 2.252-4.82 2.543-1.378.213-2.772.19-4.113-.247-1.004-.327-1.915-.833-2.72-1.55-1.026-.912-1.779-1.992-2.195-3.29-.774-2.409-.504-4.722.878-6.838 1.13-1.732 2.805-2.744 4.816-3.17.633-.135 1.289-.161 1.934-.237zm-77.672.071c1.8.086 3.414.672 4.814 1.845 1.307 1.095 2.111 2.49 2.434 4.132.457 2.317.056 4.489-1.404 6.397-1.216 1.59-2.85 2.488-4.808 2.822-1.544.263-3.077.279-4.572-.253-2.574-.916-4.173-2.758-4.912-5.353-.176-.618-.172-1.287-.25-1.933.008-2.338.895-4.27 2.62-5.791 1.154-1.017 2.526-1.64 4.076-1.787.664-.063 1.337-.11 2.002-.079zm94.84.655c.376.192.603.417.563.9-.054.638-.014 1.283-.014 2.012-.663-.665-1.367-1.113-2.191-1.365-.904-.276-1.79-.353-2.67.099-1.319.679-1.177 2.15-.177 2.875 1.152.835 2.396 1.543 3.591 2.32 1.054.684 1.772 1.634 2.001 2.877.403 2.18-.735 4.488-3.245 4.902-1.78.294-3.398-.148-4.886-1.123-.126-.083-.244-.28-.248-.428-.024-.837-.012-1.675-.012-2.518.502.442.96.881 1.454 1.271.745.587 1.644.796 2.56.886.95.094 2.043-.626 2.282-1.464.21-.735-.007-1.41-.558-1.883-.713-.612-1.505-1.135-2.275-1.679-.715-.504-1.493-.929-2.157-1.49-.867-.732-1.394-1.703-1.377-2.869.014-1.019.282-1.992 1.026-2.734.6-.6 1.355-1.002 2.186-1.154 1.433-.262 2.83-.111 4.148.565zm-76.51-.644c1.332.079 2.612.45 3.863.943.472.186.553.428.526.864-.034.562-.008 1.127-.008 1.738-.563-.27-1.084-.538-1.619-.773-.995-.437-2.04-.65-3.126-.743-.852-.072-1.671-.02-2.466.267-2.055.742-3.364 2.16-3.757 4.338-.345 1.906.086 3.63 1.477 5.009.932.923 2.107 1.405 3.428 1.563 2.17.258 4.1-.383 5.925-1.481.056-.034.114-.065.175-.09.021-.008.053.008.128.022 0 .73.008 1.446-.01 2.16-.002.104-.104.25-.2.299-1.023.526-2.1.907-3.242 1.056-.752.099-1.517.182-2.273.161-1.935-.053-3.71-.575-5.214-1.883-1.406-1.225-2.234-2.747-2.507-4.578-.338-2.263.208-4.32 1.636-6.086 1.16-1.436 2.716-2.32 4.54-2.625.894-.15 1.821-.214 2.724-.16zm-32.543.387c1.664.449 2.725 1.443 3.027 3.194.193 1.119.066 2.17-.598 3.097-.429.598-.985 1.085-1.732 1.342 1.198.93 2.015 2.12 2.785 3.359.733 1.177 1.53 2.314 2.298 3.469.063.095.121.194.207.332-.861 0-1.658.015-2.453-.013-.145-.005-.33-.155-.419-.289-.755-1.148-1.453-2.334-2.246-3.454-.542-.766-1.175-1.475-1.828-2.15-.67-.693-1.566-.544-2.446-.526v6.401h-2.22V64.04c1.126 0 2.238.054 3.343-.018.78-.05 1.529-.025 2.282.178zm-18.904-.314c.116.007.28.115.327.219.915 2.053 1.811 4.114 2.72 6.169.519 1.17 1.059 2.33 1.58 3.499.767 1.718 1.526 3.44 2.315 5.22-.727 0-1.373.01-2.018-.01-.117-.003-.287-.103-.335-.204-.53-1.12-1.042-2.25-1.557-3.377-.006-.012 0-.028-.005-.04-.257-.704-.272-.745-.93-.747h-5.7c-.599 1.411-1.19 2.81-1.79 4.203-.034.077-.155.165-.236.167-.682.013-1.364.007-2.139.007l6.443-15.116c.45 0 .889-.016 1.325.01zm136.622-.025c1.122.041 1.103.022 1.53 1.054.468 1.132.976 2.247 1.47 3.367.863 1.958 1.726 3.917 2.594 5.873.475 1.07.962 2.137 1.44 3.206.236.525.464 1.053.719 1.63-.74 0-1.422.008-2.105-.01-.08-.001-.189-.124-.232-.215-.587-1.258-1.17-2.518-1.743-3.782-.126-.276-.286-.383-.612-.38-1.95.021-3.901.01-5.85.01-.6 1.418-1.19 2.818-1.792 4.211-.036.082-.185.158-.283.16-.658.015-1.317.008-2.058.008.15-.39.273-.737.416-1.074 1.01-2.363 2.029-4.722 3.037-7.086.918-2.152 1.83-4.308 2.733-6.467.145-.346.31-.52.736-.505zm-151.253.097v12.954h6.74v2.081H6V63.958h2.137zm111.9.011c1.27.04 2.448.393 3.365 1.36.528.557.832 1.227.97 1.965.17.919.13 1.826-.231 2.712-.409 1-1.131 1.65-2.113 2.049-.925.375-1.888.452-2.874.416-.63-.023-1.26-.004-1.935-.004v6.507h-2.222V63.958h.383c1.552 0 3.106-.037 4.657.011zm-26.117.01v14.984h-2.203v-6.476h-8.24v6.481h-2.221v-14.98h2.202v6.476h8.24v-6.486h2.222zm11.707.011v1.936h-6.21v4.466h6.05v1.973h-6.055v4.564h6.458v2.037h-8.69V63.99h8.447zm61.53-.014c.149.006.315.203.428.348 1.21 1.554 2.411 3.115 3.65 4.721.28-.343.546-.66.803-.983 1.05-1.324 2.096-2.651 3.147-3.975.043-.055.115-.122.174-.123.819-.008 1.638-.005 2.587-.005-.302.404-.532.725-.774 1.035-1.389 1.78-2.78 3.557-4.172 5.333-.076.097-.165.185-.255.269-.34.316-.362.714-.36 1.15.017 2.395.008 4.789.008 7.215h-2.227v-.431c0-2.271-.012-4.542.01-6.813.004-.445-.092-.802-.374-1.15-1.208-1.493-2.401-2.998-3.594-4.504-.532-.672-1.051-1.356-1.63-2.103.917 0 1.75-.018 2.58.016zm-39.318 7.261c-.117 3.39 2.56 5.743 5.32 5.86 3.353.144 5.996-2.623 5.906-5.614.13-3.068-2.585-5.485-5.166-5.637-3.624-.214-5.968 2.72-6.06 5.391zm-72.711-5.38c-3.112-.076-5.644 2.548-5.634 5.655.01 3.098 2.419 5.46 5.342 5.58 3.42.141 5.903-2.605 5.935-5.572.033-3.106-2.571-5.746-5.643-5.662zm57.514 7.215v2.101h-5.306v-2.1h5.306zm-90.458-5.73l-2.131 5.19h4.438l-2.307-5.19zm137.454-.011l-2.139 5.197h4.442l-2.303-5.197zm-42.415-1.334v4.487c.886 0 1.724.007 2.562-.002.997-.01 2.05-.487 2.323-1.734.175-.798.003-1.884-.836-2.321-.383-.2-.816-.383-1.237-.411-.934-.061-1.874-.02-2.812-.02zm-78.95-.06v4.547c.564 0 1.097.006 1.63-.004.158-.003.316-.062.476-.075 1.237-.103 2.18-1.01 2.094-2.38-.056-.904-.504-1.602-1.356-1.893-.928-.317-1.881-.15-2.843-.195zM105.078 21v37.642H77.111V21h27.966z"/>
</svg>
