<svg xmlns="http://www.w3.org/2000/svg" width="128" height="21" viewBox="0 0 128 21">
    <path fill="#1A1919" fill-rule="evenodd" d="M93.6 6.652l-.644 3.217c-.744-.424-1.512-.487-2.302-.302-1.034.243-1.728.89-2.209 1.76-.566 1.025-.818 2.138-.85 3.279-.053 1.918-.037 3.837-.05 5.756v.438H84V6.634h3.534v2.279c1.515-2.154 3.465-2.976 6.066-2.261zM59.07 6.4c.301-.007.42.079.492.372.738 3.037 1.493 6.071 2.244 9.106.025.099.055.196.11.392.24-.924.455-1.753.672-2.581.603-2.314 1.212-4.627 1.804-6.943.067-.26.168-.35.447-.345 1.036.017 2.073.007 3.161.007-.039.145-.063.252-.096.357-1.463 4.58-2.929 9.16-4.384 13.744-.076.238-.19.292-.425.288-.814-.013-1.63-.018-2.443.002-.28.007-.381-.087-.449-.342-.74-2.813-1.493-5.623-2.243-8.433-.034-.13-.077-.257-.182-.384l-.712 2.657c-.546 2.043-1.097 4.085-1.63 6.132-.074.289-.196.379-.499.37-.813-.021-1.628-.013-2.443-.002-.21.003-.31-.057-.373-.261-.556-1.802-1.124-3.601-1.683-5.403-.035-.114-.054-.255-.02-.366.422-1.372.855-2.74 1.285-4.11l.081.008.972 2.762c.24.681.481 1.362.754 2.044l.285.682.178-.699c.059-.234.117-.467.174-.702.645-2.67 1.293-5.34 1.926-8.013.063-.267.174-.344.447-.338.85.018 1.7.02 2.55 0zm17.023.231c2.196.507 3.39 1.891 3.755 3.961.093.526.14 1.065.143 1.598.014 2.692.007 5.383.007 8.075v.284h-2.876l-.366-1.741-.318.332c-1.466 1.506-3.291 1.927-5.34 1.505-1.691-.348-2.81-1.662-3.045-3.305-.383-2.677 1.335-4.618 4.158-5.136 1.017-.186 2.08-.148 3.122-.2.362-.019.726-.004 1.118-.004 0-.383.04-.721-.007-1.048-.104-.727-.538-1.226-1.276-1.461-.673-.215-1.362-.24-2.052-.085-.844.19-1.34.737-1.637 1.513l-2.95-.628c.124-.353.21-.686.355-.993.795-1.68 2.235-2.533 4.094-2.813 1.044-.157 2.09-.09 3.115.146zm-53.759-.23c.95.017 1.9.006 2.882.006l2.365 9.736.069.01 2.504-9.75H33.6c-.09.3-.173.596-.265.888-1.366 4.35-2.735 8.7-4.092 13.053-.093.3-.211.421-.546.408-.776-.03-1.554-.02-2.33-.003-.26.006-.354-.08-.417-.326-.748-2.887-1.509-5.77-2.267-8.654-.016-.064-.04-.126-.06-.19l-.067-.01-1.27 4.877c-.352 1.348-.708 2.695-1.05 4.045-.058.227-.147.314-.397.309-.823-.019-1.647-.013-2.47-.003-.204.003-.306-.05-.371-.257-1.457-4.66-2.92-9.318-4.383-13.976-.01-.032-.008-.067-.015-.136.114-.007.222-.02.33-.02.94-.001 1.879.008 2.818-.006.25-.004.354.06.42.317.768 3.036 1.552 6.067 2.332 9.1.025.1.053.198.105.387.054-.154.088-.227.107-.304.742-3.054 1.487-6.108 2.22-9.165.057-.24.132-.342.402-.337zm-13.952.298c1.982.55 3.072 1.86 3.437 3.74.123.632.166 1.286.17 1.931.019 2.614.008 5.228.007 7.842 0 .109-.012.217-.02.359-.912 0-1.803.006-2.693-.011-.072-.002-.18-.15-.204-.244-.114-.477-.205-.959-.319-1.506-.126.128-.217.22-.306.313-1.471 1.521-3.305 1.95-5.368 1.518-1.714-.358-2.83-1.69-3.044-3.38-.348-2.76 1.501-4.582 4.18-5.062 1.03-.185 2.105-.147 3.16-.2.35-.017.701-.002 1.046-.002.28-1.708-.559-2.517-1.92-2.646-.417-.04-.85-.037-1.263.028-.91.143-1.458.711-1.77 1.538L.56 10.29c.23-1.116.785-2.007 1.678-2.707.932-.73 2.028-1.07 3.212-1.158.99-.074 1.975.007 2.933.273zM119.77 8.247c.109.126.196.27.306.422l-2.025 1.863c-.123-.129-.23-.254-.35-.365-.638-.587-1.375-.918-2.266-.792-.477.068-.819.333-.953.803-.136.48-.006.9.39 1.2.239.182.52.324.802.432.784.302 1.585.56 2.366.87.398.159.786.36 1.144.594 1.424.929 1.913 2.357 1.44 4.128-.53 1.989-2.251 3.291-4.484 3.392-2.397.109-4.728-1.326-5.675-3.49-.06-.136-.138-.251.065-.36.83-.441 1.653-.897 2.507-1.363.108.224.201.435.31.637.48.883 1.146 1.552 2.212 1.65.394.036.82-.033 1.201-.147.52-.156.749-.588.82-1.1.074-.519-.113-.938-.57-1.198-.401-.228-.83-.414-1.259-.591-.671-.278-1.367-.5-2.027-.8-1.979-.905-2.622-2.414-2.328-4.246.296-1.841 1.846-3.18 3.756-3.357 1.858-.172 3.404.42 4.618 1.818zM107.77 0v20.543h-3.458v-1.295c-.22.191-.432.382-.65.564-1.07.888-2.317 1.1-3.645.939-2.713-.33-4.492-1.829-5.19-4.492-.652-2.49-.616-4.978.504-7.348 1.302-2.755 4.768-4.048 7.467-2.806.528.243.994.623 1.51.953V0h3.461zM47.163 6.4c.955.018 1.91.007 2.865.008.103 0 .206.01.371.019l-1.098 3.435c-1.122 3.518-2.247 7.034-3.357 10.556-.093.294-.22.392-.536.381-.766-.025-1.534-.025-2.3 0-.316.01-.442-.078-.522-.384-.733-2.802-1.485-5.6-2.232-8.398-.034-.129-.078-.254-.182-.376l-.926 3.459c-.474 1.777-.955 3.552-1.414 5.333-.075.292-.206.372-.502.365-.814-.02-1.628-.014-2.441-.002-.215.003-.308-.066-.37-.266-.555-1.802-1.121-3.601-1.68-5.403-.032-.105-.057-.233-.026-.334.421-1.373.853-2.743 1.37-4.127l1.937 5.489h.081l2.36-9.748h2.625c.672 0 .67 0 .828.64l2.182 8.837c.025.099.058.195.112.38l.73-2.853c.57-2.227 1.142-4.453 1.704-6.681.06-.24.152-.335.421-.33zm78.511 9.44c1.356.008 2.33 1.03 2.325 2.443-.005 1.404-.993 2.423-2.35 2.421-1.368-.002-2.352-1.032-2.349-2.46.003-1.372 1.03-2.412 2.374-2.404zM8.46 14.726c-1.119.04-2.219.065-3.317.13-.243.015-.495.146-.71.273-.613.36-.88 1.158-.643 1.834.223.635.796.975 1.573.93.852-.05 1.605-.331 2.227-.892.661-.596.95-1.332.87-2.275zm64.949.104c-.353.017-.728.186-1.037.37-.575.343-.809 1.16-.578 1.792.223.612.796.949 1.555.9.233-.014.469-.042.695-.095 1.567-.364 2.554-1.588 2.406-2.985-1.029 0-2.037-.032-3.041.018zm27.875-6.027c-1.321.032-2.21.754-2.703 1.936-.697 1.674-.694 3.385.012 5.055.5 1.182 1.405 1.888 2.722 1.909 1.315.02 2.21-.668 2.782-1.821.41-.826.516-1.718.529-2.628-.014-.909-.116-1.802-.527-2.627-.58-1.165-1.48-1.857-2.815-1.824z"/>
</svg>
