<svg xmlns="http://www.w3.org/2000/svg" width="178" height="26" viewBox="0 0 178 26">
    <path fill-rule="evenodd" d="M65.712 13.597v2.961c0 .404.044.46.437.436.383-.023.77-.053 1.146-.124.819-.155 1.354-.684 1.72-1.395.33-.64.362-1.341.358-2.042-.004-.665-.038-1.332-.36-1.936-.283-.535-.696-.921-1.3-1.114-.54-.172-1.085-.118-1.63-.14-.318-.012-.37.045-.371.366v2.988zM15.085 4.672c2.92 2.875 5.842 5.75 8.768 8.62 1.292 1.267 2.594 2.524 3.893 3.784.28.273.28.272.012.537-1.321 1.311-2.634 2.63-3.963 3.933-1.395 1.368-2.818 2.71-4.199 4.093-.276.277-.532.366-.901.36-1.233-.018-2.467-.006-3.7-.006-1.345 0-2.69.001-4.034-.003-.094 0-.188-.043-.282-.065.054-.089.093-.193.165-.263.437-.432.885-.853 1.324-1.283 2.291-2.249 4.58-4.5 6.87-6.75.26-.255.26-.316-.004-.58-1.302-1.295-2.605-2.587-3.906-3.883-1.257-1.252-2.512-2.507-3.769-3.76-.169-.168-.345-.33-.517-.496-.144-.14-.14-.268.008-.414 1.287-1.273 2.57-2.55 3.851-3.83.144-.143.245-.13.384.006zm88.524 5.562c1.048.142 2.095.19 3.15.163.359-.009.718 0 1.078-.004.215-.003.32.11.325.31.008.323.02.648-.007.969-.008.101-.112.232-.208.281-.257.132-.533.227-.801.335-.17.068-.204.173-.137.344.48 1.232-.125 2.716-1.232 3.359-.714.415-1.502.486-2.295.539-.323.021-.65-.016-.975-.011-.115.001-.324.039-.328.076-.017.165-.023.367.062.495.074.113.268.191.418.206.526.053 1.057.073 1.586.105l.006-.08c.663.06 1.333.08 1.988.19 1.05.175 1.807.963 1.895 2.047.06.73-.011 1.43-.433 2.054-.353.522-.827.907-1.408 1.147-.423.174-.854.34-1.295.46-1.239.338-2.498.361-3.766.193-.803-.106-1.527-.384-2.098-.97-1.007-1.032-.668-2.75.724-3.267.136-.05.269-.108.401-.167.169-.076.184-.188.045-.31l-.37-.315c-.52-.464-.52-1.439.079-1.868.124-.089.236-.196.364-.28.224-.147.22-.281.011-.452-.263-.215-.543-.423-.75-.685-.479-.603-.547-1.325-.47-2.059.13-1.213.818-2.037 1.92-2.5.8-.335 1.664-.423 2.521-.305zm-.493 9.55l-.006.055c-.291 0-.588-.035-.872.01-.296.048-.628.11-.856.28-.247.184-.308.528-.203.844.102.31.32.51.65.586.735.17 1.469.083 2.191-.047.333-.06.653-.233.955-.398.265-.145.352-.418.29-.707-.061-.28-.296-.389-.552-.425-.53-.075-1.064-.133-1.597-.198zM17.231 0c-.078.155-.123.342-.24.458-2.02 1.999-4.05 3.989-6.077 5.98L8.903 8.411c-.263.256-.264.337.004.6.851.839 1.703 1.678 2.555 2.515 1.906 1.873 3.811 3.747 5.72 5.616.15.147.157.247.002.397-1.314 1.269-2.624 2.542-3.93 3.82-.157.154-.272.155-.43.002-2.17-2.115-4.349-4.22-6.515-6.34-2.038-1.993-4.063-4-6.093-6-.29-.284-.288-.325.003-.611C2.945 5.727 5.672 3.045 8.395.36 8.507.25 8.6.12 8.7 0h8.531zm158.94 10.855c.573.203.574.2.316.757-.015.031-.024.064-.036.096-.11.311-.17.34-.492.22-.663-.244-1.34-.435-2.051-.41-.4.013-.801.06-1.192.139-.396.081-.673.353-.77.741-.111.455-.009.889.414 1.143.47.285.964.541 1.47.754.786.33 1.602.596 2.299 1.105.342.25.6.575.778.963.049.107.144.194.218.29v1.072c-.07.09-.172.17-.205.27-.216.68-.72 1.093-1.334 1.363-1.156.51-2.369.45-3.58.243-.334-.058-.663-.163-.983-.275-.117-.041-.272-.157-.288-.259-.047-.29-.048-.59-.034-.885.006-.15.133-.15.254-.093.667.311 1.38.449 2.107.507.676.055 1.34.024 1.994-.217.763-.28.85-1.377.45-1.803-.371-.396-.826-.65-1.322-.848-.695-.278-1.398-.54-2.084-.839-.601-.261-1.072-.683-1.292-1.312-.229-.656-.152-1.296.251-1.872.612-.876 1.525-1.164 2.537-1.218.88-.047 1.74.073 2.575.368zm-59.265-.16c.572.259 1.006.662 1.294 1.223.332.648.42 1.34.419 2.054-.003 1.788-.001 3.576-.002 5.364 0 .395-.019.413-.424.412-.788 0-1.576 0-2.364.002-.345 0-.398-.046-.398-.4l.002-3.184c0-.53-.003-1.06-.007-1.591-.004-.362-.053-.731-.143-1.081-.155-.604-.705-.905-1.323-.818-.712.101-.924.561-1.113 1.234-.204.729-.188 1.483-.186 2.232.002.98 0 1.958 0 2.937 0 .532-.022.553-.542.553-.754 0-1.508.001-2.262-.001-.33 0-.373-.048-.373-.366v-4.24h-.002c0-1.421.003-2.843-.003-4.265 0-.208.07-.292.283-.29.6.008 1.199.007 1.798 0 .24-.001.379.08.428.335.046.231.139.455.228.675.071.175.253.171.418.012.202-.194.395-.403.62-.569.445-.327.972-.452 1.513-.498.73-.061 1.456-.04 2.14.27zm-25.733.016c.31.075.6.241.889.385.057.028.12.162.098.214-.215.527-.448 1.046-.673 1.569-.07.161-.158.19-.342.137-.654-.19-1.314-.364-1.98-.51-.224-.049-.473-.004-.71.013-.198.015-.346.118-.374.324-.028.202.082.34.26.425.286.134.573.264.86.396.602.276 1.225.516 1.803.838.65.362 1.126.887 1.115 1.695-.007.483.015.976-.075 1.446-.13.672-.544 1.18-1.158 1.509-.998.535-2.081.619-3.186.59-.827-.022-1.63-.174-2.426-.384-.22-.058-.285-.197-.286-.392-.004-.307-.001-.613-.001-.92 0-.297-.005-.595.001-.893.006-.278.121-.33.383-.22 1.06.445 2.154.715 3.318.58.051-.006.104-.007.153-.021.22-.063.402-.188.426-.423.023-.23-.143-.37-.339-.464-.752-.357-1.512-.698-2.254-1.075-.308-.157-.623-.346-.856-.594-.69-.73-.88-1.61-.631-2.575.32-1.239 1.285-1.688 2.424-1.879 1.201-.2 2.39-.055 3.561.229zm-10.446-.204c1.015.394 1.8 1.03 2.174 2.118.324.94.246 1.896.269 2.853.005.215-.146.278-.322.284l-.45.008h-2.145c-.814 0-1.628-.002-2.441 0-.358 0-.393.064-.336.41.108.66.868 1.251 1.499 1.325 1.15.136 2.246-.075 3.295-.551.235-.107.327-.048.327.218l-.002 1.405c0 .487-.091.635-.575.752-1.108.265-2.227.465-3.376.397-1.226-.073-2.331-.437-3.216-1.323-.591-.592-.924-1.318-1.062-2.134-.142-.838-.15-1.683-.002-2.516.225-1.264.78-2.342 1.947-3.003.642-.364 1.356-.505 2.09-.541.794-.04 1.585.01 2.326.298zm86.646-3.634c.24.017.48.007.72.007.177 0 .271.088.28.262.006.136.004.272.004.408v5.693h.001v5.871c0 .423-.028.441-.452.447-.682.01-.607-.06-.654-.544-.015-.145-.106-.283-.162-.425-.142.08-.302.14-.423.245-.999.864-2.155 1.048-3.411.79-.934-.19-1.63-.732-2.112-1.529-.362-.597-.51-1.271-.583-1.962-.088-.844-.068-1.688.1-2.516.22-1.083.76-1.962 1.747-2.551 1.291-.771 3.136-.592 4.208.453.073.07.127.164.207.225.053.041.15.078.202.057.046-.018.08-.122.08-.187-.011-1.488-.026-2.976-.043-4.464-.002-.204.074-.295.291-.28zm-17.555 3.849c.515.181.89.55 1.138 1.048.289.582.34 1.206.347 1.837.01.808.003 1.616.003 2.425h.002v2.986c0 .357-.06.419-.415.42-.52 0-.625-.113-.716-.73-.017-.116-.083-.224-.126-.335-.12.065-.272.104-.355.2-.99 1.159-2.262 1.31-3.664 1.056-.682-.124-1.157-.516-1.519-1.072-.262-.403-.363-.857-.375-1.331-.02-.804.241-1.495.905-1.983.537-.394 1.164-.628 1.819-.708.933-.113 1.874-.16 2.813-.227.336-.025.438-.1.415-.436-.027-.388-.063-.78-.148-1.16-.144-.645-.673-1.048-1.555-1.09-.537-.025-1.086.082-1.621.175-.27.047-.524.194-.783.298-.317.127-.432.074-.536-.238-.04-.12-.106-.232-.15-.352-.065-.184-.008-.307.187-.377.304-.11.594-.264.904-.348.436-.117.881-.21 1.328-.272.714-.097 1.426-.025 2.102.214zm-12.42.049c.265-.014.392.126.46.353.354 1.171.72 2.34 1.06 3.515.31 1.077.592 2.163.893 3.243.02.067.102.116.154.173.05-.06.129-.112.146-.18.27-1.046.533-2.092.794-3.14.307-1.229.612-2.458.911-3.689.04-.165.124-.26.293-.264.266-.007.531-.008.797-.004.176.002.25.095.201.268-.148.532-.302 1.063-.448 1.596-.163.598-.32 1.198-.478 1.798-.091.344-.174.69-.269 1.034-.329 1.186-.664 2.371-.991 3.559-.154.557-.16.596-.662.599h-.296c-.163 0-.326-.006-.488.002-.23.01-.343-.111-.406-.313-.285-.907-.575-1.812-.86-2.72-.282-.9-.565-1.798-.836-2.701-.108-.357-.172-.728-.285-1.083-.029-.094-.156-.2-.251-.214-.063-.01-.192.122-.219.212-.182.61-.333 1.229-.516 1.838-.257.854-.532 1.703-.8 2.553-.223.704-.447 1.408-.672 2.111-.068.214-.22.316-.445.315-.282 0-.565-.006-.848.002-.21.006-.345-.086-.405-.281-.087-.284-.17-.57-.248-.857-.249-.926-.49-1.855-.74-2.78-.17-.624-.35-1.244-.523-1.866-.244-.875-.493-1.75-.73-2.627-.095-.355-.012-.447.353-.447.197 0 .395.008.591-.003.266-.016.391.128.45.36.285 1.112.57 2.223.852 3.335.286 1.128.566 2.257.856 3.384.02.075.104.135.159.202.055-.073.141-.14.16-.22.147-.655.299-1.304.56-1.93.216-.515.341-1.067.513-1.6.178-.558.365-1.114.547-1.67.168-.517.347-1.031.496-1.553.063-.222.18-.311.4-.307.256.005.514.01.77-.003zM56.724 7.39c1.108 0 2.09.16 3.026.545.091.037.207.194.192.273-.052.281-.146.556-.25.823-.018.044-.189.074-.262.044-.794-.323-1.628-.446-2.476-.488-.617-.03-1.208.08-1.764.36-.57.289-.905 1.07-.798 1.826.092.655.442 1.117 1.036 1.39.828.38 1.677.718 2.495 1.119.541.264 1.099.543 1.55.93.753.64 1.035 1.519.944 2.502-.11 1.192-.785 1.967-1.847 2.463-.787.367-1.619.46-2.472.452-.849-.01-1.693-.06-2.515-.292-.196-.055-.39-.13-.568-.23-.07-.04-.119-.166-.126-.257-.019-.254-.016-.51-.012-.766.003-.192.084-.289.295-.206.844.332 1.727.49 2.628.539.667.037 1.332.004 1.973-.231 1.269-.465 1.582-2.173.56-3.046-.474-.404-1.023-.67-1.588-.917-.763-.336-1.545-.642-2.273-1.043-1.203-.662-1.727-2.178-1.405-3.467.222-.888.767-1.537 1.577-1.94.678-.336 1.426-.398 2.08-.383zm-9.142-.034c1.006.036 1.977.203 2.913.572.204.08.258.203.191.398-.062.185-.129.368-.188.554-.066.208-.2.262-.397.185-.83-.326-1.696-.47-2.583-.48-.626-.007-1.228.113-1.757.472-.368.248-.582.591-.608 1.04-.025.432-.057.865.139 1.276.175.368.482.6.832.765.809.382 1.632.735 2.445 1.109.738.34 1.48.682 2.005 1.334.635.789.713 1.687.483 2.634-.263 1.08-1.055 1.679-2.017 2.085-.553.233-1.155.307-1.756.321-1.004.024-2.004-.002-2.978-.286-.18-.053-.35-.134-.524-.208-.037-.015-.092-.051-.093-.08-.014-.36-.025-.72-.012-1.078 0-.022.211-.074.31-.05.48.116.949.287 1.434.376.888.164 1.792.214 2.68.026 1.349-.285 1.838-1.446 1.417-2.56-.094-.248-.314-.463-.513-.654-.439-.419-.994-.647-1.544-.885-.763-.331-1.54-.643-2.265-1.046-.855-.477-1.33-1.265-1.447-2.23-.087-.718-.035-1.427.391-2.062.522-.779 1.233-1.26 2.168-1.39.423-.06.85-.093 1.274-.138zm-8.564.068c.691.101 1.387.183 2.073.312.305.058.595.204.886.324.155.064.188.168.083.325-.121.183-.225.381-.307.584-.074.18-.19.235-.362.189-.338-.092-.67-.2-1.009-.288-.937-.244-1.874-.256-2.813.011-1.058.301-1.789.976-2.3 1.925-.413.769-.56 1.598-.594 2.454-.038.944.074 1.869.422 2.755.522 1.327 1.471 2.134 2.908 2.347.94.14 1.86.05 2.774-.18.231-.057.466-.105.698-.16.141-.034.219.022.223.163.006.255.03.514-.005.764-.015.103-.146.241-.25.27-.451.13-.908.29-1.37.318-.86.051-1.737.114-2.584 0-1.642-.22-2.898-1.063-3.625-2.593-.644-1.355-.762-2.784-.65-4.256.05-.66.162-1.303.444-1.9.617-1.31 1.503-2.364 2.908-2.904.787-.303 1.598-.43 2.44-.383l.01-.077zm23.76.243c1.576.017 3.155-.034 4.725.065 1.636.104 3.078.718 4.094 2.077.384.514.627 1.097.799 1.722.202.734.265 1.474.228 2.223-.085 1.696-.577 3.232-1.913 4.387-.742.642-1.621 1.02-2.585 1.217-1.63.333-3.278.159-4.919.197-.861.02-.753.075-.754-.747-.002-1.736 0-3.473 0-5.21h-.004c0-1.863.003-3.728-.003-5.592-.001-.245.097-.34.333-.339zm62.655.009c.215-.011.362.103.444.316.333.871.68 1.737 1.017 2.607.251.649.49 1.302.742 1.951.227.585.462 1.166.694 1.748l.78 1.964.788 1.987c.144.363.289.725.431 1.088.056.14-.004.219-.148.22-.36.005-.722.025-1.077-.012-.114-.012-.258-.165-.308-.286-.298-.722-.573-1.453-.854-2.182-.127-.332-.255-.665-.376-1-.084-.232-.235-.319-.488-.313-.685.016-1.37.005-2.055.005s-1.37.006-2.055-.004c-.272-.004-.412.104-.506.363-.245.678-.522 1.344-.785 2.015-.155.395-.316.789-.457 1.189-.057.164-.142.236-.315.23-.24-.008-.479.002-.719-.002-.247-.005-.302-.068-.218-.296.161-.438.339-.87.513-1.304.256-.638.516-1.274.774-1.911.335-.826.672-1.651 1.004-2.478.237-.59.466-1.185.704-1.775.336-.834.678-1.666 1.013-2.5.173-.433.335-.87.502-1.306.013-.032.017-.068.035-.095.239-.35.603-.203.92-.22zm-31.08 2.715c.788.003 1.575.004 2.362.003.37 0 .429.06.428.43v8.317c0 .39-.028.418-.423.418h-2.362c-.337.001-.387-.045-.387-.38v-2.093l-.001-6.327c0-.304.07-.369.384-.368zm64.711.125c.185.024.233.156.207.32-.036.218-.08.435-.12.653-.034.183-.132.24-.327.228-.51-.032-1.016-.07-1.518.128-.662.26-1.106.724-1.423 1.329-.281.538-.387 1.12-.385 1.724.003 1.413 0 2.826 0 4.238 0 .396-.032.427-.418.423-.163-.002-.326-.002-.488 0-.373.005-.406-.026-.407-.407v-1.812-6.255c0-.375.03-.406.411-.402.579.007.58.007.669.571.029.185.03.375.075.556.027.109.11.204.168.306.093-.059.216-.097.276-.18.34-.467.727-.876 1.253-1.144.646-.328 1.327-.365 2.027-.276zm4.875 1.11c-.619.056-1.084.383-1.446.87-.38.511-.572 1.093-.664 1.717-.15 1.032-.1 2.043.217 3.047.251.794.896 1.106 1.598 1.274.469.112.994.096 1.477.022.889-.137 1.543-.654 1.736-1.487.14-.601.19-1.223.278-1.829-.085-.626-.15-1.234-.255-1.836-.093-.536-.377-.988-.793-1.333-.628-.523-1.388-.516-2.148-.446zm-14.493 3.576c-.546.042-1.098.04-1.637.122-.509.076-1.029.18-1.5.375-.684.283-.961.964-.839 1.737.097.612.666 1.098 1.327 1.145.356.025.717.024 1.073-.004.6-.048 1.083-.338 1.47-.789.45-.523.557-1.15.551-1.811v-.383c-.004-.373-.064-.42-.445-.392zm-46.267-3.31c-.412-.016-.678.15-.867.501-.218.405-.209.84-.172 1.27.023.263.097.534.208.774.232.5 1.15.546 1.44.094.238-.373.36-.765.387-1.216-.07-.295-.117-.597-.216-.881-.123-.353-.387-.526-.78-.542zm21.794-2.481c-.057.073-.14.139-.166.222-.1.315-.167.641-.273.954-.167.488-.357.97-.535 1.455-.263.716-.522 1.434-.788 2.149-.09.243-.022.354.244.355.513.003 1.027.001 1.54.001v-.003c.453 0 .907-.006 1.36.002.616.011.61-.048.394-.635l-.988-2.644c-.205-.556-.395-1.12-.603-1.675-.028-.073-.122-.121-.185-.181zm-47.492 4.164c-.03.212.045.307.256.306h1.08l1.079-.001c.147 0 .275-.029.296-.21.052-.436-.428-1.125-.744-1.225-.89-.279-1.836.208-1.967 1.13zM95.83 6.62c.417.026.794.096 1.084.426.18.207.314.43.293.712-.022.294-.004.605-.099.875-.167.472-.618.604-1.062.694-.19.038-.392.024-.588.033l-.009.036c-.274-.05-.563-.058-.818-.154-.59-.224-.688-.877-.632-1.501.03-.352.162-.65.476-.828.417-.236.869-.322 1.355-.293z"/>
</svg>
