<svg xmlns="http://www.w3.org/2000/svg" width="129" height="22" viewBox="0 0 129 22">
    <path fill-rule="evenodd" d="M90.267 4.931c1.564.178 2.965.738 4.213 1.69.352.27.396.479.075.822-.53.57-1.022 1.18-1.505 1.791-.226.287-.397.272-.673.062-1.368-1.037-2.893-1.517-4.623-1.2-1.541.283-2.582 1.244-3.222 2.577-.817 1.7-.727 3.442.244 5.067 1.07 1.791 2.763 2.412 4.778 2.178.7-.081 1.384-.348 2.055-.586.372-.132.585-.426.537-.88-.044-.42-.02-.848-.003-1.272.014-.331-.125-.454-.453-.45-.857.011-1.715-.01-2.572.01-.36.008-.489-.116-.48-.47.018-.662.014-1.325-.003-1.987-.009-.349.132-.493.482-.492 1.989.005 3.978.007 5.967-.003.364-.002.427.185.425.48-.006.985-.002 1.97-.002 2.955.001.951-.003 1.903.004 2.854.002.322-.086.547-.367.774-2.252 1.814-4.853 2.48-7.679 2.155-2.136-.247-4-1.176-5.34-2.905-.982-1.266-1.603-2.693-1.703-4.323-.089-1.447.051-2.865.66-4.18.595-1.287 1.482-2.367 2.659-3.219 1.974-1.427 4.18-1.715 6.526-1.448zm36.941 1.652c.307.207.325.37.115.653-.434.587-.847 1.19-1.258 1.793-.195.287-.365.363-.707.148-1.277-.8-2.626-1.409-4.198-1.232-.55.061-1.046.214-1.371.742-.336.546-.27 1.336.295 1.666.507.297 1.075.511 1.64.686 1.607.5 3.297.775 4.714 1.765.957.67 1.503 1.567 1.608 2.747.157 1.767-.328 3.268-1.795 4.349-1.17.86-2.537 1.145-3.974 1.12-2.344-.04-4.475-.693-6.321-2.164-.118-.093-.266-.149-.4-.222v-.305c.425-.422.892-.812 1.269-1.273.737-.902.73-.938 1.683-.312 1.122.735 2.312 1.26 3.677 1.24.524-.008 1.06-.088 1.564-.225.593-.16.866-.659.853-1.346-.01-.625-.374-1.099-1.078-1.319-1.188-.372-2.389-.708-3.579-1.075-1.049-.324-2.074-.707-2.813-1.572-.876-1.024-1.07-2.206-.905-3.518.123-.979.554-1.779 1.187-2.478.707-.78 1.662-1.2 2.676-1.399 2.583-.505 4.949.076 7.118 1.531zm-115.556 0c.308.207.325.37.116.653-.435.587-.848 1.19-1.259 1.793-.195.287-.364.363-.707.148-1.276-.8-2.626-1.409-4.197-1.232-.55.061-1.047.214-1.372.742-.335.546-.27 1.336.295 1.666.507.297 1.076.511 1.64.686 1.607.5 3.297.775 4.714 1.765.957.67 1.503 1.567 1.608 2.747.158 1.767-.327 3.268-1.794 4.349-1.17.86-2.538 1.145-3.975 1.12-2.343-.04-4.475-.693-6.321-2.164-.117-.093-.266-.149-.4-.222v-.305c.426-.422.892-.812 1.27-1.273.736-.902.729-.938 1.683-.312 1.121.735 2.311 1.26 3.677 1.24.523-.008 1.058-.088 1.563-.225.593-.16.866-.659.854-1.346-.012-.625-.375-1.099-1.078-1.319-1.189-.372-2.39-.708-3.58-1.075-1.049-.324-2.074-.707-2.813-1.572C.701 11.423.506 10.241.672 8.93c.123-.979.553-1.779 1.186-2.478.708-.78 1.663-1.2 2.676-1.399 2.584-.505 4.95.076 7.118 1.531zm42.63-1.486c2.04.017 4.08.008 6.12.008v.013c2.022 0 4.045.01 6.067-.009.389-.004.52.115.514.49-.011.712-.005 1.426.022 2.138.013.36-.092.532-.486.526-1.268-.02-2.537.002-3.804-.039-.416-.013-.55.1-.548.499.01 3.667.004 7.334.018 11.002v.353c-.009.678-.111.676-1.028.694-.7.013-1.4.06-2.1.048-.12-.003-.322-.22-.337-.356-.051-.436-.04-.88-.04-1.322.001-3.43-.004-6.86.019-10.29.003-.502-.161-.629-.649-.614-1.216.036-2.434.003-3.65.026-.427.008-.572-.137-.554-.56.03-.712.01-1.426.007-2.14 0-.288.053-.47.429-.467zm-5.067-.075c.166.007.403.172.472.324.868 1.916 1.726 3.837 2.556 5.77 1.261 2.938 2.497 5.888 3.747 8.831.356.836.362.833-.53.833-.755.001-1.51-.011-2.263.013-.328.01-.505-.11-.62-.402-.336-.852-.696-1.694-1.027-2.547-.154-.398-.393-.583-.846-.578-1.714.02-3.428.012-5.143.011h-.279c-.798.009-.818.096-1.148.992-.257.697-.561 1.378-.834 2.07-.122.309-.332.448-.668.448-2.022-.005-4.046.013-6.068-.021-.23-.004-.522-.24-.67-.448-.773-1.097-1.51-2.22-2.257-3.336-.236-.352-.445-.722-.698-1.061-.074-.1-.252-.169-.386-.174-.667-.024-1.336-.02-2.005-.03-.354-.004-.473.18-.471.514.007 1.307-.023 2.615.008 3.921.012.508-.183.65-.658.635-.77-.026-1.543-.027-2.314 0-.418.014-.53-.156-.528-.539.01-2.445.005-4.89.005-7.335h-.005c0-2.428.007-4.856-.007-7.284-.002-.391.105-.53.523-.526 2.366.02 4.732-.003 7.097.018 1.211.011 2.404.237 3.422.9 1.194.78 1.953 1.915 2.108 3.343.133 1.22.142 2.47-.56 3.552-.368.566-.882 1.049-1.38 1.519-.264.25-.636.386-.953.584-.327.203-.217.464-.059.701.65.974 1.31 1.943 1.968 2.912.22.323.44.646.676.957.28.367.522.337.699-.07 1.307-3.02 2.616-6.04 3.92-9.062.732-1.696 1.445-3.4 2.194-5.09.073-.165.334-.342.515-.35.821-.036 1.646-.03 2.467.005zm54.285.076c3.566.009 7.133.02 10.7.008.419-.001.547.136.538.523-.015.645-.022 1.291.005 1.936.018.45-.114.618-.609.611-2.4-.03-4.801-.02-7.202-.02-.674.001-.678.016-.68.693 0 .663.009 1.325-.009 1.987-.008.291.075.45.39.464.358.016.715.08 1.072.08 1.8.01 3.601.017 5.402-.003.472-.006.645.152.622.62-.03.61-.02 1.222 0 1.833.015.435-.148.598-.6.594-2.058-.018-4.116-.008-6.173-.01-.66 0-.703.036-.707.685-.004.68.014 1.36-.013 2.037-.018.454.13.634.615.63 1.634-.012 3.27-.01 4.904-.009h2.453c.611 0 .648-.007.65.531v.115c.001.646-.002 1.291.01 1.936.008.334-.145.44-.468.44-3.635-.005-7.27-.01-10.906.01-.524.003-.671-.167-.666-.677.024-2.378.01-4.756.01-7.134h-.005V5.743c0-.634.023-.647.667-.645zm-2.59 5.337c-.02 1.629-.008 3.258-.008 4.887-.001 1.629-.012 3.258.007 4.887.004.409-.115.587-.547.576-.822-.022-1.645-.02-2.467-.01-.334.004-.446-.127-.446-.454.003-3.343-.001-6.685-.014-10.028-.002-.34.142-.447.46-.443.805.008 1.611.02 2.416-.005.445-.014.604.144.599.59zM13.122 5.1c2.039.016 4.078.008 6.117.008v.009c2.021 0 4.043.01 6.065-.01.372-.002.486.127.481.469-.011.746-.011 1.493 0 2.24.006.29-.076.443-.4.44-1.25-.01-2.502.008-3.752-.016-.639-.012-.682-.017-.683.614-.006 2.206-.001 4.412 0 6.618 0 1.544.005 3.089 0 4.633-.002.661-.028.677-.698.675-.736-.002-1.473-.016-2.21.005-.444.013-.59-.15-.588-.597.017-3.7.012-7.399.014-11.098 0-.855.002-.852-.878-.846-1.131.008-2.262-.002-3.393.018-.393.006-.559-.129-.547-.53.021-.729.013-1.459.013-2.189 0-.307.106-.446.459-.443zm66.104-.011c.306-.001.45.112.45.41-.002.764-.006 1.529-.006 2.293 0 .315-.17.39-.464.388-2.47-.016-4.938-.012-7.407-.033-.48-.005-.676.14-.645.644.042.694.032 1.392.006 2.088-.016.436.14.528.572.522 2.126-.03 4.253-.012 6.379-.02.394-.001.548.152.534.55-.024.662-.022 1.325.005 1.986.015.384-.13.505-.506.502-2.109-.012-4.218-.004-6.327-.01-.604-.002-.65.035-.645.617.006.747.01 1.495-.007 2.242-.008.36.091.5.497.498 2.469-.018 4.938-.003 7.408-.001.672 0 .679 0 .678.687 0 .577-.04 1.157.002 1.731.036.494-.17.602-.621.6-3.31-.01-6.62-.003-9.93-.001l-.72-.003c-.72-.002-.73-.002-.732-.738-.006-2.378-.003-4.756-.003-7.134 0-2.412.01-4.824-.01-7.235-.004-.452.136-.57.586-.57 3.635.012 7.27 0 10.906-.013zM47.914 9.492c-.08.093-.185.174-.235.28-.165.352-.315.711-.463 1.07-.393.954-.776 1.911-1.175 2.862-.175.416-.033.56.394.547.48-.016.959-.004 1.438-.004v.005c.497 0 .995-.02 1.49.007.395.02.484-.165.424-.494-.03-.167-.056-.338-.117-.494-.288-.724-.586-1.445-.884-2.165-.188-.454-.375-.908-.584-1.352-.05-.108-.19-.176-.288-.262zM30.455 8.21c-.285-.002-.398.11-.392.395.012.628.003 1.257.003 1.885h.01c0 .611.01 1.223-.003 1.834-.006.311.078.473.435.461 1.199-.039 2.398-.043 3.597-.084.957-.033 1.809-.657 2.075-1.48.302-.936.083-1.922-.708-2.473-.423-.295-1-.475-1.52-.508-1.161-.075-2.33-.022-3.497-.03zm67.496-3.105c.822.026 1.646-.011 2.468.019.163.006.455.189.459.298.035 1.047.02 2.095.02 3.094-.894.046-1.673.071-2.449.13-.829.061-1.073-.21-1.01-1.05.049-.659.026-1.324.011-1.985-.007-.362.104-.519.501-.506zM74.601.007c.893.354 1.771.747 2.727 1.159-.645.59-1.29 1.067-1.79 1.663-.721.86-1.594 1.132-2.665.99-.251-.033-.51-.01-.765-.023-.039-.002-.075-.061-.155-.13.476-.75.952-1.504 1.431-2.256.255-.399.5-.806.783-1.185.09-.12.331-.259.434-.218z"/>
</svg>
