<svg xmlns="http://www.w3.org/2000/svg" width="93" height="28" viewBox="0 0 93 28">
    <path fill="#1A1919" fill-rule="evenodd" d="M44.835.005c2.794.087 4.413 1.545 5.557 3.873.555 1.13 1.115 2.256 1.81 3.66.736-1.467 1.335-2.674 1.943-3.875 1.218-2.405 3.021-3.688 5.84-3.644 6.403.101 12.808.032 19.213.032 3.576 0 6.026 2.447 6.043 6.033v1.555c2.476-.098 4.848.134 6.277 2.279.779 1.168 1.422 2.661 1.477 4.034.076 1.917-.688 3.877-2.455 4.845-1.54.843-3.351 1.18-5.251 1.81-.003.05-.042.467-.045.883-.034 3.758-2.492 6.4-6.237 6.46-5.085.081-10.171.049-15.257.008-2.408-.019-3.734-.901-5.618-3.383-1.095.917-2.073 2.071-3.311 2.708-3.03 1.557-6.524.287-8.178-2.784-.69-1.283-1.3-2.61-2.101-4.23-.751 1.52-1.357 2.814-2.021 4.077-1.514 2.877-4.224 4.113-7.319 3.347-1.806-.448-3.06-1.619-3.905-3.244-.872-1.676-1.696-3.377-2.368-4.72-3.048.171-5.867.331-8.85.5.133 2.56-.316 5.018-2.603 6.48-1.095.699-2.528 1.193-3.81 1.196-3.69.008-5.52-2.382-6.217-7.796-2.418.18-4.78-.242-6.203-2.424-.733-1.123-1.13-2.617-1.23-3.978-.143-1.94.689-3.769 2.367-4.732 1.484-.852 3.258-1.186 5.13-1.826.064-.537.113-1.476.296-2.388.579-2.867 2.836-4.708 5.705-4.71C18.79.05 24.064.117 29.336.025c2.657-.046 4.34 1.237 5.514 3.45.664 1.252 1.264 2.538 2.023 4.069.677-1.365 1.268-2.52 1.827-3.69C39.94 1.255 41.83-.09 44.835.006zm11.94 7.83c-1.483 2.982-2.955 5.969-4.531 9.152-1.878-3.793-3.645-7.353-5.403-10.917l-.14-.284c-.448-.895-.944-1.71-2.167-1.691-1.27.02-1.73.947-2.2 1.912-1.245 2.558-2.511 5.107-3.775 7.657-.536 1.08-1.087 2.152-1.702 3.366-1.93-3.902-3.788-7.585-5.571-11.305-.567-1.183-1.352-1.663-2.654-1.649-4.662.052-9.325.02-13.987.02-2.304.001-2.88.592-2.893 2.98-.008 1.553-.002 3.106-.002 4.732-1.878 0-3.57-.015-5.263.005-1.395.017-2.35.88-2.37 2.089-.019 1.23.888 2.023 2.369 2.035 1.723.014 3.446.004 5.265.004v4.585c.003 2.212.684 3.235 2.141 3.218 1.376-.016 2.06-1.063 2.062-3.163v-4.64h1.697c2.543 0 5.087.008 7.63-.005 1.134-.006 1.908-.548 2.071-1.715.148-1.054-.258-1.89-1.306-2.244-.432-.146-.92-.16-1.384-.162-2.857-.014-5.715-.007-8.64-.007V8.23c3.851 0 7.566-.03 11.278.045.394.008.926.553 1.14.979 2.14 4.231 4.24 8.483 6.314 12.747.468.963 1.026 1.752 2.177 1.712 1.065-.037 1.6-.772 2.048-1.698 1.786-3.698 3.633-7.366 5.539-11.209.295.562.518.965.722 1.376l3.322 6.718c.555 1.12 1.113 2.237 1.675 3.352.982 1.946 2.779 2.004 3.912.158.222-.362.4-.753.587-1.137 1.918-3.918 3.874-7.818 5.72-11.77.482-1.03 1.065-1.319 2.148-1.302 4.238.067 8.477.028 12.715.028h1.666v3.578h-1.566c-3.72 0-7.44-.006-11.161.002-1.794.004-2.589.738-2.634 2.574-.056 2.283-.056 4.569-.001 6.852.042 1.753.812 2.506 2.564 2.517 4.804.029 9.607.026 14.41.003 1.792-.009 2.468-.734 2.476-2.518.008-1.742.002-3.484.002-5.3 2.025 0 3.86.02 5.693-.007 1.159-.017 1.983-.713 1.97-1.805-.01-.697-.59-1.5-1.13-2.032-.323-.318-1.06-.264-1.614-.275-1.622-.031-3.245-.011-4.92-.011l.001-1.348V6.73c-.003-2.014-.604-2.63-2.598-2.632l-7.841-.013c-2.614-.003-5.228 0-7.841.021-4.555.037-3.781-.767-6.02 3.73zM77 16v3H66v-3h11z"/>
</svg>
