<svg xmlns="http://www.w3.org/2000/svg" width="100" height="20" viewBox="0 0 100 20">
    <path fill-rule="evenodd" d="M52.837 0c.114-.002.173.028.098.15-.103.171-.204.343-.301.516-.027.048-.039.103-.064.174.276-.114.521-.224.773-.316.529-.193 1.07-.32 1.632-.405.682-.105 1.363-.107 2.045-.077.418.018.835.109 1.246.197.32.069.64.164.945.281 1.198.457 2.114 1.232 2.652 2.41.143.313.294.63.377.96.161.638.295 1.284.31 1.946.004.156.023.312.038.468.02.2-.002.224-.208.225-.218.002-.435.004-.652.004l-3.127-.004c-.25 0-.283-.04-.288-.292-.011-.552-.038-1.097-.28-1.613-.29-.62-.759-.989-1.44-1.065-.61-.067-1.192.024-1.71.375-.395.267-.633.637-.784 1.094-.176.532-.143 1.068-.144 1.606-.003 2.44-.008 4.88.005 7.318.003.64.148 1.254.553 1.778.188.243.445.39.725.504.501.203 1.031.17 1.542.107.572-.071.986-.439 1.24-.949.35-.7.461-1.454.424-2.232-.008-.176.014-.195.188-.194.869.005 1.737.01 2.606.01.434 0 .868-.014 1.302-.02.1 0 .188.025.183.153-.037.802-.052 1.609-.222 2.396-.204.94-.593 1.797-1.26 2.518-.59.638-1.265 1.147-2.082 1.456-.644.243-1.316.372-2 .462-.674.088-1.339.077-2.007-.028-.358-.056-.727-.066-1.074-.16-.421-.113-.84-.26-1.232-.448-.896-.43-1.62-1.074-2.195-1.883-.275-.386-.464-.816-.604-1.263-.116-.37-.2-.752-.271-1.133-.196-1.05-.197-2.114-.192-3.178.008-1.812.004-3.624.005-5.436 0-.045-.009-.09-.013-.134l-.052-.032c-.008.025-.013.052-.025.075-.293.547-.583 1.095-.88 1.64-.33.606-.666 1.209-1 1.814l-1.217 2.21c-.468.851-.935 1.703-1.404 2.553-.333.605-.671 1.208-1.006 1.812l-1.8 3.259c-.027.047-.044.099-.07.147-.075.145-.178.214-.36.213-1.711-.008-3.422-.003-5.132-.006-.069 0-.138-.033-.207-.05.026-.073.044-.15.08-.217l.591-1.043c.388-.698.77-1.399 1.156-2.098.333-.605.668-1.21 1-1.815.445-.808.888-1.617 1.331-2.427.103-.188.202-.378.326-.61-.094.034-.145.058-.199.071-.461.114-.919.252-1.386.332-.458.077-.925.112-1.389.134-.91.043-1.82.065-2.732.093-.11.003-.183.015-.181.158l.005.815v2.984c0 .503-.002 1.006.002 1.509.001.21.021.419.025.628.005.287.002.573.002.859 0 .152-.054.2-.228.2l-3.176-.005c-.233 0-.467-.005-.7.002-.15.005-.201-.056-.2-.201.007-1.455.015-2.91.015-4.365.002-4.391.001-8.784 0-13.175 0-.379.001-.758-.009-1.136-.003-.14.043-.19.186-.19 2.2.006 4.398-.002 6.597.018.584.005 1.172.063 1.75.152 1.053.16 2.053.487 2.9 1.165.662.53 1.166 1.18 1.486 1.972.222.55.378 1.111.431 1.702.008.09.032.178.049.267l.076.06c.015-.045.023-.094.046-.135.55-.992 1.103-1.981 1.65-2.974.465-.84.92-1.686 1.387-2.525.027-.05.12-.089.182-.09 1.14-.002 2.28.005 3.42.002.64-.002 1.28-.02 1.92-.03zM21.562.075c.823.01 1.645.095 2.432.357 1.462.487 2.586 1.375 3.26 2.784.259.543.427 1.113.543 1.703.203 1.031.275 2.07.257 3.12-.017 1.081.008 2.163.004 3.244-.004.816.01 1.634-.046 2.448-.048.684-.148 1.367-.345 2.033-.223.754-.543 1.451-1.047 2.058-.577.694-1.276 1.23-2.115 1.574-.343.141-.694.275-1.054.36-.382.092-.78.118-1.169.178-.664.103-1.323.071-1.989-.017-.508-.067-1.007-.165-1.485-.33-.619-.215-1.2-.515-1.717-.93-.723-.58-1.262-1.295-1.566-2.164-.181-.521-.306-1.066-.415-1.608-.262-1.3-.273-2.62-.255-3.939.006-.405.001-.811.001-1.217h.025c0-1.135-.04-2.272.013-3.405.04-.882.188-1.762.523-2.59.491-1.217 1.247-2.22 2.431-2.854.515-.275 1.058-.47 1.634-.604.689-.161 1.383-.21 2.08-.201zm51.66.13c.755.117 1.48.356 2.144.753.837.5 1.503 1.16 1.96 2.026.354.673.584 1.385.706 2.136.16.994.243 1.993.227 3-.011.67-.002 1.341-.002 2.012h-.03c0 1.136.027 2.272-.01 3.406-.02.612-.101 1.23-.237 1.827-.295 1.289-.897 2.412-1.962 3.249-.501.393-1.047.7-1.651.915-.622.221-1.258.355-1.913.405-.41.03-.823.082-1.23.057-.49-.03-.975-.125-1.46-.206-.543-.09-1.05-.29-1.54-.533-.62-.308-1.147-.73-1.607-1.244-.54-.602-.887-1.307-1.088-2.074-.157-.597-.225-1.216-.334-1.826-.154-.857-.129-1.723-.13-2.587-.003-1.428-.008-2.856-.005-4.283.002-.758.056-1.513.199-2.257.181-.942.517-1.828 1.09-2.604.559-.755 1.26-1.343 2.137-1.719.833-.357 1.7-.513 2.6-.572.72-.047 1.432.01 2.136.12zm-59.18.437l.001 1.682c0 .48-.003.959.004 1.438.002.14-.038.188-.185.188-1.485-.006-2.97-.004-4.454-.01-.134 0-.132.067-.132.163V19.293c0 .37-.013.302-.31.302-1.295-.002-2.59-.002-3.883.001-.145 0-.22-.027-.22-.196.006-1.933.007-3.866.007-5.798 0-3.163 0-6.326.002-9.49 0-.129-.042-.169-.17-.169-1.511.004-3.023.003-4.535.005-.11 0-.168-.019-.167-.152.006-1.067.005-2.134.006-3.2 0-.202.003-.199.198-.193l.424.006h12.938c.076 0 .152 0 .228-.005.23-.015.248 0 .249.238zm72.73.005l.487 1.771c.104.37.222.737.329 1.106l.287 1.034c.14.49.285.979.422 1.47.144.516.277 1.035.422 1.55.118.423.253.84.371 1.263.111.396.214.795.315 1.195.11.43.215.863.32 1.296.098.411.192.824.289 1.235.005.021 0 .048.01.064.033.049.072.094.108.141.022-.05.054-.099.064-.151.063-.319.115-.64.18-.957.068-.328.141-.656.221-.982.12-.49.247-.978.372-1.467.106-.409.21-.819.324-1.226.155-.558.321-1.114.478-1.672.113-.401.216-.805.326-1.207l.185-.641c.122-.438.238-.877.361-1.314.102-.36.213-.717.315-1.077.126-.442.247-.886.37-1.33.007-.026.01-.053.018-.08.082-.276.083-.266.37-.266 1.682.003 3.364 0 5.046.003.123 0 .246.024.368.037v19.113l-.353.03c-.06.003-.118.006-.177.006-1 .004-2.001.003-3.002.002-.205 0-.236-.032-.235-.216.006-1.203.011-2.406.014-3.609.007-2.532.004-5.063.023-7.595.008-1.055.056-2.11.096-3.166.012-.33.058-.66.086-.99.005-.055-.005-.111-.008-.167l-.042-.01c-.02.031-.051.06-.06.096-.09.385-.169.773-.265 1.157-.111.446-.24.889-.355 1.335-.07.266-.128.536-.195.803-.113.447-.231.892-.344 1.339-.07.278-.132.559-.202.837-.116.456-.239.911-.353 1.368l-.179.775-.354 1.368c-.069.273-.125.55-.194.822-.113.447-.237.89-.347 1.337-.11.442-.205.887-.311 1.329-.056.232-.12.462-.18.693l-.209.817c-.133.519-.268 1.038-.398 1.558-.025.099-.08.126-.174.126-.854-.004-1.709-.006-2.563-.004-.137 0-.211-.061-.242-.19-.104-.45-.203-.9-.317-1.345-.154-.604-.324-1.203-.48-1.806-.115-.446-.22-.894-.332-1.34-.059-.237-.126-.472-.187-.708-.114-.44-.226-.88-.338-1.321l-.186-.726c-.125-.499-.246-.998-.375-1.496-.066-.257-.15-.51-.216-.767-.109-.419-.21-.84-.315-1.26-.051-.206-.103-.41-.156-.616l-.566-2.203c-.157-.614-.31-1.23-.468-1.844-.014-.053-.052-.1-.08-.15l-.05.012c-.005.05-.015.1-.012.15.021.505.05 1.01.067 1.515.038 1.126.087 2.25.1 3.376.022 1.932.022 3.865.027 5.797.004 1.568.002 3.136.002 4.704 0 .19-.029.22-.215.22l-3.213-.004c-.215 0-.235-.03-.225-.244.011-.234.009-.468.009-.702V8.88 1.045c0-.153.003-.306-.009-.458-.011-.147.052-.187.189-.187 1.655.005 3.31.006 4.964.008.065 0 .13 0 .195-.003.273-.012.28-.015.352.242zm-16.166 3.17c-.492.227-.821.606-1.007 1.11-.175.473-.206.967-.205 1.466v3.47h.006c0 1.271-.008 2.542.003 3.812.005.546.084 1.08.275 1.602.279.758.845 1.12 1.608 1.222.563.075 1.108-.02 1.595-.32.538-.332.773-.872.864-1.46.08-.516.12-1.042.124-1.564.014-1.935.01-3.871.003-5.807-.003-.608-.015-1.218-.064-1.824-.025-.323-.097-.656-.223-.953-.237-.559-.708-.839-1.305-.908-.569-.067-1.136-.095-1.674.154zm-49.697-.148c-.219.046-.442.113-.638.218-.717.381-.996 1.065-1.037 1.8-.066 1.181-.037 2.367-.036 3.551.001 1.622.002 3.244.028 4.865.008.457.123.91.321 1.328.35.742.976 1.048 1.765 1.082.317.013.622-.038.928-.132.615-.188.994-.605 1.183-1.19.184-.566.255-1.157.258-1.752.005-1.195.001-2.39.001-3.584h.001c0-1.136-.002-2.271.001-3.406.002-.624-.042-1.243-.268-1.83-.208-.543-.654-.829-1.198-.938-.43-.086-.874-.104-1.309-.012zm14.272-.062c-.124-.003-.162.057-.159.169l.004.215v3.58c0 .453 0 .907-.006 1.36-.002.137.06.185.185.185h1.254V9.08c.293 0 .586.005.878-.002.404-.009.795-.068 1.156-.273.732-.416 1.112-1.065 1.208-1.87.056-.462.023-.937.005-1.406-.016-.389-.147-.752-.377-1.069-.364-.498-.904-.727-1.482-.774-.885-.072-1.777-.055-2.666-.079z"/>
</svg>
