<svg xmlns="http://www.w3.org/2000/svg" width="184" height="100" viewBox="0 0 184 100">
    <path fill-rule="evenodd" d="M109.301 44.99c.07.027.14.055.21.085.022.01.04.03.09.066l-.848 3.237-.428 1.632c-.427-.13-.83-.258-1.234-.377-1.322-.386-2.665-.521-4.037-.354-1.924.235-3.24 1.28-3.916 3.065-.787 2.082-.74 4.203-.007 6.292.61 1.739 1.936 2.62 3.715 2.844 2.044.256 4.047.05 5.991-.654.08-.029.16-.051.276-.087l.877 5.055c-.601.184-1.2.402-1.816.549-2.902.688-5.824.826-8.704-.035-3.796-1.135-6.08-3.718-6.863-7.594-.558-2.758-.519-5.498.586-8.132 1.542-3.678 4.333-5.839 8.245-6.492 2.69-.45 5.324-.114 7.863.9zm-59.154-.48v.446c0 3.605-.022 7.21.014 10.815.01 1.052.107 2.117.304 3.15.315 1.653 1.139 2.422 2.81 2.565 1.106.095 2.23-.029 3.382-.055V44.519h6.213v.464c0 6.706-.003 13.411.01 20.117.001.382-.126.515-.475.6-3.312.8-6.665 1.229-10.075 1.058-2.025-.102-3.938-.596-5.532-1.94-1.378-1.165-2.148-2.698-2.45-4.442-.21-1.211-.365-2.447-.38-3.674-.047-3.957-.017-7.915-.017-11.873 0-.099.01-.197.018-.319h6.178zM37.179 34.12v.58c0 7.626-.002 15.251.004 22.877 0 .54.036 1.082.095 1.62.13 1.178.825 1.886 1.936 2.2.433.121.885.178 1.37.272-.273 1.608-.54 3.197-.823 4.783-.017.096-.16.243-.244.242-1.76-.018-3.496-.19-5.13-.916-1.887-.84-2.956-2.3-3.218-4.334-.103-.797-.16-1.606-.161-2.41L31 47.277v-12.17l6.179-.987zm41.824 9.899c1.781.063 3.505.4 5.049 1.36 1.829 1.136 2.829 2.848 3.214 4.908.226 1.207.368 2.447.382 3.674.047 4.02.018 8.041.017 12.062 0 .075-.006.15-.012.268h-6.185v-.458c0-3.655.002-7.31 0-10.966-.002-1.136-.049-2.27-.371-3.37-.414-1.409-1.253-2.105-2.72-2.2-.677-.045-1.36-.018-2.039.009-.45.017-.9.09-1.382.142v16.828h-6.21v-.45c0-6.719.002-13.437-.008-20.155 0-.332.079-.471.42-.556 3.235-.8 6.512-1.215 9.845-1.096zm41.37-9.87v10.383c.693-.144 1.336-.328 1.991-.407 2.408-.29 4.764-.146 6.934 1.075 1.998 1.126 3.05 2.936 3.435 5.129.22 1.247.343 2.526.358 3.792.045 3.933.016 7.867.016 11.8 0 .112-.012.223-.02.36h-6.157c-.008-.172-.024-.343-.024-.513-.006-3.858.014-7.716-.034-11.573-.012-.96-.165-1.935-.397-2.868-.315-1.264-1.206-1.903-2.513-2.04-1.136-.118-2.232.076-3.327.34-.316.076-.265.281-.265.488v16.169h-6.199v-.4c0-10.124.002-20.247-.008-30.37 0-.318.083-.424.4-.472 1.794-.271 3.582-.57 5.373-.857.123-.02.25-.022.438-.037zm27.263 9.889c1.68.015 3.337.247 4.966.673.327.085.398.235.327.564-.31 1.427-.59 2.86-.883 4.29-.023.11-.055.217-.089.353-.882-.174-1.73-.364-2.585-.503-1.37-.222-2.736-.137-4.097.117-.3.056-.333.215-.332.472l.004 7.882v8.396h-6.198v-.384c0-6.616.003-13.232-.007-19.848 0-.302.08-.436.374-.531 2.772-.893 5.592-1.507 8.52-1.481z"/>
</svg>
