<svg xmlns="http://www.w3.org/2000/svg" width="184" height="100" viewBox="0 0 184 100">
    <path fill-rule="evenodd" d="M52.326 31.126c1.136.04 2.076.608 2.735 1.655 1.521 2.418 3.065 4.824 4.556 7.261 3.18 5.202 6.332 10.42 9.499 15.63.663 1.09.707 2.164.077 3.3-1.656 2.991-3.277 6-4.915 9.001-.155.285-.329.56-.498.838-.801 1.313-2.864 1.569-3.835.3-.411-.538-.79-1.104-1.142-1.682-3.264-5.364-6.515-10.735-9.777-16.1-1.291-2.122-2.612-4.227-3.897-6.354-.274-.453-.485-.951-.662-1.451-.222-.628-.17-1.269.138-1.864.918-1.77 1.828-3.546 2.78-5.298.619-1.141 1.294-2.253 1.969-3.363.216-.357.496-.68.777-.992.552-.611 1.265-.87 2.195-.881zM23.917 44.293l1.408 2.306c2.105 3.46 4.209 6.922 6.32 10.378.12.197.124.342.015.544-1.596 2.967-3.179 5.941-4.778 8.907-.417.773-.873 1.525-1.324 2.28-.592.989-1.634 1.416-2.76 1.155-.492-.114-.894-.384-1.168-.783-.567-.827-1.107-1.673-1.629-2.529-1.093-1.795-2.162-3.604-3.251-5.402-.36-.592-.598-1.227-.75-1.897v-.517c.39-1.303 1.195-2.397 1.84-3.568 1.972-3.58 3.979-7.14 5.972-10.707.028-.049.06-.095.105-.167zm9.087-13.177c1.252.059 2.193.52 2.813 1.491 1.676 2.627 3.35 5.255 4.977 7.912 3.33 5.436 6.624 10.892 9.946 16.332.185.302.177.51.019.816-1.913 3.698-3.882 7.367-5.986 10.961-.618 1.057-1.61 1.488-2.805 1.233-.571-.122-.987-.48-1.296-.938-.658-.974-1.303-1.958-1.912-2.963-3.069-5.057-6.12-10.124-9.187-15.182-1.159-1.912-2.344-3.809-3.518-5.712-.353-.572-.658-1.161-.784-1.831-.1-.536-.05-1.055.198-1.534.939-1.814 1.87-3.632 2.849-5.424.654-1.197 1.362-2.367 2.09-3.522.443-.703 1.01-1.308 1.876-1.511.269-.063.545-.097.72-.128zM134.07 44c.116.043.227.101.339.154.042.02.082.045.15.081-.212.446-.4.893-.631 1.316-.23.418-.461.48-1.004.359-.756-.17-1.52-.221-2.284-.077-1.176.221-2.073.87-2.621 1.915-.905 1.726-.954 3.502-.068 5.251.788 1.553 2.311 2.298 4.153 2.095.304-.033.604-.1.903-.165.399-.087.673.005.852.349.25.48.473.975.718 1.483-.543.336-1.127.516-1.728.624-1.662.298-3.321.318-4.957-.16-3.583-1.045-5.323-4.223-4.975-7.437.364-3.359 2.765-5.768 6.14-6.241 1.702-.24 3.384-.164 5.013.453zm16.867.108c.072.027.142.058.211.09.016.008.027.027.054.055-.182.379-.354.771-.555 1.147-.28.52-.594.643-1.17.488-.982-.264-1.973-.413-2.983-.186-.933.21-1.432.9-1.282 1.738.08.449.35.78.73.981.529.281 1.08.53 1.644.736.874.318 1.736.646 2.543 1.12 2.46 1.442 2.214 4.433.236 5.917-1.034.775-2.216 1.173-3.48 1.31-1.796.194-3.582.1-5.332-.391-.292-.082-.571-.207-.92-.335.291-.586.538-1.152.848-1.681.188-.323.533-.35.896-.282.704.13 1.41.267 2.122.337.624.061 1.246-.032 1.822-.31.686-.33 1.01-.925.886-1.6-.065-.357-.247-.665-.557-.833-.577-.313-1.166-.616-1.779-.847-.825-.312-1.652-.604-2.39-1.103-2.356-1.593-1.948-4.26-.167-5.665 1.118-.881 2.423-1.251 3.818-1.333 1.641-.096 3.257.04 4.805.647zm-39.353-.482c.592-.02.925.247 1.146.76.84 1.954 1.694 3.903 2.542 5.854l2.93 6.745c.052.12.1.24.168.4h-.387c-1.228 0-2.457-.01-3.686.007-.283.004-.421-.07-.519-.345-.279-.791-.6-1.567-.889-2.355-.072-.196-.17-.255-.374-.255-1.68.008-3.36.008-5.04 0-.195 0-.286.06-.357.24-.326.835-.664 1.666-1.011 2.492-.038.09-.163.206-.248.207-1.18.012-2.361.007-3.542.006-.027 0-.055-.014-.121-.032.032-.09.057-.175.093-.255l5.588-12.8c.197-.452.52-.675 1.03-.665.892.016 1.786.028 2.677-.004zm57.215.01c.055 0 .11.011.179.019v2.136h-5.818v3.713h5.156c0 .509.034.986-.01 1.456-.04.425-.375.652-.873.659-.605.009-1.21.002-1.815.003-.787 0-1.575 0-2.362.002-.019 0-.038.006-.107.02v.318c0 1.702-.005 3.405.006 5.107.001.253-.07.324-.323.322-1.248-.013-2.497-.006-3.745-.006h-.29c-.005-.12-.015-.22-.015-.321V44.639c0-.68.296-1.001.971-1.003 3.016-.006 6.03-.002 9.046-.002zm-76.844-.01c1.016.033 2.035.014 3.053.003.208-.002.284.064.312.265.517 3.63 1.04 7.26 1.562 10.89.122.85.246 1.7.374 2.584-.11.008-.176.016-.241.016-1.2.001-2.4-.002-3.601.005-.185 0-.278-.043-.3-.244-.311-2.782-.631-5.563-.939-8.346-.034-.308-.004-.624-.004-.936l-.07-.018c-.026.048-.058.094-.078.144-1.174 3.054-2.349 6.108-3.518 9.163-.07.183-.171.242-.364.238-.547-.013-1.095-.015-1.642 0-.209.006-.302-.07-.375-.257-.875-2.25-1.764-4.493-2.637-6.743-.296-.764-.557-1.542-.835-2.313-.022-.06-.051-.117-.085-.193-.032.036-.06.053-.063.073-.145 1.511-.274 3.024-.435 4.533-.164 1.54-.362 3.074-.535 4.612-.023.215-.089.291-.314.288-1.008-.011-2.017-.005-3.025-.005-.075 0-.15-.008-.276-.015l1.954-13.72c.112-.006.213-.015.315-.015h2.995c.71 0 .954.153 1.216.816.297.754.576 1.515.858 2.274.639 1.716 1.277 3.432 1.91 5.15.113.31.197.63.305.98.048-.055.08-.077.091-.106l2.575-6.736c.204-.534.428-1.06.635-1.594.21-.541.564-.814 1.182-.794zm18.17 2.942l-2.25 6.011h4.304c-.653-2.046-1.569-3.98-2.054-6.01z"/>
</svg>
