<svg xmlns="http://www.w3.org/2000/svg" width="184" height="100" viewBox="0 0 184 100">
    <path fill-rule="evenodd" d="M27.886 44l5.28 11.202c-.08.044-.095.06-.113.062-1.345.106-1.346.107-1.908-1.08-.309-.654-.586-1.325-.934-1.959-.1-.182-.392-.371-.6-.375-1.547-.032-3.095-.035-4.642.002-.22.005-.527.225-.635.426-.409.766-.8 1.547-1.104 2.357-.207.553-.525.732-1.084.654-.225-.031-.459-.005-.774-.005.43-.917.83-1.773 1.233-2.627 1.27-2.694 2.542-5.387 3.809-8.082.086-.183.134-.383.2-.575h1.272zm-26.23 0c1.11 2.08 2.218 4.16 3.333 6.238.542 1.01 1.098 2.011 1.7 3.112L11.715 44h1.655v11.249H11.97v-8.241l-.166-.048c-.093.138-.197.27-.276.415-1.353 2.474-2.71 4.946-4.042 7.431-.193.361-.398.49-.819.497-.44.007-.621-.17-.808-.518-1.313-2.449-2.649-4.886-3.979-7.325-.097-.178-.21-.348-.432-.502v8.334H0V44h1.655zm153.057 0c1.356 1.634 2.709 3.27 4.07 4.9 1.12 1.342 2.249 2.674 3.374 4.01l.139-.028v-.651c0-2.127-.005-4.253.002-6.38.002-.617.036-1.234.055-1.851h1.273v11.226c-.798.158-1.375.05-1.928-.632-2.166-2.672-4.41-5.285-6.625-7.918-.079-.094-.169-.179-.345-.365v8.939h-1.416V44h1.4zm-51.444 0v9.967h7.083v1.285h-8.36c-.018-.147-.05-.282-.05-.418-.003-3.47-.003-6.939 0-10.408 0-.142.035-.284.054-.426h1.273zm-14.134 0l.074 1.242h-7.814v3.559h7.436v1.254h-7.428v3.923h7.81v1.274h-9.246V44h9.168zm52.335 0v11.247h-1.4V44h1.4zm-19.228 0l.045.49c.006.082.01.164.01.246l.003 4.244v4.993h7.047v1.268h-8.378V44h1.273zm61.503 0v1.235h-7.824v3.569h7.454v1.277h-7.47v3.894h7.917v1.265h-9.26c-.016-.17-.04-.311-.04-.452-.002-3.454-.002-6.908 0-10.361 0-.142.036-.285.055-.427h9.168zm-142.36 0c.08.14.142.294.243.42.936 1.173 1.878 2.341 2.82 3.51.357.443.717.883 1.107 1.362.876-1.068 1.69-2.044 2.484-3.035.596-.743 1.167-1.504 1.75-2.257h1.782c-.934 1.17-1.863 2.343-2.803 3.508-.733.908-1.5 1.791-2.206 2.719-.195.255-.314.626-.322.947-.035 1.34-.015 2.68-.015 4.065h-1.394c0-1.367.022-2.724-.016-4.08-.01-.337-.139-.728-.349-.992-1.645-2.07-3.324-4.114-4.992-6.167h1.91zm25.211 0c.143.037.284.088.429.108 1.207.17 2.137.715 2.468 1.915.345 1.252.127 2.378-1.018 3.203-.028.02-.034.07-.068.144 1.192.625 1.63 1.65 1.553 2.925-.094 1.548-1.264 2.784-2.968 2.855-2.304.097-4.615.024-7.017.024V44h6.621zm-5.212 6.101v3.828c1.746 0 3.418.009 5.09-.008.288-.003.587-.081.863-.176.883-.303 1.308-1.015 1.226-2.006-.074-.892-.544-1.435-1.528-1.523-1.156-.104-2.324-.09-3.486-.112-.714-.014-1.427-.003-2.165-.003zm-34.096-4.086l-2.12 4.526h4.237l-2.117-4.526zm34.122-.648v3.396c1.666 0 3.277.009 4.887-.008.29-.003.591-.077.865-.178.758-.277 1.153-.97 1.054-1.784-.108-.878-.562-1.387-1.475-1.412-1.757-.049-3.516-.014-5.33-.014z"/>
</svg>
