<svg xmlns="http://www.w3.org/2000/svg" width="181" height="66" viewBox="0 0 181 66">
    <path fill-rule="evenodd" d="M33.455.156L0 65.964h66.91L48.625 29.998l3.422-6-1.664-3.273-3.421 6.002L33.455.156zm17.73 0L84.64 65.964H72.8l-1.561-3.07h8.407L51.185 6.91l-4.204 8.27-1.717-3.378L51.184.156zM33.455 6.91l11.693 23.001-15.106 26.504h3.52L46.81 33.182l15.105 29.713H4.994L33.455 6.91zm65.426 40.96c.333 0 .646.059.935.175.29.116.54.277.749.485.208.207.372.46.49.759.12.298.179.624.179.976s-.06.678-.178.978c-.119.3-.283.552-.491.759-.21.206-.459.367-.749.485-.29.117-.602.175-.935.175-.345 0-.665-.06-.96-.182-.296-.121-.546-.288-.75-.5-.205-.21-.364-.464-.48-.76-.115-.295-.173-.614-.173-.955 0-.34.058-.657.173-.952.116-.295.275-.55.48-.76.204-.212.454-.379.75-.5.295-.121.615-.182.96-.182zm59.813.053v2.7c0 .249.041.47.125.663.083.194.206.346.368.456.16.11.351.166.57.166.318 0 .576-.115.775-.345.198-.23.296-.543.296-.94v-2.7h.794v2.76c0 .61-.166 1.093-.498 1.447-.332.355-.788.532-1.368.532-.276 0-.528-.044-.756-.132-.228-.088-.423-.215-.586-.382-.162-.166-.288-.374-.378-.623-.09-.25-.135-.53-.135-.841v-2.761h.793zm5.863-.052c.542-.002 1.057.19 1.548.577l-.472.625c-.383-.32-.742-.48-1.076-.48-.186 0-.34.049-.464.146-.123.098-.185.232-.187.402-.003.158.075.29.23.392.101.065.315.16.643.287.387.153.648.267.783.342.296.163.49.368.581.615.054.14.08.3.08.483 0 .187-.032.36-.096.516-.064.157-.15.289-.255.396-.106.108-.229.2-.37.274-.14.075-.285.13-.434.165-.15.034-.301.051-.453.051-.308 0-.608-.061-.899-.184-.29-.122-.556-.306-.796-.55l.5-.62c.165.2.354.354.567.46.213.106.424.16.631.16.253 0 .445-.052.578-.154.133-.102.2-.242.2-.42 0-.058-.008-.111-.022-.16-.014-.048-.031-.09-.053-.128-.02-.038-.053-.075-.096-.112-.043-.036-.085-.067-.127-.093-.042-.026-.098-.054-.17-.085-.071-.032-.137-.059-.197-.083-.06-.023-.14-.052-.238-.086-.115-.041-.216-.079-.302-.113-.085-.035-.18-.078-.284-.13-.103-.05-.192-.103-.266-.155-.074-.053-.148-.115-.223-.187-.075-.072-.135-.149-.18-.23-.045-.08-.082-.172-.111-.276-.029-.104-.043-.215-.043-.334 0-.24.066-.462.199-.663.132-.202.312-.36.538-.476.225-.114.47-.172.736-.172zm7.736 0c.339 0 .669.074.991.222.322.148.605.374.85.677l-.585.496c-.156-.195-.344-.351-.563-.467-.22-.116-.45-.174-.693-.174-.299 0-.565.069-.796.206-.23.138-.41.332-.54.583-.127.252-.191.542-.191.87 0 .316.065.597.195.843s.312.436.545.572c.232.135.495.203.787.203.253 0 .486-.058.7-.173.215-.115.4-.27.556-.465l.584.5c-.214.27-.477.486-.788.647-.311.16-.662.241-1.052.241-.254 0-.498-.032-.731-.096-.234-.065-.45-.163-.647-.295-.198-.132-.37-.291-.515-.477-.146-.186-.26-.407-.34-.664-.082-.256-.123-.535-.123-.836 0-.268.033-.523.098-.765s.164-.462.297-.662c.133-.2.292-.373.478-.52.187-.148.406-.262.66-.344.254-.081.528-.122.823-.122zm-78.72 0c.338 0 .668.074.99.222.322.148.605.374.849.677l-.584.496c-.157-.195-.344-.351-.564-.467-.22-.116-.45-.174-.692-.174-.3 0-.565.069-.796.206-.231.138-.41.332-.54.583-.128.252-.192.542-.192.87 0 .316.066.597.196.843s.312.436.544.572c.233.135.495.203.788.203.253 0 .486-.058.7-.173.214-.115.4-.27.556-.465l.584.5c-.214.27-.477.486-.788.647-.312.16-.662.241-1.052.241-.254 0-.498-.032-.731-.096-.234-.065-.45-.163-.647-.295-.199-.132-.37-.291-.516-.477-.145-.186-.259-.407-.34-.664-.081-.256-.122-.535-.122-.836 0-.268.033-.523.098-.765s.164-.462.297-.662c.133-.2.292-.373.478-.52.187-.148.406-.262.66-.344.254-.081.528-.122.823-.122zm26.672 0c.339 0 .669.074.99.222.323.148.606.374.85.677l-.585.496c-.156-.195-.344-.351-.563-.467-.22-.116-.45-.174-.692-.174-.3 0-.565.069-.796.206-.231.138-.411.332-.54.583-.128.252-.192.542-.192.87 0 .316.066.597.196.843s.312.436.544.572c.233.135.495.203.788.203.253 0 .486-.058.7-.173.214-.115.4-.27.555-.465l.585.5c-.214.27-.477.486-.788.647-.312.16-.662.241-1.052.241-.254 0-.498-.032-.732-.096-.233-.065-.449-.163-.646-.295-.199-.132-.37-.291-.516-.477-.145-.186-.259-.407-.34-.664-.082-.256-.122-.535-.122-.836 0-.268.032-.523.098-.765.065-.242.164-.462.297-.662.132-.2.292-.373.478-.52.186-.148.406-.262.66-.344.254-.081.528-.122.823-.122zm21.357.052c.488 0 .864.096 1.125.288.263.192.394.477.394.855 0 .23-.058.441-.172.633-.115.193-.285.334-.512.424v.013c.28.07.504.208.67.412.165.204.248.463.248.777 0 .19-.031.361-.094.517-.064.156-.157.291-.281.406-.124.115-.285.204-.482.267-.197.064-.422.096-.674.096h-1.846v-4.688h1.624zm-32.59 0l2.28 3.363h.015v-3.363h.793v4.687h-.809l-2.26-3.315h-.013v3.315h-.793v-4.687h.787zm21.741 0v.715h-2.144v1.292h1.733v.715h-1.733v1.25h2.282v.715h-3.075v-4.687h2.937zm-4.24 0v.715h-1.339v3.972h-.793v-3.972h-1.325v-.715h3.457zm41.94 0v4.687h-.796v-4.687h.796zm-23.314 0l1.043 1.817h.02l1.036-1.817h.919l-1.57 2.616v2.071h-.796V50.54l-1.56-2.616h.908zm-28.437 0v.715h-2.145v1.292h1.734v.715h-1.734v1.25h2.283v.715h-3.075v-4.687h2.937zm35.718 0l1.54 2.806h.014l1.534-2.806h.796v4.687h-.793v-3.14h-.01l-1.277 2.238h-.52l-1.278-2.239h-.01v3.141h-.792v-4.687h.796zm-18.602 0c.364 0 .698.058 1.002.174.304.115.56.277.767.483.208.206.369.454.483.744.115.29.172.607.172.95 0 .344-.055.66-.167.948-.111.288-.268.534-.472.74-.203.204-.456.364-.759.478-.303.114-.638.17-1.006.17h-1.506v-4.687h1.486zm-30.345 0l2.279 3.363h.016v-3.363h.793v4.687h-.81l-2.26-3.315h-.012v3.315h-.793v-4.687h.787zm-4.592.692c-.223 0-.43.043-.623.13-.193.085-.356.202-.488.35-.133.149-.237.323-.313.526-.076.201-.114.416-.114.644 0 .228.038.443.114.646.076.203.18.379.313.527.132.148.295.265.488.35.193.087.4.13.623.13.214 0 .415-.042.603-.124.189-.083.35-.197.485-.342.135-.145.242-.32.321-.525.08-.205.119-.426.119-.662 0-.236-.04-.457-.119-.662-.079-.205-.186-.38-.321-.524-.135-.144-.296-.257-.485-.34-.188-.082-.39-.124-.603-.124zm34.953.023h-.71v3.257h.665c.242 0 .466-.04.671-.122.206-.082.379-.195.519-.338.14-.144.25-.316.327-.516.078-.2.117-.415.117-.644 0-.314-.066-.595-.2-.845-.134-.249-.322-.443-.565-.583-.243-.14-.518-.21-.824-.21zm7.771 1.917h-.834v1.34h.819c.286-.002.514-.058.683-.169.17-.11.254-.273.254-.488 0-.213-.08-.38-.238-.501-.158-.121-.386-.182-.684-.182zm-.157-1.917h-.677v1.227h.757c.103 0 .2-.011.29-.035.092-.024.175-.06.25-.108.075-.048.134-.113.178-.195.044-.082.066-.176.066-.283 0-.192-.07-.341-.21-.448-.14-.108-.358-.16-.654-.158zM120.493 26.25v14.948c0 1.179-.914 2.147-2.068 2.23l-.159.005h-1.616V26.25h3.843zm15.412-12.792v29.975h-9.371c-.71 0-1.297-.546-1.363-1.242l-.006-.133V21.784c0-2.146 1.688-3.922 3.803-4.05l.2-.006.138-.005h2.755v-4.264h3.844zm12.765 4.264v3.857h-4.249v7.07h4.249v3.857h-4.249v7.07h4.249v2.482c0 .714-.544 1.302-1.237 1.369l-.132.006h-6.723v-21.65c0-2.127 1.613-3.862 3.708-4.035l.204-.012 4.18-.014zm-36.649 0v24.337c0 .713-.544 1.3-1.238 1.367l-.131.007h-2.475V21.579h-4.653v21.854h-3.843V21.579h-4.64v21.854h-3.844V21.725c0-2.14 1.683-3.894 3.79-3.998l.199-.005h16.835zm58.124 0c2.132 0 3.88 1.688 3.983 3.804l.005.2v20.333c0 .713-.544 1.3-1.237 1.367l-.132.007h-2.474V21.579h-4.654v21.854h-3.843V21.579h-4.64v21.854h-3.844V17.722h16.836zm-38.084 3.857h-3.053v17.996h3.053V21.58zm-11.568-3.857v3.857h-3.843v-3.857h3.843zm58.936.148c.43 0 .796.151 1.102.458.306.307.456.674.456 1.106 0 .432-.15.8-.456 1.106-.306.307-.672.459-1.102.459-.431 0-.797-.152-1.103-.459-.305-.306-.456-.674-.456-1.106 0-.432.15-.8.456-1.106.306-.307.672-.458 1.103-.458zm0 .12c-.392 0-.732.143-1.012.424s-.418.618-.418 1.02.138.743.418 1.024c.28.281.62.42 1.012.42s.727-.139 1.007-.42c.28-.28.422-.622.422-1.024s-.142-.739-.422-1.02c-.28-.28-.615-.423-1.007-.423zm.017.645c.379 0 .603.224.603.514 0 .229-.1.384-.293.462l.336.623h-.297l-.306-.57h-.267v.57h-.267v-1.6h.491zm.017.259h-.241v.51h.241c.203 0 .319-.1.319-.255 0-.156-.116-.255-.319-.255z"/>
</svg>
