<svg xmlns="http://www.w3.org/2000/svg" width="184" height="100" viewBox="0 0 184 100">
    <path fill-rule="evenodd" d="M129.26 73.744l1.83 4.777h.025l1.756-4.777h1.09l-2.725 6.617c-.472 1.14-.897 1.557-1.818 1.557-.242 0-.485-.021-.715-.101v-.881c.194.057.4.136.607.136.424 0 .653-.193.847-.53l.424-.994-2.484-5.804h1.164zM35.154 25.052v54.751H27v-54.75h8.153zm113.942 0v54.751h-8.153V25.051h8.153zm-47.868 48.556c1.986 0 3.04 1.344 3.04 3.06 0 1.706-1.054 3.05-3.04 3.05-1.988 0-3.041-1.344-3.041-3.05 0-1.716 1.053-3.06 3.04-3.06zm13.326 0c1.987 0 3.04 1.344 3.04 3.06 0 1.706-1.053 3.05-3.04 3.05s-3.04-1.344-3.04-3.05c0-1.716 1.053-3.06 3.04-3.06zm-62.633 0c1.986 0 3.04 1.344 3.04 3.06 0 1.706-1.054 3.05-3.04 3.05-1.988 0-3.041-1.344-3.041-3.05 0-1.716 1.053-3.06 3.04-3.06zm42.898 0c1.417 0 2.556.622 2.702 2.01h-1.066c-.158-.734-.703-1.162-1.551-1.162-1.49 0-1.95 1.095-1.95 2.28 0 1.072.52 2.134 1.829 2.134.993 0 1.587-.542 1.72-1.423h1.054c-.23 1.423-1.187 2.27-2.763 2.27-1.913 0-2.931-1.242-2.931-2.981 0-1.75.969-3.128 2.956-3.128zm-49.307 0c1.418 0 2.556.622 2.702 2.01h-1.067c-.157-.734-.702-1.162-1.55-1.162-1.49 0-1.95 1.095-1.95 2.28 0 1.072.52 2.134 1.829 2.134.993 0 1.587-.542 1.72-1.423h1.054c-.23 1.423-1.187 2.27-2.763 2.27-1.913 0-2.932-1.242-2.932-2.981 0-1.75.97-3.128 2.957-3.128zm23.273 0c2.216 0 2.895 1.93 2.834 3.342H66.93c-.037 1.017.581 1.92 1.95 1.92.85 0 1.442-.384 1.624-1.14h1.018c-.28 1.287-1.273 1.986-2.678 1.986-1.999 0-2.944-1.286-3.005-3.07 0-1.75 1.237-3.038 2.945-3.038zm19.698 0c2.217 0 2.896 1.93 2.835 3.342h-4.689c-.035 1.017.582 1.92 1.951 1.92.849 0 1.442-.384 1.624-1.14h1.017c-.278 1.287-1.272 1.986-2.677 1.986-2 0-2.944-1.286-3.005-3.07 0-1.75 1.236-3.038 2.944-3.038zm66.194 1.901c.618 0 1.146.203 1.581.606.436.404.653.893.653 1.468 0 .576-.217 1.068-.653 1.476-.435.408-.963.612-1.58.612-.619 0-1.145-.204-1.578-.612-.432-.406-.648-.899-.648-1.476 0-.573.217-1.061.654-1.468.433-.403.957-.606 1.571-.606zm-74.19-3.515v1.75h1.248v.848h-1.248v3.623c0 .44.134.52.776.52h.472v.847h-.787c-1.066 0-1.49-.204-1.49-1.277v-3.713H78.39v-.848h1.067v-1.75h1.03zm-16.513 0v1.75h1.248v.848h-1.248v3.623c0 .44.134.52.776.52h.472v.847h-.787c-1.066 0-1.49-.204-1.49-1.277v-3.713h-1.066v-.848h1.066v-1.75h1.03zm-4.954 1.615c1.648 0 2.156.88 2.156 2.134v3.839h-1.03V75.63c0-.712-.484-1.175-1.27-1.175-1.25 0-1.855.78-1.855 1.83v3.297h-1.03v-5.838h.97v.926h.023c.437-.722 1.14-1.06 2.036-1.06zm66.304 0c1.247 0 2.084.485 2.084 1.693v4.28h-1.03v-3.828c0-.722-.206-1.299-1.212-1.299-.993 0-1.635.588-1.635 1.492v3.635h-1.03v-3.828c0-.756-.255-1.299-1.175-1.299-1.224 0-1.672 1.05-1.672 1.492v3.635h-1.03v-5.838h.97v.857h.024c.46-.653 1.163-.992 2.024-.992.763 0 1.465.282 1.72.992.423-.62 1.162-.992 1.962-.992zm-16.997 0c1.648 0 2.156.88 2.156 2.134v3.839h-1.03V75.63c0-.712-.484-1.175-1.272-1.175-1.247 0-1.853.78-1.853 1.83v3.297h-1.03v-5.838h.97v.926h.024c.435-.722 1.139-1.06 2.035-1.06zm-32.795 0c1.648 0 2.156.88 2.156 2.134v3.839h-1.03V75.63c0-.712-.484-1.175-1.27-1.175-1.25 0-1.855.78-1.855 1.83v3.297h-1.03v-5.838h.97v.926h.024c.436-.722 1.139-1.06 2.035-1.06zm79.145 2.184c-.529 0-.98.175-1.356.526-.373.349-.559.773-.559 1.267 0 .498.186.923.557 1.275.372.35.826.527 1.358.527.534 0 .987-.176 1.36-.527.372-.352.558-.777.558-1.275 0-.494-.186-.918-.558-1.267-.376-.351-.829-.526-1.36-.526zm-40.123-1.337c-1.078 0-1.95.79-1.95 2.213 0 1.41.872 2.2 1.95 2.2 1.078 0 1.95-.79 1.95-2.2 0-1.423-.872-2.213-1.95-2.213zm-13.326 0c-1.079 0-1.951.79-1.951 2.213 0 1.41.872 2.2 1.95 2.2 1.08 0 1.95-.79 1.95-2.2 0-1.423-.87-2.213-1.95-2.213zm-49.307 0c-1.08 0-1.951.79-1.951 2.213 0 1.41.872 2.2 1.95 2.2 1.078 0 1.95-.79 1.95-2.2 0-1.423-.872-2.213-1.95-2.213zm102.713 1.98c.305 0 .528.027.669.082.254.097.38.291.38.578 0 .205-.078.355-.238.45-.086.052-.203.088-.355.112.191.029.332.103.42.224.09.12.134.238.134.353v.167c0 .052.002.11.006.17.004.06.011.1.022.119l.015.028h-.404l-.007-.023-.006-.025-.009-.074v-.18c0-.264-.077-.438-.231-.523-.091-.048-.25-.073-.481-.073h-.34v.898h-.432v-2.284h.857zm-.056.275h-.37v.827h.391c.183 0 .321-.018.413-.051.167-.063.252-.181.252-.358 0-.166-.054-.277-.163-.334-.11-.057-.283-.084-.523-.084zm-85.854-2.255c-1.077 0-1.72.756-1.793 1.648h3.598c-.049-.914-.788-1.648-1.805-1.648zm19.699 0c-1.078 0-1.72.756-1.794 1.648h3.6c-.05-.914-.789-1.648-1.806-1.648zm21.588-12.059c.788 0 1.49.328 1.865.971h.013v-.836h.97v5.342c0 1.896-.934 2.867-2.909 2.867-1.174 0-2.532-.44-2.593-1.716h1.031c.048.7.946.949 1.623.949 1.346 0 1.878-.904 1.878-2.213v-.385h-.024c-.34.711-1.163 1.061-1.95 1.061-1.867 0-2.8-1.365-2.8-2.957 0-1.378.728-3.083 2.896-3.083zm20.923 0c2.216 0 2.896 1.93 2.834 3.343h-4.689c-.035 1.016.583 1.919 1.951 1.919.849 0 1.442-.384 1.624-1.14h1.017c-.28 1.287-1.27 1.986-2.676 1.986-1.999 0-2.944-1.286-3.006-3.07 0-1.75 1.236-3.038 2.945-3.038zM83.66 60.31v8.061h-1.03v-.79h-.023c-.34.644-1.14.925-2 .925-1.925 0-2.882-1.422-2.882-3.07 0-1.649.944-3.038 2.859-3.038.642 0 1.562.227 2.023.914h.024V60.31h1.03zm35.546.474v1.75h1.247v.847h-1.247v3.624c0 .44.133.519.775.519h.472v.847h-.787c-1.066 0-1.49-.204-1.49-1.276V63.38h-1.066v-.847h1.066v-1.75h1.03zm-15.46 1.615c1.649 0 2.157.88 2.157 2.134v3.838h-1.03v-3.952c0-.711-.484-1.174-1.271-1.174-1.249 0-1.854.779-1.854 1.83v3.296h-1.03v-5.837h.97v.926h.023c.436-.723 1.14-1.061 2.036-1.061zm-15.24 0v1.016c-1.658 0-2.265.88-2.265 2.359v2.597h-1.03v-5.837h.97v1.23h.024c.497-.937 1.187-1.4 2.302-1.365zm1.867.136v5.836h-1.03v-5.836h1.03zm2.143-.002l1.757 4.867h.024l1.708-4.867h1.079l-2.29 5.838h-1.102l-2.327-5.838h1.15zm6.602.002v5.836h-1.03v-5.836h1.03zm23.504-2.226v3.083h.024c.34-.7 1.224-.994 1.975-.994 1.648 0 2.156.881 2.156 2.134v3.839h-1.03v-3.952c0-.711-.484-1.173-1.27-1.173-1.25 0-1.855.778-1.855 1.828v3.297h-1.03v-8.062h1.03zm-41.93 2.936c-1.405 0-1.877 1.117-1.877 2.259 0 1.095.606 2.156 1.938 2.156 1.382 0 1.914-1.107 1.914-2.202 0-1.15-.557-2.213-1.975-2.213zm29.367 0c-1.32 0-1.853 1.006-1.853 2.123 0 1.05.412 2.224 1.768 2.224 1.357 0 1.866-1.164 1.866-2.259 0-1.026-.484-2.087-1.781-2.087zm20.813 0c-1.077 0-1.72.757-1.794 1.648h3.6c-.049-.913-.788-1.647-1.806-1.647zm-31.754-2.937v1.176h-1.03v-1.176h1.03zm-8.747 0v1.176h-1.03v-1.176h1.03zm29.788-35.755c7.508 0 12.397 3.864 12.397 10.717 0 5.721-4.536 10.351-12.319 10.351-3.677 0-6.493-1.13-7.9-2.587h-.078v8.93h-8.292V25.062h8.056v2.625h.078c1.762-2.005 4.694-3.135 8.058-3.135zm-20.73.51V44.82h-8.29V25.063h8.29zm-21.044-.51c4.42 0 8.214 1.786 8.214 6.707v13.559h-8.293V33.3c0-1.895-1.328-2.916-3.558-2.916-3.05 0-4.654 1.386-4.654 3.39v11.044h-8.292V33.3c0-1.895-1.329-2.916-3.558-2.916-3.05 0-4.654 1.386-4.654 3.39v11.044H45.3V25.062h8.056v2.88h.079c1.994-1.822 4.496-3.39 8.526-3.39 2.933 0 5.631.729 7.508 3.39 2.23-2.041 4.693-3.39 8.917-3.39zm39.779 5.394c-3.872 0-5.905 1.969-5.905 5.03 0 3.063 2.033 5.03 5.905 5.03 3.794 0 5.867-1.748 5.867-5.03 0-3.28-2.073-5.03-5.867-5.03zM99.43 18.137v4.665h-8.29v-4.665h8.29z"/>
</svg>
