<svg xmlns="http://www.w3.org/2000/svg" width="177" height="45" viewBox="0 0 177 45">
    <path fill-rule="evenodd" d="M165.452 7.705c-.002 1.79 1.475 3.28 3.257 3.284 1.854.005 3.359-1.473 3.346-3.285-.012-1.797-1.5-3.267-3.303-3.266-1.804 0-3.297 1.479-3.3 3.267zM33.5 26.084c.85.013 1.7.006 2.551.006h.288c-.23.641-.443 1.235-.658 1.827-1.624 4.469-3.247 8.938-4.875 13.405-.291.8-.619 1.586-1.154 2.264-.581.739-1.356 1.115-2.265 1.268-.618.103-1.231.188-1.858.09-.593-.093-1.155-.268-1.667-.584-.057-.035-.119-.153-.1-.205.238-.673.49-1.34.743-2.021.235.096.451.197.675.274.571.195 1.143.235 1.714-.014.427-.186.705-.52.882-.928.278-.64.523-1.297.771-1.95.027-.072-.002-.177-.033-.255-1.011-2.57-2.026-5.137-3.04-7.704l-2.079-5.269c-.02-.053-.035-.11-.058-.184.085-.006.15-.014.215-.014.895 0 1.79.005 2.686-.005.17-.002.23.067.283.212 1.107 3.056 2.22 6.109 3.332 9.163.015.04.034.08.061.145l1.36-3.878c.628-1.796 1.258-3.592 1.88-5.39.063-.185.143-.256.346-.253zm74.848.013c.187-.003.256.065.316.232 1.1 3.041 2.206 6.08 3.311 9.119.018.048.04.094.08.187l1.414-4.036c.618-1.765 1.237-3.529 1.85-5.295.052-.15.12-.208.285-.207.94.01 1.88.005 2.857.005-.064.184-.118.342-.175.5-1.792 4.93-3.58 9.862-5.377 14.792-.31.851-.663 1.684-1.283 2.37-.443.49-.983.817-1.62.974-1.073.264-2.15.38-3.218-.022-.273-.103-.534-.239-.795-.373-.047-.024-.1-.126-.086-.168.24-.673.49-1.342.743-2.026.246.099.47.202.7.278.575.188 1.15.22 1.717-.037.345-.156.611-.41.76-.744.312-.701.59-1.418.872-2.132.025-.065-.002-.163-.03-.235-.907-2.308-1.818-4.614-2.727-6.92l-2.388-6.059c-.021-.055-.035-.112-.062-.198h.237c.873 0 1.746.006 2.62-.005zm35.182.02c1.585.582 2.414 1.8 2.462 3.473.059 2.023.024 4.049.03 6.073v.657c.001.695.293.939.982.823.11-.019.222-.032.334-.045.013-.002.027.008.066.022v1.277c0 .144.003.287 0 .43-.01.434.079.343-.343.474-.762.237-1.535.415-2.346.34-.755-.07-1.192-.446-1.345-1.198-.024-.116-.042-.234-.068-.38-.072.052-.13.092-.187.137-1.208.945-2.566 1.527-4.098 1.654-.894.074-1.771-.04-2.597-.419-1.446-.664-2.115-1.84-2.171-3.395-.036-.99.153-1.923.805-2.71.549-.664 1.277-1.037 2.08-1.284.84-.257 1.709-.315 2.574-.414.743-.085 1.48-.229 2.218-.356.131-.023.257-.083.38-.138.702-.317.921-.745.775-1.506-.18-.93-.67-1.407-1.599-1.56-.539-.087-1.078-.085-1.613.022-.973.194-1.633.792-2.071 1.658-.085.169-.162.188-.326.118-.641-.275-1.288-.536-1.932-.803-.069-.028-.135-.062-.224-.104.029-.083.051-.16.081-.233.546-1.325 1.485-2.242 2.85-2.672 1.761-.556 3.542-.581 5.283.059zm-20.61-6.283v7.386c.063-.042.1-.061.13-.089 2.447-2.28 6.379-1.808 8.383.766 1.022 1.312 1.493 2.816 1.568 4.465.061 1.364-.141 2.68-.73 3.915-.902 1.892-2.331 3.148-4.433 3.5-2.01.337-3.729-.232-5.098-1.778-.014-.016-.032-.028-.066-.057-.055.29-.09.56-.158.822-.103.393-.35.664-.772.678-.592.021-1.186.006-1.796.006V19.834h2.973zm-49.668 7.562c1.099 1.046 1.72 2.354 1.964 3.84.284 1.739.137 3.436-.635 5.042-1.183 2.463-3.64 3.82-6.401 3.557-2.895-.277-5.047-2.215-5.682-5.155-.136-.631-.178-1.283-.263-1.925.053-1.446.338-2.816 1.095-4.053 1.209-1.974 3.003-2.948 5.287-3.018 1.766-.054 3.339.476 4.635 1.712zm25.174-1.718c1.663-.01 3.146.458 4.372 1.616 1.033.975 1.62 2.2 1.88 3.585.1.538.136 1.09.205 1.66l-9.887 1.965c.04.14.07.276.114.407.54 1.639 1.857 2.52 3.568 2.418 1.548-.092 2.635-.866 3.354-2.214.056-.105.107-.214.174-.349l2.448 1.013c-.252.446-.459.89-.734 1.287-1.456 2.105-3.512 2.946-6.006 2.767-3.066-.22-5.16-2.374-5.708-5.363-.295-1.613-.215-3.205.373-4.748.94-2.47 3.212-4.028 5.847-4.044zm68.885-5.841V31.91c.287-.288.537-.533.781-.784 1.569-1.618 3.137-3.237 4.702-4.86.125-.13.252-.183.433-.181 1 .008 2.001.004 3.002.004h.241l.029.055-4.908 5.086 5.362 8.208c-.105.008-.169.016-.232.016-.948.001-1.896-.002-2.845.004-.145.001-.228-.044-.31-.166-1.28-1.918-2.565-3.832-3.849-5.747l-.115-.166c-.313.299-.629.587-.93.891-.414.417-.82.842-1.22 1.274-.072.078-.127.205-.128.31l-.006 1.644v1.936h-2.976V19.837h2.97zm-9.613 5.836c1.017.015 1.944.293 2.658 1.075.572.627.873 1.39.994 2.213.093.632.15 1.275.155 1.913.016 2.758.007 5.516.007 8.273v.299h-2.99v-.297c0-2.524.012-5.047-.01-7.57-.004-.583-.063-1.18-.206-1.743-.282-1.118-1.089-1.474-2.042-1.43-1.326.06-2.479.603-3.493 1.454-.14.117-.193.242-.192.426l.003 4.431v4.72H149.6v-.294-9.837c0-.672-.204-.865-.87-.823-.14.01-.28.027-.458.044v-.365c0-.536-.004-1.073.005-1.609 0-.072.052-.19.106-.209.814-.279 1.643-.494 2.513-.427.906.07 1.37.488 1.563 1.38.037.175.064.353.098.544.246-.219.47-.442.718-.632 1.304-1.001 2.768-1.562 4.424-1.536zm-138.811.033c1.442.156 2.507.915 3.022 2.551.21.667.31 1.355.313 2.05.011 2.992.005 5.984.004 8.976 0 .045-.004.09-.008.154h-2.975v-.266c0-2.554.002-5.108-.002-7.662 0-.619-.033-1.237-.246-1.828-.365-1.014-1.137-1.321-2.032-1.275-1.306.067-2.425.626-3.414 1.47-.182.154-.251.32-.25.563l.005 4.34v4.665h-2.972v-.282c0-2.433.012-4.866-.008-7.3-.005-.621-.057-1.254-.183-1.861-.237-1.137-1.085-1.707-2.239-1.59-1.299.133-2.421.658-3.394 1.524-.122.109-.168.226-.168.393l.004 4.397v4.711H1.388c-.005-.088-.014-.182-.014-.276l-.001-9.77v-.181c-.016-.556-.258-.775-.813-.736-.187.013-.373.03-.56.047v-2.131c.803-.292 1.622-.492 2.483-.483 1.024.012 1.587.483 1.77 1.5.027.146.05.293.077.451.296-.252.561-.508.855-.724 1.282-.947 2.707-1.491 4.315-1.46 1.2.022 2.252.392 2.952 1.442.218.328.37.699.531 1.01.404-.355.804-.77 1.266-1.099 1.385-.986 2.923-1.505 4.638-1.32zm67.24-.009c1.833.096 2.95 1.035 3.373 2.84.16.676.24 1.387.247 2.083.026 2.856.01 5.713.01 8.57 0 .073-.007.148-.01.236h-2.961v-.271c0-2.585.012-5.169-.01-7.753-.004-.538-.073-1.09-.212-1.608-.241-.895-.856-1.35-1.78-1.393-1.025-.046-1.955.291-2.826.797-.33.191-.627.44-.94.662-.148.104-.196.238-.195.423l.004 4.432v4.717h-2.958V29.367l-.001-.181c-.016-.53-.258-.756-.785-.725-.172.01-.344.035-.548.056v-.536c0-.476.003-.952-.002-1.429-.001-.112.023-.179.14-.216.726-.234 1.457-.424 2.229-.418 1.126.008 1.667.467 1.848 1.592.018.11.034.222.056.363.146-.139.269-.267.403-.382 1.416-1.214 3.038-1.893 4.919-1.794zm-38.615-.004c1.553.096 2.63.845 3.167 2.333.02.055.045.108.066.16.292-.283.558-.58.864-.829 1.387-1.125 2.955-1.764 4.763-1.66 1.81.102 2.927 1.052 3.379 2.82.177.692.245 1.397.246 2.109l.002 4.273v4.529h-2.972v-.278c0-2.577.007-5.154-.006-7.73-.002-.45-.049-.907-.135-1.348-.22-1.134-.966-1.733-2.113-1.675-1.403.072-2.589.67-3.602 1.627-.072.068-.1.214-.1.324l-.003 4.398v4.68H48.11v-.285c0-2.486.01-4.972-.008-7.458-.004-.555-.05-1.12-.165-1.662-.239-1.125-1.01-1.696-2.158-1.621-1.339.087-2.49.636-3.491 1.52-.129.114-.176.24-.176.414l.004 4.409v4.686h-2.958v-9.908c0-.114.003-.227-.001-.34-.017-.52-.247-.739-.767-.72-.188.005-.374.031-.587.05v-1.18c0-.265-.007-.53.005-.794.003-.066.054-.169.106-.187.897-.302 1.807-.526 2.765-.398.696.093 1.095.522 1.275 1.177.067.243.102.496.146.716.426-.332.836-.7 1.293-.997 1.25-.81 2.613-1.248 4.119-1.155zm95.599 7.105c-.416.116-.806.25-1.207.33-.41.082-.832.114-1.249.163-.7.082-1.402.15-2.056.446-1.132.511-1.604 1.898-1.01 2.995.374.691 1.024.904 1.741.932 1.38.054 2.586-.434 3.668-1.263.057-.044.093-.15.094-.226.011-1.012.014-2.023.019-3.034v-.343zm-74.508-4.452c-1.485.028-2.718.976-3.216 2.503-.42 1.289-.42 2.592.019 3.87.504 1.472 1.525 2.328 3.1 2.47 1.468.132 2.789-.585 3.467-1.896.412-.795.553-1.651.566-2.536-.005-.7-.095-1.386-.344-2.043-.597-1.578-1.848-2.4-3.592-2.368zm54.399 1.817c-.05.074-.07.18-.07.273-.006.65-.003 1.299-.003 1.948l.004 1.178c0 .196-.003.393-.007.589-.015.628.198 1.17.589 1.642.672.811 1.556 1.223 2.589 1.349 1.5.183 2.886-.543 3.548-1.91.646-1.334.688-2.735.317-4.146-.31-1.176-.98-2.08-2.16-2.511-1.691-.618-3.8.083-4.807 1.588zm-25.13-1.935c-2.265.366-3.145 2.415-3.126 4.182l7.167-1.373c-.008-.066-.01-.11-.02-.154-.463-1.884-2.118-2.964-4.021-2.655zM169.162 0c.524.088 1.058.142 1.573.268 3.262.8 5.666 3.791 5.77 7.154.133 4.275-3.125 7.795-7.394 7.988-3.689.167-6.923-2.204-7.876-5.773-.9-3.372.685-7.01 3.784-8.683.98-.529 2.024-.838 3.135-.92.05-.004.1-.022.15-.034h.857zM147.35 0c.487.087.983.138 1.458.266 5.693 1.539 7.638 8.403 3.722 12.637-1.98 2.141-4.472 2.864-7.328 2.342-.029-.005-.056-.017-.093-.028V10.52c.952.515 1.922.62 2.921.226.657-.258 1.179-.69 1.56-1.285.759-1.183.677-2.71-.198-3.785-.52-.638-1.182-1.038-1.991-1.188-.8-.149-1.553.001-2.284.41V.178l1.15-.178h1.083zm-15.484.233c2.972.612 5.993 3.454 5.967 7.522-.026 4.108-3.114 6.862-5.987 7.439v-.244c0-1.42.002-2.841-.003-4.262 0-.149.04-.243.166-.336 1.83-1.354 1.82-3.949-.013-5.3-.072-.053-.143-.163-.144-.247-.008-1.48-.006-2.962-.005-4.443 0-.042.013-.085.02-.129zm-11.915.611c.91.463 1.675 1.068 2.325 1.82 1.137 1.316 1.769 2.85 1.865 4.587.1 1.812-.384 3.464-1.445 4.94-.7.973-2.061 2.122-2.745 2.31V.844z"/>
</svg>
