<svg xmlns="http://www.w3.org/2000/svg" width="184" height="100" viewBox="0 0 184 100">
    <path fill-rule="evenodd" d="M72.062 65.627c2.782 0 4.3 2.08 4.3 4.58 0 2.968-1.801 4.768-4.448 4.768-2.689 0-4.26-2.03-4.26-4.606 0-2.713 1.733-4.742 4.408-4.742zm8.225.147v5.212c0 1.557.59 2.348 1.637 2.348 1.03 0 1.616-.687 1.664-2.144l.004-.204v-5.212h2.042v5.077c0 2.794-1.41 4.124-3.775 4.124-2.215 0-3.546-1.189-3.625-3.892l-.003-.258v-5.05h2.056zm13.936 0v1.72h-2.474v7.331h-2.056v-7.33H87.26v-1.72h6.963zm3.682 0v7.333h3.6v1.718h-5.657v-9.05h2.057zm10.937 0v1.68h-3.534v1.88h3.333v1.664h-3.333v2.149h3.724v1.678h-5.78v-9.05h5.59zm8.467 0v1.72h-2.473v7.331h-2.056v-7.33h-2.432v-1.72h6.961zm-45.301 1.477c-1.385 0-2.19 1.318-2.19 3.076 0 1.774.831 3.021 2.204 3.021 1.384 0 2.176-1.315 2.176-3.075 0-1.624-.78-3.022-2.19-3.022zm45.338-7.315v1.19H67.615v-1.19h49.731zm-3.059-13.138c.942 0 1.696.26 2.356 1.013l-.742.576c-.365-.542-.908-.812-1.614-.812-.871 0-1.779.459-1.779 1.505 0 2.248 4.277 1.06 4.277 4.06 0 1.517-1.425 2.412-2.745 2.412-1.013 0-1.99-.365-2.627-1.236l.766-.552c.353.612 1.025 1.013 1.895 1.013.838 0 1.791-.543 1.791-1.52 0-2.35-4.274-1.048-4.274-4.093 0-1.612 1.342-2.366 2.696-2.366zm-43.683.211c1.696 0 2.745.73 2.745 2.225s-1.05 2.234-2.745 2.234h-1.577v3.873h-.848v-8.332h2.425zm24.403 0c1.696 0 2.743.73 2.743 2.225 0 1.152-.764 2.035-2.13 2.152l2.401 3.955h-1.035L94.7 51.468h-1.412v3.873h-.848v-8.332h2.567zm-12.036.001l3.628 8.331h-.99l-.92-2.188h-4.261l-.92 2.188h-.99l3.629-8.33h.824zm22.01 0v8.33h-.847v-8.33h.848zm-22.421.989l-1.815 4.376h3.616L82.56 48zm12.236-.212h-1.508v2.906h1.508c1.518 0 2.036-.66 2.036-1.46 0-.8-.518-1.446-2.036-1.446zm-24.403 0h-1.366v2.906h1.366c1.518 0 2.036-.66 2.036-1.46 0-.8-.518-1.446-2.036-1.446zm76.473-22.669c4.065 0 6.285 3.042 6.285 6.693 0 4.337-2.63 6.966-6.5 6.966-3.93 0-6.227-2.963-6.227-6.73 0-3.965 2.535-6.929 6.442-6.929zm-127.426 0c4.067 0 6.285 3.042 6.285 6.693 0 4.337-2.63 6.966-6.5 6.966-3.927 0-6.225-2.963-6.225-6.73 0-3.965 2.533-6.929 6.44-6.929zm113.11.216v13.228h-3.004V25.334h3.004zm31.95.002l2.749 4.845c.788 1.395 1.571 3.043 2.162 4.534h.057c-.195-1.746-.253-3.532-.253-5.535v-3.844h2.749v13.226h-3.144l-2.828-5.102c-.784-1.414-1.65-3.122-2.296-4.672l-.06.02c.078 1.746.118 3.611.118 5.77v3.984h-2.748V25.336h3.494zm-127.425 0l2.749 4.845c.786 1.395 1.572 3.043 2.16 4.534h.06c-.198-1.746-.255-3.532-.255-5.535v-3.844h2.75v13.226h-3.143l-2.829-5.102c-.786-1.414-1.65-3.122-2.297-4.672l-.058.02c.078 1.746.118 3.611.118 5.77v3.984h-2.75V25.336h3.495zm42.731 0l2.748 4.845c.786 1.395 1.572 3.043 2.16 4.534h.06c-.195-1.746-.255-3.532-.255-5.535v-3.844h2.749v13.226h-3.142l-2.828-5.102c-.786-1.414-1.65-3.122-2.298-4.672l-.058.02c.078 1.746.116 3.611.116 5.77v3.984H76.31V25.336h3.496zm22.957 0l4.102 13.226h-3.219l-1.023-3.394h-3.79l-.941 3.394h-3.105l4.046-13.226h3.93zm19.302-.001v2.511h-3.612v10.715h-3.006V27.846h-3.556v-2.511h10.174zm-60.875 0v2.453h-5.166v2.747h4.871v2.433h-4.87v3.142h5.44v2.45H53.02V25.336h8.171zm85.598 2.16c-2.022 0-3.2 1.92-3.2 4.492 0 2.59 1.216 4.416 3.22 4.416 2.023 0 3.18-1.925 3.18-4.494 0-2.376-1.137-4.415-3.2-4.415zm-127.425 0c-2.023 0-3.202 1.92-3.202 4.492 0 2.59 1.217 4.416 3.222 4.416 2.022 0 3.18-1.925 3.18-4.494 0-2.376-1.138-4.415-3.2-4.415zm81.337.077h-.04c-.197.785-.392 1.786-.608 2.551l-.786 2.806h2.926l-.825-2.806c-.236-.785-.471-1.766-.667-2.551z"/>
</svg>
