<svg xmlns="http://www.w3.org/2000/svg" width="184" height="100" viewBox="0 0 184 100">
    <path fill-rule="evenodd" d="M36.085 55.586c3.717.001 6.677 2.957 6.676 6.668-.001 3.7-2.978 6.675-6.68 6.674-3.682 0-6.71-3.016-6.707-6.68.001-3.672 3.015-6.663 6.711-6.662zM172.898 40.22v26.661c-.919-.224-.738.204-1.576 0-.627-.153-1.12-1.844-1.724-1.991-.359-.088-1.88.729-2.236.642-7.716 2.206-13.682 1.125-17.633-4.194-3.5-4.711-3.304-11.514.46-16.026 4.07-4.879 10.06-5.819 17.191-3.487.442-.128 1.522.762 1.971.631.437-.127.892-1.923 1.35-2.056.88-.256 1.163.121 2.197-.18zm-71.446.954l-9.184 12.478 9.217 12.379c-7.651 2.724-8.381-4.884-12.383-7.783-3.99 2.925-4.67 10.381-12.408 7.896l9.238-12.514-9.18-12.464c7.704-2.546 8.368 4.957 12.29 7.78 4.062-2.443 4.64-10.426 12.41-7.772zm24.278 11.244c.3 2.55-.288 3.816-3.262 3.703-5.575-.21-11.164-.06-16.923-.06 2.13 5.431 5.629 6.624 12.119 4.354l2.562 3.295c-3.96 3.318-9.236 3.726-13.766 1.209-4.748-2.638-7.36-8.022-6.46-13.32.906-5.344 4.836-9.538 9.912-10.578 7.839-1.607 14.891 3.507 15.818 11.397zM65.581 40.735c7.181.075 12.74 5.682 12.758 12.867.017 7.154-5.557 12.825-12.708 12.93-7.273.107-13.162-5.655-13.166-12.883-.005-7.248 5.827-12.99 13.116-12.914zm83.438.547l-2.289 4.578-10.253 20.502-12.63-25.192c3.769-1.355 5.833-.22 7.2 3.14 1.416 3.475 3.305 6.758 5.393 10.938 2.19-4.314 3.96-7.793 5.72-11.276 1.94-3.835 1.991-3.86 6.86-2.69zm-128.2 3.98c4.916-.033 8.966 3.92 8.99 8.777.024 4.942-3.92 8.913-8.877 8.939-4.884.024-8.902-3.918-8.932-8.765-.03-4.897 3.93-8.916 8.818-8.95zm44.556.294c-4.417.031-8.086 3.842-7.982 8.289.1 4.296 3.739 7.802 8.068 7.775 4.352-.028 7.928-3.544 7.995-7.861.068-4.441-3.668-8.234-8.081-8.203zm94.892.01l-.245.001c-4.441.074-8.06 3.911-7.892 8.368.163 4.326 3.8 7.75 8.16 7.683 4.323-.067 7.885-3.654 7.893-7.949.008-4.288-3.469-7.899-7.673-8.095l-.243-.007zM38.81 32c5.944.008 10.817 4.865 10.815 10.78-.001 5.91-4.892 10.774-10.828 10.77-5.959-.002-10.786-4.829-10.784-10.783.001-5.95 4.84-10.775 10.797-10.767zm73.51 13.627c-3.166.185-5.473 1.778-6.91 5.073l-.132.314h15.146c-1.892-3.816-4.462-5.598-8.105-5.387z"/>
</svg>
