<svg xmlns="http://www.w3.org/2000/svg" width="184" height="100" viewBox="0 0 184 100">
    <path fill-rule="evenodd" d="M74.038 32.708c0 .907.004 1.815-.003 2.722-.002.326.078.567.46.555 1.083-.035 2.176.006 3.24-.152.458-.067.934-.482 1.261-.86.772-.892.828-2.053.59-3.09-.325-1.412-.602-2.055-2.383-2.354-.822-.139-1.68-.054-2.52-.101-.514-.03-.668.192-.653.678.026.867.007 1.735.008 2.602M43.367 19v1c0 1.716-.01 3.433.008 5.15.004.379-.028.67-.511.689v13h-1.601v.663h2.554V25.898h14.81v46.288H49.14v9.259H21V39.058h.617c2.52 0 5.04-.018 7.56.014.59.007.784-.112.781-.755-.027-6.2-.016-12.4-.016-18.601V19h13.425zm104.791 37.132c2.018.151 3.598 1.826 3.644 3.874.025 1.106.014 2.215-.006 3.322-.031 1.672-.109 3.344-.114 5.016-.002.51.119 1.038.277 1.527.099.304.32.63.58.808.424.288.415.516.112.87-.246.288-.48.6-.65.937-.228.45-.566.482-.879.215-.628-.536-1.202-1.136-1.868-1.775-.206.168-.533.451-.877.712-1.606 1.214-3.392 1.2-5.264.827-2.475-.494-3.427-2.905-3.182-5.097.286-2.56 2.612-4.17 4.882-4.559 1.446-.247 2.919-.339 4.552-.52-.097-.84-.1-1.77-.334-2.64-.242-.903-1.042-1.311-1.935-1.366-1.66-.102-3.16.457-4.547 1.316-.848.526-.83.56-1.39-.253-.941-1.36-.974-1.051.487-1.89 2.015-1.158 4.22-1.496 6.512-1.324zm-52.263 0c2.021.15 3.595 1.81 3.645 3.862.027 1.107.017 2.214-.004 3.32-.03 1.672-.104 3.342-.116 5.014-.004.471.078.969.243 1.408.14.371.413.722.707.995.267.248.316.429.111.712-.281.39-.557.784-.821 1.184-.209.316-.465.25-.735.12-.816-.39-1.339-1.056-1.76-1.96-.389.313-.722.596-1.068.86-1.587 1.207-3.36 1.193-5.207.832-2.493-.488-3.523-2.883-3.204-5.125.32-2.245 1.717-3.463 3.667-4.209 1.607-.614 3.304-.733 5.006-.7.522.01.746-.119.68-.668-.06-.497-.048-1.002-.105-1.5-.133-1.172-.976-1.972-2.163-2.01-1.658-.05-3.153.5-4.537 1.364-.791.494-.801.522-1.303-.237-.91-1.375-1.14-1.035.509-1.966 2.004-1.133 4.185-1.464 6.455-1.296zm64.338-4.204l-.382 4.544h4.068c-.276.69-.485 1.275-.753 1.831-.057.118-.333.177-.51.182-.786.019-1.573.023-2.359.002-.363-.01-.497.11-.495.482.01 3.231-.022 6.463.016 9.693.024 2.03 1.28 2.334 2.963 1.928.172-.042.337-.115.585-.2.11.5.253.954.29 1.415.014.172-.179.465-.345.53-1.468.583-2.965.68-4.445.061-1.077-.45-1.587-1.5-1.577-2.805.029-3.594.017-7.188.019-10.782 0-.078-.023-.155-.05-.32h-1.996v-1.97h1.977l.257-3.99 2.737-.601zm-26.624 0l-.373 4.542h4.06c-.277.694-.487 1.289-.76 1.853-.055.115-.343.16-.525.163-.922.016-1.845.007-2.853.007v.7c0 2.846-.006 5.691.006 8.536.002.5.053 1.003.13 1.497.179 1.153 1.035 1.738 2.2 1.513.407-.078.806-.199 1.273-.316.064.287.117.5.158.716.218 1.14.222 1.164-.888 1.44-1.1.274-2.215.338-3.32.001-1.36-.415-2.05-1.483-2.038-2.907.03-3.691.01-7.383.01-11.142h-2.029V56.5h1.971l.23-3.965 2.748-.608zM106.701 49.7c.078 1.396.19 2.791.232 4.188.04 1.344.009 2.69.009 4.196.361-.318.62-.574.907-.794 2.957-2.26 7.72-1.358 9.058 3.08.848 2.812.828 5.664-.296 8.413-.732 1.791-1.934 3.163-3.922 3.67-2.093.534-3.902.031-5.483-1.404-.058-.052-.123-.096-.183-.142-.04.034-.086.052-.091.08-.25 1.215-.27 1.312-1.32 1.32h-1.662c.127-.712.335-1.351.342-1.993.06-5.828.104-11.657.101-17.485 0-1.048-.238-2.095-.372-3.192.66-.14 1.314-.287 1.97-.415.38-.074.684-.004.71.478zm17.79 6.414v16.156h-2.615V56.548l2.615-.433zm-52.3-5.514v8.96c.173.02.325.056.477.056 2.62.003 5.242-.004 7.863.009.445.002.664-.112.661-.61-.015-2.785-.007-5.57-.007-8.407h2.671v21.66h-2.69V61.915h-8.932v10.344H69.61V50.601h2.58zM39.46 47.48h-1.868v24.776h3.634c.023-.198.034-.316.051-.433.076-.521-.075-.803-.672-.721-.336.046-.682.008-1.145.008V47.48zm57.537 16.764c-1.162.073-2.16.093-3.148.206-2.032.232-3.088 1.154-3.302 3.185-.155 1.482.338 2.666 1.88 2.984 1.308.27 2.473-.155 3.438-1.023.4-.358.832-.874.902-1.367.178-1.263.162-2.554.23-3.985zm50.588.071c-.493.022-.993.042-1.476.134-1.924.364-3.128.973-3.314 3.214-.132 1.582.496 2.962 2.52 3.019 1.019.028 1.91-.335 2.656-.934.47-.38.96-.976 1.052-1.539.205-1.251.164-2.543.227-3.899-.663 0-1.165-.017-1.665.005zm-37.08-5.797c-.917.251-1.825.626-2.645 1.105-.621.362-1.085.918-.978 1.824.116.976.026 1.976.026 2.965 0 1.192-.029 2.384.02 3.573.013.324.172.76.415.934.63.448 1.32.832 2.03 1.146 1.557.69 4.049.043 4.643-2.323.226-.903.447-1.82.531-2.744.154-1.687.072-3.363-.765-4.907-.509-.939-2.245-1.856-3.278-1.573zm-83.609-5.597c-.885.153-1.308 1.15-.969 1.998.237.595.643 1.054 1.252 1.23 1.053.303 2.127.539 3.192.803l.04-.148c.97.023 1.859-.214 2.646-.807.279-.211.333-.43.102-.706-.517-.617-.966-1.311-1.568-1.828-.45-.386-1.082-.726-1.653-.762-1.007-.064-2.042.047-3.042.22zm96.403-3.22c.904-.016 1.936.928 1.91 1.801-.045 1.513-.641 2.18-2.014 2.17-1.253-.01-1.953-.73-1.941-1.997.01-1.17.852-1.955 2.044-1.975zm-80.589.376c-.31.014-.678.202-.897.43-.194.2-.317.579-.28.853.02.16.404.343.647.386.531.092 1.077.102 1.61.145.289-.02.57-.032.849-.064.198-.022.397-.062.59-.113.577-.152.726-.495.364-.965-.185-.24-.472-.51-.747-.554-.702-.11-1.425-.149-2.136-.118zm50.78-18.912c1.402.069 2.746.35 3.806 1.337.737.687 1.161 1.585 1.167 2.613.012 2.54.025 5.083-.028 7.623-.025 1.17.283 2.131 1.212 2.866.092.072.164.17.293.308-.702.835-1.372 1.623-2.03 2.421-.263.318-.544.233-.796.04-.643-.494-1.267-1.015-1.934-1.553-.897 1.053-2.166 1.467-3.601 1.5-1.37.032-2.709-.05-3.925-.79-1.355-.825-1.982-2.087-2.068-3.609-.046-.81-.005-1.66.189-2.444.466-1.887 1.837-2.967 3.638-3.372 1.412-.317 2.885-.381 4.336-.494.365-.029.535-.078.5-.446-.045-.455-.046-.926-.172-1.36-.235-.806-1.181-1.24-2.079-1.048-1.353.29-2.606.821-3.75 1.591-.405.273-.596.241-.828-.2-.393-.748-.832-1.474-1.296-2.178-.273-.413-.193-.59.226-.832 2.214-1.274 4.542-2.1 7.14-1.973zm40.642 1.167c.423.197.482.385.273.775-.352.657-.678 1.33-.992 2.006-.17.365-.362.44-.756.288-.931-.36-1.875-.698-2.835-.969-.745-.21-1.484-.012-2.108.42-.757.523-.623 1.789.247 2.108 1.08.398 2.198.708 3.317.985 1.537.382 2.79 1.14 3.533 2.57.781 1.501.404 4.182-.793 5.472-1.623 1.749-3.604 2.231-5.847 2.237-2.146.005-4.092-.671-5.995-1.569-.419-.197-.537-.393-.309-.824.462-.87.885-1.761 1.351-2.698.909.423 1.717.893 2.586 1.179.934.307 1.916.531 2.894.624.83.078 1.482-.388 1.84-1.184.279-.617.118-1.42-.504-1.693-.864-.38-1.792-.615-2.703-.878-.684-.197-1.415-.264-2.072-.524-1.544-.612-2.562-1.703-2.751-3.429-.155-1.417-.015-2.788.916-3.932 1.075-1.322 2.486-1.976 4.201-2.158 2.309-.246 4.437.23 6.507 1.194zm-15.003-1.212v16.563h-4.245V31.78l4.245-.661zm-7.498.173c.25.097.482.18.354.557-.299.875-.56 1.763-.842 2.644-.084.267-.182.53-.285.827-.102-.012-.2-.008-.287-.038-1.333-.472-2.55-.131-3.387.993-.126.17-.148.447-.149.675-.009 3.312-.006 6.625-.006 9.937v.765h-4.275v-.684c0-2.969-.007-5.938.002-8.907.006-1.85-.057-3.694-.558-5.49-.097-.345.022-.487.326-.569 1.028-.275 2.05-.574 3.087-.811.173-.04.517.131.59.292.226.503.361 1.047.607 1.81.33-.418.573-.764.855-1.073.889-.973 2.746-1.4 3.968-.928zm-36.448-5.566c1.41.048 2.824.162 4.224.345 2.755.361 5.097 2.949 5.168 5.733.047 1.862-.105 3.62-1.266 5.125-1.242 1.612-2.845 2.618-4.959 2.661-1.403.03-2.805.118-4.298.183v7.877h-4.446V25.752c.122-.01.31-.037.498-.037 1.693-.004 3.388-.047 5.079.012zm18.944 14.831c-.93.166-1.77.29-2.599.472-.727.16-1.101.69-1.262 1.39-.216.937.172 2.065.826 2.397.916.466 2.292.124 2.885-.727.077-.11.142-.256.144-.386.012-.985.006-1.969.006-3.146zm25.594-13.39c-.027 1.646-1.247 2.764-2.72 2.628-1.53.177-2.698-1.351-2.652-2.693.049-1.427 1.155-2.543 2.47-2.625 2.104-.132 2.922 1.443 2.902 2.69zm-82.607.206c-.471.086-.967.109-1.402.284-.211.084-.371.437-.434.698-.037.15.13.476.269.52 1.163.372 2.352.555 3.556.201.455-.133.536-.408.245-.814-.561-.784-1.386-.806-2.234-.889z"/>
</svg>
