<?xml version="1.0" encoding="UTF-8"?>
<svg width="121px" height="90px" viewBox="0 0 121 90" version="1.1" xmlns="http://www.w3.org/2000/svg" xmlns:xlink="http://www.w3.org/1999/xlink">
    <title>Fill 29</title>
    <g id="Symbols" stroke="none" stroke-width="1" fill="none" fill-rule="evenodd">
        <g id="01_logos-/-Clients-/-Pathe-/-Black" transform="translate(-32.000000, -5.000000)" fill="#130E05">
            <path d="M50.7508762,68.3186548 C50.8030309,68.2629441 50.8279229,68.3743654 50.9393442,68.4466707 C51.0483948,68.5154201 51.1349241,68.5640187 51.1906348,68.6706987 C51.1906348,68.6706987 51.2890174,68.696776 51.4134774,68.874576 C51.540308,69.0547466 51.5960187,69.0903066 51.6303934,69.0855653 C51.6600267,69.0820093 51.7619653,69.0997893 51.6552853,68.8046413 C51.5450494,68.5130494 51.4241454,68.4680067 51.4466667,68.3660681 C51.4691881,68.2676854 51.8058226,68.5995787 51.906576,68.7513013 C52.0061439,68.9018386 51.9693986,69.0002213 52.0322213,69.0476346 C52.0950439,69.0926773 52.1578666,69.0511906 52.1246772,68.981256 C52.0867466,68.9113213 52.0677813,68.72878 51.9326533,68.6410654 C51.799896,68.5533507 51.8733866,68.4525974 51.9800666,68.5450534 C52.0867466,68.6375094 52.1211212,68.5995787 52.1673492,68.6706987 C52.2147626,68.74656 52.3830799,68.7027027 52.5715478,69.1436466 C52.5715478,69.1436466 52.6071078,69.1958012 52.6474091,69.0926773 C52.6853398,68.9859973 52.6497798,68.8722053 52.7019345,68.8650933 C52.7540891,68.8591667 52.7718691,69.1531293 52.8607691,69.4115319 L52.8607691,69.4115319 L52.9911557,69.5110998 C52.9911557,69.5110998 53.1286544,69.5075438 53.2222957,69.6130385 L53.2222957,69.6130385 L53.2993423,69.6391158 C53.2993423,69.6391158 53.347941,69.6082972 53.394169,69.7576491 C53.426173,69.8560318 53.4984783,69.7777998 53.5186289,69.8465491 C53.5399649,69.9200398 53.4901809,69.9591557 53.4735863,70.0670211 C53.458177,70.1784424 53.5695983,70.180813 53.5695983,70.180813 C53.5695983,70.180813 53.6122703,70.1962224 53.5695983,70.308829 C53.5269263,70.4202503 53.5992316,70.4344743 53.5423356,70.497297 L53.5423356,70.497297 L53.5850076,70.539969 C53.5850076,70.539969 53.6857609,70.5352276 53.8469662,70.6632436 C54.0081715,70.7924449 54.0994421,70.8825302 54.1432995,71.0544035 C54.1883421,71.2227208 54.0828475,71.1207822 54.0271368,71.1456742 C53.9737968,71.1753075 53.9180862,71.1883461 53.8114062,71.1930875 C53.7070969,71.1978288 53.6691662,71.1895315 53.5719689,71.1812341 C53.5719689,71.1812341 53.5304823,71.1681955 53.4866249,71.2156088 C53.436841,71.2665781 53.3917983,71.2772461 53.3704623,71.3412541 C53.3704623,71.3412541 53.436841,71.3388834 53.4806983,71.4194861 C53.5070127,71.4664253 53.5145514,71.4916018 53.5163721,71.5042327 L53.5162583,71.5154981 C53.5162583,71.5154981 53.6881316,71.5380194 53.8197035,71.956442 C53.9500902,72.3736792 53.8671169,72.5088072 53.8671169,72.5088072 C53.8671169,72.5088072 53.9346809,72.8975964 53.7343596,73.1038444 C53.7343596,73.1038444 53.7628076,73.2567524 53.5755249,73.291127 C53.5755249,73.291127 53.5340383,73.3077217 53.4842543,73.3883243 C53.4320996,73.4665563 53.2993423,73.5590123 53.2993423,73.5590123 L53.2993423,73.5590123 L52.7422358,73.7356269 L52.3842652,73.8174149 C52.3842652,73.8174149 52.2811412,73.8541602 52.3771532,74.0189215 C52.5430998,74.2951041 52.8086144,74.6815227 53.0124917,75.2042546 C53.1156157,75.7672878 53.440397,76.4535957 53.3206783,77.0948609 C53.2893855,77.2616372 53.2628933,77.3953428 53.2412337,77.5035945 L53.2043675,77.6884164 C53.179031,77.817914 53.1671777,77.890812 53.1689557,77.942374 C53.1725117,78.049054 53.148805,78.2315953 53.102577,78.2967886 C53.102577,78.2967886 53.1191717,78.4639206 53.0136771,78.6689832 C53.0136771,78.6689832 53.0267157,78.8740458 52.9449277,78.9333125 C52.8666958,78.9913938 52.9721904,79.1620817 52.8441744,79.1786764 L52.8441744,79.1786764 L52.8666958,79.2509817 C52.8666958,79.2509817 52.6853398,79.8424629 52.5845865,80.1873948 C52.4826478,80.5287708 52.2515079,80.95312 51.9990319,81.2992373 L51.9990319,81.2992373 L51.9326533,81.3264999 L51.9468773,81.3964346 C51.9468773,81.3964346 51.7169227,81.5694932 51.4205894,81.8195985 C51.1242561,82.0720744 50.9523828,82.3198091 50.7425789,82.4810143 C50.7425789,82.4810143 49.9484057,83.1175382 49.6698524,83.3842382 C49.6698524,83.3842382 49.6331071,83.6165634 49.6414045,83.8299234 L49.6414045,83.8299234 L49.5880645,83.7967341 L49.5880645,84.0089087 C49.5880645,84.0089087 49.5098325,83.9733487 49.4979792,83.8654834 C49.4979792,83.8654834 49.4244885,84.002982 49.4363418,84.123886 C49.4493805,84.248346 49.3201792,84.4178486 49.3201792,84.4178486 L49.3201792,84.4178486 L49.2597272,84.4131073 C49.2597272,84.4131073 49.2253525,84.5423086 49.1708272,84.5932779 L49.1708272,84.5932779 L49.1601592,84.5660152 L49.1103752,84.6537299 C49.1103752,84.6537299 49.1542326,84.5340112 49.1210432,84.4474819 C49.1210432,84.4474819 49.0475526,84.5055632 49.0309579,84.6086872 L49.0309579,84.6086872 L48.9752473,84.5980192 L48.9669499,84.4581499 C48.9669499,84.4581499 48.8614553,84.5707566 48.7298833,84.6999579 C48.7298833,84.6999579 48.6800993,84.5766832 48.64691,84.6418765 L48.64691,84.6418765 L48.636242,84.7758192 L48.636242,84.7758192 C48.6076623,84.7472066 48.5181038,84.7098356 48.2474528,85.0140711 L48.2474528,85.0140711 L48.2853834,84.9085765 L48.2071514,84.9713991 C48.2071514,84.9713991 47.9582315,85.0650405 47.8752582,85.1207511 L47.8752582,85.1207511 L48.0139421,84.9548045 C48.0139421,84.9548045 47.6073729,85.2345431 47.4520943,85.4846484 C47.2956303,85.7335683 47.3181516,85.7442363 47.3181516,85.7442363 L47.3181516,85.7442363 L47.301557,85.8046883 L47.262441,85.9184803 C47.262441,85.9184803 47.1687997,86.1128749 47.123757,86.2835629 L47.123757,86.2835629 L47.1178303,86.4850695 C47.1178303,86.4850695 47.1012357,86.5953055 47.073973,86.6510161 C47.0467104,86.7079121 47.052637,86.8750441 46.9862584,86.9509054 C46.917509,87.0303227 46.8617984,87.0836627 46.7776397,86.963944 C46.7776397,86.963944 46.5595385,87.3728839 46.4255958,87.5542399 C46.2940239,87.7320399 45.7973693,88.2144704 45.725064,88.5748117 C45.653944,88.9410796 45.508148,88.9730836 45.4915534,89.2397835 C45.476144,89.5076688 45.476144,89.5550821 45.4062094,89.6427968 L45.4062094,89.6427968 L45.51526,90.3504406 C45.51526,90.3504406 45.742844,91.4800631 45.8151493,91.661419 C45.8862693,91.8439603 46.0451039,92.7329601 46.2015679,93.0103281 C46.2015679,93.0103281 46.5251638,93.07078 46.6982224,93.0506294 C46.8866904,93.0233667 47.066861,93.042332 47.2399196,93.042332 C47.2399196,93.042332 47.3904569,92.9783241 47.6654542,93.0020307 C47.6654542,93.0020307 47.6820489,92.9392081 47.8396982,93.0233667 C47.8396982,93.0233667 48.2035954,92.9000921 48.4157701,93.2225027 C48.4157701,93.2225027 48.5236354,93.3967466 48.2261168,93.252136 C48.2261168,93.252136 48.0708381,93.2225027 48.0068301,93.2687307 C48.0068301,93.2687307 47.9748262,93.4595693 47.7602809,93.469052 C47.5481062,93.4749786 47.5481062,93.4287506 47.5481062,93.4287506 C47.5481062,93.4287506 47.4058663,93.5247626 47.2399196,93.437048 C47.2399196,93.437048 47.1925063,93.5318746 47.1071623,93.5140946 L47.1071623,93.5140946 L47.265997,93.6089213 C47.265997,93.6089213 47.3833449,93.5591373 47.6038169,93.6397399 C47.8254742,93.7203426 48.2486381,93.5994386 48.4157701,93.5781026 L48.4157701,93.5781026 L48.494002,93.6089213 L48.636242,93.6089213 L48.6907673,93.6468519 C48.6907673,93.6468519 49.0214753,93.5532106 49.2265379,93.7274546 C49.4316005,93.9016985 49.4624192,93.9894132 49.2739512,93.9313319 C49.0854832,93.8768065 48.9361313,93.8685092 48.8484166,93.9467412 C48.8484166,93.9467412 48.9005713,94.0415678 48.650466,94.0759425 C48.4015461,94.1079465 48.461998,94.0498652 48.3778394,94.0783132 L48.3778394,94.0783132 L48.3873221,94.0949078 C48.3873221,94.0949078 48.6409833,94.1197998 48.8341926,94.2727078 C49.0250313,94.4279864 49.1874219,94.593933 49.0392553,94.604601 C48.892274,94.6200104 48.7950766,94.4505077 48.6386127,94.4279864 C48.6386127,94.4279864 48.579346,94.4694731 48.5461567,94.5394077 C48.5141527,94.6128984 48.2035954,94.6176397 48.0957301,94.5607437 C47.9866795,94.5062184 47.8681462,94.4647317 47.6844195,94.5488904 C47.5943342,94.593933 47.2363636,94.5251837 47.2363636,94.5251837 L47.2363636,94.5251837 L46.8463891,94.5062184 C46.8463891,94.5062184 46.5962838,94.4362837 46.5050131,94.4220597 C46.4161132,94.4078357 45.7878866,94.4125771 45.7084693,94.4185037 C45.7084693,94.4185037 45.7760333,94.5062184 45.540152,94.569041 L45.540152,94.569041 L45.4145067,94.650829 L45.2722667,94.650829 C45.2722667,94.650829 45.1798108,94.7669917 44.9320761,94.7669917 C44.9320761,94.7669917 44.8787362,94.7764743 44.8360642,94.846409 C44.8360642,94.846409 44.6238895,94.9127876 44.4970589,94.8653743 C44.4188269,94.8345557 44.4496456,94.7420997 44.3785256,94.7918837 C44.3785256,94.7918837 44.205467,94.9092316 44.0928603,94.988649 C44.006331,95.0514716 44.0976017,94.8369263 44.1651656,94.7515823 C44.2279883,94.665053 44.3666723,94.5026624 44.5468429,94.4505077 C44.5468429,94.4505077 44.5835882,94.4196891 44.6061096,94.4019091 C44.6274455,94.3888704 44.6464109,94.3450131 44.8775508,94.3165651 C44.8775508,94.3165651 44.8834775,94.2798198 44.9984548,94.2288505 C44.9984548,94.2288505 45.1181734,94.1103171 45.1300268,94.0652745 C45.1418801,94.0166758 45.1454361,93.9040692 45.1454361,93.9040692 C45.1454361,93.9040692 45.1158028,93.9088105 45.0920961,93.9526678 C45.0695748,93.9941545 45.0304588,94.0783132 44.8846628,94.1150585 C44.7412375,94.1494331 44.5717349,94.1197998 44.5444722,93.9917838 C44.5444722,93.9917838 44.5361749,93.9538532 44.5124682,93.9597798 C44.4875762,93.9621505 44.3631163,94.0249732 44.3228149,94.1186145 C44.2789576,94.2075145 44.201911,94.1648425 44.237471,94.0226025 C44.2754016,93.8744359 44.3998616,93.6800412 44.6120362,93.6361839 L44.6120362,93.6361839 L44.6416695,93.6148479 C44.6416695,93.6148479 44.5183949,93.5271333 44.4069736,93.5425426 C44.2967376,93.5579519 44.141459,93.5828439 44.0122577,93.7843506 C43.8842417,93.9894132 43.7953417,93.9740038 43.7242217,93.9870425 C43.6531018,93.9941545 43.5677578,93.9894132 43.4539658,94.1079465 C43.3425445,94.2264798 43.1007365,94.1897345 43.0604352,94.1079465 L43.0604352,94.1079465 L43.0153926,94.1079465 C43.0153926,94.1079465 42.9513846,94.1624718 42.8755233,94.2395185 C42.8032179,94.3165651 42.6669046,94.4362837 42.6953526,94.2679664 C42.7226153,94.1008345 42.9419019,93.8874745 43.0604352,93.8104279 L43.0604352,93.8104279 L43.0639912,93.7772386 C43.0639912,93.7772386 43.1694859,93.6634466 43.2014899,93.6468519 C43.2358645,93.6290719 43.3698072,93.5508399 43.5440511,93.4927586 C43.5440511,93.4927586 43.7147391,93.3434066 43.7562257,93.2509507 C43.7977124,93.1584947 43.7787471,93.045888 43.7787471,93.045888 C43.7787471,93.045888 43.7609671,93.031664 43.6839204,93.0897454 C43.6056884,93.1513827 43.5677578,93.1999813 43.4812285,93.277028 C43.4812285,93.277028 43.4077378,93.291252 43.3875872,93.3197 C43.3875872,93.3197 43.3496565,93.4133413 43.3152818,93.437048 C43.2844632,93.4595693 43.1884512,93.5425426 42.9881299,93.5271333 C42.7854379,93.5081679 42.7972913,93.37304 42.7972913,93.37304 C42.7972913,93.37304 42.6763873,93.37304 42.59697,93.5081679 C42.518738,93.6468519 42.4523594,93.4963146 42.518738,93.3434066 C42.5839313,93.19524 42.6846846,93.07078 42.8802646,93.042332 L42.8802646,93.042332 L42.9063419,93.0233667 L42.9454579,92.9901774 L43.0023539,92.9723974 L43.0533232,92.9534321 L43.1090339,92.9178721 L43.1813392,92.8597908 L43.2477178,92.8206748 C43.2477178,92.8206748 43.3769192,92.7175508 43.4065525,92.6760641 L43.4348153,92.6455603 C43.4651524,92.6133896 43.4978231,92.5800521 43.4978231,92.5800521 L43.4978231,92.5800521 L43.4990085,92.5444922 C43.4990085,92.5444922 43.5784258,92.4935228 43.5879084,92.4662602 C43.5962058,92.4389975 43.5618311,92.4129202 43.7028857,92.3429855 C43.7028857,92.3429855 43.7076271,92.2291936 43.7977124,92.2185256 C43.8877977,92.2078576 43.8806857,91.9731616 43.878315,91.928119 C43.874759,91.878335 43.8297164,91.9008563 43.874759,91.8166976 C43.874759,91.8166976 43.8842417,91.7586163 43.8486817,91.7550603 C43.8143071,91.7550603 43.8593497,91.668531 43.8593497,91.668531 C43.8593497,91.668531 43.7728204,91.3852364 43.6993297,91.1623938 C43.6282098,90.9395512 43.2074165,89.6427968 43.0900685,89.4566995 C42.9679792,89.2729729 42.9027859,88.6589703 42.9027859,88.6589703 C42.9027859,88.6589703 42.7226153,88.4965797 42.5708927,88.0817131 C42.5708927,88.0817131 42.5388887,87.7000359 42.6372713,87.4357066 L42.6372713,87.4357066 L42.61475,87.3183586 C42.61475,87.3183586 42.5056993,87.141744 42.47251,87.1962693 C42.440506,87.2507946 42.3089341,87.3065053 42.3089341,87.3065053 C42.3089341,87.3065053 42.2318874,87.3728839 42.1773621,87.0860333 L42.1773621,87.0860333 L42.0683114,87.1298907 L42.0683114,87.0658827 L42.0126008,87.0978867 L41.9047355,87.0552147 C41.9047355,87.0552147 42.0244541,86.9793534 42.0126008,86.9153454 C42.0031181,86.8477814 41.8265035,86.8015534 41.8063528,86.7173948 C41.8063528,86.7173948 41.7624955,86.8240747 41.5882515,86.8240747 L41.5882515,86.8240747 L41.4661622,86.8703027 C41.4661622,86.8703027 41.3499996,86.9260134 41.4116369,86.4329148 C41.4116369,86.4329148 41.3037716,86.3333468 41.173385,86.3558682 C41.041813,86.3772042 41.009809,86.3772042 41.009809,86.3772042 L41.009809,86.3772042 L41.009809,86.2349642 L40.942245,86.1804389 L40.9114264,86.0737589 C40.9114264,86.0737589 40.6470971,85.9303336 40.6044251,85.8971443 L40.6044251,85.8971443 L40.6802864,85.8426189 L40.6044251,85.767943 L40.4728531,85.600811 L40.4088451,85.668375 L40.2986092,85.5391737 L40.2440838,85.5249497 L40.1255505,85.4739804 L39.9927932,85.3744124 L39.9382679,85.2973657 L39.7841746,85.3400377 L39.8055106,85.2629911 L39.685792,85.2321724 L39.7320199,85.1539404 L39.6336373,85.1444578 L39.468876,84.9690285 L39.490212,84.9038352 L39.4143507,84.9121325 L39.337304,84.8161205 L39.2614427,84.8694605 L39.1512067,84.7947845 L38.9982988,84.7817458 L39.0326734,84.7177379 C39.0326734,84.7177379 38.9342908,84.5968339 38.7588615,84.4901539 C38.7588615,84.4901539 38.8453908,84.4107366 38.7268575,84.3348753 C38.6059535,84.2601993 38.3807402,84.0148353 38.2479829,83.7599887 L38.2479829,83.7599887 L38.1152256,83.5964128 L38.0500323,83.6604208 L38.0903336,83.4885475 L38.034623,83.4790648 L37.9160897,83.4233541 L37.7418457,83.3107475 L37.7418457,83.3107475 L37.7274321,83.2542688 C37.714346,83.2056796 37.6944324,83.1384001 37.6766524,83.1056849 C37.6766524,83.1056849 37.7382897,82.9587036 37.6055324,82.9101049 C37.6055324,82.9101049 37.6399071,82.8698036 37.5936791,82.8200196 L37.5936791,82.8200196 L37.5901231,82.7583823 L37.5593044,82.7311196 L37.5344124,82.657629 L37.4751458,82.5948063 L37.3992845,82.650517 L37.2890485,82.5734703 L37.1373258,82.5628023 L37.1705152,82.497609 C37.1705152,82.497609 37.0733179,82.3790757 36.8967032,82.2664691 C36.8967032,82.2664691 36.9867885,82.1360824 36.8670699,82.0590358 C36.8670699,82.0590358 36.9097419,82.0294024 36.8729966,81.9701358 L36.8729966,81.9701358 L36.8812939,81.9108691 L36.8587726,81.8788651 L36.8564019,81.8077452 C36.8564019,81.8077452 36.7663166,81.7520345 36.6892699,81.6157212 L36.6892699,81.6157212 L36.7746139,81.6560225 L36.7805406,81.5837172 L36.8303246,81.6643199 L36.8374366,81.5920145 L36.8729966,81.6417985 C36.8729966,81.6417985 36.9654526,81.4900759 36.8291392,81.3419093 C36.8291392,81.3419093 36.5565126,81.1890013 36.6868993,81.031352 C36.6868993,81.031352 36.7556486,80.8985947 36.6655633,80.7516134 C36.6655633,80.7516134 36.6655633,80.6508601 36.426126,80.6188561 C36.1866887,80.5880374 36.1084567,80.4434268 36.1499434,80.3106695 C36.1914301,80.1767269 36.1463874,80.0878269 36.0148154,80.0795295 C36.0148154,80.0795295 35.8559808,79.8780229 35.8204208,79.7322269 C35.7824901,79.5888016 35.8346448,79.565095 35.8346448,79.565095 C35.8346448,79.565095 35.8417568,79.4501177 35.9365834,79.422855 L35.9365834,79.422855 L35.9365076,79.392776 C35.9386696,79.3661487 35.9474885,79.3273172 35.9780701,79.2995804 C35.9780701,79.2995804 35.8678341,79.1798617 35.7196675,79.2177924 C35.5703155,79.2509817 35.0606223,79.373071 35.0606223,79.373071 L35.0606223,79.373071 L35.0724756,79.333955 C35.0724756,79.333955 34.870969,79.405075 34.6469411,79.4631563 C34.4264691,79.5271643 34.2913411,79.5354617 34.2617078,79.2853564 L34.2617078,79.2853564 L34.3790558,79.2094951 L34.3672025,79.1857884 L34.3055651,79.1763057 L34.3150478,79.1360044 L34.2308891,79.1324484 C34.2308891,79.1324484 34.2225918,79.0838498 34.3470518,79.0494751 C34.3470518,79.0494751 34.5201104,78.9795404 34.3292718,78.9890231 L34.3292718,78.9890231 L34.2581518,78.9913938 C34.2581518,78.9913938 34.2605225,78.9451658 34.4750678,78.8290031 C34.4750678,78.8290031 34.4987744,78.7792192 34.4798091,78.7341765 C34.4596584,78.6891338 34.4406931,78.6500179 34.4406931,78.6500179 C34.4406931,78.6500179 34.3802411,78.7875165 34.3517931,78.8005552 C34.3233451,78.8124085 34.2830438,78.6938752 34.1976998,78.5374112 C34.1087998,78.3797619 34.1645105,78.0822433 34.1668812,78.006382 L34.1668812,78.006382 L34.1455452,78.0300887 C34.1455452,78.0300887 34.0625719,78.0893553 34.0080465,78.2422633 C33.9523359,78.3928006 33.9155905,78.4259899 33.8729186,78.5563765 C33.8326172,78.6879485 33.7579413,78.9641311 33.7579413,78.9641311 C33.7579413,78.9641311 33.6619293,78.8586365 33.6358519,78.7163965 C33.6109599,78.5741565 33.6180719,78.2861206 33.6998599,78.1142473 C33.6998599,78.1142473 33.7354199,77.9826753 33.7437173,77.896146 C33.7437173,77.896146 33.8278759,77.6223341 34.0222705,77.3331128 L34.0222705,77.3331128 L34.0021199,77.2987381 L33.8420999,77.1659808 L33.7982426,77.0687835 C33.7982426,77.0687835 33.8314319,76.9526209 33.9807839,76.8815009 L33.9807839,76.8815009 L33.9132199,76.9028369 C33.9132199,76.9028369 33.8693626,76.8743889 33.8302466,76.8909836 L33.8302466,76.8909836 L33.8006132,76.9585476 L33.7543853,76.9466942 L33.7223813,77.0320382 C33.7223813,77.0320382 33.6797093,77.0035902 33.6299253,76.9099489 C33.6299253,76.9099489 33.500724,77.0391502 33.3561133,77.2074675 C33.3561133,77.2074675 33.3146267,77.2228768 33.2292827,77.1991702 C33.2292827,77.1991702 33.258916,77.2264328 33.2968467,77.2525102 L33.2968467,77.2525102 L33.2968467,77.2868848 C33.2968467,77.2868848 33.0668921,77.4457194 32.7077361,78.2031473 C32.7077361,78.2031473 32.8215281,78.6203845 32.8618294,78.8088525 C32.8618294,78.8088525 32.6970681,78.5670445 32.6318748,78.4366579 C32.6318748,78.4366579 32.5702375,78.4971099 32.5358629,78.6357939 C32.5038589,78.7744778 32.3793989,79.2071244 32.4019202,79.6421416 C32.4232562,80.0736029 32.4635575,80.3154108 32.5050442,80.5086201 C32.5050442,80.5086201 32.7184041,80.9578613 32.8096748,81.155812 L32.8096748,81.155812 L32.8073041,81.2423413 C32.8073041,81.2423413 32.3023522,80.8879267 32.1079576,80.1589469 C31.9123777,79.429967 31.988239,78.5374112 32.2893136,77.796578 C32.2893136,77.796578 32.3450242,77.3757848 32.5014882,77.1055289 L32.5014882,77.1055289 L32.5095354,77.0692482 C32.5584909,76.8565496 32.8368189,75.7540121 33.507836,74.9731147 C33.7034159,74.7087854 33.9748572,74.3875601 34.3233451,74.1267868 C34.6113811,73.9110562 34.949201,73.7474803 35.3356196,73.6230203 C35.4529675,73.582719 35.5774275,73.5388616 35.7018875,73.515155 C35.8678341,73.483151 36.0408928,73.4630003 36.223434,73.458259 L36.223434,73.458259 L36.6833433,73.4132163 C37.0152365,73.451147 37.3115698,73.6028696 37.5699724,73.7273296 L37.5699724,73.7273296 L37.6327951,73.6573949 L37.7477724,73.8245269 L37.760811,73.8636429 L37.8769737,73.8494189 C37.9409817,73.8885349 37.981283,73.9987709 38.055959,74.0556669 C38.102187,74.0876708 38.1946429,74.0746322 38.2373149,74.1066362 C39.1227587,74.8296893 39.3633814,75.9024158 39.3633814,75.9024158 C39.3633814,75.9024158 39.5198453,76.1051077 39.8517386,76.2995024 C39.9121906,76.3350624 39.9856812,76.4097383 40.0556159,76.4393717 C40.0769519,76.4488543 40.1231799,76.4701903 40.1397745,76.4737463 C40.1777052,76.4879703 40.2144505,76.508121 40.2630492,76.5176036 C40.5202664,76.568573 40.6293171,76.7060716 40.7620744,76.8577942 C40.8011904,76.9028369 40.8509744,76.9455089 40.881793,76.9905515 C40.9078704,77.0225555 40.9161677,77.0616715 40.935133,77.0948609 C40.960025,77.1304208 40.9837317,77.1434595 41.0038823,77.1754635 C41.0181063,77.2074675 41.0465543,77.2691048 41.063149,77.2987381 C41.1318983,77.4374221 41.1496783,77.5227661 41.1496783,77.5227661 C41.6392209,77.2987381 42.1524701,76.9988489 42.5128113,76.8423849 C43.0521379,76.614801 43.3626952,76.5389396 43.7265924,76.4215917 C44.0644123,76.312541 44.3927496,76.227197 44.7661295,76.1454091 C45.0695748,76.0731037 45.2177414,76.0221344 45.4571787,75.9201958 C46.5524265,75.4614719 46.8025317,75.1141693 46.8025317,75.1141693 C46.8025317,75.1141693 47.0111504,74.881844 47.3869009,74.2986601 C47.4343143,74.2287255 47.4923956,74.0627789 47.5326969,73.9774349 C47.6832342,73.6716189 47.8645902,73.4286257 48.0483168,73.1085857 C48.1087688,73.0090177 48.2213754,72.8857431 48.2818274,72.7861751 C48.4276234,72.5562205 48.5556394,72.3879032 48.7121033,72.1958793 C48.746478,72.1520219 48.8021886,71.9825193 48.8401193,71.9410326 C49.7431173,70.8932547 50.4210042,70.5780582 50.5419351,70.5275244 L50.5612229,70.5198183 C50.5612229,70.5198183 50.6181189,70.479517 50.5967829,70.4285476 C50.5967829,70.4285476 50.2720017,70.4249916 50.066939,70.362169 C49.8630617,70.2993463 50.0835337,70.2507477 49.8251311,70.2471917 C49.6817058,70.2436357 49.6259951,70.0836157 49.6236245,69.9935304 C49.6236245,69.9935304 49.5264271,69.9259664 49.5465778,69.8441784 C49.5679138,69.7612051 49.5762111,69.7529078 49.5762111,69.7529078 C49.5762111,69.7529078 49.4671605,69.6379305 49.4233032,69.4862078 C49.3806312,69.3309292 49.5643578,69.2313612 49.7599378,69.3012959 C49.7599378,69.3012959 49.8832124,69.3036666 49.7670498,69.1128279 C49.6520725,68.9231746 49.7042271,68.8828733 49.7303044,68.856796 C49.7599378,68.8330893 49.8891391,68.963476 49.9756684,69.0156306 C50.0621977,69.0665999 50.1001284,69.0760826 50.312303,69.1958012 C50.312303,69.1958012 50.4023883,69.2669212 50.4889176,69.2681066 C50.5730763,69.2764039 50.6892389,69.2337319 50.5873002,69.0926773 C50.4818056,68.952808 50.322971,68.725224 50.2720017,68.6221 C50.219847,68.5154201 50.2399977,68.4241494 50.3360096,68.5071227 C50.4320216,68.5877254 50.5458136,68.6742547 50.6370842,68.7702667 C50.7295402,68.87102 50.9357882,69.1270519 51.0353562,69.1187546 C51.1337388,69.1104573 51.1491481,69.0820093 51.0839548,68.9302866 C51.0152055,68.7809347 51.0483948,68.7939733 50.8943015,68.6375094 C50.7425789,68.4834161 50.6987216,68.3708094 50.7508762,68.3186548 Z M44.159239,89.3286835 L44.095231,89.3796528 L44.095231,89.3796528 L44.1101633,89.4398841 C44.1149635,89.459221 44.1208309,89.4828369 44.1276324,89.5101768 L44.1785879,89.7144618 C44.2986653,90.1946411 44.5149784,91.0511817 44.5978122,91.3247844 C44.7151602,91.7100177 44.7767975,91.760987 44.8431762,91.9921269 C44.8431762,91.9921269 44.9308908,92.0276869 45.0482388,92.2208962 L45.047,92.218 C45.0360868,92.1726354 44.9858097,91.9700383 44.9088294,91.6145806 L44.8787362,91.4741364 C44.7767975,90.9881498 44.6227042,90.2793206 44.4437189,89.8431181 C44.4437189,89.8431181 44.2256176,89.5349315 44.159239,89.3286835 L44.159239,89.3286835 Z M82.216491,5.0127415 C92.2811541,5.25099345 106.18037,8.840182 112.921359,16.1631697 L112.845498,16.2354751 L112.927286,16.1679111 C113.300666,16.5887043 113.581589,16.9348216 113.789023,17.2287842 C114.213372,17.829748 114.496667,18.4129319 114.50852,18.4378239 L114.518052,18.4525661 C114.642557,18.6497035 115.808017,20.6205752 117.348478,26.604541 L117.349882,26.6050059 L117.381886,26.7342072 C118.334894,30.420593 118.96312,33.8663563 119.117213,34.7363908 L125.233532,34.6984601 C125.420815,34.4815441 125.971995,33.7964216 126.711642,32.4972966 C127.86023,30.4798597 131.829911,23.6689358 134.666413,20.6984912 C136.479972,18.8019582 139.290397,17.6687798 142.18498,17.6687798 C143.743693,17.6687798 145.193356,18.0065997 146.379874,18.6431236 C149.564864,20.3511886 150.611513,22.893728 151.114094,24.1158064 L151.205365,24.3339077 C152.688217,27.8472349 152.421517,34.4139802 151.189956,37.9403461 C151.106982,38.1774127 149.134588,43.7662581 147.757231,46.2436042 C147.498829,46.7106255 147.257021,47.1740907 147.008101,47.6529653 C145.957896,49.6763288 144.765451,51.9699483 141.406217,56.0297141 C139.52564,58.3035021 137.42369,59.5000134 135.156216,59.5886891 L134.883329,59.5940107 C132.765138,59.5940107 131.173236,58.6327055 130.413438,58.0601897 C128.468306,56.5963033 128.225313,52.0055083 127.944389,46.6892895 C127.905273,45.9697923 127.868528,45.2396271 127.82467,44.505906 C127.548488,39.840435 126.788689,39.5002444 125.982663,39.1399031 C125.755079,39.0379645 125.519197,38.9324698 125.277389,38.7475579 C124.3552,38.0446554 120.322697,36.1896091 119.152773,35.6562092 C118.741272,39.8942359 117.871251,43.6374063 116.454912,47.3493846 C115.783019,49.2910983 115.034307,50.7497314 114.120916,52.5315591 L113.906371,52.9511671 C113.201098,54.3261534 112.093996,56.0116971 111.623419,56.7110436 L111.624605,56.7122289 C110.173757,58.8339751 108.437244,61.0161733 106.315498,63.3868394 C98.5871261,72.0160642 88.6789269,75.3551475 84.2481518,75.4310088 L84.0193826,75.4333795 C80.2180194,75.4333795 75.9614883,73.8414772 73.4711035,72.4783441 C70.8206988,71.0298671 66.647141,67.2225773 65.8695625,66.5078214 L56.0763407,70.7098272 L55.803714,70.2973313 C55.8099229,70.2914046 55.9599979,70.1471219 56.223237,69.8862897 L56.6991308,69.4103553 C57.6946953,68.4061444 59.4033166,66.6317734 61.2206862,64.5164619 C63.3376911,62.0545251 61.3866328,59.7146776 59.1297587,57.0073768 C58.5015321,56.2511343 57.8519696,55.4711852 57.2652297,54.6568613 C56.9890471,54.2739988 56.6938992,53.8721709 56.3833419,53.4454509 C53.6748558,49.7436558 49.5830861,44.150069 47.5454985,36.8970159 C45.4747216,29.5337268 46.5450774,22.719247 50.7245618,16.6420443 C55.3023182,9.98758442 62.8920058,7.87887688 65.7474732,7.08470372 C65.9904665,7.01713973 66.1943438,6.96142908 66.3555491,6.91283042 C68.0837647,6.39009854 74.9290632,4.84442421 82.216491,5.0127415 Z M66.5001597,7.39170498 C66.3365837,7.44267431 66.1291505,7.49838496 65.8814158,7.56831961 C63.0721765,8.34826878 55.6116901,10.420231 51.1382431,16.9277096 C47.0464733,22.8745256 45.9998242,29.5491362 48.0279291,36.7618879 C50.0406246,43.9284117 54.1015757,49.4781411 56.7863552,53.1491177 C57.0980978,53.5770229 57.394431,53.9812215 57.6706136,54.3652694 C58.2478708,55.1641839 58.8915067,55.9370211 59.5138066,56.6861516 C61.8180941,59.4503483 63.9919949,62.0592664 61.5988074,64.8424285 C59.7947305,66.9463947 58.0937775,68.7125409 57.0874298,69.7295567 L65.9715012,65.9187109 L66.0912198,66.0289469 C66.1386331,66.0739895 70.8989308,70.5023939 73.7117261,72.0397709 C76.1499563,73.3744559 80.312846,74.9331689 84.0193826,74.9331689 L84.2398545,74.9307983 C88.5864709,74.8561223 98.3204261,71.563267 105.940932,63.0537609 C107.85633,60.9142565 109.454013,58.9310388 110.810592,57.0064296 C110.750342,57.0073463 110.677436,57.0099265 110.586253,57.0197043 C109.853717,57.0920096 107.850504,55.0153061 107.543503,52.1444294 C107.44356,51.216875 107.604792,46.0248995 107.787077,40.6775186 L107.832947,39.3398136 C108.022188,33.8466015 108.21253,28.550936 108.143281,27.9138506 C107.998671,26.6028723 109.600056,22.9354517 111.227518,22.1649852 C112.946251,21.3482907 113.457129,21.1361161 115.369072,21.0389188 L115.122614,21.0518288 C114.784436,20.1475236 114.513176,19.5420907 114.331078,19.1697872 L114.269556,19.0459986 C114.144729,18.7990144 114.07549,18.6883998 114.072317,18.6831879 C114.067793,18.6744416 114.046541,18.6312406 114.010825,18.5624099 C113.078926,18.6017466 109.97045,18.6673862 108.437718,17.8049746 C106.621788,16.7832175 107.421888,16.3482002 108.150867,15.8408777 C108.826928,15.3696172 110.194407,15.6419381 112.111738,16.040273 C105.323237,9.13502875 91.9510206,5.74263295 82.205823,5.51295206 C74.9788472,5.34344943 68.2082247,6.8760851 66.5001597,7.39170498 Z M96.4240117,18.0629031 C98.2847512,18.0054683 98.243516,21.8846362 97.9265433,26.010897 L97.8783775,26.6160757 C97.6876434,28.9394056 97.4351008,31.2838567 97.4078382,32.9980998 C97.3296062,38.084364 97.0297169,39.2353224 99.1384245,39.3846744 C101.142823,39.5276848 101.248391,36.9096367 101.074057,34.1504868 L101.04444,33.714041 C100.83108,30.8040483 101.427303,24.404435 101.869432,22.3680328 C102.310376,20.3316306 103.041726,18.6603109 105.150434,19.3193561 C107.257956,19.9795866 106.671216,22.3052101 106.595355,23.6873085 C106.52385,24.9873522 106.162171,30.9277608 105.793733,37.0407355 L105.706485,38.4895735 C105.329068,44.7628012 104.9681,50.8462674 104.929962,51.910089 C104.894741,52.9082072 104.781243,54.8936991 104.6402,56.8872735 L104.586116,57.6333301 C104.429783,59.7373919 104.249513,61.7123871 104.106155,62.3836921 C103.812193,63.7669758 103.141294,66.8085404 101.077629,64.4603956 C100.478528,63.7787952 100.201679,60.7429656 100.083909,57.6595655 L100.06176,57.0216985 C100.048435,56.5970102 100.037923,56.1744433 100.029795,55.7600508 C99.9906789,53.7485406 101.085927,47.0277021 100.799076,45.2817065 C100.288198,42.1808751 98.6927392,44.2575787 98.1059994,46.2204903 C97.5192595,48.1845872 97.6603141,49.4943802 97.1435089,53.3467127 C96.6255183,57.2026012 96.5662517,60.5464258 95.5930932,62.5840134 C93.8201139,66.2949426 93.1014206,64.113376 92.8963539,61.7756053 L92.874941,61.5054957 C92.8301526,60.8751455 92.8210873,60.249465 92.8371938,59.7403993 C92.9154258,57.2666092 93.2982884,48.682427 93.3054004,45.7724344 C93.3125124,42.863627 93.6930043,35.0084247 93.3421457,29.1137633 C92.9924725,23.2214726 93.8636923,20.7061958 94.1564695,19.9795866 C94.5748921,18.9412349 95.4413706,18.0949071 96.4240117,18.0629031 Z M77.7767074,12.1979935 C84.13839,11.3516657 90.8023325,11.7748296 95.5970048,12.6934628 C99.284576,13.4034773 99.206344,14.804541 98.3209002,15.7101354 C97.1628298,16.8919125 94.4069304,16.17123 92.3456362,17.4110884 C90.2618207,18.6628001 89.3526702,21.0583583 89.4557942,24.8395708 C89.5408867,27.9210776 89.4515133,33.2286094 89.4453161,38.0103703 L89.4457556,39.24405 C89.4493091,40.8682291 89.465636,42.3998493 89.5055782,43.723112 C89.5639668,45.6428467 89.6223554,48.162177 89.6412971,50.7133562 L89.6459214,51.5193883 C89.6464583,51.6536827 89.6468743,51.7878997 89.6471639,51.9219567 L89.6473368,52.7237151 C89.6401501,56.7162795 89.5087391,60.4157626 89.0978236,61.5872668 C88.3546197,63.7066423 87.028232,63.506321 86.2696189,60.0605578 C86.0982015,59.2844381 85.9011977,57.512246 85.7515339,55.7168845 L85.6977715,55.0444381 C85.6294268,54.151462 85.575196,53.2830968 85.544195,52.5609554 C85.4514523,50.4038977 85.1988672,44.3491717 84.850784,38.34376 L84.7864581,37.253289 C84.4923852,32.3565227 84.1369944,27.6529015 83.7555274,25.3042213 C83.0265476,20.801141 81.8874425,18.8785307 79.3709804,18.1910376 C77.9793993,17.808175 77.3310222,17.6931977 74.8880507,17.4419071 C72.9121004,17.2380298 72.3146926,15.7907381 72.8777258,14.4110104 C73.3044457,13.3643613 75.4131532,12.5121068 77.7767074,12.1979935 Z M142.18498,18.1701757 C139.423154,18.1701757 136.747858,19.2440875 135.029125,21.0446084 C132.230553,23.9735664 128.289321,30.740633 127.147845,32.7450312 C126.199579,34.4104242 125.554757,35.093176 125.527495,35.121624 L125.455189,35.1974853 L119.436068,35.235416 C120.712672,35.8162292 124.626642,37.6214915 125.580835,38.349286 C125.775229,38.4986379 125.975551,38.5887233 126.18654,38.6835499 L126.310021,38.7390012 C127.212577,39.1502866 128.042565,39.72453 128.324881,44.4762726 C128.367553,45.2111791 128.405483,45.9425296 128.443414,46.6632122 C128.706558,51.6380551 128.954293,56.33553 130.713327,57.6607324 C131.287028,58.0910083 132.836258,59.0926148 134.883329,59.0938001 C137.097531,59.0938001 139.162381,57.954695 141.020983,55.7108595 C144.344657,51.6913951 145.525249,49.4238529 146.563601,47.4218253 C146.814891,46.9393948 147.057885,46.4723735 147.319843,45.9994256 C147.76211,45.2051973 148.267705,44.08114 148.751331,42.9181169 L148.957005,42.4181407 C149.874251,40.1651444 150.664467,37.9217667 150.715823,37.7743994 C151.91775,34.3357482 152.185636,27.9396909 150.744271,24.5294876 L150.651815,24.306645 C150.169384,23.1379066 149.168963,20.7067885 146.143993,19.0852528 C145.02978,18.4866596 143.66072,18.1701757 142.18498,18.1701757 Z M80.2851092,30.1300679 C80.5684603,31.8439466 80.8432103,33.6507598 81.1016019,35.4705093 L81.2293986,36.3810918 L81.347134,37.2391192 C81.3859237,37.524912 81.424248,37.8103851 81.4620769,38.0952287 L81.5740469,38.9475608 C82.4206275,45.4628755 82.9892086,51.4812244 82.914178,53.2322095 C82.8983928,53.6051558 82.8663613,54.0510836 82.8144541,54.5199835 L82.7868274,54.7561162 C82.772169,54.8749083 82.7562307,54.9946151 82.7389556,55.1144554 L82.7026062,55.3540823 C82.6898844,55.4338629 82.6765517,55.5134712 82.6625913,55.5926759 L82.6188102,55.8288469 C82.6111939,55.8679297 82.6034164,55.9068537 82.5954757,55.9455899 L82.5458561,56.1755226 C82.064144,58.2962098 81.0573682,59.6465672 79.1566722,55.1441518 C78.2961203,53.1065642 77.3668192,47.3991855 76.9590646,45.3343352 C76.5169354,43.0881291 76.7990447,37.9011115 73.8902373,38.4700714 C72.401459,38.7592927 71.5788378,41.909908 70.5914554,46.9025309 C69.8310186,50.7430101 69.4612508,52.2485935 69.254473,53.5924817 L69.2152232,53.8597473 C69.1718098,54.1705444 69.1364438,54.480426 69.106233,54.8169998 C69.100899,54.8755997 69.0955071,54.934452 69.090021,54.9934696 L69.0556828,55.3488634 C68.8814376,57.0694626 68.5667953,58.7827909 67.2251094,58.3670724 C65.7481844,57.9095338 65.7055124,52.6774736 65.9473204,46.9831336 C66.0346838,44.921971 66.1267626,43.579 66.2612551,42.2584855 L66.3029129,41.8623091 C66.5322765,39.7455402 66.8798702,37.5081517 67.5001067,32.3004128 C68.5491265,23.489832 70.7419927,22.208487 71.3441419,21.4700244 C74.1438986,18.0301879 78.7975162,21.1322045 80.2851092,30.1300679 Z M132.810181,53.0162418 C134.361782,50.2686398 138.121659,51.8676541 138.191593,53.4654831 C138.261528,55.0668681 138.020905,55.4319506 137.460243,56.2723518 C136.91499,57.0973436 135.984503,58.1214714 134.311998,57.3178156 C132.640678,56.5141597 131.429268,55.461584 132.810181,53.0162418 Z M61.8284065,20.1262123 C62.8442369,20.5446349 66.0375242,23.5648636 66.3018535,25.9983524 C66.5685534,28.4330265 67.03676,31.3323512 64.0023073,33.5003254 C60.9702253,35.6682996 58.9610858,36.7113927 58.9610858,36.7113927 L58.9701696,36.7742002 C59.0381419,37.2424249 59.4800513,40.256468 60.0411366,43.3806945 L60.1882281,44.1868278 C60.2380305,44.4553225 60.288551,44.7230859 60.3396281,44.9885736 C60.4079033,45.343889 60.4765028,45.7123218 60.5442867,46.0895195 L60.6117566,46.4694775 C60.6900558,46.9157943 60.7667278,47.3720662 60.8399625,47.8313816 L60.9018512,48.2256646 C60.9503175,48.5394634 60.9969475,48.8537585 61.0411684,49.1663627 L61.0930405,49.5405361 C61.1352426,49.8514377 61.1748064,50.1597735 61.2111593,50.4633565 L61.2532049,50.8252347 C61.7451153,55.1969236 61.5037424,58.369009 58.7465405,53.5348251 C54.8219027,46.6539666 49.6016958,32.6528123 48.85138,29.0731064 C48.4732587,27.2583615 48.44244,26.5163429 48.8774573,25.3890912 C49.0469599,24.9445913 54.5243841,17.1296903 61.8284065,20.1262123 Z M115.08234,26.6654578 C113.688388,26.6654578 112.909624,27.3553217 112.762643,28.7160841 C112.69745,29.3040093 112.6287,29.8125172 112.567063,30.2546464 C112.275471,32.3621686 112.215019,32.7995565 113.898192,33.4550457 C116.028235,34.2859642 117.208827,35.1939293 117.409148,36.1528638 C117.521755,36.6933757 117.321434,37.2232195 116.812926,37.7293568 C115.538693,38.9976632 114.124591,39.2880698 113.189363,39.4812791 C112.909624,39.538175 112.666631,39.5891444 112.491202,39.651967 C111.713623,39.9317056 110.703719,40.7009868 110.90167,44.125414 C111.084211,47.281956 111.59509,47.6043666 112.440232,48.1389518 C112.5398,48.2017745 112.642924,48.2681531 112.750789,48.3392731 C112.916736,48.4495091 113.105204,48.5526331 113.299599,48.6581277 C113.87777,48.9747733 114.555729,49.3447937 114.818017,50.0161606 C115.362087,48.864952 115.844089,47.6946109 116.292446,46.2315139 C117.99814,40.6497804 119.04479,36.6338719 118.045554,31.8486823 C117.659532,29.9973247 117.28361,28.3857101 116.926683,26.9875469 C116.591269,26.8776325 115.845694,26.6654578 115.08234,26.6654578 Z M139.079645,22.8470259 C140.479523,21.3072782 141.906664,20.9410103 145.000384,22.1298994 C148.098844,23.3187884 147.03323,26.6472037 146.89336,28.7535406 C146.753491,30.8598775 143.745116,36.7735042 142.678316,39.3681983 C141.612702,41.9676337 138.879324,47.3217832 137.778149,48.8188589 C135.519201,51.8927239 135.401672,46.610073 135.39777,45.7082849 L135.397942,45.5859454 L135.397942,45.5859454 L135.398,45.5805289 L135.398938,45.5414808 C135.407642,45.1810518 135.476269,42.3820541 135.576667,39.5086343 L135.598657,38.892624 C135.688479,36.4309187 135.800167,34.0386021 135.915991,33.2044663 C136.448205,29.3604311 138.266506,23.744323 139.079645,22.8470259 Z M72.1150825,31.6350853 C71.309056,35.6261018 76.1760336,33.4261236 76.4403629,32.7315184 C76.6572788,32.1672999 76.1084696,29.6615057 74.5426446,27.7140035 C72.9768196,25.7641306 72.3628171,30.4118216 72.1150825,31.6350853 Z M55.7979059,25.8975991 C55.200498,26.9750668 54.4051395,28.1402493 56.6691257,31.6310552 C57.2108229,32.466715 60.2026036,30.822658 60.2523876,29.2971343 C60.2974303,28.0300133 59.7901077,26.5033043 58.9212586,25.8039578 C57.8592001,24.9481473 56.3941284,24.8201313 55.7979059,25.8975991 Z" id="Fill-29"></path>
        </g>
    </g>
</svg>