<svg xmlns="http://www.w3.org/2000/svg" width="95" height="91" viewBox="0 0 95 91">
    <path fill-rule="evenodd" d="M48.053 80.049c1.159.073 2.018.71 2.457 1.788.443 1.086.267 2.116-.49 3.03-.032.04-.058.082-.085.122.369.295.76.53 1.05.854 1.398 1.554.762 3.973-1.236 4.697-.422.153-.892.236-1.342.247-1.388.03-2.778.012-4.167.01-.554 0-.77-.204-.77-.756.006-3.113.017-6.225.03-9.338 0-.446.21-.71.62-.71 1.311 0 2.626-.027 3.933.056zm10.054-1.585c1.95.042 3.422 1.165 3.923 3.04.53 1.987 1.055 3.974 1.58 5.962.174.656.074.823-.598 1.004-.344.093-.688.183-1.034.268-.505.125-.77-.025-.909-.532-.223-.82-.444-1.641-.642-2.468-.08-.336-.2-.463-.571-.35-.755.229-1.521.418-2.287.604-.277.067-.345.196-.273.46.235.857.46 1.716.68 2.576.128.495-.018.748-.503.888-.392.113-.785.218-1.18.316-.436.108-.732-.05-.847-.48-.564-2.121-1.155-4.236-1.669-6.37-.5-2.08.8-4.058 3.02-4.686.424-.12.873-.157 1.31-.232zm-11.91 7.934c-.103.013-.264.168-.27.264-.026.545-.027 1.092-.002 1.637.005.099.168.269.263.273.585.024 1.173.037 1.757 0 .656-.04 1.048-.508 1.022-1.14-.025-.607-.447-1.017-1.09-1.045-.267-.011-.535-.002-.803-.001-.293 0-.589-.024-.877.012zM29.21 75.502c.227.08.348.115.464.165 1.941.826 3.882 1.652 5.822 2.481.564.241.666.513.42 1.083-.125.292-.24.588-.378.873-.179.369-.468.482-.854.329-.484-.193-.968-.389-1.437-.614-.311-.15-.46-.095-.599.234-.911 2.162-1.843 4.316-2.767 6.473-.284.661-.514.754-1.18.473-.294-.124-.587-.246-.878-.375-.503-.223-.619-.491-.403-1 .68-1.599 1.367-3.194 2.051-4.792l.535-1.262c.09-.21.181-.419.275-.627.111-.245.06-.365-.187-.462-.474-.185-.938-.393-1.404-.597-.458-.2-.582-.494-.399-.948.129-.317.237-.65.414-.939.125-.204.35-.348.505-.495zm40.4-1.339c.18.307.355.617.52.932.202.39.105.713-.282.933-.454.258-.907.517-1.373.749-.286.141-.318.29-.165.563 1.11 1.983 2.21 3.973 3.312 5.96.061.112.124.222.182.335.27.514.193.772-.315 1.058-.31.176-.62.35-.933.52-.482.26-.773.18-1.04-.302-1.152-2.076-2.3-4.154-3.45-6.231-.24-.435-.24-.436-.677-.195-.412.228-.82.462-1.237.681-.413.219-.728.124-.963-.281-.172-.296-.336-.598-.495-.901-.058-.11-.093-.232-.17-.431.136-.158.252-.389.44-.494 1.896-1.063 3.803-2.108 5.71-3.153.398-.218.712-.126.937.257zm-23.42 8.09c-.095.015-.238.149-.243.236-.025.43-.026.862 0 1.29.006.086.16.225.253.23.43.025.864.027 1.295.005.507-.025.84-.387.834-.86-.007-.5-.349-.873-.844-.907-.202-.015-.407-.003-.61-.003v-.003c-.229 0-.461-.023-.684.012zM57.59 80.93c-.784.18-1.271.79-1.265 1.694.028.132.084.366.123.602.053.325.21.412.531.316.608-.183 1.225-.335 1.838-.496.902-.237.949-.336.548-1.19-.335-.717-1.054-1.092-1.775-.926zm-32.37-8.018c.175.054.284.064.365.116.437.284.88.561 1.296.874.316.237.319.557.056.946-.795 1.18-1.594 2.358-2.39 3.537l-2.777 4.106c-.344.509-.628.566-1.142.223-.329-.218-.659-.434-.98-.662-.367-.259-.435-.579-.183-.953 1.76-2.613 3.525-5.225 5.3-7.83.109-.16.318-.253.454-.357zm51.529-4.6c.18.197.359.395.537.594.365.407.353.714-.049 1.08-.848.77-1.689 1.547-2.552 2.3-.272.236-.274.4-.022.636.266.25.504.53.78.824l1.278-1.142c.293-.264.582-.533.877-.795.348-.31.691-.296 1.002.037.208.224.413.45.615.68.36.408.345.705-.064 1.079-.59.542-1.184 1.08-1.783 1.613-.103.092-.239.147-.386.235.48.53.86.953 1.244 1.375.173.19.291.036.412-.073.793-.716 1.585-1.434 2.378-2.152.113-.102.223-.209.344-.302.294-.225.632-.206.892.063.265.274.524.555.77.847.239.283.229.637-.045.887-1.427 1.306-2.858 2.608-4.298 3.899-.337.3-.663.228-1.023-.169l-4.776-5.253c-.487-.536-.98-1.068-1.465-1.608-.334-.373-.309-.715.067-1.055l4.05-3.661c.497-.45.763-.436 1.217.06zm-58.853-1.96c.178.105.366.17.494.297 1.547 1.514 3.086 3.036 4.623 4.56.32.318.33.65.03.974-.26.28-.53.551-.812.809-.272.25-.582.249-.856-.005-.401-.372-.799-.75-1.174-1.148-.217-.23-.358-.232-.585 0-1.649 1.681-3.31 3.35-4.969 5.023-.516.52-.791.52-1.308.007-.226-.225-.453-.448-.676-.675-.355-.362-.358-.697-.003-1.056 1.02-1.032 2.043-2.062 3.065-3.093.681-.687 1.355-1.382 2.048-2.057.22-.215.212-.359-.007-.56-.375-.343-.735-.704-1.092-1.067-.319-.325-.32-.644-.01-.97.255-.268.514-.532.788-.78.117-.105.276-.163.444-.258zm65.189-5.627c.737-.006 1.415.19 2.026.59 1.82 1.195 3.636 2.396 5.451 3.599.405.268.455.52.193.93-.226.354-.462.7-.7 1.047-.26.381-.592.45-.983.195-.758-.493-1.516-.985-2.262-1.497-.226-.155-.344-.122-.485.097-.456.705-.92 1.405-1.393 2.098-.141.208-.11.324.1.457.728.467 1.448.949 2.17 1.427.536.356.59.626.236 1.167-.18.276-.36.554-.544.829-.329.49-.627.552-1.117.23-1.551-1.025-3.106-2.044-4.65-3.078-.453-.304-.93-.6-1.304-.988-1.31-1.359-1.393-3.5-.23-5.164.846-1.207 1.981-1.915 3.492-1.939zM46.353 0c.435 1.36.854 2.66 1.267 3.964.146.46.284.922.41 1.387.06.226.157.321.415.326 3.282.057 6.492.573 9.613 1.588 4.915 1.598 9.238 4.186 12.939 7.79 4.632 4.51 7.704 9.91 9.195 16.19.877 3.694 1.092 7.433.67 11.208-1.434 12.818-10.074 23.57-22.3 27.746-4.239 1.448-8.596 2.007-13.06 1.682-8.053-.588-14.987-3.697-20.812-9.263-3.064-2.929-5.439-6.347-7.192-10.197-.026-.057-.044-.118-.094-.25l1.229.584c3.594 1.711 7.305 3.098 11.198 3.974 3.01.678 6.056 1.017 9.14.941 3.666-.089 7.237-.772 10.754-1.77 2.68-.762 5.35-1.563 8.042-2.28 2.112-.562 4.274-.831 6.47-.738 2.28.098 4.453.647 6.54 1.55l.429.185c2.036-2.999 3.462-6.257 4.216-9.795 1.23-5.77.756-11.403-1.531-16.848-4.692-11.17-15.213-16.864-24.364-17.24.089.402.17.79.262 1.178.827 3.533 1.331 7.114 1.604 10.73.278 3.685.262 7.367-.107 11.043-.726 7.22-2.74 14.039-6.414 20.336-.134.23-.298.335-.557.394-2.62.6-5.275.718-7.945.537-6.557-.445-12.617-2.56-18.405-5.541-1.549-.798-3.04-1.706-4.558-2.564-.075-.042-.146-.094-.262-.17.59-.384 1.142-.76 1.712-1.107.279-.169.343-.338.288-.676-1.815-11.036.973-20.74 8.636-28.938 4.809-5.144 10.78-8.307 17.693-9.684.935-.186 1.887-.291 2.835-.409.28-.034.423-.134.5-.41.5-1.796 1.014-3.588 1.544-5.453zM13.717 59.769c1.028 1.605 2.05 3.214 3.067 4.827.245.388.17.69-.21.946-.275.185-.558.357-.84.531-.441.273-.751.207-1.03-.229-.623-.974-1.253-1.944-1.855-2.931-.18-.295-.335-.324-.598-.128-.223.167-.464.315-.709.45-.226.125-.228.261-.098.46.45.693.891 1.392 1.334 2.09.318.5.254.795-.238 1.11-.247.159-.492.32-.744.468-.42.248-.706.188-.973-.222-.458-.703-.911-1.41-1.349-2.125-.15-.247-.281-.319-.54-.133-.33.238-.677.454-1.033.65-.27.15-.283.301-.123.547.602.927 1.19 1.864 1.784 2.796.412.647.36.878-.303 1.291-.28.175-.564.346-.85.51-.063.036-.146.036-.308.073-.123-.095-.337-.188-.442-.35-1.041-1.613-2.068-3.233-3.09-4.858-.223-.356-.139-.686.225-.917 2.665-1.69 5.332-3.376 8.002-5.057.364-.23.69-.16.92.201zm69.204 3.545c-1.18 0-1.934 1.105-1.544 2.135.205.54.65.83 1.116 1.094.056.031.225-.036.272-.105.501-.734.994-1.473 1.473-2.222.048-.074.035-.273-.023-.316-.407-.305-.824-.606-1.294-.586zm3.212-13.298c2.125.702 4.266 1.366 6.365 2.14 2.002.74 2.91 2.963 2.169 5.135-.53 1.55-1.547 2.605-3.212 2.935-.075.015-.15.032-.226.035-.14.006-.28.002-.42.002l-.03.114c-.718-.203-1.441-.385-2.15-.615-1.646-.533-3.284-1.09-4.926-1.636-.71-.236-.828-.463-.595-1.157.1-.3.197-.603.3-.902.185-.532.458-.671.998-.493 1.993.66 3.982 1.33 5.977 1.984 1.136.372 2.165-.417 2.121-1.61-.023-.648-.449-1.175-1.15-1.41l-5.857-1.959c-.644-.215-.769-.455-.56-1.081.115-.35.23-.699.358-1.043.152-.408.438-.57.838-.439zm-75.828 1.007c.415 1.251.824 2.504 1.218 3.762.07.225.054.477.067.599.01 2.326-1.632 4.026-3.836 4.09-1.628.047-3.17-1.074-3.82-2.783-.122-.32-.25-.64-.336-.971-.085-.323-.244-.352-.529-.243-.558.212-1.125.4-1.692.589-.493.164-.772.025-.947-.465-.132-.37-.267-.74-.381-1.117-.137-.45.012-.732.463-.887 2.946-1.01 5.892-2.02 8.84-3.026.569-.195.769-.104.953.452zM8.373 53.68c-.748.24-1.492.492-2.228.767-.085.032-.178.238-.152.331.106.39.23.78.398 1.146.244.536.666.85 1.142.861 1.047-.01 1.704-.746 1.543-1.635-.082-.457-.259-.898-.419-1.336-.026-.073-.207-.159-.284-.134zM53.834 19.36c.148.145.243.23.33.324 4.36 4.682 7.62 10.057 10.079 15.935 2.046 4.892 3.463 9.966 4.428 15.187-.965-.164-1.888-.348-2.818-.474-2.18-.293-4.35-.164-6.51.2-3.06.515-5.997 1.497-8.965 2.36-.67.195-1.343.385-2.07.594.045-.128.065-.219.107-.299 2.52-4.869 4.16-10.023 5.063-15.42.665-3.975.929-7.977.797-11.999-.064-1.979-.27-3.953-.411-5.93-.01-.125-.016-.252-.03-.478zm34.12 25.518c1.148-.016 2.127.96 2.118 2.11-.008 1.16-.933 2.074-2.097 2.075-1.164 0-2.096-.92-2.1-2.072-.004-1.145.933-2.096 2.078-2.113zm.045.431c-.91-.011-1.691.748-1.703 1.657-.013.914.74 1.668 1.671 1.673.927.004 1.683-.742 1.682-1.661 0-.889-.76-1.658-1.65-1.669zm.26 1.168c.197-.072.371-.16.555-.193.112-.021.24.04.36.065-.066.132-.099.315-.206.386-.174.116-.4.15-.597.238-.078.034-.133.117-.28.253.299.045.502.045.68.114.107.04.172.188.257.287-.103.064-.212.192-.307.183-.569-.054-1.135-.133-1.699-.223-.081-.013-.211-.14-.206-.207.024-.314.04-.641.145-.933.194-.537.832-.524 1.299.03zm-.772.088c-.078.171-.135.351-.212.566l.505.045c-.037-.237-.056-.414-.1-.586-.007-.025-.185-.044-.193-.025zM42.784 11.073c-7.635 1.546-13.7 5.364-18.125 11.652-4.045 5.75-5.59 12.173-4.869 19.159 10.22-8.342 17.875-18.568 22.994-30.811z"/>
</svg>
