<svg xmlns="http://www.w3.org/2000/svg" width="184" height="100" viewBox="0 0 184 100">
    <path fill-rule="evenodd" d="M85.827 70.995c.179.047.294.103.41.103 2.2.006 4.398 0 6.597.01.46.003.571-.237.64-.643.357-2.144.691-4.293 1.137-6.418.425-2.03-.121-3.544-1.694-4.26-1.843-.839-4.635.41-5.399 2.54-.39 1.09-.521 2.275-.74 3.423-.329 1.737-.632 3.479-.951 5.245m42.816-20.192c2.474.027 4.95.004 7.424.023.301.002.602.15.902.23-.104.329-.138.705-.322.98-3.056 4.549-6.132 9.084-9.199 13.626-1.143 1.693-2.298 3.38-3.39 5.106-.204.322-.278.863-.166 1.227.733 2.398 1.532 4.775 2.313 7.158.85 2.595 1.704 5.19 2.56 7.783.428 1.297.871 2.589 1.29 3.888.136.425-.325 1.017-.81 1.019-2.65.012-5.3.024-7.948-.024-.25-.004-.618-.385-.716-.666-.759-2.18-1.464-4.378-2.188-6.57-.385-1.168-.772-2.335-1.21-3.658-2.366 3.5-4.606 6.793-6.817 10.105-.394.59-.814.86-1.565.842-2.323-.06-4.649-.009-6.973-.038-.317-.004-.747-.142-.907-.371-.117-.167.051-.635.217-.885 4.159-6.24 8.324-12.474 12.526-18.684.337-.498.327-.906.174-1.386-1.192-3.738-2.385-7.476-3.592-11.209-.756-2.34-1.537-4.67-2.31-7.004-.364-1.1-.091-1.48 1.068-1.48 2.4.002 4.8.014 7.2-.009.576-.006.89.13 1.079.748.738 2.421 1.54 4.823 2.324 7.231.29.893.592 1.783.94 2.831.616-.89 1.164-1.666 1.695-2.453 1.741-2.582 3.478-5.167 5.21-7.755.29-.432.652-.61 1.19-.605zm-33.199.318c3.675.669 6.837 3.64 7.687 7.298.429 1.843.375 3.657.03 5.503-.477 2.553-.86 5.124-1.308 7.683-.441 2.509-.925 5.01-1.372 7.518-.351 1.968-.665 3.942-1.013 5.91-.355 2.018-.737 4.03-1.094 6.046-.098.55-.348.79-.946.783-2.473-.03-4.947-.012-7.675-.012.508-4.064 1.417-7.993 2.01-12.014-.264-.028-.432-.062-.6-.062-2.099-.004-4.198.006-6.298-.012-.458-.004-.629.122-.706.616-.32 2.022-.707 4.034-1.066 6.05-.237 1.328-.462 2.659-.706 3.986-.088.477-.216.947-.33 1.435h-7.9c-.608 0-.52-.456-.464-.801.22-1.356.476-2.707.72-4.059.25-1.377.505-2.752.752-4.129.374-2.09.747-4.18 1.113-6.27.337-1.92.66-3.842.998-5.762.358-2.042.694-4.089 1.101-6.121.269-1.34.525-2.701.999-3.974 1.505-4.041 4.372-6.856 8.242-8.62 2.483-1.13 5.093-1.49 7.826-.992zm-27.309-.291c3.996.497 7.38 3.544 8.3 7.481.42 1.792.37 3.562.036 5.357-.37 1.99-.75 3.984-.987 5.993-.708 6.02-3.545 10.556-9.032 13.274-1.782.883-3.677 1.38-5.685 1.37-1.05-.006-2.102.042-3.149-.017-.617-.035-.856.214-.943.768-.23 1.457-.47 2.912-.71 4.368-.09.542-.08 1.14-.32 1.606-.177.346-.678.73-1.045.741-2.223.069-4.45.044-6.674.023-.31-.003-.617-.16-.926-.246v-1.053c.088-.065.242-.12.255-.197.32-1.922.612-3.849.939-5.77.347-2.045.729-4.084 1.087-6.127.237-1.354.457-2.71.69-4.065.365-2.118.735-4.235 1.102-6.352.23-1.33.505-2.654.682-3.991.581-4.38 2.726-7.817 6.235-10.405 3.014-2.223 6.38-3.227 10.145-2.758zM54.256 91.626h-6.142v.02h6.142v-.02zm35.375-38.965c-4.281 1.299-7.345 4.039-9.022 8.204-.523 1.299-.737 2.733-1.012 4.12-.413 2.083-.757 4.179-1.126 6.27-.235 1.328-.457 2.659-.696 3.987-.358 1.991-.729 3.98-1.088 5.971-.372 2.065-.74 4.13-1.1 6.196-.18 1.028-.336 2.059-.52 3.2 1.992 0 3.881.007 5.77-.018.12-.001.31-.239.343-.393.21-1.002.397-2.009.57-3.018.436-2.562.857-5.126 1.293-7.687.094-.557.31-.984 1.001-.98 2.8.014 5.599.006 8.398.002.568 0 .838.224.727.83-.227 1.23-.427 2.463-.65 3.692-.452 2.474-.91 4.948-1.387 7.53.277.022.47.049.664.05 1.574.002 3.15-.026 4.723.012.632.015.81-.237.866-.826.083-.869.266-1.728.418-2.59l1.068-5.974c.347-1.97.68-3.94 1.024-5.91.358-2.041.726-4.081 1.086-6.122.243-1.378.458-2.762.725-4.135.388-1.995.729-3.969.224-6.013-.574-2.32-1.798-4.155-3.8-5.417-2.66-1.678-5.547-1.877-8.499-.981zm38.857-.45c-.76.42-1.16 1.504-1.704 2.306-1.944 2.865-3.875 5.74-5.835 8.594-.18.261-.54.571-.796.553-.212-.015-.465-.453-.574-.75-.385-1.049-.722-2.115-1.066-3.178-.747-2.316-1.502-4.63-2.216-6.955-.158-.514-.37-.739-.933-.728-1.749.032-3.5.01-5.249.014-.235 0-.47.023-.79.04.382 1.212.724 2.32 1.08 3.425.754 2.34 1.517 4.676 2.272 7.016.77 2.386 1.55 4.769 2.29 7.164.244.788.619 1.48-.03 2.422-4.08 5.929-8.06 11.927-12.069 17.905-.075.113-.095.263-.158.447.198.024.337.056.477.056 1.775 0 3.55-.03 5.324.005.538.011.88-.14 1.176-.586 1.6-2.408 3.217-4.804 4.835-7.2.795-1.176 1.579-2.361 2.413-3.508.424-.583.935-.484 1.162.17.398 1.15.785 2.303 1.17 3.457.797 2.377 1.605 4.75 2.369 7.138.14.437.356.533.751.526.875-.018 1.75-.01 2.625-.011h3.487c-.34-1.08-.622-2.003-.922-2.92-.852-2.594-1.72-5.183-2.564-7.78-.843-2.599-1.618-5.221-2.53-7.795-.216-.613-.094-.989.202-1.428l10.887-16.094c.533-.789 1.063-1.58 1.648-2.45-1.401 0-2.67-.008-3.94.002-.946.008-2.058-.263-2.792.143zm-70.39 2.75c-2.18 1.757-3.799 3.938-4.55 6.68-.288 1.054-.474 2.14-.67 3.218-.382 2.114-.741 4.232-1.107 6.35-.238 1.378-.47 2.757-.708 4.136-.36 2.067-.723 4.134-1.085 6.201-.258 1.476-.522 2.952-.776 4.428-.246 1.425-.482 2.85-.745 4.408 1.984 0 3.852.012 5.72-.022.143-.003.37-.306.406-.5.377-1.962.753-3.926 1.06-5.9.105-.671.408-.898 1.033-.89 1.149.016 2.3-.017 3.448.011 2.003.05 3.929-.304 5.729-1.17 4.558-2.195 7.31-5.773 8.118-10.821.343-2.147.75-4.283 1.1-6.428.307-1.873.607-3.722.182-5.654-.823-3.743-3.924-6.509-7.685-6.944-3.566-.414-6.708.674-9.47 2.898zm34.697-1.634c3.643.007 6.58 2.018 7.803 5.436.556 1.556.54 3.187.226 4.815-.27 1.398-.496 2.804-.743 4.206-.357 2.016-.716 4.032-1.072 6.049-.243 1.378-.48 2.756-.724 4.134-.362 2.04-.731 4.08-1.088 6.12-.25 1.428-.502 2.855-.718 4.288-.118.782-.372 1.055-1.148 1.058l-1.3-.002c-.216 0-.432.002-.649.007-.618.014-.876-.242-.758-.876.576-3.093 1.146-6.187 1.71-9.282.107-.585.181-1.176.289-1.886-.235-.014-.453-.037-.67-.037-3.624-.002-7.247.011-10.87-.014-.588-.005-.856.169-.956.759-.596 3.521-1.22 7.038-1.828 10.558-.084.482-.324.772-.837.773-.775.003-1.55.024-2.324-.003-.517-.019-.727-.263-.605-.842.283-1.342.498-2.7.74-4.05.369-2.066.742-4.13 1.106-6.197l1-5.758c.353-2.017.711-4.034 1.074-6.05.221-1.228.43-2.46.687-3.681.635-3.024 2.331-5.356 4.765-7.173 2.04-1.522 4.33-2.356 6.89-2.352zm21.824-.06c.272.027.643.385.738.669 1.012 3.011 1.983 6.037 2.953 9.062.357 1.112.682 2.234 1.03 3.349.06.19.167.366.294.641l5.643-8.335 2.185-3.216c.362-.537.723-1.075 1.081-1.616.28-.422.605-.616 1.112-.593.673.03 1.351-.023 2.023.024.315.023.708.12.893.334.105.122-.078.59-.238.83-1.963 2.943-3.946 5.873-5.923 8.806-1.686 2.5-3.356 5.01-5.072 7.49-.317.458-.326.844-.167 1.325.787 2.38 1.557 4.767 2.34 7.15.851 2.594 1.711 5.185 2.566 7.779.147.448.32.892.42 1.352.136.633-.173 1.044-.81 1.069-.799.031-1.604.057-2.397-.018-.265-.026-.634-.32-.727-.574-.624-1.702-1.192-3.424-1.768-5.143-.757-2.26-1.505-4.522-2.259-6.783-.128-.384-.265-.764-.447-1.29-1.147 1.69-2.195 3.228-3.236 4.77-1.866 2.768-3.734 5.535-5.585 8.313-.353.53-.766.796-1.424.738-.62-.054-1.252.026-1.873-.023-.264-.021-.609-.158-.74-.359-.1-.152.012-.534.147-.736 2.483-3.734 4.985-7.456 7.482-11.18 1.207-1.8 2.432-3.59 3.603-5.413.168-.261.19-.725.091-1.036-1.041-3.29-2.124-6.566-3.189-9.848-.713-2.197-1.418-4.396-2.121-6.596-.153-.48.178-.934.754-.96.873-.037 1.755-.066 2.621.019zm-44.447.905c2.546 1.411 3.973 3.628 4.073 6.53.052 1.504-.268 3.026-.474 4.531-.196 1.436-.525 2.855-.687 4.293-.46 4.093-1.916 7.625-5.39 10.089-2.046 1.451-4.285 2.293-6.82 2.276-1.993-.014-3.988-.003-6.024-.003-.401 2.256-.791 4.394-1.156 6.535-.107.627-.476.824-1.05.815-.65-.01-1.3-.009-1.95.001-.568.008-.84-.225-.738-.824.257-1.502.504-3.007.761-4.51.249-1.452.505-2.903.758-4.355.36-2.067.724-4.135 1.082-6.203.243-1.403.458-2.81.72-4.21.482-2.574.76-5.216 1.537-7.7 1.26-4.033 4.16-6.613 8.168-7.856 2.446-.76 4.897-.68 7.19.59zm21.728.436c-3.652.366-6.37 2.223-8.34 5.296-1.13 1.765-1.349 3.785-1.72 5.759-.639 3.388-1.21 6.788-1.81 10.184-.599 3.395-1.2 6.79-1.796 10.187-.12.681-.22 1.367-.335 2.093 1.209.158 1.248.133 1.436-.902.112-.615.21-1.232.319-1.847.49-2.781 1.009-5.557 1.452-8.345.127-.804.536-.951 1.226-.949 4.225.015 8.45.007 12.675.007.125 0 .25-.006.374.002.504.033.711.267.593.794-.143.633-.243 1.276-.356 1.916-.493 2.78-.987 5.56-1.47 8.341-.057.327-.05.665-.071.993.77.16 1.266.143 1.288-.773.016-.642.217-1.278.331-1.918.361-2.016.724-4.032 1.08-6.049.243-1.378.465-2.76.713-4.138.35-1.942.727-3.88 1.07-5.823.355-2.019.594-4.062 1.04-6.059 1.078-4.83-2.766-9.265-7.7-8.77zm20.964.022c0 .047-.013.1.001.143.821 2.527 1.65 5.052 2.466 7.58.816 2.529 1.652 5.051 2.407 7.598.165.557.618 1.088.119 1.822-3.487 5.13-6.916 10.3-10.366 15.456-.17.253-.367.487-.551.73l.154.191c.512-.109 1.055.11 1.48-.54 1.855-2.834 3.77-5.63 5.666-8.438 1.157-1.714 2.312-3.43 3.496-5.127.167-.24.503-.521.74-.503.204.015.453.4.555.67.348.929.64 1.878.955 2.82.873 2.613 1.747 5.226 2.617 7.84.314.942.594 1.896.937 2.827.223.606.785.398 1.234.378.055-.003.175-.328.132-.46-.853-2.59-1.735-5.172-2.591-7.762-.788-2.381-1.574-4.763-2.314-7.16-.205-.662-.618-1.273-.055-2.085 3.08-4.441 6.085-8.935 9.115-13.412.577-.853 1.146-1.711 1.758-2.625-.878-.245-1.4-.028-1.856.659-2.387 3.589-4.813 7.152-7.227 10.723-.614.908-1.215 1.826-1.857 2.715-.44.609-.965.575-1.177-.055-.612-1.811-1.21-3.627-1.794-5.448-.84-2.624-1.653-5.257-2.498-7.88-.285-.885-.584-.99-1.546-.657zm-50.478.424c-3.163 1.23-5.382 3.438-6.43 6.71-.325 1.014-.481 2.086-.673 3.139-.385 2.113-.742 4.232-1.108 6.348-.238 1.379-.465 2.76-.706 4.138-.357 2.042-.727 4.082-1.081 6.125-.362 2.088-.711 4.178-1.098 6.455.512-.132 1.18.354 1.336-.45.37-1.911.662-3.839.95-5.765.133-.883.31-1.093 1.18-1.094 1.999-.003 3.998-.004 5.997.001 2.963.008 5.457-1.093 7.612-3.113 2.403-2.253 3.058-5.212 3.51-8.286.302-2.051.607-4.106 1.03-6.134.584-2.795-.462-5.79-2.803-7.398-2.426-1.667-5.055-1.71-7.716-.676zm6.055 1.23c2.455 1.167 3.698 4.006 3.277 6.476-.365 2.141-.657 4.297-1.079 6.427-.36 1.82-.439 3.72-1.43 5.38-1.829 3.064-4.476 4.737-8.059 4.84-.948.026-1.898.004-2.847.004v.003h-3.221c-.817 0-1.02-.18-.904-.967.215-1.457.48-2.907.73-4.36.25-1.45.5-2.902.768-4.35.495-2.672.765-5.416 1.559-7.996 1.423-4.628 6.997-7.46 11.206-5.457zM58.41 61.945c-.377 1.125-.5 2.337-.715 3.513-.38 2.09-.747 4.181-1.112 6.273-.359 2.063-.709 4.127-1.079 6.284.177.034.317.083.458.083 1.925.002 3.852.052 5.773-.031.877-.039 1.802-.206 2.603-.554 3.1-1.346 4.473-3.909 4.85-7.165.178-1.537.528-3.053.775-4.582.192-1.184.432-2.37.5-3.564.136-2.41-1.338-4.381-3.496-5.064-3.184-1.007-7.347 1.192-8.557 4.807zm8.275-3.6c1.694.61 2.842 2.294 2.624 4.095-.224 1.859-.592 3.7-.906 5.547-.218 1.28-.503 2.552-.663 3.839-.312 2.5-2.81 5.095-5.936 5.148-.65.012-1.3.002-1.949.002v.006l-1.4.004c-.232 0-.465-.002-.698-.008-.722-.016-.913-.32-.778-1.003.286-1.444.534-2.896.789-4.347.377-2.14.733-4.283 1.125-6.42.205-1.126.352-2.28.725-3.351.968-2.781 4.439-4.46 7.067-3.512zm-5.879 3.81c-.355 1.024-.468 2.134-.667 3.21-.477 2.58-.943 5.161-1.404 7.744-.143.807-.252 1.62-.395 2.542 1.427 0 2.725.059 4.013-.026.62-.04 1.267-.267 1.827-.556 1.887-.972 2.31-2.79 2.594-4.69.236-1.581.56-3.15.802-4.73.182-1.183.396-2.376.41-3.566.016-1.207-.708-2.053-1.82-2.496-1.992-.794-4.614.42-5.36 2.569zm35.88-4.597c1.518 1.535 2.084 3.406 1.704 5.56-.463 2.634-.89 5.273-1.34 7.908-.177 1.034-.358 2.068-.573 3.095-.13.62-.632.69-1.165.688-2.125-.006-4.25-.002-6.374-.002v.003c-2.149 0-4.299.002-6.448-.001-.838-.001-.975-.23-.805-1.039.256-1.222.45-2.457.668-3.687.393-2.213.802-4.423 1.172-6.64.523-3.13 2.346-5.273 5.063-6.71 2.773-1.465 6.172-1.123 8.098.825zm-11.57 4.584c-.38 1.096-.495 2.286-.712 3.436-.375 1.989-.737 3.98-1.099 5.971-.113.626-.208 1.256-.32 1.934h12.298c.102-.46.208-.871.283-1.288.373-2.091.75-4.182 1.102-6.277.199-1.183.434-2.37.506-3.563.135-2.249-1.167-4.168-3.197-4.905-3.457-1.255-7.609 1.091-8.86 4.692zm8.614-3.463c1.508.703 2.457 2.266 2.291 3.951-.117 1.192-.348 2.374-.551 3.557-.253 1.477-.528 2.95-.795 4.424-.058.32-.142.634-.184.956-.081.63-.469.817-1.047.812-1.374-.013-2.749-.004-4.123-.003-1.35.001-2.699-.013-4.048.007-.655.01-.92-.246-.797-.908.377-2.039.731-4.081 1.118-6.118.209-1.099.356-2.227.723-3.275 1.028-2.936 4.793-4.624 7.413-3.403zM103.7 8.151c-.01.074-.046.157-.025.221.813 2.5 1.628 5 2.449 7.497.328.998.67 1.991 1.03 3.054.175-.167.302-.251.38-.369l2.314-3.48c1.548-2.31 3.101-4.616 4.652-6.923h9c.174.573-.03 1.026-.358 1.508-4.224 6.223-8.418 12.465-12.652 18.681-.455.668.074 1.117.215 1.59.812 2.735 1.727 5.439 2.618 8.15.954 2.9 1.921 5.796 2.879 8.695.14.425.29.849.388 1.284.161.711-.109 1.086-.82 1.09-2.598.017-5.198.022-7.797-.014-.236-.003-.6-.278-.68-.507-.832-2.364-1.617-4.744-2.414-7.12-.33-.985-.655-1.971-1.02-3.068-.148.117-.318.196-.407.33-2.164 3.224-4.323 6.452-6.473 9.687-.333.501-.73.724-1.36.715-2.4-.037-4.8-.007-7.199-.026-.298-.003-.783-.082-.849-.254-.095-.249.035-.667.205-.922 4.015-6.03 8.023-12.068 12.105-18.053.645-.946.733-1.678.338-2.746-.85-2.303-1.501-4.68-2.252-7.022-.75-2.34-1.525-4.674-2.287-7.011-.424-1.299-.88-2.59-1.237-3.906-.085-.314.162-.719.257-1.081h9zm-33.3 0c.117.101.22.267.352.296 3.73.821 6.221 3.017 7.479 6.656.803 2.321.563 4.623.09 6.953-.297 1.47-.54 2.952-.743 4.438-.517 3.787-1.46 7.378-4.19 10.261-3.054 3.225-6.716 5.045-11.197 5.061-.925.003-1.85.01-2.775-.01-.443-.009-.66.107-.733.61-.28 1.953-.602 3.9-.94 5.845-.091.524-.373.905-1.01.901-2.3-.014-4.6-.01-6.899.001-.643.004-.85-.304-.742-.902.364-2.016.731-4.032 1.086-6.05.337-1.92.658-3.842.99-5.763.372-2.142.753-4.282 1.119-6.425.337-1.97.655-3.944.991-5.915.52-3.04.891-6.114 2.676-8.783 2.291-3.425 5.384-5.692 9.333-6.803.36-.101.709-.246 1.063-.371h4.05zm21.15 0c-.026.496-.009 1-.086 1.488-.316 1.998-.653 3.993-.998 5.986-.346 1.993-.713 3.982-1.066 5.974-.24 1.353-.473 2.707-.71 4.06-.37 2.116-.747 4.23-1.11 6.346-.344 1.994-.666 3.992-1.012 5.986-.346 1.992-.715 3.98-1.065 5.972-.247 1.402-.506 2.803-.707 4.213-.095.666-.395.985-1.064.983-2.273-.005-4.547.005-6.82-.006-.737-.004-.885-.271-.746-1.01.39-2.086.746-4.179 1.117-6.268.363-2.041.73-4.081 1.09-6.123.338-1.919.665-3.84 1-5.76.365-2.09.736-4.18 1.1-6.272.236-1.353.461-2.708.697-4.062.365-2.09.737-4.181 1.104-6.272.233-1.329.454-2.66.699-3.985.078-.423.216-.834.327-1.25h8.25zm24.456 1.243c-.696-.02-1.088.223-1.458.778-2.308 3.46-4.639 6.905-6.985 10.339-.175.256-.56.567-.796.53-.241-.04-.513-.445-.611-.743-1.13-3.445-2.241-6.897-3.322-10.357-.137-.438-.346-.538-.744-.537-1.9.01-3.799.002-5.698.007-.138 0-.275.05-.391.073-.023.102-.055.156-.042.196.96 2.924 1.933 5.844 2.883 8.77 1.013 3.118 2.006 6.241 3.004 9.363.172.539.164 1.004-.197 1.539-3.559 5.259-7.078 10.545-10.61 15.822-.586.875-1.178 1.745-1.845 2.731 1.98 0 3.8-.05 5.613.023.831.033 1.29-.239 1.747-.931 2.22-3.37 4.497-6.7 6.779-10.028.202-.294.586-.463.885-.69.222.337.516.646.653 1.015.379 1.023.688 2.071 1.033 3.107l1.528 4.562c.253.761.502 1.523.747 2.287.16.5.396.668.906.661 1.825-.024 3.65-.006 5.474-.009.163 0 .326-.04.488-.062.013-.123.046-.205.025-.268-.88-2.637-1.776-5.268-2.646-7.908-1.104-3.347-2.188-6.7-3.277-10.052-.18-.555-.228-1.044.157-1.61 3.917-5.74 7.797-11.507 11.687-17.267.265-.394.521-.795.823-1.256-.226-.048-.32-.084-.413-.084-1.799.004-3.6.053-5.397-.001zm-31.372.025c-.156.002-.4.195-.448.348-.14.45-.214.924-.293 1.392-.334 1.97-.648 3.944-.993 5.912-.352 2.017-.744 4.028-1.095 6.045-.347 1.993-.647 3.994-.997 5.987-.45 2.558-.935 5.11-1.39 7.667-.5 2.803-.988 5.609-1.47 8.415-.151.872-.27 1.75-.419 2.722 1.965 0 3.808.008 5.65-.017.148-.002.393-.224.423-.377.31-1.593.592-3.192.87-4.79.348-1.994.679-3.991 1.03-5.984.346-1.967.72-3.93 1.06-5.898.35-2.019.662-4.044 1.014-6.062.346-1.993.727-3.98 1.083-5.97.387-2.164.767-4.329 1.14-6.495.16-.928.295-1.86.46-2.91-1.986 0-3.806-.009-5.625.015zm-21.502 1.157c-3.513 1.602-6.135 4.187-7.35 7.845-.836 2.51-1.112 5.21-1.602 7.833-.366 1.965-.67 3.941-1.01 5.91-.36 2.093-.731 4.184-1.093 6.276-.243 1.403-.474 2.808-.717 4.21-.294 1.695-.595 3.39-.922 5.246 2.023 0 3.913.007 5.803-.018.118-.001.309-.241.336-.393.322-1.82.644-3.641.917-5.47.2-1.338.355-1.48 1.717-1.507 1.946-.04 3.941.136 5.827-.235 5.883-1.158 10.312-6.024 11.045-12.328.24-2.058.61-4.104 1.015-6.137.411-2.066.607-4.098-.085-6.143-1.083-3.2-3.301-5.155-6.522-5.96-2.544-.636-5.007-.2-7.359.871zm25.047.018c.487.007.665.306.593.751-.261 1.604-.533 3.205-.808 4.806-.259 1.502-.527 3.002-.792 4.503-.351 1.993-.707 3.985-1.054 5.978l-.746 4.36c-.348 1.993-.704 3.985-1.056 5.977l-.726 4.134-.427 2.474c-.144.824-.296 1.646-.468 2.464-.058.27-.452.57-.75.663-.364.115-.792.028-1.191.028h-.075c-1.96.033-1.825.122-1.49-1.967.335-2.096.726-4.184 1.098-6.274.362-2.042.737-4.081 1.095-6.124.34-1.944.66-3.892.997-5.837.354-2.043.721-4.084 1.08-6.126.239-1.353.472-2.707.71-4.06.297-1.699.57-3.403.926-5.089.056-.263.479-.602.763-.634.765-.088 1.546-.038 2.32-.027zm28.567-.017c.56.09 1.15-.02 1.72.029.267.023.604.15.747.347.095.13-.042.511-.176.711-3.134 4.677-6.282 9.344-9.428 14.012-.544.806-1.016 1.679-1.664 2.389-.646.706-.14 1.289.038 1.86.941 3.034 1.945 6.05 2.935 9.069.735 2.24 1.48 4.478 2.228 6.715.163.488-.156.992-.731 1.015-.874.035-1.755.065-2.621-.023-.26-.026-.596-.414-.697-.705-.993-2.86-1.95-5.731-2.905-8.603-.47-1.411-.918-2.829-1.447-4.463-.5.724-.918 1.319-1.325 1.921-2.507 3.717-5.02 7.43-7.507 11.161-.362.543-.77.783-1.42.732-.646-.05-1.302.023-1.948-.024-.266-.02-.602-.152-.748-.35-.09-.122.067-.501.202-.704 3.442-5.16 6.829-10.357 10.392-15.43.893-1.27.84-2.281.39-3.573-.917-2.625-1.75-5.28-2.61-7.925-.727-2.245-1.45-4.49-2.159-6.742-.317-1.007-.009-1.403 1.037-1.403.7 0 1.405-.054 2.097.02.273.03.665.294.748.538.835 2.469 1.612 4.957 2.416 7.436.611 1.885 1.238 3.765 1.903 5.784.262-.355.483-.63.68-.922 2.66-3.946 5.323-7.89 7.971-11.843.459-.685.95-1.181 1.882-1.03zm-48.414.026c3.822.139 7.083 2.672 7.839 6.636.299 1.567.034 3.04-.203 4.54-.338 2.147-.831 4.273-1.081 6.428-.756 6.5-6.23 11.26-12.271 11.184-.75-.01-1.5-.001-2.249-.001-.95 0-1.9.033-2.848-.014-.508-.026-.738.153-.817.631-.235 1.405-.482 2.808-.72 4.212-.104.615-.13 1.256-.328 1.838-.095.28-.488.608-.777.642-.764.09-1.546.054-2.32.027-.56-.02-.758-.276-.624-.895.295-1.365.499-2.75.738-4.128l1.104-6.35.69-3.988 1.125-6.497c.222-1.28.477-2.556.659-3.842.482-3.405 2.217-6.041 4.915-8.066 2.115-1.586 4.504-2.455 7.168-2.357zm17.791 1.632c-.09.282-.097.59-.147.886-.233 1.378-.464 2.757-.704 4.134-.363 2.091-.736 4.18-1.101 6.271-.236 1.353-.464 2.706-.7 4.059l-1.098 6.27c-.334 1.92-.659 3.84-.997 5.758-.336 1.91-.684 3.82-1.047 5.837.594-.01 1.231.314 1.381-.537.334-1.893.643-3.79.962-5.685.242-1.428.479-2.857.728-4.284.353-2.016.72-4.03 1.07-6.045.347-1.993.675-3.99 1.02-5.982.36-2.066.731-4.13 1.093-6.195.24-1.378.483-2.755.7-4.136.036-.235-.02-.69-.091-.703-.393-.069-.887-.222-1.069.352zm-22.675.708c-2.928 1.474-4.915 3.767-5.707 6.996-.285 1.162-.438 2.355-.65 3.535-.366 2.041-.744 4.08-1.095 6.125-.344 1.995-.647 3.997-.993 5.991-.452 2.61-.932 5.215-1.395 7.823-.116.655-.212 1.313-.316 1.965 1.11.226 1.191.212 1.381-.766.353-1.815.651-3.64.97-5.462.162-.928.318-1.062 1.278-1.063 2-.001 4-.03 5.999.01 1.903.036 3.674-.42 5.277-1.413 2.845-1.764 4.726-4.221 5.228-7.626.185-1.261.43-2.513.641-3.77.318-1.899.7-3.79.926-5.7.345-2.915-1.293-5.74-3.921-6.968-2.596-1.213-5.145-.925-7.623.323zm52.17-.35c-1.523 2.367-3.139 4.674-4.716 7.005-1.425 2.105-2.835 4.218-4.281 6.308-.18.26-.612.606-.794.541-.273-.098-.507-.498-.62-.819-.364-1.029-.657-2.083-.991-3.123-.981-3.05-1.986-6.09-2.947-9.146-.5-1.59-.47-1.601-1.778-1.465.01.19-.011.345.032.478.669 2.027 1.359 4.048 2.018 6.078 1.012 3.118 2.003 6.243 3.008 9.364.188.582.124 1.07-.24 1.609-3.43 5.075-6.83 10.172-10.237 15.263-.153.228-.3.458-.475.725.814.177 1.297.047 1.744-.626 2.947-4.44 5.946-8.848 8.95-13.25.187-.275.599-.616.84-.571.256.047.52.49.63.812.665 1.948 1.278 3.914 1.925 5.87.763 2.307 1.56 4.604 2.309 6.916.306.943.436 1.05 1.544.817-.028-.19-.03-.39-.088-.574-.4-1.254-.807-2.505-1.22-3.755-1.268-3.842-2.543-7.682-3.808-11.526-.156-.475-.236-.923.099-1.413 3.58-5.247 7.138-10.51 10.699-15.77.088-.13.13-.29.21-.472-.806-.122-1.346-.005-1.814.724zm-44.616 1.52c1.821 1.16 2.771 2.863 2.719 5.019-.032 1.291-.27 2.581-.466 3.864-.234 1.532-.593 3.046-.772 4.582-.403 3.463-1.756 6.314-4.875 8.117-1.42.821-2.942 1.208-4.583 1.16-.849-.026-1.699-.005-2.549-.005v.003c-1.174 0-2.349.005-3.523-.002-.799-.004-.919-.22-.764-.998.259-1.297.452-2.608.677-3.913.373-2.166.754-4.332 1.124-6.499.236-1.379.528-2.753.675-4.142.364-3.433 3.016-6.71 6.308-7.74 2.095-.654 4.123-.66 6.029.554zM60.266 19.81c-.646 2.298-.875 4.714-1.29 7.078-.26 1.476-.52 2.952-.775 4.43-.237 1.376-.466 2.753-.716 4.235.267.02.46.045.652.045 1.775.004 3.55.01 5.325.001 2.525-.013 4.48-1.138 6.045-3.08 1.26-1.563 1.432-3.463 1.763-5.321l.411-2.288c.136-.763.266-1.527.38-2.293.18-1.208.383-2.428.389-3.643.01-2.036-1.88-4.129-3.882-4.468-3.905-.662-7.342 1.89-8.302 5.304zm8.135-4.1c1.457.345 2.88 1.957 2.86 3.456-.018 1.24-.216 2.483-.4 3.714-.228 1.53-.539 3.049-.786 4.577-.303 1.874-.561 3.75-2.053 5.157-1.234 1.164-2.643 1.852-4.364 1.817-.55-.01-1.1-.001-1.649-.001v.003c-.749 0-1.498-.022-2.247.006-.673.025-.903-.267-.787-.914.256-1.426.498-2.854.746-4.28.251-1.451.477-2.907.76-4.352.38-1.928.612-3.914 1.254-5.753.904-2.591 4.016-4.057 6.666-3.43zm-5.465 3.652c-.474 1.13-.672 2.39-.89 3.61-.594 3.341-1.132 6.692-1.72 10.206 1.265 0 2.458.02 3.65-.004 1.834-.038 3.347-.864 3.991-2.538.635-1.648.845-3.466 1.195-5.219.307-1.542.503-3.107.832-4.644.318-1.487-.32-2.966-1.685-3.638-1.793-.883-4.506.159-5.373 2.227z"/>
</svg>
