<svg xmlns="http://www.w3.org/2000/svg" width="184" height="100" viewBox="0 0 184 100">
    <path fill-rule="evenodd" d="M168.34 60.76c.007-.053.021-.102.021-.151.002-.607.003-1.214 0-1.82 0-.085-.01-.172-.033-.254-.136-.485-.728-.756-1.188-.383-.2.161-.29.375-.289.63l.001 1.82c0 .05.011.099.017.147.034.012.057.028.08.028.428.003.856.004 1.283.003.033 0 .066-.012.108-.02zm-.724 3.308c.788.02 1.359.626 1.474 1.176.03.15.039.305.04.458.005.564.002 1.129.003 1.693 0 .084.006.168.01.264.05.008.09.02.13.02.702 0 1.404-.002 2.106-.004v.822c-.103-.004-.205-.01-.308-.011h-4.698c-.101 0-.203-.005-.291-.007-.077-.078-.052-.16-.053-.233-.002-.88.013-1.76-.005-2.64-.015-.758.683-1.561 1.592-1.538zm-84.401-32.59c.047.014.094.039.143.041 2.734.154 5.126 1.151 7.165 2.965 1.879 1.67 3.091 3.747 3.647 6.2.156.686.24 1.38.27 2.083.081 1.917-.287 3.743-1.099 5.478-.574 1.228-1.345 2.32-2.302 3.284-.908.913-1.935 1.659-3.084 2.236-1.054.53-2.165.89-3.331 1.08-.644.106-1.291.156-1.944.155l-5.718-.002h-6.036c-.012.06-.029.108-.032.157l-.003.128.001 12.81c0 .109-.004.218-.005.31-.026.022-.032.029-.039.033-.007.004-.015.008-.023.008l-5.166.006c-.042 0-.085-.007-.127-.012-.007-.001-.013-.01-.036-.028-.003-.035-.01-.084-.012-.133V31.852c0-.077-.005-.155.002-.23.005-.05.03-.096.045-.144h17.684zm-39.922.625c.24.017.338.11.375.344.016.092.014.187.019.281.022.436.038.871.067 1.306.045.683.1 1.365.148 2.047l.026.563c.028.415-.021.82-.141 1.217l-.18.588c-.017.058-.031.116-.038.175-.006.054.068.114.122.104.034-.007.066-.018.097-.033.325-.155.637-.327.91-.568.508-.448 1.007-.904 1.495-1.372.282-.27.315-.569.23-.912-.023-.09-.06-.178-.091-.267-.19-.532-.354-1.071-.46-1.627-.071-.371-.098-.746-.116-1.121-.009-.187.017-.373.04-.558.136-.055.264-.046.39-.023.17.03.25.14.232.312-.006.05-.018.102-.038.148-.145.33-.13.664-.046 1.005.163.674.37 1.334.615 1.983.081.215.158.431.242.664.468-.194.8-.462.87-.991.088-.661.204-1.319.315-1.976.063-.377.152-.536.4-.78.061.006.049.06.056.096.058.297.058.597.016.894-.056.397-.135.792-.201 1.188-.042.253-.079.507-.116.76-.005.033-.001.067-.001.12.058-.017.106-.025.148-.045.403-.198.719-.49.947-.877.166-.282.28-.586.378-.896.104-.335.204-.67.309-1.005.033-.106.075-.21.117-.312.011-.029.038-.051.074-.097.023.135.04.242.06.35.009.05.016.101.033.15.062.174.173.238.358.209.243-.038.243-.038.445.058 0 .162-.059.29-.204.384-.357.23-.52.578-.571.987-.012.093-.014.188-.017.282-.015.538-.034 1.077-.04 1.615-.004.359.005.718.021 1.077.022.486.066.972.08 1.459.01.324-.005.65-.026.973-.031.47-.069.938-.12 1.405-.068.612-.149 1.223-.23 1.833-.112.847-.237 1.693-.345 2.541-.087.687-.157 1.376-.234 2.064-.006.05-.005.101-.008.155l.177.113c.162.107.22.26.175.445-.041.174-.113.337-.248.496l-.039-.131c-.005-.02-.01-.038-.013-.056-.014-.076-.017-.153-.031-.229-.015-.076-.032-.08-.165-.06l-.115.937c-.055-.046-.09-.066-.114-.096-.312-.4-.375-.855-.277-1.337.128-.628.266-1.254.406-1.88.14-.626.25-1.258.34-1.893.016-.11.032-.22.05-.33.124-.727.147-1.462.15-2.197.001-.556-.008-1.112-.01-1.668-.002-.3.007-.599-.002-.898-.009-.326-.063-.646-.192-.95-.085-.199-.065-.404-.022-.605.117-.543.242-1.084.364-1.626.046-.2.086-.402.138-.6.059-.22.049-.439.03-.662-.118-.046-.203 0-.283.07-.53.458-.979.98-1.312 1.598-.388.72-.55 1.485-.5 2.3.034.582.001 1.163-.093 1.739-.124.759-.255 1.517-.39 2.275-.112.632-.18 1.269-.207 1.91-.026.633-.053 1.265-.092 1.896-.03.503-.08 1.006-.118 1.509-.018.238-.035.477-.045.716-.016.35-.03.7-.035 1.05-.002.136.017.272.029.408.005.06.017.119.023.178.017.165-.027.309-.166.406-.125.088-.147.202-.115.338.014.059.024.118.043.175.147.44.226.894.245 1.358.017.427.03.854.046 1.282.008.204.02.41.032.614.025.461-.046.909-.251 1.322-.226.455-.311.94-.344 1.436-.035.512-.049 1.025-.075 1.537-.026.503-.052 1.007-.085 1.51-.015.232-.07.457-.159.671-.2.484-.555.794-1.063.92-.104.027-.21.079-.34.045-.005-.066-.016-.131-.017-.197-.005-.702-.01-1.403-.01-2.105-.001-.47.002-.94.01-1.41.014-.676.033-1.351.052-2.027.015-.555.032-1.11.051-1.666l.07-1.87c.013-.393.02-.787.032-1.18.013-.418.025-.837.043-1.256.015-.363.097-.713.262-1.037.313-.61.468-1.266.55-1.94.14-1.154.285-2.307.453-3.458.145-.99.282-1.98.41-2.972.098-.747.175-1.496.162-2.25-.002-.153-.026-.306-.054-.457-.02-.108-.062-.213-.1-.318-.07-.192-.146-.382-.225-.588-.247.06-.445.149-.627.287-.566.43-1.138.85-1.706 1.277-.308.233-.548.52-.643.902-.041.164-.073.336-.075.505-.008.744-.004 1.489-.003 2.233 0 .301.04.596.14.882.049.136.088.276.129.405.083.042.144.036.185-.039.079-.141.156-.283.233-.423.094.018.12.085.128.15.032.228.057.456.086.7-.06.013-.105.03-.153.033-.16.01-.324-.02-.498.031-.126.25-.198.524-.196.807.002.273.029.547.063.817.066.518.148 1.033.218 1.55.042.315.04.63-.012.945-.06.362-.107.726-.15 1.091-.066.563-.24 1.101-.4 1.642-.105.353-.199.708-.307 1.06-.085.278-.081.554-.02.835.041.192.076.386.112.58.013.067.02.135.026.203.026.268-.04.51-.214.717-.115.137-.176.292-.197.466-.097.832-.204 1.663-.287 2.496-.053.537-.043 1.078.003 1.615.044.511.11 1.02.16 1.53.02.213.026.428.023.641-.006.428-.024.855-.037 1.282-.009.326.022.65.063.971.026.2.02.386-.063.576-.155.36-.182.745-.172 1.133.007.281.037.563.032.845-.007.35-.033.7-.101 1.045l-.186.878c-.047.233-.198.37-.404.463-.107.048-.201.029-.28-.057-.051-.056-.103-.114-.147-.177-.128-.181-.253-.365-.38-.548l-.05-.076c-.027-.037-.062-.068-.125-.077.036-.091.066-.178.104-.263.08-.183.119-.373.115-.573-.009-.445-.014-.89-.023-1.334-.012-.556-.029-1.111-.04-1.667-.009-.496-.012-.992-.02-1.488l-.04-2c-.011-.658-.029-1.317-.028-1.975 0-.307.018-.613.064-.92.052-.346.034-.699-.01-1.048-.002-.025-.01-.05-.015-.075-.034-.233-.002-.296.205-.414l.081-.049c.005-.057.014-.124.015-.19.006-.223.002-.445.013-.667.015-.323-.01-.634-.214-.904-.057-.075-.058-.159-.032-.244.035-.114.074-.228.11-.342.016-.054.052-.106.026-.19l-.248.257c-.024-.045-.049-.077-.058-.112-.042-.174-.08-.349-.118-.511-.075-.063-.144-.036-.207-.02-.1.027-.197.045-.316.042l.018-.302c-.237.036-.433.146-.652.186-.007-.029-.023-.054-.019-.076.105-.51.223-1.016.348-1.528.326-.078.655-.068.981-.15.103-.482.142-.975.243-1.473.11.021.171.095.244.147.083.06.161.127.243.189.074.056.14.125.25.164.033-.215.06-.416.097-.615.08-.448.084-.903.093-1.355.012-.572-.018-1.146-.011-1.718.005-.47.038-.94.062-1.41.017-.35.039-.699.058-1.049.039-.734.083-1.468.114-2.202.015-.376.018-.753.005-1.129-.017-.48.02-.957.07-1.433.06-.599.053-1.195.003-1.793l-.122-1.457c-.042-.511-.087-1.022-.123-1.534-.021-.298-.028-.597-.038-.896-.007-.197-.006-.394-.011-.59-.01-.418.161-.641.628-.668.18-.01.36-.011.54.001zm-12.168-.453c.017.164.024.334.055.5.032.166.088.328.136.502.064-.008.114-.01.16-.022.343-.09.65-.261.964-.418.244-.123.49-.246.74-.355.22-.096.455-.147.696-.168.106-.01.158.042.178.144-.025.078-.104.104-.165.145-.58.395-1.165.784-1.743 1.182-.175.121-.34.26-.499.402-.349.31-.36.871-.037 1.226.12.132.254.257.4.358.297.204.525.464.699.775l.182.339.179.34.097.18c.125.246.307.43.575.547.108-.123.143-.28.167-.435.045-.288.074-.577.11-.866.11-.891.23-1.78.462-2.65.108-.406.238-.804.406-1.189.037-.085.088-.166.138-.244.052-.082.122-.08.202-.026.005.022.017.047.014.07-.066.56-.131 1.12-.265 1.67-.123.508-.248 1.014-.364 1.522-.144.627-.251 1.26-.228 1.905.011.325.027.65.065.972l.144 1.184.154 1.183.336 2.414c.04.304.08.61.098.917.021.352-.053.699-.109 1.044-.093.574-.198 1.146-.297 1.719-.075.43-.123.863-.154 1.298-.046.632-.049 1.265-.05 1.897-.003.642.01 1.283.03 1.924.027.898.066 1.794.1 2.691.03.76.06 1.52.095 2.28.015.32-.037.631-.079.945-.076.565-.078 1.125.121 1.671.079.215.07.439.038.66-.02.14-.03.285-.122.461-.01-.086-.012-.16-.013-.228v-.975c-.07-.058-.127-.062-.156.01-.096.239-.175.482-.147.747.022.212.027.427.051.64.069.597.037 1.196.035 1.794-.003.641-.026 1.282-.04 1.923-.002.12-.009.24-.005.36.005.136.02.272.03.407l.017.21-.533.207c-.04.015-.08.025-.131.042-.036-.055-.073-.1-.097-.152-.176-.374-.29-.768-.363-1.173-.076-.422-.1-.849-.12-1.276-.053-1.112-.029-2.224-.029-3.336 0-1.01-.068-2.016-.198-3.018-.077-.593-.145-1.188-.219-1.782-.023-.187-.054-.372-.075-.56-.014-.118-.015-.238-.024-.357-.012-.16.025-.309.117-.438.213-.296.274-.64.321-.99.021-.154.005-.306-.061-.45-.084-.183-.112-.378-.108-.576.01-.506-.05-1.007-.102-1.509-.06-.57-.112-1.14-.177-1.71-.026-.228-.07-.456-.116-.682-.068-.326-.064-.642.053-.959.032-.085.061-.172.09-.258l.164-.523c.057-.18.083-.364.09-.554.018-.574.066-1.143.232-1.698.104-.347.116-.707.114-1.068l-.01-1.282c-.002-.36-.004-.718-.01-1.078-.007-.394.016-.786.079-1.176.071-.447-.014-.87-.222-1.266-.102-.196-.226-.384-.362-.559-.22-.284-.456-.555-.69-.828-.137-.161-.18-.187-.41-.295-.082.133-.107.265-.191.912-.041.315-.069.63-.045.947.024.314.066.627.102.96-.033.045-.08.105-.124.168-.172.245-.245.524-.278.817-.011.102-.015.205-.018.307l-.032 1.41c-.011.504-.115.982-.383 1.42-.183.297-.25.637-.28.978-.091.98-.179 1.959-.247 2.94-.06.848-.002 1.69.166 2.527.089.444.153.893.162 1.348.004.213-.005.427-.001.64.005.262.026.522.052.781l.083.778c.028.273.056.545.08.817.027.323.155.604.34.884l.106-.151c.064.138.122.262.132.416l-.37.035c.01.065.011.116.023.164.162.667.252 1.344.3 2.028.04.589.038 1.179.056 1.768.024.752.02 1.505.093 2.255.031.323.072.646.092.97.018.273.011.547.02.82.01.368.012.737.083 1.1.043.225.092.452.164.67.093.28.074.543-.076.79-.111.182-.24.354-.373.52-.11.137-.316.12-.421-.021-.074-.1-.1-.217-.107-.337-.019-.265-.034-.53-.053-.794-.033-.469-.06-.938-.106-1.406-.024-.246-.07-.491-.124-.733-.142-.628-.22-1.263-.24-1.906-.02-.675-.022-1.35-.033-2.026-.004-.205 0-.41-.015-.615-.013-.179-.047-.356-.076-.533-.028-.168-.06-.336-.093-.504-.031-.154-.018-.308.018-.457.152-.622.108-1.24-.038-1.855-.08-.34-.17-.68-.26-1.018-.118-.438-.196-.885-.29-1.328-.11-.527-.246-1.048-.366-1.573-.085-.367-.136-.74-.166-1.116-.035-.439.017-.87.112-1.298.08-.368.172-.733.242-1.102.045-.234.066-.474.083-.713.076-1.006.129-2.013.122-3.024-.001-.26-.067-.484-.21-.696-.14-.206-.266-.42-.4-.629-.083-.13-.14-.271-.177-.423-.074-.307-.151-.614-.233-.92-.142-.53-.243-.715-.629-1.174-.03.027-.065.05-.09.08-.25.304-.5.608-.748.914-.141.175-.25.367-.307.586-.073.283-.042.561.035.836.117.412.205.83.252 1.256.066.606.073 1.213-.004 1.817-.095.739-.188 1.477-.212 2.22-.023.72-.008 1.438.078 2.153.04.339.083.678.127 1.017.07.537.06 1.076.052 1.614-.007.47-.029.941-.011 1.41.042 1.184.361 2.293.942 3.326.07.126.145.252.203.385.15.34.112.667-.094.974-.038.057-.08.112-.123.165-.173.216-.26.463-.252.737.007.273.029.546.052.819.019.212.051.424.074.637.025.238.03.472-.018.713-.068.343-.11.692-.023 1.044.028.114.024.238.024.357 0 .22-.114.37-.31.462-.14.065-.287.105-.457.109-.03-.05-.064-.098-.087-.15-.316-.739-.43-1.51-.369-2.308.028-.358.085-.712.16-1.064.087-.41.072-.816-.084-1.21-.016-.04-.034-.078-.054-.116-.007-.015-.022-.025-.03-.034-.05-.007-.059.027-.069.06-.034.114-.066.229-.103.343-.02.063-.048.125-.074.192l-.11-.039c-.03-.11.03-.202.053-.299.028-.116.068-.229.095-.345.057-.245.025-.487-.11-.692-.257-.393-.343-.834-.41-1.284-.05-.33-.069-.662-.046-.997.01-.153.004-.308-.008-.462-.045-.588-.095-1.176-.143-1.764-.041-.502-.08-1.005-.125-1.508-.041-.46-.087-.92-.134-1.378-.013-.121-.007-.238.028-.355.227-.78.286-1.579.263-2.387-.019-.667-.038-1.333-.051-2-.01-.454.038-.905.084-1.356.052-.51.088-1.022.126-1.534.01-.135.015-.273-.043-.404-.064-.148-.14-.196-.3-.178-.113.012-.216.051-.31.115-.297.204-.578.427-.817.7-.644.733-1.268 1.483-1.875 2.247-.172.216-.258.46-.26.736-.002.35-.004.701-.013 1.052-.009.384-.03.768-.037 1.153-.009.559.065 1.107.198 1.65.125.515.233 1.034.342 1.553.032.15.051.304.061.457.04.623.09 1.246.065 1.87-.009.223-.033.444-.046.666-.018.314.033.61.206.883.153.244.219.52.22.807 0 .18-.005.36-.011.54-.017.472.015.687.18 1.174l.453-.207c-.01.085-.01.144-.022.2-.046.218-.097.434-.141.652-.021.103-.055.194-.128.274-.044.047-.073.116-.086.18-.145.677-.287 1.355-.425 2.034-.141.691-.163 1.391-.145 2.094.005.163.022.325.014.487-.012.28.084.521.252.736.11.14.172.295.184.47.005.076.003.154-.006.23-.015.113-.059.208-.137.286l-.065.056-1.004.758c-.082.06-.176.107-.271.142-.162.057-.309.008-.407-.13-.044-.063-.08-.133-.106-.205-.13-.363-.206-.739-.247-1.122-.007-.067-.026-.133-.048-.197-.112-.327-.165-.662-.168-1.007-.003-.37.03-.735.083-1.1.061-.423.086-.85.108-1.276.009-.156-.043-.287-.205-.349-.032-.012-.062-.028-.095-.044-.063-.185-.052-.354.092-.5.006-.005.011-.012.016-.019.181-.243.22-.385.002-.638-.09-.104-.112-.228-.112-.358l-.002-.36.002-.36.017-.82c.01-.764.123-1.515.28-2.261.06-.285.114-.57.166-.857.025-.135.036-.272-.02-.404-.179-.418-.199-.863-.217-1.307-.034-.82-.107-1.638-.198-2.454-.107-.944-.263-1.88-.472-2.806-.108-.476-.26-.939-.396-1.407-.074-.254-.144-.512-.179-.773-.033-.252-.018-.511-.025-.767-.002-.068.002-.137-.009-.203-.024-.142-.028-.143-.202-.272.005-.014.007-.036.016-.04.173-.076.248-.215.296-.392.166-.613.185-1.232.105-1.857-.02-.161-.052-.32-.078-.481-.011-.073-.042-.13-.13-.157-.028.017-.065.037-.097.062-.377.29-.684.642-.954 1.033-.277.401-.57.792-.857 1.186-.136.187-.266.378-.352.594-.135.338-.157.68-.017 1.036l.226-.015c-.004.018-.001.038-.01.046-.084.085-.169.17-.258.25-.115.105-.169.235-.177.386-.004.085-.004.171.004.256.042.417.086.834.132 1.25.06.536.12 1.07.182 1.606.073.62.143 1.24.227 1.859.028.201.08.404.15.595.129.353.17.713.15 1.084-.027.53-.05 1.06-.075 1.589-.028.584.012 1.161.144 1.732.14.603.205 1.214.21 1.832.007 1 .008 2.002.012 3.003 0 .085 0 .171.01.256.01.103.06.17.172.19.126.024.249.064.373.098.056.016.111.036.158.051.029.067.023.11-.018.136l-.037.017-.34.101c-.045.206-.04.402-.045.598-.007.341-.01.683-.018 1.025-.008.344.05.681.11 1.018.052.286.09.575.144.86.032.167.077.333.131.495.1.294.157.596.181.903.025.315.037.631.053.947.018.342.056.682.14 1.015.012.047.01.098.016.16-.049-.014-.082-.02-.112-.033-.52-.22-1.038-.445-1.56-.662-.276-.115-.437-.319-.5-.605-.023-.1-.04-.202-.06-.302-.037-.17-.097-.329-.235-.446-.074-.062-.091-.133-.07-.228.029-.136.07-.265.161-.372.229-.272.306-.588.277-.934-.02-.238-.045-.476-.075-.714-.068-.517-.133-1.035-.135-1.557-.001-.24.005-.48.019-.718.02-.359.05-.717.075-1.075.033-.481-.09-.918-.397-1.292-.161-.198-.226-.416-.228-.663-.003-.432.042-.854.23-1.25.148-.308.2-.631.195-.972-.01-.633 0-1.266-.004-1.899-.004-.753-.039-1.504-.104-2.254-.036-.41-.135-.809-.225-1.21-.083-.366-.161-.734-.234-1.103-.078-.396-.076-.8-.097-1.2-.019-.384-.042-.768-.073-1.152-.04-.494-.088-.988-.133-1.482-.08-.885-.179-1.769-.32-2.647-.036-.223-.121-.426-.242-.617-.142-.225-.316-.425-.5-.617-.404-.422-.855-.79-1.314-1.148-.263-.206-.52-.42-.785-.622-.198-.15-.341-.333-.4-.578-.014-.066-.04-.13-.066-.207.082-.024.153-.046.225-.064.127-.031.24-.02.348.042l.08.057 1.606 1.322c.279.232.595.398.916.562.066-.053.068-.123.076-.187.055-.45.116-.899.158-1.35.081-.877.125-1.757.117-2.639-.008-.838-.055-1.674-.143-2.508-.066-.621-.151-1.24-.262-1.854-.012-.066-.014-.134-.02-.212.234-.103.457-.06.671.034.213.093.374.245.425.482.035.167.072.337.076.506.007.316-.009.632-.015.948-.007.394-.015.787-.02 1.18-.006.334-.01.668-.012 1.001 0 .048.01.096.016.156.04-.014.066-.016.083-.03.532-.432 1.064-.864 1.593-1.299.105-.086.2-.186.298-.282.512-.497.656-1.101.514-1.787-.017-.083-.04-.166-.051-.25-.02-.14.006-.274.088-.392.14-.2.304-.161.458-.028.024.021.04.055.057.084.279.457.47.942.563 1.475.184 1.061.37 2.122.519 3.19.01.076.025.152.042.226.05.225.126.288.352.291.085.001.17-.013.256-.012.029 0 .057.026.1.047-.052.054-.09.098-.133.138-.264.243-.372.542-.336.9.017.17.054.337.107.5l.472 1.438c.007.024.013.05.023.073.104.254.279.351.55.299.21-.04.42-.086.629-.133.635-.141 1.272-.272 1.917-.358.132-.018.248-.063.34-.162.055-.058.067-.12.018-.185-.057-.074-.12-.146-.193-.204-.206-.167-.42-.325-.627-.49-.144-.113-.292-.222-.392-.39.036.018.073.032.108.052.282.161.563.324.847.483.058.033.123.064.188.07.194.02.288-.066.291-.263.002-.137 0-.274-.015-.41-.04-.367-.039-.734-.03-1.102.002-.034.004-.068.004-.103-.003-.3-.116-.422-.411-.442-.094-.006-.188-.013-.282-.014-.274-.002-.548-.005-.822.001-.302.008-.594.07-.879.172-.08.029-.163.05-.258.08l.008.147c-.016 0-.034.006-.04 0-.264-.274-.48-.583-.643-.924-.398-.833-.788-1.67-1.18-2.506-.026-.054-.047-.11-.074-.164-.235-.474-.348-.98-.404-1.503-.02-.194-.046-.389-.072-.597.215-.08.427-.116.656-.118.061.271.09.534.129.795.074.516.15 1.032.271 1.54.14.577.377 1.117.637 1.648.086.177.172.354.26.53.132.265.323.359.61.29.724-.173 1.44-.374 2.154-.586.198-.059.303-.177.35-.366.064-.257.045-.51-.048-.756-.079-.208-.17-.41-.254-.616-.287-.705-.574-1.41-.858-2.116-.12-.297-.137-.363-.132-.652l.003-.138.11-.066c.028.011.049.013.059.024.195.208.354.438.463.703.147.355.298.71.45 1.063.04.094.079.19.134.276.092.143.233.173.378.086.058-.035.11-.081.159-.128.235-.225.47-.45.701-.679.652-.648 1.376-1.208 2.142-1.714.085-.056.175-.109.27-.148.183-.076.306-.035.419.131.043.063.08.132.11.203l.293.711c.046.11.089.224.152.324.122.19.304.247.514.178.152-.05.244-.155.265-.315.007-.059.01-.12.006-.179-.014-.24.02-.477.061-.713.035-.193.063-.386.093-.568.078-.046.13-.018.188.02zm72.606-.08c.01.043.025.09.03.138.005.068.001.136.001.205v20.741c0 .282-.004.564.01.845.073 1.53.48 2.97 1.234 4.3 1.42 2.51 3.537 4.134 6.324 4.88.663.176 1.343.263 2.03.293 1.712.073 3.336-.27 4.871-1.022.977-.478 1.85-1.105 2.623-1.871 1.081-1.073 1.88-2.324 2.396-3.755.282-.784.467-1.591.533-2.423.027-.34.046-.682.046-1.024l.002-10.473V31.587c.058-.014.104-.032.152-.037.068-.006.137-.002.205-.002h4.704c.101 0 .203.005.32.008.01.058.023.105.026.153.004.077.002.154.002.231 0 7.025.01 14.05-.004 21.075-.008 3.573-1.147 6.766-3.368 9.567-1.448 1.826-3.233 3.241-5.33 4.263-1.276.621-2.616 1.052-4.015 1.3-.87.156-1.748.235-2.63.244-.712.007-1.42-.046-2.126-.137-1.758-.227-3.424-.747-5-1.551-1.454-.742-2.757-1.69-3.907-2.847-1.892-1.903-3.207-4.144-3.939-6.724-.252-.89-.419-1.797-.502-2.72-.05-.562-.075-1.126-.075-1.69V31.57c.076-.01.116-.019.157-.02.617-.025 5.01-.008 5.23.02zm-45.746.016c.111.232.199.462.169.733-.028.245-.017.495-.025.743-.015.444-.033.888-.048 1.333-.017.522.042 1.042.073 1.562.025.43.01.855-.105 1.272-.104.38-.204.76-.34 1.13-.053.141-.076.298-.086.45-.064.972-.12 1.946-.18 2.918-.037.59-.069 1.179-.037 1.769.018.35.05.7.078 1.049.009.12.019.238.03.358.009.097-.011.18-.077.26-.26.315-.326.693-.31 1.084.03.693.048 1.383-.01 2.075-.054.63-.084 1.263-.126 1.894-.007.111-.016.222-.035.331-.03.172-.03.339.014.509.023.09.023.186.03.28.017.215-.067.395-.245.504-.178.109-.231.266-.254.45-.021.177-.037.356-.052.535-.063.741-.135 1.482-.183 2.224-.033.503-.029 1.009-.045 1.513-.018.538-.067 1.075-.128 1.61-.123 1.071-.321 2.13-.512 3.19-.058.32-.068.647-.07.972-.003.641-.004 1.283 0 1.925.004.419.022.837.03 1.256.001.128-.008.256-.014.384-.004.111-.012.222-.016.333-.01.224.05.427.214.584.087.084.107.175.07.278-.122.338-.25.673-.376 1.01-.035.094-.102.153-.193.192-.099.044-.194.06-.296.007-.136-.071-.278-.132-.411-.207-.095-.053-.137-.14-.148-.254-.094-.927-.196-1.853-.287-2.781-.038-.383-.06-.767-.082-1.151-.015-.256-.018-.513-.022-.77-.007-.41.024-.82.064-1.228.03-.318-.016-.632-.054-.946-.045-.375-.05-.75.004-1.125.143-.981.284-1.963.422-2.945.082-.584.148-1.17.177-1.76.026-.504.052-1.008.14-1.506.015-.089.002-.166-.036-.248-.138-.29-.155-.593-.077-.901.048-.19.109-.378.165-.566.034-.115.07-.229.109-.342.1-.3.094-.607.056-.914-.01-.071-.057-.14-.094-.207-.09-.166-.168-.336-.184-.529-.018-.226.01-.444.113-.649.05-.099.097-.202.164-.29.153-.198.207-.427.242-.666.114-.804.233-1.608.345-2.412.109-.788.225-1.575.312-2.365.049-.433.042-.871.066-1.306.017-.307.035-.615.07-.92.06-.503.094-1.005.094-1.51 0-.79.076-1.571.247-2.343.058-.259.132-.513.24-.756.259-.58.36-1.194.374-1.822.013-.625-.03-1.248-.079-1.87-.013-.162-.023-.325-.031-.487-.004-.068-.001-.137.004-.205.017-.203.107-.364.302-.44.15-.06.266-.15.353-.296h.497zm93.78-.347c.954 0 1.898.09 2.827.31 2.063.485 3.865 1.456 5.41 2.905 1.008.947 1.82 2.042 2.442 3.276.514 1.022.872 2.098 1.065 3.227.087.506.14 1.015.164 1.529.087 1.925-.28 3.759-1.095 5.504-.566 1.212-1.324 2.293-2.264 3.247-1.15 1.169-2.488 2.059-4.008 2.674-.062.025-.121.057-.198.093l7.242 14.11c-.058.014-.096.028-.134.031-.06.005-.12.002-.18.002h-5.743c-.347-.633-.66-1.279-.992-1.915-.327-.63-.649-1.262-.972-1.894l-.983-1.918c-.327-.64-.656-1.278-.984-1.917l-.986-1.917-.973-1.894-.978-1.909-.035-.015c-.007-.003-.016-.007-.024-.007l-9.946-.006c-.068 0-.137.001-.205.004-.017 0-.033.008-.062.016-.008.043-.022.091-.025.14-.004.085-.001.171-.001.257l-.001 12.705c0 .111-.01.222-.015.332h-5.398c.002-.12.005-.24.005-.359V31.632c0-.118.002-.237.004-.369.062-.009.11-.019.158-.022l.077-.002h16.808zm15.373 33.788c-.214.159-.318.376-.318.64-.002.623-.001 1.247 0 1.87 0 .04.013.081.02.118.233.037 1.265.034 1.477-.005.004-.07.012-.145.013-.22v-1.716c0-.051.003-.103-.003-.153-.038-.295-.193-.509-.465-.628-.257-.112-.502-.072-.724.094zm4.273-7.857v.924c-.024.007-.05.01-.071.023-.69.396-1.378.793-2.066 1.19-.043.025-.08.061-.112.087-.03.634-.02 1.175.028 1.377.07.003.146.011.222.011h1.796c.068 0 .135-.012.203-.018v.821l-5.006-.002h-.318c-.01-.071-.025-.127-.025-.183-.002-.915-.001-1.83-.001-2.744 0-.676.558-1.283 1.157-1.434.89-.223 1.66.35 1.873 1.039.018.055.038.11.063.181.064-.033.116-.058.165-.087l1.932-1.116c.05-.029.107-.046.16-.07zM59.84 31.868c.05.037.031.09.028.138-.015.221-.035.443-.051.664-.027.375-.055.75-.077 1.126-.016.284.016.563.114.832.072.2.148.398.233.597l.22-.023c.013.02.031.039.039.062.022.064.031.134.06.195.015.03.062.043.106.071.098-.237.123-.46.078-.692-.022-.109-.047-.217-.068-.326-.028-.153.011-.287.12-.4.113-.115.235-.217.383-.287.043.08-.012.126-.03.18-.052.161-.125.318-.166.483-.072.287-.014.553.176.808.118-.116.133-.273.222-.38.054-.014.091.002.093.055.003.068-.002.137-.01.205-.032.288-.068.577-.098.866-.01.098-.053.158-.146.186-.066.02-.131.04-.194.066-.205.083-.248.153-.234.371.002.025.013.05.024.094.039-.023.077-.036.102-.062.064-.069.117-.149.184-.213.03-.028.086-.03.147-.049.005.054.015.087.01.117-.055.373-.126.74-.26 1.096-.068.183-.11.376-.159.566-.065.256-.053.515.04.758.087.234.045.451-.017.685-.08.027-.16.052-.25.083-.005.088-.011.171-.012.255-.007.607-.007 1.214-.023 1.821-.012.478-.047.956-.069 1.434-.003.074-.027.13-.082.179-.231.205-.332.47-.36.77-.006.069-.021.137-.02.204.008.475-.107.933-.186 1.396-.133.766-.26 1.533-.381 2.302-.057.365-.036.733.006 1.1.034.306.066.612.092.918.011.134.019.27-.053.412l-.108-.222c-.081-.011-.094.048-.097.094-.007.145-.006.29-.003.436.009.53.027 1.06.028 1.59 0 .607-.052 1.21-.187 1.806-.11.483-.192.973-.258 1.464-.126.932-.235 1.866-.347 2.8-.044.365-.08.73-.118 1.096l-.002.026c-.017.288-.156.478-.443.55-.14-.169-.16-.229-.14-.411.078-.749.15-1.498.236-2.245.065-.577.152-1.153.221-1.73.084-.704.172-1.408.235-2.115.06-.68.1-1.364.132-2.047.021-.435.01-.872.017-1.308.01-.616-.026-1.23-.077-1.844-.026-.308-.004-.615.052-.92.123-.673.303-1.333.465-1.997.07-.29.137-.582.196-.875.02-.1.02-.205.01-.306-.034-.323-.083-.644-.115-.967-.02-.195-.027-.393-.026-.589 0-.182.034-.236.207-.274.14-.03.202-.117.249-.23.089-.216.102-.45.119-.679.046-.639.08-1.279.118-1.919.055-.947.099-1.895.098-2.845 0-.492-.093-.968-.186-1.447-.12-.612-.235-1.225-.305-1.846-.033-.296.004-.578.098-.857l.155-.453c-.053-.01-.09-.022-.13-.026-.031-.004-.064-.001-.094-.001-.01-.07.233-.255.47-.372zM32.636 59.315v.549c-.173.008-.45-.068-.556-.15-.052-.04-.073-.093-.069-.157.003-.034.005-.069.016-.1.023-.063.053-.125.084-.196.174-.017.34-.004.525.054zm23.031-27.586c.18.172.216.383.23.596.003.063-.036.13-.063.192-.057.133-.122.263-.177.398-.102.25-.132.514-.112.78.018.243-.02.479-.054.715-.076.524-.161 1.048-.24 1.572-.099.65-.195 1.302-.291 1.953-.093.635-.192 1.268-.274 1.904-.048.373-.072.748-.1 1.123-.049.674-.14 1.344-.234 2.012-.158 1.11-.323 2.217-.475 3.327-.05.364-.07.732-.102 1.098-.013.155.012.307.062.454.056.162.115.322.169.484.067.2.095.402.023.605-.138.385-.15.786-.165 1.188-.024.632-.059 1.264-.085 1.896-.013.324-.024.65-.02.974 0 .117.027.24.072.349.094.228.184.461.372.637.053.05.045.074-.034.143l-.43-.398c-.091.05-.096.144-.133.216-.038.075-.068.155-.106.243-.039 0-.072.005-.103 0-.024-.005-.045-.021-.079-.038-.002-.065-.006-.132-.006-.199-.005-1.369-.01-2.737-.011-4.106 0-.342 0-.685.012-1.027.033-.905.07-1.81.174-2.711.065-.56.1-1.124.15-1.686.012-.142-.024-.273-.087-.396-.078-.152-.164-.299-.241-.44-.095-.035-.163-.008-.24.04l-.077.68c-.042.374-.081.748-.128 1.122-.103.808-.113 1.618-.058 2.431.026.383.019.77.007 1.154-.01.333-.043.665-.072.997-.07.828-.218 1.644-.396 2.455-.171.777-.399 1.539-.61 2.305-.112.413-.211.829-.256 1.255-.017.17-.042.341-.035.51.02.544-.063 1.075-.174 1.604-.008.041-.023.083-.027.125-.02.216-.108.393-.3.523-.074.028-.137-.025-.209-.06-.006-.022-.02-.046-.018-.07.02-.195.042-.39.068-.585.152-1.17.321-2.338.563-3.494.232-1.113.457-2.227.741-3.329.028-.107.047-.216.072-.331-.157-.209-.157-.209-.335-.227l.001-.996c0-.022.021-.044.043-.084.027.03.059.047.064.071.016.075.02.153.032.228.013.074.03.147.05.245.193-.195.197-.401.127-.611-.04-.12-.114-.228-.175-.34-.036-.068-.08-.132-.11-.202-.063-.14-.063-.275.02-.416.187-.316.255-.67.283-1.03.051-.648.149-1.291.238-1.934l.281-1.981c.08-.559.163-1.117.237-1.676.082-.62.156-1.239.232-1.858.072-.595.105-1.192.115-1.791.014-.807-.04-1.605-.206-2.395-.059-.279-.167-.539-.28-.798l-.874-2.025c-.02-.047-.037-.095-.052-.136.023-.089.088-.107.168-.122.02.019.05.038.068.064l.783 1.112c.04.056.076.116.124.163.025.023.073.022.13.037.074-.59.069-1.168.134-1.744.225.089.338.211.401.413.05.16.043.32.03.483-.014.162-.024.324-.027.486-.001.065.02.131.029.189.073.023.09-.026.111-.056.26-.362.517-.725.776-1.087.034-.049.068-.098.105-.146.046-.06.088-.072.126-.04.053.045.028.091.002.137-.025.045-.05.09-.077.133-.119.198-.234.399-.358.593-.429.669-.603 1.409-.62 2.193l-.001.667c-.004.17-.018.341-.026.512-.01.196-.024.392-.028.588-.004.238.071.454.206.65.02.027.037.056.04.06-.048.259-.095.492-.133.726-.117.735-.23 1.47-.347 2.204-.104.653-.133 1.31-.116 1.97.005.176.053.336.14.487.032.055.062.106.135.095.06-.01.076-.06.087-.112.045-.218.106-.433.134-.653.098-.772.183-1.545.275-2.318.077-.645.157-1.29.235-1.935l.221-1.86.241-1.986c.035-.288.066-.577.11-.865.051-.337.109-.675.175-1.01.062-.313.049-.63.079-.945l.01-.134c.152-.087.32-.116.474-.183zm-18.058.415c.07.027.061.074.062.114.001.257-.005.514.003.77.004.145.02.29.048.432.049.245.175.448.392.578.285.172.577.334.867.5.014.007.033.007.06.014.096-.191.135-.402.167-.61.047-.312.077-.627.107-.942.023-.244.088-.47.243-.664.038-.048.067-.103.141-.086.077.018.111.07.126.145.034.167.07.334.109.5.019.083.044.163.067.248.18.035.312-.036.426-.145.08-.076.142-.17.216-.253.092-.101.18-.208.285-.293.129-.106.283-.152.449-.122.029.072-.023.102-.053.14-.269.321-.54.641-.806.965-.097.12-.19.243-.274.372-.14.211-.206.443-.21.7-.018 1.172-.045 2.343-.069 3.514-.013.643-.1 1.276-.204 1.91-.113.687-.124 1.378-.01 2.069.077.474.112.952.025 1.43-.034.184-.077.368-.132.547-.067.215-.113.433-.118.655-.011.515-.1 1.02-.19 1.525-.099.556-.186 1.113-.214 1.678-.04.774.024 1.537.211 2.29.073.29.13.585.202.875.069.273.058.54-.017.81-.168.602-.294 1.213-.387 1.83-.07.466-.111.935-.108 1.406.003.298.042.596.063.894.024.333.052.665.065.998.004.135-.016.274-.047.406-.049.203-.176.298-.386.316-.177.015-.407-.025-.638-.112-.002-.045-.008-.094-.006-.144.016-.427.014-.854-.03-1.281-.033-.331-.051-.665-.062-.998-.02-.643.088-1.26.413-1.847-.078-.033-.146-.059-.212-.09-.172-.081-.232-.177-.207-.367.014-.1.05-.199.083-.295.152-.427.29-.858.354-1.31.064-.453.06-.904-.04-1.351-.023-.107-.068-.211-.113-.312-.04-.087-.064-.174-.064-.27.003-.454.001-.908.002-1.361 0-.05.01-.1.015-.145.063-.037.115-.035.117.037.002.084-.018.17-.026.254-.008.092-.045.184.002.273.057.023.088-.006.099-.051.049-.208.102-.415.138-.625.025-.151.025-.307.034-.46.003-.042.001-.085 0-.128-.006-.505-.022-1.01-.017-1.513.006-.77.045-1.538.16-2.301.075-.499.155-.997.216-1.498.059-.484.073-.97-.026-1.454-.067-.33-.166-.648-.341-.935-.094-.154-.106-.302-.054-.465.005-.017.008-.034.015-.05.103-.225.081-.427-.111-.598-.005-.004-.002-.016-.003-.028.036-.05.088-.024.133-.02.06.003.118.019.178.027.05.007.102.013.153.015.05.003.1 0 .16 0 .007-.049.019-.09.019-.13 0-.728-.003-1.455.002-2.182.002-.322-.098-.604-.29-.857-.314-.41-.696-.73-1.185-.91-.024-.009-.049-.014-.074-.02-.008-.002-.017 0-.04 0-.015.062-.037.125-.044.19-.058.561-.127 1.12-.12 1.687.01.71-.006 1.42-.003 2.13.002.625.028 1.248.099 1.87.055.485.174.958.284 1.432.099.425.202.849.255 1.283.056.458.082.917.053 1.38-.037.627-.152 1.238-.32 1.84-.148.529-.232 1.07-.314 1.611-.079.516-.155 1.031-.232 1.547-.06.397-.122.794-.179 1.192-.03.211-.146.36-.32.472-.01.008-.03.001-.054.001-.007-.02-.022-.043-.022-.065.001-.154-.006-.309.01-.461.087-.86.229-1.711.367-2.564.15-.928.295-1.858.359-2.797.047-.71.054-1.419-.018-2.127-.085-.834-.173-1.667-.257-2.5-.024-.239-.04-.478-.054-.716-.057-.896-.11-1.792-.122-2.69-.01-.646.073-1.279.22-1.906.047-.2.07-.404.116-.604.079-.346.003-.655-.177-.956-.18-.3-.335-.616-.5-.925.058-.088.11-.11.17-.067.091.064.176.136.264.205l.315.246c.036-.066.068-.115.09-.167.069-.157.132-.316.201-.472.015-.033.049-.059.07-.083zm19.88 21.413c.011.023.026.038.025.052-.003.068-.006.136-.016.203-.044.284-.09.568-.138.868-.15-.01-.276-.046-.395-.103-.032-.214-.032-.652.002-.881.129-.04.265-.083.403-.123.039-.011.081-.011.119-.016zm111.449-4.586c1.04.088 1.755.647 2.23 1.546.085.159.15.326.166.509.003.04.029.078.045.117v1.026c-.012.023-.032.044-.036.068-.112.682-.502 1.186-1.03 1.595-.396.305-.848.465-1.348.513-1.53.15-2.625-1-2.861-2.001-.262-1.113.076-2.135 1.028-2.86.533-.406 1.139-.57 1.806-.513zM59.937 53.075c.13.05.207.152.298.232.087.077.187.143.273.278-.261.048-.486.112-.733.124-.019-.128.041-.225.065-.328.022-.098.06-.193.097-.306zM168.73 49.74c-1.034-.004-1.922.876-1.935 1.896-.013 1.023.864 1.946 1.915 1.939 1.045.006 1.918-.852 1.933-1.893.016-1.07-.906-1.938-1.913-1.942zM57.88 53.125c.065-.003.09.041.054.103-.221.038-.538.036-.738-.006.018-.02.032-.05.049-.052.212-.018.423-.036.636-.045zM71.056 36.89c-.049.004-.096.019-.14.028-.03.222-.049 11.864-.021 12.535.001.041.012.082.019.127.11.032.212.02.312.02h11.693c.498 0 .99-.062 1.475-.18 1.167-.286 2.185-.846 3.02-1.71 1.456-1.503 2.057-3.303 1.773-5.375-.219-1.593-.976-2.905-2.199-3.943-.937-.794-2.022-1.266-3.242-1.433-.46-.063-.922-.067-1.383-.067-3.7-.007-7.401-.004-11.102-.004-.068 0-.137-.003-.205.002zm69.237-.25c-.048.002-.096.012-.146.019-.008.049-.018.082-.018.115l.003 12.474c0 .024.014.047.032.105h11.548c.462 0 .923-.008 1.382-.08 1.485-.233 2.741-.899 3.746-2.012 1.193-1.322 1.735-2.882 1.639-4.661-.032-.594-.152-1.17-.353-1.728-.338-.942-.87-1.759-1.594-2.452-.95-.907-2.075-1.464-3.37-1.684-.508-.086-1.022-.096-1.535-.096-3.718-.003-7.436-.002-11.154-.002-.06 0-.12-.002-.18.001zm25.992 7.108l1.207-.001h1.206c.351 0 .702-.002 1.053 0 .128.002.258 0 .384.02.508.08.878.36 1.124.805.052.096.081.204.12.307v.821c-.01.013-.026.024-.03.04-.21.64-.774 1.06-1.44 1.07-.015.001-.03-.011-.045-.018-.039-.18-.043-.471-.01-.75.05-.01.106-.023.162-.036.276-.064.485-.214.584-.486.156-.43-.143-.859-.508-.945-.123-.029-.254-.035-.381-.035l-1.67-.002h-1.968c-.053-.18-.06-.384-.03-.754.071-.062.16-.036.242-.036zm-105.892.688c.102.152.064.358.168.521.108-.092.132-.233.238-.306.02.02.038.03.04.043.02.126.04.253.056.38.009.075-.03.134-.09.174-.07.047-.143.092-.22.129-.115.054-.234.1-.34.145-.023-.01-.032-.01-.037-.016-.005-.006-.01-.016-.01-.023.019-.16.036-.322.058-.483.025-.185.055-.37.082-.554l.055-.01zm-42.164.244c-.016.062-.076.078-.131.1.025-.04.05-.08.093-.095l.038-.005zm.017-.01l-.006.01h-.01l.004-.007.012-.003zm.072-.093c.009.07-.022.084-.057.091l-.015.002.03-.037.042-.056zm.584-.248l.018.004.01.003-.001.002-.01.004c-.006 0-.011-.009-.017-.013zm.358-.136l-.323.145-.007-.002.008-.004.02-.025c.013-.018.026-.035.043-.043.081-.036.166-.064.259-.07zm4.8-1.5c-.495.05-.996.1-1.497.152-.034.004-.068.012-.1.022-.13.043-.2.147-.164.277.093.345.21.682.347 1.051.06-.05.095-.073.125-.102l.752-.699.525-.49c.064-.06.088-.121.013-.21zm-5.205-6.034l-.053.056c-.539.62-1.078 1.238-1.568 1.898-.066.089-.129.181-.181.279-.132.246-.198.506-.169.788.03.306.048.614.084.92.077.644.164 1.287.243 1.931.018.149.038.206.235.184.136-.015.241-.088.31-.204.04-.065.072-.138.09-.211.092-.384.336-.645.665-.84.177-.104.357-.203.527-.317.135-.09.264-.19.38-.302.178-.17.282-.374.308-.612l.006-.12v-1.155h.014c-.008-.358-.011-.717-.025-1.076-.01-.3-.045-.597-.154-.88-.04-.102-.084-.208-.15-.294-.166-.215-.36-.251-.562-.045zm11.39 3.09c-.161.01-.323.026-.484.047-.303.04-.607.085-.897.126-.085.096-.085.176-.016.264.391.496.78.995 1.17 1.49.042.053.092.104.147.14.186.124.35.057.41-.16.006-.025.009-.05.013-.075.085-.473.098-.95.093-1.428 0-.106-.038-.2-.113-.277-.088-.091-.197-.136-.323-.128zm10.71-1.359c-.003.05-.001.1-.011.147-.197.925-.395 1.85-.594 2.774-.009.042-.013.085-.03.124-.008.018-.04.036-.06.035-.02-.001-.05-.022-.057-.04-.013-.04-.019-.083-.019-.124.002-.861.008-1.723.006-2.584 0-.14.059-.223.173-.284.187-.1.375-.162.593-.048zm130.425-.648v3.44c-.077.002-.154.005-.231.005h-5.092c-.011-.053-.026-.093-.026-.132V37.9c0-.034.007-.068.012-.105.124-.06.254-.03.379-.034.118-.004.237.003.35.004.07.09.046.178.047.26l.001 2.051c0 .093.003.186.005.284.16.069.315.03.465.036.163.007.326.006.488 0 .152-.004.306.026.461-.025.04-.216.015-.43.02-.642.004-.205 0-.41 0-.615v-.635c.133-.084.264-.047.388-.05.127-.003.256-.017.397.021.006.068.017.134.017.199.002.487 0 .974.001 1.462 0 .084.003.168.005.257.183.054.354.023.522.029.163.005.325.002.488 0 .17 0 .34-.003.508-.005.056-.103.038-.198.038-.289l.002-2.026c0-.092.003-.185.005-.29.073-.01.13-.023.187-.026.188-.009.375-.014.563-.02zM22.918 38.878c.007 0 .018.002.023.008.192.195.385.389.574.586.118.122.229.25.343.375l-.037.035c-.397-.246-.727-.556-.932-.986.016-.01.022-.017.029-.018zm7.432-3.707c-.153.025-.251.12-.35.214-.404.378-.719.824-.989 1.302-.147.26-.282.527-.422.79l-.567 1.064c-.115.215-.092.343.103.485.081.06.175.106.27.142.299.114.612.158.93.163.282.004.564.005.847.008.12.002.239.015.358.012.258-.008.375-.112.409-.366.019-.144.029-.29.029-.434.002-.7.015-1.4.146-2.092.054-.284-.023-.546-.209-.766-.165-.196-.357-.366-.555-.522zm-1.564-2.24c-.256.28-.544.518-.845.746-.252.19-.5.385-.743.588-.23.194-.436.414-.573.685-.177.35-.34.706-.507 1.057.078.178.144.344.221.505.074.154.154.305.24.452.042.073.099.14.16.198.195.182.41.202.63.053.084-.056.158-.13.23-.203.19-.195.375-.397.568-.591.56-.567 1.053-1.19 1.538-1.819.097-.126.125-.263.082-.41-.12-.401-.25-.799-.431-1.177-.149-.312-.335-.339-.57-.083zm137.989-1.339c.064.051.042.125.042.19l.002 1.154c0 .084.007.168.01.258.1.042.195.027.287.027h3.723l.54.003v.821c-.086-.004-.17-.012-.256-.012h-4.274c-.012.072-.028.127-.029.183l-.002 1.155c0 .083-.007.167-.011.264-.257.036-.5.02-.754.014-.01-.054-.023-.095-.023-.135v-3.796c0-.033.005-.067.009-.098.165-.052.363-.059.736-.028z"/>
</svg>
