<svg xmlns="http://www.w3.org/2000/svg" width="184" height="100" viewBox="0 0 184 100">
    <path fill-rule="evenodd" d="M108.85 82.166c-.638.262-1.359.405-2.05.441-1.315.068-2.636.01-3.953.027-.35.004-.46-.099-.459-.454.01-5.588.009-11.176.003-16.764 0-.275.062-.408.365-.402 1.02.021 2.043-.005 3.063.04 1.472.066 2.614.9 2.851 2.158.383 2.033-.57 3.69-2.838 3.659-.516-.008-1.033-.001-1.58-.001v4.613c.537 0 1.063-.008 1.589.002.694.012 1.395-.015 2.082.068 1.712.205 2.782 1.23 3.02 2.815.257 1.722-.477 3.133-2.092 3.798M62.264 70.479c2.762.891 4.313 2.88 5.002 5.628.282 1.125.347 2.265.306 3.46l-.02.451H55.596c-.122 1.357.86 2.833 2.254 3.374 1.644.64 3.471.481 5.046-1.801l4.15 2.06c-1.153 1.704-2.567 3.012-4.512 3.62-2.895.905-5.734.67-8.403-.757-2.358-1.26-3.492-3.422-3.89-5.983-.32-2.067.013-4.068.9-5.962 1.186-2.533 3.234-3.93 5.949-4.384 1.74-.291 3.48-.252 5.173.294zm25.873-11.145v27.87h-5.119V85.18c-.6.435-1.118.872-1.692 1.214-4.06 2.423-9.677.764-11.202-4.18-.799-2.59-.863-5.206.273-7.719 1.18-2.611 3.328-3.997 6.12-4.398 2.182-.314 4.09.473 5.9 1.589l.39.238.125.077V59.334h5.205zm13.654 1.077l4.311.004c1.672.005 3.303.234 4.791 1.06 1.943 1.078 3.08 2.716 3.318 4.941.253 2.378-.533 4.388-2.2 6.074-.04.04-.073.088-.13.159.513.262 1.016.496 1.498.769 1.53.863 2.487 2.16 2.831 3.885.314 1.572.381 3.151-.051 4.713-.53 1.915-1.772 3.246-3.522 4.12-1.564.783-3.237 1.094-4.978 1.092l-5.042-.001H96.994V60.44c.17-.01.328-.025.485-.025l4.312-.003zm41.217-1.072v27.864h-5.096V59.339h5.096zm8.494-.03c.077.001.155.005.243.01l.138.008v27.866h-5.042V59.309h4.66zM75.264 77.556c-.09.71-.145 1.444-.066 2.15.16 1.414.84 2.508 2.249 3.019 2.862 1.038 5.696-.956 5.702-4.734-.007-.967-.68-2.246-2.222-3.057-2.737-1.441-5.385.442-5.663 2.622zm-16.352-3.853c-1.599.016-2.9 1.197-3.214 2.932l-.032.203h6.615c-.292-2.01-1.562-3.153-3.37-3.135zm98.832-14.77c1.797-.02 3.25 1.441 3.249 3.265-.001 1.795-1.447 3.237-3.242 3.233-1.762-.004-3.214-1.48-3.217-3.27-.004-1.743 1.456-3.211 3.21-3.229zm.028.439c-1.567-.007-2.76 1.185-2.772 2.77-.082 1.727 1.297 2.82 2.732 2.859 1.527.04 2.821-1.206 2.836-2.686.018-1.706-1.15-2.935-2.796-2.943zm-1.176.891c.53.035 1.054.05 1.572.112.389.047.65.309.72.688.071.395-.02.764-.393 1.004-.061.039-.12.082-.172.118l.823 1.859c-.388.162-.577.037-.692-.312-.097-.294-.243-.572-.372-.854-.236-.516-.322-.556-.986-.43v1.637h-.5zm.933.443c-.508-.032-.447.283-.434.64.09.183-.24.63.345.612.598-.018.93-.233.931-.64.002-.41-.274-.575-.842-.612zM110.113 28.8l-.017.029-.094.15c-.24.405-.423.829-.554 1.27-.115.386-.191.785-.234 1.196-.002.021-.005.043-.01.064l-.013.063c-.01.043-.022.085-.031.127-.07-.219-.131-.438-.181-.657-.034-.146-.062-.291-.084-.437-.01-.073-.02-.145-.027-.218-.022-.217-.029-.434-.016-.65.005-.072.011-.144.02-.216.045-.358.149-.713.33-1.064.036-.07.075-.14.118-.209l.02-.036.008-.013.015-.028.008-.015.018-.035.021-.04c.001 0 .002-.001.002-.003l.022-.04.007-.011.017-.028.008-.013.017-.025.009-.012.022-.03c.002 0 .003-.003.004-.004l.029-.03.008-.007.022-.017.011-.007.022-.013.012-.005.029-.01.007-.001c.012-.002.025-.003.038-.003h.01l.031.005.015.004.032.011.014.006c.016.007.032.016.049.026l.021.017c.015.011.029.023.042.037.013.014.024.03.036.046l.03.049.031.061.024.06c.01.023.018.047.026.072l.02.063.031.103c.02.069.04.137.061.2.003.007.005.016.006.026.002.038-.01.084-.03.129-.01.022-.02.043-.032.063m-9.545 7.457c.094-.115.186-.23.276-.347.272-.35.535-.708.804-1.06l.053-.063.017-.018.037-.038.022-.02.033-.028.025-.017c.01-.008.021-.016.032-.022.008-.006.017-.01.025-.015l.032-.017.025-.01c.01-.005.021-.01.031-.013l.027-.007.03-.007.027-.003.03-.003h.028l.025.003c.01 0 .019.003.028.005l.024.005.028.01.023.01c.01.004.018.009.027.014l.022.013c.01.006.018.013.027.02l.02.016c.01.008.019.017.027.026l.019.019c.01.01.019.023.028.035l.014.018c.014.02.027.04.04.063.08.14.156.28.23.423.062.116.122.233.182.352.089.177.177.356.266.54.134.275.27.558.416.851-.102-.001-.192-.014-.273-.035-.203-.053-.345-.16-.46-.29-.024-.026-.046-.053-.067-.08-.043-.055-.082-.113-.12-.171-.039-.058-.076-.117-.115-.174-.077-.114-.158-.223-.262-.308-.069.073-.14.144-.212.215l-.144.142-.145.141c-.071.071-.142.142-.21.215-.092.096-.18.194-.259.297-.04.05-.078.103-.114.156-.054.08-.102.162-.145.247l-.04.087c-.05.117-.09.24-.112.372-.012.066-.02.134-.023.204-.002.035-.002.07-.002.106.001.109.013.222.035.342.015.08.035.162.06.247l-.163.022c-.14-.126-.318-.23-.415-.383-.066-.104-.115-.225-.15-.355-.045-.174-.063-.365-.057-.559.003-.096.013-.194.028-.29.054-.336.18-.657.365-.883m3.172 6.454l-.002.024-.005.019-.006.021-.007.016-.01.019-.011.014-.014.016-.014.012-.018.013-.017.01-.022.01-.02.008-.027.008c-.007.002-.014.005-.022.006-.01.003-.021.004-.032.006l-.025.004-.038.004-.027.002-.046.002h-.027l-.08-.001c-.14-.006-.267-.02-.382-.04-.153-.03-.284-.072-.393-.13-.137-.072-.24-.168-.312-.287-.014-.024-.027-.049-.04-.075-.035-.077-.059-.163-.072-.259-.004-.028-.006-.056-.008-.083v-.08-.024l.007-.057.001-.014c.004-.023.01-.044.015-.065l.005-.015c.005-.015.01-.03.017-.044l.008-.018.02-.039.009-.013c.01-.016.022-.031.035-.045l.005-.005c.01-.012.023-.023.035-.033l.014-.01c.01-.008.022-.016.034-.022l.015-.01c.014-.007.03-.013.045-.019.003 0 .005-.002.007-.003.019-.006.038-.011.058-.015l.017-.003.045-.005h.065c.01 0 .02 0 .03.002l.045.006.03.005.054.012.027.007c.027.008.055.018.083.029.299.116.55.28.727.53.059.083.11.175.15.278l.001.004c.01.024.019.047.026.07l.008.023.014.045.006.025.01.036c0 .009.002.017.003.025l.005.032.002.022v.048m36.918-20.525c.727 1.504-.377 3.381-2.132 3.636-.336.049-.678.054-1.016.088-.402.041-.757.168-.917.585-.144.376.079.638.328.848.347.292.747.521 1.091.817.455.39.95.765 1.296 1.242.662.912.945 1.986.847 3.108-.147 1.69-1.324 2.85-3.075 3.007-.846.075-1.707-.021-2.561-.044-.174-.005-.347-.03-.496-.043-.081.699-.11 1.38-.252 2.037-.124.57-.337 1.132-.582 1.664-.355.77-.169 1.34.506 1.61.217.086.415.23.609.364.36.251.75.315 1.181.26.787-.104.826-.034 1.166.66.33.673.707 1.328 1.139 1.938.2.283.584.43.87.657.314.25.615.518.917.783.185.162.337.417.549.483.48.148.689.486.802.916.08.309.116.63.171.941-.51.07-.959.149-1.411.19-.497.045-.89-.131-1.15-.59-.151-.268-.342-.519-.546-.75-.317-.361-.657-.586-1.173-.504l-.319.066c-.69.112-1.307-.157-1.843-.672-.933-.895-2.037-1.236-3.335-.994-.992.184-1.987.27-2.904-.371-.368-.258-.84-.363-1.237-.588-.23-.13-.466-.328-.587-.555-.234-.437-.388-.917-.59-1.416.426-.053.784-.094 1.103.34 1.031 1.405 2.435 1.97 4.159 1.677 1.92-.328 3.524.237 4.864 1.635.13.136.316.216.494.306l.13.07.15-.21c-.364-.377-.7-.787-1.097-1.125-1.129-.962-2.446-1.414-3.933-1.342-2.107.102-4.205-1.151-5.092-3.07-.08-.175-.05-.401-.073-.604-.098-.861-.175-1.726-.31-2.58-.03-.184-.274-.332-.418-.496-.048.21-.135.419-.136.629-.004.767.06 1.535.026 2.3-.049 1.078-.718 1.456-1.9 1.38-.794-.053-1.587-.228-2.378-.214-.792.014-1.578.225-2.372.29-.613.051-1.233.01-1.893.01.077-.254.163-.485.214-.723.043-.201.097-.424.05-.613-.045-.175-.218-.318-.335-.475-.11.121-.265.225-.326.368-.505 1.186-1.248 2.117-2.475 2.648-.997.431-1.393 1.317-1.47 2.354-.008.119.12.313.233.364.726.328 1.453.66 2.203.92.537.186.831-.019 1.124-.512.307-.519.657-1.014 1.01-1.504.263-.365.639-.497 1.091-.443.411.05.827.058 1.238.11.395.049.475.243.257.576-.275.421-.537.853-.845 1.248-.105.134-.356.264-.504.231-.47-.104-.737.114-.953.467-.192.312-.336.66-.558.947-.464.598-1.123.755-1.824.463-1.158-.482-2.305-.99-3.47-1.456-.273-.109-.602-.145-.897-.119-.55.049-.984-.046-1.27-.577-.196-.363-.46-.689-.678-1.041-.366-.593-.291-1.194.07-1.784.33-.538.576-1.13.829-1.71.306-.702.565-.839 1.376-.602l-1.21 2.32c-.56 1.07.001 2.509 1.16 2.863-.018-.113-.02-.206-.05-.29-.104-.308-.248-.604-.32-.918-.119-.513-.097-.983.239-1.469.535-.774.973-1.616 1.437-2.437.158-.279.043-.493-.256-.584-.324-.099-.654-.185-.985-.259-.21-.047-.396-.124-.558-.225l-.117-.08-.051-.042-.05-.042-.007-.007-.046-.044-.046-.047c-.063-.067-.119-.138-.17-.214v-.001c-.024-.035-.046-.07-.067-.107l-.015-.028-.023-.043-.04-.08-.04-.09-.014-.036c-.017-.042-.032-.084-.047-.128-.28-.85-.508-1.717-.748-2.542-.07.115-.13.24-.178.375-.317.882-.13 2.142.605 3.292l.145.214c-.042.013-.083.026-.124.037l-.02.005-.02.005-.082.02-.024.006-.024.005-.075.015-.05.008-.072.011-.052.007-.07.007-.051.005-.073.004-.024.002h-.024l-.077.003h-.074l-.144-.004-.04-.002-.165-.012-.026-.002c-.048-.005-.096-.01-.144-.017l-.041-.005-.163-.025-.013-.002-.012-.002-.145-.025-.042-.008-.162-.032-.029-.006-.07-.015-.098-.02-.029-.007-.113-.024-.103-.023-.103-.022-.029-.006-.178-.038h-.002l-.165-.032-.019-.004-.018-.003-.173-.03c-.058-.01-.113-.018-.168-.025l-.04-.005-.087-.01-.086-.01-.17-.012-.043-.002-.086-.003-.087-.001-.13.002c.098.177.21.335.304.492.076.127.138.253.167.386.149.694.556 1.167 1.074 1.61.04.034.08.07.116.109.259.266.41.614.307 1.05-.195-.022-.38-.047-.564-.063l-.092-.007-.091-.006h-.007l-.007.002-.01.001-.007.002-.012.005-.005.002-.014.007-.006.003-.005.003-.016.01-.011.008-.022.015-.004.004-.005.003-.03.021-.019.013-.015.011-.034.022c-.002 0-.003.002-.005.003.03.04.06.081.088.122l.084.118.085.113.09.104.051.054.047.055.022.028c.023.03.044.058.064.087l.017.027c.02.032.04.064.057.096l.01.017c.222.426.182.891.005 1.369-.124.335-.373.524-.766.425l-.352-.09-.352-.092-.364-.093-.06-.015c-.126-.032-.252-.064-.378-.094l-.071-.017c-.101-.024-.203-.048-.304-.07l-.103-.024c-.125-.027-.25-.054-.376-.079l-.01-.002-.01-.002-.21-.04-.08-.014-.076-.013-.076-.013-.098-.016-.135-.021-.102-.014-.132-.019-.103-.011-.131-.015-.106-.01-.064-.005-.065-.005-.107-.006-.127-.007-.108-.002-.067-.001-.08-.001h-.067l-.072-.002-.037-.001-.072-.003-.035-.001-.074-.006-.069-.004-.073-.008-.033-.003-.033-.004-.073-.01-.065-.01-.071-.013-.065-.012-.07-.016-.031-.007-.032-.008-.07-.02c-.02-.005-.04-.01-.06-.017l-.07-.023-.059-.02-.034-.014-.034-.014-.058-.023-.034-.016-.033-.016-.056-.026-.034-.018-.033-.018-.055-.03-.033-.02-.034-.02-.051-.032-.07-.05-.023-.015-.023-.017-.079-.062-.035-.028c-.038-.032-.075-.065-.111-.1l-.078-.07-.024-.02-.048-.04-.028-.021-.02-.016-.021-.015-.029-.018-.037-.023-.028-.014-.017-.01-.018-.007-.027-.01-.033-.012-.014-.004-.013-.003-.032-.005-.027-.002H99.9l-.016.002-.028.005-.033.008-.027.01-.034.014-.028.014-.017.01-.017.01-.028.019-.037.027-.014.01-.014.012-.04.035-.028.024-.047.047-.024.023-.075.08c-.055.061-.112.12-.169.178l-.056.055-.118.113-.068.06c-.037.034-.074.066-.112.098l-.036.03-.036.029-.115.089-.073.054c-.04.03-.083.058-.125.086l-.066.044-.086.053-.086.051-.024.014-.1.054-.101.051-.067.03-.07.032-.072.03-.082.032c-.044.017-.088.034-.134.049-.029.01-.058.02-.087.028l-.137.04-.089.022-.074.017-.116.024-.04.008c-.066.011-.132.02-.199.029l-.039.005-.121.012-.123.008-.074.002c-.047.001-.094.003-.142.003h-.048l-.042-.001c-.08-.002-.162-.005-.245-.011l-.034-.003c-.087-.007-.176-.016-.266-.028l.09-.051c.15-.087.27-.154.382-.22l.108-.067.487-.308c.162-.104.32-.211.472-.328.208-.16.378-.342.52-.548.036-.051.07-.105.102-.16.096-.163.177-.342.246-.536.223-.63.62-1.199.918-1.806.034-.07.073-.159.104-.248l.027-.088c.008-.028.014-.056.02-.083l.005-.037.003-.035v-.035l-.005-.028c-.004-.018-.01-.032-.021-.043-.017-.018-.033-.033-.05-.046-.005-.005-.01-.008-.016-.012l-.017-.011-.017-.01-.018-.009-.033-.012-.017-.004c-.013-.003-.025-.004-.038-.005h-.01c-.018 0-.036.002-.053.006l-.014.004-.02.006-.02.008-.013.005c-.017.008-.033.017-.05.027l-.005.004-.042.03-.014.012c-.012.01-.025.02-.036.032l-.01.008-.042.043-.01.01-.032.036-.01.012-.036.042c-.45.546-.897 1.097-1.293 1.681-.037.055-.074.109-.112.161l-.038.05c-.026.034-.052.07-.079.103l-.048.06-.072.087-.054.06-.07.078-.03.03-.03.03-.07.07-.031.028-.032.028-.071.064-.067.054c-.024.019-.048.039-.073.057-.022.017-.046.033-.07.05l-.075.052-.073.044c-.026.016-.051.032-.078.047l-.076.04-.082.04-.079.034-.085.035-.082.028-.045.015-.044.013-.086.023-.093.022-.09.016c-.032.006-.064.011-.097.015l-.046.006-.047.004-.101.009-.097.003-.067.002h-.077c-.073-.003-.148-.012-.218-.03-.02-.005-.036-.016-.055-.032-.02-.015-.04-.034-.069-.054l.172-.096.168-.093c.11-.062.218-.124.322-.192.11-.072.218-.146.322-.223.45-.335.831-.73 1.052-1.293.14-.357.338-.676.573-.968.029-.037.059-.073.09-.108.213-.25.452-.48.706-.7.022-.019.044-.041.063-.065.02-.025.038-.051.055-.079l.033-.064.027-.066.017-.043.127-.41c.179-.578.357-1.156.508-1.742.087-.335.187-.67.285-1.005.058-.201.116-.403.17-.604.144-.538.259-1.078.281-1.62.06-1.452.578-2.663 1.433-3.736.39-.49.78-.977 1.18-1.456l.302-.358c.406-.474.823-.937 1.258-1.382.218-.223.44-.44.67-.653.341-.319.697-.624 1.068-.915.247-.193.502-.38.765-.558.32-.217.618-.469.909-.729l.144-.13.144-.131c.185-.17.378-.324.578-.46.133-.092.27-.176.408-.253.139-.077.28-.148.424-.212.432-.192.887-.326 1.36-.412l.225-.037.227-.03.052-.006.11-.011.11-.01.104-.007.105-.002h.023c.579.001 1.13.19 1.614.523 1.215.838 2.512 1.466 3.968 1.78 1.224.265 2.212.91 2.99 1.933.222.29.773.45 1.178.46 1.598.034 2.877.656 3.902 1.867.687.811 1.64 1.132 2.642 1.162 1.643.05 3.019.55 4.235 1.714 1.232 1.18 2.727 2.016 4.469 2.17 1.825.163 3.577-1.074 2.74-3.335-.205-.55-.568-1.077-.97-1.51-.58-.626-1.242-1.186-1.91-1.722-.71-.569-1.266-1.195-1.068-2.173.211-1.043.866-1.616 2.052-1.78 1.423-.195 2.71-.672 3.793-1.643zm2.111 23.61c.071.376.12.765.258 1.116.262.66.135.881-.628.887-.272.065-.364-.093-.425-.375-.096-.445-.252-.876-.382-1.314-.102-.343.161-.76.541-.858.35-.091.55.091.636.544zm-3.004-2.469l.062.009c.244.077.474.213.695.35.224.138.437.298.64.464.15.122.277.271.415.409-.17.152-.333.314-.514.453-.061.048-.167.038-.294.062-.106-.041-.277-.058-.369-.151-.327-.336-.641-.688-.93-1.057-.071-.091-.085-.31-.024-.399.064-.093.272-.166.38-.131zm-56.669-6.712c.26-.547.523-1.093.796-1.633.016-.033.033-.063.05-.091l.019-.028c.012-.018.023-.036.036-.052l.023-.028.034-.04.026-.024.034-.03.028-.021c.011-.008.023-.017.035-.023l.029-.016c.011-.006.023-.012.035-.016.01-.004.02-.008.03-.01.012-.004.024-.008.036-.01l.03-.006.037-.003h.034l.03.003.035.006.03.007.036.012.029.012.037.018.028.016.038.026c.009.006.018.012.027.02.013.01.026.02.039.032l.026.023c.014.013.028.028.042.044l.02.022c.022.023.043.049.063.076.266.355.536.707.808 1.057.09.117.18.235.272.35.143.182.243.445.295.731.009.048.016.096.022.144.017.145.023.292.015.435l-.001.016c-.008.129-.026.253-.056.369-.03.12-.073.23-.129.325-.008.014-.016.03-.025.043-.012.019-.026.037-.04.054-.025.03-.053.058-.082.084-.031.029-.064.056-.097.082-.05.04-.1.08-.146.123l-.171-.015c.023-.089.04-.174.052-.257.045-.308.02-.579-.055-.823-.02-.062-.042-.122-.067-.18-.025-.06-.053-.117-.084-.173-.015-.028-.03-.056-.047-.083-.033-.055-.069-.109-.106-.161l-.057-.078c-.118-.155-.252-.301-.393-.444l-.07-.071c-.167-.166-.34-.328-.507-.495-.103.084-.184.191-.26.305-.02.028-.038.057-.057.086-.205.318-.4.654-.915.673.029-.104.046-.196.07-.279.012-.036.024-.071.04-.104m-.343 6.034l.002-.022.006-.031.004-.023.009-.038.005-.022.017-.056.003-.009c.032-.1.073-.192.122-.274.097-.165.224-.295.373-.398.174-.12.378-.204.597-.263.023-.006.044-.01.065-.013l.018-.002.046-.004h.015c.023 0 .045.002.066.006l.012.003c.021.005.042.01.06.019h.003c.018.009.036.02.052.031l.01.007c.015.012.03.025.044.04l.008.01c.014.016.027.034.038.053v.001c.012.02.022.04.03.063l.006.013c.008.022.015.046.021.07l.003.015c.006.027.01.054.014.083.026.252-.027.465-.15.628-.045.06-.101.115-.166.16-.087.061-.19.108-.308.139l-.092.02-.13.022-.062.01-.255.039h-.06l-.039-.001-.039-.002-.034-.002-.035-.004-.03-.003-.03-.005-.027-.006-.026-.007-.022-.007-.022-.009c-.007-.003-.014-.005-.02-.009l-.018-.01-.016-.011-.014-.013-.013-.013-.01-.016-.01-.014-.007-.018-.007-.017-.004-.02c-.001-.007-.003-.012-.003-.019l-.001-.024v-.02l.001-.027M77.2 30.962c-.221-.666-.48-1.318-.717-1.979-.072-.201-.185-.423-.156-.616.008-.047.024-.093.048-.138.012-.022.025-.044.04-.066.071-.11.171-.216.245-.325.136.094.307.163.416.276.015.016.03.033.042.05.077.11.146.23.207.358.06.13.112.267.156.411.022.072.042.146.06.221.05.219.083.449.097.682.005.086.008.173.008.26 0 .161-.01.323-.029.482-.047.397-.153.782-.322 1.114-.03-.244-.02-.502-.095-.73m46.097 39.974v.517c0 2.846-.032 5.691.013 8.535.02 1.263.467 2.4 1.63 3.068 2.144 1.233 4.426-.19 4.53-2.736l.003-.184-.006-8.658v-.513h5.271c.006.115.016.216.016.316.001 3.336.037 6.673-.015 10.009-.024 1.55-.5 3-1.506 4.226-1.247 1.518-2.924 2.2-4.817 2.444-.183.024-.366.045-.55.065l-1.1.113h-.089c-.609-.057-1.219-.107-1.827-.172-1.904-.203-3.628-.815-4.976-2.246-1.069-1.134-1.66-2.526-1.7-4.048-.095-3.537-.069-7.077-.09-10.616 0-.018.007-.037.018-.066l.018-.054h5.177zM31 59.837c2.622.005 5.246-.045 7.866.03 2.145.063 4.261.368 6.206 1.398 2.03 1.077 3.17 2.803 3.59 5.006.321 1.683.358 3.39-.197 5.043-.888 2.644-2.85 4.042-5.487 4.618-.138.03-.274.065-.465.11l7.668 11.142c-.167.02-.274.042-.38.042-1.881.002-3.762-.005-5.642.008-.277.002-.42-.1-.56-.324-1.706-2.72-3.423-5.432-5.13-8.15-.083-.132-.16-.296-.16-.445-.01-1.972-.006-3.944-.003-5.916 0-.042.018-.084.03-.135.647-.042 1.298-.036 1.934-.132 2.719-.415 3.953-3.662 2.212-5.806-.566-.697-1.345-1.114-2.208-1.205-1.23-.129-2.474-.114-3.772-.163v22.29H31zm62.619-16.074l.471.34.018.015c.054.045.156.129.315.17.114.029.234.045.357.048l.093.001c.32 0 .623-.042.911-.128l.214-.073-.033.021c-.093.06-.195.118-.325.192l-.11.062-.121.07-1.58.917 1.81.24c.244.032.485.048.717.048 1.353 0 2.497-.534 3.498-1.634.034-.038.063-.068.087-.091l.072.065c.775.734 1.688.862 2.35.876l.14.001h.027c.613 0 1.252.11 1.74.206.395.077.796.174 1.193.275-3.33 2.716-7.582 4.346-12.213 4.346-4.605 0-8.832-1.61-12.154-4.298.326-.072.635-.173.933-.271.471-.156.917-.303 1.356-.303.075 0 .148.004.22.012.185.022.368.033.542.033.932 0 1.742-.315 2.411-.936l.026.029c1.017 1.137 2.174 1.69 3.536 1.69.16 0 .326-.009.494-.025l.252-.03 1.844-.256-1.627-.905c-.128-.07-.244-.134-.353-.192l-.264-.144c.326.145.652.215.991.215.203 0 .41-.026.62-.079l.209-.061 1.333-.446zM45.74 22.173c.966.853 2.07 1.286 3.248 1.557.33.075.67.095 1 .172.884.206 1.472.734 1.663 1.641.178.842-.15 1.486-.787 2.034-.852.733-1.712 1.464-2.49 2.272-.649.672-.918 1.547-.844 2.493.079.998.898 1.763 2.042 1.969 1.138.205 2.192-.12 3.146-.652.908-.505 1.759-1.14 2.555-1.813 1.046-.884 2.227-1.331 3.57-1.355.758-.014 1.466-.183 2.122-.533.316-.17.61-.418.85-.687 1.041-1.16 2.295-1.828 3.883-1.82.582.002 1.067-.19 1.431-.72.694-1.007 1.757-1.498 2.9-1.74 1.3-.276 2.472-.8 3.541-1.553.644-.453 1.307-.67 1.994-.688l.088-.003h.04l.024.002.077.002.076.003.064.005c.05.004.099.008.149.014l.054.006c.067.01.134.02.201.032l.034.006.17.036.065.016c.05.012.099.025.148.039l.062.017c.068.02.137.042.206.065l.346.125c.342.13.672.28.987.46l.14.083c.138.084.273.174.405.272.133.098.262.203.388.317.127.115.257.227.389.338.337.284.685.555 1.033.827.167.13.334.262.5.395.322.258.64.522.942.801l.296.286.274.274.273.276c.18.18.359.363.536.547l.266.278c.972 1.027 1.881 2.11 2.57 3.363.15.273.266.567.363.87.072.227.133.46.188.69l.054.231c.088.392.163.788.235 1.184.07.396.139.793.212 1.189.049.264.1.527.157.79.054.25.143.493.236.736l.112.293c.043.114.083.228.12.343.034.113.07.225.106.338.054.169.106.339.15.51.044.17.078.343.098.516.014.129.044.236.088.333.072.162.182.295.316.445.108.12.216.242.322.366.053.062.106.124.157.187.065.08.128.16.19.241.086.114.168.228.244.346.088.135.168.274.238.417.102.209.219.4.348.574.13.175.272.334.425.48.039.037.078.072.118.107.08.07.162.137.248.201.213.16.444.304.688.435l.058.031.054.029.025.013.053.028.04.022.078.04c-.05.017-.1.031-.148.044l-.033.009-.14.03c-.006 0-.012 0-.018.002-.042.007-.083.012-.124.016l-.03.002-.066.004-.065.002h-.033l-.073-.003c-.013 0-.025-.002-.038-.003l-.035-.003-.034-.004-.036-.004-.079-.013-.024-.004-.1-.023-.012-.004-.012-.004-.074-.022-.035-.011-.064-.024-.034-.013-.066-.028-.03-.013-.093-.046c-.23-.118-.44-.256-.631-.414-.32-.264-.592-.585-.823-.968-.135-.225-.29-.44-.455-.647-.055-.07-.112-.138-.169-.206-.229-.271-.47-.533-.706-.797-.012-.013-.026-.024-.042-.033-.11-.064-.315-.045-.466-.072.004.043.004.089.003.135-.002.139-.01.283.054.375.188.264.359.534.513.812.154.279.291.565.412.862.08.198.153.401.218.61.177.565.67.9 1.16 1.21l.208.133c.064.041.13.08.199.12.084.049.172.097.266.148.135.073.28.15.447.243-.092.013-.182.022-.271.03l-.039.003-.125.008-.124.004-.046.001-.056.001c-.045 0-.088-.002-.132-.004-.027 0-.055 0-.082-.002-.085-.004-.168-.01-.25-.02h-.003l-.12-.016-.118-.02-.077-.015c-.053-.011-.106-.022-.158-.035l-.087-.023c-.048-.014-.095-.027-.142-.042l-.087-.03c-.046-.015-.092-.033-.138-.05l-.081-.033c-.049-.02-.097-.043-.144-.065-.023-.01-.045-.02-.067-.032l-.103-.053-.102-.056-.1-.06-.098-.063-.063-.043c-.044-.03-.087-.06-.13-.092l-.072-.055c-.04-.03-.079-.061-.117-.093l-.072-.06c-.039-.033-.077-.067-.114-.101l-.068-.062-.12-.118-.056-.056c-.058-.059-.115-.12-.17-.183l-.064-.068-.01-.01-.03-.03-.02-.02-.012-.01-.011-.01-.036-.032-.012-.01-.012-.009-.033-.025-.024-.016-.032-.02-.023-.012-.033-.015-.022-.008-.018-.005-.027-.007-.01-.002-.022-.003-.023-.001h-.018c-.013 0-.027.001-.04.003l-.018.004-.032.008-.02.007-.032.012-.021.01c-.01.006-.022.011-.032.018l-.022.013-.034.023-.022.015-.039.03-.019.016c-.02.017-.04.035-.06.055-.041.039-.083.076-.125.112l-.04.034-.044.036-.044.034-.047.036-.085.06-.048.033c-.03.02-.06.039-.091.057l-.042.026-.067.038-.068.035-.013.006-.125.059-.047.019c-.03.013-.062.025-.094.037l-.053.019-.092.03-.053.016c-.034.01-.067.018-.101.026l-.045.011-.073.016-.074.014-.022.003-.129.019-.026.002-.025.003-.103.01-.057.003-.101.003-.029.001h-.042l-.014.001-.038-.001c-.052 0-.105-.002-.158-.005l-.061-.003c-.07-.005-.141-.011-.213-.02l-.084-.007-.084-.006-.052-.001c-.037-.001-.074-.002-.111-.001l-.072.002-.099.006-.07.006c-.034.003-.067.008-.1.012l-.068.01c-.034.005-.068.01-.102.017l-.032.006-.031.006-.112.024-.052.012c-.053.012-.106.026-.159.04l-.003.001-.081.023-.135.04-.11.035-.065.02-.101.034-.092.03-.057.019-.057.018-.097.032-.037.012-.036.012-.094.03-.07.02-.097.03-.065.018-.108.029-.056.015c-.054.013-.109.026-.164.037l-.434.09c-.258.052-.517.105-.776.16-.346.073-.569-.099-.718-.38-.209-.391-.244-.793-.118-1.17l.055-.141.053-.108.062-.105.002-.003c.02-.031.042-.063.065-.094l.007-.01.04-.052.041-.05.049-.058.1-.123.1-.125.14-.176.083-.103h-1.053l-.035-.118c-.071-.314.037-.627.266-.793.213-.155.388-.332.538-.525.038-.048.074-.097.109-.147.048-.068.092-.139.135-.21.051-.084.1-.17.147-.256l.084-.162.371-.767c.064-.126.13-.252.2-.374.022-.036.039-.075.058-.12.019-.045.039-.097.067-.16l-.068-.003h-.089c-.051 0-.102.002-.153.004l-.042.002c-.056.003-.111.007-.167.012l-.02.002c-.051.005-.102.01-.152.017l-.041.005-.166.024-.02.004-.075.012-.076.014-.041.007-.163.032-.023.005-.075.015-.074.016-.045.01-.08.016-.078.017-.157.034-.045.01-.084.018-.085.017-.018.004-.074.014-.074.015-.041.007-.084.015-.083.014-.017.003-.15.022-.041.006c-.056.007-.111.013-.167.018l-.018.002-.075.006-.076.005-.041.002-.084.003-.084.001c-.042 0-.08 0-.117-.002h-.025l-.047-.003-.048-.003-.042-.003-.078-.008-.047-.005-.074-.01-.048-.008-.076-.014-.046-.009-.041-.009-.041-.01-.04-.01c-.041-.01-.082-.021-.123-.034.821-1.227 1.215-2.518.589-3.978-.103.373-.208.737-.31 1.098l-.149.54-.138.54-.028.104-.03.1-.017.052c-.016.049-.033.097-.05.143l-.022.05-.029.068-.03.065-.022.043c-.022.044-.045.088-.07.13l-.02.033c-.027.044-.055.087-.084.128l-.009.012-.057.076-.05.061c-.005.005-.01.01-.013.015-.038.043-.077.084-.117.123l-.007.007-.066.06-.069.058-.144.106c-.3.2-.663.33-1.089.392-.145.021-.292.052-.43.103-.335.126-.382.35-.194.663.54.897 1.101 1.784 1.574 2.717.149.293.096.725.038 1.078-.066.398-.241.778-.369 1.166l.082.1c.215-.14.486-.239.633-.432.267-.35.491-.74.674-1.142.197-.432.038-.822-.155-1.198l-.117-.225c-.38-.732-.765-1.462-1.15-2.198.697-.276 1.036-.132 1.328.476.338.703.703 1.392 1.045 2.092.224.457.206.93-.037 1.364-.267.476-.586.923-.885 1.382-.27.413-.68.387-1.106.385-.328-.002-.68.026-.98.144-1.194.471-2.365.999-3.558 1.473-.76.303-1.635-.142-1.99-.957-.081-.189-.162-.382-.273-.554-.206-.32-.474-.492-.895-.418-.162.028-.421-.071-.524-.201-.318-.406-.587-.85-.867-1.286-.212-.33-.15-.5.238-.549.527-.065 1.06-.11 1.592-.108.197.001.458.11.578.26.422.526.825 1.072 1.179 1.646.338.549.629.73 1.239.51.693-.248 1.365-.558 2.048-.84.235-.096.338-.256.303-.518-.134-.976-.51-1.831-1.452-2.235-1.246-.535-1.99-1.485-2.52-2.672-.062-.14-.213-.24-.323-.358-.115.173-.333.35-.325.517.019.418.141.832.232 1.3-.572 0-1.2.042-1.821-.01-.734-.062-1.46-.276-2.191-.293-.793-.02-1.588.12-2.383.172-.334.022-.679.038-1.007-.016-.7-.116-1.055-.477-1.094-1.195-.043-.794.002-1.594.013-2.391.001-.103.053-.214.03-.307-.034-.129-.117-.245-.178-.367-.099.075-.249.13-.287.228-.129.327-.258.664-.31 1.01-.072.48-.14.978-.09 1.456.08.761-.217 1.364-.66 1.912-1.166 1.445-2.664 2.215-4.548 2.146-1.908-.07-3.447.685-4.694 2.094-.078.088-.14.191-.203.292-.03.047-.043.104-.068.17.345.163.541-.046.731-.251.721-.78 1.573-1.39 2.618-1.567.756-.13 1.56-.12 2.326-.034 1.643.186 2.99-.307 3.994-1.608.334-.433.674-.562 1.166-.44-.19.49-.347.994-.584 1.458-.11.214-.351.394-.574.512-.6.317-1.198.667-1.84.863-.53.162-1.128.19-1.689.158-.819-.046-1.644-.33-2.441.034-.517.235-1.06.493-1.469.872-.678.626-1.424.828-2.285.638-.338-.075-.59.002-.8.227-.302.323-.618.647-.848 1.02-.267.434-.624.626-1.103.588-.468-.037-.932-.122-1.492-.198.12-.45.215-.894.366-1.317.059-.166.223-.375.375-.411.485-.116.725-.45.981-.83.155-.23.426-.428.687-.529.633-.244 1.073-.689 1.399-1.244.305-.52.56-1.072.794-1.628.136-.327.348-.517.671-.433.988.255 1.7-.32 2.452-.77.46-.275.506-.753.258-1.37-.262-.656-.512-1.324-.671-2.009-.13-.554-.116-1.142-.17-1.771-.43.048-.879.147-1.325.139-.794-.016-1.608.002-2.374-.171-1.57-.355-2.497-1.624-2.463-3.25.03-1.422.536-2.657 1.61-3.622.173-.155.402-.246.589-.39l.505-.383c.252-.194.498-.394.718-.619.136-.139.178-.475.12-.68-.11-.38-.474-.494-.842-.54-.484-.059-.977-.071-1.449-.181-1.136-.265-1.867-1.205-1.892-2.373-.009-.39-.002-.78.058-1.18zM44.357 45.25c.385.089.636.493.533.863-.135.482-.252.97-.418 1.44-.047.135-.236.219-.28.256-.861-.019-.98-.232-.728-.907.132-.353.171-.742.25-1.115.098-.463.284-.62.643-.537zm2.675-1.784c.065.09.032.327-.047.433-.252.341-.532.665-.83.968-.113.115-.301.156-.51.257-.2-.116-.42-.201-.584-.35-.175-.159-.181-.356.053-.512.367-.244.721-.505 1.089-.747.12-.08.262-.162.398-.17.147-.009.36.024.43.121zM93.25 11c7.74 0 14.42 4.551 17.512 11.125l-.022.002c-1.574.131-2.838.652-3.863 1.593-.39.356-.742.673-1.126.934-2.1 1.426-3.679 3.311-5.38 5.449-.993 1.247-1.505 2.587-1.568 4.098-.029.716-.242 1.443-.467 2.213-.085.289-.172.588-.25.886-.152.593-.339 1.195-.52 1.777l-.107.347c-.005.016-.013.031-.018.04-.485.42-1.166 1.081-1.53 2.01-.18.457-.509.811-1.136 1.222-.122.08-.259.155-.403.235l-.113.062-.113.064-.84.48.12.087-1.045-.556-.142-.076-.163-.087c-.767-.412-1.249-.881-1.563-1.522-.305-.622-.744-1.137-1.245-1.698-.193-.215-.235-.288-.25-.432-.04-.359-.133-.696-.234-1.022l-.077-.243-.069-.215c-.063-.203-.137-.395-.208-.581-.1-.258-.194-.502-.245-.738-.105-.486-.194-.99-.28-1.476-.097-.554-.198-1.127-.325-1.692-.147-.652-.33-1.34-.667-1.954-.954-1.735-2.302-3.147-3.641-4.495l-.335-.336-.047-.047c-.577-.58-1.221-1.083-1.844-1.57-.451-.353-.918-.718-1.34-1.1-.656-.59-1.444-1.03-2.482-1.384-.51-.173-1.01-.264-1.487-.274C78.83 15.551 85.508 11 93.25 11zm13.734 28.48c.148.03.298.063.45.096.518.113 1.052.23 1.618.23.19 0 .374-.014.552-.04-.037.069-.068.135-.094.194l-.037.084-.077.176c-.225.52-.439 1.01-.712 1.457-.06.1-.114.197-.16.293-.042-.45-.27-.867-.667-1.207-.52-.443-.772-.81-.87-1.265 0-.006-.002-.012-.003-.017zm-27.472-.005l-.016.033c-.284.597-.529 1.112-1.008 1.46-.3.218-.487.555-.533.922-.139-.281-.281-.562-.42-.834-.189-.374-.385-.76-.568-1.14-.018-.039-.042-.09-.074-.148.168.023.34.034.519.034.571 0 1.107-.116 1.626-.228.16-.035.318-.069.474-.1z"/>
</svg>
