<svg xmlns="http://www.w3.org/2000/svg" width="184" height="100" viewBox="0 0 184 100">
    <path fill-rule="evenodd" d="M26.169 42.174h12.07v2.622H26.421v11.088h16.027V42.172h4.214v5.97H59.61v-5.95h4.216V58.94H59.61v-7.206H46.662v7.206H26.288c-.159.009-3.897.183-4.532-3.728-.74-4.561-.17-8.922-.12-9.285l.003-.024c.573-3.92 4.368-3.737 4.53-3.728zm46.148.003L83.1 55.301V42.185h3.469V58.94h-5.361L69.633 44.956V58.94h-3.466V42.177h6.15zm66.192 3.72s.654 4.546-.12 9.31c-.634 3.91-4.372 3.737-4.531 3.728h-17.241V42.166h17.144c.17-.01 4.173-.188 4.748 3.73zm-32.523-3.718v2.62h-12.36v4.371h11.834v2.137H93.626v4.61h16.717V42.192h4.138v16.746H89.486V42.18h16.5zm51.258 0v2.62h-12.36v4.371h11.834v2.138h-11.834v4.609h16.717V42.192h3.5v-.003h14.168c.34-.01 4.264-.043 4.582 3.702 0 0 .064 1.338 0 2.179-.302 4.065-4.702 3.701-4.702 3.701h-3.032l5.896 7.167h-4.726l-5.57-6.669v-3.333h6.58l-.038-.01s1.498.069 2.016-1.189c0 0 .349-.94-.122-1.98-.388-.853-1.53-.939-1.902-.946h-.114l-.39-.003h-12.006v14.13h-24.995V42.18h16.498zM4.63 42.178h14.15v2.616H6.134l-.391.006c-.084 0-1.562-.052-2.014.946-.471 1.036-.123 1.98-.123 1.98.495 1.205 1.894 1.191 2.01 1.188h.007l.298.008h9s4.788-.268 4.984 3.77l.006.259v1.121c0 5.058-4.699 4.849-4.873 4.84l-.005-.001-14.555-.008v-3.016h14.09c.19.005 1.446.03 1.943-.933.521-1.013.122-1.98.122-1.98-.52-1.27-1.922-1.22-2.033-1.214H4.724c-.176.013-4.398.279-4.697-3.702-.06-.843 0-2.18 0-2.18.329-3.83 4.425-3.708 4.603-3.7zm129.095 2.614h-12.891v11.087h12.891V44.792z"/>
</svg>
