<svg xmlns="http://www.w3.org/2000/svg" width="184" height="100" viewBox="0 0 184 100">
    <path fill-rule="evenodd" d="M132.03 58.861c1.604 0 2.441.951 2.441 2.505 0 1.54-.85 2.505-2.44 2.505-1.591 0-2.442-.964-2.442-2.505 0-1.554.837-2.505 2.442-2.505zm13.924 0c1.604 0 2.441.951 2.441 2.505 0 1.54-.85 2.505-2.44 2.505-1.591 0-2.442-.964-2.442-2.505 0-1.554.837-2.505 2.441-2.505zm-35.619 0c.495 0 .977.111 1.444.25l-.105 1.048c-.418-.23-.822-.34-1.269-.34-.92 0-1.52.666-1.52 1.568 0 .951.676 1.527 1.625 1.527.425 0 .857-.111 1.213-.25l.063 1.013c-.37.09-.781.194-1.444.194-1.297 0-2.797-.652-2.797-2.484 0-1.686 1.186-2.526 2.79-2.526zm62.017 0c.468 0 .928.07 1.256.18l-.084 1c-.335-.153-.712-.222-1.081-.222-.328 0-.872.028-.872.45 0 .785 2.302.257 2.302 2.006 0 1.256-1.06 1.596-2.141 1.596-.454 0-1.019-.07-1.45-.208l.11-1.069c.336.18.803.32 1.34.32.411 0 .801-.083.801-.473 0-.901-2.3-.333-2.3-2.094 0-1.166 1.143-1.486 2.12-1.486zm-18.027 0c.32 0 .998.035 1.471.215l-.104 1.055c-.404-.236-.879-.312-1.186-.312-1.052 0-1.917.437-1.917 1.568 0 .951.676 1.527 1.625 1.527.174 0 .341-.028.46-.084v-.957h-.76v-.916h2.015v2.692c-.823.208-1.437.222-1.883.222-1.297 0-2.796-.652-2.796-2.484 0-1.825 1.29-2.526 3.075-2.526zm-38.339.083v1.853h1.534v-1.853h1.298v4.844h-1.298v-2.075h-1.534v2.075h-1.297v-4.844h1.297zm7.722 0l1.646 3.29h.014l-.021-3.29h1.186v4.844h-1.611l-1.702-3.31h-.014l.042 3.31h-1.193v-4.844h1.653zm36.819 0v4.844h-1.297v-4.844h1.297zm-21.723 0v3.886h2.008v.958h-3.305v-4.844h1.297zm-34.252 0v.916h-2.134v1h2.015v.915h-2.015v1.097h2.21v.916h-3.507v-4.844h3.43zm-6.251 0v.958h-1.2v3.886h-1.296v-3.886h-1.2v-.958H98.3zm68.902 0v.916h-2.134v1h2.016v.915h-2.016v1.097h2.21v.916h-3.507v-4.844h3.43zm-137.33-6.87c2.635 2.623 2.635 6.873 0 9.494-2.634 2.621-6.906 2.622-9.541 0-2.635-2.621-2.634-6.872 0-9.493 2.635-2.62 6.907-2.621 9.542 0zm102.158 7.745c-.79 0-1.103.707-1.103 1.547 0 .798.314 1.548 1.103 1.548.787 0 1.101-.75 1.101-1.548 0-.84-.314-1.547-1.101-1.547zm13.923 0c-.788 0-1.102.707-1.102 1.547 0 .798.314 1.548 1.102 1.548.789 0 1.102-.75 1.102-1.548 0-.84-.313-1.547-1.102-1.547zm-27.346-23.802v12.177c0 1.368 1.21 2.641 3.508 2.641 2.326 0 3.535-1.273 3.535-2.64V36.016h4.553v12.435c0 3.94-3.462 6.182-8.088 6.182-4.598 0-8.063-2.242-8.063-6.182V36.017h4.555zm-53.985 0v3.941h-10.6c-.925 0-1.78.424-1.78 1.604 0 1.18.904 1.607 1.85 1.607h6.048c2.16 0 5.455.942 5.455 5.59 0 4.672-3.296 5.617-5.455 5.617H48.355v-3.943h10.791c.995 0 1.777-.352 1.777-1.673 0-1.298-.782-1.652-1.85-1.652H53.05c-2.181 0-5.477-.897-5.477-5.546 0-4.646 3.296-5.545 5.477-5.545h11.573zm20.83 0v3.941h-6.189c-.83 0-1.518.19-2.134.593-1.162.824-1.423 2.357-1.47 2.618l-.025.14h9.818v3.8h-9.818l.025.117c.047.26.308 1.793 1.47 2.618.616.425 1.304.589 2.134.589h6.19v3.943h-7.328c-4.933 0-7.611-3.283-7.611-9.18 0-5.898 2.678-9.179 7.61-9.179h7.328zm22.746 0v3.941h-8.608c-2.632 0-3.819 1.934-3.819 5.239 0 3.302 1.187 5.236 3.82 5.236h4.054v-3.325h-4.055v-3.8h8.608v11.068h-9.746c-4.932 0-7.612-3.283-7.612-9.18 0-5.898 2.68-9.179 7.612-9.179h9.746zm32.626 0V47.32c0 1.015.191 1.722.951 2.408.664.588 1.304.705 2.181.705h5.076v3.943h-6.402c-1.992 0-3.416-.568-4.461-1.51-1.208-1.087-1.872-3.022-1.872-5.146V36.017h4.527zm25.317 0l7.753 18.359h-4.814l-1.541-3.943h-6.736l-1.565 3.943h-4.812l7.752-18.359h3.963zM21.517 37.993c2.635 2.621 2.635 6.872 0 9.494-2.634 2.62-6.906 2.62-9.541-.001-2.635-2.621-2.635-6.872 0-9.493 2.635-2.621 6.907-2.621 9.54 0zm16.829-.027c2.634 2.622 2.634 6.872 0 9.494-2.635 2.621-6.907 2.62-9.542 0-2.635-2.622-2.635-6.872 0-9.494 2.635-2.621 6.907-2.622 9.542 0zm125.826 4.068l-1.945 4.862h3.866l-1.92-4.862z"/>
</svg>
