<svg xmlns="http://www.w3.org/2000/svg" width="184" height="100" viewBox="0 0 184 100">
    <path fill-rule="evenodd" d="M65.054 63.275c.124.004.26.176.36.295 2.935 3.483 5.865 6.97 8.797 10.454.15.177.31.344.54.596.032-.21.062-.314.062-.418.002-3.324.014-6.648-.018-9.971-.003-.312-.277-.622-.42-.92h2.539c-.656.34-.53.948-.53 1.517l-.003 15.357c0 .157 0 .313-.098.513L64.04 66.115l-.13.04c-.02.132-.055.262-.055.393-.005 4.214-.016 8.428.01 12.642.002.33.267.66.405.979H62.55c.648-.35.542-.957.542-1.531.007-4.466.002-8.933.038-13.399.007-.792-.098-1.464-.808-1.977.911 0 1.822-.012 2.732.013zm-49.265.392c.393.2.603.47.55.95-.05.453-.01.915-.01 1.47-.19-.322-.324-.575-.48-.813-.954-1.459-2.5-1.985-4.011-1.355-1.095.457-1.608 1.346-1.782 2.474-.177 1.139.117 2.118 1.11 2.753.708.452 1.486.793 2.24 1.172.555.279 1.138.507 1.679.81 2.341 1.315 3.049 3.753 1.754 6.123-1.015 1.857-2.692 2.78-4.712 3.14-1.58.284-3.06-.07-4.463-.809-.454-.24-.72-.556-.654-1.125.057-.49.012-.991.012-1.488.416.75.901 1.408 1.574 1.918 1.337 1.012 3.053 1.106 4.412.238 1.317-.841 1.999-2.45 1.688-3.969-.149-.724-.547-1.297-1.157-1.673-.665-.41-1.381-.74-2.08-1.092-.635-.32-1.297-.59-1.912-.943-1.606-.922-2.278-2.357-2.152-4.174.122-1.749.989-3.036 2.57-3.77 1.952-.907 3.908-.81 5.824.163zm81.41.893c.094.048.199.189.2.288.017.78.01 1.56.01 2.285-.547-.57-1.052-1.215-1.673-1.715-1.379-1.111-2.986-1.646-4.764-1.49-1.957.17-3.44 1.196-4.304 2.915-1.61 3.202-1.63 6.463.127 9.628.9 1.621 2.275 2.764 4.159 3.06 1.5.234 2.987.047 4.4-.573.27-.119.357-.28.353-.576-.018-1.291-.023-2.583 0-3.874.009-.5-.078-.914-.529-1.234h2.784c-.668.37-.52 1-.521 1.577-.004 1.395-.002 2.79 0 4.186v.135c-.006.152-.043.28-.262.346-2.945.893-5.943 1.318-8.933.41-3.329-1.011-5.126-3.43-5.613-6.833-.252-1.765-.072-3.501.643-5.146 1.097-2.526 3.112-3.94 5.731-4.544 2.87-.661 5.596-.181 8.191 1.155zm12.561-1.268c1.231.03 2.407.328 3.478.963 2.21 1.311 2.654 3.816 1.038 5.824-.645.803-1.476 1.36-2.431 1.816 1.785 1.347 2.73 3.283 3.822 5.112.647 1.085 1.306 2.16 2.342 2.936-1.128.703-2.814.482-3.579-.559-.594-.808-1.09-1.693-1.583-2.569-.575-1.019-1.113-2.06-1.645-3.102-.47-.921-1.182-1.37-2.228-1.262-.246.026-.498.004-.802.004v.505c0 1.945.008 3.89-.005 5.833-.003.533-.027 1.048.533 1.376h-4.239c.832-.414.65-1.106.65-1.736.004-4.66-.002-9.32.01-13.981.001-.47-.082-.852-.508-1.162.069-.008.137-.025.206-.025 1.647.005 3.295-.012 4.941.027zm42.745.02c-.782.333-.677.92-.677 1.478l.001 7.013v7.632c2.082-.123 4.15.004 6.222-.381 0-.007.007.052 0 .109-.126.975-.147 1.032-1.026 1.035h-8.72c.719-.44.508-1.139.51-1.764.005-4.66-.003-9.321.01-13.982 0-.466-.064-.855-.513-1.14h4.193zm-102.373-.578c.158.059.332.219.395.376 1.86 4.63 3.706 9.267 5.557 13.902.27.673.521 1.357.843 2.006.209.42.53.785.792 1.163h-4.026c.625-.477.234-.943.06-1.397-.474-1.23-.981-2.447-1.451-3.678-.1-.26-.237-.32-.49-.318-1.631.01-3.263.015-4.895-.004-.318-.004-.433.117-.527.393-.458 1.346-.935 2.685-1.406 4.026-.12.345-.244.69.283.98h-2.37c.2-.411.447-.847.628-1.31 2.068-5.264 4.127-10.533 6.186-15.802.078-.2.16-.434.42-.337zm-12.254.56c-.847.41-.66 1.085-.66 1.697-.003 4.6 0 9.199-.004 13.798 0 .527-.067 1.065.536 1.377h-4.185c.889-.466.625-1.232.63-1.905.018-2.24.007-4.48.007-6.721v-.521h-7.195v.542c0 2.374.003 4.748-.003 7.122-.001.568-.075 1.15.558 1.497h-4.104c.707-.377.553-1.042.553-1.65.002-4.629-.002-9.258.005-13.886v-.238c-.006-.432-.063-.835-.53-1.106h4.194c-.681.337-.686.84-.68 1.375.018 1.647.007 3.293.007 4.94v.517h7.191v-4.47c0-.326-.008-.653.002-.98l.007-.24c.006-.439-.04-.859-.505-1.149h4.176zm131.814-.188c2.03 5.074 4.056 10.149 6.089 15.221.272.679.468 1.414 1.163 1.851h-4.09c.456-.371.338-.752.162-1.172-.536-1.285-1.05-2.578-1.558-3.875-.093-.237-.191-.348-.47-.346-1.647.016-3.294.014-4.94.002-.265-.002-.395.076-.482.332-.473 1.387-.962 2.77-1.448 4.153-.114.326-.186.64.311.902h-2.39c.18-.354.407-.722.563-1.118 2.1-5.348 4.19-10.7 6.294-16.048.05-.127.224-.248.364-.289.307-.088.352.188.432.387zm-42.378.2c-.679.329-.655.842-.655 1.37.009 4.705.01 9.41-.001 14.114-.002.543.006 1.045.55 1.378h-4.056c.552-.352.508-.89.507-1.435-.007-4.734-.01-9.469.003-14.203.002-.493-.053-.917-.524-1.223h4.176zm41.19 4.22l-2.517 6.432h5.043l-2.526-6.432zm-119.161 0l-2.507 6.428h5.025l-2.518-6.428zm91.848 3.444v1.46h-6.983v-1.46h6.983zm-32.634-7.067c-.343.04-.392.199-.39.496.01 2.078.005 4.156.005 6.234v1.022c.573 0 1.092.033 1.604-.007 1.626-.127 2.752-1.016 3.105-2.476.12-.5.193-1.03.172-1.541-.11-2.653-1.728-4.062-4.496-3.728zM92.984 19.412c2.349 1.83 4.998 3.014 7.931 3.49 1.456.236 2.859-.132 4.17-.807.091-.046.178-.1.314-.178.012.16.03.283.03.405.002 3.548-.003 7.095.009 10.643 0 .306-.083.426-.384.512-4.77 1.363-8.76.032-12.13-3.477l-.2-.22c-.034-.035-.069-.07-.106-.103-.282-.246-.591-.256-.82.04-2.227 2.86-5.302 4.451-8.573 5.752-.067.027-.13.064-.192.1-.007.003-.004.025-.012.087h22.386V49.61c-.935.078-1.853.116-2.759.237-3.564.475-6.796 1.722-9.487 4.186-.74.677-1.044.654-1.845.04-2.36-1.81-5.004-3-7.95-3.439-1.402-.208-2.738.156-4.003.774-.106.052-.209.11-.314.163-.01.005-.028-.006-.08-.02-.006-.13-.018-.272-.018-.414 0-3.503.007-7.006-.011-10.51-.002-.379.133-.496.469-.59 4.8-1.332 8.788.045 12.125 3.612.502.537.753.544 1.21-.026 1.793-2.237 4.16-3.675 6.727-4.836.63-.285 1.271-.543 1.908-.813l-.018-.078H78.985V23.922c.794-.057 1.591-.081 2.38-.177 3.725-.45 7.104-1.707 9.908-4.291.656-.605 1.006-.591 1.71-.042z"/>
</svg>
