<svg xmlns="http://www.w3.org/2000/svg" width="94" height="100" viewBox="0 0 94 100">
    <path fill-rule="evenodd" d="M39.696 90.77c-.532.23-1.034.331-1.38.62-.922.765-1.655 1.694-1.936 2.9-.13.562-.046 1.111.213 1.623.301.593.78.725 1.352.399.701-.4 1.206-1 1.387-1.761.26-1.092.403-2.212.574-3.323.018-.12-.116-.261-.21-.459M28.83 91.992c-.024-.981-.058-1.07-.858-1.131-.424-.032-.866.113-1.292.211-.12.028-.28.155-.306.263-.107.462-.466.67-.813.907-.135.092-.289.21-.347.352-.295.72-.596 1.44-.828 2.181-.168.537-.016 1.05.384 1.467.384.4 1.013.565 1.366.32 1.66-1.15 2.626-2.697 2.694-4.57m43.64 4.844c.281-.035.574-.056.861-.11 1.285-.242 2.012-1.272 1.802-2.565-.067-.41-.177-.814-.273-1.22-.216-.91-.808-1.5-1.63-1.889-.552-.26-1.037-.234-1.527.212-1.018.926-1.473 2.093-1.664 3.411-.066.457-.028.855.305 1.195.58.592 1.281.916 2.127.966M30.916 80.304c.488.487.992.99.991 1.759-.002 1.811-.018 3.623-.012 5.434.007 2.08.152 4.144.74 6.16.255.872.714 1.617 1.234 2.34.176.245.389.35.632.217-.035-.76-.134-1.495-.092-2.221.108-1.86 1.573-4.49 4.048-4.992.708-.144 1.387-.143 2.012.288.098.067.228.096.348.125.78.188 1.282.646 1.304 1.47.023.874-.045 1.75-.032 2.626.008.51.054 1.028.159 1.527.135.642.598.983 1.237 1.084.192.03.39.038.584.047.618.027.686-.034.563-.662-.46-2.329.531-4.075 2.224-5.538.478-.413 1.064-.542 1.684-.505.707.042 1.304.618 1.388 1.288.052.405-.113.646-.495.739-.188.045-.385.057-.58.07-.367.025-.643.174-.894.463-.686.79-1.285 1.617-1.434 2.686-.025.18-.027.361-.042.541-.086 1.068.788 1.518 1.528 1.45 1.218-.112 2.384-.352 3.384-1.16 1.03-.831 2.122-1.587 3.177-2.389.082-.062.147-.235.124-.334-.902-3.788-.821-7.662-1.004-11.512-.006-.133.093-.352.2-.395.33-.134.688-.158.98.114.526.492.745 1.134.831 1.825.05.4.098.806.081 1.207-.016.392.165.495.497.463.68-.065 1.358-.142 2.037-.206.594-.056 1.19-.147 1.782-.134.582.012.96.412 1.228.897.29.528.043 1.016-.557 1.114-1.264.205-2.527.41-3.792.6-1.095.166-1.158.209-1.093 1.283.138 2.262.502 4.48 1.307 6.613.057.151.035.333.094.483.145.367.304.73.486 1.078.031.059.238.094.31.051.299-.177.624-.345.851-.595.738-.812 1.278-1.717 1.499-2.834.21-1.059.587-2.087.916-3.12.127-.398.793-.489 1.187-.178.493.39.76.92.891 1.52.234 1.072.443 2.149.692 3.216.132.568.39 1.082.942 1.37.14.074.339.159.468.115.735-.25 1.462-.525 2.177-.828.116-.049.224-.282.219-.425-.088-2.298.986-4.041 2.656-5.475.552-.474 1.216-.586 1.911-.193.159.089.409.082.598.04 1.415-.322 2.82-.688 4.24-.985.581-.123 1.192-.103 1.788-.163.563-.057.964.197 1.288.622.11.144.225.284.332.43.37.506.375.513.891.114.806-.622 1.73-.877 2.73-.887.439-.004.773.202 1.085.533.692.734.905 1.604.906 2.57 0 .681.03 1.363.048 2.045.002.07.007.14.023.208.398 1.631.92 1.956 2.41 1.52.672-.197 1.283-.599 1.928-.895.582-.266 1.168-.524 1.76-.767.356-.147.527.023.53.384.008.689-.137 1.313-.674 1.813-.952.887-1.971 1.65-3.288 1.897-.687.13-1.352.093-1.996-.242-1.72-.894-2.695-2.244-2.702-4.226-.002-.696-.042-1.391-.072-2.087-.006-.134-.049-.266-.078-.418-.637.014-1.154.257-1.554.678-1.043 1.099-1.663 2.388-1.663 3.934 0 .458-.005.919-.06 1.372-.047.371-.287.65-.666.721-.388.073-.669-.143-.872-.456-.33-.507-.53-1.004-.44-1.669.136-1.017.09-2.058.13-3.088.019-.515.058-1.029.082-1.543.013-.257-.076-.474-.375-.421-.93.165-1.856.351-2.782.541-.158.033-.305.127-.55.232.188.376.387.717.534 1.08.422 1.04 1.06 2.065 1.176 3.142.18 1.677-.357 3.016-2.115 3.743-1.978.818-3.809.39-5.44-.937-.341-.278-.612-.643-.905-.956-.506.284-.924.536-1.357.758-1.317.676-2.314.555-3.431-.414-.818-.71-1.347-1.625-1.834-2.65-.094.165-.158.293-.235.411-.517.792-.983 1.624-1.574 2.357-.364.453-.884.81-1.393 1.11-.772.455-1.774.226-2.256-.527-.41-.641-.71-1.352-1.05-2.037-.255-.513-.24-.485-.626-.085-.261.27-.642.426-.971.63-.168.104-.374.17-.506.307-1.251 1.305-2.81 2.024-4.573 2.236-1.02.123-1.998-.228-2.832-.843-.311-.23-.593-.265-.93-.162-.16.048-.328.085-.475.162-.908.475-1.73.273-2.497-.315-.364-.28-.71-.584-1.098-.906-.384.356-.76.73-1.162 1.07-.8.678-1.705 1.02-2.753.7-.313-.096-.597-.294-.882-.466-.341-.205-.682-.33-1.06-.105-.888.53-1.69.226-2.392-.338-.414-.332-.741-.791-1.044-1.237-.336-.494-.597-1.038-.895-1.557-.065-.114-.148-.218-.237-.346-.223.512-.398.984-.629 1.428-.517.995-1.244 1.803-2.198 2.416-.963.619-1.945.605-2.889.05-.53-.312-.998-.755-1.434-1.198-.508-.515-.58-.517-1.231-.158-.413.227-.9.4-1.366.44-1.27.11-2.181-.582-2.905-1.526-.378-.493-.664-1.057-1.02-1.635-.089.063-.22.153-.348.246-.923.671-1.766 1.487-2.88 1.839-.999.315-1.925.777-2.878 1.194-1.699.743-3.52.86-5.346.756-1.323-.076-2.64-.277-3.962-.375C.685 97.913.313 96.822.44 96.24c.022-.101.205-.204.332-.24.687-.199 1.351-.06 2.015.149.274.086.568.15.853.153 1.564.02 3.14.142 4.674-.248.736-.187 1.461-.468 2.139-.81.768-.39.903-1.16.424-1.858-.718-1.047-1.76-1.646-2.91-2.094-1-.39-2.037-.705-2.997-1.175-.768-.375-1.465-.908-2.155-1.423-.225-.167-.33-.496-.485-.755-.055-.092-.079-.207-.146-.287-.354-.423-.357-.6-.074-1.077.476-.8 1.13-1.41 1.938-1.862 1.474-.823 3.057-1.213 4.745-1.097.35.024.708.161 1.026.32.412.204.683.849.597 1.286-.073.373-.368.325-.631.296-1.205-.134-2.38.022-3.5.452-.613.235-1.22.555-1.734.958-.516.404-.471.754.107 1.074.765.423 1.574.77 2.38 1.11.732.309 1.506.52 2.225.853 1.469.68 2.516 1.856 3.479 3.11.132.171.2.395.28.602.134.338.35.444.687.32.04-.014.08-.027.116-.047 1.775-1.002 2.928-2.42 3.048-4.53.005-.083.012-.166.025-.249.082-.547.462-.75.966-.493.61.311 1.018.809 1.097 1.488.068.59.036 1.192.045 1.789.012.735-.063 1.484.049 2.204.178 1.147.772 1.496 1.917 1.236.42-.095.83-.246 1.23-.405.117-.046.236-.196.27-.321.062-.225.07-.467.085-.703.144-2.18 1.249-3.76 3.097-4.849 1.04-.612 2.058-.438 3.034.205.134.088.313.11.471.163l.102-.33c.015-.054.027-.11.032-.165.15-1.51.323-3.02.421-4.534.077-1.177.06-2.361.074-3.543.003-.236-.064-.467.226-.602.308-.144.648-.26.902-.006zm32.941 6.087c.198.086.416.145.59.266.215.15.414.334.584.534.213.25.594.477.352.882-.178.296-.968.378-1.303.173-.431-.264-.743-.605-.805-1.144-.053-.462.088-.656.582-.711zm-46.513-1.862c.53.03 1.3.627 1.451 1.125.1.327-.083.734-.395.875-.554.25-1.338-.261-1.34-.986-.028-.094-.093-.29-.147-.488-.088-.321.098-.545.431-.526zM51.014.3c2.747.268 5.446.742 8.054 1.675 6.148 2.2 9.841 6.526 11.224 12.853.544 2.49.785 5.01.562 7.556-.225 2.562-.82 5.05-1.59 7.5-1.545 4.918-3.973 9.355-7.092 13.46-3.75 4.936-7.595 9.786-11.752 14.388-.093.103-.178.212-.312.372.906.785 1.77 1.553 2.657 2.296 5.872 4.925 12.167 9.26 18.682 13.289 1.638 1.012 3.29 2.001 4.947 2.984.273.162.326.312.215.6-.727 1.876-2.027 3.284-3.652 4.41-1.447 1.004-1.454.978-2.993.14-7.287-3.97-14.039-8.706-20.315-14.118-1.47-1.267-2.871-2.61-4.305-3.917-.101-.093-.204-.185-.336-.304-7.282 7.396-15.133 14.111-23.419 20.358-2.253-1.57-4.298-3.343-5.988-5.562 8.446-6.296 16.53-12.996 24.054-20.376-.836-.997-1.664-1.956-2.461-2.941-4.056-5.01-7.544-10.368-9.955-16.372-1.857-4.623-2.973-9.401-2.798-14.41.15-4.278.912-8.44 2.755-12.348 2.795-5.922 7.469-9.52 13.82-11.005 3.3-.772 6.637-.856 9.999-.528zM39.836 8.98c-5.075 3.215-7.494 7.966-7.687 13.866-.1 3.056.297 6.089.944 9.08 1.749 8.09 6.04 14.776 11.598 20.829.161-.17.296-.309.428-.45 3.158-3.374 6.138-6.9 9.074-10.466 3.139-3.812 5.649-7.98 7.366-12.608 1.307-3.522 2.087-7.125 1.639-10.921-.577-4.876-3.063-8.262-7.714-10.002-2.055-.77-4.193-1.137-6.369-1.348-3.316-.323-6.455.232-9.279 2.02z"/>
</svg>
