<svg xmlns="http://www.w3.org/2000/svg" width="184" height="100" viewBox="0 0 184 100">
    <path fill-rule="evenodd" d="M59.271 52.058c1.803.203 3.41.862 4.869 1.914.037.028.07.06.122.105l-1.4 2.043c-1.078-.796-2.235-1.35-3.532-1.553-1.806-.282-3.589-.273-5.176.804-1.597 1.083-2.273 2.647-2.103 4.53.209 2.303 1.499 3.797 3.747 4.388 1.923.505 3.802.224 5.64-.457.248-.092.314-.24.312-.496-.015-1.277-.007-2.553-.007-3.862h2.785c.007.115.019.216.019.317v3.3c.001.55.003 1.1.008 1.65.002.25-.096.373-.294.488-1.413.82-2.93 1.328-4.546 1.572-1.525.231-3.044.234-4.54-.15-2.44-.629-4.355-1.962-5.31-4.357-1.522-3.813.019-7.957 4.064-9.622 1.725-.71 3.508-.82 5.342-.614zm-19.795-19.01v33.875c-.113.006-.225.018-.336.018H5.28c-.094 0-.187-.007-.28-.011V33.047h34.476zm88.085 19.313c.76.001 1.508.108 2.219.391 1.524.607 2.415 1.74 2.68 3.337.236 1.42-.029 2.734-1.083 3.794-.743.747-1.671 1.154-2.705 1.332l-.25.043 4.233 5.265c-1.093 0-2.106.007-3.12-.01-.108-.001-.242-.113-.317-.21-1.21-1.563-2.417-3.127-3.61-4.7-.173-.228-.35-.32-.638-.315-1.084.017-2.169.007-3.253.007h-.413v5.162h-2.798V52.375c.096-.006.186-.015.276-.015 2.927-.001 5.853-.004 8.779.001zm13.29-.01c.735.02 1.47.015 2.204.004.188-.003.287.05.372.224 2.232 4.556 4.471 9.108 6.708 13.66.03.06.051.125.1.246-.906 0-1.756.009-2.605-.012-.107-.003-.249-.145-.307-.257-.475-.915-.94-1.836-1.392-2.763-.1-.206-.215-.283-.449-.282-2.354.01-4.71.009-7.064.001-.218 0-.33.068-.426.264-.452.928-.927 1.844-1.381 2.771-.1.202-.212.29-.45.285-.825-.017-1.65-.007-2.524-.007.052-.134.08-.229.124-.317 2.217-4.511 4.437-9.021 6.65-13.534.099-.2.202-.289.44-.282zm-54.307.018c.09.002.192.114.264.197 2.4 2.767 4.797 5.537 7.195 8.307l1.781 2.056c.035.04.078.072.107.099l-.199-10.652h2.83v14.108c-.903 0-1.787.008-2.67-.01-.111-.003-.24-.127-.326-.226-1.584-1.812-3.164-3.629-4.743-5.445-1.397-1.606-2.792-3.213-4.19-4.818-.05-.056-.116-.098-.25-.211V66.46h-2.344v-14.1c.85 0 1.698-.007 2.545.008zm68.304.019v11.745h9.452v2.333h-11.776V52.388h2.324zm-39.734-.007v2.331H104.76v3.305h7.978v2.355h-7.982v3.77h10.847v2.323h-13.181V52.38h12.69zm64.302 0v2.333h-10.362v3.32h7.99v2.328h-7.99v3.77h10.85v2.333h-13.667V52.38h13.179zm-98.322.002v2.337h-10.37v3.303h8.004v2.34h-8.004v3.777h10.82v2.315H67.913V52.383h13.182zm60.864 2.713l-2.734 5.737h5.468l-2.734-5.737zm-20.378-.365c-.088 0-.177.016-.274.025v4.194c.09.009.145.02.202.02 1.944 0 3.89.018 5.834-.014.477-.007.975-.116 1.424-.283.757-.283 1.158-.895 1.176-1.695.018-.815-.193-1.58-1.008-1.949-.409-.186-.893-.28-1.345-.286-2.002-.03-4.006-.014-6.009-.012zm-88.232-5.629H11.18v1.836h22.168v-1.836zM99.79 34.654c.238.145.469.3.735.472l-1.343 1.965c-.858-.416-1.647-.907-2.505-1.194-2.176-.725-4.342-.735-6.32.592-1.499 1.006-2.142 2.487-2.053 4.279.084 1.692.823 3.03 2.267 3.934 1.26.79 2.68 1.027 4.126.848 2.265-.278 2.481-.402 4.53-1.633l1.391 2.04c-.864.66-1.775 1.165-2.774 1.494-2.243.739-4.53.879-6.8.223-2.814-.813-4.747-2.595-5.353-5.524-.821-3.974 1.297-7.501 5.22-8.664 3.106-.921 6.094-.533 8.88 1.168zm-21.018-.723c2.301 1.132 3.73 2.941 4.113 5.504.375 2.51-.302 4.69-2.168 6.443-1.171 1.102-2.594 1.742-4.177 2.014-.594.102-1.2.142-1.548.182-2.675-.043-4.841-.746-6.567-2.5-1.272-1.294-1.9-2.882-1.996-4.69-.21-3.973 2.674-6.88 6.189-7.622 2.12-.447 4.192-.297 6.154.669zm-16.04.583c.093.044.182.095.3.156l-.95 2.087c-.988-.298-1.942-.628-2.917-.872-1.633-.407-3.288-.48-4.942-.111-.292.064-.577.18-.846.311-.382.187-.67.465-.677.933-.007.473.235.825.646.987.622.246 1.263.47 1.915.606 1.499.314 3.023.513 4.51.872.856.206 1.722.53 2.477.978 2.475 1.47 2.441 4.8-.006 6.32-.948.59-1.99.88-3.076 1.044-1.461.22-2.927.188-4.387 0-1.832-.235-3.527-.877-5.179-1.788l1.011-2.15c.74.328 1.444.683 2.178.954 1.713.634 3.488.892 5.31.693.619-.068 1.24-.192 1.832-.38.361-.114.72-.348.99-.618.62-.621.507-1.435-.222-1.93-.68-.462-1.473-.61-2.258-.771-1.726-.354-3.468-.648-5.175-1.076-.724-.182-1.452-.544-2.051-.992-1.788-1.336-1.714-3.951.078-5.292.928-.693 1.99-1.052 3.115-1.21 2.895-.409 5.676 0 8.325 1.25zm76.52-.956v2.305h-5.66V47.61h-2.811V35.892h-5.66v-2.334h14.132zm15.11-.002v2.325H143.99v3.292h7.994v2.348h-7.99v3.786h10.848v2.303h-13.185V33.556h12.706zm-48.214-.01v14.06h-2.768v-14.06h2.768zm17 .007v2.313h-10.364v3.304h8.001v2.35h-7.996v3.787h10.846v2.296h-13.663v-14.05h13.177zM74.584 35.45c-.209.022-.617.044-1.018.108-2.716.431-4.597 2.616-4.396 5.342.133 1.81.966 3.2 2.583 4.075 1.254.678 2.607.81 4.003.623 2.061-.277 3.692-1.558 4.272-3.463.619-2.03.046-4.16-1.535-5.468-1.069-.885-2.349-1.187-3.91-1.217z"/>
</svg>
