<svg xmlns="http://www.w3.org/2000/svg" width="184" height="100" viewBox="0 0 184 100">
    <path fill-rule="evenodd" d="M143.2 65.075c1.628-.004 3.257.086 4.884.158 1.431.063 2.863.14 4.291.245 1.183.087 2.363.215 3.543.339.904.095 1.809.193 2.708.323 1.273.185 2.543.39 3.81.607.895.152 1.787.323 2.675.512.943.2 1.88.432 2.852.658-1.055 0-2.07.005-3.084-.002-.726-.006-1.452-.027-2.178-.044-1.578-.038-3.156-.083-4.734-.115-1.087-.022-2.175-.028-3.263-.038-1.766-.015-3.532-.045-5.297-.037-1.503.006-3.006.047-4.508.09-1.288.038-2.576.092-3.863.152-1.185.056-2.371.117-3.556.197-1.655.113-3.311.23-4.965.376-1.62.144-3.237.315-4.853.497-1.657.187-3.314.382-4.967.607-1.602.217-3.199.47-4.796.716-1.815.28-3.63.564-5.443.856-1.762.285-3.521.594-5.285.872-1.598.252-3.2.483-4.802.71-1.167.167-2.336.33-3.507.464-1.197.138-2.397.25-3.597.356-1.1.098-2.202.186-3.305.252-1.018.06-2.038.1-3.058.123-1.275.03-2.551.063-3.826.038-1.492-.03-2.985-.101-4.475-.192-1.262-.076-2.525-.167-3.78-.32-1.613-.199-3.22-.451-4.825-.71-.972-.156-1.938-.353-2.9-.562-.92-.2-1.831-.44-2.746-.663-.038-.01-.072-.035-.09-.044.928 0 1.864-.008 2.8.002.98.01 1.958.05 2.938.054 1.36.006 2.72.001 4.08-.018 1.071-.015 2.142-.053 3.213-.092 1.306-.047 2.613-.088 3.918-.162 1.321-.076 2.642-.176 3.96-.288 1.445-.123 2.888-.256 4.33-.413 1.373-.15 2.742-.336 4.113-.51 1.312-.166 2.625-.325 3.935-.507 1.51-.209 3.016-.442 4.523-.66 1.193-.173 2.386-.335 3.578-.51 1.458-.216 2.914-.447 4.373-.66 1.325-.194 2.652-.376 3.978-.56 1.227-.17 2.453-.34 3.68-.5 1.027-.132 2.056-.25 3.085-.37 1.155-.135 2.31-.272 3.466-.393 1.022-.106 2.046-.197 3.07-.286.99-.087 1.981-.173 2.974-.24 1.042-.07 2.085-.142 3.13-.167 2.598-.065 5.197-.133 7.796-.14zm-9.755-5.548c1.028 0 2.056.048 3.084.093 1.288.055 2.577.102 3.863.2 1.343.105 2.683.255 4.022.406 1.036.116 2.073.236 3.102.405 1.582.262 3.16.558 4.735.858.898.17 1.793.361 2.683.572.931.22 1.854.474 2.78.716.542.14 1.083.287 1.612.482-.665-.089-1.329-.183-1.994-.266-.894-.111-1.788-.22-2.683-.319-.853-.093-1.706-.184-2.56-.253-1.267-.101-2.534-.197-3.802-.267-1.609-.087-3.22-.192-4.83-.207-2.279-.022-4.558.012-6.836.061-1.524.034-3.047.117-4.57.211-1.378.086-2.754.204-4.13.33-1.508.14-3.016.29-4.521.464-1.572.182-3.14.394-4.71.599-1.294.168-2.587.338-3.878.52-1.393.197-2.783.411-4.176.613-.85.123-1.702.234-2.552.356-1.017.147-2.032.304-3.05.45-1 .144-2 .28-3.002.416-1.085.148-2.17.296-3.256.435-1.044.134-2.089.26-3.134.383-.987.118-1.973.235-2.962.34-.98.104-1.962.198-2.943.288-.907.084-1.814.164-2.721.233-1.094.083-2.187.158-3.281.225-1.103.068-2.205.132-3.309.18-1.23.055-2.461.11-3.693.13-2.567.045-5.135.086-7.702.091-1.52.003-3.039-.055-4.558-.105-1.635-.053-3.27-.112-4.903-.199-1.449-.077-2.896-.18-4.341-.303-1.814-.153-3.627-.323-5.438-.514-1.742-.184-3.483-.386-5.22-.614-1.637-.214-3.269-.464-4.9-.714-1.609-.245-3.216-.495-4.82-.77-1.502-.258-3-.54-4.497-.831-1.099-.214-2.199-.429-3.284-.7-.714-.18-1.399-.47-1.988-.915.787.1 1.596.208 2.405.307.954.116 1.908.23 2.863.335 1.222.136 2.446.266 3.67.393 1.114.116 2.228.234 3.344.334 1.343.119 2.688.222 4.032.327 1.125.088 2.25.178 3.378.248 1.556.098 3.113.19 4.67.263 1.534.07 3.068.119 4.602.166 1.35.042 2.699.09 4.048.1 2.602.021 5.205.037 7.807.02 1.56-.011 3.12-.082 4.68-.14 1.66-.06 3.321-.128 4.98-.212 1.188-.061 2.374-.15 3.56-.234 1.36-.097 2.72-.194 4.079-.309 1.175-.1 2.348-.224 3.522-.34 1.056-.105 2.111-.208 3.166-.321 1.046-.113 2.092-.238 3.138-.356.77-.086 1.54-.164 2.31-.255.795-.094 1.588-.2 2.382-.298l2.658-.329c.903-.112 1.805-.228 2.708-.338.87-.106 1.74-.204 2.61-.31 1.07-.13 2.138-.267 3.207-.398.777-.096 1.554-.19 2.332-.28 1.004-.115 2.007-.233 3.01-.338 1.057-.11 2.113-.208 3.17-.309.797-.076 1.594-.155 2.392-.222 1.099-.092 2.198-.191 3.3-.254 1.791-.102 3.584-.198 5.377-.256 1.654-.054 3.309-.072 4.963-.074zm-74.71-22.666c1.354.041 2.693.177 4.01.491 1.338.319 2.62.786 3.81 1.485 1.164.683 2.161 1.56 2.96 2.65.777 1.062 1.28 2.252 1.537 3.553.29 1.477.289 2.955.02 4.428-.302 1.654-.95 3.16-2.003 4.484-1.252 1.572-2.839 2.658-4.696 3.38-1.62.631-3.299.932-5.028 1.006-1.643.07-3.269-.05-4.873-.417-1.52-.347-2.96-.9-4.271-1.753-1.612-1.05-2.875-2.42-3.64-4.211-.648-1.516-.862-3.104-.757-4.749.057-.893.187-1.77.425-2.629.37-1.337 1.003-2.543 1.894-3.6 1.017-1.206 2.271-2.094 3.706-2.74 1.551-.699 3.175-1.09 4.86-1.246.68-.062 1.363-.09 2.045-.132zM31.62 26.124c.172.019.345.032.517.056.25.035.5.076.75.116.149.024.297.06.446.074 1.046.1 2.048.388 3.032.737 1.107.392 2.153.91 3.091 1.633.19.146.283.258.126.506-.482.762-.79 1.604-1.023 2.471-.068.254-.255.166-.402.193-.187.035-.133-.128-.158-.221-.17-.65-.527-1.178-1.016-1.628-.84-.773-1.813-1.273-2.936-1.462-1.243-.21-2.446-.121-3.516.621-.918.637-1.485 1.546-1.833 2.599-.375 1.13-.53 2.272-.174 3.444.21.692.608 1.254 1.11 1.753.525.52 1.13.923 1.772 1.283 1.41.793 2.929 1.337 4.415 1.953 1.43.593 2.85 1.2 4.14 2.07 1.028.695 1.93 1.526 2.563 2.613.504.864.809 1.797.916 2.795.121 1.126.055 2.236-.25 3.329-.37 1.33-.991 2.52-1.88 3.58-.89 1.059-1.95 1.886-3.183 2.488-1.215.593-2.5.936-3.845 1.056-1.826.162-3.615-.042-5.39-.48-1.26-.31-2.459-.766-3.574-1.427-1.034-.614-1.984-1.344-2.884-2.15-1.29-1.157-2.392-2.473-3.345-3.915-.6-.907-1.163-1.84-1.55-2.867-.222-.593-.497-1.168-.687-1.771-.205-.65-.346-1.322-.5-1.988-.107-.469-.19-.944-.278-1.417-.011-.061.028-.132.017-.193-.009-.048-.06-.088-.092-.132v-1.735c.032-.07.076-.136.09-.208.012-.061-.028-.131-.018-.193.072-.421.147-.842.229-1.262.167-.863.325-1.728.691-2.537.229-.507.441-1.02.662-1.53.103-.238.187-.486.316-.706.242-.414.499-.82.773-1.212.265-.378.558-.737.844-1.1.12-.151.257-.291.386-.436.314-.351.624-.706.946-1.05.076-.081.199-.116.284-.19.239-.21.454-.448.706-.637.298-.224.633-.397.94-.612.657-.461 1.369-.82 2.104-1.128.557-.232 1.131-.422 1.706-.606.317-.101.65-.154.978-.223.352-.075.704-.151 1.059-.212.225-.039.454-.048.68-.075.158-.018.313-.044.47-.067h1.775zm73.075 11.007c-.442 6.946-.401 13.858-.015 20.826-1.57-.248-3.166-.242-4.735.003.371-6.96.508-13.87.044-20.827 1.564.197 3.152.256 4.706-.002zm15.782-.306c1.44 3.612 3.066 7.138 4.776 10.624 1.713 3.493 3.453 6.972 5.192 10.48-.306-.023-.614-.038-.92-.072-1.087-.12-2.172-.137-3.258.001-.268.034-.538.056-.807.058-.072 0-.182-.075-.212-.143-.75-1.704-1.49-3.412-2.233-5.119-.171-.394-.337-.79-.52-1.179-.029-.061-.13-.125-.2-.126-1.849-.04-3.697-.088-5.547-.1-.868-.005-1.737.055-2.605.101-.09.005-.215.096-.252.18-.616 1.376-1.232 2.751-1.822 4.139-.312.735-.574 1.492-.873 2.277-1.032-.231-2.062-.247-3.14.005.108-.22.185-.387.267-.55l2.662-5.252c.52-1.027 1.04-2.053 1.556-3.082.988-1.975 1.99-3.945 2.955-5.931.726-1.494 1.416-3.007 2.1-4.521.259-.574.458-1.175.69-1.78.714.187 1.43.213 2.19-.01zm32.992.32c-.316 6.278-.448 12.533-.223 18.828 2.843-.008 5.674-.01 8.51-.254-.197.741-.218 1.46.01 2.227-4.348-.21-8.673-.273-13.063.003.317-6.947.397-13.862 0-20.804 1.617.24 3.18.204 4.766 0zm-20.362-.29c.339.046.661.121.985.122.36.002.72-.053 1.077-.108.13-.02.173.004.223.12.636 1.504 1.263 3.01 1.921 4.504.6 1.358 1.22 2.708 1.857 4.048.694 1.459 1.418 2.903 2.13 4.354.558 1.138 1.108 2.282 1.678 3.415.684 1.36 1.386 2.711 2.078 4.067.087.172.163.35.258.554-.546-.044-1.064-.115-1.583-.12-.86-.009-1.719.021-2.578.044-.26.007-.521.035-.78.07-.163.021-.247-.04-.308-.184-.27-.644-.541-1.288-.82-1.929-.418-.964-.844-1.926-1.266-2.89-.192-.44-.386-.879-.573-1.321-.072-.17-.162-.264-.37-.266-1.78-.024-3.561-.076-5.342-.086-.894-.005-1.787.055-2.68.095-.184.009-.285-.045-.37-.216-.344-.679-.702-1.35-1.06-2.02-.078-.145-.085-.264-.007-.417.755-1.486 1.511-2.971 2.247-4.467.611-1.242 1.213-2.491 1.786-3.752.474-1.043.902-2.107 1.347-3.163.062-.146.1-.302.15-.453zm-47.844.33c1.326.068 2.635.226 3.918.571 1.126.303 2.189.757 3.157 1.414 1.5 1.02 2.633 2.353 3.322 4.045.512 1.255.709 2.57.686 3.926-.035 2.147-.514 4.166-1.716 5.966-.798 1.195-1.828 2.15-3.05 2.908-1.603.994-3.338 1.612-5.201 1.783-1.326.122-2.665.12-3.998.113-1.425-.008-2.85-.121-4.274-.125-1.189-.002-2.377.088-3.566.136-.05.002-.1 0-.12 0 .052-3.48.143-6.936.145-10.392.003-3.448-.081-6.895-.128-10.384.309.02.682.058 1.056.066 1.02.022 2.041.06 3.06.041 2.236-.04 4.47-.183 6.71-.068zM55.458 38.98c-1.084.418-2 1.079-2.757 1.952-.759.875-1.3 1.887-1.657 2.987-.443 1.363-.64 2.767-.578 4.205.075 1.776.439 3.472 1.323 5.032.549.97 1.267 1.79 2.193 2.403 1.45.96 3.07 1.301 4.787 1.28.418-.048.838-.084 1.254-.145 2.127-.313 3.774-1.404 4.955-3.19.99-1.498 1.453-3.188 1.576-4.97.09-1.283.02-2.561-.245-3.823-.37-1.76-1.074-3.338-2.456-4.547-.553-.483-1.176-.848-1.849-1.12-.872-.353-1.786-.523-2.725-.585-1.31-.086-2.586.044-3.821.52zm24.92-.187c-.468.015-.936.064-1.465.103-.193 5.766-.193 11.511.01 17.276.37.02.673.042.976.054.927.036 1.855.058 2.782.104 1.148.057 2.281-.037 3.369-.412 1.42-.49 2.66-1.272 3.63-2.454.744-.907 1.257-1.931 1.572-3.057.349-1.251.469-2.533.413-3.828-.06-1.385-.367-2.706-1.052-3.928-.712-1.269-1.722-2.216-3.008-2.86-1.452-.728-3.014-1.007-4.619-1.046-.868-.02-1.738.02-2.607.048zm-48.783 3.472l-.038.066c.057.04.111.089.173.121.427.225.86.44 1.283.67 1.136.62 2.134 1.41 2.908 2.46.84 1.138 1.32 2.406 1.063 3.83-.27 1.493-.8 2.889-1.994 3.91-.39.334-.818.637-1.27.874-1.062.556-2.229.72-3.407.754-.677.02-1.36-.032-2.035-.096-.629-.06-1.26-.145-1.876-.279-1.254-.272-2.464-.693-3.566-1.36-.673-.407-1.297-.9-1.936-1.363-.204-.148-.387-.325-.58-.489l-.056.055.064.098c.011.015.024.03.038.042.56.515 1.098 1.06 1.692 1.532 1.602 1.276 3.408 2.165 5.372 2.718 1.934.545 3.897.741 5.872.27 2.545-.609 4.38-2.085 5.337-4.58.584-1.523.558-3.014-.273-4.449-.518-.895-1.24-1.603-2.054-2.223-1.085-.827-2.281-1.46-3.517-2.022-.4-.182-.8-.36-1.2-.54zm-2.418-15.57c-.395.052-.792.104-1.18.189-1.275.28-2.465.78-3.588 1.442-1.098.647-2.088 1.425-2.951 2.378-.932 1.027-1.646 2.18-2.195 3.45-.713 1.647-1.04 3.386-1.114 5.167-.036.863.032 1.74.151 2.598.191 1.362.586 2.668 1.245 3.89.582 1.079 1.332 2.014 2.305 2.741 1.24.926 2.63 1.426 4.203 1.418 1.407-.007 2.612-.494 3.633-1.423 1.094-.997 1.65-2.233 1.428-3.757-.157-1.078-.698-1.962-1.463-2.675-.673-.627-1.461-1.128-2.188-1.697-.674-.528-1.317-1.088-1.876-1.747-.726-.856-1.21-1.828-1.508-2.907-.255-.919-.334-1.846-.164-2.786.152-.836.447-1.624.858-2.366.563-1.02 1.314-1.872 2.254-2.559.718-.525 1.5-.915 2.345-1.184l.033-.092c-.077-.028-.157-.09-.228-.08zM133.079 42.01l-3.483 7.457c2.247.132 4.448.216 6.693-.006l-3.21-7.451zm-14.844-.005l-3.484 7.46c2.25.137 4.454.214 6.696 0l-3.212-7.46z"/>
</svg>
