<svg xmlns="http://www.w3.org/2000/svg" width="184" height="100" viewBox="0 0 184 100">
    <path fill-rule="evenodd" d="M22.977 49.014c.157.033.334.031.47.103 2.374 1.26 4.76 2.51 6.68 4.42.653.65 1.216 1.383 1.31 2.33.133 1.32-.802 2.346-2.392 2.635-1.802.327-3.575.077-5.327-.352-.353-.086-.628-.053-.95.112-2.254 1.153-4.675 1.812-7.17 2.216-2.145.348-4.312.543-6.482.385-1.373-.1-2.755-.297-4.092-.616-2.051-.49-2.904-2.09-3.38-3.918-.282-1.083-.387-2.191-.015-3.286.373-1.098 1.174-1.559 2.345-1.375 2.456.384 4.723 1.347 7.034 2.177 3.492 1.253 6.984 2.51 10.478 3.76.249.088.532.095.768.204.784.36 1.379.04 1.964-.441 1.364-1.12 1.736-2.58 1.08-4.38-.43-1.174-1.116-2.201-1.92-3.16-.176-.21-.331-.434-.496-.652l.095-.162zm158.888-4.258l.151-1.258h1.894c.017.069.047.132.047.195-.006 3.825.073 7.653-.052 11.474-.081 2.49-1.592 4.374-4.261 4.912-2.322.467-4.502.21-6.4-1.283-.503-.395-.908-.907-1.428-1.438l1.989-.977c.791.976 1.82 1.578 3.059 1.741.727.096 1.499.13 2.215.003 1.489-.263 2.461-1.37 2.705-2.924.083-.53.1-1.068.16-1.77-1.583 1.233-3.27 1.643-5.118 1.425-1.89-.224-3.442-1.016-4.39-2.679-1.252-2.196-1.003-5.632 1.002-7.364 1.918-1.657 5.67-2.322 8.427-.057zm-108.36.29c.866.875 1.275 1.955 1.398 3.138.116 1.112.057 2.224-.337 3.288-.712 1.921-2.192 2.931-4.195 3.27-2.033.343-3.888-.014-5.514-1.526v4.624h-2.154V43.495h2.01l.117 1.294c.205-.144.366-.255.524-.368 2.36-1.683 6.15-1.393 8.15.625zM45.07 44.004c.8.336 1.487.805 1.94 1.634l-2.045.848c-.76-1.091-1.93-1.244-3.082-1.308-.747-.041-1.515.1-2.26.236-.477.087-.86.415-.885.924-.025.51.38.788.819.906 1.006.27 2.03.478 3.044.722 1.048.252 2.117.45 3.134.794 1.118.379 1.865 1.164 1.923 2.383.054 1.166-.483 2.08-1.443 2.75-1.003.702-2.173.94-3.366 1.034-1.461.115-2.917.068-4.301-.501-1.05-.432-1.894-1.085-2.427-2.17l1.963-.808c1.072 1.488 2.686 1.48 4.269 1.462.606-.007 1.22-.197 1.809-.373.29-.088.571-.296.784-.517.464-.48.393-1.098-.21-1.396-.53-.262-1.12-.43-1.702-.565-1.448-.339-2.91-.62-4.359-.958-.373-.087-.725-.28-1.07-.455-1.7-.856-1.559-3.135-.39-4.127.83-.703 1.825-1.026 2.878-1.112 1.693-.14 3.38-.074 4.977.597zm9.967-.763c.883.165 1.795.245 2.644.513 2.08.657 3.427 2.034 3.726 4.19.283 2.036-.002 3.957-1.677 5.442-.883.782-1.941 1.19-3.1 1.394-1.48.26-2.941.193-4.362-.28-2.308-.767-3.68-2.652-3.728-5.052-.056-2.758.991-4.529 3.257-5.504.938-.404 1.996-.6 3.24-.703zm70.416 1.568l.159-1.285c.066-.018.115-.042.165-.042.587-.003 1.174-.002 1.804-.002v11.335h-1.962l-.163-1.383c-1.676 1.341-3.58 1.674-5.626 1.273-1.385-.271-2.558-.927-3.406-2.068-1.644-2.215-1.372-5.875.567-7.692 2.064-1.934 6.025-2.276 8.462-.136zM93.38 44.79l.136-1.276h2.005v11.302h-1.992l-.157-1.37c-1.769 1.36-3.727 1.69-5.848 1.203-1.29-.297-2.371-.93-3.16-1.983-1.655-2.21-1.413-5.79.475-7.654 1.863-1.84 5.82-2.486 8.54-.222zm50.938-4.212v8.026c.455-.405.794-.696 1.12-1 1.394-1.293 2.776-2.597 4.184-3.874.183-.165.495-.258.751-.268.835-.034 1.671-.013 2.66-.013l-4.848 4.42 2.038 2.769 3.099 4.21c-.927 0-1.753.018-2.578-.016-.144-.006-.308-.208-.414-.353-1.116-1.527-2.222-3.062-3.33-4.594-.132-.181-.267-.36-.416-.56-.68.634-1.355 1.228-1.98 1.868-.171.176-.265.488-.274.741-.031.952-.012 1.905-.012 2.887h-2.152V40.578h2.152zm12.679 2.935V54.85h-1.854c-.085-.001-.17-.019-.277-.03V43.512h2.131zm-52.64-2.938v4.242c1.758-1.447 3.683-1.731 5.737-1.294 1.324.282 2.45.938 3.28 2.005 1.598 2.053 1.43 5.585-.243 7.48-1.626 1.841-5.711 2.793-8.755.463l-.139 1.358h-1.992V40.575h2.112zm-20.932 2.94v1.89c-.562.052-1.147.056-1.71.167-1.518.3-2.639 1.085-3.07 2.612-.074.262-.088.547-.089.821-.008 1.737-.004 3.474-.004 5.212v.609h-2.225V43.497c.618 0 1.235-.015 1.85.016.097.005.241.212.261.34.055.348.054.705.083 1.174 1.434-1.363 3.074-1.674 4.904-1.511zm82.23-.22c1.838.068 3.44.639 4.294 2.391.23.473.39 1.027.399 1.547.042 2.45.02 4.902.02 7.354 0 .066-.014.133-.025.231h-2.146v-.549c0-1.773.012-3.547-.007-5.32-.006-.535-.055-1.076-.157-1.602-.217-1.125-.935-1.783-2.083-2.031-1.583-.344-3.218.18-3.99 1.433-.305.494-.502 1.127-.52 1.704-.064 1.927-.025 3.858-.025 5.788v.584H159.2V43.504h1.927l.326 1.526c1.15-1.334 2.588-1.793 4.202-1.734zm-26.505 1.357c.776.725 1.135 1.659 1.153 2.669.043 2.484.014 4.969.014 7.491h-2.226v-.552c0-1.965.003-3.93 0-5.894-.005-1.832-.917-2.948-2.533-3.11-2.061-.208-3.746.792-4.152 2.476-.044.182-.039.379-.039.568-.002 2.156-.001 4.311-.001 6.509h-2.213V43.47c.548 0 1.065-.026 1.575.016.145.011.347.193.394.337.118.36.16.742.249 1.191.743-.837 1.609-1.386 2.666-1.575 1.882-.336 3.65-.155 5.113 1.212zm37.358.798c-1.725.551-2.59 1.911-2.513 3.948.073 1.936 1.5 3.365 3.557 3.564 1.916.186 3.746-.997 4.179-2.757.135-.55.125-1.133.202-1.916-.08-.291-.104-.832-.362-1.225-1-1.524-3.228-2.2-5.063-1.614zm-87.02-.199c-2.339-.008-3.94 1.525-3.964 3.797-.025 2.175 1.63 3.906 3.864 3.877 2.366-.032 3.952-1.187 4.008-3.892.046-2.24-1.589-3.774-3.908-3.782zm-20.613 0c-2.438 0-4.074 1.466-4.048 3.744.028 2.452 1.33 3.895 3.961 3.92 2.312.023 3.864-1.197 3.892-3.848.025-2.367-1.441-3.815-3.805-3.816zm38.954.014c-1.144.152-2.126.611-2.948 1.432-.621.62-.533 1.359-.523 2.076-.022.844-.057 1.664.441 2.39 1.173 1.71 4.156 2.512 6.165.806 1.28-1.087 1.63-3.099.868-4.699-.656-1.377-2.335-2.226-4.003-2.005zm13.687-.014c-2.297-.004-3.909 1.527-3.892 3.797.02 2.667 1.868 3.867 3.902 3.866 2.519-.002 3.926-1.442 3.948-3.882.02-2.268-1.577-3.777-3.958-3.781zm-67.044.102c-2.02.103-3.357 1.22-3.632 3.15-.269 1.886.512 3.78 2.872 4.254.615.123 1.268.149 1.897.113 2.251-.13 3.617-1.574 3.619-3.769.002-1.955-1.017-3.236-2.964-3.636-.58-.119-1.197-.142-1.792-.112zM5.597 40.479c.856.127 1.704.313 2.68.497-.228.158-.325.23-.428.295-1.89 1.185-2.44 2.725-1.681 4.781.45 1.222 1.175 2.287 2.02 3.281.145.17.21.404.311.61-.227-.038-.485-.02-.676-.122-2.155-1.145-4.313-2.297-6.107-3.961C1.172 45.354.682 44.746.33 44.1c-.742-1.353-.192-2.78 1.282-3.308.718-.257 1.516-.339 2.287-.408.56-.05 1.139.013 1.699.095zm18.206-2.205c.947.103 1.896.293 2.807.561 1.952.574 2.782 2.12 3.2 3.891.195.83.282 1.735.165 2.573-.255 1.826-1.224 2.48-3.023 1.964-2.459-.707-4.878-1.552-7.296-2.387-3.323-1.148-6.627-2.346-9.944-3.51-.424-.149-.875-.226-1.443-.37.338-.179.572-.32.82-.432 2.662-1.211 5.467-1.9 8.38-2.215 2.111-.23 4.224-.304 6.334-.075zm132.15 1.127c.815.005 1.469.633 1.46 1.404-.008.798-.677 1.433-1.504 1.426-.814-.006-1.446-.624-1.45-1.417-.005-.818.63-1.418 1.495-1.413z"/>
</svg>
