<svg xmlns="http://www.w3.org/2000/svg" width="184" height="38" viewBox="0 0 184 38">
    <path fill-rule="evenodd" d="M158.548 24.188c-.415 1.636-2.285 2.528-4.035 2.528-1.722 0-2.998-.922-2.998-2.379 0-1.457 1.455-2.468 3.265-2.468 1.365 0 2.641.209 3.768.595v1.724zM21.724.158L43.43 21.902l-2.652 2.657-3.33-3.337v.875c0 8.692-7.059 15.763-15.734 15.763-8.569 0-15.56-6.9-15.73-15.445l-.002-.318v-.875l-3.33 3.337L0 21.903l9.698-9.715V4.654h3.709v3.818L21.706.157l.009.01.009-.01zm-.01 5.303L9.69 17.508v4.59c0 6.643 5.394 12.047 12.024 12.047 6.53 0 11.861-5.242 12.021-11.746l.004-.3v-4.591L21.715 5.46zm117.678 7.817c4.066 0 7.033 3.33 7.033 8.026 0 4.727-2.967 8.058-7.033 8.058-2.19 0-3.97-.956-5.186-2.58l-.155-.215v7.552h-3.62V13.634h3.62v2.438c1.217-1.754 3.056-2.794 5.341-2.794zM28.996 21.753v.884c0 4.022-3.266 7.295-7.282 7.295-2.59 0-5.006-1.397-6.305-3.645l3.21-1.861c.637 1.104 1.824 1.79 3.095 1.79 1.97 0 3.574-1.606 3.574-3.58v-.883h3.708zm81.847-13.529v20.78h-3.62v-2.377c-1.217 1.724-3.056 2.735-5.312 2.735-4.065 0-7.033-3.33-7.033-8.058 0-4.697 2.968-8.026 7.033-8.026 2.162 0 3.941.927 5.157 2.523l.155.212V8.224h3.62zm69.035 1.189v4.22h3.472v3.004h-3.472v7.849c0 1.04.653 1.784 1.513 1.784.623 0 1.188-.239 1.514-.566l1.038 2.439c-.86.743-2.106 1.219-3.263 1.219-2.552 0-4.334-1.843-4.334-4.43v-8.295h-2.025c-3.294 0-5.49 1.695-5.49 4.608v7.76h-3.62V13.634h3.62v2.973c.953-1.996 2.864-2.92 5.29-2.969v-.004h2.225V9.413h3.532zm-107.437 0v4.22h3.472v3.004h-3.472v7.849c0 1.04.653 1.784 1.514 1.784.56 0 1.073-.193 1.408-.47l.105-.096 1.039 2.439c-.86.743-2.107 1.219-3.265 1.219-2.476 0-4.226-1.737-4.327-4.204l-.005-.226V9.412h3.531zm48.27 3.865c3.977 0 6.477 2.474 6.584 6.228l.004.253v9.246h-3.532v-1.843c-1.127 1.426-3.056 2.2-4.837 2.2-3.264 0-5.727-1.933-5.727-4.906 0-3.032 2.819-5.114 6.262-5.114 1.254 0 2.606.242 3.88.68l.422.153v-.416c0-1.784-.98-3.509-3.768-3.509-1.343 0-2.634.431-3.852 1.012l-.303.148-1.246-2.527c2.166-1.07 4.184-1.605 6.113-1.605zm34.781 0c3.977 0 6.477 2.474 6.584 6.228l.004.253v9.246h-3.532v-1.843c-1.127 1.426-3.056 2.2-4.837 2.2-3.264 0-5.727-1.933-5.727-4.906 0-3.032 2.819-5.114 6.262-5.114 1.254 0 2.606.242 3.88.68l.422.153v-.416c0-1.784-.98-3.509-3.768-3.509-1.343 0-2.634.431-3.852 1.012l-.303.148-1.246-2.527c2.166-1.07 4.184-1.605 6.113-1.605zm-73.597.356v9.068c0 2.08 1.335 3.568 3.234 3.568 1.832 0 3.36-1.189 3.68-2.74l.03-.174v-9.722h3.62v15.371h-3.62v-2.052c-.95 1.427-2.73 2.409-4.748 2.409-3.275 0-5.588-2.354-5.694-5.705l-.004-.241v-9.782h3.502zm-22.98-5.44c3.104 0 5.471 1.014 7.467 2.647l.247.207-2.017 2.735c-1.781-1.546-3.828-2.408-5.846-2.408-2.048 0-3.442 1.249-3.442 2.675 0 1.665 1.513 2.26 4.748 3.003 4.243.952 7.092 2.319 7.092 6.036 0 3.656-2.79 6.243-7.656 6.243-3.372 0-6.249-1.103-8.471-3.07l-.254-.23 2.137-2.646c1.87 1.694 4.035 2.765 6.706 2.765 2.522 0 3.828-1.249 3.828-2.705 0-1.695-1.454-2.26-4.718-3.033-4.214-.981-7.152-2.2-7.152-6.036 0-3.567 3.027-6.183 7.33-6.183zm61.084 13.675c-1.81 0-3.265 1.011-3.265 2.468s1.276 2.379 2.997 2.379c1.684 0 3.477-.825 3.982-2.342l.054-.186v-1.724c-1.127-.386-2.403-.595-3.768-.595zm-17.108-5.5c-2.582 0-4.422 2.052-4.422 4.935 0 2.884 1.84 4.966 4.422 4.966 2.552 0 4.332-2.082 4.332-4.966 0-2.883-1.78-4.935-4.332-4.935zm35.522 0c-2.552 0-4.332 2.052-4.332 4.935 0 2.884 1.78 4.966 4.332 4.966 2.582 0 4.422-2.082 4.422-4.966 0-2.883-1.84-4.935-4.422-4.935z"/>
</svg>
