<svg xmlns="http://www.w3.org/2000/svg" width="154" height="45" viewBox="0 0 154 45">
    <path fill-rule="evenodd" d="M71.283 7.68l1.504 7.674-7.14.562 1.315 6.74 6.953-.75 1.315 6.809-7.329 1.24 1.503 6.365 6.765-2.059 1.014 5.952-12.044 4.765-6.631-36.236 12.775-1.063zm22.925 7.3c1.662 6.314-1.936 10.701-2.063 10.853l-.004.004 5.184 6.406-7.084 2.803-4.301-5.84-1.315.375 1.343 7.218-5.821 2.241-5.105-31.735s1.863-.291 8.455-.561c6.197-.254 9.02 1.81 10.711 8.236zM40.902 3.213c5.653 1.541 9.139 3.858 11.593 6.526 2.47 2.687 5.949 8.923 6.011 14.414.063 5.49-1.88 7.986-6.951 6.738-2.845-1.025-4.229-1.643-4.318-1.683l-.004-.002 1.579 9.653-6.92-2.609-5.469-31.748 4.479-1.29zM146.548 9.2L154 33.84l-5.118 2.244-6.125-8.143-3.607-5.632 4.206 14.664-3.843-.841-6.817-25.404 3.848 1.195 2.693 4.863 6.25 8.637-4.063-13.975 5.124-2.25zm-25.764-2.172l8.905 2.767 1.537 5.372-4.622-1.436 1.239 4.057 4.636 1.478 1.54 5.196-4.673-1.433 1.268 4.33 4.746 1.474 1.977 6.824-8.96-1.96-7.593-26.67zm-7.413-2.304l4.815 1.497 7.471 26.882-4.888-1.069-7.398-27.31zm-79.58.536l-.076 3.722 2.243 13.86s1.967 10.102-5.073 8.985c-6.452-1.024-10.108-5.568-12.173-11.011-.303-1.376.385-10.97.411-11.325v-.01l5.076-1.46-.827 9.138c1.107 4.543 3.63 6.806 4.694 6.619 1.065-.187 1.754-1.373 1.504-2.995-.122-.787-.656-4.074-1.175-7.248l-.052-.317.565-6.553L33.79 5.26zM98.558.122l6.634 2.062c7.263 2.256 9.702 14.29 5.76 14.362 8.303 6.954 6.381 14.737.91 13.54l-5.852-1.28-5.192 2.055L94.357 3.3zM14 14.603c-1.855.462-3.495.967-3.727 1.039l-.029.009s-.056-1.7-2.103-1.499c-4.18 1.4-3.125 4.697-.182 3.823 2.943-.873 7.704-.873 8.269 2.434.563 3.306-3.257 5.802-5.45 7.3-2.157 1.473-7.467 4.88-8.95.413l-.07-.226 5.074-3.743s.088 2.238 2.819.748c1.691-1.186 2.192-4.055-1.692-2.62-3.883 1.434-6.827 1.184-7.703-1.124-.878-2.308.266-6.691 7.03-10.31 4.113-.642 5.982 1.571 6.714 3.756zm90.606 2.47l1.322 5.795c1.85.527 1.85.527 2.697.79 2.38.474 1.27-4.636-1.85-5.9-1.271-.422-2.17-.685-2.17-.685zM84.813 14.23c-1.617.18-2.032.53-2.065.56l-.002.002 1.315 8.424s2.506-.562 3.383-1.31c.876-.75 1.377-2.31.94-4.68-.44-2.372-1.88-3.183-3.571-2.996zm-40.774-2.433l1.878 9.733s1.504.874 2.82 1.311c1.314.437 3.194.433 2.254-3.436-.94-3.869-2.184-6.411-6.952-7.608zm57.625-5.711l1.454 5.235c1.574.506 2.437.81 2.437.81 1.675.455 2.335-2.985-1.32-5.16-1.574-.707-2.57-.885-2.57-.885z"/>
</svg>
