<svg xmlns="http://www.w3.org/2000/svg" width="184" height="100" viewBox="0 0 184 100">
    <path fill-rule="evenodd" d="M102.872 64.66c1.655.695 2.785 1.88 3.178 3.684.087.4.096.817.142 1.242-.64.26-1.236.117-1.816.142-.593.025-1.187.005-1.813.005-.083-.258-.166-.471-.22-.692-.231-.946-.823-1.552-1.733-1.837-.959-.3-1.935-.365-2.91-.085-.86.247-1.482.756-1.623 1.697-.102.678.098 1.27.727 1.592.527.269 1.09.485 1.659.65 1.193.347 2.405.628 3.6.97.621.177 1.24.384 1.83.646 3.985 1.773 3.504 6.751.94 8.66-.763.567-1.593.975-2.505 1.21-2.08.535-4.16.538-6.21-.118-1.834-.586-3.284-1.663-4.005-3.537-.272-.707-.456-1.44-.34-2.299h3.586c.062.231.136.448.178.671.197 1.064.813 1.807 1.782 2.211 1.452.606 2.932.577 4.395.018.467-.179.854-.487 1.102-.946.445-.823.325-1.751-.413-2.328-.44-.344-.967-.622-1.498-.792-1.133-.364-2.3-.617-3.442-.956-.793-.236-1.586-.492-2.345-.82-3.83-1.651-3.427-6.479-.74-8.312.894-.611 1.86-1.039 2.922-1.213 1.9-.312 3.774-.217 5.572.537zm-50.756-.285c.033.28.083.501.083.724.005 3.553.006 7.106 0 10.66-.002.996-.13 1.979-.43 2.933-.666 2.119-2.051 3.457-4.214 3.965-1.41.332-2.829.365-4.242.07-2.193-.458-3.678-1.762-4.315-3.936-.247-.843-.434-1.738-.447-2.612-.053-3.787-.032-7.576-.036-11.364 0-.102.023-.204.046-.388h.977v.884c0 3.344-.021 6.688.014 10.032.01.88.106 1.779.313 2.632.598 2.47 2.212 3.826 4.722 4.051.962.087 1.915-.003 2.85-.261 1.592-.44 2.663-1.444 3.242-2.998.427-1.145.531-2.34.536-3.543.014-3.266.005-6.532.005-9.798v-.992l.896-.059zm-20.307.102c1.92.679 3.085 2.04 3.463 4.066.034.18.055.362.066.543.005.098-.026.198-.047.336h-.885c-.045-.248-.081-.475-.127-.7-.295-1.48-1.085-2.601-2.46-3.22-1.984-.894-4.02-.958-6.04-.126-1.55.64-2.347 1.957-2.255 3.576.068 1.174.637 2.068 1.673 2.546.91.42 1.885.718 2.855.981 1.149.313 2.328.508 3.484.798.574.144 1.14.352 1.684.59 1.49.65 2.44 1.739 2.585 3.424.158 1.836-.433 3.342-1.972 4.405-.984.679-2.094 1.02-3.27 1.15-1.835.202-3.632.015-5.323-.755-2.123-.967-3.15-2.696-3.239-5.019-.003-.078.001-.157.011-.234.007-.05.03-.098.066-.209h.84c.035.317.074.622.102.928.137 1.446.777 2.63 2.024 3.346 2.39 1.373 4.917 1.586 7.464.483 1.447-.627 2.25-1.785 2.297-3.427.041-1.43-.58-2.455-1.806-3.128-1.13-.62-2.382-.86-3.62-1.14-1.086-.247-2.173-.489-3.248-.778-.496-.134-.982-.34-1.439-.58-2.48-1.298-2.981-4.616-1.02-6.641.71-.733 1.579-1.19 2.548-1.432 1.878-.468 3.754-.432 5.589.217zm104.315-.506c4.556-.051 7.896 2.975 8.608 7.612.29 1.89.183 3.747-.438 5.56-1.19 3.47-4.093 5.632-7.732 5.769-1.094.04-2.176-.053-3.227-.37-2.917-.884-4.756-2.87-5.64-5.76-.705-2.31-.646-4.635.093-6.934 1.131-3.517 4.128-5.968 8.336-5.877zm-70.945.68c2.005.887 2.956 2.507 3.125 4.77h-.939c-.062-.266-.128-.513-.177-.765-.294-1.528-1.162-2.617-2.565-3.22-1.834-.788-3.73-.855-5.614-.187-1.698.602-2.54 1.845-2.54 3.54 0 1.152.477 2.053 1.46 2.583.767.414 1.607.726 2.449.957 1.348.368 2.73.607 4.086.948.624.157 1.237.387 1.827.649 3.396 1.506 2.985 5.905.802 7.538-1.073.802-2.274 1.232-3.584 1.38-1.835.206-3.628.012-5.325-.746-2.168-.967-3.37-3.003-3.238-5.464h.891c.054.42.098.83.16 1.238.218 1.41.941 2.507 2.184 3.16 2.325 1.22 4.75 1.413 7.198.388 1.215-.509 2.02-1.424 2.295-2.766.33-1.604-.258-2.969-1.672-3.785-.934-.539-1.968-.791-3.005-1.026-1.162-.263-2.331-.497-3.485-.794-.598-.155-1.182-.387-1.75-.638-3.201-1.419-2.811-5.681-.632-7.192.782-.542 1.625-.927 2.557-1.083 1.873-.315 3.725-.265 5.492.516zm59.172-.248v17.924c-.567.176-2.776.213-3.802.053v-7.587c-.662-.191-6.405-.228-7.389-.056-.008.826-.02 1.677-.024 2.527-.004.836-.001 1.672-.001 2.508v2.686c-1.287.022-2.512.022-3.796-.003V64.39c1.258-.03 2.483-.019 3.808-.004v6.934h7.38v-6.889c1.328-.096 2.552-.067 3.824-.028zm31.588-.02c.566.004 1.142.07 1.695.19 2.571.567 4.156 2.396 4.319 5.045.045.744-.022 1.523-.195 2.248-.552 2.313-2.413 3.847-4.884 4.008-1.42.093-2.85.044-4.274.065-.305.004-.61.032-.985.054-.115 2.152.008 4.257-.077 6.465-1.26.023-2.485.02-3.768-.002V64.424c.28-.018.531-.048.783-.048 2.462-.004 4.924-.014 7.386.007zm-83.515-.003c.024.338.059.614.06.89.004 2.141 0 4.283.004 6.425 0 .28.024.56.039.893h11.551c.008-.91.018-1.787.021-2.665.004-.914.001-1.828.001-2.743v-2.73h.962v17.975h-.944v-8.87c-1.02-.09-1.97-.034-2.914-.044-.959-.01-1.918-.002-2.877-.002h-5.84v8.915l-.875.041c-.168-.605-.225-16.826-.064-18.038l.876-.047zm16.889-.006c.16 1.56.054 3.064.074 4.563.019 1.488.004 2.977.004 4.465v4.544c-.003 1.48-.009 2.96-.013 4.48h-.835c-.167-.62-.2-17.085-.03-17.999.224-.015.469-.03.8-.053zm46.684 2.853c-1.956.016-3.348.917-4.191 2.691-.537 1.13-.677 2.342-.715 3.464.001 1.276.225 2.494.618 3.392.827 1.891 2.287 2.87 4.32 2.876 2.03.006 3.55-.928 4.336-2.84.945-2.3.912-4.643-.093-6.916-.808-1.83-2.29-2.684-4.275-2.667zm15.761.222c-.04 0-.079.06-.143.113v5.378c1.29 0 2.48.011 3.667-.006.334-.005.671-.07.998-.147 1.896-.442 2.664-3.08 1.322-4.519-.491-.526-1.136-.773-1.81-.802-1.342-.058-2.689-.02-4.034-.017zM90.955 18c9.87-.052 17.956 8.07 18.052 18.033.09 9.234-7.135 17.795-17.573 17.842-10.383.046-18.013-8.469-18.098-17.98C73.253 26.57 80.571 18.088 90.955 18zm-.396 27.238c-2.538 1.483-5.275 1.946-8.168 1.505-.466-.07-.93-.154-1.507-.25 5.718 6.083 15.96 5.615 20.913-.093-.39.072-.68.12-.966.181-3.197.696-6.237.295-9.077-1.367-.45-.264-.76-.23-1.195.024zM87.706 21.35c-9.247 2.122-14.147 12.295-9.842 21.105.141.29.367.593.634.757 3.365 2.064 6.856 2.335 10.462.679.173-.08.32-.218.487-.335-6.248-6.466-3.532-15.73 1.786-19.272 2.65 2.04 4.398 4.685 5.029 8.003.818 4.303-.34 8.059-3.417 11.284.382.205.682.403 1.008.534 3.588 1.435 7.005 1.065 10.23-1.045.301-.197.547-.557.699-.896 1.227-2.744 1.575-5.617 1.066-8.575-1.47-8.541-9.77-14.16-18.142-12.239zm3.431 5.583C86.676 31 86.631 38.649 91.173 42.3c4.89-3.92 4.156-11.957-.036-15.367zm.001 3.346c.593-.004 1.023.442 1.008 1.046-.013.538-.414.942-.936.942-.563 0-1.035-.488-1.022-1.06.012-.532.413-.924.95-.928z"/>
</svg>
