<svg xmlns="http://www.w3.org/2000/svg" width="118" height="49" viewBox="0 0 118 49">
    <path fill-rule="evenodd" d="M82.661 0l10.427 22.374h-3.543l-1.423-3.892H75.264l-.012.025c-2.716 5.128-8.823 17.09-9.01 17.457l-.005.009 3.994 7.243c.677 1.007 1.317 1.675 1.87 2.004.483.289.97.436 1.397.442l.178-.006 1.002-.03v3.336h-1.336c-.503 0-.983-.081-1.437-.14-.456-.057-.906-.25-1.351-.473-.446-.222-.9-.554-1.365-1.01-.407-.397-.828-.922-1.265-1.592l-.187-.296-3.371-6.532-5.75 10.043h-3.07V26.913h3.243v16.449L80.404 2.584 79.176 0h3.485zM4.448 27.183v18.473h8.966v3.195H1.282V27.183h3.166zm17.38 0v21.668H18.72V27.183h3.107zm9.17 0L44.91 43.74V27.183h3.166v21.668h-3.131l-12.408-14.9v14.9h-3.108V30.233l-2.527-3.05h4.095zm62.898 0v3.195H81.814l-.001 5.751h-.094v3.195h.094v6.332h13.361v3.195H78.648V27.183h15.248zm15.47 0c.99 0 1.901.141 2.735.422.834.28 1.557.692 2.168 1.234.61.542 1.085 1.21 1.425 2.004.34.794.51 1.704.51 2.73 0 1.646-.446 2.992-1.334 4.037-.889 1.046-2.12 1.763-3.692 2.15l1.685 3.456c.352.504.654.91.908 1.22.254.31.499.557.733.74.235.185.479.31.733.378s.557.102.908.102l1.017-.03v3.225c-.62 0-1.245-.02-1.875-.058-.631-.04-1.238-.164-1.82-.378-.581-.213-1.134-.552-1.658-1.016-.524-.465-.99-1.123-1.397-1.976l-2.648-5.547h-6.628l-.007.842v8.133h-3.166V27.183h11.404zM90.644 36.13v3.195h-8.83v-3.195h8.83zm18.705-5.75h-8.219v6.302h8.22c1.104 0 1.994-.259 2.672-.777.677-.518 1.016-1.352 1.016-2.504 0-.556-.097-1.026-.29-1.41-.194-.384-.455-.696-.784-.935-.33-.24-.717-.412-1.162-.518-.446-.106-.93-.159-1.453-.159zM3.166.406v13.224c0 1.876.57 3.301 1.71 4.278 1.14.976 2.762 1.464 4.869 1.464 2.105 0 3.728-.488 4.868-1.464 1.14-.977 1.71-2.402 1.71-4.278V.407h3.166v13.245c0 2.846-.848 5.044-2.545 6.593-1.697 1.55-4.097 2.323-7.2 2.323-3.102 0-5.502-.774-7.199-2.323S0 16.498 0 13.652V.407h3.166zm33.797 0c.989 0 1.9.14 2.735.421.833.281 1.556.693 2.167 1.235.61.542 1.086 1.21 1.425 2.004.34.794.51 1.704.51 2.73 0 1.646-.446 2.992-1.334 4.037-.889 1.046-2.12 1.763-3.691 2.15l1.684 3.456c.352.504.654.91.908 1.22.254.31.499.557.733.74.235.185.479.31.733.378s.557.102.908.102l1.017-.03v3.225c-.62 0-1.245-.02-1.875-.059-.631-.038-1.237-.164-1.82-.377-.581-.213-1.134-.552-1.658-1.017-.524-.465-.99-1.123-1.396-1.975L35.36 13.1h-6.594l-.04.842v8.133h-3.167V.407h11.404zm62.399 0l13.912 16.555V.407h3.166v21.668h-3.131l-12.408-14.9v14.9h-3.108V3.457L95.266.407h4.096zm-38.426 0c.91 0 1.757.131 2.541.393.785.262 1.462.645 2.034 1.15.57.504 1.016 1.124 1.336 1.861.32.737.48 1.581.48 2.532 0 .93-.166 1.774-.495 2.531-.33.757-.813 1.338-1.452 1.745.37.175.743.421 1.114.74.371.32.694.71.968 1.175.274.464.498.995.674 1.595.176.6.265 1.276.265 2.03 0 1.082-.219 1.996-.656 2.74-.436.744-1.008 1.353-1.716 1.827s-1.507.817-2.4 1.03c-.892.212-1.783.319-2.676.319H49.957V.407h10.98zm.01 12.17h-7.873l.05.867v5.436h8.142c.425 0 .874-.063 1.348-.188.472-.126.902-.318 1.289-.578.386-.26.705-.588.956-.984.25-.394.377-.862.377-1.402 0-.636-.126-1.156-.377-1.561s-.58-.723-.985-.954c-.406-.231-.865-.395-1.377-.491-.512-.097-1.028-.145-1.55-.145zm15.548 3.671l-1.816 2.234h.586l.113-.21c.57-1.074.971-1.807 1.106-2.006l.011-.018zm.522-.684h-.068l-.348.776.416-.776zm-.492.65c-.004.002-.01.008-.016.017l-.014.017.03-.035zm5.33-9.664l-4.838 9.014h9.682L81.854 6.55zM28.725 9.904h-.091l.091.85v-.85zm24.397-.523h-.05l.051.865-.001-.865zM36.945 3.602h-8.22v6.302h8.22c1.104 0 1.994-.258 2.672-.776.678-.518 1.017-1.352 1.017-2.504 0-.556-.098-1.026-.291-1.41-.194-.384-.455-.696-.784-.936-.33-.239-.717-.412-1.162-.518-.446-.105-.93-.158-1.452-.158zm24 0h-7.822l-.001 5.779h7.823c.984 0 1.766-.247 2.346-.744.58-.495.87-1.25.87-2.262 0-1.03-.3-1.75-.9-2.16-.598-.408-1.37-.613-2.316-.613z"/>
</svg>
