<svg xmlns="http://www.w3.org/2000/svg" width="184" height="100" viewBox="0 0 184 100">
    <path fill-rule="evenodd" d="M43.675 54.135l-3.467 8.39h6.846l-3.379-8.39m72.61-4.806c4.475.486 7.653 3.697 8.712 7.737.961 3.67.53 7.167-1.592 10.346-1.669 2.5-4.04 4.003-7.05 4.426-.53.074-1.068.096-1.602.142-2.597-.025-4.96-.696-6.935-2.437-1.614-1.422-2.599-3.234-3.082-5.31-.678-2.919-.603-5.789.6-8.588 1.864-4.339 6.242-6.827 10.949-6.316zm-79.614.564c-.037.16-.048.288-.096.4-.808 1.908-1.712 3.78-2.415 5.726-1.788 4.95-3.487 9.932-5.22 14.902-.247.711-.24.714-1.013.711-.948-.003-.95-.002-1.268-.91-1.867-5.319-3.724-10.64-5.605-15.954-.48-1.355-1.025-2.689-1.566-4.022-.099-.244-.322-.437-.488-.654v-.196h3.814c-.06.335-.189.64-.15.922.118.86.208 1.742.474 2.562 1.54 4.742 3.127 9.468 4.699 14.2.04.12.093.235.174.438.081-.157.139-.24.17-.331 1.241-3.718 2.494-7.432 3.713-11.157.513-1.567.999-3.146 1.403-4.743.148-.585.024-1.238.024-1.894h3.35zm94.192-.003l10.66 16.695.137-.032c.009-.147.024-.293.024-.44-.002-4.465.007-8.93-.02-13.395-.005-.95-.02-1.927-.71-2.807h3.21c-.926 1.363-.622 2.904-.653 4.39-.035 1.645-.002 3.291.004 4.937.012 2.933.003 5.865.05 8.797.019 1.185.214 2.356.792 3.546-.393 0-.738.005-1.084-.001-.228-.004-.465-.07-.681-.027-.702.142-1.038-.216-1.33-.795-1.567-3.098-3.584-5.92-5.482-8.813-1.445-2.202-2.926-4.38-4.393-6.567-.132-.198-.274-.391-.508-.56v2.414c0 3.846-.005 7.691.002 11.537 0 .438.006.892.117 1.31.124.467.37.902.57 1.366h-3.22c.844-.964.739-2.11.743-3.212.02-4.856.013-9.712.008-14.568 0-.536-.018-1.077-.092-1.607-.113-.812-.495-1.506-1.207-2.168h3.063zm-55.494-.005c2.506.108 4.73 1.652 5.206 4.246.401 2.193-.364 3.997-2.008 5.451-.877.775-1.904 1.294-3.01 1.663-.163.055-.324.117-.557.202 2.735 3.397 5.24 6.903 8.342 9.933-1.35.487-2.887.05-3.966-1.21-2.37-2.77-4.702-5.57-7.05-8.36-.048-.056-.1-.11-.207-.23-.026.2-.055.319-.056.438-.017 2.33-.04 4.659-.036 6.988.001.482.076.971.18 1.443.075.335.257.645.404.998h-3.429c.174-.447.455-.877.495-1.33.107-1.177.144-2.363.146-3.546.008-4.154-.005-8.309-.022-12.463-.004-.94-.012-1.884-.11-2.817-.048-.46-.307-.899-.49-1.4.094-.008.219-.029.344-.029 1.942 0 3.886-.06 5.824.023zm-16.176.011c-.654 1.478-.544 2.998-.546 4.502-.007 5.019-.003 10.038-.003 15.057v.562c2.185.117 4.31.699 6.383-.2.656-.285 1.253-.708 1.933-1.1-.234.587-.457 1.167-.694 1.74-.427 1.033-.43 1.032-1.543 1.032l-8.273.003h-.697c.175-.34.378-.588.432-.866.134-.682.276-1.377.28-2.067.023-5.28.018-10.56.015-15.84v-.44c-.006-.81-.06-1.619-.548-2.383h3.26zm30.215 0c-.954 1.185-.659 2.553-.656 3.878.004 1.679-.008 3.357-.013 5.035v.707c.192.015.333.035.474.036 2.905.001 5.81-.008 8.716.01.448.002.572-.123.565-.576-.037-2.232-.018-4.465-.058-6.697-.014-.822-.063-1.663-.77-2.374h3.992c-.91 1.014-.848 2.249-.85 3.454-.01 5.2-.008 10.399.009 15.598.001.498.083 1.009.22 1.487.097.34.35.635.564 1.001h-3.904c.976-1.227.778-2.627.782-3.989.006-1.94.004-3.88.01-5.819 0-.265.002-.476-.369-.475-3.052.01-6.104.008-9.156.012-.046 0-.092.021-.183.044-.008.166-.022.34-.024.513-.03 2.28-.065 4.56-.083 6.841-.004.52-.005 1.052.101 1.555.093.44.34.847.529 1.294h-3.622c.795-.94.765-2.033.766-3.116.002-4.662.001-9.323 0-13.985 0-.665.012-1.331-.006-1.996-.024-.86-.06-1.723-.809-2.439h3.775zm-45.499-.589c.129.003.309.194.37.343 1.39 3.338 2.764 6.683 4.147 10.024 1.308 3.162 2.6 6.33 3.95 9.473.345.805.879 1.53 1.332 2.303h-3.895c.89-.65.458-1.345.192-1.993-.695-1.695-1.424-3.375-2.16-5.053-.06-.135-.277-.286-.421-.287-2.527-.021-5.055-.025-7.582-.015-.145 0-.372.113-.422.232-.724 1.732-1.732 3.35-2.123 5.214-.086.41-.135.835-.125 1.251.005.198.189.392.318.636h-3.502c0-.035-.02-.105.003-.155 1.117-2.397 2.282-4.772 3.348-7.191 1.733-3.934 3.401-7.895 5.095-11.845.37-.866.721-1.74 1.104-2.6.066-.147.247-.34.371-.337zm112.314.018c.09-.021.298.196.36.345 1.893 4.553 3.774 9.11 5.658 13.668.799 1.932 1.57 3.877 2.416 5.789.356.805.874 1.54 1.327 2.32h-3.947c.907-.593.571-1.238.318-1.846-.73-1.75-1.48-3.494-2.244-5.231-.059-.134-.28-.28-.425-.28-2.48-.018-4.96-.018-7.441-.002-.176.002-.452.11-.512.244-.745 1.672-1.693 3.261-2.113 5.065-.098.423-.157.864-.159 1.296 0 .238.157.476.256.75h-3.456c.48-.979.97-1.892 1.386-2.839 1.68-3.835 3.346-7.678 5.003-11.524 1.06-2.458 2.09-4.928 3.15-7.387.07-.16.26-.329.423-.368zm-48.309 5.904c-.767 1.598-1.077 3.291-1.055 4.8-.02 2.145.366 3.957 1.18 5.668.843 1.766 2.04 3.217 3.875 4.023 3.48 1.527 7.561.109 9.476-3.252 1.757-3.084 1.724-6.328.85-9.63-.462-1.748-1.34-3.27-2.828-4.382-1.185-.884-2.535-1.285-3.989-1.388-3.23-.23-6.035 1.09-7.509 4.161zm48.047-1.077l-3.474 8.4h6.876l-3.402-8.4zM74.115 51.2c-.673.018-1.347.004-2.033.004v9.124c1.368.008 2.605-.271 3.749-.897 3.217-1.758 2.855-5.995.486-7.566-.665-.44-1.39-.687-2.202-.665zm4.36-8.148v1.363H55.817v-1.363h22.656zm29.57-.039l21.44-.006c.162 0 .323.016.52.026v1.382h-22.788c0-.387-.018-.771.013-1.152.008-.089.17-.209.28-.235.17-.04.356-.015.535-.015zm-.719-5.531c1.636.262 3.266.56 4.9.844.111.02.235.019.33.07.146.075.377.184.381.287.007.159-.107.401-.241.472-.545.288-1.105.553-1.68.77-1.352.513-2.719.965-4.174 1.112-1.28.129-2.437-.204-3.58-.734-.923-.429-1.858-.861-2.83-1.154-1.54-.464-2.91.059-4.16.966-.081.06-.129.166-.24.312.21.06.355.13.503.14 2.52.177 4.664 1.303 6.726 2.64.12.079.223.192.319.302.257.297.214.523-.164.604-1.913.41-3.786.483-5.46-.785-.531-.401-1.03-.856-1.593-1.204-.769-.474-1.608-.68-2.517-.374-.162.054-.365-.017-.55-.03.05-.193.037-.453.16-.569.9-.847 1.807-1.688 2.75-2.487 1.51-1.278 3.314-1.718 5.252-1.78 1.986-.065 3.925.286 5.868.598zm-17.204 1.78c.578.55 1.177 1.078 1.762 1.62.107.098.226.203.284.33.07.151.08.33.117.496-.151.032-.325.13-.45.087-1.539-.54-2.71.2-3.751 1.152-1.394 1.275-3.017 1.572-4.807 1.364-.338-.04-.68-.083-1.01-.167-.153-.039-.372-.156-.4-.276-.03-.13.085-.365.208-.449.63-.429 1.264-.857 1.93-1.224 1.386-.764 2.841-1.356 4.424-1.58.353-.05.708-.09 1.174-.147-.164-.198-.219-.297-.301-.358-1.389-1.034-2.916-1.441-4.59-.863-.87.3-1.715.693-2.535 1.114-1.629.836-3.313.898-5.02.386-1.317-.394-2.601-.9-3.9-1.359-.076-.027-.168-.05-.217-.107-.153-.174-.289-.364-.43-.548.185-.128.356-.333.56-.37 1.53-.29 3.063-.57 4.603-.805 1.637-.25 3.277-.506 4.925-.65 2.784-.243 5.33.365 7.424 2.354zm6.354-12.066c1.333.392 2.724 1.734 2.192 3.474-.2.649-.446 1.283-.67 1.924-.088.252-.171.504-.257.756l.12.134c.264-.119.526-.242.792-.354.774-.326 1.527-.734 2.331-.948 1.13-.3 2.217.14 3.296.434.373.101.743.243 1.081.428.502.274.51.714.02 1.004-1.349.797-2.812 1.249-4.371 1.4-.922.09-1.85.158-2.762.31-.953.16-1.665.78-2.354 1.411-.888.814-1.791 1.61-2.67 2.434-.31.29-.56.286-.864.008-.732-.67-1.478-1.326-2.216-1.99-.339-.305-.676-.612-1.01-.923-.928-.866-2.085-1.083-3.29-1.146-1.338-.07-2.66-.224-3.918-.7-.575-.219-1.133-.488-1.672-.783-.18-.1-.404-.368-.382-.527.03-.21.245-.49.446-.564.742-.276 1.51-.487 2.272-.712 1.445-.428 2.76-.055 4.014.668.212.122.414.264.636.362.151.065.33.069.495.1-.01-.165.016-.342-.036-.493-.258-.75-.575-1.481-.8-2.24-.526-1.77.901-3.07 2.166-3.456.495-.151.65.02.593.55-.137 1.288-.449 2.587-.373 3.862.16 2.706 1.291 4.995 3.49 6.733 1.738-1.287 2.686-3.005 3.258-4.97.492-1.69.33-3.374-.034-5.059-.045-.206-.074-.416-.092-.626-.039-.467.12-.632.569-.5zM92.843 23c1.218 1.576 1.746 3.391 1.78 5.351.046 2.56-.292 5.053-1.485 7.367-.094.183-.214.353-.353.58-.665-1.007-1.049-2.07-1.33-3.168-.453-1.76-.617-3.562-.48-5.368.132-1.737.639-3.375 1.77-4.762h.098z"/>
</svg>
