<svg xmlns="http://www.w3.org/2000/svg" width="184" height="100" viewBox="0 0 184 100">
    <path fill-rule="evenodd" d="M52.98 34.227c2.133.254 4.036 1.032 5.675 2.437.339.29.466.57.321 1.027-.218.689-.356 1.403-.556 2.22-.201-.22-.332-.356-.456-.499-1.073-1.231-2.233-2.363-3.657-3.194-1.411-.824-2.846-1.074-4.414-.391-1.151.502-2.27 1.02-3.144 1.95-1.318 1.404-1.69 3.654-.884 5.383.076.163.19.31.3.454 2.329 3.064 4.662 6.125 6.99 9.19.94 1.238 1.866 2.488 2.368 3.992l.141.029c.098-.159.207-.312.293-.477 2.452-4.684 4.902-9.37 7.355-14.055.082-.156.17-.375.307-.424.338-.122.554-.023.655.403 1.067 4.482 2.138 8.963 3.255 13.433.367 1.472.87 2.91 1.331 4.435-.737.044-1.537.106-2.337.121-.093.002-.235-.24-.278-.39-.644-2.28-1.267-4.566-1.915-6.845-.308-1.081-.03-.865-1.168-.9-.995-.032-1.992-.012-2.987-.053-.37-.015-.555.098-.714.435-1.379 2.923-2.773 5.839-4.172 8.753-.715 1.49-1.625 2.842-2.826 4-1.114 1.072-2.47 1.523-3.959 1.65-3.671.314-6.754-1.033-9.45-3.416-.11-.097-.158-.348-.125-.503.083-.388.229-.761.35-1.14l.37-1.152c-2.244-.015-4.338-.47-6.276-1.637-.067.331-.099.63-.196.907-.046.13-.215.31-.329.31-3.187.012-6.373.002-9.56-.005-.014 0-.028-.017-.081-.05 0-.051-.025-.137.003-.2.318-.724.274-1.489.274-2.25-.003-4.745-.002-9.49-.002-14.234v-.56l-.214-.049-8.475 18.127-.12-.002c-.045-.144-.101-.286-.134-.433-1.161-5.175-2.318-10.35-3.485-15.524-.038-.168-.17-.315-.257-.472-.144.118-.323.212-.427.36-1.156 1.64-2.3 3.289-3.448 4.935-.549.787-.868 1.663-1.099 2.592-.892 3.586-1.833 7.16-2.706 10.75-.224.919-.268 1.88-.402 2.878H.042c-.019-.046-.05-.085-.04-.105.858-1.797.959-3.779 1.36-5.684.56-2.66 1.103-5.327 1.515-8.012.172-1.127.127-2.33-.057-3.46-.704-4.335-1.502-8.654-2.279-12.976-.059-.33-.23-.64-.38-1.038.845 0 1.664-.014 2.482.018.09.004.215.257.25.41.533 2.343 1.055 4.69 1.58 7.034l1.512 6.772c.163-.234.27-.382.37-.534 2.906-4.422 5.815-8.84 8.706-13.271.22-.339.452-.46.843-.444.71.029 1.423.008 2.26.008-.163.238-.261.396-.374.542-1.467 1.907-2.93 3.815-4.408 5.714-.2.256-.267.487-.203.815.891 4.589 1.767 9.18 2.649 13.77.024.126.061.25.121.488.287-.673.531-1.243.772-1.814 1.7-4.031 3.401-8.062 5.096-12.096.117-.278.224-.458.593-.457 3.287.018 6.574.01 9.86.012.113 0 .226.017.326.025v1.895l-6.411-1.093-.314 7.67h6.814c-.025.473-.012.853-.083 1.217-.021.113-.267.262-.41.262-1.975 0-3.95-.024-5.925-.041-.194-.002-.387 0-.606 0v7.245c1.498 0 2.97.044 4.438-.019.736-.031 1.469-.239 2.195-.404.572-.13.972-.458 1.087-1.085.056-.305.2-.593.336-.975.152.146.256.258.373.355.773.647 1.483 1.397 2.337 1.912 2.016 1.217 3.916.52 5.344-1.157.46-.54.466-1.212.104-1.772-.453-.702-.95-1.424-1.58-1.955-1.075-.903-2.21-1.768-3.43-2.457-1.28-.724-2.079-1.781-2.66-3.045-.81-1.764-.61-3.454.561-5.013 1.548-2.058 3.719-2.735 6.182-1.908.562.19 1.097.462 1.686.714.054-.405.098-.825.169-1.24.226-1.343.805-2.526 1.703-3.54 2.259-2.55 5.094-3.6 8.475-3.199zm53.969.882c-.245 1.055-.465 2.02-.692 2.982l-5.997 25.457-.028.095c-.233 1.279-.141 1.299 1.055 1.311 4.217.045 8.373-.52 12.526-1.146.161-.025.323-.042.636-.083-.464.848-.85 1.575-1.265 2.287-.056.096-.248.16-.377.16-5.213.007-10.426.005-15.638.002-.064 0-.127-.026-.232-.05.13-.336.29-.644.372-.972.506-2.041 1.034-4.078 1.481-6.132 1.072-4.923 2.099-9.856 3.16-14.782.092-.423.031-.628-.42-.727-1.597-.349-3.213-.386-4.93-.4 0 1.131.014 2.206-.002 3.28-.064 4.395-.14 8.79-.198 13.186-.005.38-.104.529-.507.509-.662-.032-1.326-.009-2.076-.009-.07-5.657-.142-11.283-.213-16.955-.948 0-1.857-.033-2.762.015-.389.02-.609.292-.627.75-.226 5.653-.469 11.304-.722 16.955-.008.186-.124.438-.272.533-.29.187-.431-.11-.58-.299L76.727 45.877l-.434-.547v.861c.02 4.496.033 8.992.075 13.487.005.517-.144.675-.643.626-.423-.04-.854-.008-1.185-.008.083-.97.205-1.887.233-2.806.127-4.245.213-8.491.354-12.735.024-.728-.154-1.331-.567-1.9-.22-.3-.425-.613-.707-1.022.904 0 1.697.054 2.48-.015.73-.065 1.154.201 1.584.79 3.4 4.645 6.84 9.261 10.268 13.886.083.112.178.216.382.298v-15.02c1.173 0 2.265.013 3.356-.001 3.352-.044 6.705-.105 10.058-.136.424-.004.656-.125.72-.542.264-1.735.548-3.467.784-5.205.1-.73.066-.776.704-.78h2.76zM37.4 42.649c-1.544.72-2.184 2.764-1.283 4.203.393.628.943 1.217 1.549 1.643 1.834 1.289 3.716 2.517 5.202 4.22.446.51.88 1.132 1.039 1.772.521 2.106-.179 3.856-1.873 5.19-.49.385-1.054.676-1.63 1.039.256.825.737 1.492 1.316 2.096 1.026 1.07 2.266 1.831 3.605 2.439.252.115.528.211.801.243 1.115.129 2.213.043 3.3-.267 2.805-.8 5.065-4.604 3.425-7.664-.513-.956-1.11-1.897-1.824-2.709-3.24-3.69-6.543-7.324-9.806-10.994-.674-.759-1.51-1.198-2.473-1.363-.432-.074-.956-.03-1.348.153zm117.01-.826c.441-.003.586.116.556.556-.036.555-.008 1.114-.008 1.72-2.088-.736-4.2-.879-6.394-1.135v7.548h6.298v1.326h-6.338v7.429c2.592-.04 5.094-.361 7.7-.964-.266.685-.466 1.27-.728 1.825-.053.112-.336.16-.513.161-2.423.01-4.847.007-7.27.007h-.633l3.155 3.15-.057.14c-.248-.032-.502-.04-.744-.099-1.877-.453-3.365-1.552-4.657-2.92-2.667-2.82-5.3-5.674-7.946-8.515-.066-.071-.123-.15-.233-.285.187-.065.337-.106.476-.169.887-.4 1.851-.689 2.643-1.23 2.205-1.504 2.111-3.945 1.332-5.574-.722-1.51-2.371-2.304-4.217-2.111-.116.012-.232.045-.346.04-.397-.018-.491.188-.502.55-.059 2.073-.14 4.145-.211 6.217-.114 3.315-.236 6.63-.328 9.946-.014.488-.173.622-.64.597-.693-.038-1.39-.01-2.11-.01.077-.58.195-1.112.21-1.647.141-5.007.278-10.014.374-15.022.009-.478-.266-.962-.423-1.49.103-.008.257-.029.412-.03 2.091-.001 4.183-.007 6.274.002 1.05.005 2.03.274 2.932.826 1.295.793 2.207 2.826 1.677 4.43-.712 2.154-1.967 3.734-4.179 4.449-.076.025-.147.065-.302.134l6.354 7.47c.038-.112.065-.154.064-.195-.106-5.058-.203-10.115-.335-15.173-.016-.626-.214-1.247-.336-1.916.068-.005.223-.026.379-.026 2.872-.002 5.743.008 8.615-.012zm5.686.799c3.367 4.708 6.773 9.388 10.168 14.076.093.129.193.251.37.48V41.872h13.299v1.554l-4.917-.404c0 .92.02 1.71-.003 2.501-.14 4.725-.297 9.45-.426 14.174-.012.47-.135.644-.619.607-.54-.04-1.086-.009-1.72-.009V43.034c-1.18 0-2.272-.02-3.362.01-.41.01-.74.533-.759 1.091-.067 2.023-.13 4.045-.192 6.068-.109 3.58-.214 7.161-.33 10.742-.004.163-.096.322-.147.484-.193-.093-.449-.135-.569-.286-1.9-2.388-3.784-4.79-5.672-7.188l-6.496-8.25c-.05-.063-.106-.121-.159-.182l-.136.028v14.703h-1.607c.12-5.302.234-10.583.364-15.864.01-.437-.077-.8-.345-1.149-.317-.413-.59-.861-.959-1.408.971 0 1.813.057 2.644-.016.737-.065 1.15.214 1.573.805zm-30.708-.797c.558.034 1.12.009 1.664.009.024.084.05.124.04.146-.599 1.187-.528 2.48-.583 3.748-.127 2.866-.248 5.733-.342 8.6-.043 1.28-.3 2.502-.838 3.657-.878 1.892-2.399 2.961-4.453 3.118-1.915.146-3.393-.734-4.439-2.332-.645-.986-1.024-2.024-1.045-3.25-.07-4.129-.223-8.256-.371-12.382-.015-.409-.21-.81-.338-1.272h2.96c.014.215.038.425.04.636.018 4.378.035 8.756.051 13.135.007 1.653 1.143 3.045 2.864 3.503 1.37.365 2.791-.322 3.6-1.757.429-.762.668-1.567.667-2.462-.005-4.196.025-8.392.026-12.588 0-.385.09-.534.497-.51zm-57.413.066c0 .488-.003.994 0 1.5.04 5.406.074 10.812.13 16.218.004.435-.11.58-.547.577-.591-.003-1.182.067-1.956.117 0-2.213.023-4.317-.006-6.42-.047-3.383-.104-6.766-.218-10.146-.02-.613-.332-1.215-.516-1.846h3.113zm41.45-.609c.15.056.292.273.335.443 1.502 5.89 2.993 11.785 4.484 17.679.04.156.07.314.133.602-.796 0-1.521.02-2.243-.02-.11-.005-.253-.264-.3-.428-.674-2.34-1.354-4.679-1.98-7.031-.142-.53-.365-.662-.879-.643-1.094.041-2.19.029-3.285.003-.344-.008-.491.12-.624.416-1.076 2.404-2.177 4.797-3.248 7.204-.152.34-.335.477-.704.461-.59-.025-1.184-.007-1.79-.007 2.814-4.829 5.223-9.83 7.727-14.781.598-1.183 1.19-2.369 1.761-3.565.14-.294.339-.436.614-.333zm-51.062 4.854l-2.073 4.397h3.236l-1.163-4.397zm49.585-.21l-2.1 4.576h3.397l-1.297-4.577z"/>
</svg>
