<svg xmlns="http://www.w3.org/2000/svg" width="184" height="100" viewBox="0 0 184 100">
    <path fill-rule="evenodd" d="M113.569 88.907c.65-.002.839.176.832.837-.034 3.119-.028 6.238-.004 9.357.004.57-.113.796-.738.795-14.975-.016-29.95-.015-44.925-.001-.565 0-.727-.173-.723-.736.023-3.165.028-6.33-.003-9.493-.006-.62.194-.758.77-.756 7.5.017 14.998.011 22.497.011 7.431 0 14.863.009 22.294-.014zm-11.427 1.823c-1.477.03-2.682.795-3.02 2.065-.19.71-.204 1.478-.224 2.222-.033 1.276.421 2.354 1.594 2.934 1.25.617 2.541.61 3.71-.23.433-.312.749-.79 1.131-1.208-.9-.627-.897-.624-1.519.05-.684.74-1.53.8-2.421.521-.766-.24-1.19-.925-1.207-1.86-.009-.432 0-.864-.003-1.297-.006-.875.322-1.557 1.14-1.918.812-.359 1.893-.2 2.416.506.493.665.91.573 1.474.127-.455-1.218-1.633-1.942-3.071-1.912zm-24.4.223c-.438-.01-.52.211-.518.592.011 1.98.02 3.96-.003 5.939-.007.516.17.654.662.662.524.008.666-.198.65-.682-.024-.74-.006-1.483-.006-2.289h1.09c1.497.007 2.104-.203 1.949 1.82-.009.11.02.226.044.336.15.655.497.897 1.163.863.418-.021.493-.188.36-.571-.124-.352-.257-.73-.25-1.093.015-.819-.183-1.485-1.048-1.88.802-.537 1.02-.862 1.057-1.5.074-1.28-.6-2.062-1.978-2.156-1.054-.07-2.115-.017-3.172-.041zm13.74.125c0 2.224-.006 4.47.014 6.717 0 .115.196.295.33.33.652.166.86-.006.863-.687.005-1.335.001-2.67.001-4.004l.228-.134.137.285c.024.046.051.09.082.131.991 1.295 2.01 2.568 2.974 3.882.365.498.763.647 1.353.466v-7.036h-1.147v4.814c-.229-.254-.337-.357-.425-.475l-1.433-1.898c-.476-.634-.947-1.271-1.405-1.918-.408-.577-.865-.74-1.573-.473zm-4.363-.153c-.446.01-.69.161-.85.589-.473 1.25-.985 2.485-1.477 3.728-.37.934-.732 1.871-1.137 2.907.624-.086 1.302.323 1.47-.492.244-1.179.946-1.503 2.022-1.318.152.026.317.028.47.001.724-.125 1.083.175 1.298.894.303 1.016.358 1 1.55.845-.032-.188-.032-.35-.088-.49-.817-2.04-1.647-4.075-2.458-6.118-.154-.387-.368-.554-.8-.546zm-11.577.055c-.878.019-1.756.006-2.634.006h-1.815v7.032c1.156.203 1.18.184 1.176-.895-.002-.478.013-.957-.013-1.434-.025-.448.158-.604.593-.59.734.025 1.469.007 2.235.007v-.982H73.69c-1.516-.001-1.504 0-1.44-1.572.017-.384.147-.52.522-.512.923.017 1.847-.008 2.77.012.392.008.575-.104.574-.534 0-.428-.181-.546-.574-.538zm35.479.013c-1.373.007-2.747-.015-4.119.022-.166.004-.463.295-.465.457-.034 2.048-.033 4.096-.007 6.143.002.159.257.448.398.45 1.527.034 3.054.021 4.617.021.166-.98.153-1.003-.67-1.025-.449-.011-.899 0-1.349 0h-1.759v-2.144c.766 0 1.483-.01 2.2.004.373.008.675-.018.68-.513.006-.497-.295-.526-.67-.52-.736.014-1.472.005-2.209.005V91.99h3.905c-.132-.452.23-1.001-.552-.997zm-23.954 1.57l1.057 2.68h-2.072l1.015-2.68zm-6.53-.527c.781.072 1.033.323 1.037 1.03.004.784-.228 1.055-1.03 1.107-.535.034-1.075.01-1.613.007-.107 0-.214-.028-.356-.048-.21-2.128-.057-2.285 1.961-2.096zM82.01 74.89c2.198.141 3.196 1.331 3.197 3.567v1.979l.04.002c-.043.975-.005 1.962-.146 2.922-.264 1.793-1.564 2.683-3.6 2.581-1.697-.084-2.898-1.22-2.958-2.929-.06-1.72-.083-3.448.002-5.166.112-2.278 1.76-3.066 3.465-2.956zm28.07.477c1.032.52 1.564 1.544 1.412 2.764h-1.363c-.096-.396-.118-.799-.289-1.12-.41-.772-1.762-1.062-2.502-.587-.752.482-.754 1.852.053 2.398.666.45 1.422.761 2.107 1.187.545.34 1.143.673 1.539 1.158.99 1.213.77 2.807-.434 3.936-1.555 1.459-4.4.931-5.262-.992-.153-.341-.22-.732-.27-1.107-.017-.129.1-.348.217-.41.662-.359 1.269-.043 1.403.703.153.852.634 1.261 1.59 1.355.69.068 1.506-.394 1.712-.969.263-.734.026-1.67-.604-2.068-.643-.406-1.33-.742-2.006-1.093-1.998-1.038-2.62-2.471-1.784-4.132.722-1.434 2.748-1.897 4.48-1.023zm-35.053-.085c.784.05 1.403.646 1.524 1.445.127.837.14 1.726 0 2.557-.074.436-.581.797-.93 1.24.04.042.108.161.21.223.622.374.887.945.907 1.649.014.5-.004 1 .013 1.5.006.174.02.446.123.502.602.334.33.858.364 1.363-1.597.151-2.067-.271-2.07-1.777-.002-.568.013-1.138-.016-1.705-.032-.605-.313-1.079-.942-1.153-.622-.074-1.257-.069-1.882-.027-.117.008-.298.348-.303.54-.03 1.068-.015 2.138-.015 3.207v.79h-1.535V75.253c1.525 0 3.044-.07 4.552.029zm25.639-.156c.4.048.875-.203 1.052.497.804 3.166 1.658 6.318 2.49 9.476.04.149.048.307.073.476-.09.05-.11.068-.13.07-1.265.114-1.264.114-1.592-1.126-.133-.5-.268-1.001-.414-1.544h-2.803c-.15.577-.364 1.17-.45 1.783-.101.716-.392 1.064-1.136.916-.15-.03-.31-.004-.554-.004.39-1.511.766-2.965 1.14-4.419.478-1.853.968-3.703 1.426-5.562.13-.528.454-.617.898-.563zm-8.804-.007c.172.034.356.006.616.006l1.554 7.541.248-.01c.114-.6.241-1.197.339-1.8.286-1.761.547-3.527.858-5.284.032-.175.326-.382.53-.428.32-.072.667-.02 1.09-.02-.314 1.479-.619 2.9-.919 4.32-.401 1.9-.832 3.795-1.182 5.704-.147.8-.691.446-1.092.517-.406.072-.562-.103-.648-.543-.411-2.104-.878-4.196-1.329-6.29-.02-.097-.075-.187-.113-.28l-.207.002c-.233.999-.472 1.996-.7 2.996-.274 1.21-.57 2.416-.798 3.636-.149.795-.722.399-1.119.477-.38.076-.524-.11-.604-.514-.634-3.21-1.302-6.412-1.957-9.617-.023-.107-.022-.22-.035-.37h1.5l1.266 7.5.255-.002.4-1.724c.066-.288.13-.576.192-.864.298-1.39.588-2.782.863-4.177.112-.568.362-.897.992-.776zm27.25.008v1.404h-2.431v.81c0 2.55-.026 5.1.016 7.649.011.713-.351.681-.837.692-.515.011-.832-.027-.821-.71.04-2.503.015-5.008.015-7.512v-.93c-.758 0-1.428-.012-2.098.004-.477.012-.498-.295-.467-.635.027-.304-.169-.764.39-.767 2.064-.012 4.13-.005 6.234-.005zm6.873.053v1.332h-3.853v2.929h2.76v1.29h-2.756v3.527h3.853v1.392h-5.38V75.18h5.376zm-57.168-.01v1.378c-1.046 0-2.096.042-3.14-.015-.682-.037-.945.168-.867.872.056.494.03 1 .006 1.5-.02.421.155.56.556.55.782-.02 1.564-.007 2.357-.007.016.218.017.353.036.485.094.633-.118.927-.8.853-.512-.056-1.035.008-1.551-.017-.419-.021-.621.096-.603.566.03.772.031 1.547 0 2.32-.019.495.19.622.642.612 1.1-.023 2.2-.007 3.354-.007v1.388h-5.506V75.169h5.516zm-7.007-.056c-.129.443-.174.818-.337 1.13-1.269 2.406-2.56 4.8-3.843 7.2-.113.212-.204.435-.372.794h4.26v1.405H55c.178-.501.277-.95.485-1.337 1.278-2.376 2.582-4.738 3.875-7.106.086-.156.154-.323.288-.61h-4.2c-.076-.15-.109-.188-.113-.228-.11-1.198-.113-1.246.973-1.248h5.503zm20.067 1.194c-1.058-.014-1.696.597-1.718 1.741-.03 1.59-.029 3.183.002 4.773.021 1.078.686 1.707 1.701 1.704 1.005-.002 1.66-.652 1.694-1.723.025-.817.005-1.636.005-2.455h.002c0-.75.012-1.5-.003-2.25-.023-1.14-.63-1.775-1.683-1.79zm18.949 1.434l-.227.004-.897 3.78h2.06l-.936-3.784zm-28.72-1.204v3.352c.623 0 1.16.015 1.695-.005.59-.022 1.13-.265 1.188-.89.071-.756.35-1.593-.31-2.256-.104-.104-.278-.188-.421-.192-.71-.02-1.419-.009-2.152-.009zM92.76.137c1.268.172 2.546.29 3.802.527 10.654 2.012 18.692 7.798 24.16 17.235.363.625.706.884 1.445.874 2.428-.033 4.857.029 7.286.057.152.002.304.03.53.052-.346 1.139-.669 2.237-1.014 3.329-1.21 3.83-2.432 7.655-3.632 11.488-.112.359-.137.757-.14 1.138-.067 9.887-3.526 18.36-10.525 25.26-5.936 5.852-13.107 9.223-21.398 9.703-13.655.79-24.265-4.765-31.86-16.236-.258-.388-.518-.546-.977-.536-1.368.028-2.736.01-4.135.01-.09-.954-.108-1.78.5-2.566.576-.743 1.024-1.593 1.473-2.426.115-.214.105-.57.017-.81-1.503-4.148-2.289-8.429-2.12-12.84.085-2.218.476-4.423.725-6.634.104-.923.262-1.845.281-2.77.043-2.022.014-4.046.014-6.13.79-.047 1.542-.131 2.294-.124.492.005.743-.171.985-.604 4.192-7.5 10.27-12.798 18.248-15.84C81.705 1.153 84.796.483 87.98.25c.199-.015.394-.075.591-.113h4.19zm10.103 35.496l-.234.01c-.11.26-.244.514-.324.783-.728 2.463-1.429 4.934-2.173 7.392-.875 2.89-1.783 5.77-2.682 8.654-.136.437-.352.696-.908.686-3.532-.063-7.065-.1-10.598-.106-7.499-.012-14.998 0-22.496.004-.215 0-.43.023-.68.037 5.151 8.51 16.38 16.782 31.109 15.312 10.614-1.059 18.756-6.373 24.847-15.373h-.812c-3.085 0-6.17-.006-9.256.006-.45.001-.726-.058-.854-.6-.257-1.095-.626-2.162-.94-3.243-1.122-3.87-2.238-7.743-3.364-11.612-.191-.656-.422-1.3-.635-1.95zm20.463 4.488l-3.191 10.073c1.724-3.166 2.804-6.51 3.191-10.073zM71.902 27.503H58.327c-1.399 6.377-1.052 12.624 1.101 18.893l12.474-18.893zm8.271 5.776L73.172 43.54h10.412c-1.094-3.486-2.15-6.848-3.204-10.211l-.207-.051zM86.114 1.82C75.741 3.369 67.824 8.78 62.24 17.724c-.188.3-.35.616-.559.985.25.02.4.044.552.044 1.936.002 3.872.002 5.808-.001 6.574-.012 13.148-.023 19.722-.044.471-.002.732.031.857.641.384 1.875.879 3.728 1.356 5.582.753 2.922 1.527 5.837 2.29 8.756.308 1.179.6 2.362.927 3.535.05.18.252.316.384.473.086-.163.207-.317.254-.49.593-2.221 1.182-4.443 1.761-6.667.966-3.707 1.926-7.416 2.88-11.127.11-.425.284-.619.778-.614 3.04.027 6.08.01 9.119.01.196 0 .392.033.602.051l2.239 8.894c.824 3.278 1.645 6.558 2.477 9.834.051.202.19.382.287.572.071-.02.142-.042.212-.063l.541-1.947 3.114-11.208.799-2.9c.267-.966.539-1.93.825-2.891.106-.356.11-.598-.07-.914C112.735 6.497 99.35-.155 86.115 1.82z"/>
</svg>
