<?xml version="1.0" encoding="UTF-8"?>
<svg width="172px" height="30px" viewBox="0 0 172 30" version="1.1" xmlns="http://www.w3.org/2000/svg" xmlns:xlink="http://www.w3.org/1999/xlink">
    <title>Optimhome</title>
    <g id="Symbols" stroke="none" stroke-width="1" fill="none" fill-rule="evenodd">
        <g id="01_logos-/-Clients-/-Optimhome-/-Black" transform="translate(-6.000000, -35.000000)" fill="#000000">
            <path d="M36.4871342,41.0376745 L36.5341434,41.0379549 C36.5541723,41.0380812 36.5742061,41.0382845 36.5942444,41.0385648 L36.859,41.047 L36.8697789,41.0470436 C36.875779,41.0473371 36.8817792,41.0476374 36.8877796,41.0479447 C36.9942902,41.0536458 37.1006462,41.0612753 37.2069702,41.0710658 C37.2472093,41.0744724 37.2875482,41.0784887 37.3278786,41.0828155 C37.3925806,41.0900907 37.4571966,41.0978411 37.5217712,41.1063908 C37.5747686,41.1130214 37.6277284,41.1205573 37.6806525,41.1286294 C37.7795573,41.1441741 37.8785301,41.1612125 37.9773039,41.1801381 C38.0177825,41.1873045 38.0581879,41.1953434 38.0985575,41.2036967 C38.1745505,41.2201167 38.2506082,41.237061 38.3265005,41.2551322 C38.476576,41.2899 38.6255997,41.3297416 38.7737943,41.3739203 L38.4557193,41.2870327 C38.5620917,41.314228 38.6681032,41.3436489 38.7736693,41.3752953 L38.606,41.328 L38.7737943,41.3739203 L39.0303411,41.4564943 C40.8783514,42.0916939 42.3581277,43.4840669 43.150622,45.2090615 C43.3756478,45.6992646 43.5453247,46.2161904 43.6522112,46.7502281 C44.1086551,48.4606289 44.1487194,50.2750477 43.7724041,52.0037088 C43.7362692,52.1701262 43.6962278,52.3355596 43.6523363,52.5000312 L43.6523363,52.5000312 L43.5676298,52.7793303 C43.1667828,54.0286185 42.5067782,55.1551838 41.6298141,56.0746923 C41.5985272,56.1074967 41.566594,56.1404188 41.5343801,56.1730672 L41.332868,56.3702453 C40.9330396,56.7479373 40.4934679,57.0851366 40.0175703,57.3750136 C39.8496968,57.4773222 39.6772715,57.5737095 39.5004743,57.6639062 C39.1500389,57.8426268 38.7822897,57.9971328 38.3985219,58.1249609 L38.634,58.041 L38.3983968,58.1250859 C38.1937027,58.2046304 37.9879749,58.2759105 37.7814951,58.3391141 L37.471372,58.4277605 C36.8498886,58.5932825 36.2229073,58.6869609 35.5980406,58.713867 L35.2856936,58.7219042 C34.0377929,58.7314833 32.8034257,58.4773543 31.6434926,58.0000875 C31.5568913,57.9423959 31.4902749,57.9113312 31.4390315,57.9007487 L31.3928667,57.8966047 L31.3928667,57.8966047 L31.3556756,57.9050728 C31.2682202,57.9423959 31.2682202,58.0962401 31.2682202,58.2500844 L31.2682202,64.2500094 C31.2682202,64.8750016 31.1431294,65 30.5176753,65 L30.5178004,64.999875 L28.0458066,64.9998148 C27.6244636,64.9972223 27.5154956,64.9583339 27.5154956,64.3750078 L27.5154956,64.3750078 L27.5154956,42.0002875 C27.5154956,41.790231 27.5375741,41.6463609 27.6002821,41.5501398 C27.6258341,41.5102753 27.6584225,41.4786025 27.6991616,41.4537068 C27.7084789,41.4489127 27.7175609,41.4439494 27.7270267,41.4392813 C27.8214814,41.3912943 27.9554562,41.3739203 28.1410748,41.3739203 L28.1410748,41.3739203 L30.6428912,41.3739203 L30.7603086,41.3790085 C31.1632342,41.4157861 31.2683453,41.6460003 31.2683453,41.8751641 L31.2683453,41.8751641 L31.26871,42.6852851 C31.2708981,42.8164788 31.2862154,43.00015 31.3934361,43.00015 L31.3934361,43.00015 L31.4349701,43.0357941 C31.5011633,43.0807722 31.5243155,43.0253956 31.5821673,42.9473475 C31.5992579,42.9242816 31.618972,42.8997791 31.6434926,42.8752766 C31.7171751,42.806557 31.7922078,42.739765 31.8685227,42.6749006 C31.8922477,42.6547278 31.9160271,42.6348079 31.939928,42.6150732 C31.9966099,42.568274 32.0539581,42.5225227 32.1119604,42.4778125 C32.1336474,42.4611069 32.1551302,42.4447614 32.1767008,42.4285575 C32.231907,42.3870674 32.2876587,42.3465389 32.3439609,42.3069371 C32.3662309,42.2913065 32.3888905,42.2755803 32.4116374,42.260003 C32.477303,42.214993 32.5432365,42.171555 32.6098507,42.1293413 C32.6284566,42.1176199 32.6471355,42.1059148 32.665867,42.0943054 C32.7310811,42.0538027 32.7970247,42.0144809 32.8635742,41.9763227 C32.8845729,41.9643869 32.905306,41.9526488 32.9260969,41.941023 C32.9827843,41.9092071 33.0400621,41.8782492 33.0977502,41.8481308 C33.1413778,41.8254854 33.1854747,41.8030749 33.2298005,41.7811494 C33.3041204,41.7442411 33.3786965,41.7090152 33.4538687,41.6751396 C33.4753173,41.665642 33.4968111,41.6560897 33.5183524,41.6466472 C33.5841108,41.6176472 33.6501643,41.5899026 33.7166329,41.5631776 C33.7510369,41.5495302 33.785988,41.5358027 33.8210495,41.522355 C33.8783132,41.5001993 33.935636,41.4790657 33.9932344,41.4586732 C34.0274551,41.4467594 34.0614049,41.4350322 34.0954467,41.4235607 C34.1612586,41.4011749 34.2279689,41.3797782 34.2950039,41.3593544 C34.3220301,41.3513228 34.3490124,41.3432751 34.3760456,41.3353842 C34.4334441,41.3184317 34.4908154,41.3024564 34.5483988,41.2871827 C34.590187,41.2762922 34.6322922,41.2655237 34.6745045,41.255128 C34.7327589,41.2405937 34.7912729,41.2269483 34.8499757,41.2140149 C34.882876,41.2069449 34.9153047,41.200029 34.9477882,41.1933295 C35.0421477,41.1736955 35.13779,41.155923 35.2338387,41.1400088 C35.2486075,41.1376974 35.2639055,41.1352083 35.2792136,41.1327663 C35.3627925,41.1193183 35.4461334,41.1074735 35.5297282,41.0970142 C35.5643405,41.092771 35.5992534,41.088642 35.6342075,41.0847539 C35.697011,41.0777054 35.7596786,41.0715345 35.8224606,41.0661351 C35.8583167,41.0630815 35.8946459,41.0602084 35.93101,41.057593 C35.9953493,41.052967 36.0593403,41.0491858 36.123421,41.0462003 C36.2442792,41.0405094 36.3656083,41.0376745 36.4871342,41.0376745 L36.2281595,41.0420318 C36.2893833,41.0400102 36.3506797,41.0387128 36.412033,41.0381397 L36.4871342,41.0376745 Z M15.576,40.365 L15.7540631,40.3669561 C15.9987663,40.3727862 16.2418424,40.3891848 16.4828093,40.41567 C16.4995318,40.418053 16.5168898,40.4200115 16.5342367,40.4220222 C16.6190214,40.4313202 16.7030108,40.4423314 16.7867167,40.4545539 C16.8103616,40.4585217 16.8340542,40.4620791 16.8577238,40.4657333 C16.9300061,40.4763901 17.0020078,40.4884482 17.07378,40.5013938 C17.1094012,40.5083014 17.1450679,40.5149602 17.1806763,40.5218372 C17.247829,40.534339 17.3147897,40.5480953 17.3815311,40.562617 C17.4130511,40.5699228 17.4443738,40.5769143 17.4756471,40.5840738 C17.5518938,40.6010979 17.6280203,40.6196044 17.7038338,40.6390972 C17.7235737,40.6445789 17.7435779,40.6497933 17.7635601,40.6550762 C17.844039,40.6759668 17.9237534,40.6982507 18.0030924,40.7216147 C18.0234213,40.7279661 18.0437649,40.7340324 18.0640836,40.7401695 C18.1322103,40.7603965 18.2001909,40.7818237 18.2678756,40.8040379 C18.3103042,40.818287 18.3522442,40.8323886 18.3940671,40.8467909 C18.4329063,40.8598611 18.4719648,40.8736151 18.510918,40.8876302 C18.5669497,40.9080715 18.6227874,40.9287716 18.6783997,40.9500052 C18.7423792,40.9741863 18.8053911,40.9990641 18.8680997,41.024622 C18.8891148,41.0334138 18.9107206,41.0423099 18.9322898,41.0512865 L18.8680997,41.024622 C18.9543127,41.0597596 19.0399523,41.0961827 19.1249897,41.1338627 C19.1645764,41.1515828 19.2045254,41.1696131 19.2443377,41.1879198 C19.2881318,41.2078996 19.3312284,41.2281275 19.3741597,41.2486776 C19.4171495,41.2693923 19.4604054,41.2904985 19.5034881,41.3119305 C19.6476251,41.3835436 19.7893272,41.458648 19.928957,41.537225 C20.0587688,41.6103147 20.186686,41.6862872 20.3126956,41.7651399 C20.3408759,41.7827769 20.3689786,41.8005701 20.3969845,41.8185061 C20.5408352,41.9106091 20.68202,42.006413 20.8204727,42.1058025 C20.8721414,42.1429514 20.922875,42.1801348 20.9732275,42.2177972 C21.003671,42.2405096 21.034156,42.2635924 21.0644979,42.2868507 C21.0754776,42.2953255 21.0865177,42.3038259 21.0975387,42.3123496 C21.2369858,42.4201466 21.3731045,42.5314853 21.5059763,42.6463267 C21.5922786,42.7209375 21.6775144,42.7972664 21.761318,42.8750266 L21.559,42.693 L21.7614431,42.8751516 L21.9855928,43.1225184 C22.7917177,44.039701 23.4236797,45.0675196 23.8541106,46.1649518 L23.9663585,46.4658217 C24.2160248,47.1698195 24.3835873,47.9003312 24.462059,48.6468842 C24.4961305,48.9696289 24.5134411,49.2962669 24.5134411,49.6250672 L24.5134411,49.6250672 L24.5232409,49.9218933 C24.553835,52.1968666 23.5648357,54.4479236 21.8865339,56.1249859 L21.8865339,56.1249859 L21.6389842,56.3489702 C19.8032634,57.9600292 17.5246715,58.8749516 15.1316297,58.8749516 C14.4920498,58.8748266 13.8525951,58.8024403 13.2253214,58.6625366 C13.0566122,58.6248662 12.888923,58.5823758 12.7223439,58.5351036 C12.4689632,58.4632926 12.2179996,58.3802872 11.9704556,58.2865367 C11.5777627,58.1376643 11.1940028,57.9620613 10.8221476,57.7607998 C10.0246191,57.3292349 9.281934,56.779529 8.62678209,56.1248609 C8.03849467,55.537008 7.54901606,54.8786294 7.15834626,54.1734162 C6.38608499,52.7791123 6,51.2020897 6,49.6250672 L6,49.6250672 L6.00542749,49.3012663 C6.01300126,49.075425 6.02850162,48.8498409 6.05192856,48.6250522 C6.26315414,46.5950794 7.12151195,44.6291819 8.62678209,43.1250234 C8.77906656,42.9728514 8.9351345,42.8263504 9.09482141,42.6856848 L9.33717052,42.4788386 C10.0564488,41.8847588 10.8443721,41.4058299 11.6868744,41.0558967 C12.7571825,40.6115876 13.9147555,40.3750578 15.1315046,40.3750578 L15.1315046,40.3750578 L15.3428768,40.3678392 L15.3428768,40.3678392 L15.3976285,40.3659732 C15.4129391,40.3656924 15.4282443,40.3654534 15.443544,40.3652561 L15.576,40.365 Z M121.083177,40.3753078 L121.407373,40.3807313 C121.412707,40.3809098 121.418042,40.3810928 121.423376,40.3812802 C121.832338,40.3955938 122.240223,40.435897 122.643996,40.5021 C122.791758,40.5262954 122.939105,40.5540047 123.085744,40.5851891 C123.24646,40.6194392 123.406176,40.6577675 123.564839,40.700262 C124.495842,40.9494222 125.390742,41.3422351 126.208068,41.8785584 C126.699041,42.2007436 127.162079,42.5745728 127.588275,43.00015 L127.588275,43.00015 L127.812425,43.2312162 C128.014252,43.4458968 128.205161,43.6675748 128.384724,43.8958274 C128.683096,44.2749462 128.950178,44.6722664 129.18396,45.0857825 C129.250232,45.2036018 129.313815,45.3221658 129.374677,45.4419884 C130.002827,46.6775331 130.341149,48.0466045 130.341149,49.5001937 C130.464989,53.2501469 128.213354,56.6251047 124.712062,58.1250859 C123.670765,58.5710263 122.585244,58.8070533 121.50477,58.8495897 L121.210257,58.8564056 L121.210257,58.8564056 C121.006117,58.8576918 120.80319,58.8522913 120.600931,58.8401888 C120.422986,58.8295942 120.245684,58.8137545 120.069122,58.7928094 C118.920362,58.6566411 117.802787,58.3043111 116.778162,57.7563584 C116.622308,57.6726428 116.468724,57.5848162 116.317504,57.4925424 C115.692055,57.1114115 115.106932,56.6536955 114.577579,56.1249859 L114.577579,56.1249859 L114.344348,55.8825256 C112.749509,54.1588432 111.946294,51.8864026 111.828083,49.5000687 L111.848,49.818 L111.827708,49.5001937 C111.827708,49.2916695 111.835422,49.0831454 111.850681,48.8750442 C112.009083,46.7135104 112.98097,44.596721 114.577579,43.00015 C116.330102,41.3739203 118.581736,40.3751828 121.082302,40.3751828 L121.082302,40.3751828 L121.083177,40.3753078 Z M169.780907,40.7251209 C169.853201,40.7256832 169.925661,40.7271729 169.99827,40.7295973 L170.042066,40.7311159 L170.042066,40.7311159 C170.155606,40.7356404 170.262273,40.7418333 170.36921,40.7500531 L170.35,40.749 L170.370586,40.7501781 L170.62316,40.7639826 C171.714332,40.8428957 172.760787,41.1687041 173.698197,41.6899164 L173.912192,41.8135164 C175.682325,42.8730735 177.030765,44.6406295 177.500637,46.7499781 C177.579553,46.9873422 177.647387,47.2247062 177.705303,47.4632444 C177.922002,48.3553819 177.999875,49.2638128 177.999875,50.2500594 L177.999875,50.2500594 L177.99796,50.3746478 C177.981367,50.8750516 177.856914,50.8750516 177.624602,50.8750516 L177.624602,50.8750516 L165.992407,50.8750516 L165.903777,50.8777273 C165.597833,50.897612 165.501322,51.0311954 165.617135,51.3737953 L165.617135,51.3737953 L165.667525,51.5877146 L165.667525,51.5877146 C165.753824,51.9175172 165.876518,52.230672 166.030656,52.5250264 C166.054339,52.5702938 166.078735,52.6150455 166.103856,52.6593422 C166.968536,54.1837573 168.690637,55.1699612 170.541557,55.149917 L170.76762,55.1424665 L170.76762,55.1424665 L170.994664,55.1248734 C171.506399,55.068056 171.992548,54.9854124 172.464505,54.8534644 L172.745685,54.7683162 C172.770103,54.7603302 172.794489,54.7521963 172.818845,54.7439112 C172.953711,54.6980717 173.087965,54.6474472 173.221543,54.5915896 C173.524129,54.4649732 173.823094,54.3117263 174.12206,54.1250109 C174.208073,54.0820624 174.293919,54.0539099 174.379621,54.0404284 C174.400967,54.0371396 174.422344,54.0347012 174.443722,54.0331754 L174.551211,54.0330504 L174.551211,54.0330504 L174.658257,54.0483563 C174.729621,54.0636622 174.800999,54.0891721 174.872479,54.1248859 L174.872479,54.1248859 L176.748842,55.6248672 C176.835443,55.6825588 176.902059,55.7335936 176.948691,55.7825803 L176.988786,55.8315946 C177.08871,55.9755795 177.008771,56.1153707 176.748967,56.3749828 L176.748967,56.3749828 L176.441157,56.6034651 C174.887757,57.7162746 173.121411,58.3827702 171.246222,58.4999563 L171.246222,58.4999563 L170.89278,58.5346885 C170.775371,58.543962 170.658372,58.550939 170.541806,58.5556414 L170.193301,58.5629092 C168.4581,58.5658026 166.82497,58.0623367 165.365577,57.1248484 L165.365577,57.1248484 L165.10891,56.9570315 C165.024738,56.8994379 164.941995,56.8402519 164.860691,56.7795352 L164.620985,56.5927293 C163.719805,55.8604634 163.010091,54.9341587 162.50745,53.9073813 C162.134994,53.1474244 161.87609,52.3322851 161.736818,51.5000437 L161.736818,51.5000437 L161.667756,51.1625703 C161.266041,49.0255809 161.544178,46.8989138 162.613704,45.000125 C162.63099,44.9670152 162.648474,44.9340713 162.666156,44.9012941 C162.729901,44.7827938 162.796367,44.6665429 162.865317,44.5525138 C162.98032,44.3625768 163.102418,44.1782825 163.23103,44.0003992 C163.413247,43.7481001 163.608909,43.5085127 163.81649,43.2824387 C163.857359,43.2381719 163.898889,43.1939772 163.940877,43.150316 L164.151322,42.9393571 C164.195431,42.8968363 164.239994,42.8548727 164.285003,42.8134714 C164.34599,42.7576484 164.407658,42.7027071 164.470116,42.6488053 C164.69415,42.4551597 164.928423,42.2751219 165.171757,42.1090227 C165.186818,42.0990813 165.201283,42.0892814 165.21578,42.0795307 L165.239049,42.0635993 C165.267774,42.044425 165.296622,42.0254431 165.325592,42.0066543 C165.371455,41.9772663 165.416978,41.9484144 165.462789,41.9200367 C165.498272,41.897693 165.534389,41.8757166 165.57068,41.8540337 C165.614781,41.828057 165.658826,41.8023267 165.70312,41.7770266 C165.755534,41.7467067 165.808473,41.7172697 165.861752,41.6884441 C165.887326,41.6749974 165.912797,41.6614003 165.938344,41.6479426 C166.178795,41.5208665 166.426048,41.4065145 166.679189,41.3049512 C166.684207,41.3033714 166.68919,41.301378 166.694177,41.2993895 C166.737692,41.2816002 166.781274,41.2646625 166.825024,41.2481027 C166.873105,41.2303448 166.92129,41.2126394 166.969672,41.1953911 C167.038669,41.1703457 167.10825,41.1466141 167.178215,41.1238261 C167.187023,41.1214068 167.195729,41.1185879 167.204442,41.1157836 L167.246572,41.1019006 C167.305438,41.0833106 167.36457,41.0653858 167.423958,41.0481311 C167.44339,41.0429395 167.462462,41.037476 167.48156,41.0320815 C167.730561,40.961278 167.984475,40.9025834 168.242097,40.8560438 C168.26527,40.8522987 168.288662,40.848177 168.312083,40.8441554 C168.373912,40.8331025 168.435884,40.8231976 168.498053,40.8139946 C168.527185,40.8101132 168.555984,40.8060063 168.584824,40.8020499 C168.657336,40.7916761 168.730633,40.7826235 168.804179,40.7745451 C168.826554,40.7724976 168.848891,40.7701347 168.871251,40.7678617 C168.885008,40.7660577 168.898722,40.7646994 168.912445,40.7633749 L169.140174,40.7449434 C169.147814,40.7444172 169.155457,40.7439015 169.163101,40.7433962 C169.332813,40.7318257 169.503164,40.7257879 169.674483,40.724963 L169.716361,40.7251784 Z M50.6574221,35.7503656 L50.6574221,39.7503156 C50.6574221,40.1253109 50.6574221,40.2503094 51.1577853,40.2503094 L53.5345109,40.2503094 C53.9097833,40.2503094 54.159965,40.3753078 54.159965,40.8753016 L54.159965,43.1252734 C54.159965,43.5002687 54.0348742,43.6252672 53.6596017,43.6252672 L51.2828762,43.6252672 C50.9451309,43.6252672 50.9113564,43.7265159 50.907979,43.9290134 L50.9076037,51.1251734 C50.9076037,52.0001625 51.0326945,52.7501531 51.407967,53.5001437 C51.7832394,54.3751328 52.6588752,55.000125 53.6596017,54.8751266 L55.0356007,54.8751266 C55.1606915,54.8751266 55.2857823,54.8751266 55.4108732,55.000125 C55.535964,55.1251234 55.535964,55.2501219 55.535964,55.3751203 L55.535964,58.0000875 C55.535964,58.2500844 55.4108732,58.3750828 55.1606915,58.3750828 C53.5345109,58.6250797 51.7832394,58.2500844 50.2821496,57.6250922 C48.9061506,56.7501031 47.845302,55.3618184 47.4700295,53.7368387 C47.1598288,52.8686086 46.9046975,51.6284396 46.9046975,50.3161163 L46.9046975,43.8752641 C46.9046975,43.5002687 46.7796067,43.3752703 46.4043343,43.3752703 L45.5286985,43.3752703 C45.1534261,43.3752703 45.0283353,43.2502719 45.0283353,42.8752766 C45.1534261,42.1252859 45.1534261,41.2502969 45.2785169,40.5003062 C45.2785169,40.3753078 45.2785169,40.2503094 45.4036077,40.2503094 C45.5108284,40.1431679 45.6180491,40.1278619 45.6464954,40.1256754 L46.5294251,40.1253109 C46.7796067,40.1253109 46.9046975,40.0003125 46.9046975,39.7503156 L46.9046975,35.7503656 C46.9046975,35.1644354 46.9046975,35.1278148 47.4200558,35.125526 L50.031968,35.1253734 C50.5323312,35.1253734 50.6574221,35.1253734 50.6574221,35.7503656 Z M84.5232593,40.9064262 L84.6376851,40.907515 C84.6683067,40.9080036 84.6988992,40.9086914 84.7294624,40.9095807 L84.7966593,40.9117041 C84.8390877,40.9133568 84.8814581,40.9154023 84.9237701,40.9178469 C84.9433774,40.9191273 84.9630485,40.9203492 84.982707,40.9216582 C85.0327705,40.9248505 85.082756,40.9287526 85.1326579,40.9332299 C85.1861385,40.9381595 85.23943,40.9436052 85.2926255,40.9497225 C85.3250832,40.9533342 85.3573998,40.9573057 85.3896801,40.9615285 C85.4274872,40.9665876 85.4654852,40.9719102 85.5034328,40.9775868 C85.554933,40.9851853 85.6062304,40.9935264 85.6574335,41.0025287 C85.6912876,41.0085791 85.7249802,41.0147955 85.7586316,41.0213023 C85.8112857,41.0313957 85.8636533,41.0422522 85.9159191,41.0538278 C85.9311626,41.0572835 85.9468744,41.0608279 85.962577,41.0644376 C86.1328404,41.1035199 86.3017665,41.1502896 86.4695638,41.205175 C86.5316235,41.225512 86.5931535,41.246784 86.6545285,41.2691748 C86.6644118,41.2727596 86.6740849,41.276319 86.6837541,41.2799064 C86.7551272,41.3063971 86.8264408,41.3344515 86.8975392,41.364068 C86.9292214,41.3772671 86.9609699,41.3908245 86.9926752,41.4046974 C87.0475623,41.4286981 87.1025408,41.4537574 87.1573864,41.4797865 C87.1780443,41.4896168 87.1980666,41.4992614 87.2180711,41.5090363 C87.2745866,41.536616 87.3313421,41.5654639 87.3879511,41.5953846 C87.4202832,41.6125138 87.452586,41.6299646 87.484841,41.6477693 C87.5387361,41.6774712 87.592628,41.7082821 87.6463828,41.7401021 C87.6706738,41.7545331 87.6946369,41.7689373 87.7185729,41.7835439 C87.7663639,41.812653 87.8143381,41.8428091 87.8622001,41.8737939 C87.9002582,41.8984841 87.9378958,41.9234112 87.9754639,41.9488582 C88.021356,41.9798976 88.0674368,42.0119678 88.1134102,42.0448349 C88.1433387,42.0662662 88.1726789,42.0875995 88.2019755,42.1092611 C88.264632,42.1555662 88.3275938,42.2037977 88.3903472,42.2535836 C88.4893894,42.3321359 88.5874694,42.4141748 88.6850308,42.5001562 L88.4471207,42.2990962 C88.4786464,42.3246314 88.5101191,42.3505626 88.5415383,42.3768934 L88.6850308,42.5001562 L88.9035227,42.7284497 C89.2464701,43.1033445 89.5369531,43.5035783 89.7749718,43.9249073 C90.2230724,44.717997 90.4855106,45.585832 90.5625189,46.5001062 C90.6069846,46.724515 90.6354846,46.9489238 90.6537514,47.1675464 C90.6864839,47.5578009 90.6864839,47.9296177 90.6864839,48.2500844 L90.6863311,57.6039009 C90.685109,57.8644309 90.6741097,57.9946959 90.5751166,58.0598284 L90.5335916,58.0813272 C90.4572081,58.1124942 90.3426327,58.121399 90.1707697,58.1239432 L90.0607497,58.1248337 L90.0607497,58.1248337 L87.4339975,58.1249609 C87.058725,58.1249609 86.8085434,57.9999625 86.8085434,57.4999688 L86.8085434,48.3750828 C86.8085434,47.6250922 86.6834526,46.8751016 86.5583618,46.2501094 C86.3604556,45.4590691 85.771165,44.824467 85.0381737,44.5319286 C84.8442988,44.4553382 84.6408464,44.4022155 84.431943,44.3763828 L84.431943,44.3763828 L84.2216271,44.3579319 C82.0568055,44.2196929 80.1671279,45.6966397 79.8035827,47.8750891 L79.8035827,47.8750891 L79.7840372,48.1563355 L79.7840372,48.1563355 L79.6980373,48.7188285 L79.6980373,48.7188285 L79.6784919,49.000075 L79.6783392,57.6099832 C79.6765068,58.0219654 79.6526858,58.1043618 79.3430127,58.1208411 L79.2593614,58.1237403 L79.2593614,58.1237403 L79.1631336,58.1248084 L79.1631336,58.1248084 L76.5510963,58.1249609 C76.4286193,58.1249609 76.3286269,58.1249609 76.24745,58.1157949 C76.1632807,58.1063718 76.0992395,58.0869554 76.0515197,58.0472584 C75.9571348,57.9698074 75.9256422,57.8135613 75.9256422,57.4999688 L75.9256422,48.5000812 C75.9256422,47.7500906 75.8005514,47.0001 75.6754606,46.2501094 C75.27517,45.2501219 74.3144725,44.4901314 73.1776471,44.4181323 L73.0059755,44.4125483 L73.0059755,44.4125483 L72.8317,44.4176203 C72.6564688,44.4281321 72.4781393,44.4551318 72.2980085,44.5001312 C71.4361696,44.5718981 70.6155655,44.9733001 70.0019188,45.5860513 C69.9281594,45.6595527 69.8570634,45.7366708 69.7892854,45.8166718 C69.7504231,45.8625189 69.7127278,45.9091949 69.6761704,45.9567725 C69.6302358,46.0167469 69.5860469,46.0781063 69.5437741,46.1408211 C69.5084671,46.1927525 69.4746918,46.2456713 69.4422945,46.2994754 C69.2664282,46.5927793 69.1312935,46.9118565 69.0470232,47.2500969 L69.0470232,47.2500969 L68.9306545,47.5835975 C68.6442462,48.473847 68.5454091,49.3750703 68.5454091,50.3750578 L68.5454091,50.3750578 L68.5452564,57.8599801 C68.5429659,58.3749578 68.5063182,58.3749578 67.919955,58.3749578 L65.2929227,58.3749578 L65.238,58.373 L65.1839022,58.3726046 C65.1154684,58.3693923 65.0555386,58.3627436 65.0031793,58.3517617 L64.9303472,58.3321727 C64.7274234,58.2625332 64.6674686,58.0961151 64.6674686,57.7499656 C64.7074621,56.8707575 64.7346691,56.0043266 64.7531776,55.1465877 C64.7914336,53.3215118 64.7914336,51.5357887 64.7914336,49.7500656 L64.7916193,41.9050737 C64.794219,41.4838967 64.8332139,41.3739203 65.4181386,41.3739203 L65.4181386,41.3739203 L67.919955,41.3739203 L68.0110946,41.3766937 C68.335187,41.3975572 68.5454091,41.5418349 68.5454091,42.0001625 L68.5454091,42.0001625 L68.5454091,42.7501531 L68.5388445,42.8033595 C68.5147746,42.9083144 68.4381884,43.00015 68.5454091,43.00015 L68.5454091,43.00015 C68.6703748,43.00015 68.7954656,42.8751516 68.7954656,42.8751516 C69.2803936,42.3905817 69.8405167,41.9811512 70.4758348,41.6468603 C70.6600671,41.5492356 70.8504889,41.4584545 71.0472254,41.3739203 L71.0472254,41.3739203 L71.2487475,41.2997706 C73.4960189,40.5168333 76.7241411,40.8237066 78.3024929,43.2501469 L78.3024929,43.2501469 L78.3401452,43.317646 C78.3906819,43.397645 78.44322,43.4376445 78.5057655,43.4376445 L78.5545509,43.4301446 C78.6226003,43.4101449 78.7026584,43.3501456 78.8027311,43.2501469 C79.1879192,42.8010925 79.6390018,42.4178838 80.1390697,42.1005208 C80.6131872,41.799168 81.1312679,41.5570723 81.6786941,41.3739203 C82.0769599,41.2547856 82.4720589,41.1546371 82.8634709,41.0779814 C82.92513,41.0666625 82.9867779,41.0551205 83.0483324,41.0441819 C83.0879305,41.0364796 83.1269611,41.0298028 83.1659535,41.0233732 C83.2514769,41.0098495 83.3372702,40.9968276 83.4228726,40.9850587 C83.4701351,40.9780793 83.5174442,40.9719706 83.5646935,40.9662528 C83.6269642,40.9591325 83.689126,40.9522524 83.7511826,40.9460718 C83.8048287,40.9403811 83.8581602,40.9355993 83.9114118,40.9313464 C83.9757544,40.9265014 84.0401009,40.9221089 84.104329,40.9185147 C84.2446787,40.9104389 84.3842659,40.9064262 84.5232593,40.9064262 L84.1912185,40.9141381 C84.2830247,40.9100299 84.3745858,40.907578 84.4658948,40.9068452 L84.5232593,40.9064262 Z M61.1650508,41.3739203 L61.2561905,41.3766937 C61.4911186,41.3918172 61.6662135,41.471789 61.7447757,41.68922 C61.7744642,41.7719241 61.7903798,41.874178 61.7903798,42.0002875 L61.7903798,57.6250922 C61.7903798,58.2110224 61.7903798,58.247643 61.2750215,58.2499318 L61.1649257,58.2500844 L61.1649257,58.2500844 L58.6631093,58.2500844 C58.0376552,58.2500844 57.9125644,58.2500844 57.9125644,57.6250922 L57.9125644,42.0002875 C57.9125644,41.788012 57.9351118,41.6433287 57.9993518,41.5471065 C58.0245512,41.5086826 58.0565183,41.4779749 58.0962304,41.4537068 C58.1055477,41.4489127 58.1146297,41.4439494 58.1240955,41.4392813 C58.2185502,41.3912943 58.352525,41.3739203 58.5381436,41.3739203 L58.5381436,41.3739203 L61.1650508,41.3739203 Z M152.85537,40.7851777 L152.948,40.787 L153.055331,40.788059 C153.066367,40.7883754 153.077402,40.7887177 153.088435,40.789086 L153.160853,40.791834 C153.197872,40.7934477 153.234873,40.7953544 153.271851,40.7975535 C153.306228,40.799654 153.340588,40.8019536 153.374926,40.804505 C153.437494,40.8090894 153.500183,40.8145917 153.562775,40.8209348 C153.592077,40.823968 153.621432,40.8271296 153.650764,40.8304757 C153.711982,40.8373995 153.772978,40.8451751 153.833853,40.8537509 C153.882794,40.8606968 153.93149,40.8680786 153.980098,40.8759722 C154.020924,40.8825632 154.062166,40.8896425 154.103337,40.8970913 C154.165687,40.9083939 154.227344,40.9204057 154.288822,40.9332467 C154.320456,40.9398604 154.352393,40.9467695 154.384278,40.953903 C154.449194,40.9683974 154.513646,40.9837767 154.577863,41.0000751 C154.610553,41.0084357 154.643475,41.0170553 154.676331,41.0259172 C154.863968,41.0764127 155.049162,41.1347739 155.231606,41.2009358 C155.256983,41.2103624 155.282409,41.2197606 155.30778,41.2293108 C155.368398,41.2518791 155.42844,41.2754455 155.488146,41.2998694 C155.517814,41.3122925 155.547833,41.32483 155.577765,41.3375852 C155.644362,41.3656539 155.709993,41.3948574 155.775162,41.4251177 C155.802479,41.4381498 155.830208,41.4512593 155.857852,41.4645609 C155.920458,41.4943213 155.982133,41.5251748 156.043344,41.5569957 C156.067141,41.5697557 156.091157,41.5824289 156.115101,41.5952516 C156.184218,41.6318673 156.252635,41.6700746 156.320401,41.7095212 C156.33493,41.7183809 156.34955,41.7269657 156.364139,41.7356084 C156.522908,41.8292794 156.677804,41.9300516 156.828534,42.0376012 C156.923319,42.1054652 157.017415,42.176456 157.109708,42.2501594 L156.873148,42.0697214 C156.953232,42.1278959 157.032112,42.1880032 157.109708,42.2500344 C158.110435,43.1250234 158.735889,44.2500094 158.986071,45.6249922 C159.134794,46.1451384 159.195107,46.7094569 159.219566,47.2654304 C159.236252,47.6446784 159.236252,48.0201638 159.236252,48.3750828 L159.236252,48.3750828 L159.236099,57.6099832 C159.234725,57.9189699 159.220982,58.0425645 159.083553,58.0920024 L159.03301,58.1057627 C158.977581,58.1172066 158.907034,58.1217842 158.817247,58.1236153 L158.720894,58.1248084 L158.720894,58.1248084 L156.013839,58.1246508 L156.013839,58.1246508 L155.927819,58.1234795 C155.692099,58.1169829 155.572215,58.0819972 155.519159,57.8935907 C155.493473,57.802608 155.483528,57.6760711 155.483528,57.4998438 L155.483528,48.1249609 C155.483528,47.6314261 155.405525,47.1378912 155.311115,46.7059072 C155.285188,46.5909695 155.258669,46.4802737 155.232095,46.3751078 L155.232095,46.3751078 L155.194026,46.2142341 C154.87439,45.0506915 153.677869,44.2501344 152.481348,44.2501344 L152.481348,44.2500094 L152.276381,44.2551736 C150.235441,44.3556221 148.470371,45.9476938 148.22826,48.1250859 L148.22826,48.1250859 L148.22826,57.3749703 L148.226518,57.4918207 C148.214658,57.8547791 148.139789,57.9584815 147.927783,57.9881108 L147.859993,57.9948376 C147.835975,57.9965042 147.810512,57.9976153 147.78353,57.998356 L147.697949,57.9997773 L147.697949,57.9997773 L144.975899,57.9998375 C144.475536,57.9998375 144.350445,57.8748391 144.350445,57.3748453 L144.350445,48.1249609 C144.350445,47.2948334 144.237852,46.3521965 143.799027,45.617273 L143.724991,45.5001187 L143.69,45.439 L143.654844,45.3752123 C143.539962,45.190958 143.377874,45.0109919 143.187656,44.8543771 C143.132699,44.808909 143.075315,44.7656146 143.016045,44.7247444 C142.849583,44.6098436 142.668054,44.5138539 142.481829,44.4471873 C142.396787,44.417508 142.310946,44.3933915 142.225152,44.3763828 L142.225152,44.3763828 L142.029975,44.325819 C140.335012,43.9318942 138.563836,44.6853141 137.720631,46.2501094 L137.720631,46.2501094 L137.578028,46.5877302 C137.172734,47.6013425 136.970087,48.6250797 136.970087,49.7500656 L136.970087,49.7500656 L136.970087,57.3749703 L136.969934,57.4849848 C136.96856,57.7939714 136.954817,57.9175661 136.817388,57.9670039 L136.766845,57.9807643 C136.711415,57.9922082 136.640868,57.9967858 136.551081,57.9986168 L136.454728,57.9998099 L136.454728,57.9998099 L133.842816,57.9998375 C133.674011,57.9998375 133.550765,57.9907324 133.460782,57.9676073 C133.217362,57.9051748 133.217362,57.7400195 133.217362,57.3749703 L133.217362,41.7501656 L133.220557,41.6537168 C133.242173,41.3524433 133.376569,41.2501719 133.717725,41.2501719 L133.717725,41.2501719 L136.219542,41.2501719 L136.310944,41.2528968 C136.57642,41.2696658 136.764633,41.3677319 136.824587,41.6537397 C136.837889,41.7171538 136.844996,41.7907705 136.844996,41.8750391 L136.844996,42.7500281 C136.844996,42.8337324 136.844996,42.9174367 136.882558,42.9636062 C136.900848,42.986389 136.928582,43.00015 136.970087,43.00015 L136.970087,43.00015 L137.022845,42.9995713 C137.097436,42.9966778 137.114983,42.9793169 137.220268,42.8751516 L137.220268,42.8751516 L137.411671,42.6919701 C137.931956,42.2150263 138.529921,41.830647 139.173473,41.544663 L139.416879,41.4419177 C140.234939,41.1153 141.11796,40.9435638 142.00326,40.9380974 L142.268855,40.941457 C142.888446,40.960988 143.506082,41.0625492 144.100263,41.2500469 C145.226081,41.6250422 146.101716,42.2500344 146.72717,43.2500219 C146.977352,43.5000187 146.977352,43.5000187 147.352624,43.2500219 C147.50408,43.0734546 147.670816,42.9070673 147.849751,42.749833 C148.557488,42.127819 149.455349,41.6491909 150.354804,41.2501719 L150.354804,41.2501719 L150.616209,41.1546268 L150.616209,41.1546268 L150.658088,41.14083 C150.675658,41.1349618 150.693246,41.1291667 150.710854,41.1234447 C150.790415,41.0971559 150.870194,41.0728131 150.950307,41.0499627 C150.962803,41.0468821 150.975474,41.0433099 150.988153,41.0397748 C151.077534,41.0143495 151.167233,40.9912857 151.257272,40.9700628 C151.274506,40.966504 151.291503,40.9625653 151.308512,40.9586918 C151.377458,40.9424949 151.446816,40.9278304 151.516337,40.9142453 C151.558764,40.9064103 151.601133,40.898532 151.643555,40.8910516 C151.711607,40.8786386 151.779988,40.8676559 151.848481,40.8577025 C151.870984,40.8547881 151.893351,40.8516413 151.915728,40.8486039 C152.121082,40.8204673 152.327469,40.8018891 152.534043,40.7924636 L152.534714,40.7925292 C152.616429,40.7887045 152.698845,40.7864012 152.781243,40.7855485 L152.83,40.786 L152.85537,40.7851777 Z M97.0661156,35 C97.441388,35 97.5664789,35.1249984 97.5664789,35.5 L97.5664789,42.4999063 C97.5664789,42.6249047 97.5664789,42.7499031 97.6915697,42.8749016 L97.7331037,42.9105456 L97.7331037,42.9105456 L97.7653146,42.9259322 L97.7653146,42.9259322 L97.7927173,42.9232408 C97.8342514,42.9061512 97.8635696,42.8280271 97.9417513,42.7499031 C99.2851179,41.5107882 100.969942,40.868783 102.714151,40.8943539 L102.990004,40.9039494 C103.266269,40.9191132 103.543644,40.9510126 103.82102,40.999925 C105.572291,41.1249234 107.073381,41.9999125 108.074108,43.3748953 L108.231036,43.6467345 C108.893752,44.8394127 109.326267,46.2322525 109.326267,47.6250922 L109.326267,47.6250922 L109.326267,57.4999688 L109.323911,57.5841734 C109.30944,57.829448 109.225283,58.0055951 108.989256,58.0296617 L108.904763,58.0316875 C108.844637,58.0292979 108.776541,58.018943 108.699562,57.9997125 L106.072654,57.9999625 L105.955484,57.9982218 C105.445949,57.9816294 105.445949,57.8416311 105.445949,57.3749703 L105.445949,57.3749703 L105.445949,48.1250859 L105.432069,47.7500906 C105.396363,47.2500969 105.297091,46.7501031 105.197019,46.2501094 L105.197019,46.2501094 L105.129961,46.0808859 C104.581672,44.8041639 103.256912,44.010554 101.819567,44.2501344 L101.819567,44.2501344 L101.619537,44.2688675 C99.8288053,44.4839149 98.3081334,45.9420775 98.068093,47.7500906 L98.068093,47.7500906 L97.9890902,48.0417536 C97.9397437,48.2361957 97.8972746,48.4306377 97.8630831,48.6250797 L97.8183764,48.9164927 C97.7548873,49.4025977 97.7471656,49.8887028 97.8166605,50.3748078 L97.8165081,57.6099832 C97.8142222,58.1249609 97.7776478,58.1249609 97.1924573,58.1249609 L94.68939,58.1247109 C94.063936,58.1247109 94.063936,57.9997125 94.063936,57.3747203 L93.8137543,46.3748578 L93.8137543,35.6249922 C93.8137543,35.039062 93.8137543,35.0024414 94.3291126,35.0001526 L97.0661156,35 Z M35.6858233,44.4534198 L35.488958,44.4597929 C33.209587,44.5785916 31.5970723,46.2307782 31.3934361,48.8750766 L31.3934361,48.8750766 L31.3540489,49.5718609 C31.3229268,50.3985791 31.3425244,51.2299048 31.3636568,52.0822208 C31.3780587,52.6682505 31.393311,53.2640743 31.393311,53.8751391 C31.3684914,53.9247416 31.3535208,53.9694233 31.3474222,54.0101604 C31.3230096,54.1746973 31.4431592,54.2748526 31.6436177,54.3750078 L31.6436177,54.3750078 L31.8422483,54.5097718 C32.3296627,54.8105492 32.9727077,55.0156248 33.51998,55.1249984 C33.6956196,55.1727292 33.8730405,55.2103739 34.0516127,55.2384046 C34.0691924,55.2413688 34.0864613,55.2439819 34.1037412,55.2465055 L34.0516127,55.2384046 C34.1400787,55.2522912 34.2288272,55.2638183 34.3177817,55.2730431 L34.1037412,55.2465055 C34.1963565,55.2600316 34.2892878,55.270989 34.3824273,55.2794496 L34.3177817,55.2730431 C34.4090793,55.282511 34.500594,55.2895538 34.5922428,55.2942336 L34.3824273,55.2794496 C34.4679014,55.2872138 34.5535508,55.2928753 34.6392923,55.2964895 L34.854,55.301 L34.936,55.299 L35.1427837,55.2946184 C35.1823954,55.2926876 35.2219919,55.2903434 35.2615652,55.2875913 C35.3337356,55.2824557 35.4057873,55.2760799 35.4777134,55.2683828 L35.2615652,55.2875913 C35.352774,55.2812483 35.443859,55.2727382 35.5347196,55.2621281 L35.4777134,55.2683828 C35.5788927,55.2575552 35.6798235,55.2441131 35.7803677,55.2281475 L35.5347196,55.2621281 C35.6408109,55.2497394 35.7465964,55.2344876 35.8519161,55.2164792 L35.7803677,55.2281475 C35.8749608,55.2131269 35.9692117,55.1958727 36.0630055,55.1764607 L35.8519161,55.2164792 C35.9658624,55.1969957 36.0792635,55.1742856 36.191917,55.1484836 C36.2789026,55.1284367 36.365207,55.1067347 36.4509787,55.0832603 L36.191917,55.1484836 C36.2904682,55.1259116 36.3884473,55.1009734 36.4857187,55.0737593 L36.4509787,55.0832603 C36.5398556,55.0589361 36.6281605,55.0327089 36.7157908,55.0046462 L36.4857187,55.0737593 C36.6025336,55.0410774 36.7183278,55.0051133 36.8328666,54.9660233 L36.7157908,55.0046462 C36.8160002,54.9725553 36.9153275,54.9380642 37.013619,54.9012742 L36.8328666,54.9660233 C36.9247857,54.9346529 37.0158963,54.9012695 37.1060769,54.8659537 L37.013619,54.9012742 C37.1050057,54.8670686 37.1954971,54.8308758 37.2849698,54.7927769 L37.1060769,54.8659537 C37.2047514,54.8273116 37.3023126,54.786356 37.3986015,54.7431929 L37.647977,54.6250047 L37.8479558,54.4955123 C39.355597,53.4687691 40.269672,51.6719166 40.1497933,49.8750641 L40.1497933,49.8750641 L40.1421347,49.5000687 C40.1210718,48.9844085 40.0565631,48.4687483 39.9486087,47.9530881 C39.8994261,47.7188827 39.8413968,47.4845523 39.7743958,47.2502219 C39.3991233,46.0002375 38.3983968,45.00025 37.1474886,44.6252547 C36.6383981,44.5031632 36.1491976,44.4473229 35.6858233,44.4534198 Z M121.208643,44.3763828 L120.984911,44.3810347 C119.482977,44.4436768 118.183436,45.1344126 117.281654,46.1770029 C116.448822,47.1407689 115.955705,48.4043941 115.955705,49.7501906 C115.955705,50.208388 116.016043,50.6538854 116.129138,51.0790924 C116.163697,51.211343 116.204071,51.3417995 116.249337,51.4700618 C116.276105,51.5445029 116.304146,51.6185849 116.333805,51.6918737 C116.376301,51.7978882 116.422471,51.9018999 116.471869,52.0041278 C116.723632,52.5249276 117.059089,52.9996674 117.46037,53.4099394 C117.974465,53.9351785 118.596078,54.3547271 119.287545,54.6307016 C119.329388,54.6475439 119.372139,54.6639608 119.415144,54.679827 C119.64344,54.7639314 119.878543,54.8325554 120.119498,54.8843919 C120.471451,54.9601855 120.836257,55.000125 121.209519,55.000125 L121.208643,55 L121.423458,54.9955739 C123.471199,54.9110778 125.236589,53.624861 126.024288,51.8331398 C126.059167,51.7539854 126.091884,51.6742014 126.122652,51.5934977 C126.162317,51.4894447 126.198565,51.3845154 126.231486,51.2782027 C126.272437,51.1455108 126.308195,51.0110892 126.338567,50.8747626 C126.35094,50.8201989 126.362275,50.7651925 126.372725,50.7098954 C126.4313,50.3982543 126.462083,50.077462 126.462083,49.7501906 C126.462083,48.7731079 126.210094,47.8623239 125.770857,47.0783003 C124.861169,45.4556599 123.148658,44.3763828 121.208643,44.3763828 L121.208643,44.3763828 Z M15.2565954,44.5000062 L15.0309087,44.5047784 C12.3812761,44.6141705 10.3091686,46.6434155 10.0295777,49.3784192 C10.0169296,49.5007968 10.0080027,49.6247153 10.0027811,49.7499406 C10.0027811,51.1249234 10.5031444,52.4999063 11.5038709,53.4998938 C11.5240679,53.5200758 11.5444177,53.5400542 11.5649173,53.5598289 C11.8059417,53.792335 12.067524,53.9965915 12.3447829,54.1727234 C13.2135159,54.7243006 14.2350557,54.999875 15.2565954,54.999875 L15.2565954,54.999875 L15.5145036,54.9926119 C16.8031284,54.9202862 18.0711389,54.3123836 19.00932,53.3748953 C20.0100465,52.3749078 20.5104098,50.999925 20.5104098,49.6249422 C20.5104098,48.2499594 20.0100465,46.999975 19.00932,45.9999875 L19.096,46.091 L19.0094451,46.0001125 L18.8175028,45.8184752 C17.8367187,44.9395844 16.5467196,44.5001312 15.2567205,44.5001312 L15.2565954,44.5000062 Z M169.862368,43.943056 L169.65329,43.9452065 C167.705565,44.0118561 165.914069,45.4063699 165.365702,47.3750953 L165.387,47.303 L165.365577,47.3749703 C165.250911,47.718716 165.346466,47.8523949 165.652244,47.8722876 L165.74085,47.8749641 L173.621571,47.8749641 C173.996844,47.8749641 173.996844,47.7499656 173.996844,47.3749703 L173.996844,47.3749703 L173.962741,47.175015 C173.837661,46.5497423 173.551849,45.977592 173.153649,45.4948412 C173.004704,45.3137142 172.83963,45.1452894 172.661302,44.991352 L172.507455,44.8651305 C172.364905,44.7532509 172.214961,44.6502303 172.058776,44.5569348 C172.014778,44.5303439 171.969668,44.5044955 171.924075,44.4794603 C171.823346,44.4244177 171.720659,44.373244 171.615923,44.3262257 C171.261839,44.1671162 170.884241,44.0556771 170.494301,44.0000125 C170.353574,43.9765753 170.212846,43.9604622 170.072516,43.9513986 L169.862368,43.943056 L169.862368,43.943056 Z M61.4151073,35 C61.6198014,35 61.7500613,35.0371896 61.8261872,35.1318551 L61.859958,35.1843214 C61.8990548,35.2605799 61.9155957,35.3638858 61.9155957,35.50025 L61.9155957,35.50025 L61.9155957,38.3752078 L61.9124003,38.4716566 C61.8907843,38.7729301 61.7563892,38.8752016 61.4152324,38.8752016 L61.4152324,38.8752016 L58.5381436,38.8752016 L58.4419054,38.8720367 C58.3062208,38.8623721 58.2107091,38.8299214 58.1467396,38.7658015 C58.1317107,38.7502694 58.1177458,38.7325395 58.1055811,38.7127528 C58.0576551,38.6350341 58.0377803,38.5251797 58.0377803,38.3752078 L58.0377803,38.3752078 L58.0377803,35.50025 L58.0409757,35.4040814 C58.0474605,35.3139233 58.0640955,35.2415152 58.093418,35.1843214 L58.1269387,35.1318551 C58.2030646,35.0371896 58.3333245,35 58.5380185,35 L61.4151073,35 Z" id="Optimhome"></path>
        </g>
    </g>
</svg>