<?xml version="1.0" encoding="UTF-8"?>
<svg width="383px" height="42px" viewBox="0 0 383 42" version="1.1" xmlns="http://www.w3.org/2000/svg" xmlns:xlink="http://www.w3.org/1999/xlink">
    <!-- Generator: Sketch 63.1 (92452) - https://sketch.com -->
    <title>SP_Innovation</title>
    <desc>Created with Sketch.</desc>
    <g id="Symbols" stroke="none" stroke-width="1" fill="none" fill-rule="evenodd">
        <g id="01_logos-/-SP_Innovation" transform="translate(0.000000, -1.000000)" fill="#000000">
            <path d="M260.320213,1.05383598 C263.330471,1.05383598 266.122706,1.58932706 268.698829,2.65935299 C271.273996,3.72937893 273.494396,5.19815447 275.362898,7.06567962 C277.2314,8.93416101 278.700192,11.1554928 279.77023,13.7306311 C280.839312,16.3057695 281.374809,19.0989292 281.374809,22.1081979 C281.374809,25.1547597 280.848874,27.9574817 279.797005,30.5134954 C278.745136,33.0704653 277.275388,35.2745849 275.390629,37.1239416 C273.503959,38.9742545 271.282602,40.4152993 268.725604,41.4489883 C266.168606,42.4826774 263.366809,43 260.320213,43 C257.164606,43 254.281528,42.5104082 251.670024,41.5302682 C249.058519,40.5520408 246.809432,39.155939 244.923717,37.341963 C243.037047,35.5289432 241.577817,33.3343859 240.544117,30.7582913 C239.510416,28.1841092 238.994044,25.3001072 238.994044,22.1081979 C238.994044,19.1352661 239.545797,16.3602748 240.653129,13.7841802 C241.758547,11.2099981 243.282802,8.97910401 245.223022,7.09341041 C247.163242,5.20771681 249.429542,3.72937893 252.023834,2.65935299 C254.616214,1.58932706 257.382629,1.05383598 260.320213,1.05383598 Z M126.814111,1.70694385 L126.814111,36.1992632 C126.741436,36.8160342 126.822717,37.2692892 127.058909,37.5590281 C127.294146,37.8497233 127.576238,37.9941146 127.902317,37.9941146 C128.192059,37.9941146 128.463633,37.8497233 128.717994,37.5590281 C128.971399,37.2692892 129.062242,36.8160342 128.990524,36.1992632 L128.990524,1.70694385 L134.703129,1.70694385 L134.703129,35.7641767 C134.703129,38.0486199 134.113126,39.8262591 132.935033,41.0951817 C131.755983,42.3660168 130.07873,43 127.902317,43 C125.616892,43 123.903302,42.3736667 122.76059,41.1229125 C121.618833,39.8712021 121.046999,38.0849568 121.046999,35.7641767 L121.046999,1.70694385 L126.814111,1.70694385 Z M7.01883602,1 C8.90359431,1 10.4364545,1.63493943 11.6155042,2.90386205 C12.7935977,4.1737409 13.3836007,5.95042382 13.3836007,8.23582326 L13.3836007,14.9820547 L7.99803059,14.9820547 L7.99803059,7.69172607 C7.99803059,6.49452101 7.59832031,5.89591847 6.80081223,5.89591847 C6.07502251,5.89591847 5.71260578,6.33100498 5.71260578,7.20213422 L5.71260578,12.3160741 C5.71260578,14.2017677 6.12952846,15.653331 6.96433008,16.6678954 L11.3161997,21.8908459 C12.8394974,23.7402026 13.6016245,26.2072865 13.6016245,29.2901852 L13.6016245,35.7638899 C13.6016245,38.0492893 12.9762404,39.8269285 11.7245161,41.0958511 C10.4737481,42.3657299 8.81370731,42.9997131 6.74630629,42.9997131 C4.56989337,42.9997131 2.90124639,42.4202353 1.74132158,41.2593671 C0.579484282,40.0984989 0,38.4298705 0,36.2534817 L0,27.6578936 L5.71260578,27.6578936 L5.71260578,36.9610949 C5.71260578,37.6868766 6.07502251,38.0492893 6.80081223,38.0492893 C7.56293925,37.9766155 7.94352464,37.2690023 7.94352464,35.9274059 L7.94352464,29.5617556 C7.94352464,28.4745175 7.76183815,27.5316707 7.39942141,26.7332152 C7.03604843,25.935716 6.47473279,25.065543 5.71260578,24.12174 C5.56725658,23.9773486 5.45824469,23.8492133 5.38652634,23.7402026 L2.3944367,20.2585543 C1.52329779,19.24399 0.916082413,18.218907 0.571834324,17.185218 C0.226629991,16.1515289 0.0545059473,14.8185386 0.0545059473,13.1862471 L0.0545059473,7.74623141 C0.0545059473,5.56984265 0.671283772,3.90217042 1.90483942,2.74034602 C3.13743883,1.58043408 4.84242311,1 7.01883602,1 Z M355.743775,1.05440972 C357.919232,1.05440972 359.596485,1.68934915 360.775535,2.95827177 C361.954584,4.22815062 362.543631,6.02395822 362.543631,8.34473832 L362.543631,35.7637942 C362.543631,38.0491937 361.954584,39.8268328 360.775535,41.0957555 C359.596485,42.3656343 357.919232,42.9996175 355.743775,42.9996175 C353.567362,42.9996175 351.889153,42.3656343 350.711059,41.0957555 C349.53201,39.8268328 348.942007,38.0491937 348.942007,35.7637942 L348.942007,8.34473832 C348.942007,6.02395822 349.53201,4.22815062 350.711059,2.95827177 C351.889153,1.68934915 353.567362,1.05440972 355.743775,1.05440972 Z M335.505908,1.70694385 L335.505908,6.60381856 L331.153082,6.60381856 L331.153082,42.4559028 L325.440477,42.4559028 L325.440477,6.60381856 L321.142157,6.60381856 L321.142157,1.70694385 L335.505908,1.70694385 Z M290.623607,1.76154482 L292.635546,30.4868165 L292.962582,30.4868165 L295.356062,1.76154482 L301.286692,1.76154482 L296.499731,42.4559984 L288.719724,42.4559984 L284.366898,1.76154482 L290.623607,1.76154482 Z M22.4693596,1.70694385 L24.2642309,26.4064701 L24.5912666,26.4064701 L26.277126,1.70694385 L32.0987436,1.70694385 L33.5130295,26.4609754 L33.7855593,26.4609754 L36.0164781,1.70694385 L42.0006574,1.70694385 L36.9411667,42.4559028 L31.0105372,42.4559028 L29.106654,19.714744 L28.7805746,19.714744 L26.8757351,42.4559028 L20.6735321,42.4559028 L16.4306744,1.70694385 L22.4693596,1.70694385 Z M56.8520937,1.70694385 L56.8520937,6.60381856 L50.9214641,6.60381856 L50.9214641,16.6681822 L56.7430818,16.6681822 L56.7430818,21.4560462 L50.9214641,21.4560462 L50.9214641,37.505479 L56.8520937,37.505479 L56.8520937,42.4559028 L45.2633643,42.4559028 L45.2633643,1.70694385 L56.8520937,1.70694385 Z M72.5745732,1.70694385 L72.5745732,6.60381856 L66.6439437,6.60381856 L66.6439437,16.6681822 L72.4655613,16.6681822 L72.4655613,21.4560462 L66.6439437,21.4560462 L66.6439437,37.505479 L72.5745732,37.505479 L72.5745732,42.4559028 L60.9858438,42.4559028 L60.9858438,1.70694385 L72.5745732,1.70694385 Z M89.8747609,1.70694385 L89.8747609,6.60381856 L85.5219351,6.60381856 L85.5219351,42.4559028 L79.8102855,42.4559028 L79.8102855,6.60381856 L75.5119657,6.60381856 L75.5119657,1.70694385 L89.8747609,1.70694385 Z M109.894987,1.70694385 C114.790959,1.70694385 117.239902,4.01051174 117.239902,8.61669129 L117.239902,16.5046662 C117.239902,21.1835195 114.790959,23.5224681 109.894987,23.5224681 L109.350883,23.5224681 L109.350883,42.4559028 L103.638278,42.4559028 L103.638278,1.70694385 L109.894987,1.70694385 Z M344.428245,1.70656136 L344.428245,42.4555203 L338.770145,42.4555203 L338.770145,1.70656136 L344.428245,1.70656136 Z M145.312186,1.70694385 L149.664056,22.9248218 L149.827574,22.9248218 L149.718562,1.70694385 L155.26765,1.70694385 L155.26765,42.4559028 L149.446032,42.4559028 L144.876139,20.8029384 L144.713577,20.8029384 L144.713577,42.4559028 L139.218039,42.4559028 L139.218039,1.70694385 L145.312186,1.70694385 Z M315.594503,1.70694385 L319.185202,42.4559028 L313.363584,42.4559028 L312.764975,34.2408959 L309.718379,34.2408959 L309.11977,42.4559028 L303.352659,42.4559028 L307.487461,1.70694385 L315.594503,1.70694385 Z M373.04358,1.70694385 L377.396406,22.9248218 L377.559924,22.9248218 L377.449956,1.70694385 L383,1.70694385 L383,42.4559028 L377.178382,42.4559028 L372.608489,20.8029384 L372.444971,20.8029384 L372.444971,42.4559028 L366.950389,42.4559028 L366.950389,1.70694385 L373.04358,1.70694385 Z M194.001393,1.70656136 L194.001393,42.4555203 L188.343293,42.4555203 L188.343293,1.70656136 L194.001393,1.70656136 Z M224.958285,1.70694385 L229.310154,22.9248218 L229.473672,22.9248218 L229.36466,1.70694385 L234.913748,1.70694385 L234.913748,42.4559028 L229.09213,42.4559028 L224.522237,20.8029384 L224.359675,20.8029384 L224.359675,42.4559028 L218.864137,42.4559028 L218.864137,1.70694385 L224.958285,1.70694385 Z M165.331647,1.76154482 L165.331647,16.2867404 L165.657726,16.2867404 L169.248425,1.76154482 L175.070043,1.76154482 L170.391138,20.639518 L174.852975,42.4559984 L168.813334,42.4559984 L165.60322,25.263866 L165.331647,25.263866 L165.331647,42.4559984 L159.619041,42.4559984 L159.619041,1.76154482 L165.331647,1.76154482 Z M204.5569,1.70694385 L208.908769,22.9248218 L209.072287,22.9248218 L208.963275,1.70694385 L214.512363,1.70694385 L214.512363,42.4559028 L208.690745,42.4559028 L204.120852,20.8029384 L203.958291,20.8029384 L203.958291,42.4559028 L198.462752,42.4559028 L198.462752,1.70694385 L204.5569,1.70694385 Z M260.320213,5.95071069 C258.034788,5.95071069 255.921488,6.36858498 253.982223,7.20242109 C252.041047,8.03721344 250.381962,9.17895693 249.004013,10.629564 C247.625109,12.0801711 246.546465,13.7946988 245.767125,15.7702784 C244.98683,17.7477705 244.597638,19.8600916 244.597638,22.1081979 C244.597638,24.502608 244.960055,26.6885591 245.685844,28.6641387 C246.410678,30.6416308 247.452985,32.3552023 248.813721,33.8048531 C250.173501,35.2564164 251.823979,36.3809477 253.765156,37.1784469 C255.70442,37.9769024 257.889439,38.375652 260.320213,38.375652 C262.677356,38.375652 264.817432,37.9587339 266.739484,37.1239416 C268.662492,36.2901055 270.312014,35.1474058 271.690919,33.6967987 C273.068867,32.2461916 274.138905,30.5326201 274.901032,28.555128 C275.662203,26.5785922 276.042788,24.4299342 276.042788,22.1081979 C276.042788,19.8237547 275.653597,17.7018713 274.873301,15.7435039 C274.093005,13.7841802 273.014361,12.0801711 271.636413,10.629564 C270.257508,9.17895693 268.598423,8.03721344 266.658203,7.20242109 C264.717982,6.36858498 262.605638,5.95071069 260.320213,5.95071069 Z M355.743775,5.95032819 C355.344065,5.95032819 355.063885,6.06890122 354.900367,6.3041348 C354.736849,6.54032462 354.655569,6.98401723 354.655569,7.63712511 L354.655569,36.1988808 C354.655569,36.8883255 354.736849,37.3511428 354.900367,37.5863764 C355.063885,37.8225662 355.344065,37.940183 355.743775,37.940183 C356.505902,37.940183 356.885531,37.3597489 356.885531,36.1988808 L356.885531,7.63712511 C356.885531,6.98401723 356.80425,6.54032462 356.640733,6.3041348 C356.477215,6.06890122 356.178866,5.95032819 355.743775,5.95032819 Z M311.568713,10.9556398 L311.296183,10.9556398 L310.207977,29.0179453 L312.329884,29.0179453 L311.568713,10.9556398 Z M110.003999,6.44030253 L109.350883,6.44030253 L109.350883,18.681055 L110.003999,18.681055 C111.01953,18.681055 111.527296,18.064284 111.527296,16.8316982 L111.527296,8.34416458 C111.527296,7.61933915 111.408722,7.12018496 111.173486,6.84765825 C110.937293,6.57608777 110.548102,6.44030253 110.003999,6.44030253 Z" id="SP_Innovation"></path>
        </g>
    </g>
</svg>