<svg xmlns="http://www.w3.org/2000/svg" width="184" height="100" viewBox="0 0 184 100">
    <path fill-rule="evenodd" d="M83.497 62.27c.475.97 1.089 1.873 1.729 2.95.626-1.068 1.232-1.974 1.704-2.946.39-.802.924-1.047 1.885-.779-.944 1.442-1.842 2.864-2.8 4.243-.282.404-1.42.289-1.706-.136-.897-1.331-1.764-2.683-2.69-4.1.96-.29 1.486-.033 1.878.769zm15.468-.857c.119.002.235.199.353.304-.15.11-.296.31-.449.314-1.065.03-2.13.02-3.196.022h-1.118v1.21c1.46.105 2.981-.052 4.453.085l-.092.628h-4.335v1.274h4.665l.14.29c-.197.13-.391.374-.59.377-1.791.03-3.584.017-5.485.017V61.4c1.906 0 3.78-.006 5.654.013zm-7.723.037v4.436h-1.039V61.45h1.039zm12.912 3.529c15.444-.015 30.889-.018 46.333-.02h24.255l.25.307c-.22.183-.417.423-.67.531-.206.089-.479.022-.723.022-23.136 0-46.271.002-69.407-.017-.437 0-1.243.358-1.26-.406-.017-.811.802-.417 1.222-.417zm-92.9-.003c14.775-.012 29.551-.016 44.327-.016h23.247l.236.331c-.233.175-.446.394-.705.51-.178.08-.42.018-.632.018-22.164 0-44.327.002-66.49-.017-.435 0-1.251.347-1.237-.431.014-.756.819-.394 1.254-.395zm156.678-25.692c.183.011.47.492.48.765.053 1.25.025 2.505.025 3.758l-.006 5.867c0 1.956.004 3.912.023 5.867.009.869-.25 1.107-1.126 1.167-1.82.124-3.297-.399-4.798-1.471-5.354-3.826-10.806-7.514-16.222-11.252-.268-.185-.55-.347-.97-.61-.026.46-.058.776-.059 1.091-.003 3.728-.024 7.457.016 11.185.008.805-.22 1.102-1.029 1.036-.756-.062-1.521-.035-2.281-.007-.56.02-.815-.133-.812-.767.022-5.378.013-10.757.016-16.135 0-.121.025-.241.053-.507 1.876.013 3.59-.222 5.319 1.015 5.499 3.936 11.144 7.666 16.734 11.473.289.196.593.37 1.074.668V39.248c1.272 0 2.42-.035 3.563.036zm-94.139.551c.25.063.562.444.592.705.081.721.028 1.458.028 2.176-1.842-.48-3.61-1.028-5.416-1.393-3.755-.76-7.514-.824-11.14.614-1.198.475-2.386 1.13-3.378 1.947-2.6 2.143-2.533 5.312.051 7.469 1.813 1.513 3.98 2.211 6.256 2.577 4.429.712 8.723-.028 12.955-1.32.31-.094.618-.2.944-.306.043.177.083.265.081.35-.068 2.889.576 2.242-2.148 2.935-6.156 1.568-12.28 1.628-18.271-.821-1.649-.674-3.173-1.556-4.41-2.872-2.415-2.569-2.401-6.104.067-8.641 1.845-1.897 4.205-2.87 6.676-3.613 5.723-1.722 11.428-1.247 17.113.193zm61.045-.598c.018.377.044.67.044.965.002 5.164-.013 10.328.018 15.493.004.75-.192 1.05-.965.991-.757-.058-1.524-.055-2.281 0-.782.055-.98-.28-.974-1.014.027-3.789.014-7.578.01-11.367 0-.356-.035-.71-.065-1.294l-6.571 4.898c-.685.51-1.385 1-2.045 1.54-.625.512-1.165.461-1.796-.017-2.478-1.877-4.979-3.722-7.474-5.576-.285-.212-.586-.403-1.021-.701-.026.467-.058.783-.058 1.098l-.01 5.684c-.002 1.895.004 3.79.028 5.684.011.875-.275 1.113-1.091 1.067-1.023-.058-2.051-.014-3.129-.014V39.259c1.399 0 2.76-.024 4.117.02.263.01.533.267.773.445 2.715 2.017 5.436 4.027 8.127 6.077.507.385.835.373 1.337-.003 2.684-2.007 5.381-3.999 8.117-5.934.503-.356 1.195-.54 1.82-.6.99-.099 1.996-.027 3.089-.027zm-105.18-.91c1.152.065 2.312-.016 3.466.04.302.013.71.221.87.47 3.704 5.774 7.38 11.565 11.06 17.355.062.097.098.21.219.477-1.516 0-2.883.033-4.245-.027-.281-.012-.637-.311-.805-.576-.833-1.313-1.582-2.68-2.436-3.977-.204-.308-.698-.595-1.061-.599-3.863-.043-7.727-.015-11.59-.04-.565-.003-.886.197-1.166.666-.767 1.282-1.606 2.52-2.356 3.812-.336.58-.742.786-1.396.759-1.143-.048-2.289-.013-3.599-.013.263-.434.423-.715.6-.986 3.587-5.486 7.19-10.962 10.747-16.469.44-.682.903-.938 1.692-.893zm63.32-3.299c.265.005.66.121.772.315 1.124 1.946 2.201 3.92 3.292 5.886-2.12-.768-3.957-.619-5.524.956-1.22 1.226-1.549 2.746-1.065 4.394.09.31.51.673.835.74 1.278.265 2.38.816 3.132 1.88.43.61.902.631 1.491.44 2.045-.666 3.093-2.129 3.32-4.455 1.142 2.064 2.194 3.943 3.209 5.842.103.192.067.553-.047.754-.858 1.513-1.74 3.012-2.648 4.494-.116.19-.434.358-.66.36-2.066.028-4.132.017-6.465.017 1.415-.918 2.206-2.006 2.46-3.466.384-2.214-1.317-4.69-3.537-5.005-.329-.047-.825.16-1.043.42-.844 1.005-1.854 1.69-3.155 1.838-.683.078-.923.459-1.046 1.046-.389 1.85.163 3.37 1.577 4.592.176.152.37.284.745.57-2.337 0-4.451.015-6.565-.024-.225-.004-.515-.285-.656-.512-.866-1.4-1.714-2.814-2.524-4.248-.136-.242-.183-.672-.06-.903 1-1.884 2.05-3.74 3.168-5.753.116.539.177.937.287 1.32.47 1.626 1.53 2.704 3.139 3.159 1.662.47 3.117-.008 4.358-1.191.385-.368.54-.729.288-1.29-.538-1.198-.533-2.452.01-3.643.274-.599.112-.977-.304-1.365-1.393-1.302-2.976-1.713-4.79-1.03-.252.095-.494.212-.969.419l1.85-3.339c.489-.88.936-1.788 1.488-2.626.192-.292.639-.567.98-.58 1.55-.061 3.104-.041 4.656-.012zm-62.062 6.089l-5.065 7.903h9.873l-4.808-7.903z"/>
</svg>
