<svg xmlns="http://www.w3.org/2000/svg" width="184" height="100" viewBox="0 0 184 100">
    <path fill-rule="evenodd" d="M93.903 87.923c.058.054.119.104.18.154.007.006.023.001.082.001v-1.02h2.424V99.93h-2.64v-3.317c-.188-.013-.34-.032-.49-.034-.929-.01-1.859.025-2.784-.031-2.55-.154-4.517-2.25-4.567-4.82-.048-2.519 1.83-4.664 4.336-4.957 1.334-.155 2.483.237 3.459 1.151zm7.743-.861c.008.16.02.314.02.468.002 1.588-.005 3.175.004 4.763.007 1.14.551 1.93 1.504 2.227 1.317.41 2.698-.438 2.777-1.802.085-1.451.042-2.91.054-4.364.003-.421 0-.843 0-1.292h2.625v9.524c-.746 0-1.485.006-2.223-.01-.063-.002-.166-.151-.174-.239-.023-.256-.008-.517-.008-.87l-.33.295c-1.302 1.147-2.788 1.47-4.389.802-1.603-.669-2.446-1.948-2.482-3.688-.037-1.825-.012-3.651-.013-5.477 0-.104.013-.208.021-.337h2.614zm37.098 3.252c.235.758.263 1.525.172 2.345h-8.024c.335.946.924 1.56 1.804 1.886 1.224.452 2.589.111 3.763-.945l1.894 1.227c-.606.743-1.328 1.27-2.179 1.6-1.556.606-3.13.657-4.686.002-2.003-.844-3.293-2.847-3.157-4.844.149-2.19 1.648-4.013 3.807-4.628 2.884-.823 5.763.642 6.606 3.357zm-12.373-6.755v12.988h-2.42v-.986c-.069.004-.102-.004-.114.008-2.214 2.324-6.06 1.412-7.452-1.45-1.472-3.027.458-6.589 3.803-7.02.405-.051.818-.056 1.228-.062.74-.01 1.482-.002 2.273-.002v-3.476h2.682zm-65.513 3.496c.007.133.02.261.02.39.002 2.91-.003 5.82.009 8.73.001.332-.096.433-.425.423-.739-.022-1.478-.007-2.232-.007v-9.536h2.628zm-5.633-3.528v13.038H52.58v-4.271h-4.864v4.273H45v-.49l.003-6.948c.002-2.794 2.006-5.141 4.788-5.502 1.019-.132 2.062-.08 3.094-.097.769-.013 1.537-.003 2.34-.003zm28.903 3.53v9.509h-2.61v-9.508h2.61zm29.808.002v9.503h-2.633v-9.503h2.633zm-44.866-.316v2.27c-.252 0-.514-.024-.77.004-1.231.134-2.04 1.07-2.056 2.413-.02 1.547-.006 3.096-.007 4.644v.48h-2.646v-9.486h2.398v1.128l.073.064c.715-1.077 1.68-1.635 3.008-1.517zm7.103-3.186v10.757h3.485v2.232h-6.147v-12.99h2.662zm44.795 5.762c-.21.002-.423.032-.627.082-1.284.31-2.148 1.567-1.98 2.864.176 1.35 1.35 2.337 2.743 2.305 1.323-.03 2.515-1.077 2.582-2.34.05-.948.01-1.9.01-2.915-.934 0-1.831-.005-2.728.004zm-29.934-.25c-1.262.067-2.332 1.068-2.451 2.295-.133 1.367.66 2.624 1.98 2.839 1.084.176 2.208.114 3.297.156 0-1.156.103-2.21-.026-3.236-.161-1.284-1.419-2.127-2.8-2.054zm42.797-.158c-1.376-.025-2.578.796-2.884 1.99h5.41c-.246-1.143-1.304-1.968-2.526-1.99zM50.23 85.87c-1.22.187-2.1.915-2.41 2.128-.168.66-.115 1.378-.164 2.095h4.888v-4.244c-.79 0-1.569-.093-2.314.021zm10.647-2.308c0 .684.006 1.369-.008 2.053-.002.064-.126.178-.194.18-.806.012-1.611.008-2.441.008v-2.24h2.643zm53.06-.008v2.229h-2.624v-2.23h2.624zm-29.804.005v2.214h-2.6v-2.214h2.6zM91.942.005c7.115.006 13.717 1.86 19.698 5.712 8.353 5.38 13.7 12.936 16.059 22.577.589 2.404.877 4.857.925 7.336.184 9.294-2.719 17.504-8.682 24.637-.593.71-1.235 1.377-1.854 2.064l-.107-.044v-.465c0-8.51.05-17.022-.014-25.532-.093-12.149-8.567-22.25-19.845-24.989-2.634-.64-5.304-.878-7.999-.684-11.14.801-20.133 8.403-23.16 18.533-.847 2.837-1.2 5.742-1.046 8.694.63 11.995 9.187 21.518 20.133 24.033 2.049.47 4.124.68 6.22.682 8.301.007 16.602.003 24.903.003h.599c-.124.143-.19.232-.268.307-4.768 4.59-10.363 7.689-16.794 9.28-3.39.84-6.837 1.183-10.317 1.013-8.3-.405-15.683-3.234-22.04-8.593-6.178-5.208-10.19-11.777-12.078-19.629-.439-1.825-.743-3.676-.834-5.553-.073-1.506-.134-3.014-.135-4.521C55.295 23.443 55.3 12.021 55.3.598c0-.595 0-.595.6-.595 12.014 0 24.028-.008 36.042.002zm15.035 32.943c.269 1.094.422 2.243.432 3.368.046 5.082.02 10.165.02 15.247v.395c-.158.014-.262.031-.365.031-5.224 0-10.449.041-15.672-.02-3.63-.043-6.826-1.36-9.569-3.72-2.869-2.47-4.616-5.6-5.19-9.333-1.231-8.008 3.85-15.524 11.67-17.382 8.4-1.995 16.613 3.037 18.674 11.414z"/>
</svg>
