<svg xmlns="http://www.w3.org/2000/svg" width="184" height="100" viewBox="0 0 184 100">
    <path fill-rule="evenodd" d="M42.78 20.235c1.236.007 1.63.383 1.721 1.635.015.194 0 .39 0 .585 0 18.194-.006 36.388.018 54.582.002 1.184-.13 2.19-1.334 2.736h-2.819c-.07-.092-.137-.26-.211-.263-1.468-.056-1.387-1.055-1.386-2.11.02-18.585.03-37.169-.007-55.753-.002-1.067.42-1.38 1.318-1.4.9-.022 1.8-.018 2.7-.012zm89.759.273v58.838c-1.527 0-3.039.04-4.545-.04-.254-.013-.644-.517-.69-.834-.103-.727-.034-1.48-.034-2.22V20.507h5.269zm14.602 44.605c-.063.544 0 1.113-.2 1.568-1.839 4.167-3.722 8.314-5.64 12.571-.559-.312-1.097-.536-1.525-.891-.168-.139-.208-.624-.104-.864 1.24-2.88 2.528-5.738 3.778-8.613.183-.42.237-.897.377-1.452h-4.996v-2.32h8.31zm10.418-44.789v58.924h-5.25V20.324h5.25zm-46.998 50.298c-.875.59-1.52 1.579-2.835.515-.961-.777-2.858-.356-3.614.525-.99 1.151-1.025 2.944-.082 4.196.665.883 2.442 1.377 3.448.66 1.249-.89 2.012-.447 2.855.566-1.217 1.801-3.517 2.568-5.705 1.937-1.908-.55-3.54-2.658-3.61-4.665-.097-2.73 1.108-4.771 3.31-5.608 2.253-.857 4.529-.38 6.233 1.874zm8.476-2.223c2.676.644 4.279 3.068 3.933 6.149h-7.15c-.176 1.502 1.301 2.723 2.786 2.399.227-.05.452-.129.666-.22 1.542-.667 1.541-.669 3.113.23-1.367 2.442-4.378 2.675-6.311 1.755-2.55-1.215-3.477-4.175-2.353-7.232.768-2.086 3.315-3.563 5.316-3.081zm-36.341.303c.642.301 1.152.545 1.894.032.418-.289 1.2-.052 2.01-.052 0 3.303.015 6.454-.01 9.605-.006.673-1.003 1.064-1.953.622-.731-.34-1.248-.243-1.95.058-1.76.757-4.433-.455-5.249-2.418-1.09-2.62-.775-5.19 1.274-7.17 1.146-1.107 2.563-1.345 3.984-.677zm15.402 2.38c.203 2.399.13 4.822.15 7.236.008 1.004-.776.613-1.291.66-.679.064-1.113-.099-1.103-.939.022-1.909.007-3.82-.082-5.727-.02-.437-.293-.99-.633-1.26-.881-.696-2.154-.24-2.549.879-.19.538-.299 1.128-.32 1.698-.05 1.325-.026 2.651-.029 3.977-.003 1.363-.578 1.79-1.867 1.315-.214-.08-.464-.431-.466-.66-.03-3.15-.02-6.301-.02-9.638.892.374 1.958-.665 2.509.77.542-.269 1.097-.64 1.708-.829 1.954-.603 3.82.482 3.993 2.517zm-45.235-6.039c.758.084 1.606-.28 1.983.884 1.028 3.173 2.163 6.311 3.256 9.463.389 1.122.78 2.243 1.171 3.368-1.82.538-2.173.389-2.759-1.063-.737-1.827-.737-1.828-2.808-1.633-.038.003-.08.043-.11.034-2.257-.634-3.537.223-3.947 2.51-.03.167-.458.346-.716.374-.53.058-1.07.018-1.798.018 1.024-2.95 1.97-5.68 2.919-8.41.535-1.538 1.111-3.063 1.596-4.617.205-.656.49-1.008 1.213-.928zm-24.55.057v11.32h3.425c.081.206.154.309.158.414.084 2.17.082 2.169-2.116 2.163-1.015-.003-2.033.047-3.043-.023-.258-.017-.703-.396-.705-.612-.041-4.392-.03-8.784-.03-13.262h2.31zm35.527-.337v14.22c-.447 0-.829-.01-1.21.003-.773.03-1.076-.27-1.068-1.1.042-4.13.02-8.262.03-12.393 0-.224.079-.449.132-.73h2.116zm10.371 3.902c0 3.255.024 6.445-.049 9.634-.005.237-.7.63-1.083.64-.387.009-1.121-.36-1.126-.577-.073-3.222-.05-6.446-.05-9.697h2.308zm-5.133-3.931v14.154H66.8V64.734h2.278zm88.862-44.118v58.14h-.093v-58.14h.093zM81.89 70.773c-1.487-.04-2.558 1.061-2.668 2.873-.045 1.869.956 3.148 2.477 3.165 1.701.02 2.642-1.065 2.693-3.108.04-1.632-1.05-2.89-2.503-2.93zm-28.985-1.1c-.457 1.24-.866 2.499-1.313 3.841h3.335c-.48-1.4-.873-2.597-1.325-3.77-.04-.105-.675-.131-.697-.07zm64.77.95c-1.195.181-1.74.869-1.48 1.88h4.272c-.119-1.396-1.248-2.116-2.792-1.88zM36.07 64.695c.187.003.375.027.687.052.063 1.833-.053 3.55-1.232 5.015l-.407.005c-.018-.38-.07-.762-.046-1.14.03-.475.357-.817-.276-1.36-.456-.392-.243-1.557-.35-2.574.7 0 1.162-.004 1.624.002zm38.443 1.294c.014.982-.618 1.758-1.465 1.797-.705.033-1.452-.81-1.467-1.657-.015-.88.638-1.669 1.417-1.711.81-.044 1.501.672 1.515 1.57zM106.572 20c.258-.002.613.402.754.699.14.294.08.689.08 1.04.004 12.653.004 25.307.002 37.96 0 .313.055.654-.05.93-.232.61-.524 1.08-1.396.888-.785-.171-1.63-.089-2.448-.086-1.61.006-1.665.014-1.666-1.424v-.16V40.75l.007-9.666c0-3.222-.006-6.444-.029-9.666-.007-.954.29-1.209 1.196-1.209 1.183.001 2.366-.2 3.55-.21zm39.043 1.622c-.028 3.355-.011 6.71-.011 10.066v9.13c0 6.282.002 12.563-.002 18.845 0 1.532-.208 1.726-1.773 1.733-.782.003-1.567-.043-2.345.013-1.009.073-1.4-.476-1.519-1.349-.036-.269-.011-.546-.011-.819 0-12.25-.002-24.502.007-36.754 0-.458.138-.914.155-1.374.024-.647.373-.877.967-.874 1.095.005 2.19.026 3.285-.004.996-.028 1.255.486 1.247 1.387zm-76.348-1.214c.027.582.064 1.002.064 1.421.003 12.5.005 24.999 0 37.498 0 2.074-.013 2.095-2.075 2.056-1.053-.02-2.104-.134-3.127-.203V20.408h5.138zm50.68-.13c.018.399.049.769.049 1.139.001 12.924-.01 25.849.02 38.773.003.884-.217 1.157-1.097 1.114-1.394-.067-2.794-.017-4.276-.017V20.278h5.304zm-37.8.09v40.883c-1.601 0-3.188.02-4.774-.026-.188-.005-.41-.344-.534-.573-.081-.151-.012-.382-.012-.577-.006-13.085-.012-26.17-.015-39.255 0-.113.036-.227.075-.452h5.26zm-25.931-.09c.2.006.42.342.574.564.074.106.018.304.018.46 0 12.961-.005 25.923.014 38.884 0 .751-.202 1.06-.989 1.03-1.21-.045-2.425-.015-3.637.007-.563.01-.854-.136-.853-.788.022-13.235.025-26.47.035-39.704 0-.072.055-.143.188-.479 1.54 0 3.096-.021 4.65.026zm38.48.183v40.596h-5.161V20.461h5.161z"/>
</svg>
