<svg xmlns="http://www.w3.org/2000/svg" width="184" height="100" viewBox="0 0 184 100">
    <path fill-rule="evenodd" d="M107.176 30.235c1.647.006 3.27.258 4.872.636 3.623.853 6.781 2.53 9.303 5.309.505.555.96 1.155 1.44 1.74-.542.364-1.033.678-1.507 1.016-2.213 1.579-4.068 3.487-5.322 5.92-1.935 3.758-2.254 7.733-1.308 11.788 1.262 5.414 4.725 9.067 9.595 11.512.19.096.387.18.647.3-.64 1.555-1.232 3.107-1.91 4.62-1.535 3.432-3.626 6.523-5.943 9.469-1.225 1.558-2.525 3.045-4.123 4.24-2.287 1.709-4.814 2.463-7.673 1.936-1.591-.294-3.107-.813-4.602-1.41-1.793-.716-3.635-1.239-5.569-1.39-2.345-.185-4.603.24-6.809.996-1.489.51-2.957 1.082-4.457 1.558-1.272.403-2.588.603-3.932.462-1.6-.168-3.01-.82-4.304-1.74-1.67-1.186-3.055-2.666-4.359-4.232-4.11-4.939-7.181-10.443-9.106-16.582-1.024-3.267-1.746-6.59-1.995-10.01-.032-.44-.076-.878-.114-1.317v-2.983c.017-.094.04-.188.05-.283.07-.774.114-1.551.209-2.322.4-3.274 1.37-6.362 3.053-9.213 2.626-4.45 6.38-7.497 11.325-9.028 2.015-.624 4.087-.919 6.203-.743 1.47.122 2.894.49 4.288.954 1.873.623 3.738 1.27 5.598 1.93 1.39.493 2.75.576 4.166.042 1.836-.692 3.701-1.308 5.564-1.928 2.18-.725 4.405-1.256 6.72-1.247zM108.568 12c.006.863.054 1.727.01 2.587-.118 2.28-.776 4.414-1.881 6.402-1.762 3.17-4.15 5.752-7.3 7.585-1.992 1.16-4.148 1.733-6.467 1.651-.305-.01-.441-.064-.47-.419-.206-2.608.336-5.073 1.445-7.413 2.546-5.375 6.785-8.675 12.525-10.095.552-.137 1.122-.2 1.684-.298h.454z"/>
</svg>
