<svg xmlns="http://www.w3.org/2000/svg" width="184" height="100" viewBox="0 0 184 100">
    <path fill-rule="evenodd" d="M99.69 93.505v2.564h2.128v-2.557h1.21v6.302c-1.137.224-1.184.188-1.184-.885v-1.697h-2.152v1.964c0 .695 0 .696-.713.686-.152-.003-.303-.02-.482-.032v-6.345h1.193zm-8.91-.058c1.155.08 1.958.838 2.062 1.986-.294 0-.59.03-.874-.012-.152-.022-.339-.138-.416-.268-.268-.452-.635-.678-1.156-.604-.54.076-.86.363-.893.98-.043.843-.036 1.7.073 2.535.035.268.422.578.717.701.37.155.785.05 1.078-.299.516-.616.6-.643 1.462-.489-.12 1.105-.94 1.872-2.07 1.934-1.228.068-2.291-.57-2.415-1.642-.123-1.056-.124-2.149.003-3.204.128-1.07 1.206-1.704 2.43-1.618zm-10.372-.009c1.213.034 2.108.806 2.19 1.985.058.86.056 1.732-.01 2.592-.083 1.099-1.007 1.868-2.163 1.9-1.25.036-2.191-.658-2.374-1.78-.077-.478-.09-.965-.132-1.432.04-.487.052-.956.123-1.417.181-1.176 1.101-1.883 2.366-1.848zm-9.712.073c.922.076 1.497.672 1.67 1.528.17.853-.127 1.479-.949 2-.042.028-.077.066-.148.127l1.382 2.713c-.47 0-.86.028-1.241-.015-.126-.015-.268-.192-.34-.329-.281-.536-.584-1.068-.792-1.634-.217-.591-.586-.7-1.2-.517 0 .61-.033 1.248.01 1.88.035.512-.145.694-.637.623-.167-.025-.34-.004-.555-.004v-6.388c.946 0 1.878-.059 2.8.016zm-17.62-.037c.241.047.553-.156.697.245.712 1.989 1.439 3.971 2.158 5.957.016.043.002.098.002.205-.33 0-.664.05-.97-.02-.156-.035-.337-.269-.377-.442-.12-.526-.38-.77-.932-.666-.183.034-.382.027-.568.001-.688-.094-1.215.03-1.325.854-.013.103-.194.248-.31.26-.318.037-.642.013-1.048.013l.745-2.067c.484-1.335.976-2.667 1.446-4.007.09-.258.217-.384.481-.333zm67.119.029v1.829c0 .972.015 1.945-.007 2.916-.01.396.092.558.52.539.757-.034 1.518-.01 2.342-.01v1.106h-2.38c-.432 0-.864-.01-1.296.003-.272.008-.413-.061-.411-.374.01-1.945.007-3.89.01-5.834 0-.049.025-.098.047-.175h1.175zm9.603.008c.008.162.023.345.023.527.002 1.404.014 2.809-.006 4.213-.006.395.088.555.514.536.772-.034 1.547-.01 2.353-.01v1.076h-4.058V93.51h1.174zm-87.08-.012v5.266h2.82v1.087H41.54V93.5h1.178zm99.64 0v1.07H139.5v1.523h2.422v1.089h-2.436v1.579h2.876v1.092h-4.086v-6.354h4.084zm-29.155.015v1.09h-2.861v1.483h2.421v1.09h-2.416v1.574h2.853v1.101h-4.08v-6.338h4.083zM80.32 94.526c-.526-.006-.96.344-1.048.888-.065.41-.083.826-.122 1.242.04.433.055.868.125 1.293.09.556.498.867 1.06.862.543-.006.99-.346 1.022-.9.048-.827.048-1.66-.002-2.487-.033-.546-.496-.892-1.035-.898zm-27.033 1l-.12.003-.721 2.133H54l-.714-2.137zm15.815-.93v1.691h.905c.138-.001.278.008.413-.012.447-.066.766-.42.748-.852-.018-.458-.272-.765-.717-.816-.437-.05-.883-.01-1.349-.01zM42.57 76.934c.577 2.424.215 4.718-1.106 6.843-.09.147-.186.29-.308.478.51.441.972.858 1.453 1.251.306.25.354.477.072.778-.403.429-.796.868-1.176 1.318-.25.294-.475.282-.744.031-.417-.39-.86-.754-1.266-1.154-.241-.238-.417-.226-.707-.055-2.979 1.746-6.065 1.894-9.074.225-3.203-1.777-4.552-4.679-4.292-8.31.27-3.746 2.767-6.737 6.378-7.636 4.792-1.193 9.591 1.281 10.77 6.231zm111.885-6.236c.568.038 1.14.02 1.71.005.399-.01.547.151.542.559-.016 1.632-.006 3.265-.006 4.898l.051.001c-.053 1.891-.013 3.79-.18 5.67-.302 3.396-2.773 5.717-6.179 5.858-1.059.043-2.159-.006-3.185-.247-2.748-.645-4.536-2.84-4.696-5.772-.118-2.182-.072-4.373-.09-6.56-.01-1.286.01-2.571-.008-3.857-.005-.41.153-.562.55-.55.57.016 1.14 0 1.711.004.623.005.678.059.679.69.002 3.023-.005 6.046.004 9.068.003 1.266.263 2.47 1.194 3.393 1.332 1.317 2.963 1.416 4.634.902 1.58-.486 2.302-1.742 2.515-3.317.075-.549.095-1.107.097-1.662.009-2.796.016-5.593-.007-8.39-.004-.515.128-.729.664-.693zm-89.318.001c.569.03 1.141.025 1.71.002.442-.017.609.137.602.602-.024 1.615-.01 3.23-.01 4.846h-.095c0 1.874.116 3.756-.025 5.62-.26 3.417-2.76 5.782-6.172 5.918-1.075.043-2.194-.007-3.235-.256-2.694-.645-4.403-2.787-4.658-5.646-.065-.724-.097-1.455-.1-2.182-.01-2.762.003-5.524-.011-8.286-.002-.45.15-.632.6-.616.588.022 1.177.023 1.764 0 .435-.017.562.165.56.586-.013 2.866-.015 5.732 0 8.598.003.587.05 1.182.154 1.759.472 2.619 2.44 3.61 4.74 3.332 2.11-.253 3.324-1.598 3.5-3.734.04-.501.064-1.005.066-1.507.006-2.797.01-5.593-.005-8.39-.002-.461.126-.671.615-.646zm-57.355-.106c.516.038 1.039.035 1.555.001.424-.028.646.121.818.52 2.135 4.948 4.287 9.889 6.435 14.831.145.334.292.667.428 1.004.132.325.008.516-.334.522-.744.011-1.49.04-2.229-.022-.19-.016-.427-.31-.521-.528-1.399-3.265-2.777-6.54-4.16-9.81-.404-.954-.81-1.907-1.256-2.957-.109.212-.181.334-.236.464-1.737 4.1-3.478 8.2-5.199 12.307-.174.416-.393.59-.845.56-.551-.038-1.107.005-1.66-.017-.194-.008-.385-.106-.578-.163v-.313c.45-.99.913-1.974 1.348-2.971 1.87-4.289 3.74-8.578 5.588-12.876.18-.419.398-.584.846-.552zm96.564.111c2.575.017 5.152-.035 7.724.057 1.723.062 3.305.637 4.393 2.096 2.073 2.78.878 6.822-2.36 8.062-.174.067-.35.129-.606.222 1.255 1.771 2.472 3.476 3.671 5.193.2.285.324.622.483.935-.353.069-.704.174-1.06.198-.5.035-1.005-.021-1.503.018-.44.035-.691-.152-.93-.5-1.12-1.627-2.276-3.23-3.386-4.863-.259-.38-.533-.51-.977-.495-.983.032-1.968.01-3.016.01-.01.209-.028.391-.028.574l-.003 4.584c0 .617-.065.678-.687.68-.57.002-1.14-.01-1.71.004-.386.009-.563-.128-.563-.544.008-5.228.009-10.454 0-15.682-.001-.415.172-.551.558-.549zm-19.891-.112c.55.042 1.106.025 1.658.005.322-.012.503.104.633.404 2.279 5.261 4.568 10.518 6.85 15.778.23.53.12.69-.456.696-.588.005-1.177-.027-1.762.01-.438.028-.64-.146-.805-.542-1.674-3.994-3.367-7.98-5.056-11.968-.107-.253-.221-.504-.378-.86-.773 1.824-1.497 3.528-2.219 5.234-1.074 2.536-2.154 5.07-3.212 7.612-.156.374-.349.55-.766.523-.534-.034-1.071-.007-1.607-.009-.69-.002-.784-.138-.512-.764.821-1.891 1.646-3.78 2.468-5.67 1.429-3.29 2.865-6.576 4.275-9.872.187-.436.417-.612.889-.577zm86.473.642c1.447 2.265 2.926 4.509 4.395 6.76.085.128.177.252.321.457 1.048-1.592 2.058-3.125 3.066-4.66.6-.913 1.184-1.837 1.805-2.735.117-.168.373-.323.572-.333.76-.039 1.521-.01 2.282-.017.345-.003.493.134.492.498-.007 5.248-.007 10.496 0 15.744 0 .378-.136.54-.516.531-.57-.014-1.142-.002-1.712-.004-.668-.001-.71-.041-.71-.705V75.683l-.129-.047-5.158 7.713-5.181-7.671-.136.032v11.016c0 .737-.013.748-.76.749-.484 0-.968.002-1.453 0-.619-.004-.674-.057-.674-.692V75.678c0-1.442.01-2.884-.007-4.327-.006-.46.144-.672.627-.652.622.026 1.247.032 1.868-.002.465-.026.749.13 1.008.536zm-39.748.07c-.018 2.606-.009 5.212-.009 7.818v7.662c0 .683-.009.69-.706.691-.57.002-1.141-.008-1.712.003-.351.007-.486-.135-.485-.496.007-5.265.008-10.529 0-15.793-.001-.375.158-.489.495-.484.605.008 1.211.018 1.816-.004.44-.016.605.14.601.603zm-98.507 1.824c-2.633.636-4.324 2.897-4.411 5.856.053.464.081.933.164 1.392.609 3.365 3.826 5.463 7.122 4.64 2.656-.665 4.57-3.283 4.33-6.523-.277-3.743-3.588-6.24-7.205-5.365zm74.38.231c-.083 0-.165.032-.274.054v5.544c.054.032.083.065.112.065 1.673-.019 3.356.072 5.014-.091 1.917-.188 2.928-1.777 2.466-3.572-.277-1.077-1.269-1.861-2.611-1.925-1.567-.074-3.138-.056-4.708-.075zm3.477-64.243c7.882 9.373 7.847 23.027-.115 32.395-8.025 9.44-20.854 10.939-30.045 6.12 1.412.337 2.964.832 4.554 1.054 1.634.227 3.313.32 4.958.227 1.626-.091 3.27-.356 4.841-.787 1.587-.436 3.154-1.049 4.616-1.804 1.45-.749 2.844-1.667 4.105-2.704 1.275-1.05 2.46-2.25 3.495-3.54 1.022-1.275 1.976-2.663 2.665-4.14 4.262-9.136 3.53-17.937-2.874-25.702C99.704 1.713 90.541-.238 80.382 2.86c9.105-4.826 22.075-3.345 30.148 6.255zm-2.837 15.588c1.145.871 2.007 2.001 2.811 3.18.056.082.047.21.068.317-.12-.015-.264.01-.356-.049-.539-.343-1.045-.74-1.6-1.054-1.135-.643-2.312-.651-3.473-.068-.539.27-1.063.581-1.559.924-3.783 2.622-7.552 5.264-11.341 7.876-.578.399-1.214.74-1.867.995-1.317.512-2.618.37-3.84-.337-1.601-.928-2.66-2.379-3.672-3.868l.081-.16c.153.062.32.102.457.188.526.332 1.022.714 1.566 1.012 1.108.607 2.256.608 3.38.048.57-.284 1.123-.616 1.647-.98 3.684-2.551 7.357-5.118 11.037-7.676.383-.266.773-.527 1.182-.75 1.908-1.044 3.743-.92 5.479.402zm-9.038-5.036c1.151.919 2.017 2.083 2.829 3.292l-.073.179c-.141-.054-.297-.085-.422-.166-.477-.311-.926-.67-1.419-.953-1.179-.675-2.417-.755-3.613-.1-.967.529-1.888 1.15-2.797 1.779-3.344 2.312-6.673 4.646-10.014 6.965-.396.275-.81.533-1.242.748-1.747.872-3.432.752-5.036-.377-1.327-.934-2.261-2.22-3.114-3.684.136.033.294.032.405.105.42.272.814.586 1.237.854 1.368.865 2.777.898 4.164.081.907-.534 1.773-1.14 2.64-1.741 3.24-2.25 6.474-4.51 9.71-6.766.929-.648 1.893-1.224 3.04-1.37 1.404-.178 2.62.286 3.705 1.154zm-8.508-4.542c.804.827 1.497 1.762 2.24 2.648l-.124.23c-.142-.05-.3-.074-.424-.154-.478-.31-.928-.664-1.419-.951-1.253-.732-2.55-.742-3.8-.033-.959.546-1.87 1.18-2.78 1.809-3.285 2.276-6.559 4.567-9.837 6.852-.902.629-1.85 1.153-2.964 1.289-1.556.19-2.883-.373-3.958-1.429-.872-.855-1.602-1.857-2.383-2.803-.064-.078-.034-.232-.049-.351.118.027.254.025.349.087.432.286.841.608 1.28.883 1.358.85 2.767.876 4.118.053 1.342-.818 2.627-1.732 3.92-2.627 2.845-1.97 5.68-3.955 8.518-5.933.9-.628 1.84-1.166 2.955-1.307 1.77-.225 3.18.524 4.358 1.737z"/>
</svg>
