<?xml version="1.0" encoding="UTF-8"?>
<svg width="184px" height="100px" viewBox="0 0 184 100" version="1.1" xmlns="http://www.w3.org/2000/svg" xmlns:xlink="http://www.w3.org/1999/xlink">
    <!-- Generator: Sketch 63.1 (92452) - https://sketch.com -->
    <title>AquariumRochelle</title>
    <desc>Created with Sketch.</desc>
    <g id="Symbols" stroke="none" stroke-width="1" fill="none" fill-rule="evenodd">
        <g id="01_logos-/-Clients-/-AquariumRochelle-/-Black" fill="#000000">
            <path d="M99.6897126,93.5054982 L99.6897126,96.0685978 L101.817649,96.0685978 L101.817649,93.5123247 L103.02889,93.5123247 L103.02889,99.8139852 C101.891102,100.038339 101.843725,100.001808 101.843725,98.9287454 L101.843725,97.2318819 L101.843725,97.2318819 L99.6924671,97.2318819 L99.6924671,99.1964576 C99.6920998,99.890738 99.6919162,99.892214 98.978503,99.8815129 C98.8271896,99.8792989 98.6762435,99.8621402 98.4966507,99.8497786 L98.4966507,93.5054982 L99.6897126,93.5054982 Z M90.7801094,93.4466605 C91.9349756,93.5276568 92.7380016,94.2850369 92.8421214,95.4333764 C92.5475745,95.4333764 92.252293,95.4636347 91.9676623,95.4211993 C91.8163489,95.39869 91.6290435,95.2831919 91.5521014,95.1533026 C91.2841812,94.7005351 90.9167321,94.4748893 90.3961333,94.5485055 C89.8553349,94.6250738 89.5350794,94.9116052 89.503311,95.5289483 C89.4599737,96.3724908 89.467319,97.2291328 89.5762132,98.0638192 C89.611287,98.3319004 89.9980176,98.6418635 90.2931154,98.7652952 C90.6631353,98.9200923 91.0783289,98.8152952 91.3706723,98.4664022 C91.8868639,97.8503506 91.9713349,97.8226753 92.8327561,97.9774723 C92.7139457,99.0815314 91.8929238,99.849059 90.7637661,99.9112362 C89.5345285,99.9791328 88.4720295,99.340941 88.3477102,98.2688007 C88.2252271,97.2132657 88.2241253,96.1200923 88.3508319,95.0652952 C88.4793749,93.9940775 89.5571154,93.3608672 90.7801094,93.4466605 Z M80.4076511,93.4380627 C81.6207289,93.4716421 82.5164894,94.2435978 82.5972878,95.4227491 C82.6562339,96.2830812 82.6538467,97.1548524 82.5884735,98.014631 C82.5051042,99.113893 81.5812479,99.8834502 80.4250962,99.915738 C79.1751082,99.9506089 78.2338068,99.2574354 78.0514595,98.1341882 C77.9741501,97.6574354 77.9603776,97.1703506 77.9190603,96.7031919 C77.9594595,96.216476 77.971212,95.7469188 78.0420942,95.2864022 C78.2229725,94.110203 79.1429725,93.4031919 80.4076511,93.4380627 Z M70.6957565,93.511476 C71.6175928,93.5867528 72.1927305,94.1825092 72.3651617,95.0389668 C72.5366747,95.8917343 72.2393733,96.5179336 71.4174331,97.0397048 C71.375014,97.0666421 71.3399401,97.105203 71.2692415,97.1660886 C71.7117964,98.0354613 72.156004,98.907786 72.6507106,99.8791882 C72.1818962,99.8791882 71.7916766,99.906679 71.4095369,99.8635055 C71.2839321,99.8492989 71.1423513,99.6716236 71.0707345,99.5354613 C70.7888583,98.9994834 70.4856806,98.4670111 70.277992,97.9009594 C70.0613054,97.31 69.6922036,97.2018819 69.0781357,97.3838007 C69.0781357,97.9937638 69.0450818,98.6317712 69.0884192,99.2642435 C69.123493,99.7758672 68.9427984,99.958155 68.4508463,99.8865683 C68.2842914,99.8623985 68.1113094,99.8828782 67.8964591,99.8828782 L67.8964591,93.4948708 C68.8416168,93.4948708 69.7741038,93.4360148 70.6957565,93.511476 Z M53.0751673,93.4742435 C53.3171952,93.521107 53.6290036,93.317786 53.772788,93.7194465 C54.4847321,95.7076384 55.2117341,97.6901107 55.9310236,99.6757196 C55.946816,99.7194465 55.9330435,99.7742435 55.9330435,99.8812546 C55.6028719,99.8812546 55.2692112,99.9305166 54.9623609,99.8607749 C54.8073749,99.8255351 54.6259457,99.5923247 54.5864647,99.4187085 C54.4665525,98.8930627 54.2059776,98.6498893 53.6543449,98.7526568 C53.4705285,98.7869742 53.2723888,98.7799631 53.085818,98.7541328 C52.3975625,98.6596679 51.8710874,98.7832841 51.7614587,99.6083764 C51.7478699,99.7111439 51.5673589,99.8556089 51.4516703,99.8687085 C51.1334347,99.9046863 50.8085884,99.8810701 50.4031273,99.8810701 C50.6712311,99.1373432 50.9086683,98.4753506 51.1481253,97.8140959 C51.6316303,96.4792251 52.1239497,95.1473063 52.5936822,93.8072694 C52.6842132,93.5489668 52.8105525,93.4231365 53.0751673,93.4742435 Z M120.194676,93.5027306 L120.194676,95.3315129 L120.194676,95.3315129 C120.194676,96.3038376 120.209734,97.2765314 120.187698,98.2483026 C120.178517,98.644428 120.279698,98.8062362 120.707379,98.7868635 C121.465231,98.7527306 122.225838,98.7772694 123.049982,98.7772694 L123.049982,99.8828044 L120.670101,99.8828044 C120.238014,99.8828044 119.805742,99.8728413 119.374022,99.8861255 C119.101694,99.894428 118.961032,99.8245018 118.96285,99.5119557 C118.973519,97.5673063 118.97003,95.6226568 118.973519,93.6778229 C118.973519,93.6291144 118.998493,93.5804059 119.019794,93.5027306 L120.194676,93.5027306 Z M129.798026,93.5114207 C129.805554,93.6732288 129.82098,93.8555166 129.821347,94.0378044 C129.823367,95.442048 129.834752,96.8466605 129.814552,98.2505351 C129.80886,98.6462915 129.902513,98.8058856 130.329459,98.7868819 C131.101451,98.7527491 131.876014,98.7772878 132.682345,98.7772878 L132.682345,99.8529336 L128.623878,99.8529336 L128.623878,93.5114207 L129.798026,93.5114207 Z M42.7179689,93.4988745 L42.7179689,98.7649262 L45.5370986,98.7649262 L45.5370986,99.8521956 L41.5403321,99.8521956 L41.5403321,93.4988745 L42.7179689,93.4988745 Z M142.358909,93.4982472 L142.358909,94.5690959 L139.499196,94.5690959 L139.499196,96.0917897 L141.921495,96.0917897 L141.921495,97.1805351 L139.484689,97.1805351 L139.484689,98.7596863 L142.361112,98.7596863 L142.361112,99.8517528 L138.274733,99.8517528 L138.274733,93.4982472 L142.358909,93.4982472 Z M113.202988,93.5138007 L113.202988,94.6032841 L110.341807,94.6032841 L110.341807,96.087048 L112.763372,96.087048 L112.763372,97.1769004 L110.347499,97.1769004 L110.347499,98.7507011 L113.20005,98.7507011 L113.20005,99.8519926 L109.119547,99.8519926 L109.119547,93.5138007 L113.202988,93.5138007 Z M80.319691,94.5257011 C79.7939505,94.519797 79.3592918,94.8701661 79.2720663,95.414262 C79.2065094,95.8231181 79.1888806,96.2397232 79.1497669,96.6555904 C79.1896152,97.0891697 79.205224,97.5236716 79.2748208,97.9493173 C79.3655353,98.5048524 79.7733836,98.816107 80.3345653,98.810572 C80.8777509,98.8052214 81.3258148,98.4648155 81.3573996,97.910203 C81.4047768,97.0836347 81.4047768,96.2500554 81.355196,95.4238561 C81.3223257,94.8782841 80.8588367,94.5316052 80.319691,94.5257011 Z M53.2867122,95.5251661 C53.2470475,95.5262731 53.2075665,95.5275646 53.1679018,95.5288561 C52.9308319,96.2286716 52.6939457,96.9286716 52.4458579,97.6615129 L54.0014108,97.6615129 C53.7490994,96.9076384 53.5179058,96.2164945 53.2867122,95.5251661 Z M69.1023752,94.5965314 L69.1023752,96.2871218 L70.0073174,96.2867528 L70.0073174,96.2867528 C70.1450419,96.2860148 70.2847864,96.2946863 70.4201238,96.2747601 C70.8672695,96.2094465 71.1860559,95.8548339 71.1684271,95.4232841 C71.1496966,94.9651661 70.8962834,94.6579705 70.4506068,94.607417 C70.0139281,94.557786 69.567517,94.5965314 69.1023752,94.5965314 Z M42.5700527,76.9334317 C43.1472104,79.3572325 42.7847194,81.6507749 41.4640327,83.7762362 C41.3731345,83.9225461 41.2778291,84.0660886 41.1564479,84.2544649 C41.6660287,84.6950554 42.1278651,85.112214 42.6093501,85.5050185 C42.9147313,85.7542804 42.9626595,85.9821402 42.6805996,86.2826937 C42.2777094,86.711845 41.884919,87.1511439 41.5046156,87.6005904 C41.2550587,87.8952399 41.0295577,87.8834317 40.7614539,87.6321402 C40.344424,87.2417343 39.9018691,86.8780812 39.4949389,86.4775277 C39.2540128,86.2402583 39.0784599,86.2520664 38.7879529,86.4225461 C35.8090627,88.1692251 32.7227473,88.3171956 29.7141086,86.6483764 C26.5106355,84.8714391 25.1620367,81.9692251 25.4224279,78.3378598 C25.6910826,74.5921033 28.1890387,71.6013284 31.8001764,70.7022509 C36.5924399,69.508893 41.3913142,71.9830627 42.5700527,76.9334317 Z M154.454668,70.6969188 C155.022644,70.7349262 155.595395,70.716845 156.165574,70.7024539 C156.563874,70.6926753 156.711515,70.8531919 156.707475,71.260572 C156.690948,72.8932288 156.70068,74.5262546 156.70068,76.1590959 C156.717758,76.1594649 156.73502,76.1600185 156.752281,76.1603875 C156.699028,78.0511624 156.739243,79.9502399 156.571954,81.8308672 C156.269878,85.2258856 153.799283,87.5471033 150.393447,87.6875092 C149.334253,87.7310517 148.234477,87.6819742 147.207786,87.4410148 C144.460089,86.7961808 142.67169,84.6013469 142.512481,81.6692435 C142.394221,79.4873247 142.440129,77.2959963 142.422684,75.1087269 C142.412401,73.8233026 142.431682,72.5376937 142.414475,71.2524539 C142.409279,70.8426753 142.567387,70.6904613 142.96385,70.7017159 C143.533846,70.717952 144.10476,70.7022694 144.675307,70.7063284 C145.298006,70.7107565 145.353279,70.7648155 145.35383,71.3965498 C145.355666,74.419059 145.348872,77.4415683 145.357503,80.4640775 C145.361175,81.7303137 145.620648,82.9343727 146.552401,83.8565129 C147.883738,85.1740406 149.515315,85.2731181 151.186006,84.7589114 C152.766716,84.2725646 153.487658,83.017214 153.701223,81.4415683 C153.775594,80.8934133 153.795794,80.3345572 153.79763,79.7804982 C153.806996,76.9838192 153.813974,74.1869557 153.791203,71.3902768 C153.78698,70.8753321 153.919012,70.6611255 154.454668,70.6969188 Z M65.1369365,70.6984317 C65.7058307,70.72869 66.278214,70.7226015 66.8478427,70.7000923 C67.2889285,70.6827491 67.4558507,70.8371771 67.4490563,71.3015683 C67.425184,72.9166974 67.439691,74.5321956 67.439691,76.1476937 L67.3440184,76.1478782 L67.3440184,76.1478782 C67.3440184,78.021679 67.4600743,79.9043358 67.3188607,81.7674354 C67.0597549,85.1849631 64.5594116,87.5499077 61.1473317,87.6862546 C60.0716112,87.729059 58.9534715,87.679059 57.9120902,87.4296125 C55.2176471,86.7847786 53.5091281,84.6430812 53.2538786,81.7842251 C53.1890563,81.0595018 53.1572878,80.329428 53.1543497,79.6017528 C53.1431481,76.8399446 53.1569206,74.0781365 53.1427574,71.3163284 C53.1405772,70.8668819 53.293176,70.6836716 53.7434435,70.7004613 C54.3305174,70.722048 54.9196112,70.7233395 55.5065014,70.7000923 C55.941711,70.6827491 56.0687848,70.8648524 56.0669485,71.2862546 C56.0535433,74.1523063 56.051707,77.0183579 56.0671321,79.8842251 C56.0702539,80.4711255 56.1168966,81.0657749 56.2208327,81.6427122 C56.6925852,84.2619004 58.66021,85.2521218 60.9603936,84.975369 C63.0703337,84.721679 64.2848806,83.3773985 64.4604335,81.2406827 C64.5015673,80.7399446 64.5254395,80.2362546 64.5265413,79.7338561 C64.5327848,76.9371771 64.537192,74.1406827 64.5221341,71.3441882 C64.5195633,70.8825646 64.6484735,70.6726015 65.1369365,70.6984317 Z M7.78235529,70.5922325 C8.29836327,70.6298708 8.8207984,70.6267343 9.33735729,70.5929705 C9.76063074,70.5652952 9.98264271,70.7143727 10.1548902,71.1132657 C12.2898044,76.0612362 14.4423473,81.0016421 16.5897485,85.9440775 C16.7348184,86.2776568 16.8815409,86.6108672 17.0181637,86.947952 C17.150012,87.2734133 17.0262435,87.4641882 16.6835848,87.4695387 C15.9402395,87.4813469 15.1935888,87.5099446 14.4552016,87.4481365 C14.2647745,87.4322694 14.0277046,87.1385424 13.9338683,86.9197232 C12.5351377,83.6547786 11.1569741,80.3807934 9.77311776,77.1092066 C9.36986028,76.1557011 8.96403194,75.2031181 8.51798802,74.1529336 C8.40927745,74.3651107 8.33674251,74.4874354 8.28165269,74.6173247 C6.54485429,78.7178782 4.80383234,82.8169557 3.08300998,86.9243358 C2.90874251,87.3403875 2.69003593,87.5149262 2.23756487,87.4837454 C1.6868503,87.4459225 1.13099401,87.4892804 0.578626747,87.4669557 C0.383976048,87.4590221 0.192814371,87.3610517 3.83693077e-13,87.3042251 L3.83693077e-13,86.9914945 C0.450083832,86.0010886 0.913205589,85.0165867 1.3480479,84.0195387 C3.21871457,79.7311624 5.08754491,75.4418635 6.93617565,71.143893 C7.11631936,70.7252583 7.33392415,70.5595756 7.78235529,70.5922325 Z M104.345757,70.7031424 C106.920839,70.7197786 109.497941,70.6677491 112.069901,70.760369 C113.79256,70.8221771 115.374923,71.3974539 116.462763,72.855941 C118.535793,75.6356458 117.341079,79.6775277 114.103083,80.9177491 C113.928632,80.9845387 113.752344,81.0467159 113.496544,81.1402583 C114.751673,82.9112915 115.968608,84.6164576 117.168464,86.3334317 C117.367338,86.6181181 117.492025,86.9550185 117.651051,87.2679336 C117.297558,87.3369373 116.946636,87.4417343 116.590204,87.4660886 C116.091274,87.5005904 115.585917,87.4446863 115.087721,87.4839852 C114.647737,87.5186716 114.396528,87.3321402 114.157438,86.9845387 C113.038013,85.3568635 111.882045,83.7546494 110.771618,82.1208856 C110.51343,81.7409963 110.239083,81.611107 109.794875,81.6256827 C108.811889,81.658155 107.82725,81.6358303 106.778707,81.6358303 C106.768057,81.8448708 106.750979,82.0271587 106.750612,82.209631 L106.748408,86.7941328 L106.748408,86.7941328 C106.747306,87.411476 106.683035,87.4721771 106.061254,87.4743911 C105.490891,87.4764207 104.920344,87.464797 104.350348,87.4778967 C103.964536,87.4869373 103.787514,87.3502214 103.788065,86.9336162 C103.796328,81.7064945 103.796512,76.4795572 103.787695,71.2524354 C103.786963,70.8371218 103.960312,70.7007749 104.345757,70.7031424 Z M84.4547513,70.5912362 C85.0047313,70.6329336 85.5607713,70.6159594 86.1131385,70.5956642 C86.4348631,70.5840406 86.6155577,70.6997232 86.7457533,70.9999077 C89.0250028,76.2611624 91.3139848,81.5181734 93.5967234,86.777952 C93.8264479,87.3074723 93.7151665,87.4681734 93.1400287,87.473524 C92.552404,87.4788745 91.9629429,87.4469557 91.3775218,87.4840406 C90.9401086,87.5117159 90.7388471,87.3382841 90.5726595,86.9416052 C88.8988471,82.9476937 87.2055697,78.9619004 85.5170667,74.974262 C85.4096415,74.720572 85.2956056,74.4696494 85.1391505,74.1139299 C84.3658731,75.9379151 83.6423601,77.6423432 82.9203162,79.3476937 C81.8464319,81.8838561 80.7664878,84.4176199 79.7078451,86.9602399 C79.5521246,87.3344096 79.3594938,87.5095018 78.9420966,87.4829336 C78.4082762,87.4491697 77.8709669,87.476476 77.3351265,87.4744465 C76.6443002,87.471679 76.551382,87.3360701 76.8231585,86.7096863 C77.6439968,84.8187269 78.4692423,82.929797 79.2908152,81.0392066 C80.7200287,77.7502768 82.1560367,74.4644834 83.5663361,71.1676199 C83.7527234,70.7318266 83.9829988,70.5556273 84.4547513,70.5912362 Z M170.927883,71.2329336 C172.374726,73.4978782 173.854071,75.7417897 175.323133,77.9921587 C175.407604,78.12131 175.500155,78.2449262 175.644307,78.4495387 C176.691564,76.8580258 177.701728,75.324631 178.709871,73.7899446 C179.309616,72.8770295 179.893752,71.9532288 180.515165,71.0554428 C180.631588,70.8873616 180.887756,70.7320111 181.086997,70.722048 C181.846135,70.6833026 182.608211,70.7111624 183.369185,70.7045203 C183.713863,70.7015683 183.861504,70.8388376 183.860955,71.2026753 C183.853792,76.4506458 183.853792,81.6988007 183.86077,86.9469557 C183.861137,87.3251845 183.724514,87.4873616 183.344762,87.4781365 C182.774398,87.4642989 182.203484,87.4759225 181.63257,87.4744465 C180.964881,87.472786 180.923013,87.4327491 180.92283,86.7690959 L180.922279,75.6833026 C180.879676,75.6674354 180.836889,75.6515683 180.794287,75.6358856 C179.08742,78.1880996 177.38037,80.7401292 175.635676,83.3486162 C173.892267,80.7670664 172.173648,78.222417 170.455029,75.6777675 L170.319325,75.7095018 L170.319325,75.7095018 L170.319325,76.2471402 C170.319325,79.7401292 170.319875,83.2331181 170.318957,86.7259225 C170.318774,87.4630074 170.305552,87.473893 169.559269,87.4748155 C169.074846,87.4751845 168.590606,87.4766605 168.106366,87.4744465 C167.487157,87.47131 167.432067,87.4176199 167.431883,86.7829336 L167.431149,75.678321 L167.431149,75.678321 C167.431149,74.2360701 167.442167,72.7936347 167.42476,71.3513838 C167.419396,70.8901292 167.569424,70.679428 168.052378,70.6993542 C168.673975,70.7251845 169.298877,70.7310886 169.91974,70.6967712 C170.385249,70.6711255 170.668594,70.827214 170.927883,71.2329336 Z M131.180266,71.3032657 C131.161903,73.9091697 131.171451,76.5152583 131.171451,79.1213469 L131.171084,86.783155 L131.171084,86.783155 C131.170901,87.4658118 131.162086,87.4733764 130.4652,87.4744834 C129.894653,87.4755904 129.323739,87.4661808 128.753376,87.4772509 C128.401903,87.4840775 128.267116,87.3421956 128.267667,86.9807565 C128.27538,81.7163653 128.275747,76.4521587 128.267297,71.187952 C128.266565,70.8128598 128.425958,70.6992252 128.763292,70.7040037 C129.368362,70.7123063 129.974166,70.7220849 130.578685,70.7003137 C131.01922,70.6844465 131.183571,70.8399815 131.180266,71.3032657 Z M32.6726156,73.1266052 C30.0402403,73.7631365 28.3489828,76.0238376 28.2619409,78.9825092 C28.315378,79.4469004 28.3434739,79.9157196 28.4264758,80.3745756 C29.0348511,83.7400738 32.2517293,85.8380443 35.5483042,85.014059 C38.2043681,84.3504059 40.1176375,81.7319557 39.8778132,78.4924723 C39.6005277,74.7485609 36.2901804,72.2515129 32.6726156,73.1266052 Z M107.052137,73.3583201 C106.970053,73.357417 106.887602,73.3897048 106.779258,73.411845 L106.779258,78.9557565 C106.832695,78.9878598 106.86226,79.0212546 106.891458,79.0210701 C108.563801,79.0022509 110.246795,79.0926568 111.905366,78.9299262 C113.821757,78.7419188 114.832655,77.1529889 114.371003,75.3583395 C114.093901,74.2808487 113.102101,73.4967159 111.759929,73.4334317 C110.192807,73.3594465 108.621646,73.3769742 107.052137,73.3583201 Z M110.529535,9.1145203 C118.412337,18.488321 118.376896,32.1420111 110.41458,41.5095387 C102.390381,50.9497601 89.5610635,52.4488376 80.3702451,47.6303875 C81.7820136,47.9674723 83.3338938,48.4624908 84.923786,48.683524 C86.5579337,48.9110148 88.2365206,49.0034502 89.8820535,48.9110148 C91.5079377,48.8195018 93.1527361,48.5545572 94.7233469,48.1235609 C96.3097501,47.6881365 97.8766882,47.0752214 99.339323,46.3196863 C100.788736,45.5711624 102.182876,44.6527122 103.443882,43.6156273 C104.719028,42.5669188 105.904744,41.3654428 106.938596,40.0761439 C107.960696,38.8008672 108.915036,37.4130443 109.604209,35.935738 C113.866325,26.7995756 113.133447,17.9993911 106.72999,10.233893 C99.7040176,1.71304428 90.541295,-0.237878229 80.3823649,2.86027675 C89.4868758,-1.96610701 102.457223,-0.484557196 110.529535,9.1145203 Z M107.69296,24.7027675 C108.838093,25.5743542 109.700433,26.704428 110.504193,27.8826568 C110.560385,27.9651292 110.550652,28.0928044 110.571586,28.199631 C110.451858,28.1854244 110.30789,28.2095941 110.216257,28.151107 C109.677479,27.8079336 109.170652,27.4105166 108.616265,27.0968635 C107.481048,26.454059 106.303594,26.445941 105.142668,27.0291513 C104.604257,27.299631 104.079986,27.6099631 103.584361,27.953321 C99.8011593,30.5747232 96.032281,33.2171587 92.2430196,35.8293358 C91.6649437,36.2278598 91.0286563,36.5693727 90.3756583,36.8236162 C89.0591952,37.3361624 87.7576064,37.1937269 86.5366323,36.4867159 C84.9346204,35.5592251 83.8765285,34.1083026 82.8639776,32.6190037 L82.9451433,32.4592251 L82.9451433,32.4592251 C83.098293,32.5206642 83.2648479,32.5605166 83.4022052,32.6472325 C83.9277621,32.9787823 84.4244886,33.3612546 84.9676743,33.6588561 C86.0755305,34.2658672 87.223786,34.2669742 88.3483529,33.7070111 C88.9185325,33.4230627 89.4708998,33.0909594 89.9949876,32.7278598 C93.6790275,30.1760148 97.3524168,27.6092251 101.032233,25.051476 C101.415291,24.7852399 101.805143,24.5239852 102.213543,24.3005535 C104.121854,23.2566421 105.956529,23.3811808 107.69296,24.7027675 Z M98.655493,19.6665129 C99.8061357,20.5857011 100.671597,21.7495387 101.483804,22.9587638 C101.459749,23.0185424 101.435509,23.0781365 101.411453,23.1379151 C101.269872,23.0840406 101.113601,23.0528598 100.989465,22.972048 C100.51202,22.6607934 100.063222,22.3013838 99.5701677,22.0190959 C98.3914291,21.3438192 97.1526427,21.2644834 95.9566427,21.9185424 C94.9896327,22.4475092 94.0688982,23.0692804 93.1600998,23.6975092 C89.8155968,26.0096863 86.486519,28.3443727 83.1462395,30.6628229 C82.7495928,30.9380996 82.3353174,31.1962177 81.9041477,31.4113469 C80.156515,32.2834871 78.471501,32.1630074 76.8682036,31.0340406 C75.5412735,30.0997232 74.6065828,28.8142989 73.7536088,27.3500923 C73.8900479,27.3829336 74.0479721,27.3823801 74.1590699,27.4545203 C74.5790379,27.7273985 74.9732974,28.0408672 75.3963872,28.3085793 C76.7640838,29.1744465 78.1727305,29.2067343 79.559525,28.3901292 C80.4666707,27.8559963 81.3334172,27.2500923 82.1996128,26.6488007 C85.4405469,24.3997232 88.6743194,22.1397601 91.9097445,19.8825646 C92.8385589,19.2345941 93.8031816,18.6587638 94.9507026,18.5130074 C96.3536567,18.3347786 97.569489,18.7989852 98.655493,19.6665129 Z M90.1473477,15.1253321 C90.9505573,15.9520849 91.6439545,16.8865867 92.3863816,17.7729336 L92.2629804,18.0039299 C92.1208487,17.9539299 91.9623737,17.9290221 91.8393397,17.8493173 C91.3611601,17.5399077 90.9108926,17.1845572 90.4200423,16.8980258 C89.1669325,16.166476 87.8693836,16.1557749 86.6204974,16.865369 C85.6610164,17.410572 84.7490962,18.0443358 83.8401142,18.6740406 C80.5554754,20.9498708 77.2811202,23.2406458 74.0029086,25.5260701 C73.100721,26.1548524 72.153176,26.6793911 71.0394435,26.8148155 C69.4829725,27.0042989 68.1562259,26.4421218 67.080689,25.3862177 C66.2093517,24.5306827 65.4790443,23.5293911 64.6982379,22.5827122 C64.6343337,22.5054059 64.6635313,22.3506089 64.6493916,22.2316052 C64.7665493,22.2592804 64.9031721,22.2570664 64.9977429,22.319428 C65.430198,22.6048524 65.8389645,22.9273616 66.2778467,23.2019004 C67.6358108,24.0515314 69.045192,24.0780996 70.396178,23.2546679 C71.7379824,22.4369557 73.0230443,21.5233026 74.3165533,20.6275461 C77.1610244,18.6579889 79.995212,16.6733026 82.8336232,14.6947048 C83.7345253,14.066845 84.6749086,13.5288376 85.789192,13.3875092 C87.558677,13.1633395 88.9682419,13.911679 90.1473477,15.1253321 Z" id="AquariumRochelle"></path>
        </g>
    </g>
</svg>