<?xml version="1.0" encoding="UTF-8"?>
<svg width="186px" height="38px" viewBox="0 0 186 38" version="1.1" xmlns="http://www.w3.org/2000/svg" xmlns:xlink="http://www.w3.org/1999/xlink">
    <!-- Generator: Sketch 63.1 (92452) - https://sketch.com -->
    <title>Arkopharma</title>
    <desc>Created with Sketch.</desc>
    <g id="Symbols" stroke="none" stroke-width="1" fill="none" fill-rule="evenodd">
        <g id="01_logos-/-Clients-/-Arkopharma-/-Black" transform="translate(1.000000, -31.000000)" fill="#000000">
            <path d="M152.973813,67.9844828 C151.959327,67.9844828 151.303742,67.4315172 151.303742,66.5758621 C151.303742,65.7464138 151.990763,65.1672414 152.973813,65.1672414 C153.988299,65.1672414 154.643883,65.7202069 154.643883,66.5758621 C154.643883,67.4053103 153.956862,67.9844828 152.973813,67.9844828 M152.973813,64.7741379 C154.641918,64.7741379 155.23332,65.7798276 155.23332,66.6413793 C155.270651,67.046931 155.125256,67.4616552 154.835777,67.7794138 C154.559397,68.0821034 154.011876,68.4424483 152.973813,68.4424483 C151.190439,68.4424483 150.714961,67.3109655 150.714961,66.6413793 C150.714961,66.4336897 150.761461,65.8997241 151.198299,65.4312759 C151.599115,65.0008276 152.213439,64.7741379 152.973813,64.7741379 Z M183.035342,64.8400483 C184.712617,64.8400483 184.835089,65.5823586 184.901892,65.9813586 L184.907786,66.0232897 L184.181469,65.9499103 L184.181469,65.9204276 C184.181469,65.4480483 183.587448,65.2324966 183.035342,65.2324966 C182.572307,65.2324966 182.019546,65.3294621 182.019546,65.7893931 C182.019546,65.990531 182.187863,66.1333586 182.519258,66.2159103 L183.826497,66.4118069 C184.541025,66.5710138 184.901892,66.8907379 184.901892,67.3618069 C184.901892,68.1087034 183.964687,68.4428414 183.035342,68.4428414 C182.142018,68.4428414 181.816518,68.2266345 181.641652,68.1100138 C181.248039,67.8479448 181.168793,67.578669 181.168793,67.2307724 L181.168793,67.1980138 L181.823068,67.1980138 L181.823068,67.2307724 C181.823068,67.9108414 182.717046,67.9848759 183.100835,67.9848759 C183.652941,67.9848759 184.312455,67.8879103 184.312455,67.4273241 C184.312455,67.1469103 184.179504,67.0073586 183.357568,66.8704276 L182.441321,66.7393931 C182.111892,66.6738759 181.430765,66.5382552 181.430765,65.9204276 C181.430765,65.4218414 181.850575,64.8400483 183.035342,64.8400483 Z M121.209728,64.7741379 C122.877834,64.7741379 123.469235,65.7798276 123.469235,66.6413793 C123.506566,67.046931 123.361172,67.4616552 123.071693,67.7794138 C122.795313,68.0821034 122.247792,68.4424483 121.209728,68.4424483 C119.426355,68.4424483 118.950876,67.3109655 118.950876,66.6413793 C118.950876,66.4336897 118.997376,65.8997241 119.434214,65.4312759 C119.835031,65.0008276 120.449355,64.7741379 121.209728,64.7741379 Z M177.107575,64.9053034 L177.107575,65.3639241 L174.357525,65.3639241 L174.357525,66.3466828 L176.911096,66.3466828 L176.911096,66.8046483 L174.357525,66.8046483 L174.357525,67.8535793 L177.178962,67.8535793 L177.10299,68.3777172 L173.637103,68.3777172 L173.637103,64.9053034 L177.107575,64.9053034 Z M160.752465,64.9047793 L160.752465,68.3771931 L159.752465,68.3771931 L159.752465,64.9047793 L160.752465,64.9047793 Z M167.448215,64.9050414 C168.454842,64.9050414 168.987299,65.2332828 168.987299,65.8550414 C168.987299,66.3470759 168.70175,66.5645931 168.397863,66.700869 C168.627743,66.7755586 168.855658,66.9314897 168.855658,67.3619379 L168.921151,67.9483172 C168.921151,68.1252138 168.968306,68.1835241 169.160856,68.2483862 L169.183123,68.2555931 L169.183123,68.3774552 L168.340884,68.3774552 L168.333025,68.3551793 C168.265567,68.1494552 168.200729,67.6194207 168.200729,67.4929724 C168.200729,67.2040414 168.101835,66.9360759 167.382067,66.9360759 L165.908475,66.9360759 L165.908475,68.3119379 L165.941222,68.3119379 L165.941222,68.3774552 L165.253546,68.3774552 L165.253546,64.9050414 L167.448215,64.9050414 Z M130.182656,64.9050414 C131.203692,64.9050414 131.721086,65.2247655 131.721086,65.8550414 C131.721086,66.3470759 131.436192,66.5645931 131.132304,66.700869 C131.36153,66.7755586 131.5901,66.9314897 131.5901,67.3619379 L131.656248,67.9483172 C131.656248,68.125869 131.703403,68.1841793 131.895297,68.2483862 L131.917565,68.2555931 L131.917565,68.3774552 L131.07598,68.3774552 L131.068121,68.3551793 C131.000663,68.1514207 130.935825,67.6200759 130.935825,67.4929724 C130.935825,67.2040414 130.836931,66.9360759 130.117163,66.9360759 L128.644882,66.9360759 L128.71103,68.3774552 L127.988642,68.3774552 L127.988642,64.9050414 L130.182656,64.9050414 Z M146.980683,64.8400483 L146.980683,65.2980138 L145.409507,65.2980138 L145.409507,68.3124621 L144.689085,68.3124621 L144.689085,65.2980138 L143.110704,65.2980138 L143.117908,65.2600138 L143.187986,64.8400483 L146.980683,64.8400483 Z M96.4861366,64.8400483 L96.4861366,67.8531862 L98.7783901,67.8531862 L98.7783901,68.3124621 L95.7657141,68.3124621 L95.7657141,64.8400483 L96.4861366,64.8400483 Z M160.661556,64.9702966 L160.439935,64.9701069 L160.439935,68.3121069 L160.661556,68.312331 L160.661556,64.9702966 Z M113.154356,64.8397862 C114.081737,64.8397862 114.496962,65.2839931 114.496962,65.724269 C114.496962,65.9345793 114.358117,66.2379241 113.974328,66.4338207 C114.303758,66.5183379 114.758934,66.7365103 114.758934,67.2966828 C114.758934,67.9983724 113.95337,68.3122 113.154356,68.3122 L111.156821,68.3122 L111.156821,64.9053034 L111.124075,64.9053034 L111.124075,64.8397862 L113.154356,64.8397862 Z M138.454482,64.8396552 L140.190701,68.312069 L139.461109,68.312069 L139.45325,68.2937241 L139.002658,67.3293103 L137.08044,67.3293103 L136.621989,68.312069 L135.891743,68.312069 L137.694109,64.8396552 L138.454482,64.8396552 Z M105.250077,64.8396552 L106.98564,68.312069 L106.256049,68.312069 L106.248189,68.2937241 L105.797598,67.3293103 L103.87538,67.3293103 L103.416929,68.312069 L102.686682,68.312069 L104.489049,64.8396552 L105.250077,64.8396552 Z M121.209728,65.2327586 C120.26532,65.2327586 119.605151,65.785069 119.605151,66.5758621 C119.605151,67.3922069 120.235193,67.9196207 121.209728,67.9196207 C122.154137,67.9196207 122.814306,67.3666552 122.814306,66.5758621 C122.814306,65.7601724 122.184263,65.2327586 121.209728,65.2327586 Z M112.957877,66.7397862 L111.747568,66.7397862 L111.810441,67.9190966 L113.088863,67.9190966 C113.692708,67.9190966 114.038511,67.6924069 114.038511,67.2966828 C114.038511,66.7941655 113.282723,66.7397862 112.957877,66.7397862 Z M138.040567,65.4751724 L137.373194,66.8706897 L138.646377,66.8706897 L138.040567,65.4751724 Z M104.835506,65.4751724 L104.168133,66.8706897 L105.441316,66.8706897 L104.835506,65.4751724 Z M167.448215,65.2981448 L165.91044,65.2981448 L165.972004,66.4119379 L167.382067,66.4119379 C167.841173,66.4119379 168.266877,66.3438 168.266877,65.8550414 C168.266877,65.4855241 167.991151,65.2981448 167.448215,65.2981448 Z M130.182656,65.2981448 L128.642917,65.2981448 L128.642917,66.4119379 L130.117163,66.4119379 C130.576269,66.4119379 131.001318,66.3438 131.001318,65.8550414 C131.001318,65.4855241 130.725593,65.2981448 130.182656,65.2981448 Z M112.89173,65.3639241 L111.811751,65.3639241 L111.811751,66.3466828 L112.89173,66.3466828 C113.54011,66.3466828 113.842032,66.1907517 113.842032,65.8553034 C113.842032,65.6443379 113.743138,65.3639241 112.89173,65.3639241 Z M5.41824437,31.6551069 C2.53655423,34.930969 0.768244366,39.2551069 0.768244366,44.0378655 C0.768244366,54.4551069 9.21683592,62.8413138 19.5647232,62.8413138 C24.2802162,62.8413138 28.6027514,61.0723483 31.9428923,58.1895897 C28.4717655,62.1206241 23.4288077,64.6102793 17.7964134,64.6102793 C7.3830331,64.6102793 -1.00006549,56.1585552 -1.00006549,45.806831 C-1.00006549,40.1723483 1.4886669,35.1275207 5.41824437,31.6551069 Z M102.871569,42.4652552 C107.652555,42.4652552 108.569456,46.8555655 108.701097,50.7204276 C108.701097,54.848669 107.522224,58.8445655 102.67509,58.8445655 C101.365231,58.8445655 100.055372,58.5824966 98.9419915,57.9934966 L98.9419915,57.9934966 L98.9419915,62.3169793 L95.7983296,62.3169793 L95.7983296,42.7928414 L98.287062,42.5969448 L98.4835408,44.4307724 C99.5969211,43.1204276 101.103259,42.4652552 102.871569,42.4652552 Z M87.2188831,42.4655172 C92.5893056,42.4655172 93.7688338,45.937931 93.7688338,50.6551724 C93.7688338,55.8310345 91.6069113,58.7793103 87.0878972,58.7793103 C81.6519817,58.7793103 80.5386014,55.3068966 80.5386014,50.5896552 C80.5386014,45.4793103 82.6343761,42.4655172 87.2188831,42.4655172 Z M180.153521,42.4652552 C181.659859,42.4652552 183.166197,42.6618069 184.803521,42.7928414 L184.803521,42.7928414 L184.803521,58.5169793 L182.249296,58.5169793 L181.987324,56.8141862 C180.873944,58.124531 179.171127,58.7797034 177.46831,58.7797034 C172.949296,58.7797034 171.901408,55.0452207 171.901408,51.2452207 C171.901408,46.0687034 174.783099,42.4652552 180.153521,42.4652552 Z M132.933099,42.4652552 C134.50493,42.4652552 136.011268,42.6618069 137.583099,42.7928414 L137.583099,42.7928414 L137.583099,58.5169793 L135.028873,58.5169793 L134.766901,56.8141862 C133.653521,58.124531 131.950704,58.7797034 130.247887,58.7797034 C125.728873,58.7797034 124.680986,55.0452207 124.680986,51.2452207 C124.680986,46.0687034 127.562676,42.4652552 132.933099,42.4652552 Z M165.352244,42.4655172 C169.085342,42.4655172 170.13323,45.4793103 170.264215,48.7551724 L170.264215,48.7551724 L170.264215,58.6482759 L167.120554,58.6482759 L167.120554,48.7551724 C167.120554,46.7896552 166.531117,45.2827586 164.697314,45.2827586 C162.208582,45.2827586 161.881117,47.5758621 161.881117,49.6724138 L161.881117,49.6724138 L161.881117,58.5827586 L158.7368,58.5827586 L158.7368,48.6896552 C158.7368,46.5931034 158.148018,45.2172414 156.314215,45.2172414 C154.021962,45.2172414 153.497363,47.3137931 153.497363,49.3448276 L153.497363,49.3448276 L153.497363,58.5172414 L150.354356,58.5172414 L150.354356,42.7931034 L152.842434,42.5965517 L153.039568,44.2344828 C154.087455,43.1206897 155.397314,42.4655172 156.969145,42.4655172 C158.7368,42.4655172 160.243793,43.1862069 161.029054,44.8241379 C162.011448,43.2517241 163.518441,42.4655172 165.352244,42.4655172 Z M50.0845725,38.7311655 L57.092319,58.5173724 L53.2282345,58.5173724 L51.6564035,53.800131 L43.8627415,53.800131 L42.2909106,58.5173724 L39.1472486,58.5173724 L46.3514739,38.7311655 L50.0845725,38.7311655 Z M147.275794,42.4653862 C147.865231,42.4653862 148.389175,42.5309034 148.913118,42.6619379 L148.913118,42.6619379 L148.585654,45.675731 C148.127858,45.5446966 147.734245,45.4791793 147.145463,45.4791793 C144.263118,45.4791793 143.280724,47.1171103 143.280724,49.7378 L143.280724,49.7378 L143.280724,58.5171103 L140.137717,58.5171103 L140.137717,42.7929724 L142.691287,42.5964207 L142.953259,44.9550414 C143.935654,43.3826276 145.377154,42.4653862 147.275794,42.4653862 Z M71.1733049,37.5517241 L71.1733049,58.5172414 L68.029643,58.5172414 L68.0951359,37.7482759 L71.1733049,37.5517241 Z M65.0824599,42.4653862 C65.6718965,42.4653862 66.1958401,42.5309034 66.7197838,42.6619379 L66.7197838,42.6619379 L66.3268261,45.675731 C65.9338683,45.5446966 65.5409106,45.4791793 64.9514739,45.4791793 C62.0697838,45.4791793 61.0873894,47.1171103 61.0873894,49.7378 L61.0873894,49.7378 L61.0873894,58.5171103 L57.9437275,58.5171103 L57.9437275,42.7929724 L60.4979528,42.5964207 L60.7599246,44.9550414 C61.742319,43.3826276 63.1831641,42.4653862 65.0824599,42.4653862 Z M113.546921,37.5517241 C113.546921,39.7137931 113.613069,41.8758621 113.546921,44.037931 C114.463823,42.9896552 115.905323,42.4655172 117.476499,42.4655172 C121.340583,42.4655172 122.846921,45.1517241 122.846921,48.5586207 L122.846921,48.5586207 L122.846921,58.5172414 L119.703259,58.5172414 L119.703259,48.6241379 C119.703259,46.6586207 119.04833,45.1517241 116.756076,45.1517241 C114.660301,45.1517241 113.546921,46.3965517 113.546921,49.1482759 L113.546921,49.1482759 L113.546921,58.5172414 L110.403259,58.5172414 L110.403259,37.7482759 Z M80.4077465,42.7931034 L75.4957746,49.8034483 L80.5387324,58.5172414 L76.8711268,58.5172414 L71.893662,50.0655172 L76.8711268,42.7931034 L80.4077465,42.7931034 Z M10.9196528,45.3482103 C13.9578711,45.3482103 16.4210613,47.8123138 16.4210613,50.8516586 C16.4210613,53.8916586 13.9578711,56.3551069 10.9196528,56.3551069 C7.88143451,56.3551069 5.41824437,53.8916586 5.41824437,50.8516586 C5.41824437,47.8123138 7.88143451,45.3482103 10.9196528,45.3482103 Z M102.216639,45.2176345 C99.727907,45.2176345 98.8771535,47.2480138 98.8771535,49.5411172 L98.8771535,49.5411172 L98.8771535,55.437669 C99.727907,56.0279793 100.710301,56.2893931 101.758189,56.2893931 C105.032837,56.2893931 105.360301,53.2756 105.360301,50.7204276 C105.360301,47.3790483 104.77152,45.2176345 102.216639,45.2176345 Z M23.8218965,41.2207552 C28.3409106,47.3793759 33.4493613,56.2242034 33.4493613,56.2242034 C33.4493613,56.2242034 23.3634458,57.469031 17.9275303,48.3621345 C16.4866852,45.8724793 10.4613331,34.7345483 10.4613331,34.7345483 C10.4613331,34.7345483 18.4514739,33.8173069 23.8218965,41.2207552 Z M87.1533901,45.0206897 C83.8787423,45.0206897 83.7477563,48.0344828 83.7477563,50.6551724 C83.7477563,53.2758621 83.7477563,56.2241379 87.1533901,56.2241379 C90.493531,56.2241379 90.6245169,53.2758621 90.5590239,50.5241379 C90.5590239,47.9034483 90.493531,45.0206897 87.1533901,45.0206897 Z M132.998592,45.1514621 C129.134507,45.1514621 127.955634,48.0342207 127.955634,51.4417724 C127.955634,53.5383241 128.08662,56.2238759 130.837324,56.2238759 C133.391549,56.2238759 134.439437,53.9962897 134.439437,51.7031862 L134.439437,51.7031862 L134.50493,45.2824966 C133.980986,45.2176345 133.522535,45.1514621 132.998592,45.1514621 Z M180.153521,45.1514621 C176.289437,45.1514621 175.110563,48.0342207 175.110563,51.4417724 C175.110563,53.5383241 175.241549,56.2238759 177.992254,56.2238759 C180.546479,56.2238759 181.594366,53.9962897 181.594366,51.7031862 L181.594366,51.7031862 L181.659859,45.2824966 C181.135915,45.2176345 180.677465,45.1514621 180.153521,45.1514621 Z M47.857812,42.0725448 L44.779643,51.1139241 L50.870488,51.1139241 C49.8880937,48.100131 48.9056993,45.0863379 47.857812,42.0725448 L47.857812,42.0725448 Z" id="Arkopharma"></path>
        </g>
    </g>
</svg>