<svg xmlns="http://www.w3.org/2000/svg" width="184" height="100" viewBox="0 0 184 100">
    <path fill-rule="evenodd" d="M152.974 67.984c-1.015 0-1.67-.552-1.67-1.408 0-.83.687-1.409 1.67-1.409 1.014 0 1.67.553 1.67 1.409 0 .83-.687 1.408-1.67 1.408m0-3.21c1.668 0 2.26 1.006 2.26 1.867.037.406-.109.82-.398 1.138-.277.303-.824.663-1.862.663-1.784 0-2.259-1.131-2.259-1.8 0-.208.046-.742.483-1.21.401-.431 1.015-.658 1.776-.658zm30.061.066c1.678 0 1.8.742 1.867 1.141l.006.042-.727-.073v-.03c0-.472-.594-.688-1.146-.688-.463 0-1.015.097-1.015.557 0 .202.168.344.5.427l1.306.196c.715.159 1.076.479 1.076.95 0 .747-.937 1.08-1.867 1.08-.893 0-1.218-.215-1.393-.332-.394-.262-.473-.531-.473-.88v-.032h.654v.033c0 .68.894.754 1.278.754.552 0 1.211-.097 1.211-.558 0-.28-.132-.42-.954-.557l-.917-.13c-.33-.066-1.01-.202-1.01-.82 0-.498.42-1.08 1.604-1.08zm-61.825-.066c1.668 0 2.26 1.006 2.26 1.867.037.406-.109.82-.398 1.138-.277.303-.824.663-1.862.663-1.784 0-2.26-1.131-2.26-1.8 0-.208.047-.742.484-1.21.401-.431 1.015-.658 1.776-.658zm55.898.131v.459h-2.75v.983h2.553v.458h-2.553v1.049h2.821l-.076.524h-3.466v-3.473h3.47zm-16.356 0v3.472h-1v-3.472h1zm6.696 0c1.007 0 1.54.328 1.54.95 0 .492-.286.71-.59.846.23.075.458.23.458.66l.065.587c0 .177.047.236.24.3l.022.008v.121h-.842l-.008-.022c-.067-.206-.132-.736-.132-.862 0-.289-.1-.557-.819-.557h-1.474v1.376h.033v.065h-.687v-3.472h2.194zm-37.265 0c1.02 0 1.538.32 1.538.95 0 .492-.285.71-.589.846.23.075.458.23.458.66l.066.587c0 .178.047.236.24.3l.022.008v.121h-.842l-.008-.022c-.067-.204-.132-.735-.132-.862 0-.289-.1-.557-.819-.557h-1.472l.066 1.441h-.722v-3.472h2.194zm16.798-.065v.458h-1.571v3.014h-.72v-3.014h-1.58l.008-.038.07-.42h3.793zm-50.495 0v3.013h2.292v.46h-3.012V64.84h.72zm64.176.13h-.222v3.342h.222V64.97zm-47.508-.13c.928 0 1.343.444 1.343.884 0 .21-.139.514-.523.71.33.084.785.303.785.863 0 .701-.806 1.015-1.605 1.015h-1.997v-3.407h-.033v-.065h2.03zm25.3 0l1.737 3.472h-.73l-.008-.018-.45-.965h-1.923l-.458.983h-.73l1.802-3.472h.76zm-33.204 0l1.736 3.472h-.73l-.008-.018-.45-.965h-1.923l-.458.983h-.73l1.802-3.472h.761zm15.96.393c-.945 0-1.605.552-1.605 1.343 0 .816.63 1.344 1.605 1.344.944 0 1.604-.553 1.604-1.344 0-.816-.63-1.343-1.604-1.343zm-8.252 1.507h-1.21l.062 1.18h1.279c.604 0 .95-.228.95-.623 0-.503-.756-.557-1.081-.557zm25.083-1.265l-.668 1.396h1.273l-.605-1.396zm-33.205 0l-.668 1.396h1.273l-.605-1.396zm62.612-.177h-1.538l.062 1.114h1.41c.46 0 .885-.068.885-.557 0-.37-.276-.557-.819-.557zm-37.265 0h-1.54v1.114h1.474c.46 0 .884-.068.884-.557 0-.37-.275-.557-.818-.557zm-17.291.066h-1.08v.983h1.08c.648 0 .95-.156.95-.492 0-.21-.099-.491-.95-.491zM5.418 31.655c-2.881 3.276-4.65 7.6-4.65 12.383 0 10.417 8.449 18.803 18.797 18.803 4.715 0 9.038-1.769 12.378-4.651-3.471 3.93-8.514 6.42-14.147 6.42C7.383 64.61-1 56.16-1 45.807c0-5.635 2.489-10.68 6.418-14.152zm97.454 10.81c4.78 0 5.697 4.39 5.83 8.255 0 4.129-1.18 8.125-6.027 8.125-1.31 0-2.62-.263-3.733-.852v4.324h-3.144V42.793l2.49-.196.196 1.834c1.113-1.31 2.62-1.966 4.388-1.966zm-15.653 0c5.37 0 6.55 3.473 6.55 8.19 0 5.176-2.162 8.124-6.681 8.124-5.436 0-6.55-3.472-6.55-8.19 0-5.11 2.096-8.123 6.68-8.123zm92.935 0c1.506 0 3.012.197 4.65.328v15.724h-2.555l-.262-1.703c-1.113 1.31-2.816 1.966-4.519 1.966-4.519 0-5.567-3.735-5.567-7.535 0-5.176 2.882-8.78 8.253-8.78zm-47.22 0c1.57 0 3.077.197 4.65.328v15.724h-2.555l-.262-1.703c-1.113 1.31-2.816 1.966-4.52 1.966-4.518 0-5.566-3.735-5.566-7.535 0-5.176 2.882-8.78 8.252-8.78zm32.418 0c3.733 0 4.781 3.014 4.912 6.29v9.893h-3.143v-9.893c0-1.965-.59-3.472-2.424-3.472-2.488 0-2.816 2.293-2.816 4.39v8.91h-3.144V48.69c0-2.097-.589-3.473-2.423-3.473-2.292 0-2.817 2.097-2.817 4.128v9.172h-3.143V42.793l2.488-.196.198 1.637c1.047-1.113 2.357-1.768 3.93-1.768 1.767 0 3.274.72 4.06 2.358.981-1.572 2.488-2.358 4.322-2.358zM50.085 38.732l7.007 19.786h-3.864L51.656 53.8h-7.793l-1.572 4.717h-3.144l7.204-19.786h3.734zm97.19 3.734c.59 0 1.114.066 1.638.197l-.327 3.014c-.458-.131-.852-.197-1.44-.197-2.883 0-3.865 1.638-3.865 4.259v8.78h-3.143V42.792l2.553-.197.262 2.359c.983-1.572 2.424-2.49 4.323-2.49zm-76.102-4.913v20.965H68.03l.065-20.769 3.078-.196zm-6.09 4.913c.589 0 1.113.066 1.637.197l-.393 3.014c-.393-.131-.786-.197-1.376-.197-2.881 0-3.864 1.638-3.864 4.259v8.78h-3.143V42.792l2.554-.197.262 2.359c.982-1.572 2.423-2.49 4.322-2.49zm48.464-4.913c0 2.162.066 4.324 0 6.486.917-1.048 2.358-1.572 3.93-1.572 3.864 0 5.37 2.686 5.37 6.093v9.958h-3.144v-9.893c0-1.965-.655-3.472-2.947-3.472-2.096 0-3.21 1.245-3.21 3.996v9.37h-3.143v-20.77zm-33.14 5.241l-4.911 7.01 5.043 8.714H76.87l-4.977-8.451 4.977-7.273h3.537zM10.92 45.348c3.038 0 5.501 2.464 5.501 5.504 0 3.04-2.463 5.503-5.501 5.503-3.039 0-5.502-2.463-5.502-5.503s2.463-5.504 5.502-5.504zm91.297-.13c-2.49 0-3.34 2.03-3.34 4.323v5.897c.85.59 1.833.851 2.881.851 3.275 0 3.602-3.013 3.602-5.569 0-3.341-.588-5.502-3.143-5.502zM23.822 41.22c4.519 6.158 9.627 15.003 9.627 15.003s-10.086 1.245-15.521-7.862c-1.441-2.49-7.467-13.627-7.467-13.627s7.99-.918 13.36 6.486zm63.331 3.8c-3.274 0-3.405 3.013-3.405 5.634 0 2.62 0 5.57 3.405 5.57 3.34 0 3.472-2.95 3.406-5.7 0-2.622-.065-5.504-3.406-5.504zm45.846.13c-3.864 0-5.043 2.883-5.043 6.29 0 2.097.13 4.783 2.881 4.783 2.555 0 3.602-2.228 3.602-4.52l.066-6.422c-.524-.064-.982-.13-1.506-.13zm47.155 0c-3.865 0-5.043 2.883-5.043 6.29 0 2.097.13 4.783 2.881 4.783 2.554 0 3.602-2.228 3.602-4.52l.066-6.422c-.524-.064-.983-.13-1.506-.13zM47.858 42.073l-3.078 9.04h6.09c-.982-3.013-1.964-6.027-3.012-9.04z"/>
</svg>
