<svg xmlns="http://www.w3.org/2000/svg" width="184" height="100" viewBox="0 0 184 100">
    <path fill-rule="evenodd" d="M24.394 51.076c1.751 3.4 3.49 6.807 5.236 10.21.167.324.35.641.548.948.22.343.587.363.797.018.37-.607.716-1.23 1.036-1.866 1.328-2.637 2.643-5.281 3.963-7.923.209-.42.41-.843.627-1.258.04-.076.142-.168.216-.168 1.368-.01 2.737-.008 4.179-.008-.255.49-.485.926-.71 1.364-1.907 3.72-3.801 7.447-5.729 11.157-.806 1.551-2.137 2.392-3.875 2.416-1.71.025-3.108-.703-3.977-2.21-.64-1.11-1.159-2.29-1.726-3.442-.592-1.202-1.166-2.412-1.773-3.607-.193-.38-.464-.72-.715-1.1-.701.916-1.164 1.9-1.63 2.882-.713 1.497-1.42 2.996-2.144 4.487-.524 1.077-1.238 1.978-2.337 2.54-2.068 1.06-4.858.206-5.924-1.863-2.113-4.1-4.208-8.207-6.31-12.313-.045-.088-.08-.18-.146-.33.51 0 .976-.002 1.442 0 .9.005 1.8.006 2.7.03.09.002.21.131.26.23.78 1.547 1.55 3.1 2.322 4.65.886 1.78 1.76 3.566 2.668 5.334.263.512.627.97.98 1.507.129-.18.208-.277.275-.384 1.203-1.93 2.17-3.983 3.181-6.015.785-1.577 1.588-3.146 2.4-4.709.18-.347.406-.68.659-.978.936-1.104 2.845-.886 3.507.401zm58.526-4.932c.716.287 1.115.889 1.386 1.584.284.727.363 1.492.369 2.263.01 1.457-.007 2.915.005 4.373.015 1.643.05 3.287.075 4.931v.217h-1.41v-1.518l-.113-.088c-.025.067-.035.147-.078.2-.5.607-1.073 1.13-1.795 1.462-1.334.615-2.926.183-3.862-1.044-1.935-2.535-.93-6.782 2.822-7.579.95-.201 1.895-.153 2.868.065-.037-.847.073-1.685-.173-2.501-.285-.944-.714-1.243-1.662-1.39-1.103-.172-2.077.222-2.994.795-.103.064-.2.137-.345.237-.104-.377-.21-.724-.29-1.077-.016-.074.042-.204.107-.25 1.575-1.133 3.273-1.408 5.09-.68zm44.626 1.681c.449.847.625 1.778.85 2.695.074.297.013.417-.275.533-2.337.95-4.664 1.921-7 2.876-.218.09-.287.164-.235.422.168.83.36 1.649.758 2.403.489.928 1.197 1.581 2.275 1.731.735.103 1.385-.139 1.981-.548.644-.442 1.138-1.032 1.585-1.663.081-.115.16-.232.246-.359l.886.832c-1.104 3.06-4.846 4.077-7.263 1.99-.877-.757-1.361-1.781-1.685-2.875-.4-1.359-.482-2.75-.353-4.156.122-1.323.444-2.584 1.135-3.732.694-1.152 1.667-1.893 3.018-2.128 1.685-.294 3.273.46 4.077 1.979zm-33.782-1.64c.581.243.991.698 1.354 1.197.21.288.406.586.619.894l-1.072.828c-.196-.3-.377-.581-.562-.86-1.072-1.618-3.043-1.36-4.136-.356-.718.659-1.02 1.507-1.2 2.424-.372 1.891-.336 3.77.217 5.623.29.97.833 1.763 1.735 2.263.988.548 2.157.404 2.943-.41.387-.401.684-.889 1.019-1.339.06-.08.11-.17.172-.27.318.25.623.482.917.728.044.036.068.157.041.207-.351.655-.73 1.29-1.278 1.807-.64.605-1.423.852-2.274.895-2.636.132-4.092-1.507-4.799-3.576-.292-.857-.42-1.745-.462-2.649-.067-1.445.02-2.87.515-4.244.344-.956.8-1.859 1.596-2.512 1.408-1.155 2.98-1.348 4.655-.65zm6.204-3.94v3.837h2.8v1.3h-2.802v.324c0 2.747-.002 5.495.003 8.243 0 .31.012.623.067.926.165.928.73 1.403 1.675 1.411.456.004.913-.036 1.413-.058l-.074 1.417c-.917.105-1.83.245-2.723-.062-1.018-.35-1.558-1.13-1.768-2.152-.08-.392-.118-.8-.12-1.201-.01-2.813-.005-5.627-.005-8.44v-.376h-1.358l.257-1.306h1.106c.015-.292.042-.578.042-.864-.002-.724-.009-1.448-.028-2.172-.005-.19.049-.29.231-.353.422-.144.837-.307 1.284-.473zm-40.537.017v3.825h2.774v1.3H59.43v.656c0 2.672-.002 5.344.003 8.016 0 .309.013.622.062.926.135.835.702 1.289 1.634 1.301.448.006.897-.035 1.377-.056v1.341c-.79.156-1.581.285-2.385.12-1.184-.244-1.965-1.112-2.161-2.402-.044-.287-.064-.58-.067-.869-.014-1.561-.025-3.122-.026-4.684 0-1.335.015-2.67.023-4.006v-.328h-1.318c.03-.435.06-.842.09-1.286h1.243c.006-.134.016-.233.016-.331 0-.922.007-1.844-.005-2.766-.003-.208.067-.301.258-.357.41-.12.816-.258 1.257-.4zm6.36 0v3.829h2.79v1.3h-2.79v.309c0 2.833 0 5.666.004 8.499 0 .262.017.528.064.785.15.823.74 1.293 1.649 1.302.466.005.932-.038 1.444-.061-.026.47-.048.915-.082 1.36-.003.041-.084.108-.13.11-.83.03-1.664.168-2.486-.074-1.106-.325-1.66-1.133-1.873-2.209-.082-.411-.114-.838-.116-1.258-.01-2.833-.005-5.666-.005-8.5 0-.073-.007-.147-.012-.257h-1.32l.108-1.248c.413-.025.827-.05 1.273-.075v-.317c.002-.922.01-1.844.004-2.767-.001-.177.043-.267.224-.319.412-.119.815-.264 1.254-.41zm-16.309-.298c.762.012.767-.001 1.015.706l5.839 16.668c.018.051.032.104.056.181-.466.035-.894.079-1.324.09-.075.002-.193-.12-.226-.21-.433-1.177-.85-2.36-1.28-3.538-.276-.756-.573-1.505-.85-2.261-.062-.168-.148-.224-.327-.223-1.773.007-3.546.006-5.32.001-.173 0-.256.041-.318.22-.665 1.93-1.344 3.853-2.012 5.781-.057.165-.122.243-.31.225-.417-.04-.835-.058-1.292-.087l.592-1.724c1.784-5.177 3.569-10.353 5.347-15.532.075-.219.17-.3.41-.297zM75.87 45.8l-.137 1.46c-.224.06-.453.103-.67.182-.96.348-1.506 1.103-1.907 1.992-.533 1.182-.739 2.427-.731 3.72.01 1.975.002 3.95.002 5.926v.323l-1.485.202c-.006-.125-.015-.224-.015-.323 0-4.261.002-8.523-.006-12.785 0-.276.09-.35.349-.356.392-.008.782-.06 1.203-.095v2.169c.76-1.329 1.756-2.284 3.397-2.415zm30.69.227v13.374l-1.52.203V46.226l1.52-.198zm3.594-.009c.049-.002.127.142.154.23.456 1.485.897 2.974 1.362 4.456.627 2 1.272 3.993 1.91 5.99.023.068.053.133.105.267.164-.594.303-1.125.456-1.652.874-3.01 1.753-6.02 2.622-9.032.054-.185.118-.265.322-.247.419.037.84.049 1.324.074l-4.284 13.464c-.32 0-.638.016-.952-.012-.075-.006-.17-.148-.2-.245-.453-1.418-.887-2.842-1.343-4.258-.93-2.895-1.873-5.786-2.81-8.679-.022-.07-.041-.14-.074-.25.482-.04.944-.086 1.408-.106zm69.796-4.382v17.487l-1.437.065v-1.45c-.273.258-.526.532-.812.763-.777.629-1.662.915-2.673.911-2.208-.009-3.566-1.228-4.365-3.128-1.11-2.643-.98-5.291.288-7.861.456-.926 1.138-1.676 2.04-2.2 1.444-.839 3.34-.767 4.708.514.26.244.511.497.8.778v-5.597l1.451-.282zm-24.671 5.997c.74 1.112 1.155 2.323 1.263 3.647.034.411.05.824.074 1.237.003 1.445-.183 2.852-.87 4.143-.728 1.367-1.764 2.38-3.352 2.658-1.929.34-3.507-.249-4.671-1.855-.743-1.026-1.123-2.188-1.278-3.437-.197-1.596-.106-3.168.412-4.695.432-1.277 1.127-2.371 2.328-3.065 1.777-1.026 4.657-.79 6.094 1.367zm-25.122-5.728l3.27 13.19.082.01 3.456-13.177h1.079l3.33 13.112.066-.002c.152-.603.307-1.205.456-1.81l2.669-10.794c.136-.552.138-.547.704-.437.357.07.717.121 1.12.188l-.318 1.164c-1.44 5.253-2.882 10.505-4.314 15.76-.06.22-.149.285-.365.265-.393-.037-.655-.254-.77-.605-.164-.496-.282-1.008-.412-1.515-.827-3.226-1.65-6.455-2.48-9.68-.116-.452-.262-.895-.444-1.34-.108.46-.208.923-.324 1.382-.896 3.548-1.795 7.094-2.693 10.64-.044.173-.058.366-.146.511-.121.2-.27.416-.462.53-.358.21-.575.093-.682-.311-1.044-3.925-2.087-7.85-3.125-11.776-.433-1.637-.853-3.278-1.277-4.917-.007-.025-.005-.053-.01-.113l1.59-.275zm34.042 3.78l-.132 1.014c-.013.102-.012.21-.046.304-.024.064-.091.148-.149.157-1.14.176-1.884.872-2.38 1.86-.508 1.016-.825 2.094-.833 3.239-.01 1.46-.01 2.92-.01 4.381v2.522h-1.538V46.067l1.535-.13v2.072c.853-1.276 1.905-2.21 3.553-2.322zm3.615-3.759V59.13h-1.519V41.927h1.519zm-87.05 10.266c-1.225.298-2.22.864-2.565 2.187-.29 1.114-.26 2.202.427 3.18.45.642 1.054 1 1.877.849.927-.17 1.586-.729 2.102-1.476.544-.786.555-1.692.509-2.6 0-.225.004-.45-.001-.676-.016-.66-.348-1.11-.927-1.394-.463-.226-.937-.189-1.423-.07zm69.036-4.686c-.727.57-1.179 1.325-1.476 2.184-.33.954-.379 1.947-.396 3.098.012.212.024.579.056.944.096 1.09.394 2.107 1.003 3.034 1.171 1.782 3.556 1.759 4.74.308.397-.486.704-1.018.893-1.614.465-1.466.556-2.964.323-4.479-.178-1.159-.577-2.227-1.373-3.122-.934-1.052-2.668-1.219-3.77-.353zm23.983-.226c-.652.363-1.11.923-1.431 1.584-.898 1.85-1.064 3.789-.625 5.782.223 1.015.669 1.931 1.427 2.664 1.01.977 2.266 1.048 3.378.193.612-.47 1.078-1.066 1.403-1.768.445-.961.527-1.985.448-3.025 0-.563-.015-1.127.003-1.69.041-1.303-.493-2.347-1.42-3.213-.929-.866-2.191-1.077-3.183-.527zm-51.735.995c-.98 1.285-1.107 2.807-1.221 4.396l6.137-2.451c-.246-.666-.444-1.33-.735-1.951-.246-.523-.695-.875-1.261-1.053-1.038-.327-2.175.083-2.92 1.059zm-72.324-3.779l-.07.008-2.109 7.429h4.366l-2.187-7.437zM26.17 37.31c2.277 4.352 4.628 8.665 6.948 12.995.03.057.054.117.106.23h-.828c-1.117 0-2.233-.004-3.35.005-.185.001-.28-.054-.363-.224-1.478-3.074-2.96-6.146-4.451-9.213-.175-.36-.378-.72-.634-1.024-.554-.662-1.457-.682-2-.01-.354.439-.617.96-.866 1.47-1.436 2.939-2.854 5.885-4.285 8.824-.043.087-.172.185-.261.185-1.36.005-2.72-.006-4.08-.014-.034 0-.068-.013-.138-.027.172-.325.333-.629.495-.931 2.16-4.043 4.32-8.086 6.483-12.128.473-.883 1.1-1.609 2.052-2 2.1-.862 4.296.188 5.172 1.862zm79.654 3.863c.549-.002.978.417.973.95-.005.539-.422.934-.984.932-.538-.003-.955-.406-.959-.929-.003-.537.419-.952.97-.953z"/>
</svg>
