<svg xmlns="http://www.w3.org/2000/svg" width="184" height="100" viewBox="0 0 184 100">
    <path fill-rule="evenodd" d="M61.146 54.044c1.157.02 2.241.354 3.15.957-.22.317-.422.612-.644.935-.997-.668-2.08-.954-3.253-.792-.33.046-.67.145-.964.3-.46.242-.456.635.028.818.6.228 1.244.338 1.864.514.702.2 1.414.376 2.092.64.603.234 1.026.686 1.045 1.392.02.737-.382 1.236-.991 1.559-1.398.74-2.863.681-4.328.26-.595-.172-1.158-.453-1.785-.704l.69-1.01c.85.566 1.767.89 2.747.904.583.008 1.178-.119 1.746-.267.188-.05.408-.35.425-.55.013-.151-.25-.42-.437-.476-.878-.265-1.776-.459-2.658-.711-.47-.136-.95-.287-1.376-.523-1.073-.596-1.156-1.693-.2-2.472.829-.676 1.828-.793 2.85-.774zm62.716.92l-.67.975c-1.004-.68-2.088-.947-3.26-.798-.283.036-.581.097-.828.23-.182.1-.384.325-.403.512-.014.134.234.38.41.435.598.188 1.22.298 1.824.468.686.192 1.377.378 2.038.64.582.23 1.003.667 1.038 1.343.036.707-.332 1.207-.912 1.55-.882.524-1.854.663-2.857.587-1.167-.089-2.277-.375-3.303-1.048l.651-.93c1.193.718 2.43 1.07 3.788.842.2-.033.425-.05.585-.156.226-.15.403-.376.6-.57-.193-.195-.354-.463-.588-.569-.382-.172-.812-.238-1.223-.35-.787-.212-1.589-.382-2.357-.65-.63-.221-1.17-.617-1.19-1.387-.019-.784.44-1.282 1.106-1.576 1.899-.84 3.713-.52 5.55.451zm-71.11-.92c1.16.015 2.254.28 3.287.945l-.649.944c-1.166-.753-2.38-1.026-3.692-.704-.355.087-.822.161-.814.633.008.473.494.513.839.603.87.228 1.755.404 2.626.63.326.084.647.22.941.385 1.21.677 1.24 2.057.063 2.803-.838.531-1.778.665-2.747.637-1.254-.037-2.649-.479-3.443-1.094l.627-.912c.835.556 1.75.89 2.729.9.598.007 1.207-.132 1.793-.278.178-.044.41-.33.41-.505 0-.168-.238-.43-.423-.49-.742-.24-1.509-.4-2.257-.624-.616-.183-1.257-.34-1.82-.638-1.065-.564-1.11-1.792-.135-2.513.79-.585 1.712-.735 2.665-.723zm55.163.948l-.562.742c-.668-.23-1.27-.53-1.905-.634-.969-.16-1.872.106-2.566.85-1.134 1.216-.623 3.118.993 3.716 1.019.377 2.009.274 2.96-.243.177-.097.348-.205.564-.333l.666.85c-1.17.778-2.404 1.113-3.76.935-.821-.108-1.585-.385-2.254-.898-1.64-1.259-1.661-3.702-.039-4.98 1.61-1.267 4.296-1.28 5.903-.005zm-40.428-.823v2.323c0 .481-.013.962.004 1.442.042 1.21.888 1.96 2.172 1.941 1.165-.018 1.948-.796 1.962-1.974.012-1.047.003-2.094.003-3.14v-.584h1.396v3.378c0 1.936-1.088 3.18-3.008 3.333-.597.048-1.235-.027-1.811-.194-1.226-.355-2.002-1.198-2.068-2.508-.066-1.315-.015-2.636-.015-4.017h1.365zm-23.543-.032c.234.034.481-.02.714.017.144.023.338.11.398.226 1.092 2.09 2.166 4.186 3.241 6.283.013.026-.002.066-.008.143-.436 0-.876.013-1.314-.009-.11-.005-.217-.117-.317-.19-.037-.028-.06-.086-.072-.135-.28-1.161-1.04-1.474-2.149-1.315-.568.082-1.16-.012-1.737.03-.19.014-.372.2-.547.323-.05.034-.075.115-.093.18-.274.992-.899 1.37-1.958 1.04l2.196-4.267c.328-.637.665-1.271.98-1.916.142-.291.314-.46.666-.41zm42.62.001c.217.03.449-.026.662.016.16.032.37.121.437.25 1.103 2.099 2.187 4.208 3.298 6.36-.085.023-.101.03-.118.032-1.445.074-1.456.08-2.085-1.21-.149-.305-.31-.432-.656-.423-.922.025-1.845.024-2.766 0-.327-.008-.513.105-.61.403-.016.048-.046.091-.069.137-.586 1.176-.586 1.176-1.973 1.075l.586-1.14c.866-1.687 1.739-3.37 2.593-5.064.157-.31.333-.487.7-.436zm7.682.74c.971 1.28 2.074 2.461 3.123 3.683.053.061.12.11.252.232v-4.612h1.436v6.581c-.748.084-1.42.166-2.007-.604-.993-1.308-2.118-2.515-3.185-3.766-.063-.075-.106-.167-.158-.251l-.155.098v4.54h-1.327v-6.585c.817-.149 1.455-.061 2.02.684zm-18.91-.73c1.348.015 2.697.01 4.045.067.41.017.837.163 1.217.336.734.336 1.103.954 1.096 1.766-.006.803-.428 1.35-1.134 1.685-.23.108-.475.183-.792.302l2.135 2.502c-.56 0-1.001.024-1.437-.012-.157-.013-.333-.142-.446-.268-.455-.51-.915-1.022-1.324-1.57-.297-.397-.633-.573-1.126-.513-.319.039-.646.007-1.035.007v2.328h-1.42v-6.58c.063-.014.142-.05.22-.05zm34.386-.008c1.829.01 3.658.008 5.486.012.048 0 .096.028.166.05v.98h-4.56v1.634h4.142v1.013h-4.088c-.044.096-.069.125-.07.156-.076 1.625.05 1.818 1.596 1.775 1.02-.028 2.04-.005 3.085-.005v1.052h-.63c-1.18 0-2.36.006-3.539-.004-1.213-.01-1.886-.633-1.916-1.854-.036-1.476-.006-2.953-.012-4.43-.001-.247.056-.38.34-.379zm-78.477 4.373v2.267H5.346v-2.267h25.899zm12.887-2.997l-1.29 2.619h2.572l-1.282-2.619zm42.594.005c-.438.895-.84 1.718-1.277 2.608h2.574l-1.297-2.608zm-10.184-.261v2.133c.896 0 1.767.048 2.63-.016.653-.048 1.034-.515 1.034-1.067 0-.534-.354-.982-1-1.033-.877-.07-1.762-.017-2.664-.017zM16.959 43.248c.235.582.4 1.194.6 1.801-.895.175-1.75.288-2.574.513-2.875.784-5.293 2.28-6.974 4.803-.368.552-.597 1.23-.753 1.882-.167.702.081 1.093.724 1.422 1.106.565 2.305.583 3.502.509 4.3-.264 8.161-1.887 11.891-3.908.059-.032.107-.082.181-.14l-1.749-4.397c-.478 1.039-.894 1.948-1.314 2.856-.338.73-.639 1.48-1.035 2.174-.218.382-.548.755-.918.983-1.169.72-2.482.987-3.92 1.075.545-1.034 1.055-2.01 1.574-2.984 1.216-2.279 2.443-4.552 3.645-6.838.175-.332.366-.461.744-.45.991.028 1.984.023 2.975.002.32-.007.482.093.613.391.778 1.768 1.576 3.527 2.37 5.288.04.092.094.18.159.3l6.513-3.61c0 1.03.014 2-.016 2.969-.004.135-.2.3-.344.391-1.48.92-2.967 1.827-4.453 2.736-.16.098-.323.189-.539.314l2.649 5.541c-1.274 0-2.464.026-3.652-.013-.447-.014-.764-.3-.94-.755-.394-1.018-.825-2.021-1.237-3.022-1.575.715-3.101 1.43-4.645 2.104-1.83.8-3.703 1.47-5.692 1.756-2.245.324-4.418.186-6.451-.957-1.428-.802-2.27-2.031-2.696-3.586-.052-.191-.13-.375-.197-.563V50.29c1.485-4.685 5.118-6.772 9.515-7.93.23-.06.472-.072.709-.1.775-.091 1.44.262 1.735.989zm104.812.42l-.86 1.15c-1.001-.742-2.083-1.091-3.313-1.028-1.93.098-3.367 1.505-3.325 3.324.036 1.613 1.38 2.927 3.149 3.061.915.07 1.8-.052 2.636-.466.258-.128.393-.275.37-.586-.028-.408-.006-.82-.006-1.307h-2.637v-1.318h4.452c.012.121.036.25.036.38.004.859-.042 1.72.018 2.575.04.587-.169.902-.671 1.16-2.154 1.104-4.37 1.323-6.608.373-2.627-1.115-3.534-4.25-1.913-6.456.917-1.246 2.234-1.855 3.714-2.039 1.66-.206 3.258-.04 4.958 1.176zm27.57.014l-.786 1.02c-.766-.297-1.47-.662-2.217-.835-.984-.227-1.97-.075-2.87.431-1.235.694-1.819 1.916-1.584 3.281.202 1.182 1.302 2.225 2.635 2.5 1.437.296 2.338.094 4.128-.949l.856 1.108c-.61.511-1.3.812-2.034 1.013-2.154.589-4.213.42-6.009-1.006-2.2-1.747-2.111-4.955.13-6.647 2.1-1.586 5.66-1.562 7.751.084zm6.386-1.394l.039.146c1.538-.03 2.93.386 4.11 1.402 1.995 1.716 1.952 4.696-.08 6.371-2.019 1.664-5.388 1.823-7.572.354-1.311-.882-2.09-2.113-2.021-3.704.08-1.878 1.152-3.168 2.838-3.869.846-.352 1.788-.474 2.686-.7zm-106.364 1.24c.055.033.1.083.175.147l-.864 1.136c-.996-.722-2.072-1.084-3.302-1.022-1.939.098-3.383 1.533-3.33 3.376.04 1.372 1.163 2.596 2.67 2.914 1.219.257 2.368.084 3.448-.542.22-.128.436-.261.688-.411l.862 1.131c-.91.67-1.915 1.066-3.005 1.216-1.765.244-3.448-.01-4.909-1.103-2.653-1.986-2.203-5.848.886-7.296 2.275-1.066 4.533-.875 6.681.453zm58.545.352c1.137 2.429 2.433 4.781 3.664 7.166.052.1.089.21.158.376-.684 0-1.31.016-1.935-.013-.121-.006-.276-.164-.343-.29-.265-.498-.477-1.024-.762-1.509-.096-.163-.345-.33-.528-.333-1.366-.028-2.733-.028-4.099 0-.185.003-.376.19-.544.319-.072.055-.092.18-.139.27-.265.513-.41 1.238-.83 1.477-.451.257-1.16.058-1.845.058.674-1.31 1.319-2.57 1.967-3.827.799-1.549 1.608-3.092 2.393-4.648.145-.287.327-.332.623-.385 1.154-.203 1.729.29 2.22 1.34zm-34.965-1.416c1.947.1 3.867.073 5.748.33 1.728.237 3.093 1.202 3.648 2.979.62 1.982-.274 3.954-2.15 4.92-.898.463-1.867.678-2.855.714-1.449.053-2.9.014-4.39.014v-8.957zm51.762-.003c2.162.101 4.3.09 6.407.339 1.527.18 2.368 1.32 2.345 2.663-.018 1.056-.57 1.767-1.485 2.213-.319.156-.662.261-1.075.421l2.84 3.326c-.745 0-1.359.021-1.969-.014-.168-.01-.363-.157-.484-.296-.71-.812-1.387-1.653-2.108-2.454-.156-.173-.444-.297-.68-.314-.61-.043-1.226-.014-1.896-.014v3.06h-1.895v-8.93zm-54.287.125v1.409h-6.019v2.147h5.523V47.5h-5.525c0 .604-.039 1.165.011 1.719.047.516.398.758.98.76l2.306.002 2.897-.001v1.443c-1.427 0-2.825.004-4.223-.002-.613-.003-1.238.041-1.838-.055-1.305-.207-1.99-.86-2.04-2.173-.083-2.19-.022-4.386-.022-6.607h7.95zm109.29-.011v1.42h-6.005v2.14h5.496v1.363h-5.516c0 .593-.031 1.14.009 1.68.037.51.431.799 1.011.8l2.307.003h2.892v1.442c-1.14 0-2.263.013-3.386-.004-.988-.014-1.983.002-2.961-.11-.933-.109-1.683-.868-1.706-1.792-.057-2.294-.019-4.591-.019-6.942h7.878zm-123.152-.011c.857.01 1.692.16 2.46.584.905.5 1.36 1.26 1.35 2.303-.012 1.037-.52 1.75-1.422 2.193-.347.17-.718.29-1.134.456l2.847 3.322c-.746 0-1.386.016-2.024-.012-.139-.007-.298-.146-.4-.264-.72-.827-1.414-1.675-2.145-2.491-.147-.164-.41-.296-.627-.31-.627-.04-1.26-.014-1.956-.014v3.062h-1.883v-8.835h.576c1.452 0 2.905-.013 4.358.006zm29.79.027v8.814h-1.8V42.59h1.8zm51.394.003v8.803h-1.842v-8.803h1.842zm-40.836-.008v1.391h-3.36v7.416h-1.862V44.01H88.33v-1.423h8.575zm68.063-.007v7.396h5.601v1.408h-7.428v-8.804h1.827zm-9.189 1.177c-.37.054-.746.078-1.108.166-1.425.347-2.44 1.542-2.523 2.943-.078 1.3.79 2.568 2.145 3.065 1.122.412 2.248.374 3.327-.158 1.898-.937 2.376-3.31.97-4.843-.748-.813-1.714-1.146-2.81-1.173zm-80.988.24v5.977c.978 0 1.9.005 2.82-.005.184-.002.369-.058.551-.1 1.42-.329 2.325-1.376 2.391-2.76.065-1.356-.73-2.453-2.124-2.908-1.198-.39-2.421-.116-3.638-.204zm31.312.39l-1.717 3.492h3.447l-1.73-3.492zm20.497-.283v2.87c.91 0 1.78.018 2.646-.009.387-.012.783-.074 1.154-.185.725-.218 1.115-.734 1.103-1.37-.012-.631-.428-1.22-1.176-1.28-1.23-.096-2.472-.026-3.727-.026zM53.52 44.09v2.795c1.195 0 2.32.05 3.44-.017.842-.05 1.44-.689 1.474-1.39.033-.651-.423-1.28-1.274-1.36-1.194-.113-2.407-.028-3.64-.028zm-20.306-3.102c0 .88.01 1.694-.012 2.508-.003.112-.143.26-.257.323-1.462.808-2.929 1.605-4.397 2.4-.164.09-.339.163-.517.218-.657.205-1.043.035-1.319-.602-.188-.436-.343-.887-.473-1.23.94-.448 1.808-.83 2.645-1.269 1.282-.673 2.543-1.387 3.814-2.082.146-.08.296-.153.516-.266zm35.195-.987l.062.116c-.454.472-.841 1.06-1.385 1.377-.386.226-.983.09-1.62.121.406-.576.73-1.044 1.065-1.503.042-.058.139-.105.21-.106.556-.01 1.112-.005 1.668-.005z"/>
</svg>
