<svg xmlns="http://www.w3.org/2000/svg" width="184" height="100" viewBox="0 0 184 100">
    <path fill-rule="evenodd" d="M111.376 82.341c.931-.014 1.804.234 2.696.409.068.013.129.057.182.082l-.352 2.665c-.686-.134-1.308-.267-1.934-.37-.268-.045-.546-.027-.82-.036-1.014-.034-2.007.073-2.912.567-1.226.67-1.89 1.716-1.88 3.119.005.872.453 1.77 1.467 2.107.724.242 1.433.235 2.16.15.146-.017.31-.074.285-.33-.023-.25.059-.509.1-.798h-1.806c.09-.742.172-1.453.267-2.162.022-.161.057-.323.3-.322 1.483.008 2.965.004 4.5.004-.101.768-.201 1.511-.296 2.255-.083.64-.158 1.283-.24 1.924-.07.55-.137 1.1-.224 1.647-.013.083-.122.2-.203.215-.637.123-1.278.228-1.92.33-.267.043-.538.063-.807.094h-1.085c-.589-.115-1.186-.198-1.764-.352-.751-.2-1.429-.536-2.047-1.044-.671-.552-1.126-1.228-1.4-2.014-.234-.667-.292-1.374-.264-2.1.03-.823.283-1.575.584-2.308.181-.442.522-.824.826-1.206.261-.33.536-.665.867-.917.447-.34.924-.671 1.44-.881.63-.258 1.311-.4 1.976-.567.757-.19 1.53-.148 2.304-.16zm-11.935.178c1.283.095 2.277.807 2.799 2.019.4.926.414 1.908.003 2.835-.232.522-.65.95-1.16 1.242-.266.152-.427.2-.147.554.314.398.477.915.706 1.38.22.444.449.884.659 1.333.196.417.371.844.557 1.266l.25.566h-3.185c-.302-.639-.61-1.285-.911-1.934-.251-.539-.503-1.078-.738-1.624-.168-.389-.657-.71-1.074-.639-.089.015-.207.155-.223.252-.074.429-.11.863-.168 1.295-.088.654-.182 1.307-.274 1.96-.002.012-.012.022-.015.034-.043.217-.017.547-.145.625-.187.114-.484.055-.735.057-.674.004-1.349.001-2.121.001l1.487-11.246c1.504 0 2.977-.083 4.435.024zm-48.643-.075c1.3.023 2.6.051 3.9.054.76.002 1.49.172 2.161.478.861.391 1.551 1.002 2.049 1.849.698 1.188.883 2.442.772 3.79-.06.732-.215 1.436-.528 2.08-.246.506-.62.96-.987 1.395-.262.31-.6.557-.92.815-.518.42-1.139.651-1.784.704-1.088.091-2.184.107-3.277.128-1.061.02-2.123.008-3.184.01v-.29c.063-.22.154-.435.183-.658.104-.818.175-1.64.283-2.457.109-.819.259-1.632.368-2.45.108-.805.182-1.615.282-2.421.078-.633.172-1.264.26-1.895.038-.269.1-.536.109-.805.007-.23.078-.33.313-.327zm29.813.05c.745-.003 1.419.228 1.997.673.471.362.86.794 1.101 1.38.452 1.093.33 2.158-.072 3.198-.157.408-.484.782-.813 1.084-.56.516-1.288.764-2.019.888-.63.107-1.288.05-1.934.065h-.219c-.124 1.023-.245 2.028-.37 3.032l-.091.632c-.027.212-.121.304-.354.3-.855-.013-1.71-.005-2.632-.005l1.49-11.244c1.323 0 2.62.004 3.916-.002zm-12.924-.048h6.592l-.354 2.6h-4.092l-.198 1.593h3.585l-.351 2.62H69.985c-.217.003-.484-.066-.635.036-.123.084-.12.37-.15.571-.062.407-.11.815-.167 1.259h5.123c-.037.36-.061.685-.104 1.008-.06.444-.168.886-.187 1.331-.01.245-.082.296-.287.278-.048-.004-.096 0-.145 0h-7.237c-.48-.001-.458.003-.378-.473.1-.593.158-1.194.232-1.791l.241-1.935c.08-.641.156-1.283.243-1.923.086-.632.191-1.26.277-1.892.11-.805.208-1.612.312-2.418.029-.223.043-.45.098-.667.02-.078.13-.151.216-.19.07-.03.166-.007.25-.007zm22.504-.127c.107.003.284.153.302.257.184 1.073.335 2.152.51 3.227l.638 3.731c.183 1.107.346 2.216.523 3.324.033.208.09.413.136.619.04.18-.009.268-.214.267-.915-.007-1.83-.003-2.767-.003-.062-.472-.123-.927-.18-1.382l-.048-.494c-.01-.082-.023-.163-.042-.243-.019-.077-.171-.171-.264-.174-.675-.014-1.352-.032-2.025.012-.149.01-.336.238-.412.407-.242.532-.43 1.089-.662 1.625-.046.107-.198.236-.303.238-.976.018-1.951.01-2.991.01.048-.176.066-.294.113-.399.251-.56.504-1.12.768-1.673.212-.449.451-.885.66-1.335.213-.462.396-.938.606-1.401.186-.408.393-.807.586-1.212.21-.438.415-.88.62-1.32.217-.47.436-.94.647-1.414.207-.465.402-.935.606-1.4.167-.38.333-.761.519-1.132.036-.073.164-.14.25-.14.809-.011 1.617-.017 2.424.005zm28.381.127l3.447 5.848.124-.01c.046-.287.1-.574.137-.863.063-.479.115-.959.174-1.438.08-.653.16-1.305.245-1.958.057-.445.109-.892.191-1.332.018-.094.157-.234.243-.236.878-.017 1.758-.01 2.72-.01L124.36 93.74c-.808 0-1.603.009-2.396-.01-.115-.003-.27-.118-.33-.224-.409-.709-.785-1.436-1.193-2.144-.408-.708-.85-1.397-1.262-2.103-.321-.552-.619-1.118-.926-1.678l-.126.008-.817 6.15c-.916 0-1.808.006-2.7-.01-.076 0-.222-.156-.213-.224.1-.795.233-1.587.34-2.382.106-.804.185-1.612.292-2.415.107-.808.242-1.613.352-2.42.087-.64.152-1.284.233-1.925.07-.56.14-1.123.239-1.68.017-.093.184-.225.284-.227.808-.019 1.615-.01 2.435-.01zm9.182-.006c2.207.011 4.414.007 6.621.008.035 0 .07.014.132.027l-.273 1.881c-.002.011-.012.022-.014.033-.04.206-.012.518-.132.594-.176.111-.458.064-.695.065-1.001.004-2.003.005-3.004-.001-.254-.002-.387.022-.365.356.023.345-.088.699-.135 1.05-.007.055.015.115.027.191h3.517l-.335 2.615c-1.095 0-2.167.012-3.238-.007-.32-.006-.407.111-.426.41-.03.48-.109.957-.17 1.465h5.122l-.32 2.588h-8.11c.177-1.235.362-2.449.524-3.666.155-1.166.274-2.338.43-3.504.158-1.17.342-2.336.51-3.504.012-.08-.02-.167-.011-.249.022-.202.069-.353.345-.352zm-74.64 2.625l-.79 6.046c.758 0 1.472.054 2.172-.016.58-.059 1.121-.35 1.481-.818.563-.733.753-1.59.727-2.52-.028-1.004-.387-1.769-1.26-2.321-.751-.476-1.543-.384-2.33-.37zm35.303.843l-1.33 3.52h1.837l-.404-3.503-.103-.017zm-9.11-.979c-.105.81-.208 1.598-.32 2.443.315-.034.595-.074.876-.094.775-.054 1.223-.59 1.097-1.35-.03-.185-.103-.38-.21-.534-.359-.513-.92-.42-1.442-.465zm18.313.062l-.294 2.107c.493-.044.924-.06 1.347-.127.388-.062.773-.506.834-.893.077-.485-.006-.738-.48-.89-.431-.14-.91-.134-1.407-.197zm-31.696-2.34c.043 0 .087.015.17.03-.352.327-.673.63-1.001.927-.346.314-.698.622-1.047.932-.363.321-.74.628-1.085.966-.736.72-1.629.188-2.525.416.21-.413.357-.729.528-1.03.179-.316.394-.611.569-.929.188-.34.332-.703.528-1.037.071-.12.236-.263.36-.265 1.167-.02 2.335-.011 3.503-.01zm-13.172-4.979h83.13c-.416.668-.799 1.286-1.19 1.899-.03.046-.122.066-.187.073-.12.011-.24.004-.361.004H50.917c.446-.655.84-1.243 1.25-1.82.057-.08.19-.121.297-.15.09-.025.191-.006.288-.006zm22.566-14.219c.49.016.978.165 1.465.265.274.055.544.13.859.207l-.484 2.7c-.447-.111-.876-.244-1.314-.322-.946-.169-1.909-.226-2.829.069-.45.144-.854.469-1.242.76-.774.58-1.019 1.454-1.157 2.345-.12.768.067 1.527.602 2.084.293.305.78.494 1.212.582 1.007.206 1.968-.022 2.87-.514.598-.326 1.209-.628 1.854-.961-.082.564-.167 1.126-.246 1.689-.054.385-.17.778-.131 1.155.055.541-.373.627-.664.745-.968.391-1.977.655-3.031.708-.987.05-1.934-.17-2.807-.57-.78-.358-1.45-.916-1.886-1.702-.59-1.065-.84-2.185-.764-3.413.051-.83.302-1.59.6-2.332.188-.47.56-.883.903-1.274.395-.45.812-.881 1.35-1.183.851-.477 1.732-.858 2.71-.944.709-.061 1.422-.117 2.13-.094zm33.378.49c.327.115.618.332.929.505l-.46 2.765c-.763-.583-1.5-1.088-2.42-1.198-.328-.04-.663-.077-.979.143-.395.277-.456.796-.068 1.076.517.374 1.048.73 1.578 1.087.983.661 1.692 1.512 1.797 2.735.096 1.107-.228 2.13-1.026 2.885-.932.882-2.122 1.145-3.392.988-.42-.052-.86-.079-1.249-.227-.592-.226-1.153-.538-1.713-.838-.095-.051-.186-.239-.17-.347.089-.592.212-1.18.322-1.77.044-.237.085-.475.13-.726.598.473 1.215.85 1.913 1.108.447.164.884.276 1.358.242.32-.022.649-.057.779-.399.123-.326.038-.669-.219-.888-.474-.405-.965-.8-1.493-1.129-.918-.57-1.602-1.327-1.82-2.382-.193-.935.025-1.837.603-2.629.45-.616 1.043-1.071 1.762-1.272.559-.156 1.164-.162 1.75-.204.74-.053 1.414.236 2.088.475zm-8.637-.12c.379.15.741.345 1.107.528.167.083.191.19.149.399-.14.68-.22 1.37-.325 2.057-.02.124-.056.246-.089.391-.742-.553-1.46-1.046-2.37-1.184-.413-.063-.778.026-1.123.198-.328.164-.286.794.054 1.03.65.448 1.299.897 1.957 1.331.945.623 1.523 2.089 1.382 3.218-.094.75-.389 1.386-.817 1.959-.222.295-.586.503-.918.694-.865.499-1.796.544-2.785.47-1.026-.078-1.885-.508-2.755-.964-.414-.215-.222-.58-.18-.873.1-.683.25-1.358.381-2.041.762.575 1.555 1.086 2.5 1.28.311.064.645.08.96.043.556-.066.807-.533.537-1.018-.144-.26-.374-.492-.613-.673-.576-.435-1.225-.78-1.761-1.257-.686-.609-1.125-1.365-1.155-2.349-.03-.968.333-1.765.929-2.448.498-.572 1.18-.906 1.942-1.069 1.033-.22 2.025-.106 2.993.278zm-15.105-.41c.212-.002.3.047.338.295.171 1.125.39 2.243.575 3.366.177 1.074.33 2.152.504 3.226.149.92.31 1.837.47 2.754.088.512.187 1.022.27 1.535.013.074-.036.159-.061.255-.9 0-1.792.007-2.682-.009-.094-.002-.25-.122-.266-.208-.08-.428-.123-.863-.18-1.296-.03-.244-.062-.489-.1-.782-.77 0-1.559-.007-2.347.01-.083.002-.198.132-.239.228-.29.678-.563 1.362-.84 2.037h-3.225c.17-.361.326-.675.468-.996.206-.465.395-.938.605-1.401.186-.408.398-.804.587-1.21.219-.474.424-.953.636-1.43.158-.357.308-.717.477-1.07.35-.735.723-1.46 1.063-2.2.35-.763.668-1.542 1.012-2.308.112-.249.253-.486.404-.713.038-.058.165-.077.252-.078.76-.006 1.52 0 2.279-.006zm7.94.14c-.027.337-.04.642-.077.944-.136 1.064-.276 2.128-.423 3.19-.112.805-.245 1.607-.353 2.412-.107.805-.19 1.613-.292 2.419-.092.725-.19 1.45-.3 2.172-.01.06-.127.147-.195.148-.915.01-1.83.006-2.79.006.134-.881.273-1.705.382-2.533.129-.98.22-1.966.35-2.947.108-.819.26-1.632.37-2.451.105-.793.18-1.59.273-2.386.028-.234.049-.474.117-.698.033-.108.165-.262.255-.265.878-.02 1.757-.012 2.683-.012zm25.337.017l-.338 2.582c-1.246 0-2.462.01-3.679-.006-.354-.005-.496.096-.474.472.016.266-.034.547-.113.803-.087.281.003.34.26.339 1.001-.007 2.002-.003 3.003-.003.06 0 .119.006.267.012l-.212 1.714-.107.867h-3.591l-.26 1.895h5.152l-.356 2.587h-8.08l1.509-11.262h7.02zm-34.988 3.456l-1.31 3.469h1.837l-.401-3.464-.126-.005zm34.995-59.882v50.029H68.027V7.144h50.21zM91.056 51.548c-.093.033-.215.062-.264.134-.664.972-1.318 1.951-2.007 2.977.116.012.164.02.211.02 7.185.001 14.369.003 21.553-.008.13 0 .311-.12.383-.235.534-.859 1.047-1.73 1.565-2.599.047-.078.082-.163.145-.293H91.236c-.06 0-.126-.015-.18.004zm22.588-41.965c-.086.038-.173.073-.257.113-6.64 3.113-13.168 6.44-19.556 10.043-2.673 1.508-5.24 3.16-7.53 5.218-.126.112-.343.17-.518.171-2.026.012-4.053.01-6.079.003-.217 0-.348.061-.465.25-.548.88-1.113 1.748-1.67 2.622-.052.083-.09.175-.168.329h5.622c-.569.8-1.12 1.558-1.65 2.334-.132.193-.262.266-.495.265-1.628-.01-3.256 0-4.884-.011-.237-.002-.37.074-.49.272-.53.862-1.077 1.714-1.615 2.571-.058.093-.102.194-.183.35h5.75c-.286.816-.576 1.591-.826 2.38-.079.247-.189.307-.43.306-1.942-.009-3.884 0-5.826-.01-.242-.001-.39.064-.522.279-.532.86-1.085 1.708-1.629 2.562-.06.095-.11.197-.193.35h7.876c.008.064.018.099.015.133-.216 2.19.166 4.297.898 6.352.925 2.596 2.341 4.854 4.572 6.536.69.521 1.424.974 2.271 1.22.068-.102.124-.18.174-.26l9.853-15.662c2.88-4.577 5.762-9.155 8.647-13.73.123-.196.192-.341.037-.576-.564-.854-1.098-1.729-1.644-2.594-.053-.084-.118-.16-.197-.267l-17.89 28.32c-2.623-2.68-3.686-5.806-3.19-9.486h.418c1.544 0 3.088-.006 4.631.006.25.002.387-.08.515-.29.522-.853 1.063-1.694 1.595-2.54.061-.097.112-.2.203-.364h-6.821c.352-.836.68-1.595.988-2.362.101-.25.245-.328.514-.327 2.219.012 4.438.004 6.657.011.23.001.37-.057.496-.262.529-.863 1.078-1.713 1.62-2.568.06-.096.11-.198.203-.363h-7.166l-.044-.085c.703-.743 1.41-1.482 2.106-2.233.195-.21.405-.291.695-.29 1.918.013 3.836 0 5.753.014.28.002.432-.09.575-.322.517-.842 1.056-1.67 1.585-2.503.063-.098.116-.201.21-.365h-4.61c-.02-.045-.038-.09-.057-.136 1.941-1.275 3.842-2.617 5.833-3.81 3.885-2.332 7.964-4.3 12.1-6.145.825-.368 1.444-.833 1.897-1.634.728-1.287 1.562-2.515 2.35-3.768l-.054-.047zm-2.748 33.078c-3.919 0-7.838-.003-11.756.01-.143 0-.335.12-.42.242-.593.85-1.165 1.715-1.74 2.576-.057.084-.102.176-.177.307.132.009.212.018.291.018 3.98 0 7.958.003 11.938-.01.139 0 .33-.128.408-.252.53-.847 1.037-1.709 1.55-2.567.053-.088.093-.184.154-.307-.111-.008-.18-.017-.248-.017zm-4.242-13.9c-.876.56-1.722 1.1-2.58 1.65l2.616 4.028-3.096 2.067 1.654 2.576 5.677-3.756-4.271-6.566zm-4.426 2.258c-1.035.002-1.89.848-1.905 1.882-.015 1.046.844 1.921 1.893 1.929 1.048.007 1.92-.852 1.923-1.899.004-1.045-.866-1.915-1.911-1.912z"/>
</svg>
