<svg xmlns="http://www.w3.org/2000/svg" width="184" height="100" viewBox="0 0 184 100">
    <path fill-rule="evenodd" d="M18.098 42.241c1.37.818 2.257 2.057 2.866 3.51.191.455.35.924.559 1.478-1.217 0-2.338.01-3.458-.015-.119-.002-.253-.2-.346-.332-.434-.615-.757-1.352-1.303-1.837-1.666-1.477-4.211-1.215-5.836.502-2.457 2.596-2.755 7.238-.65 10.12 1.15 1.574 3.377 2.408 5.176 1.944 1.258-.323 2.14-1.091 2.604-2.297.159-.413.357-.537.783-.523.985.034 1.972.01 3.003.01-.44 2.39-1.665 4.166-3.803 5.134-3.276 1.482-6.45 1.214-9.304-1.077-1.796-1.443-2.82-3.412-3.2-5.67-.489-2.912-.052-5.695 1.552-8.21 2.408-3.772 7.564-5.001 11.357-2.737zm118.69 4.817V60.33h-3.304l-.127-.91c-.702.377-1.36.827-2.086 1.1-2.153.81-4.568-.08-5.403-2.096-.4-.968-.577-2.084-.611-3.142-.086-2.617-.031-5.239-.032-7.859 0-.098.011-.197.02-.359h3.454v.54c.002 2.388-.022 4.776.022 7.164.012.63.16 1.285.379 1.88.296.802 1.005 1.165 1.857 1.108 1.532-.104 2.372-.942 2.39-2.485.03-2.52.014-5.041.02-7.562 0-.21.02-.42.032-.65h3.389zm31.66-.306c2.675.566 4.75 2.674 5.245 5.389.114.631.136 1.28.184 1.923.013.177-.034.358-.062.604h-9.617c.045 1.102.44 1.927 1.283 2.528 1.126.8 2.939.852 4.02.081.209-.149.423-.345.532-.57.148-.303.328-.385.651-.377.971.024 1.944.009 2.967.009-.087.791-.413 1.447-.88 2.026-2.034 2.531-4.931 2.984-7.874 1.843-4.312-1.672-5.526-7.187-3.128-10.561 1.51-2.125 3.95-3.473 6.68-2.895zm-130.754-.098c2.584.218 4.415 1.59 5.516 3.94.596 1.272.792 2.611.653 4.082h-9.555c-.176.935.413 2.08 1.376 2.625 1.027.583 2.113.698 3.242.3.521-.184.914-.503 1.203-.976.078-.129.261-.27.399-.272 1.038-.023 2.077-.013 3.169-.013-.215 1.268-.888 2.2-1.817 2.982-1.938 1.633-4.131 1.763-6.44 1.07-4.572-1.37-6.171-7.052-3.718-10.616 1.42-2.061 3.357-3.343 5.972-3.122zm113.077.416v.591c0 2.322-.025 4.644.013 6.965.01.65.132 1.32.328 1.942.27.85 1.068 1.28 1.953 1.182 1.635-.181 2.34-.979 2.356-2.731.022-2.42.017-4.842.023-7.263v-.681h3.379v13.268h-3.316l-.076-1.042c-.184.134-.323.222-.448.328-1.616 1.382-4.042 1.552-5.804.372-1.167-.781-1.653-1.998-1.738-3.315-.127-1.965-.11-3.94-.136-5.91-.017-1.224-.003-2.448-.003-3.706h3.469zm-92.582-4.747v18.023h-3.436l-.068-1.267c-.316.294-.56.557-.84.774-1.177.91-2.518 1-3.914.74-2.37-.441-3.671-2.033-4.342-4.215-.814-2.644-.635-5.195 1.052-7.48 2.084-2.82 5.856-2.887 7.794-.933.052.053.13.08.266.161v-5.803h3.488zM85.495 39c1.85.012 3.7.004 5.55.022.167.002.408.097.486.226 1.23 2.04 2.44 4.094 3.653 6.146.03.05.04.113.038.106-.702-.24-1.405-.568-2.143-.715-2.203-.438-4.582 1.127-5.074 3.292-.184.81-.105 1.619.221 2.384.06.142.27.301.42.31 2.075.137 3.565 1.179 4.57 2.96.185.33.39.277.656.193 2.143-.68 3.492-2.798 3.217-5.055-.004-.032.004-.065.016-.215.435.721.824 1.36 1.206 2.002.786 1.324 1.579 2.644 2.34 3.983.098.172.115.495.02.659-.93 1.585-1.883 3.156-2.854 4.715-.109.176-.37.362-.562.364-2.28.024-4.56.015-6.84.013-.09 0-.18-.02-.259-.03.522-.414 1.089-.763 1.53-1.231 1.282-1.359 1.654-2.986 1.009-4.736-.627-1.7-1.97-2.595-3.727-2.886-.272-.045-.48-.024-.638.296-.836 1.68-2.227 2.641-4.053 2.914-.554.083-.674.337-.698.796-.106 1.992.697 3.496 2.39 4.528.142.085.286.165.427.25.01.005.006.031.017.103h-1.176c-1.9 0-3.8-.021-5.7.014-.56.01-.89-.145-1.178-.652-.85-1.494-1.772-2.947-2.643-4.43-.093-.16-.113-.46-.025-.612 1.176-2.016 2.378-4.016 3.575-6.02.015-.024.052-.036.095-.066-.166 1.225.022 2.36.709 3.399.68 1.03 1.605 1.72 2.797 1.983 1.791.397 3.843-.642 4.756-2.394.096-.185.064-.495-.016-.705-.517-1.348-.538-2.676.026-4.018.06-.143-.022-.424-.136-.551-1.658-1.852-4.069-2.14-6.166-.756-.062.04-.131.069-.3.156.71-1.186 1.36-2.276 2.011-3.365.595-.995 1.2-1.984 1.78-2.988.162-.278.355-.39.673-.389zm93.458 3.21c.016.2.044.39.044.58.002 5.64.002 11.28 0 16.92 0 .685-.004.682-.672.68-.887-.005-1.774-.002-2.694-.002V42.21h3.322zM30.337 46.846c.129.008.351.174.355.273.028.84.016 1.682.016 2.542-.97-.032-1.841.146-2.623.676-.841.57-1.312 1.364-1.325 2.372-.03 2.27-.017 4.54-.021 6.811v.863h-2.51c-.882 0-.964 0-.972-.719V47.093h3.26l.155 1.27c.47-.35.899-.727 1.378-1.018.696-.424 1.483-.544 2.287-.499zm40.025-4.173v4.315h2.297v2.439c-.613 0-1.219.019-1.823-.007-.374-.016-.478.118-.474.486.021 2.09.013 4.181.028 6.271.008 1.258.408 1.65 1.672 1.677.278.006.557 0 .893 0v2.522h-1.143c-.71-.002-1.421-.022-2.131-.002-1.661.045-2.33-.954-2.64-2.122-.147-.555-.215-1.145-.222-1.72-.028-2.206-.026-4.413-.01-6.62.002-.394-.104-.537-.5-.506-.408.03-.82.007-1.262.007v-2.364h1.742v-4.376h3.573zm52.16-.432v18.088h-3.375V47.307l-.133-.02c-.21.71-.426 1.419-.629 2.132-.99 3.488-1.98 6.975-2.955 10.467-.102.37-.26.498-.644.483-.842-.032-1.686-.032-2.527-.005-.352.012-.497-.117-.587-.438-1.134-4.034-2.275-8.065-3.416-12.096-.052-.183-.111-.363-.267-.53v13.026h-3.455V42.272h5.385l3.582 12.69c.088-.131.158-.195.18-.273 1.135-4.016 2.263-8.033 3.408-12.046.045-.158.25-.383.382-.385 1.666-.027 3.333-.017 5.051-.017zm21.018.425v4.35h2.266v2.412c-.64 0-1.276.008-1.912-.003-.26-.005-.405.068-.402.358.02 2.27.014 4.54.066 6.81.018.812.366 1.112 1.16 1.216.229.03.46.035.691.043.212.007.424.002.672.002v2.464c-1.367 0-2.723.088-4.06-.031-.902-.081-1.493-.794-1.72-1.664-.197-.762-.327-1.56-.347-2.345-.054-2.121-.042-4.244-.033-6.366.001-.395-.112-.535-.506-.505-.409.03-.821.006-1.25.006v-2.386c.457 0 .886-.023 1.311.007.363.025.45-.122.445-.459-.017-1.094-.008-2.188-.01-3.283v-.626h3.63zm-79.733 4.39v13.262h-3.374V47.055h3.374zM50.052 49.96c-1.192.934-1.578 2.234-1.69 3.711.165.756.265 1.533.51 2.262.407 1.213 1.199 2.064 2.555 2.162 1.323.096 2.215-.642 2.772-1.728 1.01-1.97.878-3.952-.31-5.806-.937-1.464-2.468-1.674-3.837-.6zm-12.716-.464c-1.649 0-3.021 1.172-3.109 2.685h6.2c-.103-1.64-1.334-2.684-3.091-2.685zm126.87 2.58h6.153c.115-1.41-1.154-2.582-2.855-2.672-1.737-.092-3.25 1.12-3.297 2.673zM38.293 42.034c.839-.005 1.678-.001 2.635-.001-.777 1.096-1.478 2.092-2.192 3.078-.074.102-.23.201-.35.204-.806.018-1.612.01-2.503.01l.63-1.896c.02-.062.051-.121.076-.182.157-.395.21-.93.5-1.142.272-.2.792-.069 1.204-.07zm25.213.242c.088.002.247.172.25.267.018.892.01 1.785.01 2.736h-3.282v-3.015c1.02 0 2.02-.007 3.022.012z"/>
</svg>
