<?xml version="1.0" encoding="UTF-8"?>
<svg width="184px" height="17px" viewBox="0 0 184 17" version="1.1" xmlns="http://www.w3.org/2000/svg" xmlns:xlink="http://www.w3.org/1999/xlink">
    <!-- Generator: Sketch 63.1 (92452) - https://sketch.com -->
    <title>DarkNoam</title>
    <desc>Created with Sketch.</desc>
    <g id="Symbols" stroke="none" stroke-width="1" fill="none" fill-rule="evenodd">
        <g id="01_logos-/-Clients-/-DarkNoam-/-Black" transform="translate(0.000000, -42.000000)" fill="#000000">
            <path d="M25.4749227,45.1731422 L22.5043449,52.220359 L28.445296,52.220359 L25.4749227,45.1731422 Z M88.3072427,42.2048398 C90.6702116,42.2048398 92.2902293,43.5869602 92.2902293,45.5358157 C92.2902293,47.7109964 90.4001404,48.8440566 88.4646649,49.8638518 C89.319856,50.8379723 90.4226293,51.9712373 91.7727804,53.3080928 C92.3127182,52.4922976 92.7855982,51.5407072 93.1906027,50.4531169 L94.8780871,51.7219723 C94.405616,52.8548277 93.8656782,53.8748277 93.2355804,54.7356831 L95.8009493,57.2508639 L94.4730827,58.610659 L92.0201582,56.1860084 C90.6252338,57.522659 89.0048071,58.293394 87.2721404,58.293394 C84.4591893,58.293394 82.3215182,56.4123337 82.3215182,53.8520928 C82.3215182,51.6087072 83.9417404,50.407647 85.7193849,49.4558518 C84.6842827,48.0509964 84.2118116,46.9179361 84.2118116,45.7850807 C84.2118116,43.6776952 85.8545227,42.2048398 88.3072427,42.2048398 Z M135.40883,42.2502072 C140.112075,42.2502072 143.757932,45.7171831 143.757932,50.2490145 C143.757932,54.7808458 140.112075,58.2932916 135.40883,58.2932916 C130.70579,58.2932916 127.060341,54.7808458 127.060341,50.2490145 C127.060341,45.6944482 130.70579,42.2502072 135.40883,42.2502072 Z M26.9150293,42.3183711 L33.8011271,58.1799855 L30.9654827,58.1799855 L29.4579093,54.5997446 L21.5144249,54.5997446 L20.0066471,58.1799855 L17.2386738,58.1799855 L24.1922382,42.3183711 L26.9150293,42.3183711 Z M44.5361573,42.3182892 C48.5641218,42.3182892 50.8819084,44.2896747 50.8819084,47.7337108 C50.8819084,50.2716265 49.7118729,52.061747 47.6189751,52.8775422 L51.152184,58.1799036 L48.1366284,58.1799036 L45.2562107,53.3758675 C45.0313218,53.399012 44.7835351,53.399012 44.5361573,53.399012 L40.8005484,53.399012 L40.8005484,58.1799036 L38.145224,58.1799036 L38.145224,42.3182892 L44.5361573,42.3182892 Z M59.3216204,42.3182482 L59.3216204,50.5210554 L66.837816,42.3182482 L69.9656116,42.3182482 L63.8674427,49.0932602 L70.3708204,58.1800675 L67.1753538,58.1800675 L61.9996382,51.1781157 L59.3216204,54.1465614 L59.3216204,58.1800675 L56.6665004,58.1800675 L56.6665004,42.3182482 L59.3216204,42.3182482 Z M110.902218,42.3183506 L119.340662,53.7161337 L119.340662,42.3183506 L121.951418,42.3183506 L121.951418,58.1799651 L119.340662,58.1799651 L110.947196,46.804712 L110.947196,58.1799651 L108.291871,58.1799651 L108.291871,42.3183506 L110.902218,42.3183506 Z M156.045698,42.3183711 L162.931796,58.1799855 L160.096151,58.1799855 L158.588578,54.5997446 L150.645093,54.5997446 L149.137316,58.1799855 L146.369342,58.1799855 L153.322702,42.3183711 L156.045698,42.3183711 Z M6.45852267,42.3182277 C11.184256,42.3182277 14.604816,45.6492036 14.604816,50.2490349 C14.604816,54.8263361 11.1615627,58.180047 6.391056,58.180047 L-8.17777781e-05,58.180047 L-8.17777781e-05,42.3182277 L6.45852267,42.3182277 Z M170.426156,42.3183506 L175.624565,52.8548687 L180.800281,42.3183506 L183.928281,42.3183506 L183.928281,58.1799651 L181.475356,58.1799651 L181.452868,46.3289169 L176.479552,56.5258446 L174.746681,56.5258446 L169.773979,46.3289169 L169.773979,58.1799651 L167.276076,58.1799651 L167.276076,42.3183506 L170.426156,42.3183506 Z M86.7771804,50.7699723 C85.4720071,51.5179723 84.4591893,52.3562976 84.4591893,53.647888 C84.4591893,55.2340084 85.7418738,56.3218036 87.362096,56.3218036 C88.5098471,56.3218036 89.6126204,55.7550687 90.6027449,54.7807434 C89.027296,53.1950325 87.7671004,51.9032373 86.7771804,50.7699723 Z M135.431319,44.6523277 C132.326217,44.6523277 129.760848,47.0993036 129.760848,50.2490145 C129.760848,53.3989301 132.348706,55.8911711 135.431319,55.8911711 C138.514546,55.8911711 141.034937,53.3989301 141.034937,50.2490145 C141.034937,47.0993036 138.514546,44.6523277 135.431319,44.6523277 Z M6.41354489,44.7201434 L2.65544711,44.7201434 L2.65544711,55.7781313 L6.52598933,55.7781313 C9.58652267,55.7781313 11.9267982,53.4892759 11.9267982,50.2715651 C11.9267982,47.0313241 9.51885156,44.7201434 6.41354489,44.7201434 Z M154.605591,45.1731422 L151.635218,52.220359 L157.575964,52.220359 L154.605591,45.1731422 Z M44.5361573,44.72 L40.8005484,44.72 L40.8005484,50.9966867 L44.5361573,50.9966867 C46.9663884,50.9966867 48.3615173,49.9543614 48.3615173,47.8017108 C48.3615173,45.7172651 46.9663884,44.72 44.5361573,44.72 Z M88.3297316,43.8364301 C87.0697404,43.8364301 86.2595271,44.6747554 86.2595271,45.7623458 C86.2595271,46.6008759 86.6420427,47.4844663 87.4297671,48.5720566 C88.9598293,47.7789964 90.2427182,46.963406 90.2427182,45.5583458 C90.2427182,44.5160205 89.4999716,43.8364301 88.3297316,43.8364301 Z" id="DarkNoam"></path>
        </g>
    </g>
</svg>