<svg xmlns="http://www.w3.org/2000/svg" width="147" height="59" viewBox="0 0 147 59">
    <path fill-rule="evenodd" d="M96.86.135v.861h-4.045v56.959l1.124.007c.187 0 .373-.003.56-.01 1.363-.056 2.728-.122 4.05-.51 2.586-.757 4.463-2.282 5.367-4.887.53-1.526.893-3.088 1.075-4.685.166-1.456.248-2.922.368-4.383.004-.048.012-.095.019-.153.066-.006.121-.016.177-.017.172-.002.344 0 .53 0v15.579H81.318v-.85h4.443V.942H81.32V.135h15.54zm-39.817 0v.859h-4.068V57.96c.455 0 .908.01 1.36-.002 1.506-.045 3.013-.106 4.468-.543 1.808-.543 3.35-1.49 4.406-3.093.66-1.001 1.03-2.132 1.328-3.284.634-2.446.882-4.943.98-7.46l.013-.262h.705V58.89H41.468v-.833h4.441V.945h-4.455v-.81h15.59zm-32.816 0c-.008.114-.024.228-.024.342v15.176h-.737c-.028-.574-.045-1.142-.084-1.707-.175-2.538-.49-5.051-1.343-7.467-.33-.937-.745-1.838-1.434-2.574-1.438-1.537-3.182-2.517-5.302-2.72-1.158-.11-2.326-.126-3.49-.183-.09-.005-.18 0-.29 0v27.242c.272 0 .553.033.823-.007.71-.104 1.43-.182 2.116-.375 1.218-.342 1.994-1.248 2.642-2.272.71-1.123 1.079-2.372 1.204-3.678.12-1.253.144-2.516.21-3.774.005-.122 0-.245 0-.383h.786v21.946h-.787v-.28c-.014-1.468-.043-2.935-.294-4.387-.291-1.684-.915-3.209-2.126-4.459-.478-.492-1.052-.813-1.699-1.026-.93-.306-1.886-.382-2.876-.372v28.717c.447 0 .891.006 1.335 0 1.39-.023 2.778-.087 4.137-.42 1.968-.484 3.593-1.495 4.75-3.172.705-1.024 1.081-2.198 1.388-3.39.621-2.415.85-4.882.935-7.366.003-.089 0-.178 0-.28h.725v15.569H.368c-.122 0-.245.016-.368.024v-.89h4.456V1.014c-.068-.005-.117-.012-.166-.012H.17c-.057 0-.113.015-.17.024V.135h24.227zm122.13 0l-.004 15.187v.332h-.722c-.008-.045-.023-.098-.025-.152-.055-1.773-.2-3.537-.49-5.288-.236-1.416-.574-2.803-1.081-4.151-.715-1.898-2.083-3.175-3.836-4.09-1.018-.53-2.125-.773-3.264-.846-.998-.064-1.999-.086-2.998-.125-.088-.004-.177 0-.277 0V28.28c.519-.032 1.03-.04 1.533-.1.997-.117 1.964-.362 2.743-1.03.806-.693 1.403-1.55 1.823-2.529.47-1.096.703-2.248.781-3.428.072-1.069.085-2.14.124-3.212.003-.072.009-.144.014-.23h.772v21.942h-.79c0-.099.004-.203-.002-.306-.068-1.283-.092-2.57-.22-3.848-.146-1.44-.603-2.788-1.41-4.017-.872-1.324-2.086-2.059-3.646-2.244-.563-.067-1.131-.09-1.718-.134v28.75c.444 0 .888.005 1.33-.002 1.392-.022 2.779-.086 4.138-.417 1.97-.48 3.593-1.493 4.754-3.166.694-1 1.069-2.15 1.373-3.317.624-2.397.866-4.845.948-7.313l.008-.346c0-.016.008-.032.017-.066h.71V58.82H122.16v-.842h4.453V1h-4.484V.135h24.227z"/>
</svg>
