<svg xmlns="http://www.w3.org/2000/svg" width="184" height="100" viewBox="0 0 184 100">
    <path fill-rule="evenodd" d="M32.125 54.564v2.335c.011.995.13 1.032 1.252 1.033 3.101.002 6.203.03 9.304-.026.688-.013 1.012.282 1.04.827.073 1.425.105 2.86.034 4.284-.031.635-.435.967-1.233.96-5.41-.053-10.82-.028-16.338-.028v-8.803l5.941-.582zm125.459-9.612c-.07.192-.12.328-.167.465-.631 1.858-.612 1.799-2.41 1.198-1.276-.426-2.626-.499-3.883.114-1.04.507-1.1 1.392-.079 1.887 1.103.535 2.335.79 3.471 1.263.938.391 1.907.808 2.698 1.426.809.63 1.013 1.633.776 2.671-.314 1.377-1.274 2.13-2.536 2.48-2.799.775-5.634.45-8.346-.905l1.003-1.99c1.536.787 3.12 1.206 4.814 1.069.363-.03.797.066 1.075-.101.457-.276 1.026-.656 1.163-1.11.2-.664-.525-.836-1.022-1.017-1.465-.534-2.978-.954-4.395-1.59-1.737-.78-2.274-1.76-2.16-3.224.136-1.75 1.317-2.592 2.757-3.03 2.417-.736 4.836-.553 7.24.394zm-15.692-.568c2.494.477 4.126 1.864 4.6 4.416.465 2.496.017 5.331-2.201 6.826-1.486 1-3.185 1.271-4.945 1.222-1.567.05-3.068-.225-4.46-.97-1.144-.614-1.95-1.541-2.328-2.802-.55-1.834-.583-3.686.075-5.49.651-1.785 2.075-2.688 3.851-3.115 1.797-.432 3.593-.434 5.408-.087zm-39.566.051c1.54.027 2.933.527 3.613 2.017.713 1.563.633 3.185-.44 4.594-.405.53-1.045.878-1.746 1.446 1.04 1.24 2.15 2.569 3.266 3.901-1.575.56-2.993.19-3.948-1.012-.36-.454-.819-.855-1.077-1.36-.734-1.436-1.969-1.535-3.333-1.429-.517.04-.77.226-.753.79.03 1.034.008 2.07.008 3.157h-2.225V44.426c2.264 0 4.45-.028 6.635.01zm-28.601 1.279c1.6 2.145 3.395 4.145 5.118 6.198.103.122.287.176.58.35v-7.804h2.304v12.03c-1.397.31-2.393-.01-3.272-1.176-1.594-2.114-3.355-4.1-5.059-6.13-.134-.16-.36-.243-.685-.453v7.8h-2.19V44.494c1.367-.306 2.33.05 3.204 1.22zm45.012-1.264c-.146.568-.228 1.145-.457 1.655-.093.209-.504.38-.773.384-1.945.03-3.89.036-5.836.002-.721-.013-1.043.169-1.015.978.073 2.16-.338 2.01 2.006 2.006 1.575-.002 3.15 0 4.876 0 0 .574.046 1.148-.03 1.704-.02.147-.416.342-.641.345-1.763.023-3.526.024-5.288-.012-.73-.015-.943.28-.919.989.076 2.206-.403 1.956 2.004 1.992 1.611.024 3.225.038 4.832-.039.565-.027.774.15.882.637.103.466.23.928.36 1.45h-10.35V44.45h10.349zm8.619.038c.437.007.884.192 1.305.351 1.778.672 2.78 2.72 2.427 4.918-.32 2-1.706 3.312-3.665 3.402-1.334.061-2.671.072-4.007.065-.686-.004-1.004.213-.942.964.063.752.014 1.515.014 2.336h-2.241V44.472c2.394 0 4.752-.018 7.109.016zm-32.91-.062c-.164.613-.267 1.202-.496 1.736-.079.185-.467.319-.72.33-.85.038-1.703.028-2.554.002-.663-.02-.893.238-.885.927.035 2.997.015 5.994.015 9.078h-2.221c-.02-.159-.064-.356-.064-.554-.002-2.816-.019-5.631.018-8.446.01-.77-.26-1.038-1.01-1.007-1.056.043-2.116.01-3.273.01v-2.076h11.19zm-25.553.035c.025.106.065.172.049.218-.63 1.799-.63 1.805-2.55 1.818-1.491.011-2.983.025-4.473-.002-.737-.013-1.102.154-1.064 1.03.08 1.825.043 1.941 1.645 1.949h5.163v2.05h-3.858c-.73 0-1.46-.004-2.19.001-.51.005-.783.221-.756.788.114 2.33-.51 2.154 2.01 2.17 1.583.008 3.167.05 4.746-.016.667-.029.95.165 1.034.807.05.384.197.755.326 1.225H58.642V44.46h10.25zm101.076.06l-.533 1.977c-2.167 0-4.232.024-6.295-.011-.86-.015-1.25.2-1.196 1.185.092 1.683.045 1.795 1.531 1.802h5.292v2.051c-2.01 0-3.893.016-5.776-.007-.755-.01-1.081.211-1.044 1.06.083 1.872.037 1.884 1.906 1.907 1.52.017 3.048.1 4.559-.024 1.017-.084 1.268.399 1.374 1.206.032.239.07.477.12.81h-10.348V44.522h10.41zM43.481 37c.119 1.596.305 3.19.335 4.787.02 1.122-.248 1.281-1.374 1.28-3.073 0-6.146.026-9.219-.015-.84-.01-1.192.269-1.102 1.11.03.273.005.55.005.826 0 1.347 0 1.347-1.156 1.774 7.712-.438 15.227.471 22.52 3.21.056 1.534-.217 2.968-1.087 4.264-.31.463-.55.573-1.174.365-1.769-.588-3.606-.963-5.402-1.475-4.012-1.146-8.116-1.364-12.253-1.28-3.098.062-6.159.416-9.15 1.258-2.317.652-4.625 1.342-6.938 2.012-.61.178-1.162.156-1.443-.537-.237-.585-.447-1.182-.662-1.775-.134-.368-.254-.74-.381-1.11v-1.102c1.261-.466 2.498-1.022 3.79-1.38 2.595-.721 5.22-1.334 7.628-1.94-.079-.265-.26-.597-.262-.93-.024-3.114-.017-6.228-.02-9.342h17.345zm95.965 9.255l-.024.128c-.394 0-.788-.01-1.182.002-1.897.063-3.384 1.354-3.653 3.162-.337 2.267.586 4.139 2.477 4.73.845.265 1.775.29 2.67.343 2.195.13 4.387-1.11 4.46-4.144.044-1.866-.733-3.211-2.47-3.783-.728-.24-1.517-.298-2.278-.438zm-16.956 2.223v.737c.007 1.953.128 1.952 2.305 1.945.486 0 .973.02 1.458-.004 1.422-.07 2.296-.767 2.397-1.886.135-1.5-.436-2.265-2.009-2.59-.585-.12-1.194-.161-1.794-.169-2.227-.027-2.35-.02-2.357 1.967zm-22.284-2.058c-2.774.094-2.244-.172-2.28 2.337-.026 1.791-.005 1.816 1.764 1.755.986-.034 1.991-.068 2.949-.28.911-.203 1.41-1.095 1.302-2.03-.101-.882-.562-1.433-1.5-1.514-.747-.066-1.49-.177-2.235-.268z"/>
</svg>
