<svg xmlns="http://www.w3.org/2000/svg" width="184" height="100" viewBox="0 0 184 100">
    <path fill-rule="evenodd" d="M148.682 54.283l4.973 4.8c1.335-1.101 2.638-2.175 3.942-3.248l.115.062c-.393 1.106-.75 2.226-1.189 3.314-.602 1.498-1.41 2.892-2.314 4.231-1.051 1.556-2.292 2.95-3.676 4.21-1.874 1.706-3.992 3.06-6.306 4.097-1.871.837-3.817 1.447-5.853 1.744-.634.093-1.271.163-1.906.251-.066.01-.125.07-.187.108h-3.904c-.076-.038-.15-.103-.228-.108-1.531-.101-3.02-.414-4.495-.823-1.721-.476-3.339-1.191-4.916-2.008-.398-.206-.775-.45-1.188-.692l-1.373 2.141-.23-1.343-.796-4.66c-.172-1.003-.348-2.006-.504-3.011-.01-.067.117-.203.203-.228 2.883-.83 5.769-1.65 8.733-2.493l-1.178 1.914c4.204 2.465 8.584 2.976 13.13 1.308 4.561-1.674 7.54-4.94 9.147-9.566zM64.105 38.766c2.172.02 4.205.548 5.92 1.935 1.282 1.037 2.095 2.402 2.515 3.997.308 1.17.447 2.356.422 3.568-.03 1.421.035 2.845-.018 4.265-.067 1.808-.51 3.528-1.529 5.054-1.077 1.611-2.64 2.546-4.475 3.06-1.758.494-3.564.457-5.363.409-1.08-.03-2.16-.143-3.237-.244-.597-.056-1.191-.15-1.782-.254-.57-.1-.82-.476-.82-1.184V40.488c0-.85.255-1.198 1.09-1.3 1.195-.147 2.395-.268 3.596-.337 1.225-.07 2.454-.097 3.681-.085zm54.161-.016c1.269.032 2.538.033 3.805.093.735.035 1.466.152 2.197.247.28.036.44.22.442.505.004 1.242.009 2.485-.002 3.727-.004.4-.269.523-.638.522-1.951-.004-3.903-.002-5.855-.002-.124 0-.252-.013-.373.009-.723.129-1.019.492-1.02 1.24-.002.77 0 1.54 0 2.358h4.016c1.052 0 2.104-.002 3.155 0 .365.002.628.233.632.6.01 1.131.013 2.263-.001 3.395-.006.43-.215.598-.66.598l-3.302.001h-3.833c0 1.03-.04 2.022.015 3.007.033.575.45.848 1.059.848 1.924.001 3.848-.002 5.772.004.188 0 .376.058.565.072.355.027.466.265.468.56.01 1.214.004 2.429.004 3.643 0 .427-.332.524-.637.553-1.104.107-2.21.198-3.318.254-1.101.055-2.207.115-3.307.075-1.409-.052-2.804-.254-4.057-.976-1.415-.816-2.154-2.097-2.413-3.661-.118-.711-.166-1.441-.17-2.163-.018-3.106-.017-6.212-.003-9.317.005-1.154.206-2.282.751-3.315.675-1.278 1.77-2.045 3.134-2.462 1.166-.356 2.363-.446 3.574-.415zm-33.65.019c1.298.071 2.593.203 3.887.327.36.035.564.27.565.641.004 1.146.006 2.291-.001 3.437-.003.433-.256.66-.703.66-1.937.001-3.875 0-5.812.002-.138 0-.276.006-.413.022-.683.083-.999.526-1.027 1.158-.036.795-.009 1.592-.009 2.44h2.848c1.467 0 2.934.003 4.4-.001.379-.001.555.17.554.549l-.003 3.477c0 .411-.153.553-.585.554H81.055c.045 1.088.064 2.128.139 3.164.03.42.499.706 1.02.706 1.937.002 3.875 0 5.812.001.84 0 1.044.204 1.044 1.039v3.022c-.002.518-.193.726-.702.765-1.106.085-2.211.19-3.32.245-1.142.055-2.29.12-3.43.072-1.383-.059-2.748-.29-3.963-1.025-1.282-.777-2.004-1.95-2.305-3.389-.102-.491-.162-1-.168-1.5-.042-3.156-.092-6.312-.076-9.467.007-1.262.086-2.537.63-3.723.771-1.681 2.153-2.567 3.905-2.927.72-.147 1.46-.216 2.195-.25.926-.04 1.857-.05 2.78 0zm-35.204.01c1.088.006 2.175.202 3.263.311.324.033.506.208.508.532.005 1.229.009 2.457-.003 3.685-.003.384-.206.527-.676.527-1.937.001-3.874.009-5.812-.003-.949-.006-1.463.431-1.406 1.376.043.702.014 1.407.019 2.11 0 .026.016.051.046.14h7.018c.502 0 .73.218.732.716.004 1.048.004 2.097 0 3.146-.002.498-.23.716-.732.716h-7.073c0 1.027-.025 1.99.01 2.953.022.592.435.917 1.045.917 1.937.002 3.875 0 5.812.004.175 0 .35.055.526.068.397.03.495.289.496.625.001 1.132-.019 2.264.01 3.395.011.476-.176.675-.646.725-1.09.114-2.183.199-3.277.254-1.115.056-2.235.122-3.348.074-1.491-.065-2.967-.27-4.263-1.118-1.3-.849-1.991-2.079-2.196-3.58-.11-.81-.162-1.635-.167-2.453-.019-3.078-.033-6.156.005-9.233.015-1.206.29-2.374.975-3.412.834-1.266 2.056-1.918 3.491-2.245 1.866-.425 3.761-.241 5.643-.23zm87.823.055c.967.148 1.93.326 2.892.5.34.06.457.292.454.626-.008 1.242 0 2.485-.004 3.727-.001.5-.077.596-.575.563-.872-.056-1.742-.193-2.615-.217-.835-.024-1.694-.05-2.505.11-1.148.229-1.61 1.176-1.849 2.217-.111.488-.165.997-.172 1.498-.022 1.463-.037 2.927.003 4.39.023.884.202 1.746.708 2.514.455.689 1.128 1.04 1.898 1.034 1.37-.012 2.739-.145 4.108-.224.18-.01.361.01.54-.008.332-.031.454.161.456.44.008 1.325.013 2.65-.01 3.975-.003.145-.168.369-.305.414-.604.2-1.217.423-1.843.495-1.034.12-2.084.195-3.124.17-1.928-.046-3.76-.487-5.346-1.658-1.302-.962-2.129-2.274-2.59-3.791-.264-.864-.428-1.773-.503-2.673-.085-1.01-.02-2.032-.02-3.048h-.082c0-.787-.033-1.576.007-2.36.093-1.858.472-3.651 1.48-5.247 1.15-1.823 2.873-2.84 4.948-3.271 1.334-.278 2.69-.384 4.049-.176zm-36.204-.064c1.848.084 3.648.452 5.226 1.542 1.386.957 2.075 2.311 2.333 3.917.102.631.172 1.277.164 1.915-.023 1.719-.43 3.336-1.662 4.607-.524.54-1.201.93-1.869 1.435.9 1.673 1.831 3.4 2.76 5.13.47.876.95 1.748 1.4 2.636.28.555.067.87-.548.871-1.702.002-3.405-.003-5.107.004-.288.001-.505-.075-.635-.346-.09-.184-.198-.358-.292-.54l-2.911-5.635c-.05-.096-.15-.175-.173-.275-.274-1.15-1.123-1.1-2.084-.938v6.737c0 .825-.169.994-.981.994h-4.278c-.55-.002-.76-.215-.76-.766 0-6.35.016-12.7-.01-19.049-.007-1.544.717-1.776 1.765-1.916 2.542-.341 5.104-.438 7.662-.323zm-69.57-.002c1.601.074 3.201.198 4.8.333.442.038.665.226.653.719-.03 1.117-.008 2.235-.01 3.354-.002.498-.166.66-.672.66-1.633.002-3.267-.006-4.9.004-.493.004-.988.042-1.48.085-.437.037-.815.388-.828.829-.027.88-.008 1.761-.008 2.705h.555c2.173 0 4.346.012 6.52-.01.462-.006.704.203.719.693.034 1.076.033 2.154-.001 3.23-.013.422-.202.681-.736.675-2.173-.024-4.346-.01-6.52-.01h-.54v7.775c0 .784-.221 1.006-.994 1.006h-4.235c-.561-.001-.774-.212-.774-.759 0-5.162-.032-10.325.018-15.487.016-1.586.48-3.074 1.722-4.204.825-.75 1.824-1.127 2.893-1.359 1.26-.273 2.54-.298 3.817-.24zM132.581 26c1.623.009 3.25.043 4.868.17 1.616.129 3.191.54 4.718 1.075 4.993 1.753 9.025 4.81 12.016 9.153 2.976 4.322 4.387 9.14 4.164 14.508h2.604v.165c-.212.135-.44.25-.633.407-1.3 1.063-2.591 2.136-3.885 3.206-.821.679-1.647 1.351-2.457 2.043-.19.162-.292.12-.445-.029-.72-.702-1.452-1.392-2.174-2.091-1.051-1.016-2.095-2.039-3.15-3.051-.372-.358-.765-.694-1.204-1.089h2.267c.083-4.862-1.723-8.876-5.457-11.98-3.73-3.1-8.043-4.006-12.821-3.096l1.68-6.724-4.788-1.763c.334-.293 3.324-.911 4.697-.904zM61.761 43.838v12.189c.847-.041 1.645-.048 2.436-.126 1.459-.144 2.16-.797 2.512-2.207.25-.996.266-2.006.238-3.02-.039-1.411-.06-2.826-.18-4.233-.07-.807-.391-1.563-1.121-2.047-1.205-.799-2.557-.503-3.885-.556zm35.893.017v4.505c1.136 0 2.224.056 3.304-.017.948-.065 1.562-.643 1.748-1.507.071-.33.036-.684.038-1.028.003-.904-.433-1.52-1.309-1.798-1.242-.394-2.505-.282-3.781-.155zm24.342-17.367c.13.018.232.014.32.046 2.114.784 4.227 1.571 6.34 2.358.6.223 1.196.452 1.797.667.23.083.27.216.214.441-.663 2.627-1.317 5.256-1.975 7.884-.062.246-.134.49-.226.824-.317-.591-.616-1.114-.88-1.655-.117-.243-.24-.313-.467-.164l-1.959 1.29c-.773-.105-1.49-.247-2.213-.293-1.713-.11-3.428-.224-5.144-.242-1.506-.015-2.982.254-4.379.857-.034.015-.073.02-.196.051 2.346-4.297 5.629-7.542 9.917-9.857l-1.149-2.207z"/>
</svg>
