<svg xmlns="http://www.w3.org/2000/svg" width="184" height="100" viewBox="0 0 184 100">
    <path fill-rule="evenodd" d="M52.308 49.699h9.74c-.41-1.385-1.314-2.894-4.877-2.894-2.765 0-4.286 1.02-4.863 2.894zm37.815-6.355l-9.755 25.518h-5.29l2.688-7.03 1.75-4.58 5.317-13.908h5.29zm-44.99-6.07L37.573 49.1 45.53 61.24h-6.119L31.55 49.086l7.464-11.812h6.119zm12.038 5.144c2.611 0 4.687.655 6.247 1.743v-.006c3.566 2.41 3.885 6.32 3.6 8.855h-.184v.001H52.117c.342 2.472 1.818 3.696 5.054 3.696 2.99 0 4.47-.832 4.93-2.046h4.846c-.512 3.968-3.715 6.433-9.776 6.433-6.323 0-9.915-3.186-9.915-9.338 0-6.039 3.683-9.338 9.915-9.338zm55.241.176v18.5h-5.006v-2.581h-.156c-1.25 1.608-3.355 2.581-6.821 2.581-7.743 0-8.615-6.759-8.615-9.25 0-2.696.824-9.25 8.629-9.25 3.412 0 5.5 1.078 6.753 2.717h.21v-2.717h5.006zm24.47-5.317v23.817h-5.005v-2.581h-.23c-1.248 1.608-3.353 2.581-6.82 2.581-7.743 0-8.615-6.759-8.615-9.25 0-2.697.825-9.25 8.63-9.25 3.412 0 5.5 1.077 6.753 2.717h.28v-8.034h5.008zm13.02 5.14c2.611 0 4.687.656 6.247 1.744v-.006c3.566 2.41 3.885 6.32 3.6 8.855h-.184v.001h-14.718c.343 2.472 1.819 3.696 5.055 3.696 2.99 0 4.47-.832 4.93-2.046h4.846c-.512 3.968-3.716 6.433-9.776 6.433-6.323 0-9.916-3.186-9.916-9.338 0-6.039 3.684-9.338 9.916-9.338zM29.358 31.184v6.586h-.005v21.646h.005v1.66L24 61.077V31.185l5.358-.002zm44.81 12.162L77.84 53l-2.583 7.044-6.378-16.7h5.288zm27.721 3.562c-4.793 0-5.299 3.498-5.299 4.937 0 1.33.537 4.937 5.29 4.937 4.33 0 5.213-2.138 5.213-4.937 0-2.504-.884-4.937-5.204-4.937zm24.399 0c-4.697 0-5.277 3.36-5.298 4.848v.09c0 1.328.535 4.936 5.289 4.936 4.33 0 5.213-2.14 5.213-4.937 0-2.504-.884-4.937-5.204-4.937zm23.614-.102c-2.766 0-4.286 1.02-4.863 2.894h9.74c-.41-1.385-1.314-2.894-4.877-2.894z"/>
</svg>
