<svg xmlns="http://www.w3.org/2000/svg" width="184" height="100" viewBox="0 0 184 100">
    <path fill-rule="evenodd" d="M27.724 59.894h9.447v-3.187h-9.447v3.187zm-3.213-14.257H37.17v-3.261h-3.668l-8.365-.003c-.336 0-.658-.05-.636.484.035.898.01 1.799.01 2.78zm.001 3.907c0 .87.053 1.692-.017 2.502-.055.64.148.788.762.784 3.718-.026 7.437-.012 11.155-.013.24 0 .478-.024.771-.04v-3.233h-12.67zm20.01 6.985c-.017.875.013 1.754-.064 2.624-.056.625.121.803.748.796 2.789-.03 5.578-.01 8.367-.013.204 0 .409-.05.562-.07v-3.234c-.662 0-1.258.005-1.854 0-2.593-.026-5.186-.054-7.778-.081-.013-2.027-.033-4.054-.037-6.08-.006-2.468.011-4.936-.015-7.403-.003-.257-.222-.722-.365-.732-.942-.067-1.89-.035-2.86-.035v14.226c1.13 0 2.214 0 3.295.002zm46.1 4.221c.15.017.364.316.379.499.037.455-.024.918-.038 1.222-1.37-.051-2.666-.224-3.938-.117-1.615.137-2.902 1.641-2.9 3.256 0 .83.06 1.712.346 2.476.62 1.653 2.767 2.556 4.44 1.973.155-.054.317-.337.326-.52.036-.765.015-1.533.015-2.404h-2.376c0-.525-.063-.965.029-1.37.04-.178.39-.4.605-.406 1.227-.04 2.456-.02 3.778-.02v6l-1.92.572h-3.124c-.186-.1-.362-.256-.559-.29-2.151-.372-3.375-1.727-3.788-3.779-.329-1.632-.251-3.298.587-4.792.949-1.692 2.558-2.48 4.402-2.607 1.233-.086 2.493.162 3.736.307zm73.069-.13c.633.135.747.42.625.956-.072.313-.147.625-.224.95-.599-.101-1.156-.24-1.72-.276-.454-.03-.988-.063-1.357.141-.38.21-.739.67-.851 1.088-.079.29.18.849.456 1.024.658.418 1.407.696 2.132 1.003 2.216.939 3.027 3.25 1.662 5-.39.5-1.082.767-1.643 1.13-.172.111-.368.184-.553.275h-2.96c-.1-.087-.204-.255-.297-.249-1.103.079-1-.595-.852-1.32.048-.237.056-.483.072-.63 1.005.142 1.977.36 2.955.393.759.025 1.404-.395 1.542-1.211.143-.846-.513-1.207-1.146-1.504-.69-.324-1.421-.562-2.096-.912-1.23-.639-1.724-1.654-1.576-3.065.152-1.455.872-2.284 2.202-2.738 1.221-.418 2.401-.318 3.629-.056zm-59.66.019c.535.125.689.351.567.843l-.258 1.043c-.56-.096-1.086-.228-1.62-.265-.454-.031-.988-.085-1.357.114-.402.218-.82.677-.916 1.102-.076.335.228.93.542 1.14.601.4 1.334.6 2.005.899 1.175.522 2.147 1.23 2.264 2.656.1 1.226-.22 2.306-1.278 3.015-.484.325-1.077.488-1.62.725h-2.796c-.053-.062-.108-.178-.16-.176-1.44.04-1.131-.904-.994-1.754.02-.13.038-.262.036-.248 1.042.131 2.045.342 3.051.356.722.01 1.31-.44 1.442-1.22.123-.726-.407-1.09-.958-1.362-.707-.347-1.457-.606-2.157-.966-1.326-.681-1.928-1.766-1.738-3.14.192-1.39.895-2.338 2.315-2.758 1.231-.364 2.41-.29 3.63-.004zM18 31.382c3.698.013 7.396.034 11.094.037 6.933.004 13.865.007 20.797-.02.613-.003.729.185.722.743-.029 2.244-.012 4.49-.012 6.848h7.56v.835l-.001 30.8v.266c-.008.843-.095.832-1.093.831-9.947-.005-19.893.018-29.84-.032-1.427-.008-2.924-.144-4.263-.595-2.768-.93-4.16-3.144-4.76-5.916-.05-.232-.135-.455-.204-.682V31.382zm103.184 29.79c1.059 2.75 2.14 5.491 3.211 8.236.276.707.542 1.417.855 2.237-.762 0-1.416.045-2.058-.024-.22-.024-.493-.293-.598-.517-.277-.591-.474-1.22-.729-1.901-1.38 0-2.768-.015-4.155.018-.174.004-.356.244-.505.402-.065.069-.05.21-.082.314-.538 1.739-1.008 2-2.937 1.585.852-2.189 1.701-4.367 2.548-6.546.503-1.295.985-2.6 1.52-3.881.087-.206.392-.411.622-.447.453-.07.933.032 1.387-.036.506-.077.744.1.921.56zm25.327-.535c.393.066.807.012 1.332.012-.083.284-.158.578-.254.864-1.072 3.188-2.158 6.371-3.21 9.565-.148.446-.33.663-.804.562-.105-.022-.219-.006-.328-.007-1.825-.016-1.856-.005-2.479-1.768-1.03-2.913-2.015-5.84-3.014-8.764-.042-.123-.035-.264-.057-.452h2.3l2.78 8.473.174-.027c.828-2.572 1.682-5.135 2.464-7.72.193-.638.463-.843 1.096-.738zm-37.071.005c.018.195.054.401.054.608.005 2.659.024 5.317-.01 7.975-.008.585.148.77.726.753 1.169-.036 2.34-.011 3.459-.011.081.11.141.155.14.197-.023 1.36-.026 1.458-1.218 1.464h-5.258V60.643h2.107zm23.42.015v1.651h-3.135v9.305h-2.227v-9.294h-3.168v-1.662h8.53zm-36.803.01V71.61h-2.204V60.668h2.204zm40.243-.028v10.966h-2.129V60.64h2.13zm19.534.024v1.66h-4.227v2.762h3.851v1.704h-3.839v3.171c1.067 0 2.148.002 3.23 0 .985-.004 1.07-.006 1.076.831v.809h-6.553V60.663h6.462zm-87.88.654c.008 2.604.007 5.208.01 7.811v.816h4.25V71.6h-6.43V60.604c.608 0 1.15.026 1.686-.007.61-.038.483.39.484.72zm12.28-.584v1.613h-4.292v2.745h3.835v1.725H75.96v3.143h4.27v1.613h-6.452v-10.84h6.456zm39.402 2.106l-1.588 4.52h3.196c-.53-1.493-1.028-2.89-1.608-4.52zm44.745-23.743c.493.03.666.25.59.747-.104.668-.154 1.345-.227 2.025-.874-.196-1.685-.49-2.51-.532-.763-.04-1.612.027-2.296.333-1.411.632-1.475 2.427-.152 3.206.77.454 1.634.75 2.449 1.132.566.265 1.139.525 1.679.839 1.695.986 2.222 2.562 2.035 4.4-.204 2.004-1.353 3.284-3.267 3.883-2.063.644-4.854.521-6.908-.338l.251-2.753c.513.185.959.343 1.403.507 1.102.408 2.223.57 3.38.259.985-.266 1.662-.94 1.756-1.74.103-.874-.307-1.515-1.364-2.009-.915-.427-1.861-.786-2.783-1.199-2.257-1.01-3.266-2.822-2.877-5.132.362-2.154 2.047-3.765 4.365-3.888 1.483-.078 2.983.17 4.476.26zm-28.074 8.198c-.083 1.893-.44 3.715-1.588 5.266-1.723 2.328-4.156 3.131-6.934 2.943-4.402-.298-7.036-3.005-7.35-7.43-.117-1.635.026-3.24.635-4.767 1.306-3.274 3.89-4.553 7.252-4.573 4.892-.116 8.21 3.445 7.985 8.561zm6.518-8.275c.212.01.48.339.603.58 1.83 3.582 3.639 7.173 5.454 10.762.093.182.196.359.294.538l.166-.06V39.048h2.973v16.209c-1.19 0-2.36.047-3.522-.036-.265-.019-.575-.448-.734-.756-1.336-2.575-2.64-5.165-3.955-7.75-.576-1.134-1.155-2.267-1.879-3.373v11.9c-.98 0-1.876.04-2.762-.037-.159-.013-.394-.506-.396-.778-.023-4.583-.015-9.167-.015-13.75v-1.685c1.279 0 2.528-.028 3.773.027zm-30.788-.033c.486-.003.707.103.674.634-.04.62-.01 1.244-.01 1.927h-4.57c-.018.265-.044.472-.044.678-.005 4.06-.02 8.12.004 12.178.003.63-.137.915-.815.851-.542-.051-1.096-.037-1.641.005-.621.047-.85-.127-.843-.817.036-3.95-.004-7.9.03-11.85.007-.788-.109-1.133-1.022-1.048-1.186.11-2.39.027-3.636.027v-2.563h1.03c3.615-.004 7.23 0 10.843-.022zm-33.388-.001c2.948.149 5.82-.28 8.646.546 3.04.889 4.647 2.97 5.054 6.01.304 2.27.107 4.507-1.217 6.484-1.344 2.007-3.386 2.838-5.666 3.035-2.068.18-4.157.122-6.235.203-.68.026-.582-.405-.582-.813V38.985zm19.72.052v4.046c0 3.81-.014 7.621.012 11.432.004.588-.166.774-.743.742-.788-.043-1.58-.01-2.449-.01v-16.21h3.18zm-23.008.685c-.038.592-.009 1.188-.009 1.848h-6.326v3.918h5.684v2.598h-5.682v4.536h6.3v2.592h-9.53V38.993h4.047l2.382.008c.794.002 1.588-.002 2.381-.02.582-.015.789.166.753.741zm42.302-.688V55.19h-3.09V39.034h3.09zm10.714 2.21c-1.76-.026-3.306 1.018-3.98 2.776-.792 2.073-.776 4.179.018 6.243.585 1.518 1.719 2.48 3.353 2.67 1.737.2 3.19-.37 4.149-1.912.744-1.197.96-2.543 1.071-4.274-.14-.632-.277-1.613-.58-2.54-.583-1.788-2.21-2.936-4.03-2.963zm-46.43.369v10.985c3.222.363 5.03-.396 6.241-2.434 1.253-2.106 1.206-4.4-.198-6.442-1.44-2.093-3.66-2.34-6.043-2.11zM60.572 29v7.335h-7.34V29h7.34z"/>
</svg>
