<?xml version="1.0" encoding="UTF-8"?>
<svg width="182px" height="18px" viewBox="0 0 182 18" version="1.1" xmlns="http://www.w3.org/2000/svg" xmlns:xlink="http://www.w3.org/1999/xlink">
    <!-- Generator: Sketch 63.1 (92452) - https://sketch.com -->
    <title>MeilleurTaux</title>
    <desc>Created with Sketch.</desc>
    <g id="Symbols" stroke="none" stroke-width="1" fill="none" fill-rule="evenodd">
        <g id="01_logos-/-Clients-/-MeilleurTaux-/-Black" transform="translate(-1.000000, -41.000000)" fill="#000000">
            <path d="M58.4244143,51.4866453 C58.3712251,50.9178172 58.2745817,50.3875203 58.0072251,49.9033484 C57.7583507,49.4525047 57.3791135,49.1581766 56.8750158,49.0484891 C55.230667,48.6905984 54.3208081,50.0735047 54.3184096,51.4866453 L58.4244143,51.4866453 Z M67.4776445,46.5056094 L67.4776445,46.7576094 C67.4776445,48.9432031 67.4725654,51.1287969 67.4831468,53.3143906 C67.4846988,53.6375469 67.5295639,53.9677344 67.6071608,54.28175 C67.9017468,55.4732656 69.2972212,55.4947813 69.9164445,54.9020469 C70.3082383,54.5268594 70.471615,54.0554844 70.5407468,53.5465625 C70.5967577,53.1343906 70.627091,52.7156094 70.6290662,52.2996406 C70.6382367,50.4550625 70.6330166,48.610625 70.6330166,46.7660469 L70.6330166,46.5085625 L74.8468104,46.5085625 L74.8468104,58.6414063 L70.9081329,58.6414063 L70.9081329,56.7280625 C70.6646197,57.0131094 70.4579298,57.2549844 70.2513809,57.4967187 C68.815415,59.1774688 66.4992181,59.1589063 65.2572445,58.5777031 C64.291798,58.125875 63.7228011,57.3344375 63.4799933,56.3299531 C63.3325592,55.7197812 63.2335174,55.08275 63.2268864,54.4566875 C63.1993747,51.8606094 63.2153174,49.26425 63.2153174,46.6678906 L63.2153174,46.5056094 L67.4776445,46.5056094 Z M58.5553414,46.4815203 C60.5514158,46.9804578 61.7754716,48.2825047 62.3571662,50.2139891 C62.6937957,51.3316766 62.7413414,52.4857859 62.7225771,53.6441141 C62.7221538,53.6635203 62.7119957,53.6826453 62.7014143,53.7193484 L54.2629631,53.7193484 C54.317422,54.0055203 54.350436,54.2707391 54.4198499,54.5261141 C54.6275274,55.2897078 55.0490902,55.8893328 55.8483383,56.1032234 C56.733084,56.3398953 57.4962143,56.0888797 58.0705724,55.3721141 C58.2493274,55.1489422 58.4073429,55.0609109 58.7055972,55.0973328 C59.9381181,55.2472391 61.1748716,55.3626922 62.4100732,55.4915047 C62.4222065,55.4929109 62.4333522,55.5035984 62.4450623,55.5100672 C62.4480251,55.5234266 62.4573367,55.5398797 62.4525398,55.5491609 C61.8676003,56.6764109 61.11096,57.6486922 59.9554716,58.2495828 C59.2779802,58.6018484 58.5420794,58.7600516 57.7892484,58.8413328 C56.6604251,58.9631141 55.5332949,58.9593172 54.4108205,58.7637078 C52.5805212,58.4447703 51.385529,57.3342547 50.6146391,55.7131297 C50.0730127,54.5742078 49.9307988,53.3594891 49.9931584,52.1128484 C50.0457833,51.0639266 50.2723662,50.0597234 50.7924065,49.1387703 C51.7404995,47.4595672 53.1996034,46.5310203 55.1038313,46.2977234 C56.2620003,46.1558328 57.4203104,46.1978797 58.5553414,46.4815203 Z M28.9856321,46.5199672 C30.8180476,47.0211547 31.9756522,48.2365766 32.569198,50.0047953 C32.9708678,51.2013734 33.0323809,52.4433734 32.9938647,53.7268578 L24.5849003,53.7268578 C24.4979918,54.7923734 25.2248631,55.8947328 26.1819856,56.1187484 C27.0957949,56.3326391 27.8482026,56.0354984 28.4150833,55.2983422 C28.5496786,55.1234047 28.6681902,55.0650453 28.8959019,55.0914828 C30.1501499,55.2366078 31.4070786,55.3576859 32.6631608,55.4873422 C32.6836181,55.4894516 32.7035112,55.4960609 32.7272135,55.5014047 C32.7287654,55.5216547 32.7383592,55.5459828 32.7304584,55.5608891 C32.1498926,56.6553734 31.4168135,57.6147172 30.299136,58.2175766 C29.6079592,58.5903734 28.8518833,58.7561703 28.0776073,58.8402641 C26.9489251,58.9628891 25.8220771,58.9596547 24.6996026,58.7647484 C22.8163964,58.4379359 21.6108228,57.2841078 20.8472693,55.6078578 C20.3183406,54.4468578 20.1958786,53.2148422 20.2795422,51.9559672 C20.3540352,50.8350453 20.6418491,49.7775453 21.2568398,48.8246703 C22.2180538,47.3354516 23.6083081,46.5194047 25.3512755,46.3014359 C26.5720864,46.1488578 27.7933205,46.1938578 28.9856321,46.5199672 Z M109.788793,46.5813219 L109.788793,46.8814156 L109.788793,46.8814156 C109.791897,49.0961188 109.791756,51.3108219 109.802619,53.525525 C109.803748,53.768525 109.848754,54.016025 109.90674,54.2534 C110.213318,55.507775 111.623042,55.4969469 112.233518,54.8973219 C112.66143,54.4769938 112.799976,53.9461344 112.861066,53.3863063 C112.90452,52.9879156 112.920322,52.5848844 112.921732,52.1839625 C112.92794,50.4202438 112.924413,48.6566656 112.924413,46.8929469 L112.924413,46.5810406 L117.115351,46.5810406 L117.115351,58.6168531 L113.202633,58.6168531 L113.202633,56.7310719 C112.946563,57.0279313 112.741002,57.2795094 112.521473,57.5185719 C111.29897,58.8495875 109.771157,59.1620563 108.082508,58.7389156 C106.83348,58.426025 106.110418,57.5201188 105.817807,56.308775 C105.657534,55.6458688 105.574576,54.949775 105.566675,54.2674625 C105.538035,51.7658844 105.555388,49.2637438 105.555388,46.7618844 L105.555388,46.5813219 L109.788793,46.5813219 Z M88.9864327,41.9983953 L88.9864327,46.5629422 L91.276811,46.5629422 L91.276811,49.9604422 L89.0177536,49.9604422 C89.0080188,50.0331453 88.9941924,50.0870047 88.9943335,50.1408641 C88.9961676,51.6254422 88.9987071,53.1100203 89.0037862,54.5945984 C89.0042095,54.7086453 89.0174715,54.8239578 89.0370823,54.9365984 C89.1204637,55.4144422 89.4115226,55.6629266 89.8958684,55.6232703 C90.188056,55.5993641 90.4758699,55.5165359 90.7641071,55.4538172 C90.8821955,55.4280828 90.9964746,55.3851922 91.1434854,55.3407547 C91.2473242,56.4071141 91.3493288,57.4554734 91.455566,58.5464422 C90.9655769,58.6333484 90.4929412,58.7302391 90.016073,58.7991453 C89.1246963,58.9279578 88.229087,58.9484891 87.3354529,58.8229109 C86.0237831,58.6385516 85.1839025,57.8236297 84.963104,56.4580203 C84.8550327,55.7894891 84.8070637,55.1063328 84.7946482,54.4286609 C84.769535,53.0509578 84.7871707,51.6726922 84.7871707,50.2945672 L84.7871707,49.9598797 L83.5169596,49.9591407 C83.4888571,50.0305232 83.4607505,50.1019159 83.4326392,50.1733203 C83.1669757,50.0798047 82.9228981,49.9791172 82.6703555,49.9079609 C81.9742408,49.7113672 81.3778733,49.9449453 80.9922873,50.5538516 C80.6996764,51.0159453 80.5504082,51.5335859 80.4873431,52.0654297 C80.4015633,52.7890859 80.3307384,53.5180859 80.3169121,54.2461016 C80.2906702,55.6302734 80.3092935,57.0154297 80.3092935,58.4001641 L80.3092935,58.6400703 L76.0799803,58.6400703 L76.0799803,46.5044141 L80.0125912,46.5044141 L80.0125912,48.3700859 C80.0258532,48.3726172 80.0391152,48.3751484 80.0523772,48.3778203 C80.1106454,48.2632109 80.1652454,48.1467734 80.2276051,48.0345547 C80.3492206,47.8157422 80.4680144,47.5951016 80.6004935,47.3828984 C81.1891012,46.4404297 82.0614315,46.1160078 83.1315633,46.2612734 C83.4944534,46.3106011 83.8375594,46.4204755 84.1741634,46.5726144 L84.7871707,46.5746141 L84.7871707,45.9422234 C84.7871707,45.4746453 84.7795521,45.0069266 84.7938017,44.5397703 C84.7966234,44.4458328 84.8581366,44.3116766 84.9341816,44.2682234 C86.2458513,43.5178484 87.5641521,42.7788641 88.8811831,42.0377703 C88.9020637,42.0259578 88.9266126,42.0204734 88.9864327,41.9983953 Z M101.264548,46.4966516 C102.936126,46.7734016 103.947566,47.7684641 104.303524,49.4087141 C104.408774,49.8938703 104.470993,50.3973078 104.477059,50.8931516 C104.49794,52.5996359 104.493002,54.3065422 104.481715,56.0131672 C104.476072,56.8678859 104.565943,57.6981359 104.943769,58.4786047 C104.964368,58.5210734 104.970011,58.5705734 104.988493,58.6386359 L104.062269,58.6386359 C103.132093,58.6386359 102.201777,58.6339953 101.271602,58.6428547 C101.104839,58.6444016 101.008337,58.5965891 100.957687,58.4409172 C100.826901,58.0392922 100.692729,57.6386516 100.540498,57.1789484 C100.441456,57.2938391 100.345095,57.4247609 100.229828,57.5365578 C99.2210687,58.5146047 97.9742981,58.8886672 96.6059121,58.8895141 C96.0352222,58.8899328 95.4483074,58.8483078 94.896664,58.7130266 C93.3524857,58.3346047 92.3644656,56.9909328 92.4182191,55.3795109 C92.433033,54.9348547 92.5065384,54.4782453 92.6405695,54.0545422 C92.9032702,53.2238703 93.4879276,52.6371828 94.2998733,52.3469328 C95.093478,52.0631516 95.9160051,51.8543234 96.7350051,51.6488703 C97.8823105,51.3610109 99.0437245,51.1282766 100.139534,50.6625266 C100.320828,50.5854641 100.380931,50.4979953 100.366258,50.3001359 C100.3015,49.4257297 99.9091416,49.0399953 99.0272175,49.0421047 C98.7165478,49.0426672 98.4036206,49.0752922 98.0959136,49.1212766 C97.4882594,49.2121203 97.0889881,49.5694484 96.8669198,50.1332141 C96.8254408,50.2388234 96.7835384,50.3442922 96.7340175,50.4690266 C95.4083803,50.3154641 94.0876811,50.1624641 92.7477943,50.0072141 C92.9510981,48.7915109 93.4279664,47.7719797 94.5003555,47.0999328 C95.2023958,46.6599172 95.9882408,46.4904641 96.789464,46.3923078 C98.2842625,46.2090734 99.7799074,46.2508391 101.264548,46.4966516 Z M147.586454,46.5967766 C149.544153,46.9815266 150.745353,48.2029953 151.38447,50.0368859 C151.429899,50.1672453 151.465311,50.3008391 151.518783,50.4770422 C150.218259,50.6695578 148.940449,50.8588391 147.65347,51.0493859 C147.630896,50.9928547 147.609169,50.9496828 147.596189,50.9041203 C147.394014,50.2005734 146.967372,49.7216047 146.226533,49.5774641 C145.396387,49.4160266 144.676853,49.6075578 144.120977,50.2774953 C143.763043,50.7089328 143.599949,51.2184172 143.518401,51.7616516 C143.406803,52.5066828 143.393541,53.2515734 143.592753,53.9824016 C143.832457,54.8620109 144.352498,55.4951047 145.290715,55.6686359 C146.319649,55.8589016 147.207076,55.3664328 147.63527,54.4068078 C147.711173,54.2365109 147.773392,54.0600266 147.847321,53.8728547 C149.142625,54.0323234 150.429463,54.1906672 151.717854,54.3492922 C151.297138,56.4073391 149.869778,58.1105891 147.801891,58.5691672 C146.252211,58.9128547 144.681791,58.8931672 143.162443,58.4454172 C141.006801,57.8100734 139.810539,56.2755734 139.452606,54.1022141 C139.23082,52.7551672 139.246339,51.3899797 139.730403,50.0946828 C140.481259,48.0857141 141.906502,46.8375266 144.076111,46.5212609 C145.249094,46.3501203 146.421936,46.3679797 147.586454,46.5967766 Z M160.345797,46.7945516 C162.29362,47.4935984 163.410028,48.9305047 163.875468,50.8955984 C164.004843,51.4416453 164.029251,52.0124422 164.10191,52.5719891 C164.055352,53.9011766 163.777414,55.1500672 163.030367,56.2650828 C162.014695,57.7811609 160.557707,58.5493953 158.764372,58.7282703 C157.673078,58.8371141 156.586721,58.7932391 155.550167,58.4131297 C153.449126,57.6427859 152.246656,56.0952078 151.849924,53.9339422 C151.577629,52.4509109 151.698822,50.9826453 152.384637,49.6139422 C153.310862,47.7651453 154.82513,46.7142547 156.887233,46.4735047 C158.060074,46.3365359 159.225862,46.3926453 160.345797,46.7945516 Z M135.658626,52.3563828 C137.332743,52.4206484 138.766593,53.7962422 138.720035,55.6308359 C138.67644,57.3443516 137.280824,58.7425859 135.507664,58.7327938 C133.626292,58.7393516 132.269334,57.1126016 132.323793,55.4305859 C132.371903,53.9460078 133.637015,52.2788984 135.658626,52.3563828 Z M43.5442636,41.907875 L43.5442636,58.6477344 L39.342462,58.6477344 L39.342462,41.907875 L43.5442636,41.907875 Z M122.768765,46.5617916 C122.953728,46.5608187 123.044587,46.6226937 123.125146,46.7806156 C123.620497,47.7519125 124.125159,48.7185688 124.627422,49.6864906 C124.660718,49.7506156 124.698952,49.8122094 124.749743,49.9009437 C124.873757,49.7012563 124.987049,49.5225219 125.096672,49.3415375 C125.615019,48.4854125 126.136188,47.6306937 126.646493,46.7696469 C126.737493,46.616225 126.8371,46.5613812 127.01656,46.5623656 C128.383112,46.5705219 129.749664,46.5665844 131.116357,46.5672875 C131.195224,46.5672875 131.274231,46.5738969 131.388652,46.5789594 C131.141188,46.9630062 130.912489,47.3197719 130.681956,47.6754125 C129.717356,49.1625219 128.755013,50.6511781 127.782935,52.1335062 C127.688973,52.2766625 127.701529,52.3684906 127.786039,52.5015219 C129.025756,54.4555062 130.260816,56.4124438 131.496582,58.3689594 C131.543422,58.4432094 131.586735,58.5197094 131.648672,58.6236313 C131.541729,58.6298187 131.464132,58.637975 131.386535,58.6381156 C129.921083,58.6388187 128.455771,58.6350219 126.990459,58.6430531 C126.806907,58.6441625 126.719152,58.5846781 126.637182,58.4231 C126.062118,57.2898031 125.475204,56.1625531 124.891252,55.0336156 C124.850196,54.9541625 124.803214,54.8776625 124.744946,54.7751469 C124.690769,54.8585375 124.64661,54.9229438 124.606118,54.9894594 C123.902103,56.1456781 123.200768,57.3034437 122.490262,58.455725 C122.440036,58.5372875 122.324205,58.6301 122.238284,58.6308031 C120.814169,58.6414906 119.389914,58.6382562 117.965658,58.6375531 C117.935748,58.6375531 117.905838,58.6291156 117.851379,58.6208187 C117.909506,58.5212563 117.955359,58.4373031 118.006149,58.3564437 C119.222728,56.4165219 120.43719,54.475475 121.661104,52.5403344 C121.770587,52.367225 121.762404,52.2510688 121.652921,52.0852719 C120.485582,50.3186 119.326566,48.546725 118.165576,46.7761156 C118.130163,46.7222563 118.097855,46.6662875 118.046218,46.5823344 C118.145965,46.5761469 118.222292,46.5674281 118.298619,46.5674281 C119.788621,46.5665844 121.278763,46.5706625 122.768765,46.5617916 Z M37.9214794,46.5133578 L37.9214794,58.6415609 L33.7041584,58.6415609 L33.7041584,46.5164516 C35.1124716,47.1430766 36.512884,47.1828734 37.9214794,46.5133578 Z M49.2007953,41.901125 L49.2007953,58.6404219 L45.0015333,58.6404219 L45.0015333,41.901125 L49.2007953,41.901125 Z M17.3568479,46.4761625 C18.536744,46.8471313 19.1817859,47.7775063 19.4436402,48.9439906 C19.587265,49.5836938 19.6690944,50.2498344 19.6760076,50.9051469 C19.7021084,53.4106625 19.6864479,55.9167406 19.6864479,58.4226781 L19.6864479,58.6406469 L15.4632014,58.6406469 L15.4632014,58.3683969 C15.4632014,56.2313187 15.465882,54.0943812 15.4600975,51.9574437 C15.459251,51.6597406 15.4418975,51.3575375 15.3882851,51.0653188 C15.260744,50.3702094 14.648575,49.8500375 14.0400743,49.8911 C13.3735874,49.9361 12.9207037,50.279225 12.6666091,50.8860219 C12.457944,51.383975 12.4276107,51.9139906 12.4261998,52.4431625 C12.4208386,54.4200687 12.4240836,56.396975 12.4240836,58.3737406 L12.4240836,58.6382562 L8.19745101,58.6382562 L8.19745101,58.4049594 C8.19745101,56.3027563 8.19928512,54.2006937 8.19547581,52.0984906 C8.19491147,51.7652094 8.18813938,51.4296781 8.14990527,51.0990688 C8.07992698,50.4922719 7.6870045,50.031725 7.16428357,49.9027719 C6.61644946,49.7674906 6.01486186,50.0086625 5.66327736,50.5045062 C5.40509132,50.868725 5.31112853,51.2890531 5.26033783,51.7197875 C5.23028667,51.9747406 5.21815333,52.2332094 5.21773008,52.4901313 L5.21554326,55.4345902 L5.21554326,55.4345902 L5.21589597,58.6399438 L0.999985891,58.6399438 L0.999985891,46.5097719 L4.92145101,46.5097719 L4.92145101,48.1884125 L4.96800915,48.2066937 C5.04109132,48.1189437 5.11346806,48.0304906 5.18753783,47.943725 C5.78489287,47.2451 6.45504791,46.6450531 7.37224326,46.4007875 C8.25952853,46.1643969 9.15527891,46.1551156 10.0418588,46.3927719 C10.9459332,46.6349281 11.5236774,47.2692875 11.9566681,48.0593188 C11.9899642,48.1200688 12.0215673,48.1816625 12.0588138,48.2521156 C12.3191161,47.9809906 12.568696,47.7111313 12.8287161,47.4516781 C14.1265595,46.1568031 15.6866805,45.9512094 17.3568479,46.4761625 Z M180.712754,46.692275 C181.88094,47.0979781 182.464045,48.0666031 182.695566,49.2311188 C182.814783,49.8303219 182.880529,50.4493531 182.886031,51.0602281 C182.907194,53.431025 182.894638,55.8021031 182.894638,58.1731812 L182.894638,58.4843844 L178.759851,58.4843844 L178.759851,58.1948375 C178.759851,56.0289312 178.76874,53.8628844 178.75054,51.6971188 C178.747718,51.3629938 178.677599,51.003275 178.536937,50.7026187 C178.328554,50.2575406 177.951292,49.9782594 177.419259,49.9879625 C176.839681,49.9983687 176.413039,50.2668219 176.139757,50.7674469 C175.889189,51.226025 175.831768,51.7314312 175.831486,52.2445719 C175.830357,54.2217594 175.831062,56.1989469 175.831062,58.1761344 L175.831062,58.48565 L171.696276,58.48565 L171.696276,58.1917438 C171.696276,56.0258375 171.701638,53.8599313 171.69021,51.6941656 C171.688658,51.3878844 171.658183,51.0620562 171.550394,50.7798219 C171.217574,49.9090719 170.212624,49.6837906 169.502259,50.2918531 C169.005921,50.7165406 168.853831,51.2950719 168.83281,51.9027125 C168.798103,52.9104313 168.803746,53.9196969 168.799513,54.9284 C168.794858,56.0113531 168.798385,57.0943063 168.798385,58.1772594 L168.798385,58.4860719 L164.697741,58.4860719 L164.697741,46.6891812 L168.511982,46.6891812 L168.511982,48.3015875 C168.529053,48.3098844 168.546124,48.3180406 168.563196,48.3261969 C168.617796,48.2629156 168.673101,48.2003375 168.726572,48.1363531 C169.303611,47.4453219 169.954296,46.8501969 170.84652,46.5959469 C171.693737,46.3544937 172.552382,46.3490094 173.408487,46.5489781 C174.11476,46.7140719 174.649191,47.1346812 175.059467,47.718275 C175.205349,47.9256969 175.33162,48.1466188 175.418811,48.285275 C175.721016,48.0199156 176.043113,47.7431656 176.358862,47.4592437 C177.650075,46.2981031 179.145579,46.1480562 180.712754,46.692275 Z M100.364,52.9285578 C99.6753633,53.1465266 99.0139555,53.3403078 98.3642578,53.5672766 C97.9552516,53.7102922 97.5400377,53.8635734 97.1705353,54.0836516 C96.7134191,54.3560422 96.5431291,54.8091359 96.6332826,55.3361984 C96.7237183,55.8659328 97.0500485,56.1817766 97.591816,56.2952609 C98.6516485,56.5177297 99.8908005,55.7963234 100.21699,54.7655422 C100.406326,54.1669016 100.370208,53.5511047 100.364,52.9285578 Z M157.538341,49.5702078 C156.832209,49.7229266 156.374247,50.1905047 156.141879,50.8375203 C155.715237,52.0252391 155.728076,53.2354578 156.143995,54.4255672 C156.331639,54.9630359 156.70495,55.3714109 157.251233,55.5815047 C158.270574,55.9734266 159.342681,55.4210516 159.676771,54.2880359 C159.834786,53.7518328 159.877676,53.1818797 159.972767,52.6272547 L159.922823,52.6176922 L159.922823,52.6176922 C159.910408,52.3805984 159.907868,52.1425203 159.883602,51.9066922 C159.83013,51.3898953 159.723893,50.8868797 159.442287,50.4373016 C158.996175,49.7250359 158.305986,49.4041297 157.538341,49.5702078 Z M25.4391716,49.4264047 C24.82926,49.9748422 24.6483887,50.6925922 24.5699453,51.4779828 L28.6879422,51.4779828 C28.6869546,51.0631391 28.5485499,50.4756078 28.3810817,50.0863578 C27.8197034,48.7814984 26.1951065,48.7467641 25.4391716,49.4264047 Z M35.853,41.0000984 C37.1031566,41.0171141 38.081724,41.9948797 38.0956915,43.2464422 C38.1095178,44.4892859 37.021045,45.5293484 35.8477798,45.4806922 C34.6453101,45.5276609 33.5857597,44.4590516 33.5908206,43.2309734 C33.5957767,42.0722234 34.5953659,40.9832234 35.853,41.0000984 Z" id="MeilleurTaux"></path>
        </g>
    </g>
</svg>