<svg xmlns="http://www.w3.org/2000/svg" width="184" height="100" viewBox="0 0 184 100">
    <path fill-rule="evenodd" d="M47.27 50.913c-.062-1.136-.64-1.695-1.515-1.624-.688.056-1.273.85-1.17 1.624h2.686zm65.92-3.406c.895.004 1.804.01 2.683.157 1.245.21 1.938 1.114 1.972 2.383.03 1.087.045 2.174.063 3.262.014.792-.042 1.591.348 2.393h-.454c-.648 0-1.296-.008-1.944.005-.185.003-.274-.061-.32-.229-.063-.231-.134-.461-.202-.692-.018.002-.044-.002-.054.008-.629.655-1.392 1.015-2.308 1.047-.037 0-.073.027-.11.042h-.608l-.528-.108c-.088-.02-.175-.042-.26-.068-.905-.277-1.447-1.013-1.469-1.95-.013-.568-.025-1.126.376-1.601.301-.357.658-.622 1.11-.748 1.017-.284 2.036-.563 3.054-.845.068-.018.14-.033.2-.065.165-.089.433-.064.431-.345-.002-.306-.09-.58-.384-.736-.617-.327-1.575-.037-1.877.582-.091.186-.192.246-.398.214-.388-.06-.782-.088-1.173-.134-.379-.045-.757-.096-1.184-.15.182-.721.409-1.375 1.039-1.82.6-.424 1.284-.605 1.996-.602zm-65.66.127c1.442.469 2.24 1.491 2.485 2.947.1.6.108 1.214.16 1.854h-5.628c.05.581.227 1.07.687 1.41.439.325 1.237.24 1.667-.22.242-.258.476-.333.812-.287.748.102 1.5.173 2.297.261-.647 1.082-1.404 1.959-2.708 2.163-.307.049-.617.081-.926.12h-.547c-.33-.026-.663-.042-.993-.081-1.449-.176-2.37-1.021-2.853-2.338-.59-1.61-.48-3.174.565-4.58.67-.9 1.606-1.397 2.754-1.41.746-.01 1.5-.075 2.228.161zm31.138.06c.988.233 1.65 1.01 1.736 2.049.086 1.052.09 2.11.127 3.166.023.654.026 1.309.069 1.961.017.262.116.519.184.808-.434 0-.846.003-1.258-.002-.354-.003-.709-.032-1.062-.017-.216.009-.31-.072-.355-.267-.042-.174-.104-.344-.17-.562-.108.062-.208.1-.285.167-.583.504-1.25.804-2.026.847-.027.002-.053.026-.08.039h-.668c-.169-.026-.34-.043-.506-.079-1.869-.403-2.286-2.434-1.38-3.668.195-.267.524-.497.84-.605.883-.301 1.793-.527 2.69-.79.358-.104.709-.228 1.064-.34.166-.051.214-.15.185-.32-.093-.548-.246-.722-.802-.763-.759-.056-1.215.126-1.517.739-.038.076-.18.154-.267.146-.804-.071-1.605-.162-2.406-.246.086-1.153.902-2.08 2.127-2.33 1.251-.256 2.518-.227 3.76.066zm62.013-.011c1.417.376 2.215 1.348 2.499 2.74.131.645.161 1.31.241 2.004h-5.547c-.034.823.465 1.474 1.214 1.615.353.066.705-.01.925-.263.361-.412.769-.463 1.268-.381.568.093 1.144.13 1.716.196.047.005.09.034.164.064-.462.947-1.1 1.682-2.134 1.973-.461.13-.948.17-1.423.252h-.547c-.4-.046-.804-.07-1.199-.14-1.029-.187-1.764-.799-2.237-1.694-.776-1.47-.827-3.003-.119-4.498.585-1.234 1.625-1.9 3.015-2.023.736-.066 1.457-.033 2.164.155zm-41.56-.042c.008.117.017.195.018.273.019 1.258.033 2.517.056 3.776.006.352.028.704.059 1.054.04.455.464.777.92.713.548-.077.945-.521.96-1.074l.12-4.731h2.713v8.029h-2.531v-1.192l-.102-.062c-.024.055-.037.118-.073.163-.545.681-1.183 1.21-2.112 1.255-.028.002-.054.025-.081.038h-.486c-.126-.027-.252-.052-.377-.082-.986-.232-1.722-1.095-1.744-2.132-.04-1.973-.046-3.948-.066-5.922 0-.038.009-.076.012-.106h2.715zm-30.686-.125c.55.038 1.12.068 1.638.237 1.396.456 2.058 1.549 2.306 2.917.103.568.107 1.153.158 1.762h-5.535c.006.895.47 1.481 1.259 1.604.437.068.806-.099 1.079-.422.23-.271.483-.292.804-.246.63.09 1.263.145 1.895.216.077.009.154.024.305.049-.166.266-.298.495-.446.713-.663.974-1.612 1.421-2.77 1.482-.13.007-.258.036-.387.055h-.547c-.42-.045-.844-.068-1.26-.14-.892-.156-1.554-.675-2.02-1.417-.94-1.5-1.052-3.104-.316-4.69.738-1.59 2.104-2.239 3.837-2.12zm17.27.011c1.038.084 1.765.625 2.228 1.538.04.08.083.161.114.246.03.084.045.173.078.303-.493.057-.953.115-1.413.161-.312.031-.625.041-.937.07-.16.014-.245-.041-.332-.183-.286-.464-.954-.679-1.47-.506-.262.088-.39.255-.407.533-.016.283.124.452.373.509.598.135 1.205.232 1.804.368.4.09.81.182 1.186.34 1.004.42 1.453 1.225 1.5 2.28.003.07.009.14.015.21 0 .009.01.017.033.049l1.72-.189c.1-.011.202-.016.3-.036.371-.075.6.005.798.394.329.648 1.39.767 1.94.284.345-.301.264-.855-.177-.984-.83-.243-1.672-.447-2.512-.656-.687-.17-1.247-.507-1.6-1.138-.59-1.05-.322-2.505.816-3.127.423-.231.916-.432 1.388-.46.861-.052 1.744-.045 2.594.086.944.146 1.687.971 1.96 1.967-.439.062-.87.133-1.304.182-.352.04-.706.051-1.059.078-.15.011-.238-.01-.316-.185-.252-.56-1.255-.75-1.717-.347-.305.267-.274.697.107.823.493.164 1.015.243 1.523.363.48.113.965.207 1.434.352 1.604.497 2.17 2.5 1 3.899-.59.705-1.395 1.03-2.294 1.063-.776.029-1.565.04-2.331-.064-1.167-.16-1.953-.852-2.354-1.993-.042.055-.09.094-.107.143-.374 1.037-1.168 1.636-2.199 1.826-1.122.207-2.282.232-3.397-.093-1.06-.307-1.688-1.049-1.939-2.165.525-.063 1.03-.128 1.538-.183.281-.03.566-.032.846-.067.238-.03.371.05.499.262.429.716 1.193.916 1.867.522.234-.137.388-.313.37-.605-.016-.302-.205-.457-.464-.525-.75-.195-1.507-.364-2.257-.56-.62-.162-1.215-.372-1.62-.924-.863-1.18-.603-3.12 1.347-3.727.928-.29 1.88-.211 2.827-.134zm-27.44.08v8.075h-2.64v-1.276c-.12.142-.182.22-.249.295-.435.487-.907.968-1.572 1.07-.945.143-1.907.21-2.63-.637-.432-.506-.644-1.102-.65-1.746-.021-1.913-.008-3.827-.008-5.764h2.85v.315c0 1.37-.001 2.74.003 4.11 0 .19.016.383.046.57.08.512.335.77.78.813.435.042.923-.269 1.042-.716.082-.307.122-.633.126-.952l.008-1.3v-2.857h2.895zm102.45.117c1.38.603 2.157 1.683 2.343 3.161.122.97.049 1.929-.416 2.819-.703 1.343-1.807 2.073-3.34 2.12-.675.02-1.35.032-2.006-.2-1.359-.48-2.638-1.989-2.566-3.6.006-.131 0-.263 0-.428-.083-1.287.384-2.39 1.37-3.266.665-.59 1.475-.858 2.353-.91.771-.045 1.546-.008 2.261.304zm-133.228-.136c1.576.348 2.423 1.441 2.714 2.97.114.597.118 1.215.176 1.863h-5.604c-.065.534.332 1.289.765 1.497.458.22 1.191.12 1.543-.285.247-.285.51-.333.847-.29.731.09 1.464.167 2.269.257-.745 1.217-1.633 2.15-3.119 2.214-.725.032-1.46.027-2.181-.044-1.045-.101-1.812-.688-2.364-1.555-.986-1.547-.925-3.873.163-5.295.69-.902 1.612-1.43 2.77-1.444.674-.007 1.37-.031 2.02.112zm124.805.073c1.164.383 1.816 1.252 2.199 2.361.015.044.002.097.002.165-.802.125-1.596.257-2.394.366-.091.012-.243-.082-.294-.168-.406-.703-.855-.926-1.632-.781-.506.094-1.055.74-1.08 1.357-.021.568-.032 1.15.068 1.705.098.54.463.952 1.052 1.032.798.11 1.296-.118 1.59-.755.154-.332.309-.465.692-.396.675.12 1.36.18 2.04.268.038.005.072.034.105.051-.363 1.908-2.041 2.983-3.388 2.961-.827-.013-1.666.076-2.468-.186-1.406-.458-2.233-1.448-2.492-2.878-.184-1.018-.177-2.044.246-3.022.568-1.317 1.544-2.102 2.996-2.272.933-.108 1.858-.104 2.758.192zm-19.98-.023c1.393.261 2.105 1.272 2.557 2.57-.327.06-.63.122-.933.17-.479.073-.961.123-1.437.212-.174.032-.242-.024-.294-.163-.206-.559-.623-.832-1.207-.826-.61.006-1.083.288-1.31.855-.314.78-.341 1.588-.062 2.386.212.608.63.916 1.174.924.746.012 1.202-.257 1.454-.889.089-.222.196-.306.447-.274.76.097 1.523.167 2.33.252-.268.887-.63 1.663-1.343 2.215-.638.493-1.363.792-2.187.754-.745-.034-1.52.018-2.226-.173-1.387-.376-2.206-1.388-2.479-2.77-.18-.909-.164-1.846.095-2.751.426-1.487 1.702-2.522 3.25-2.59.723-.03 1.466-.035 2.172.098zm12.516 5.459c.79.002 1.384.587 1.383 1.363 0 .794-.599 1.37-1.415 1.363-.749-.006-1.375-.654-1.36-1.406.015-.695.677-1.323 1.392-1.32zM19.94 47.58c.952.352 1.394 1.127 1.439 2.052.097 1.99.096 3.985.135 5.978 0 .018-.012.036-.024.073h-2.889v-.335l-.002-4.17c0-.152.002-.305-.02-.453-.078-.497-.29-.742-.682-.807-.481-.08-.83.077-1.045.526-.104.217-.178.471-.181.71-.02 1.39-.015 2.78-.019 4.17v.353h-2.832c-.004-.097-.013-.204-.013-.31-.005-1.28-.006-2.56-.015-3.839-.002-.281-.027-.563-.05-.843-.03-.381-.256-.7-.563-.78-.386-.1-.723-.002-.985.3-.275.316-.327.708-.33 1.104-.008 1.34-.006 2.68-.009 4.02v.373H9V47.6h2.66v1.053c.217-.193.386-.339.548-.491.818-.765 1.787-.877 2.825-.622.647.158 1.027.643 1.364 1.225.117-.134.224-.26.333-.382.793-.892 2.085-1.219 3.21-.803zm44.685.159c.076.037.154.223.125.3-.227.589-.483 1.167-.722 1.752-.074.18-.176.244-.369.17-.12-.046-.254-.06-.382-.086-.41-.08-.678.033-.903.384-.326.51-.419 1.082-.437 1.669-.033 1.117-.05 2.235-.076 3.352-.003.13-.014.259-.022.413h-2.798v-8.071h2.637v1.108l.06.024c.059-.105.12-.209.176-.315.642-1.213 1.698-1.193 2.711-.7zm60.067-.116c.861.284 1.421.964 1.463 1.865.094 2.04.095 4.085.133 6.128 0 .018-.013.036-.026.07h-2.755v-.331c-.004-1.199-.005-2.397-.016-3.596-.003-.341-.018-.685-.06-1.024-.043-.358-.218-.652-.572-.79-.34-.131-.661-.058-.93.178-.267.234-.434.52-.438.892-.017 1.43-.042 2.86-.064 4.289-.002.119 0 .238 0 .388h-2.756v-8.017h2.532l.073 1.155c.24-.25.425-.472.64-.66.815-.715 1.78-.875 2.776-.547zm-87.333-3.08v11.145h-2.818V44.542h2.818zm3.768-.011v11.156H38.31V44.532h2.818zm-10.329 3.084c.946.354 1.854.385 2.823.017.106 2.71.023 5.37.058 8.054H30.8v-8.071zm143.942.074c.793.42 1.166 1.154 1.189 1.981.054 1.993.017 3.988.017 6.017h-2.795v-.323c0-1.37 0-2.74-.003-4.11 0-.19-.015-.383-.045-.57-.082-.511-.352-.793-.773-.826-.418-.033-.886.283-1 .726-.077.298-.113.614-.116.922-.013 1.29-.007 2.58-.008 3.869v.31h-2.85v-.329c-.003-1.098-.001-2.196-.012-3.294-.005-.493-.03-.987-.058-1.479-.026-.463-.585-.846-1.035-.722-.402.112-.772.52-.782.942-.033 1.41-.046 2.819-.065 4.228-.003.21 0 .42 0 .65h-2.833v-8.123h2.585v1.171c.691-.762 1.405-1.32 2.433-1.333 1.038-.014 1.824.369 2.317 1.306.259-.236.485-.452.72-.656.86-.743 2.11-.89 3.114-.357zm-64.257.19l-.849 2.143c-.31-.045-.585-.096-.863-.122-.314-.029-.537.122-.699.387-.303.496-.414 1.046-.43 1.612-.034 1.177-.046 2.355-.067 3.533v.252h-2.762v-8.008h2.533l.071 1.192c.331-.573.59-1.159 1.24-1.323.63-.16 1.217.016 1.826.334zm-32.746 3.946c-.71.28-1.4.523-2.059.834-.176.083-.334.367-.358.576-.08.695.467 1.103 1.185.93.985-.238 1.485-1.13 1.232-2.34zm37.431.023c-.66.247-1.297.46-1.913.724-.493.212-.643.62-.469 1.088.147.395.571.596 1.045.508 1.098-.205 1.525-1.182 1.337-2.32zm42.729-1.758c-.501.733-.391 1.556-.316 2.363.022.237.147.477.269.69.234.406.61.622 1.08.602.517-.022.92-.276 1.089-.772.143-.42.213-.868.315-1.303l-.046-.018c-.029-.259-.031-.524-.093-.775-.064-.259-.15-.525-.288-.75-.477-.778-1.495-.79-2.01-.037zm-18.827-.796c-.713.033-1.3.84-1.204 1.675h2.707c.003-1.085-.574-1.72-1.503-1.675zM24.753 50.687c-.01.066.127.222.198.223.836.016 1.671.01 2.56.01-.074-.283-.122-.537-.207-.778-.167-.467-.482-.785-.998-.848-.965-.116-1.425.591-1.553 1.393zm43.573-1.392c-.744.015-1.347.753-1.316 1.617h2.643c-.008-.977-.558-1.633-1.327-1.617zM32.24 44c.968.034 1.506.551 1.496 1.466-.01.836-.707 1.497-1.55 1.47-.651-.022-1.268-.51-1.416-1.12-.16-.658.146-1.413.739-1.698.213-.102.486-.082.731-.118z"/>
</svg>
