<svg xmlns="http://www.w3.org/2000/svg" width="184" height="100" viewBox="0 0 184 100">
    <path fill-rule="evenodd" d="M170.4 42.088c.625.434 1.153 1.005 1.734 1.52v-2.15h4.834V66.89h-5.071v-8.974c-.165.1-.244.124-.287.178-2.487 3.068-7.068 3.616-10.242 1.22-2.16-1.631-3.096-3.92-3.396-6.512-.344-2.965.028-5.809 1.675-8.382 2.251-3.516 7.416-4.647 10.754-2.33zm-77.6-.542c2.468.837 3.536 2.381 3.55 5 .017 3.493-.012 6.987.042 10.48.017 1.082.237 2.162.373 3.322-1.522 0-3.09.012-4.658-.018-.164-.003-.409-.222-.47-.394-.143-.4-.197-.833-.305-1.337-1.119 1.042-2.393 1.704-3.84 1.988-1.746.342-3.484.428-5.217-.145-2.884-.953-3.903-3.38-3.646-6.024.243-2.495 1.78-3.928 4.094-4.478 1.809-.43 3.675-.616 5.513-.928.527-.09 1.056-.206 1.562-.377.95-.32 1.397-.91 1.383-1.726-.021-1.182-.5-2.06-1.458-2.254-.931-.188-1.923-.297-2.859-.186-1.57.187-2.25 1.007-2.528 2.693h-5.133c.104-1.656.663-3.065 1.896-4.172 1.263-1.134 2.798-1.663 4.436-1.913 2.452-.374 4.896-.336 7.266.469zm40.122.1c2.425.8 3.378 2.356 3.383 4.916.005 3.018-.034 6.037.017 9.055.025 1.54.205 3.078.32 4.692h-2.84c-.623-.001-1.377.206-1.832-.073-.404-.248-.478-1.037-.715-1.63-.952.909-2.107 1.554-3.424 1.864-2.002.471-4.002.588-5.959-.215-2.202-.904-3.274-2.692-3.234-5.36.034-2.26 1.166-3.99 3.389-4.672 1.672-.512 3.442-.699 5.167-1.038l1.113-.21c.556-.106 1.11-.22 1.652-.375.764-.22 1.237-.781 1.235-1.625-.001-.926-.19-1.819-1.13-2.221-1.424-.61-2.895-.614-4.318.018-.806.357-1.178 1.088-1.386 1.922-.047.186-.23.482-.356.484-1.564.034-3.13.022-4.77.022.164-2.51 1.316-4.275 3.48-5.228 3.334-1.47 6.798-1.45 10.208-.326zm-29.435-7.517c.03.254.083.508.084.762.005 2.608.003 5.216.002 7.824v.978c.146-.083.227-.106.272-.159 3.595-4.213 10.204-3.275 12.464 1.854 1.606 3.644 1.643 7.412-.076 11.026-2.352 4.947-7.544 5.126-10.854 3.343-.764-.412-1.348-1.16-2.028-1.764v2.168h-4.92v-.73c0-8.169-.001-16.337.007-24.506 0-.265.093-.53.143-.796h4.906zm-54.831 6.765c1.945.086 3.772.595 5.375 1.754 2.383 1.724 3.444 4.163 3.733 7.007.041.405.006.818.006 1.228.035 2.703-.656 5.168-2.597 7.137-2.365 2.399-5.33 3-8.547 2.677-3.08-.309-5.532-1.709-7.053-4.468-2.13-3.865-1.72-9.886 1.677-12.934 2.114-1.897 4.647-2.523 7.406-2.401zm-16.005.384c2.428.672 4.008 2.6 4.068 5.15.107 4.526.086 9.055.116 13.583.001.081-.029.163-.054.293h-5.103V59.28l-.011-5.24c-.006-1.747-.015-3.494-.04-5.24-.01-.764-.161-1.542-.364-2.282-.205-.747-.766-1.242-1.528-1.428-2.574-.629-4.448.432-4.583 3.097-.186 3.678-.107 7.37-.141 11.055-.003.317 0 .633 0 .986h-5.19v-1.061c-.003-3.473.003-6.945-.014-10.418-.003-.578-.04-1.17-.165-1.733-.345-1.535-1.781-2.326-3.521-1.991-1.583.304-2.694 1.569-2.88 3.3-.05.47-.071.945-.072 1.418l-.004 4.917v5.592H8V41.436h4.853v2.609c1.55-2.055 3.438-3.113 5.829-3.125 2.37-.012 4.342.769 5.533 3.078 2.283-3.044 5.256-3.6 8.436-2.72zm38.276-.353c.722.065 1.456.196 2.14.428 2.267.772 3.243 2.566 3.553 4.796.14 1 .182 2.018.19 3.029.024 3.493.013 6.987.014 10.48 0 .191-.018.381-.029.606H71.6v-.773c-.001-3.45.037-6.902-.03-10.351-.018-.921-.284-1.86-.573-2.747-.229-.704-.84-1.136-1.575-1.307-1.423-.329-2.788-.274-3.923.792-.744.699-1.004 1.642-1.115 2.615-.088.77-.129 1.547-.133 2.321-.013 2.955-.002 5.909-.003 8.864 0 .167-.02.335-.035.567h-5.085V41.438h4.886v2.57c.185-.168.284-.233.35-.322 1.644-2.222 3.9-3.002 6.563-2.76zm79.706.053c3.334.365 5.044 2.065 5.463 5.406.104.832.147 1.676.15 2.514.017 3.578.01 7.157.008 10.735 0 .19-.02.38-.034.624h-5.057v-.777c0-3.234.015-6.467-.012-9.7-.007-.814-.083-1.64-.245-2.436-.332-1.63-1.354-2.426-3.006-2.453-2.366-.039-3.654 1.032-4.017 3.383-.098.636-.14 1.286-.144 1.93-.014 3.083-.006 6.165-.006 9.248v.73h-5.05v-18.72h4.778v2.62c.172-.127.253-.16.294-.22 1.687-2.415 4.068-3.192 6.878-2.884zM91.206 51.295c-1.189.24-2.3.435-3.395.697-.973.234-1.976.438-2.88.847-1.047.475-1.194 1.501-1.072 2.549.103.884.618 1.482 1.456 1.706 1.38.37 2.799.452 4.053-.335.58-.365 1.095-.974 1.417-1.589.65-1.248.407-2.639.421-3.875zm40.084-.042c-1.706.332-3.34.626-4.96.98-.514.113-1.028.33-1.48.601-1 .602-1.195 1.574-1.02 2.646.161.995.815 1.583 1.761 1.722.817.12 1.674.158 2.49.053 1.618-.208 2.684-1.177 2.976-2.788.198-1.085.168-2.212.233-3.214zm-26.557-5.012c-1.04 1.343-1.304 2.922-1.326 4.566l-.176.05c.301 1.2.486 2.447.932 3.59.55 1.41 1.645 2.292 3.22 2.44 1.587.148 2.88-.378 3.797-1.709 1.56-2.268 1.522-6.552-.063-8.795-1.543-2.183-4.743-2.26-6.384-.142zm62.798-1.503c-1.804.008-3.129.827-3.857 2.433-1.086 2.395-1.043 4.874-.052 7.285.701 1.709 2.075 2.5 3.941 2.45 1.883-.05 3.235-.912 3.872-2.668.384-1.055.512-2.203.774-3.396-.305-1.216-.489-2.487-.947-3.65-.64-1.627-1.93-2.462-3.73-2.454zM44.126 47.243c-.996 2.39-.959 4.843.018 7.235.64 1.568 1.922 2.33 3.592 2.405 1.71.076 3.13-.48 4.022-2.037.706-1.232.906-2.586.889-3.985l.167-.038c-.265-1.166-.433-2.366-.82-3.49-.562-1.633-2.008-2.536-3.732-2.576-1.911-.045-3.39.696-4.136 2.486z"/>
</svg>
