<svg xmlns="http://www.w3.org/2000/svg" width="184" height="100" viewBox="0 0 184 100">
    <path fill-rule="evenodd" d="M16.793 35c8.171 0 14.8 6.622 14.8 14.79 0 8.17-6.629 14.795-14.8 14.795C8.623 64.585 2 57.96 2 49.79 2 41.622 8.623 35 16.793 35zm35.729 16.511v6.185c0 2.078 1.076 3.037 2.385 3.037 1.399 0 2.44-.96 2.44-3.037v-6.185h1.729v6.059c0 3.273-1.685 4.723-4.234 4.723-2.454 0-4.044-1.37-4.044-4.707V51.51h1.724zm20.461-.167c2.873 0 4.802 2.156 4.802 5.362 0 3.574-2.19 5.576-4.923 5.576h-.016c-2.886 0-4.785-2.256-4.785-5.379 0-3.273 2.025-5.56 4.922-5.56zm8.98.174c2.374 0 3.789 1.163 3.789 3.107 0 2.439-1.32 3.576-4.155 3.576h-1.223v3.923h-1.712V51.518zm-32.28-.006v1.645h-4.524v2.647h4.206v1.632h-4.206v3.036h4.677v1.647h-6.403V51.512h6.25zm43.249 0v1.645h-4.527v2.647h4.207v1.632h-4.207v3.036h4.68v1.647h-6.406V51.512h6.253zm-29.186.005c3.131 0 3.788 1.58 3.788 2.908 0 1.334-.838 2.201-1.726 2.625.601.358 1.016 1.021 1.26 2.025.299 1.284.577 2.513.9 3.044h-1.796c-.209-.315-.441-1.179-.744-2.594-.277-1.285-.734-1.713-1.873-1.756h-1.398v4.35h-1.712V51.517zm-43.477-.084H13.32c-.63 2.742-2.784 4.902-5.526 5.527 2.108 2.642 5.357 4.336 8.998 4.336 3.645 0 6.893-1.694 9.002-4.336-2.742-.625-4.898-2.785-5.527-5.527zm52.656 1.523c-2.283 0-3.092 2.108-3.092 3.916 0 1.828.96 3.796 3.07 3.796 1.869 0 3.08-1.532 3.08-3.903 0-1.894-.947-3.81-3.058-3.81zm8.853.139h-1.404v3.568h1.253c1.68 0 2.364-.569 2.364-1.961 0-1.111-.684-1.607-2.213-1.607zm-18.158-.002h-1.463v3.14h1.51c1.317 0 2.104-.626 2.104-1.673 0-1.043-.622-1.467-2.15-1.467zM6.15 45.72c-2.248 0-4.068 1.822-4.068 4.07 0 2.243 1.82 4.068 4.068 4.068 2.245 0 4.069-1.825 4.069-4.069 0-2.247-1.824-4.069-4.07-4.069zm21.292 0c-2.25 0-4.071 1.822-4.071 4.07 0 2.243 1.82 4.068 4.07 4.068 2.246 0 4.07-1.825 4.07-4.069 0-2.247-1.824-4.069-4.07-4.069zm151.312-8.433c.987 0 1.75.185 2.296.417v1.782c-.379-.205-1.336-.612-2.328-.612-1.226 0-1.762.661-1.762 1.275 0 .82.613 1.197 2.029 1.747 1.842.692 2.74 1.62 2.74 3.145 0 1.7-1.291 3.195-4.03 3.195-1.027 0-2.093-.28-2.712-.594V45.79c.633.361 1.848.842 2.838.842 1.243 0 1.935-.582 1.935-1.448 0-.803-.534-1.273-1.889-1.76-1.747-.63-2.863-1.558-2.863-3.086 0-1.73 1.448-3.05 3.746-3.05zm-8.165.007c1.487 0 2.256.345 2.62.531v1.812c-.565-.335-1.765-.7-2.573-.7-2.407 0-3.786 1.41-3.786 3.87 0 2.392 1.352 3.762 3.708 3.762.53 0 1.224-.126 1.83-.324V43.86h-2.036v-1.643h3.76v5.352c-.516.283-2.493.66-3.825.66-3.175 0-5.226-2.112-5.226-5.376 0-3.195 2.128-5.558 5.528-5.558zm-46.601 0c1.487 0 2.257.345 2.622.53v1.814c-.567-.336-1.766-.701-2.576-.701-2.408 0-3.788 1.41-3.788 3.87 0 2.392 1.352 3.762 3.712 3.762.787 0 1.932-.277 2.621-.654v1.75c-.517.283-1.561.563-2.895.563-3.174 0-5.224-2.112-5.224-5.376 0-3.195 2.127-5.558 5.528-5.558zm-66.163 0c2.872 0 4.802 2.156 4.802 5.36 0 3.573-2.192 5.574-4.925 5.574h-.014c-2.888 0-4.786-2.254-4.786-5.376 0-3.271 2.026-5.557 4.923-5.557zm74.23 0c2.871 0 4.801 2.156 4.801 5.36 0 3.573-2.193 5.574-4.923 5.574h-.016c-2.888 0-4.786-2.254-4.786-5.376 0-3.271 2.026-5.557 4.923-5.557zm-115.262.992c-3.641 0-6.89 1.693-8.998 4.335 2.742.626 4.897 2.784 5.526 5.524h6.947c.63-2.74 2.785-4.898 5.527-5.524-2.109-2.642-5.357-4.335-9.002-4.335zm75.888-.825v1.643h-4.523v2.646h4.203v1.633h-4.203v3.034h4.677v1.647H86.43V37.462h6.251zm-15.492 0l1.386 4.263c.377 1.244.709 2.502.976 3.682h.046c.285-1.149.645-2.454 1.056-3.697l1.464-4.248h2.519l.612 10.603H83.36l-.204-4.326c-.065-1.369-.141-3.02-.128-4.468h-.046c-.346 1.306-.787 2.737-1.26 4.076l-1.543 4.593h-1.494l-1.416-4.53c-.41-1.353-.787-2.8-1.07-4.139h-.033c-.046 1.401-.109 3.083-.188 4.532l-.236 4.262h-1.81l.708-10.603h2.55zm34.1 0v8.959h4.568v1.644h-6.294V37.463h1.726zm-5.965 0l3.545 10.6h-1.826l-1.001-3.103h-3.501l-.984 3.103h-1.782l3.531-10.6h2.018zm36.937 0l3.548 10.6h-1.829l-1.002-3.103h-3.5l-.983 3.103h-1.78l3.53-10.6h2.016zm-41.006 0v1.514h-3.122v9.086h-1.724v-9.086h-3.106v-1.515h7.952zm-30.967 0v1.642h-4.525v2.784h4.207v1.628h-4.207v4.546h-1.725v-10.6h6.25zm87.577 0l3.315 5.257c.615.989 1.068 1.78 1.432 2.5-.067-1.074-.084-2.114-.084-3.273V37.46h1.636v10.6h-1.638l-3.301-5.27c-.643-1.026-1.142-1.892-1.534-2.66.04 1.012.05 2.053.05 3.374v4.557h-1.635v-10.6zm-112.672 0l3.315 5.257c.615.989 1.068 1.78 1.432 2.5-.067-1.074-.083-2.114-.083-3.273V37.46h1.635v10.6h-1.638l-3.298-5.27c-.645-1.026-1.144-1.892-1.536-2.66.039 1.012.05 2.053.05 3.374v4.557h-1.635v-10.6zm106.908 0v1.514h-3.121v9.086h-1.726v-9.086h-3.107v-1.515h7.954zm2.572.001v10.599h-1.725V37.463h1.725zm-22.679 1.445c-2.283 0-3.09 2.109-3.09 3.914 0 1.828.958 3.795 3.066 3.795 1.873 0 3.084-1.532 3.084-3.901 0-1.894-.947-3.808-3.06-3.808zm-74.229 0c-2.283 0-3.09 2.109-3.09 3.914 0 1.828.958 3.795 3.07 3.795 1.869 0 3.08-1.532 3.08-3.901 0-1.894-.947-3.808-3.06-3.808zm83.446.454c-.107.417-.221.818-.341 1.195l-.942 2.98h2.589l-.96-2.97c-.133-.422-.244-.82-.346-1.205zm-36.937 0c-.107.417-.22.818-.339 1.195l-.944 2.98h2.591l-.963-2.97c-.132-.422-.243-.82-.345-1.205z"/>
</svg>
