<svg xmlns="http://www.w3.org/2000/svg" width="184" height="100" viewBox="0 0 184 100">
    <path fill-rule="evenodd" d="M135.621 46.317c.218.015.37.034.522.034 2.02.002 4.041.007 6.061 0 1.363-.005 2.228-.876 2.27-2.265.04-1.273-.764-2.206-2.095-2.242-2.123-.057-4.25-.025-6.374-.005-.129 0-.365.218-.367.34-.026 1.357-.017 2.716-.017 4.138m0 2.987c0 1.504.014 2.931-.01 4.358-.008.425.139.532.54.53 2.093-.017 4.187.006 6.28-.019.516-.006 1.046-.09 1.543-.232.59-.17 1.126-.46 1.354-1.116.551-1.592-.176-3.028-1.84-3.336-1.034-.191-2.114-.16-3.174-.178-1.533-.026-3.067-.007-4.694-.007m45.176 15.338c-.083.26-.094.59-.264.763-.436.442-.964.791-1.417 1.218-.646.61-1.192 1.237-1.137 2.264.065 1.22-.044 2.45-.095 3.674-.006.148-.118.292-.18.437l-.244-.024c-.07-.625-.173-1.248-.2-1.874-.038-.885-.002-1.773-.037-2.658-.01-.24-.107-.525-.263-.7-.715-.8-1.477-1.556-2.19-2.358-.115-.13-.067-.405-.095-.613.206.014.493-.053.602.058.45.456.849.964 1.261 1.457.31.37.61.748.944 1.157.302-.353.537-.667.813-.94.56-.553 1.14-1.084 1.712-1.624.013-.012.025-.029.04-.033l.75-.204zm-100.988.614l.028.238c-.191.091-.415.297-.57.254-.67-.185-1.276.003-1.862.255-.862.371-1.739.742-2.35 1.5-.242.3-.584.637-.287 1.057.14.197.415.352.657.414 1 .257 1.962-.064 2.93-.254.247-.048.495-.092.84-.156l.204-.999c.23.099.525.163.723.338.093.082-.003.377-.01.576-.031.902-.06 1.804-.094 2.706-.006.141-.035.282-.053.423-.128-.09-.307-.153-.376-.276-.289-.518-.539-1.047-.363-1.68.046-.166-.046-.37-.088-.65-.273.064-.52.105-.757.178-1.069.334-2.139.614-3.276.358-.562-.126-.913-.446-1.113-.981-.184-.495.096-.838.366-1.157 1.124-1.327 2.654-1.958 4.283-2.357.35-.086.777.134 1.168.213zM34.761 27.169l.11.109c-.214.278-.425.56-.645.835-2.52 3.152-4.841 6.441-6.802 9.974-2.784 5.02-4.549 10.37-5.02 16.107-.29 3.521-.216 7.047.25 10.555.249 1.882.566 3.756.85 5.634.018.117.014.236.02.355l-.108.049c-.697-1.219-1.469-2.401-2.071-3.665-.793-1.663-1.526-3.363-2.152-5.095-.752-2.084-1.212-4.246-1.389-6.468-.215-2.717-.047-5.393.635-8.039.56-2.173 1.393-4.23 2.486-6.186 2.429-4.346 5.779-7.886 9.637-10.971 1.373-1.098 2.798-2.131 4.2-3.194zm3.547 37.73c.157.001.314.07.47.107l-.005.245-3.471.3c0 .472-.028.853.016 1.225.014.112.225.287.345.286.812-.005 1.623-.056 2.434-.074.188-.004.377.065.566.1l-.006.22c-.398.082-.791.197-1.193.239-.568.06-1.143.086-1.715.087-.417 0-.569.165-.602.582-.057.703-.181 1.4-.277 2.099l-.222.056c-.071-.122-.206-.245-.204-.366.01-.642.042-1.285.095-1.925.03-.371-.233-.354-.459-.431-.155-.053-.291-.163-.436-.248.145-.112.281-.3.438-.319.284-.035.576-.037.478-.414-.093-.353.362-.946-.426-1.034-.128-.015-.286-.194-.334-.33-.025-.073.138-.26.254-.32.147-.073.334-.094.504-.095 1.25-.005 2.5-.002 3.75.01zm99.615.394c.113.161.328.325.324.483-.027.949-.114 1.895-.161 2.843-.023.463.314.678.67.396.867-.688 1.731-1.388 2.524-2.158.27-.262.317-.75.478-1.13.062-.147.14-.371.246-.395.13-.028.354.079.437.197.076.11.073.336.014.472-.478 1.118-.327 2.203.157 3.265.16.35.427.58.875.458.169-.046.36-.008.626-.008-.268.527-.879.72-1.274.55-.768-.331-.986-1.022-1.173-1.734-.074-.277-.106-.565-.177-.96-.29.244-.488.43-.705.59-.768.567-1.535 1.134-2.317 1.681-.303.212-.567.045-.67-.245-.14-.39-.266-.805-.276-1.213-.022-.895.019-1.794.071-2.689.009-.14.216-.269.33-.403zm-37.975-.434c.4-.001.803.008 1.202.044.143.013.277.118.416.18-.138.084-.27.23-.415.241-.814.069-1.63.102-2.446.156-.2.013-.398.06-.572.087v1.473c1.139.132 2.258-.173 3.348.03l.019.228c-.377.083-.75.2-1.132.242-.57.062-1.145.104-1.717.092-.463-.01-.649.159-.683.619-.04.554-.133 1.106-.238 1.652-.03.15-.184.277-.281.415-.06-.151-.169-.302-.17-.453-.005-.61.017-1.22.04-1.829.014-.376-.29-.307-.498-.392-.137-.055-.25-.168-.373-.255.13-.107.248-.232.39-.317.169-.1.51-.16.512-.247.011-.389-.069-.781-.121-1.172-.003-.018-.065-.049-.087-.04-.346.123-.556-.052-.477-.356.042-.162.369-.344.575-.355.901-.048 1.805-.041 2.708-.043zm57.166-.308c.176.02.403.213.477.388.288.682.54 1.381.772 2.085.08.243.16.338.431.309.348-.037.703-.01 1.055-.01l.024.258c-.258.061-.515.159-.776.175-.412.026-.572.201-.353.56.332.546.708 1.063 1.069 1.59.046.068.108.124.172.195-.558.207-1.151-.113-1.458-.758-.185-.39-.355-.789-.557-1.17-.055-.105-.203-.234-.304-.23-.84.03-1.68.084-2.518.143-.072.005-.148.086-.205.147-.436.47-.854.96-1.309 1.41-.172.172-.426.261-.716.43-.073-.452.013-.619.28-.822.522-.397 1.09-.798 1.198-1.54.013-.092.092-.21.173-.252 1.057-.548 1.463-1.642 2.127-2.518.119-.157.295-.405.418-.39zm-31.478-.006c.128-.02.366.205.434.37.29.7.52 1.425.805 2.127.05.126.248.255.39.27.356.039.719.013 1.079.013l.022.254c-.27.062-.538.158-.811.18-.39.029-.527.2-.34.536.26.466.555.914.852 1.358.109.162.266.291.361.496-.446.03-.872.018-1.124-.403-.294-.49-.54-1.008-.835-1.496-.082-.136-.27-.297-.406-.294-.786.014-1.577.034-2.354.14-.246.033-.476.315-.676.52-.314.323-.576.699-.901 1.009-.19.18-.46.275-.788.462-.017-.479.086-.65.366-.862.505-.382 1.073-.77 1.159-1.506.01-.09.095-.204.176-.25 1.03-.57 1.484-1.616 2.11-2.521.12-.172.303-.377.48-.403zm-54.27.363c.109.146.307.288.312.437.016.479-.03.96-.068 1.44-.081 1.03-.167 2.06-.266 3.089-.009.095-.123.181-.188.271-.083-.07-.19-.127-.243-.215-.06-.101-.11-.235-.098-.347.056-.524-.275-.651-.677-.866-1.05-.56-2.042-1.226-3.056-1.851-.086-.053-.165-.115-.376-.264-.032.588-.047 1.048-.083 1.506-.04.518-.084 1.037-.164 1.55-.016.108-.195.191-.299.285-.062-.123-.181-.248-.18-.37.023-1.386.057-2.77.107-4.155.005-.143.126-.283.194-.424.155.081.387.123.454.25.763 1.448 2.042 2.278 3.46 2.95.155.073.315.138.615.269.067-.652.141-1.25.184-1.85.028-.399-.025-.806.03-1.2.026-.18.222-.337.342-.505zm48.149 0c.099.138.288.28.281.411-.045.859-.136 1.715-.204 2.572-.052.654-.085 1.31-.144 1.964-.009.098-.11.189-.168.283-.088-.06-.192-.105-.257-.184-.05-.061-.08-.166-.07-.246.071-.599-.288-.776-.77-1.023-1.04-.534-2.01-1.208-3.008-1.825-.085-.053-.165-.112-.346-.235-.038.606-.064 1.127-.104 1.648-.035.446-.062.896-.146 1.334-.025.13-.23.225-.353.336-.057-.143-.167-.288-.163-.43.03-1.228.083-2.455.126-3.682.006-.157-.036-.324.007-.468.043-.143.153-.355.254-.367.124-.016.334.113.396.235.701 1.398 1.926 2.192 3.254 2.871.229.117.473.202.822.35.065-.664.134-1.272.18-1.881.031-.428.003-.861.062-1.284.02-.14.229-.253.35-.378zm13.893.223c.957-.034 1.915-.01 2.873-.01l.04.275c-.183.052-.363.14-.549.151-.797.05-1.596.094-2.394.105-.478.007-.553.251-.58.665-.076 1.195-.2 2.386-.31 3.578-.004.045-.047.086-.083.147-.375-.022-.383-.287-.375-.553.029-1.06.065-2.121.091-3.182.005-.184-.027-.37-.043-.579-.652 0-1.254.024-1.852-.016-.157-.01-.3-.223-.45-.342.142-.084.283-.238.427-.24.484-.005 1.026.194 1.441.037.619-.233 1.18-.016 1.764-.036zm-77.119.085c1.126.284 2.182.774 3.018 1.623.188.191.33.443.446.689.265.564.078 1.084-.532 1.257-.812.232-1.65.381-2.482.533-.445.08-.943-.004-1.147.57-.021.06-.22.056-.338.081.171-.558-.853-.194-.607-.778.084-.198.403-.342.41-.52.042-.977.02-1.957.02-2.99-.333.04-.51.116-.634.065-.15-.061-.277-.217-.36-.363-.021-.035.17-.278.263-.277.65.007 1.324-.045 1.943.11zm-11.128-.408c.114.008.218.166.327.255-.125.066-.247.178-.378.189-.896.076-1.801.083-2.69.21-.658.095-.926.044-.837.98.01.094-.034.195-.058.318h3.997c.02.312-.24.334-.5.36l-3.574.367c.067.58-.053 1.197.503 1.608.597.44 1.176.122 1.713-.139.35-.17.636-.47.958-.702.134-.097.285-.17.428-.253l.148.102c-.072.157-.108.35-.222.465-.72.73-1.537 1.292-2.603 1.372-.518.039-1.202-.502-1.419-1.136-.303-.886-.384-1.78-.096-2.688.026-.08.037-.166.036-.163-.147-.22-.375-.445-.333-.52.092-.164.303-.311.494-.363 1.348-.365 2.726-.359 4.106-.262zm7-.008c.124-.002.251.084.377.13l.034.171c-.193.052-.384.13-.58.149-.897.082-1.8.11-2.69.23-.674.091-.725.22-.7.897.003.116-.032.234-.054.383h3.978l.07.084c-.177.093-.348.246-.534.268-1.084.127-2.17.234-3.257.32-.31.026-.373.14-.348.427.144 1.607 1.072 1.705 2.253 1.085.347-.182.63-.48.954-.712.13-.093.288-.15.434-.222l.117.105c-.07.152-.106.338-.217.45-.724.728-1.54 1.29-2.608 1.375-.608.048-1.348-.65-1.524-1.427-.178-.782-.207-1.556-.015-2.342.033-.132-.06-.344-.164-.453-.262-.271-.112-.452.11-.586.188-.114.414-.22.628-.228 1.244-.053 2.49-.081 3.735-.104zm10.713.122c.144.15.202.381.294.58l-.117.04c-.089.875-.21 1.75-.252 2.628-.021.436.113.878.152 1.32.012.137-.059.28-.091.422-.113-.06-.28-.09-.329-.184-.14-.27-.31-.56-.326-.85-.057-1.042-.073-2.086-.062-3.129.002-.24.136-.506.28-.709.074-.103.394-.177.45-.118zm45.115-.119c.125.008.245.098.368.15l.023.163c-.185.047-.368.12-.556.136-.878.075-1.763.098-2.635.21-.79.102-.816.182-.808 1.013 0 .083-.03.165-.053.287h4.167c-.22.155-.349.318-.498.34-.718.105-1.442.177-2.165.251-.36.037-.725.091-1.084.073-.473-.023-.54.17-.489.596.186 1.514 1.236 1.485 2.29.9.342-.19.625-.486.951-.709.113-.077.274-.083.413-.121-.02.138.01.324-.068.408-.74.79-1.598 1.442-2.72 1.407-.391-.013-.93-.362-1.117-.711-.324-.604-.514-1.317-.59-2.003-.048-.422.22-.88.308-1.19-.176-.28-.384-.47-.349-.588.045-.148.274-.291.45-.34 1.367-.372 2.764-.354 4.162-.272zm-13.932.128c.106.026.174.21.17.204-.1 1.164-.21 2.173-.263 3.185-.02.386.102.778.136 1.169.011.135-.047.276-.074.415-.122-.063-.284-.096-.359-.195-.513-.672-.34-1.455-.331-2.212.007-.535-.026-1.072.01-1.604.021-.296.114-.602.246-.869.045-.091.319-.128.465-.093zm53.47.28c.945.086 1.942-.059 2.808.445.302.175.51.511.761.774-.266.246-.491.59-.805.717-.672.272-1.39.432-2.08.635.893 1.367 2.776 1.894 4.197 1.176.253.312.01.483-.207.597-.705.37-1.439.346-2.199.149-.912-.238-1.596-.819-2.293-1.398-.296-.247-.614-.468-.978-.744.057-.26.118-.525.617-.389.693.188 2.389-.2 3.088-.643-.307-.55-.9-.594-1.385-.679-.68-.118-1.389-.067-2.085-.077-.31-.004-.463.14-.468.481-.012 1.007-.048 2.013-.085 3.019-.01.28.043.64-.574.55 0-1.133.006-2.27-.004-3.409-.003-.297.083-.746-.495-.406-.068.04-.28-.166-.426-.259.142-.144.26-.36.432-.421.709-.25 1.453-.185 2.181-.118zm15.358-.457c.083.184.256.382.231.55-.11.774-.28 1.539-.42 2.308-.028.152-.036.312-.03.467.04.88.48 1.266 1.348 1.157 1.067-.135 2.13-.296 3.196-.434.11-.015.23.046.345.072l-.007.171c-.139.058-.273.14-.417.17-1 .203-1.994.478-3.004.572-1.26.117-1.957-.233-2.07-1.39-.033-.324.015-.66.052-.988.074-.674.164-1.345.248-2.017.009-.07-.006-.163.033-.203.156-.154.329-.291.495-.435zm6.955.04c.125.036.248.379.224.563-.087.672-.238 1.335-.361 2.003-.026.136-.047.275-.053.414-.054 1.21.356 1.585 1.56 1.425 1.016-.134 2.03-.278 3.046-.405.094-.012.198.064.455.155-.294.133-.435.23-.59.261-.917.188-1.834.387-2.76.526-.418.063-.863.042-1.284-.021-.603-.091-1.147-.836-1.083-1.47.1-1 .243-1.997.363-2.996.035-.3.177-.545.483-.455zm-82.898-.023c.08.153.24.315.223.458-.058.516-.188 1.022-.267 1.536-.07.463-.147.93-.154 1.395-.012.775.356 1.148 1.135 1.08 1.106-.097 2.204-.274 3.307-.409.144-.017.294.017.44.027l.023.209c-.455.104-.909.215-1.365.312-.608.128-1.213.28-1.827.354-.438.053-.9.05-1.334-.027-.767-.135-1.163-.93-1.035-1.952.098-.79.197-1.581.302-2.37.016-.12.028-.27.103-.342.123-.118.297-.184.45-.271zm-31.167.941v3.247c.776-.116 1.479-.199 2.17-.334.37-.072.726-.22 1.077-.361.274-.112.364-.33.179-.589-.83-1.161-2.06-1.613-3.426-1.963zm101.269-.107l-1.273 1.634.065.193c.543.028 1.087.065 1.631.073.066.001.206-.175.19-.24-.13-.553-.289-1.1-.439-1.649l-.174-.01zm-31.521-.002l-1.26 1.639.047.195c.56.023 1.119.054 1.678.056.056 0 .178-.192.16-.267-.134-.538-.296-1.07-.449-1.604l-.176-.02zm47.526-27.235c1.88-.003 3.728.227 5.472.959 3.072 1.289 4.84 3.605 5.268 6.915.22 1.692.196 3.379-.33 5.023-.9 2.81-2.797 4.68-5.548 5.628-3.412 1.176-6.857 1.12-10.253-.096-3.278-1.173-5.45-4.205-5.62-7.676-.076-1.578-.042-3.132.486-4.646.872-2.496 2.584-4.17 4.999-5.156 1.77-.724 3.627-.963 5.526-.95zm-15.47.56c.115.002.24.2.329.329.04.059.008.17.008.257 0 5.653-.006 11.306.01 16.959.001.49-.109.677-.63.655-.957-.04-1.918-.023-2.876-.006-.383.007-.557-.082-.556-.519.013-5.74.009-11.48.01-17.22 0-.137.024-.272.043-.47 1.26 0 2.462-.01 3.663.014zm-96.43-.002c.086.001.208.148.244.251.043.125.012.276.012.416 0 3.316 0 6.633.002 9.949 0 .331-.007.665.03.993.2 1.709 1.035 2.686 2.701 3.127 1.754.464 3.522.485 5.27-.005 1.85-.519 2.69-1.607 2.706-3.546.03-3.491.014-6.982.018-10.473v-.695h4.039v.63c0 3.91-.005 7.82.002 11.73.004 2.031-1.02 3.428-2.708 4.393-1.446.825-3.026 1.247-4.683 1.349-2.356.144-4.71.183-6.987-.594-1.655-.564-3.144-1.377-3.956-3.028-.232-.473-.43-1.023-.435-1.54-.035-4.223-.02-8.447-.02-12.671 0-.07.014-.138.03-.297 1.267 0 2.501-.005 3.735.011zm81.849-.013c1.305.002 2.563.188 3.7.91.814.514 1.336 1.246 1.55 2.15.363 1.525.317 3.045-.645 4.359-.417.568-1.04.986-1.56 1.463.364.112.843.214 1.283.405.961.417 1.587 1.162 1.936 2.149.38 1.077.468 2.18.256 3.298-.341 1.806-1.863 3.07-4.014 3.317-.795.09-1.598.143-2.398.146-3.627.015-7.253-.003-10.88.017-.5.003-.646-.13-.644-.64.018-5.654.011-11.308.011-16.962v-.585c.21-.01.394-.027.577-.027 3.61-.001 7.219-.004 10.828 0zm-91.086.013c.088.001.212.147.25.25.045.125.018.276.018.416v16.81c0 .713-.001.714-.715.714-1.046.001-2.093.02-3.139-.014-.242-.008-.547-.137-.709-.315-2.682-2.931-5.347-5.878-8.013-8.825-.841-.93-1.672-1.87-2.51-2.803-.103-.114-.222-.213-.333-.319l-.143.039v.602c0 3.683-.008 7.366.01 11.05.002.457-.12.61-.584.595-.993-.032-1.988-.019-2.982-.005-.34.005-.496-.076-.496-.463.011-5.778.008-11.556.01-17.334 0-.118.02-.236.037-.409 1.345 0 2.666-.005 3.986.01.11.002.238.13.327.226 2.408 2.639 4.812 5.281 7.217 7.922 1.186 1.302 2.372 2.603 3.561 3.901.091.1.203.18.418.366V38.915c1.325 0 2.557-.005 3.79.01zm74.339-.013v17.505c0 .654-.003.694-.571.698h-.113c-.96.002-1.919-.008-2.877.005-.336.004-.503-.068-.503-.46.01-5.776.005-11.552.02-17.328 0-.14.19-.4.296-.402 1.216-.029 2.434-.018 3.748-.018zM79.802 38.9c4.343.018 8.685.01 13.027.011 1.239 0 2.477 0 3.715.002.102 0 .203.017.372.032 0 .982-.007 1.906.004 2.83.005.427-.295.355-.543.356-1.866.004-3.732.001-5.598.003-.646 0-.685.003-.687.579v13.624c0 .735-.001.776-.677.778h-2.69c-.63-.001-.669-.002-.671-.581V42.857c0-.72-.002-.721-.716-.722-1.849-.002-3.698-.011-5.546.007-.422.004-.596-.113-.577-.559.03-.696.033-1.397 0-2.093-.023-.458.123-.59.587-.589zm31.307.02c1.82.015 3.436.615 4.621 2.06 1.319 1.608 1.601 3.49 1.223 5.48-.367 1.939-1.31 3.48-3.209 4.287-.062.027-.113.076-.23.155l5.08 6.15c-.24.022-.386.046-.532.046-1.204.003-2.408-.015-3.61.012-.394.008-.646-.13-.886-.424-1.395-1.718-2.81-3.42-4.202-5.141-.208-.256-.415-.36-.744-.355-1.308.02-2.617.03-3.924-.003-.484-.013-.581.16-.575.602.024 1.553.01 3.107.01 4.66v.608h-3.997v-18.11c.137-.012.271-.034.406-.034 3.523-.002 7.046-.023 10.57.007zm61.858 2.573c-.587.064-1.182.087-1.76.198-2.09.402-3.743 1.427-4.575 3.47-.71 1.74-.73 3.529-.15 5.32.514 1.584 1.538 2.73 3.053 3.382 2.087.899 4.233.94 6.375.202 1.475-.51 2.602-1.451 3.258-2.901.684-1.51.826-3.072.51-4.696-.373-1.923-1.377-3.358-3.157-4.213-1.12-.537-2.315-.738-3.554-.762zM1 35.06c3.117.497 6.17 1.19 8.943 2.742 2.668 1.495 4.19 3.81 4.661 6.828.396 2.532.147 5.042-.23 7.55-.007.048-.041.092-.103.224C12.43 44.59 8.1 38.76 1 35.06zm103.59 7.23c-.33-.006-.468.086-.465.44.014 1.535.012 3.071.002 4.607-.002.318.122.435.43.434 1.919-.006 3.839.041 5.755-.019 1.702-.053 2.715-1.2 2.656-2.854-.055-1.524-1.22-2.597-2.832-2.602-.872-.003-1.744 0-2.616 0-.977 0-1.954.01-2.93-.006zM19.897 31.765c1.04 1.631.87 3.98-.422 5.402-.62.683-1.393 1.089-2.344 1.075-1.33-.016-2.534-.905-2.984-2.367-.5-1.622-.322-3.171.85-4.5 1.399-1.586 3.76-1.396 4.9.39z"/>
</svg>
