<svg xmlns="http://www.w3.org/2000/svg" width="184" height="100" viewBox="0 0 184 100">
    <path fill-rule="evenodd" d="M67.183 31.142c-.084.228-.138.393-.204.554-2.777 6.73-5.559 13.458-8.326 20.193-.138.336-.304.447-.662.443-1.769-.02-3.537-.009-5.306-.009h-.578V64.37h1.313l-2.05 4.733c-1.16-2.68-3.454-3.538-5.92-4.097-2.447-.555-4.939-.633-7.436-.566-6.047.163-12 1.091-17.898 2.35-4.276.91-8.514 1.997-12.768 3.004-.112.027-.223.05-.335.074L7 69.8c2.163-.925 4.335-1.83 6.488-2.78 10.865-4.787 21.343-10.296 31.213-16.927 7.762-5.214 15.011-11.048 21.418-17.895.3-.32.594-.644.893-.965.022-.023.058-.032.171-.091zm-3.801 21.654v10.701H52.716V52.796h10.666zm113.857-9.994h.623v4.02c-.156.01-.301.03-.446.03-4.987.001-9.974.013-14.96-.006-1.828-.006-3.618.212-5.358.76-1.093.345-2.13.853-2.983 1.62-1.057.952-1.747 2.1-1.79 3.614-.038 1.388.366 2.6 1.28 3.567.65.687 1.326 1.362 2.215 1.838 1.197.64 2.437 1.077 3.75 1.288.9.145 1.829.142 2.745.144 4.953.013 9.906.006 14.86.006h.697v3.692h-.556c-5.156 0-10.31 0-15.466-.002-1.008 0-2.02.044-3.023-.027-1.927-.137-3.853-.34-5.714-.905-1.027-.311-2.08-.585-3.05-1.032-1.096-.507-2.106-1.182-3.092-1.91-1.018-.753-1.7-1.744-2.35-2.754-.408-.634-.603-1.427-.794-2.175-.379-1.48-.162-2.917.447-4.311.602-1.377 1.373-2.619 2.63-3.496.837-.585 1.632-1.25 2.527-1.727.869-.462 1.822-.794 2.771-1.064 1.32-.376 2.659-.707 4.01-.932 1.063-.178 2.156-.224 3.236-.228 5.93-.02 11.86-.01 17.79-.01zm-49.512-.085h15.465v3.989h-.594c-4.97 0-9.939-.047-14.907.028-1.533.023-3.076.304-4.588.605-1.172.234-2.27.76-3.24 1.488-1.162.872-2.061 1.962-2.197 3.459-.144 1.6.263 3.048 1.468 4.224.793.773 1.58 1.534 2.603 1.99 1.069.475 2.18.774 3.347.952 1.72.262 3.442.203 5.165.208 4.093.011 8.185.004 12.279.004h.647v3.564h-.58c-5.254 0-10.51-.001-15.765.002-.883.001-1.77.074-2.65.027-.94-.05-1.881-.162-2.81-.318-1.219-.203-2.435-.436-3.634-.732-.718-.177-1.43-.436-2.091-.765-1.29-.643-2.588-1.303-3.664-2.274-.634-.572-1.15-1.282-1.678-1.96-.734-.944-1.103-2.074-1.261-3.223-.126-.917-.08-1.874.185-2.802.33-1.156.902-2.189 1.599-3.135.775-1.053 1.83-1.84 2.95-2.488 1.023-.59 2.08-1.176 3.196-1.533 1.413-.452 2.894-.702 4.357-.983 2.114-.405 4.26-.327 6.398-.327zm-21.965.008c.132 0 .264.016.436.026v3.986h-.561c-7.547.004-15.094.013-22.642.005-.937-.001-1.834.092-2.648.6-.778.486-1.111 1.214-.882 2.073.109.41.46.854.828 1.069.52.306 1.077.565 1.763.555 2.61-.037 5.222.007 7.833.03 2.253.02 4.506.065 6.76.077 2.475.012 4.861.464 7.195 1.294 1.126.4 2.185.93 3.074 1.683 1.067.904 1.853 2.068 1.627 3.588-.072.483-.348.95-.59 1.391-.603 1.097-1.625 1.702-2.69 2.264-1.515.799-3.139 1.22-4.799 1.579-1.265.272-2.533.285-3.81.284H70.175c-.641 0-.679-.001-.681-.571v-3.025c1.692 0 3.307-.002 4.922 0 6.47.008 12.938.02 19.407.023 1.179 0 2.269-.392 3.182-1.092.836-.642.978-1.486.141-2.393-.745-.808-1.693-1.09-2.741-1.126-1.29-.044-2.581-.076-3.872-.108-1.477-.035-2.954-.064-4.43-.097-1.578-.035-3.157-.058-4.734-.112-1.284-.043-2.574-.059-3.848-.208-1.097-.128-2.184-.388-3.257-.665-.804-.208-1.63-.439-2.356-.828-1.46-.783-2.809-1.747-3.29-3.467-.273-.973.029-1.902.582-2.688.402-.572.977-1.023 1.483-1.519.8-.783 1.853-1.122 2.855-1.49.962-.351 1.996-.519 3.008-.714.808-.156 1.628-.27 2.448-.333.9-.07 1.808-.079 2.712-.08 8.019-.008 16.037-.01 24.056-.011z"/>
</svg>
