<svg xmlns="http://www.w3.org/2000/svg" width="184" height="100" viewBox="0 0 184 100">
    <path fill-rule="evenodd" d="M57.282 51.502l-.055.168c-.173.047-.344.112-.52.137-.866.123-1.736.216-2.598.36-.5.083-.738-.113-.87-.576-.256-.899-.505-1.802-.823-2.68-.245-.674-.156-1.212.345-1.72 1.63-1.657 2.245-3.736 2.356-5.992.079-1.6-1.27-2.928-2.867-2.903-.55.009-1.102.034-1.652.006-1.126-.056-1.942.45-2.654 1.29-.51.604-1.121 1.126-1.722 1.644-.164.142-.468.22-.683.182-1.028-.18-2.05-.4-3.069-.63-.307-.07-.443-.27-.258-.602.278-.5.536-1.012.801-1.52.188-.359.443-.371.66-.067.28.393.546.808.742 1.248.154.348.365.571.72.5.221-.044.566-.245.577-.397.02-.276-.093-.637-.281-.84-.45-.482-.985-.882-1.46-1.342-.078-.075-.073-.397-.035-.411.614-.231 1.227-.527 1.865-.603.433-.052.794-.05.962-.497.149-.395.016-.743-.349-.927-.411-.208-.727-.022-1.056.293-.285.273-.679.467-1.058.598-.33.114-.557-.12-.378-.442.456-.82.637-1.796 1.45-2.43.207-.163.28-.741.16-1.014-.101-.23-.577-.413-.88-.403-.413.014-.716.389-.628.81.213 1.01-.46 1.692-.813 2.492-.154.349-.42.34-.602.04-.279-.464-.538-.945-.741-1.446-.162-.399-.394-.672-.82-.674-.45 0-.757.257-.841.71-.08.433.106.824.515.902.673.129.944.643 1.313 1.1.312.385.317.687.038 1.113-.818 1.245-1.596 2.516-2.362 3.794-.448.747-.205 1.328.617 1.595.578.187 1.16.364 1.737.554.148.048.285.13.427.196l.098.206c-2.761.688-4.332 2.605-5.288 5.155l-.197-.08-.971-2.229.131-.12c.185.103.371.202.553.307.48.28 1.055.137 1.276-.325.187-.392.127-.755-.193-1.044-.34-.31-.735-.317-1.1-.064-.369.254-.725.384-1.185.133.262-.623.354-1.288 1.025-1.664.397-.222.422-.667.228-1.072-.193-.404-.559-.507-.965-.422-.433.091-.637.391-.622.834.006.172.09.361.04.51-.09.268-.253.511-.386.765-.23-.17-.572-.29-.673-.519-.288-.652-.631-1.306-.498-2.079.078-.454-.199-.723-.611-.834-.423-.113-.746.057-.96.429-.226.39-.16.84.18 1.024.667.362.732 1.02.99 1.597.15.339.038.591-.235.721-.2.095-.52.139-.693.04-.31-.177-.582-.452-.812-.734-.299-.364-.698-.51-1.055-.304-.256.148-.482.542-.514.849-.061.58.402.864 1.105.777.789-.098 1.496.5 1.37 1.155-.48 2.47-.974 4.939-1.425 7.415-.075.413-.045.887.081 1.287.143.45.583.665 1.05.644.616-.028 1.083-.354 1.337-.925.248-.558.454-1.134.688-1.699.074-.178.178-.343.268-.514l.176.013c.08.317.202.63.234.951.172 1.727 1.072 2.893 2.637 3.578.61.267 1.208.56 1.797.871.165.087.385.277.385.419-.002.146-.215.342-.38.428-.98.51-1.97.995-2.96 1.485-.828.41-1.132.962-.948 1.731.18.75.676 1.103 1.572 1.104 2.245.002 4.49 0 6.735.003 1.442.001 3.015 1.123 3.513 2.497.166.457.526.583.962.524.436-.06.675-.333.695-.776.02-.458-.163-.829-.639-.87-.784-.067-1.043-.699-1.447-1.23 1.096.052 2.161.178 3.224.325.112.015.215.145.312.233.378.343.89.398 1.234.103.379-.325.4-.754.17-1.144-.264-.447-.694-.457-1.154-.29-.224.082-.48.174-.703.142-.88-.128-1.752-.3-2.625-.466-.07-.013-.127-.097-.265-.207.851-.25 1.57-.624 2.428-.387.407.113.756-.107.871-.545.112-.425.03-.806-.399-1.026-.398-.205-.795-.188-1.085.171-.628.778-1.56.578-2.382.77.24-.266.528-.428.833-.543.379-.143.583-.429.501-.792-.053-.236-.294-.578-.48-.598-.285-.03-.806.116-.857.293-.211.743-.833 1.078-1.323 1.532-.201.186-.543.304-.82.305-.872.001-1.744-.064-2.614-.116-.111-.007-.218-.09-.456-.196.248-.14.377-.234.52-.289.532-.203 1.068-.394 1.604-.588.983-.356 1.971-.696 2.947-1.07 1.083-.413 1.192-1.195.281-1.922-.163-.13-.337-.25-.514-.362-.837-.527-1.68-1.043-2.512-1.579-.144-.093-.24-.26-.359-.394.132-.114.246-.273.4-.337 2.172-.902 4.142-2.143 5.99-3.592.436-.343.566-.313.795.196.437.973.867 1.95 1.313 2.918.384.833.805 1.03 1.688.84 1.61-.347 3.23-.651 4.828-1.045 1.063-.262 1.846.277 2.265 1.523.143.427.39.678.804.662.366-.013.714-.17.76-.628.044-.436-.059-.742-.52-.955-.409-.188-.782-.51-1.087-.85-.369-.413-.271-.681.26-.807.635-.15 1.247-.414 1.951-.209.218.064.691-.213.794-.447.103-.234-.015-.726-.213-.89-.2-.166-.766-.213-.911-.06-.624.654-1.44.512-2.178.664-.437.09-.672-.147-.556-.597.098-.376.247-.742.403-1.099.177-.402.222-.792-.123-1.106-.326-.297-.714-.263-1.041.004-.343.28-.327.653-.17 1.045.271.673-.01 1.261-.325 1.887-.377-.43-.729-.857-.932-1.347-.162-.389-.352-.696-.756-.594-.255.064-.554.335-.646.583-.145.392.1.659.506.814.272.104.498.331.745.503M24.196 23.115c45.143.026 90.286.018 135.43.018.17 0 .342-.005.513 0 3.557.112 6.78 3.099 6.766 6.842-.049 13.383-.02 26.766-.018 40.15 0 2.38-1.074 4.17-2.965 5.515-.93.66-1.997.992-3.086 1.263H23.05c-.123-.04-.244-.09-.37-.119-2.243-.513-3.99-1.702-5.025-3.812-.282-.573-.44-1.207-.655-1.814v-42.28c.033-.069.084-.134.097-.206.597-3.339 3.934-5.559 7.1-5.557zm135.397 1.276c-45.09.001-90.179 0-135.269.006-.472 0-.95.042-1.417.118-2.584.417-4.651 2.75-4.652 5.268-.005 13.499-.004 26.999 0 40.498 0 .92.247 1.78.745 2.554 1.229 1.907 3 2.808 5.239 2.808H91.93c22.526 0 45.052.001 67.578-.004.491 0 .988-.04 1.474-.119 2.603-.417 4.651-2.76 4.652-5.325.002-13.461.002-26.923 0-40.384 0-1.001-.271-1.928-.837-2.756-1.254-1.834-3.016-2.664-5.204-2.664zM44.74 27.549c12.802.106 22.456 10.59 22.328 22.756-.127 12.122-10.23 22.231-22.324 22.166-12.45-.068-22.355-10.107-22.299-22.6.057-12.256 10.144-22.356 22.295-22.322zM146.61 65.43v.64l-.714.08 1.143 3.635.189.005 1.123-3.64c-.28-.029-.484-.05-.73-.077v-.64h2.237v.65c-.629-.127-.756.315-.907.788-.42 1.328-.872 2.645-1.312 3.967-.085.254-.142.49-.514.494-.366.004-.441-.214-.529-.473-.459-1.356-.933-2.707-1.373-4.07-.147-.454-.293-.833-.925-.674v-.685h2.312zM100.1 65.4c.707.02 1.006.322 1.02 1.023.016.705.004 1.412.004 2.22h-3.29c0 .53-.03 1.005.019 1.472.013.128.252.321.399.333.528.04 1.063.036 1.593.002.142-.009.39-.182.39-.279-.001-.627.391-.526.77-.488.286 1.08-.031 1.538-1.109 1.576-.645.023-1.291.02-1.937.003-.681-.02-.928-.187-.951-.867-.048-1.407-.025-2.816 0-4.224.009-.53.355-.774.87-.776.74-.002 1.481-.013 2.222.006zm-8.55-1.292c.001.363.004.727.01 1.09 0 .036.023.07.05.15l.72.078v.654l-.774.06c0 1.328-.012 2.624.017 3.92.003.137.248.387.372.381.663-.03.581.354.492.827-.255 0-.498.006-.74-.001-.747-.022-1.036-.307-1.04-1.054-.007-1.338-.002-2.677-.002-4.05l-.705-.1-.035-.616.73-.105v-1.797c.817-.23.902-.172.905.563zm41.512-.635v1.87l.806.087v.638l-.781.077c0 1.325-.01 2.639.016 3.952.002.123.234.352.348.345.614-.038.663.278.517.824-.262 0-.542.012-.82-.003-.672-.037-.951-.328-.956-1.018-.009-1.166-.003-2.333-.003-3.5v-.616l-.697-.042c-.01-.208-.02-.407-.03-.646l.706-.089v-1.88h.894zm24.395 1.929c.71.025.992.32 1.005 1.036.013.704.003 1.41.003 2.19h-3.321c0 .527-.031.984.017 1.431.016.146.232.372.37.383.566.044 1.146.075 1.704-.007.208-.031.368-.385.55-.592l.01-.273c.216.127.575.214.622.387.18.668-.137 1.21-.708 1.265-.585.058-1.177.043-1.765.045-1.53.005-1.64-.11-1.64-1.664 0-.994-.007-1.989.003-2.983.011-.98.26-1.226 1.213-1.229.645-.001 1.292-.012 1.937.01zm-40.13 0c.617.022.885.34.89 1.023.012 1.317.004 2.634.004 3.984l.678.097v.742c-1.415 0-2.834.02-4.251-.025-.193-.006-.514-.326-.537-.53-.079-.676-.086-1.368-.047-2.05.025-.45.364-.63.806-.625.795.008 1.59.002 2.47.002 0-.546.025-1.055-.018-1.557-.01-.123-.236-.313-.374-.324-.51-.041-1.045-.107-1.528.012-.253.062-.417.489-.622.75l.116.125h-.695c0-.304-.01-.602.003-.898.018-.454.259-.718.712-.727.797-.015 1.596-.026 2.392.002zm-32.802.02c.57.015.74.453.739.97l.002 3.387v.656c.811.063.815.068.675.803h-2.235c-.215-.6.008-.852.638-.796 0-1.32.016-2.598-.021-3.875-.005-.153-.29-.409-.465-.426-.562-.055-1.133-.02-1.742-.02v4.248c.677.207.677.207.628.854h-2.23c-.15-.699-.142-.71.622-.802v-4.265l-.664-.091v-.654c1.364 0 2.71-.023 4.053.011zm-8.9.006v4.98c.52.037.967.13.676.826h-2.178c-.183-.691-.16-.725.586-.806v-4.296l-.641-.047v-.657h1.557zm33.147.002c.214.012.532.333.585.564.096.41.027.86.027 1.32h-.647c-.093-.404-.062-.926-.294-1.107-.257-.2-.754-.088-1.187-.114v4.327l.69.084v.726h-2.293v-.724l.693-.08v-4.282l-.463-.043-.243-.022v-.676c1.054 0 2.095-.032 3.132.027zm30.889-.037v5.029l.703.077v.73h-2.292c-.225-.671.119-.82.685-.782v-4.29c-.14-.017-.304.004-.421-.06-.132-.073-.31-.224-.308-.339.002-.123.179-.336.296-.348.41-.044.828-.017 1.337-.017zm-12.41.007v1.583h-.682l-.076-.856c-.61 0-1.212-.03-1.808.023-.136.012-.352.3-.356.466-.032 1.108-.038 2.218.004 3.326.007.178.278.476.451.495.578.062 1.166.023 1.776.023.02-.278.034-.501.053-.78l.658-.032.11 1.544c-1.094 0-2.148.029-3.2-.013-.464-.019-.684-.393-.688-.844-.012-1.358-.019-2.716-.004-4.073.006-.513.312-.837.817-.853.966-.03 1.933-.009 2.945-.009zm-11.929 3.305c-.148.01-.364.25-.4.416-.065.31-.054.648-.006.964.02.138.208.35.327.357.69.034 1.382.016 2.074.016v-1.773c-.682 0-1.34-.026-1.995.02zm40.362-2.568c-.19.023-.481.231-.508.392-.07.434-.024.889-.024 1.358h2.477v-1.25c-.002-.353-.185-.52-.53-.52-.473.002-.95-.037-1.415.02zm-57.407.004c-.158.016-.4.246-.421.403-.059.426-.02.865-.02 1.333h2.42c0-.468.038-.908-.02-1.334-.023-.156-.266-.383-.426-.4-.507-.052-1.026-.053-1.533-.002zm-23.129-2.716c.237.044.433.307.647.47l-.007.257c-.226.142-.44.375-.68.405-.322.04-.575-.18-.567-.555.009-.386.246-.643.607-.577zm64.05.012c.2-.016.425.294.64.46l-.014.266c-.23.14-.484.417-.68.38-.214-.04-.527-.384-.513-.576.014-.202.352-.513.567-.53zm7.013-34.099v6.799h-2.002v18.096h5.865v-5.735h8.354c.013.183.036.366.036.548.002 3.828-.008 7.657.012 11.485.003.508-.145.646-.645.645-8.007-.015-16.014-.014-24.021-.001-.465 0-.62-.113-.613-.601.028-1.914.01-3.829.013-5.743 0-.167.021-.334.037-.561h1.978V36.182h-1.98v-6.844h12.966zm-16.208.002v10.332h-7.749v-3.48h-7.033v5.615h8.84v5.977h-8.823v6.477c.528 0 1.053.014 1.577-.005.35-.012.466.133.464.474-.009 1.991-.01 3.982 0 5.973.002.349-.13.467-.471.467-4.109-.008-8.218-.005-12.326-.004-.278 0-.477-.046-.475-.403.01-2.087.008-4.174.012-6.26 0-.054.033-.107.073-.23h2.106c.013-.276.03-.48.03-.686.002-5.59-.006-11.18.013-16.77.001-.527-.136-.72-.666-.673-.49.043-.984.009-1.52.009V29.34h25.948zm-30.055-.044c.561-.002.752.123.745.725-.033 2.756-.026 5.514-.005 8.27.005.536-.129.731-.699.723-2.244-.033-4.489-.024-6.733-.004-.448.004-.61-.122-.588-.586.035-.724.01-1.452.01-2.238H82.433v5.428h.675c3.824.004 7.648-.034 11.47.04 1.159.021 2.354.217 3.458.569 2.059.655 3.29 2.171 3.423 4.345.15 2.441.125 4.895.12 7.343-.002.912-.088 1.84-.267 2.733-.462 2.298-2.26 3.959-4.636 4.303-.955.138-1.929.206-2.894.21-6.354.017-12.707.008-19.061.008-.724 0-.765-.001-.767-.626v-.116c0-2.93 0-5.859-.002-8.788v-.144c.002-.256.041-.455.447-.453 2.568.017 5.136.009 7.705.011.072 0 .145.022.273.043v3.125H92.64v-6.033h-.684c-3.786 0-7.571.012-11.357-.01-.794-.004-1.598-.067-2.379-.208-2.44-.443-4.26-2.326-4.547-4.798-.158-1.363-.157-2.749-.165-4.124-.008-1.53-.038-3.07.108-4.589.268-2.774 2.144-4.647 4.882-5.016.62-.084 1.249-.125 1.873-.125 6.525-.01 13.05.001 19.575-.018z"/>
</svg>
