<?xml version="1.0" encoding="UTF-8"?>
<svg width="139px" height="100px" viewBox="0 0 139 100" version="1.1" xmlns="http://www.w3.org/2000/svg" xmlns:xlink="http://www.w3.org/1999/xlink">
    <!-- Generator: Sketch 63.1 (92452) - https://sketch.com -->
    <title>SnapEvent</title>
    <desc>Created with Sketch.</desc>
    <g id="Symbols" stroke="none" stroke-width="1" fill="none" fill-rule="evenodd">
        <g id="01_logos-/-Clients-/-SnapEvent-/-Black" transform="translate(-23.000000, 0.000000)" fill="#000000">
            <path d="M29.0753029,85.30576 C30.9430778,85.30576 32.7697343,85.89916 34.1037733,86.77916 L34.1037733,86.77916 L33.0982798,88.90776 C31.5381903,87.96616 29.9783014,87.57716 28.8907719,87.57716 C27.4742957,87.57716 26.5506377,88.10916 26.5506377,89.07136 C26.5506377,92.20256 34.3091644,90.52436 34.2885461,95.68176 C34.2885461,98.23976 32.0308079,99.81556 28.8701124,99.81556 C26.6124154,99.81556 24.4778729,98.89476 23.0000201,97.54396 L23.0000201,97.54396 L24.0466319,95.45656 C25.5246853,96.80736 27.3718007,97.54396 28.9112307,97.54396 C30.5940734,97.54396 31.5997675,96.90956 31.5997675,95.80436 C31.5997675,92.61176 23.841642,94.39236 23.841642,89.29636 C23.841642,86.84056 25.9555251,85.30576 29.0753029,85.30576 Z M137.10847,85.4283 L146.693452,98.4241 L146.693452,85.4283 L147.534874,85.4283 L147.534874,99.7339 L146.52918,99.7339 L136.964856,86.7381 L136.964856,99.7339 L136.102776,99.7339 L136.102776,85.4283 L137.10847,85.4283 Z M131.05499,85.42838 L131.05499,86.26738 L122.660232,86.26738 L122.660232,91.97738 L130.131332,91.97738 L130.131332,92.83698 L122.660232,92.83698 L122.660232,98.89478 L131.321757,98.89478 L131.321757,99.73378 L121.798352,99.73378 L121.798352,85.42838 L131.05499,85.42838 Z M106.303041,85.42842 L111.742093,98.71042 L117.201804,85.42842 L118.145921,85.42842 L112.193793,99.73382 L111.290594,99.73382 L105.338465,85.42842 L106.303041,85.42842 Z M102.589474,85.42838 L102.589474,86.26738 L94.1947169,86.26738 L94.1947169,91.97738 L101.665616,91.97738 L101.665616,92.83698 L94.1947169,92.83698 L94.1947169,98.89478 L102.856042,98.89478 L102.856042,99.73378 L93.3328367,99.73378 L93.3328367,85.42838 L102.589474,85.42838 Z M40.5270175,85.40782 L48.2237664,95.70222 L48.2237664,85.40782 L50.6046177,85.40782 L50.6046177,99.73382 L48.2237664,99.73382 L40.5681358,89.46002 L40.5681358,99.73382 L38.1461661,99.73382 L38.1461661,85.40782 L40.5270175,85.40782 Z M161.818979,85.4284 L161.818979,86.2674 L156.97524,86.2674 L156.97524,99.7338 L156.112959,99.7338 L156.112959,86.2674 L151.26922,86.2674 L151.26922,85.4284 L161.818979,85.4284 Z M62.384597,85.40784 L68.6648697,99.73384 L66.0790284,99.73384 L64.7038711,96.50024 L57.4586215,96.50024 L56.0834642,99.73384 L53.5589996,99.73384 L59.9010501,85.40784 L62.384597,85.40784 Z M77.3253319,85.40796 C80.9375267,85.40796 83.0104921,87.18836 83.0104921,90.29936 C83.0104921,93.53276 80.9375267,95.41556 77.3253319,95.41556 L77.3253319,95.41556 L74.0208225,95.41556 L74.0208225,99.73396 L71.5988528,99.73396 L71.5988528,85.40796 Z M61.0710169,87.98664 L58.3616201,94.35144 L63.7800126,94.35144 L61.0710169,87.98664 Z M77.2226364,87.57716 L74.0208225,87.57716 L74.0208225,93.24636 L77.2226364,93.24636 C79.439215,93.24636 80.6912179,92.30496 80.6912179,90.36056 C80.6912179,88.47776 79.439215,87.57716 77.2226364,87.57716 L77.2226364,87.57716 Z M91.3541426,69.63622 L92.907613,71.05362 L91.4861224,72.60242 L89.9328525,71.18522 L91.3541426,69.63622 Z M100.042886,68.7727 L101.911062,69.7409 L100.940269,71.6037 L99.0718919,70.6357 L100.042886,68.7727 Z M82.7376068,68.2281 L83.8700657,69.9979 L82.0949574,71.1273 L80.9624986,69.3573 L82.7376068,68.2281 Z M108.211292,65.69636 L110.267008,66.14936 L109.812901,68.19936 L107.756985,67.74636 L108.211292,65.69636 Z M88.29179,64.05906 L90.642956,65.23846 L89.4601522,67.58266 L87.1089863,66.40346 L88.29179,64.05906 Z M74.779927,64.64398 L75.4145532,66.64598 L73.406976,67.27858 L72.7723498,65.27678 L74.779927,64.64398 Z M95.6371277,64.17578 L98.2141436,64.70838 L97.6802071,67.27798 L95.1031912,66.74558 L95.6371277,64.17578 Z M81.2270398,62.05064 L83.1918941,63.79664 L81.4410557,65.75564 L79.4762014,64.00984 L81.2270398,62.05064 Z M105.389933,62.24246 L105.541169,64.86246 L102.913607,65.01326 L102.762372,62.39326 L105.389933,62.24246 Z M117.406052,60.52374 L117.499521,62.62094 L115.396068,62.71414 L115.3028,60.61674 L117.406052,60.52374 Z M93.8175916,59.3712 L93.8175916,62.2894 L90.8909697,62.2894 L90.8909697,59.3712 L93.8175916,59.3712 Z M74.9245231,58.28738 L76.3692807,60.48098 L74.1693499,61.92138 L72.7245924,59.72778 L74.9245231,58.28738 Z M99.7577055,58.22176 L100.515085,61.04056 L97.6881499,61.79576 L96.9307704,58.97696 L99.7577055,58.22176 Z M84.9544662,58.19304 L87.7814013,58.94824 L87.0238212,61.76724 L84.1968861,61.01204 L84.9544662,58.19304 Z M111.681077,58.00848 L112.507255,60.50008 L110.008464,61.32388 L109.182287,58.83228 L111.681077,58.00848 Z M68.0238651,59.12866 L68.1171335,61.22586 L66.0136804,61.31906 L65.920412,59.22166 L68.0238651,59.12866 Z M105.197038,55.57838 L106.660449,58.10578 L104.125755,59.56478 L102.662545,57.03758 L105.197038,55.57838 Z M79.526085,55.5231 L82.0605785,56.9823 L80.5973678,59.5097 L78.0626737,58.0505 L79.526085,55.5231 Z M69.8134149,53.02568 L70.6395924,55.51748 L68.1408016,56.34108 L67.3146241,53.84948 L69.8134149,53.02568 Z M116.658982,52.29538 L118.10374,54.48898 L115.903809,55.92938 L114.459052,53.73598 L116.658982,52.29538 Z M122.841714,53.24734 L123.476341,55.24914 L121.468763,55.88194 L120.834137,53.88014 L122.841714,53.24734 Z M109.765184,51.62144 L111.834539,53.68484 L109.765184,55.74824 L107.695628,53.68484 L109.765184,51.62144 Z M74.9756502,51.54324 L77.0452058,53.60684 L74.9756502,55.67044 L72.9062952,53.60684 L74.9756502,51.54324 Z M60.8736289,51.6045 L62.9295452,52.0575 L62.4752378,54.1073 L60.4193215,53.6545 L60.8736289,51.6045 Z M113.150205,46.62032 L115.684899,48.07952 L114.221488,50.60672 L111.686994,49.14752 L113.150205,46.62032 Z M71.6133144,46.52462 L73.0767257,49.05202 L70.5422322,50.51122 L69.0788209,47.98382 L71.6133144,46.52462 Z M66.2422983,46.6242 L66.3935335,49.2444 L63.7659722,49.3952 L63.6147369,46.7752 L66.2422983,46.6242 Z M119.984171,45.49226 L121.949025,47.23806 L120.197986,49.19726 L118.233333,47.45146 L119.984171,45.49226 Z M126.203529,44.81602 L127.335987,46.58602 L125.56108,47.71522 L124.42842,45.94542 L126.203529,44.81602 Z M57.97587,42.9445 L59.8442466,43.9125 L58.8732524,45.7755 L57.0050763,44.8073 L57.97587,42.9445 Z M115.121999,40.91612 L117.948934,41.67132 L117.191555,44.49012 L114.36462,43.73492 L115.121999,40.91612 Z M69.6683574,40.8094 L70.4257369,43.6282 L67.5988019,44.3834 L66.8414224,41.5648 L69.6683574,40.8094 Z M92.4094996,30.50502 C94.0636597,30.50502 95.4045183,31.84182 95.4045183,33.49122 C95.4045183,34.66082 94.7287737,35.67062 93.7465472,36.16062 L93.7465472,36.16062 L95.2187838,42.09762 L89.6004159,42.09762 L91.0724519,36.16062 C90.090426,35.67062 89.4144808,34.66082 89.4144808,33.49122 C89.4144808,31.84182 90.7553394,30.50502 92.4094996,30.50502 Z M61.8772169,38.98718 L64.4544333,39.51958 L63.9204968,42.08918 L61.3432804,41.55678 L61.8772169,38.98718 Z M121.430273,38.0628 L123.781238,39.242 L122.598635,41.5864 L120.247469,40.4072 L121.430273,38.0628 Z M127.262055,35.80458 L128.815525,37.22198 L127.394235,38.77078 L125.840765,37.35358 L127.262055,35.80458 Z M118.472742,34.8974 L118.472742,37.8156 L115.54612,37.8156 L115.54612,34.8974 L118.472742,34.8974 Z M69.2729596,34.787 L69.2729596,37.7052 L66.3463377,37.7052 L66.3463377,34.787 L69.2729596,34.787 Z M57.4249646,33.8317 L58.9782345,35.2489 L57.5569444,36.7977 L56.003474,35.3805 L57.4249646,33.8317 Z M62.2204245,31.01598 L64.5715905,32.19538 L63.3887867,34.53978 L61.0376208,33.36018 L62.2204245,31.01598 Z M120.898542,30.51318 L123.475759,31.04558 L122.941822,33.61538 L120.364606,33.08298 L120.898542,30.51318 Z M117.220157,28.21902 L117.977537,31.03782 L115.150802,31.79302 L114.393222,28.97422 L117.220157,28.21902 Z M67.6275045,28.11246 L70.4544395,28.86766 L69.69706,31.68646 L66.8699244,30.93106 L67.6275045,28.11246 Z M125.945747,26.82698 L127.813923,27.79518 L126.843129,29.65798 L124.974753,28.68998 L125.945747,26.82698 Z M59.2580597,24.8871 L60.3905186,26.6571 L58.615611,27.7863 L57.4829515,26.0165 L59.2580597,24.8871 Z M64.6210328,23.40522 L66.585887,25.15102 L64.8348481,27.11022 L62.8699938,25.36442 L64.6210328,23.40522 Z M114.276988,22.09126 L115.740198,24.61866 L113.205705,26.07766 L111.742294,23.55046 L114.276988,22.09126 Z M70.5974912,21.9957 L73.1319847,23.4547 L71.668774,25.9821 L69.1342805,24.5229 L70.5974912,21.9957 Z M121.053127,23.2072 L121.204362,25.8272 L118.576801,25.978 L118.425566,23.358 L121.053127,23.2072 Z M109.843449,16.93218 L111.912804,18.99558 L109.843449,21.05898 L107.773894,18.99558 L109.843449,16.93218 Z M122.343701,18.49492 L124.399617,18.94792 L123.94531,20.99792 L121.889594,20.54492 L122.343701,18.49492 Z M75.0539957,16.85398 L77.1233506,18.91738 L75.0539957,20.98118 L72.9844401,18.91738 L75.0539957,16.85398 Z M68.91517,16.67288 L70.3599276,18.86648 L68.1601974,20.30708 L66.7154398,18.11348 L68.91517,16.67288 Z M116.678198,16.2614 L117.504375,18.753 L115.005584,19.5766 L114.179407,17.085 L116.678198,16.2614 Z M63.3502157,16.72054 L63.984842,18.72234 L61.9772648,19.35514 L61.3428391,17.35334 L63.3502157,16.72054 Z M104.221712,13.09284 L106.756205,14.55204 L105.292994,17.07924 L102.758501,15.62024 L104.221712,13.09284 Z M80.6932638,13.03772 L82.1564745,15.56492 L79.621981,17.02412 L78.1585697,14.49672 L80.6932638,13.03772 Z M74.8105551,11.27858 L75.6367326,13.77018 L73.1379418,14.59378 L72.3117644,12.10218 L74.8105551,11.27858 Z M97.7950977,10.83526 L100.622033,11.59046 L99.8646532,14.40926 L97.0377182,13.65406 L97.7950977,10.83526 Z M87.130769,10.80674 L87.8883491,13.62554 L85.061414,14.38074 L84.3038339,11.56194 L87.130769,10.80674 Z M110.649609,10.68108 L112.094367,12.87448 L109.894637,14.31508 L108.449879,12.12148 L110.649609,10.68108 Z M118.805359,11.28354 L118.898627,13.38074 L116.795174,13.47394 L116.701906,11.37654 L118.805359,11.28354 Z M93.9283102,10.3132 L93.9283102,13.2314 L91.0016883,13.2314 L91.0016883,10.3132 L93.9283102,10.3132 Z M69.4230114,9.88842 L69.5162798,11.98562 L67.4128267,12.07882 L67.3195583,9.98142 L69.4230114,9.88842 Z M103.378084,6.84674 L105.342938,8.59274 L103.591899,10.55174 L101.627045,8.80594 L103.378084,6.84674 Z M81.9053317,7.58926 L82.056567,10.20926 L79.4290056,10.36006 L79.2777704,7.74006 L81.9053317,7.58926 Z M95.3588469,5.01964 L97.7100128,6.19904 L96.5272091,8.54344 L94.1760431,7.36404 L95.3588469,5.01964 Z M87.1386918,5.3243 L89.7159082,5.8569 L89.1817711,8.4265 L86.6047553,7.8941 L87.1386918,5.3243 Z M111.412043,5.32386 L112.046669,7.32566 L110.039092,7.95826 L109.404466,5.95646 L111.412043,5.32386 Z M75.0061981,4.40312 L77.0621144,4.85612 L76.6078071,6.90612 L74.5518908,6.45312 L75.0061981,4.40312 Z M102.724042,1.47518 L103.856501,3.24518 L102.081593,4.37438 L100.948933,2.60458 L102.724042,1.47518 Z M83.8789913,0.99868 L85.7471674,1.96668 L84.7761732,3.82948 L82.9079971,2.86168 L83.8789913,0.99868 Z M93.3328968,6e-05 L94.8861667,1.41726 L93.4648766,2.96606 L91.9114062,1.54886 L93.3328968,6e-05 Z" id="SnapEvent"></path>
        </g>
    </g>
</svg>