<svg xmlns="http://www.w3.org/2000/svg" width="130" height="45" viewBox="0 0 130 45">
    <path fill-rule="evenodd" d="M79.419.121c.06.019.12.048.182.055 1.67.18 3.157.8 4.424 1.889.53.455.977 1.004 1.41 1.456.562-.247 1.116-.561 1.71-.738 1.097-.325 2.23-.231 3.335-.036 4.552.804 7.678 4.538 7.678 9.125v13.81c.082-.224.11-.448.145-.67.036-.224.074-.448.122-.67 1.235-5.66 4.435-9.745 9.868-11.983 3.209-1.322 6.554-1.548 9.963-.965 2.823.483 5.284 1.687 7.307 3.718 2.149 2.158 3.345 4.803 3.951 7.743.448 2.175.486 4.377.435 6.582-.028 1.181-.5 2.202-1.352 3.032-.298.291-.638.54-.963.81l.279.367c1.319 1.77 1.149 4.232-.438 5.773-2.104 2.043-4.56 3.513-7.392 4.343-2.672.782-5.392.928-8.142.561-2.042-.272-3.99-.863-5.793-1.869-.633-.352-1.237-.755-1.874-1.146-.484.743-1.129 1.307-1.94 1.674-1.928.873-3.936 1.438-6.065 1.51-4.173.141-7.644-1.268-10.236-4.598-.05-.062-.07-.148-.103-.223-.09.108-.098.13-.098.15-.015 2.426-2.112 4.48-4.71 4.41-1.698-.047-3.397-.008-5.095-.01-2.661-.001-4.636-1.965-4.637-4.61V27.044c-.09.082-.135.174-.17.269-1.707 4.605-3.416 9.209-5.118 13.816-.693 1.879-2.324 3.032-4.336 3.036-1.753.004-3.505.004-5.258 0-2.042-.005-3.718-1.199-4.39-3.114-.39-1.11-.787-2.217-1.183-3.325-.157-.44-.319-.878-.506-1.394-.068.18-.107.276-.14.374-.498 1.45-.993 2.9-1.492 4.349-.685 1.987-2.338 3.164-4.444 3.166-1.731.002-3.462.002-5.192 0-2.023-.002-3.649-1.13-4.351-3.016-.833-2.235-1.668-4.47-2.503-6.704-.06-.162-.129-.321-.213-.532-.042.122-.066.182-.083.243-1.139 4.026-3.635 6.952-7.367 8.827-3.524 1.77-7.282 2.268-11.171 1.734-4.634-.638-8.62-2.588-11.881-5.95-.556-.574-1.056-1.184-1.306-1.953-.121-.376-.192-.768-.286-1.153v-.713c.018-.049.046-.096.052-.146.118-1.011.53-1.88 1.246-2.611.856-.876 1.69-1.772 2.553-2.642.677-.682 1.276-1.453 2.13-1.946.165-.096.328-.195.523-.311-.15-.1-.266-.174-.38-.252-2.322-1.593-4.05-3.644-4.92-6.345-.633-1.965-.77-3.986-.532-6.022.52-4.461 2.758-7.888 6.564-10.258 3.77-2.347 7.907-3.123 12.297-2.41 4.123.67 7.652 2.49 10.51 5.544.883.943 1.292 2.057 1.248 3.336-.01.29-.053.577-.084.905h.366l3.047-.004c.508 0 1.016.003 1.524.007 1.526.014 2.744.654 3.665 1.855.499.651.703 1.429.942 2.19l1.017 3.233c.071-.22.123-.372.17-.525.383-1.226.757-2.454 1.15-3.676.604-1.884 2.273-3.12 4.254-3.135 2.035-.015 4.071-.036 6.106.007 1.804.037 3.167.883 3.974 2.489.34.679.528 1.435.774 2.16.232.686.449 1.377.7 2.15.066-.188.106-.286.135-.386l.918-3.104c.631-2.124 2.32-3.394 4.543-3.376 2.335.019 4.672-.085 7.008.07-.057-.116-.125-.26-.197-.404-2.13-4.234-.004-9.344 4.525-10.83.633-.208 1.304-.3 1.958-.446h1.633zM9.995 7c-1.754.894-3.201 2.156-4.28 3.803-1.19 1.816-1.626 3.84-1.59 5.981.057 3.267 1.449 5.798 4.252 7.526 1.242.766 2.601 1.302 3.986 1.747 1.726.553 3.475 1.034 5.21 1.558.946.286 1.884.596 2.696 1.19 1.562 1.143 1.65 3.142.173 4.388-.854.722-1.886 1.044-2.978 1.09-3.327.138-6.146-1.033-8.48-3.371-.501-.501-1.02-.516-1.52 0-1.199 1.239-2.396 2.479-3.592 3.719-.381.395-.404.865-.024 1.273.435.467.872.938 1.354 1.356 3.178 2.754 6.923 4.002 10.768 4.087 2.198-.013 4.011-.312 5.764-.96 2.597-.962 4.607-2.625 5.985-5.006 1.108-1.913 1.34-4.009 1.163-6.173-.169-2.062-1.009-3.786-2.53-5.209-1.205-1.128-2.608-1.897-4.164-2.402-2.312-.751-4.633-1.474-6.953-2.2-.954-.299-1.84-.717-2.616-1.35-1.625-1.322-1.462-3.824.332-4.908.349-.21.733-.4 1.127-.493 3.224-.773 6.036.057 8.475 2.232.494.44 1.056.494 1.497.034 1.14-1.189 2.272-2.386 3.398-3.588.365-.39.347-.853-.017-1.248-1.568-1.706-3.44-2.998-5.62-3.777-4.023-1.437-7.986-1.252-11.816.7zm78.472-.831c-.82.019-1.145.33-1.145 1.142v12.672c0 4.008-.01 8.016.008 12.024.004.774.062 1.557.196 2.319.527 2.973 2.188 5.076 5.07 6.097 2.949 1.044 5.786.483 8.516-.843.532-.258.603-.784.239-1.252-.754-.971-1.37-2.021-1.82-3.164-.243-.62-.56-.77-1.22-.641-1.092.213-2.101.06-2.917-.777-.639-.653-.845-1.457-.845-2.343.004-6.492.001-12.985.003-19.478 0-1.697-.582-3.144-1.854-4.297-1.199-1.088-2.635-1.496-4.231-1.459zm24.617 8.669c-4.092.481-7.306 2.422-9.419 5.933-2.232 3.71-2.538 7.721-1.26 11.806 1.125 3.592 3.519 6.105 7.088 7.44 3.011 1.125 6.097 1.206 9.206.457 2.377-.573 4.422-1.765 6.197-3.425.457-.428.481-.884.082-1.37-.782-.955-1.563-1.911-2.348-2.864-.43-.52-1.006-.563-1.512-.138-2.394 2.008-5.125 2.58-8.116 1.733-1.838-.52-3.149-1.702-3.813-3.52-.139-.383.012-.603.42-.644l.163-.007h15.344c.797 0 1.12-.326 1.12-1.127 0-.54.006-1.08-.001-1.62-.024-1.764-.16-3.515-.64-5.225-.942-3.349-2.995-5.701-6.326-6.87-2.007-.703-4.087-.806-6.185-.56zm-48.601.457c-.601 0-.92.238-1.091.818-.647 2.194-1.29 4.39-1.935 6.584-.653 2.226-1.308 4.452-1.956 6.68-.077.265-.22.42-.503.407-.303-.016-.406-.229-.487-.485-1.396-4.391-2.797-8.78-4.198-13.17-.186-.585-.435-.773-1.041-.774-1.905-.002-3.81-.002-5.714 0-.563 0-.915.259-1.086.798-1.146 3.621-2.29 7.243-3.435 10.865l-.791 2.5c-.072.228-.21.374-.468.374-.255 0-.402-.133-.474-.365l-.109-.34c-1.375-4.352-2.75-8.705-4.127-13.057-.189-.596-.438-.774-1.074-.775-.903-.002-1.807 0-2.71 0h-2.743c-.874 0-1.279.558-.982 1.366 1.91 5.196 3.824 10.392 5.736 15.587.944 2.563 1.888 5.125 2.834 7.687.185.503.467.718.961.719 1.763.003 3.527.003 5.29 0 .477-.002.74-.201.894-.654 1-2.931 1.999-5.863 2.996-8.795l1.582-4.66c.131-.386.306-.525.587-.484.288.042.365.264.444.497 1.518 4.466 3.038 8.93 4.558 13.396.17.5.423.699.927.7 1.774.003 3.548.003 5.322 0 .46-.002.728-.204.885-.627l2.846-7.645c1.952-5.25 3.907-10.5 5.856-15.75.288-.78-.152-1.396-.982-1.397-1.937-.002-3.875-.001-5.812 0zm11.588.06c-.722 0-1.072.333-1.072 1.042-.002 7.736-.002 15.473 0 23.21 0 .715.345 1.049 1.065 1.05h5.028c.828 0 1.135-.31 1.135-1.14V28.007 16.403c0-.713-.34-1.049-1.062-1.049h-5.094zm38.844 5.216c1.184.107 2.248.44 3.095 1.323.742.773 1.098 1.695 1.169 2.74.027.395-.172.574-.606.575l-2.235.001H109.7c-.573 0-.758-.249-.601-.804.711-2.52 3.094-4.081 5.817-3.835zM77.705 3.753c-1.859.263-3.717 1.973-3.674 4.195.004.883.268 1.703.759 2.364 1.811 2.438 5.239 2.258 6.955.681 1.575-1.448 1.757-4.034.472-5.573-1.175-1.407-2.703-1.923-4.512-1.667z"/>
</svg>
