<svg xmlns="http://www.w3.org/2000/svg" width="184" height="100" viewBox="0 0 184 100">
    <path fill-rule="evenodd" d="M23.27 41.017v12.979c0 1.851.303 3.204.911 4.06.907 1.238 2.382 1.857 4.029 1.857 1.655 0 3.134-.619 4.041-1.856.608-.828.913-2.182.913-4.061V41.017h3.269V54.89c0 2.27-.711 4.14-2.133 5.61-1.6 1.637-3.761 2.456-6.09 2.456-2.33 0-4.487-.819-6.078-2.456-1.421-1.47-2.132-3.34-2.132-5.61V41.017h3.27zm45.094-.13l7.77 17.014-1.46 5.023-10.008-22.036h3.698zm27.051 0L85.407 62.925l-1.46-5.023 7.77-17.013h3.698zm35.46.13c2.862 0 4.93.535 6.202 1.605 1.403 1.19 2.104 2.96 2.104 4.914 0 1.526-.51 2.86-1.389 3.956-.88 1.098-1.97 1.78-3.409 2.086l6.402 8.987h-3.777L131 53.941h-3.218v8.623h-3.27V41.017zm-79.635 0c2.862 0 4.93.535 6.202 1.605 1.403 1.191 2.104 2.96 2.104 4.914 0 1.526-.476 2.809-1.318 3.935-.955 1.276-2.792 2.01-4.226 2.304-.646.132-1.4.17-1.953.176l-.134.001h-.124c-.278 0-.47-.008-.513-.01h-3.13v8.622h-3.27V41.017h6.362zm100.506 0c2.18 0 3.901.214 5.164.642 1.356.419 2.586 1.13 3.69 2.135 2.235 2.029 3.353 4.694 3.353 7.996 0 3.313-1.164 5.992-3.493 8.039-1.17 1.024-2.395 1.735-3.676 2.135-1.198.4-2.896.6-5.093.6h-4.49V41.017zm-44.522-.414l9.89 21.906h-3.421l-2.175-5.006h-8.871l-2.309 5.006H96.97l10.254-21.906zm44.719 3.47h-1.474v15.435h1.474c1.468 0 2.689-.154 3.662-.46.973-.326 1.852-.843 2.638-1.55 1.608-1.46 2.413-3.363 2.413-5.708 0-2.363-.795-4.279-2.385-5.749-1.432-1.312-3.54-1.967-6.328-1.967zm-44.773 3.498l-3.221 7.009h6.294l-3.073-7.009zM80.258 38l4.745 10.82-1.934 4.087-2.821-7.213-2.981 6.732-1.934-3.847L80.258 38zm51.22 6.073h-3.695v7.035h3.57c3.095 0 4.643-1.177 4.643-3.53 0-2.205-1.506-3.505-4.518-3.505zm-79.635 0h-3.695v7.035h3.57c3.095 0 4.644-1.177 4.644-3.53 0-2.206-1.506-3.505-4.519-3.505z"/>
</svg>
