<?xml version="1.0" encoding="UTF-8"?>
<svg width="96px" height="96px" viewBox="0 0 96 96" version="1.1" xmlns="http://www.w3.org/2000/svg" xmlns:xlink="http://www.w3.org/1999/xlink">
    <title>Fill 15</title>
    <g id="Symbols" stroke="none" stroke-width="1" fill="none" fill-rule="evenodd">
        <g id="01_logos-/-Clients-/-Hiway-/-Black" transform="translate(-44.000000, -2.000000)" fill="#000000">
            <path d="M95.3574215,2.21502728 C97.09751,2.23422728 98.850238,2.60233325 100.565553,2.96382728 C102.512172,3.37427497 104.44969,3.8723306 106.342338,4.48520477 C108.073958,5.04594649 109.768924,5.74744583 111.426602,6.50501934 C112.815311,7.13976371 114.15877,7.89250543 115.464942,8.68809748 C117.029467,9.64123126 118.565553,10.6498034 120.053103,11.7197902 C121.300754,12.6172313 122.500628,13.5929981 123.647542,14.6181001 C124.512214,15.3910591 125.267049,16.2897717 126.057148,17.1455068 C126.950133,18.1127544 127.889631,19.0454167 128.695783,20.0820895 C129.679014,21.3467465 130.581605,22.6800657 131.450449,24.0283889 C132.283143,25.3206379 133.073748,26.645565 133.797742,28.002026 C134.408612,29.146524 134.968292,30.3300577 135.424327,31.5444895 C136.105094,33.3584445 136.793823,35.1846061 137.262246,37.0604842 C137.847584,39.406063 138.234354,41.8032657 138.661951,44.1864816 C138.816027,45.0461584 138.83625,45.9301213 138.927129,46.8020048 C138.940906,46.9330988 139.00739,47.0585981 139.04948,47.1867677 L139.04948,52.6543174 C139.00739,52.8035942 138.940527,52.9507094 138.927129,53.1025293 C138.833596,54.1651412 138.829551,55.2423756 138.648806,56.2890935 C138.27518,58.4513187 137.906863,60.6232074 137.352113,62.7423279 C136.867639,64.5930299 136.210002,66.4097823 135.48209,68.1802511 C135.022852,69.296818 134.486429,70.3819642 133.936786,71.4606679 L133.110402,73.077014 L133.110402,73.077014 C132.684323,73.9173637 132.235492,74.7551703 131.705641,75.5310538 C130.845772,76.7898617 129.922326,78.0056922 129.004062,79.2230485 C128.246952,80.2266617 127.470251,81.2159068 126.678635,82.1923094 C126.267723,82.6990114 125.809539,83.1675677 125.365005,83.6459147 C125.193486,83.8304127 125.003893,83.9987624 124.816448,84.1674935 C124.502229,84.4498988 124.176128,84.7192074 123.868481,85.0083518 C123.623021,85.2391332 123.420661,85.5210299 123.15877,85.7284154 C122.305726,86.4037213 121.440042,87.0628789 120.568671,87.714026 C119.350849,88.6244366 118.168039,89.5929558 116.88803,90.4054591 C115.495403,91.2896763 114.03566,92.0794193 112.555315,92.8076207 C111.105178,93.520818 109.59791,94.1184339 108.105557,94.742116 C106.471894,95.4247968 104.812067,96.0192339 103.05542,96.3233823 C100.884323,96.6994988 98.723716,97.1365213 96.5565368,97.5360339 C95.9784032,97.6425875 95.3930651,97.7087068 94.8110133,97.7933902 L88.1120455,97.7933902 C88.0686918,97.7549902 88.0287508,97.6881081 87.9814788,97.6822591 C86.5436023,97.5041187 85.0930862,97.3983279 83.6694923,97.142116 C81.8116031,96.8078326 79.9553571,96.4279015 78.1350074,95.931626 C76.5139836,95.4898988 74.9219044,94.9166962 73.3561154,94.3010246 C72.0777502,93.7983915 70.8245376,93.2075147 69.619229,92.5468313 C68.2035981,91.7708207 66.8272762,90.914577 65.4796461,90.0232392 C64.200396,89.1769134 62.9675332,88.257475 61.7397261,87.335875 C61.19079,86.9240286 60.7047988,86.4272445 60.1885991,85.9708948 C59.321778,85.2048021 58.4079376,84.4856286 57.5988793,83.662063 C56.7833748,82.8321399 56.06747,81.9024021 55.3151633,81.0104286 C54.6178386,80.1834299 53.869071,79.3913981 53.252134,78.5070538 C52.288873,77.1259253 51.3923489,75.6954617 50.5168064,74.2555889 C49.9417063,73.3097028 49.4122351,72.3302485 48.9367348,71.3300683 C48.3185338,70.0295544 47.7147419,68.7159438 47.2132041,67.3673664 C46.617628,65.7657558 46.0659111,64.1401134 45.6260544,62.4896763 C45.1315947,60.6342697 44.7738951,58.7416074 44.3756225,56.8610246 C44.2235686,56.1427412 44.123716,55.4131412 43.9999747,54.6887544 L43.9999747,45.1523306 C44.0823847,44.757777 44.1704824,44.3643677 44.2458142,43.9684154 L44.9174056,40.3862049 C45.0308293,39.7894838 45.1465936,39.1932525 45.2670908,38.5980101 C45.6944344,36.4865187 46.3070739,34.4314829 47.1970255,32.4640551 C47.78249,31.1693902 48.2986897,29.8416657 48.9181546,28.5640392 C49.4102128,27.5491094 49.9868296,26.5727068 50.5703981,25.6063491 C51.3905793,24.2481081 52.2134148,22.888214 53.1088013,21.5801981 C53.7328165,20.668516 54.4576954,19.8226988 55.1789088,18.9836207 C56.0305625,17.9925955 56.892075,17.0053849 57.8134991,16.081369 C58.7498378,15.1424763 59.7146155,14.2183332 60.7556099,13.4022697 C62.6155214,11.9444683 64.5009648,10.5112074 66.4561786,9.18793325 C67.1215252,8.73759606 67.8359442,8.36033254 68.559838,7.99761258 L69.6478353,7.45712403 C69.8287026,7.3664218 70.0089247,7.27479947 70.1878829,7.18134252 L70.9757017,6.76521672 C71.3706931,6.5588302 71.7693701,6.36070146 72.1810154,6.19667497 C74.08921,5.43630411 75.9808469,4.60498225 77.942886,4.01792 C79.8883674,3.43568954 81.9100653,3.10941669 83.9013019,2.68434649 C87.6912745,1.87527629 91.5363556,2.17306702 95.3574215,2.21502728 Z M47.2108026,49.1201187 C46.8433705,74.1340313 67.276107,94.8435836 91.4439604,94.3440021 C115.860181,94.7716154 135.39336,74.2230379 135.671683,50.5935597 C135.967954,25.4353293 115.740864,6.39236238 93.4234422,5.49937166 C67.1767601,4.44922066 47.5513124,25.9522034 47.2108026,49.1201187 Z M64.2118475,34.6665875 C64.6195997,34.8673611 64.8447103,35.8115942 64.7140173,36.4571465 C64.1109838,39.4359438 63.5136381,42.4160127 62.9169244,45.3962087 C62.9012513,45.4744074 62.914902,45.5585823 62.914902,45.7158697 C64.1121213,45.4067624 65.2479124,45.2365054 66.3964693,45.5910061 C68.0276048,46.094275 68.8170718,47.2935756 69.1199157,48.9063756 C69.3953318,50.3728233 68.9430883,51.7562405 68.6565494,53.1563147 C67.8230967,57.228622 66.9695471,61.2968604 66.1349568,65.3687862 C65.9510512,66.2654644 65.3854308,66.7115147 64.4776575,66.6122087 C63.5401812,66.5099783 62.7762461,65.7763094 62.8681357,64.9040445 C62.9693786,63.9429001 63.2129429,62.996124 63.4099937,62.046169 C63.9881272,59.259626 64.5711902,56.4741001 65.1581715,53.6893372 C65.3842932,52.6160445 65.6555382,51.5513981 65.8491763,50.4725107 C65.9591405,49.8592551 66.119031,49.1409717 65.4907183,48.7193346 C64.8713798,48.3036736 64.1700105,48.5746352 63.658993,48.9521505 C63.1400126,49.3356419 62.6956056,49.882524 62.3601517,50.44352 C61.6378007,51.6515942 61.3655446,53.0215332 61.1017569,54.3965584 C60.6167769,56.9237107 60.0557068,59.4358591 59.5454477,61.9581796 C59.2103729,63.6137028 58.9220645,65.2788895 58.5878744,66.9345399 C58.3579608,68.0728074 57.7684517,68.5600551 56.793815,68.4842723 C55.7060544,68.3998432 55.0980914,67.4996048 55.3315441,66.285173 C55.6980914,64.3787783 56.0766463,62.4746723 56.4550748,60.5705664 C56.9154076,58.2539783 57.3718222,55.9365001 57.8466905,53.6229637 C58.2707478,51.55712 58.7219802,49.4967438 59.1536212,47.432426 C59.684862,44.8915412 60.21585,42.3506564 60.7317969,39.8065928 C61.0002612,38.4834458 61.2661976,37.1583915 61.4785422,35.8251995 C61.7213482,34.3015332 63.1967643,34.1666246 64.2118475,34.6665875 Z M126.395193,31.472 C127.284007,31.6670517 127.737009,32.5259656 127.517207,33.619094 C126.881058,36.7842967 126.227971,39.9463205 125.606484,43.1144477 C124.95264,46.4478728 124.348089,49.7912159 123.682869,53.1224795 C123.23644,55.3574358 122.708106,57.5757351 122.242844,59.8071311 C121.937093,61.273706 121.704019,62.7556662 121.390685,64.2204609 C121.147626,65.3563126 119.78091,65.8996344 118.785545,65.300747 C118.343665,65.0347444 118.058643,64.1376848 118.191612,63.4710252 C118.789842,60.4722649 119.384407,57.4727417 119.977708,54.4730914 C119.988957,54.4162543 119.968608,54.3531868 119.956853,54.2275603 C119.619124,54.2892291 119.297194,54.3432689 118.977413,54.4074808 C115.95087,55.0142517 113.649585,53.1837669 113.752977,50.0904053 C113.800501,48.6734199 114.174759,47.2616477 114.460413,45.8597934 C115.230668,42.0793007 116.021904,38.303004 116.829825,34.5305219 C117.054051,33.4831682 117.566838,33.1764768 118.600249,33.3424106 C119.4404,33.4773192 120.121925,34.235147 120.037114,35.0765139 C119.959381,35.8493457 119.76056,36.6107338 119.602187,37.3744106 C118.993592,40.3079417 118.379688,43.2402013 117.767933,46.1729695 C117.539537,47.2673695 117.308991,48.3611338 117.084639,49.4564238 C117.055315,49.600106 117.050512,49.7502728 117.046467,49.8977695 C117.009181,51.2355391 117.618155,51.7051126 118.840527,51.136996 C119.416764,50.8692132 119.97518,50.3842543 120.333385,49.8550464 C121.298289,48.429796 121.590263,46.7443921 121.914721,45.0830199 C122.38782,42.6602596 122.878487,40.2408053 123.354493,37.8186808 C123.676044,36.1826119 123.960055,34.5386596 124.308275,32.9085669 C124.564352,31.7090119 125.304904,31.2328265 126.395193,31.472 Z M76.6705498,45.0218087 C76.4216768,46.4085319 76.1771013,47.9273664 75.8732463,49.433867 L75.0603352,53.4266193 L75.0603352,53.4266193 L73.4163682,61.4085637 L73.4163682,61.4085637 C73.25079,62.2154723 73.0087424,63.019075 72.9580577,63.8339942 C72.903202,64.7163041 71.9089741,65.2457664 70.9608806,65.0598697 C70.0093743,64.8732101 69.4362966,64.0932577 69.62589,63.1743279 C69.9369497,61.6660472 70.2864335,60.1660313 70.5978723,58.6578776 C71.1567938,55.9505505 71.704466,53.2408074 72.2477143,50.5301743 C72.6415631,48.5649081 73.003181,46.5929028 73.4137139,44.6311968 C73.6172109,43.658863 74.1758795,43.1950114 74.9682536,43.1519068 C76.0635981,43.0925266 76.6039393,43.7596948 76.6705498,45.0218087 Z M99.0529513,39.8107126 C98.6124626,42.0473219 98.1833495,44.2862199 97.7367938,46.5216848 C97.2161702,49.1281801 96.6870782,51.7331497 96.1517927,54.3367205 C95.7071329,56.4992 94.989585,58.5598305 93.251898,60.0166146 C92.2824436,60.8294993 91.0869939,61.3078464 89.7533937,61.2168053 C89.7362039,61.2756768 89.7191405,61.3344212 89.7019507,61.3931656 C88.8950411,61.1318675 88.0737224,60.9071894 87.2877944,60.592996 C86.9335075,60.4513483 86.7600927,60.4934358 86.5773246,60.8001272 C85.2082073,63.0989139 81.8237118,63.7486623 79.8532041,62.7638675 C78.1660754,61.9208477 77.3504445,60.4952159 77.4705203,58.6717245 C77.5825068,56.9732238 77.8996335,55.2803179 78.2326859,53.6064848 C78.9001812,50.2523338 79.6452833,46.9138225 80.3476638,43.5666649 C80.6210575,42.2637351 81.1880683,41.6827762 82.2007499,41.7234649 C83.1838551,41.7628821 83.9300948,42.7350887 83.7207837,43.7867656 C83.1810744,46.4989245 82.6018032,49.2030728 82.054131,51.913706 C81.6362671,53.982347 81.2257341,56.0527682 80.8494544,58.1292927 C80.7429029,58.7169907 80.7882789,59.3385113 81.3782937,59.7042013 C81.9830967,60.0787921 82.6018032,59.9848265 83.1487171,59.5757775 C83.9510765,58.9757457 84.558913,58.2569536 84.7797261,57.2071841 C85.8305793,52.2098437 86.9252918,47.2220397 87.996621,42.2290225 C88.085098,41.817049 88.102035,41.3901987 88.1747124,40.9742834 C88.3194354,40.1457589 88.9897114,39.674151 89.9424816,39.7126781 C90.7855403,39.7466278 91.4583442,40.2950358 91.4607457,41.0987656 C91.4627681,41.7875497 91.3309374,42.4839629 91.1964525,43.1647364 C90.6645797,45.8564238 90.1152644,48.544551 89.5588709,51.2311523 C89.2292311,52.8229722 88.863063,54.4070358 88.5354455,55.9991099 C88.3280303,57.0062834 88.5226796,57.534347 89.1341816,57.7918305 C89.9044365,58.1160689 90.8498757,57.8098861 91.3953992,57.1493298 C92.5339709,55.7708715 92.8565325,54.1152212 93.1620308,52.4172291 C93.6070697,49.9456424 94.1651064,47.4946543 94.6652538,45.0328583 C95.0515189,43.1314225 95.4051738,41.2232477 95.8073647,39.3253722 C96.0377839,38.2378384 96.5107563,37.9607735 97.5575648,37.8916026 C98.5516663,37.8257377 99.2195408,38.9641325 99.0529513,39.8107126 Z M111.995648,34.761049 C112.66744,35.0475232 113.099082,35.6039417 112.996448,36.3626596 C112.91007,37.0009134 112.789928,37.634727 112.66226,38.2673688 L112.404664,39.5320583 L112.404664,39.5320583 C111.703042,43.0511258 110.979553,46.5658702 110.297396,50.0886252 C109.956254,51.8498119 109.695753,53.6265113 109.379638,55.3927841 C109.259562,56.0635126 109.001209,56.745049 108.239549,56.810151 C106.883451,56.9259868 106.780312,56.9599364 106.195858,55.8496424 C106.158572,55.7789457 106.102578,55.7184212 106.078184,55.6845987 C105.457834,56.2124079 104.886273,56.762596 104.251641,57.2251762 C103.147323,58.0300503 101.911173,57.9978808 100.792319,57.2081377 C99.5916874,56.3607947 99.1924036,55.0787179 99.2195787,53.733955 C99.2453634,52.4614146 99.5162292,51.1848053 99.7667453,49.9277775 C100.381281,46.843698 101.002262,43.7593642 101.718546,40.6984265 C101.924571,39.8175152 102.387938,38.9689007 102.865081,38.1867868 C104.078353,36.196853 105.923602,35.3273854 108.216545,35.3651497 C108.405127,35.3682013 108.601799,35.3699815 108.78027,35.4226225 C109.395184,35.6044503 109.900514,35.7860238 110.363754,34.9993325 C110.660531,34.4954278 111.428637,34.5193325 111.995648,34.761049 Z M107.94075,38.3520848 C107.513027,38.5437033 107.056486,38.6887841 106.663269,38.9358411 C105.569568,39.622845 105.12238,40.7486517 104.85973,41.9344742 C104.240013,44.7337325 103.639128,47.538204 103.104854,50.3548821 C102.958614,51.1263152 103.042288,51.9502623 103.085262,52.7464901 C103.106876,53.1486728 103.346016,53.4792689 103.827457,53.4355285 C104.812585,53.3456318 106.401125,51.9164397 106.613849,50.9329166 C107.0374,48.9741351 107.477257,47.0184053 107.865924,45.0525033 C108.221854,43.2525351 108.527352,41.4421404 108.838032,39.6333987 C108.964554,38.8962967 108.634283,38.468302 107.94075,38.3520848 Z M76.2493238,36.8394172 C77.467272,36.8562013 78.2650811,37.7085033 78.2453634,38.9715073 C78.2210954,40.5270887 77.2766674,41.4724662 75.7624479,41.4568265 C74.5843143,41.444747 73.8615842,40.6447046 73.8678628,39.3598305 C73.8748557,37.9582305 74.9489657,36.8213616 76.2493238,36.8394172 Z" id="Fill-15"></path>
        </g>
    </g>
</svg>