<?xml version="1.0" encoding="UTF-8"?>
<svg width="184px" height="100px" viewBox="0 0 184 100" version="1.1" xmlns="http://www.w3.org/2000/svg" xmlns:xlink="http://www.w3.org/1999/xlink">
    <title>01_logos / Clients / Hiway / Black</title>
    <g id="01_logos-/-Clients-/-Hiway-/-Black" stroke="none" stroke-width="1" fill="none" fill-rule="evenodd">
        <g id="Group-16" transform="translate(44.000000, 2.000000)" fill="#000000">
            <path d="M51.3574215,0.215027285 C53.09751,0.234227285 54.850238,0.602333245 56.565553,0.963827285 C58.5121719,1.37427497 60.4496903,1.8723306 62.3423383,2.48520477 C64.0739583,3.04594649 65.7689235,3.74744583 67.4266021,4.50501934 C68.8153107,5.13976371 70.1587697,5.89250543 71.4649421,6.68809748 C73.029467,7.64123126 74.565553,8.64980344 76.053103,9.7197902 C77.3007542,10.6172313 78.5006278,11.5929981 79.6475416,12.6181001 C80.512214,13.3910591 81.2670487,14.2897717 82.0571477,15.1455068 C82.9501327,16.1127544 83.8896313,17.0454167 84.6957826,18.0820895 C85.6790141,19.3467465 86.5816052,20.6800657 87.4504487,22.0283889 C88.283143,23.3206379 89.0737476,24.645565 89.7977417,26.002026 C90.4086118,27.146524 90.9682916,28.3300577 91.4243269,29.5444895 C92.1050937,31.3584445 92.7938235,33.1846061 93.2622456,35.0604842 C93.8475837,37.406063 94.2343543,39.8032657 94.6619507,42.1864816 C94.816027,43.0461584 94.8362503,43.9301213 94.9271287,44.8020048 C94.9409058,44.9330988 95.0073899,45.0585981 95.0494797,45.1867677 L95.0494797,50.6543174 C95.0073899,50.8035942 94.9405266,50.9507094 94.9271287,51.1025293 C94.833596,52.1651412 94.8295513,53.2423756 94.6488056,54.2890935 C94.2751801,56.4513187 93.9068633,58.6232074 93.3521129,60.7423279 C92.8676385,62.5930299 92.2100021,64.4097823 91.4820897,66.1802511 C91.0228523,67.296818 90.4864293,68.3819642 89.9367863,69.4606679 L89.1104024,71.077014 L89.1104024,71.077014 C88.6843227,71.9173637 88.2354919,72.7551703 87.7056415,73.5310538 C86.8457721,74.7898617 85.9223257,76.0056922 85.0040615,77.2230485 C84.2469518,78.2266617 83.4702507,79.2159068 82.6786349,80.1923094 C82.2677228,80.6990114 81.8095387,81.1675677 81.3650053,81.6459147 C81.1934864,81.8304127 81.003893,81.9987624 80.8164483,82.1674935 C80.5022288,82.4498988 80.1761281,82.7192074 79.8684811,83.0083518 C79.6230209,83.2391332 79.4206615,83.5210299 79.1587697,83.7284154 C78.3057257,84.4037213 77.4400421,85.0628789 76.5686707,85.714026 C75.350849,86.6244366 74.1680388,87.5929558 72.8880303,88.4054591 C71.4954034,89.2896763 70.0356604,90.0794193 68.5553149,90.8076207 C67.105178,91.520818 65.5979103,92.1184339 64.1055572,92.742116 C62.4718938,93.4247968 60.8120666,94.0192339 59.0554203,94.3233823 C56.8843227,94.6994988 54.723716,95.1365213 52.5565368,95.5360339 C51.9784032,95.6425875 51.3930651,95.7087068 50.8110133,95.7933902 L44.1120455,95.7933902 C44.0686918,95.7549902 44.0287508,95.6881081 43.9814788,95.6822591 C42.5436023,95.5041187 41.0930862,95.3983279 39.6694923,95.142116 C37.8116031,94.8078326 35.9553571,94.4279015 34.1350074,93.931626 C32.5139836,93.4898988 30.9219044,92.9166962 29.3561154,92.3010246 C28.0777502,91.7983915 26.8245376,91.2075147 25.619229,90.5468313 C24.2035981,89.7708207 22.8272762,88.914577 21.4796461,88.0232392 C20.200396,87.1769134 18.9675332,86.257475 17.7397261,85.335875 C17.19079,84.9240286 16.7047988,84.4272445 16.1885991,83.9708948 C15.321778,83.2048021 14.4079376,82.4856286 13.5988793,81.662063 C12.7833748,80.8321399 12.06747,79.9024021 11.3151633,79.0104286 C10.6178386,78.1834299 9.86907099,77.3913981 9.25213398,76.5070538 C8.28887297,75.1259253 7.39234885,73.6954617 6.5168064,72.2555889 C5.94170634,71.3097028 5.4122351,70.3302485 4.93673478,69.3300683 C4.31853381,68.0295544 3.71474194,66.7159438 3.21320413,65.3673664 C2.61762798,63.7657558 2.0659111,62.1401134 1.62605435,60.4896763 C1.13159469,58.6342697 0.773895092,56.7416074 0.375622498,54.8610246 C0.22356857,54.1427412 0.123716031,53.4131412 -2.52791237e-05,52.6887544 L-2.52791237e-05,43.1523306 C0.082384664,42.757777 0.17048241,42.3643677 0.245814198,41.9684154 L0.917405613,38.3862049 C1.0308293,37.7894838 1.14659364,37.1932525 1.26709079,36.5980101 C1.69443438,34.4865187 2.30707394,32.4314829 3.19702549,30.4640551 C3.78248999,29.1693902 4.2986897,27.8416657 4.91815462,26.5640392 C5.41021277,25.5491094 5.98682958,24.5727068 6.57039815,23.6063491 C7.39057931,22.2481081 8.21341479,20.888214 9.10880135,19.5801981 C9.73281652,18.668516 10.4576954,17.8226988 11.1789088,16.9836207 C12.0305625,15.9925955 12.892075,15.0053849 13.8134991,14.081369 C14.7498378,13.1424763 15.7146155,12.2183332 16.7556099,11.4022697 C18.6155214,9.94446834 20.5009648,8.51120742 22.4561786,7.18793325 C23.1215252,6.73759606 23.8359442,6.36033254 24.559838,5.99761258 L25.6478353,5.45712403 C25.8287026,5.3664218 26.0089247,5.27479947 26.1878829,5.18134252 L26.9757017,4.76521672 C27.3706931,4.5588302 27.7693701,4.36070146 28.1810154,4.19667497 C30.08921,3.43630411 31.9808469,2.60498225 33.942886,2.01792 C35.8883674,1.43568954 37.9100653,1.10941669 39.9013019,0.68434649 C43.6912745,-0.124723709 47.5363556,0.17306702 51.3574215,0.215027285 Z M3.21080261,47.1201187 C2.84337055,72.1340313 23.276107,92.8435836 47.4439604,92.3440021 C71.8601812,92.7716154 91.39336,72.2230379 91.6716832,48.5935597 C91.9679545,23.4353293 71.7408637,4.39236238 49.4234422,3.49937166 C23.1767601,2.44922066 3.55131241,23.9522034 3.21080261,47.1201187 Z M20.2118475,32.6665875 C20.6195997,32.8673611 20.8447103,33.8115942 20.7140173,34.4571465 C20.1109838,37.4359438 19.5136381,40.4160127 18.9169244,43.3962087 C18.9012513,43.4744074 18.914902,43.5585823 18.914902,43.7158697 C20.1121213,43.4067624 21.2479124,43.2365054 22.3964693,43.5910061 C24.0276048,44.094275 24.8170718,45.2935756 25.1199157,46.9063756 C25.3953318,48.3728233 24.9430883,49.7562405 24.6565494,51.1563147 C23.8230967,55.228622 22.9695471,59.2968604 22.1349568,63.3687862 C21.9510512,64.2654644 21.3854308,64.7115147 20.4776575,64.6122087 C19.5401812,64.5099783 18.7762461,63.7763094 18.8681357,62.9040445 C18.9693786,61.9429001 19.2129429,60.996124 19.4099937,60.046169 C19.9881272,57.259626 20.5711902,54.4741001 21.1581715,51.6893372 C21.3842932,50.6160445 21.6555382,49.5513981 21.8491763,48.4725107 C21.9591405,47.8592551 22.119031,47.1409717 21.4907183,46.7193346 C20.8713798,46.3036736 20.1700105,46.5746352 19.658993,46.9521505 C19.1400126,47.3356419 18.6956056,47.882524 18.3601517,48.44352 C17.6378007,49.6515942 17.3655446,51.0215332 17.1017569,52.3965584 C16.6167769,54.9237107 16.0557068,57.4358591 15.5454477,59.9581796 C15.2103729,61.6137028 14.9220645,63.2788895 14.5878744,64.9345399 C14.3579608,66.0728074 13.7684517,66.5600551 12.793815,66.4842723 C11.7060544,66.3998432 11.0980914,65.4996048 11.3315441,64.285173 C11.6980914,62.3787783 12.0766463,60.4746723 12.4550748,58.5705664 C12.9154076,56.2539783 13.3718222,53.9365001 13.8466905,51.6229637 C14.2707478,49.55712 14.7219802,47.4967438 15.1536212,45.432426 C15.684862,42.8915412 16.21585,40.3506564 16.7317969,37.8065928 C17.0002612,36.4834458 17.2661976,35.1583915 17.4785422,33.8251995 C17.7213482,32.3015332 19.1967643,32.1666246 20.2118475,32.6665875 Z M82.3951928,29.472 C83.2840067,29.6670517 83.7370086,30.5259656 83.5172067,31.619094 C82.8810575,34.7842967 82.2279714,37.9463205 81.6064841,41.1144477 C80.9526396,44.4478728 80.3480893,47.7912159 79.6828692,51.1224795 C79.2364399,53.3574358 78.7081062,55.5757351 78.2428439,57.8071311 C77.9370929,59.273706 77.7040194,60.7556662 77.3906846,62.2204609 C77.1476259,63.3563126 75.78091,63.8996344 74.7855446,63.300747 C74.3436655,63.0347444 74.0586434,62.1376848 74.1916115,61.4710252 C74.789842,58.4722649 75.384407,55.4727417 75.977708,52.4730914 C75.9889572,52.4162543 75.9686075,52.3531868 75.9568527,52.2275603 C75.6191237,52.2892291 75.297194,52.3432689 74.9774131,52.4074808 C71.95087,53.0142517 69.649585,51.1837669 69.7529766,48.0904053 C69.8005014,46.6734199 70.1747588,45.2616477 70.4604129,43.8597934 C71.2306678,40.0793007 72.0219044,36.303004 72.8298252,32.5305219 C73.054051,31.4831682 73.566838,31.1764768 74.6002486,31.3424106 C75.4404003,31.4773192 76.1219254,32.235147 76.037114,33.0765139 C75.9593807,33.8493457 75.7605604,34.6107338 75.6021866,35.3744106 C74.9935917,38.3079417 74.3796882,41.2402013 73.7679334,44.1729695 C73.5395365,45.2673695 73.3089909,46.3611338 73.0846387,47.4564238 C73.0553149,47.600106 73.0505119,47.7502728 73.0464672,47.8977695 C73.0091805,49.2355391 73.6181546,49.7051126 74.8405266,49.136996 C75.4167643,48.8692132 75.9751801,48.3842543 76.3333853,47.8550464 C77.2982894,46.429796 77.5902633,44.7443921 77.9147209,43.0830199 C78.3878197,40.6602596 78.8784875,38.2408053 79.3544934,35.8186808 C79.6760438,34.1826119 79.9600548,32.5386596 80.3082747,30.9085669 C80.5643522,29.7090119 81.3049041,29.2328265 82.3951928,29.472 Z M32.6705498,43.0218087 C32.4216768,44.4085319 32.1771013,45.9273664 31.8732463,47.433867 L31.0603352,51.4266193 L31.0603352,51.4266193 L29.4163682,59.4085637 L29.4163682,59.4085637 C29.25079,60.2154723 29.0087424,61.019075 28.9580577,61.8339942 C28.903202,62.7163041 27.9089741,63.2457664 26.9608806,63.0598697 C26.0093743,62.8732101 25.4362966,62.0932577 25.62589,61.1743279 C25.9369497,59.6660472 26.2864335,58.1660313 26.5978723,56.6578776 C27.1567938,53.9505505 27.704466,51.2408074 28.2477143,48.5301743 C28.6415631,46.5649081 29.003181,44.5929028 29.4137139,42.6311968 C29.6172109,41.658863 30.1758795,41.1950114 30.9682536,41.1519068 C32.0635981,41.0925266 32.6039393,41.7596948 32.6705498,43.0218087 Z M55.0529513,37.8107126 C54.6124626,40.0473219 54.1833495,42.2862199 53.7367938,44.5216848 C53.2161702,47.1281801 52.6870782,49.7331497 52.1517927,52.3367205 C51.7071329,54.4992 50.989585,56.5598305 49.251898,58.0166146 C48.2824436,58.8294993 47.0869939,59.3078464 45.7533937,59.2168053 C45.7362039,59.2756768 45.7191405,59.3344212 45.7019507,59.3931656 C44.8950411,59.1318675 44.0737224,58.9071894 43.2877944,58.592996 C42.9335075,58.4513483 42.7600927,58.4934358 42.5773246,58.8001272 C41.2082073,61.0989139 37.8237118,61.7486623 35.8532041,60.7638675 C34.1660754,59.9208477 33.3504445,58.4952159 33.4705203,56.6717245 C33.5825068,54.9732238 33.8996335,53.2803179 34.2326859,51.6064848 C34.9001812,48.2523338 35.6452833,44.9138225 36.3476638,41.5666649 C36.6210575,40.2637351 37.1880683,39.6827762 38.2007499,39.7234649 C39.1838551,39.7628821 39.9300948,40.7350887 39.7207837,41.7867656 C39.1810744,44.4989245 38.6018032,47.2030728 38.054131,49.913706 C37.6362671,51.982347 37.2257341,54.0527682 36.8494544,56.1292927 C36.7429029,56.7169907 36.7882789,57.3385113 37.3782937,57.7042013 C37.9830967,58.0787921 38.6018032,57.9848265 39.1487171,57.5757775 C39.9510765,56.9757457 40.558913,56.2569536 40.7797261,55.2071841 C41.8305793,50.2098437 42.9252918,45.2220397 43.996621,40.2290225 C44.085098,39.817049 44.102035,39.3901987 44.1747124,38.9742834 C44.3194354,38.1457589 44.9897114,37.674151 45.9424816,37.7126781 C46.7855403,37.7466278 47.4583442,38.2950358 47.4607457,39.0987656 C47.4627681,39.7875497 47.3309374,40.4839629 47.1964525,41.1647364 C46.6645797,43.8564238 46.1152644,46.544551 45.5588709,49.2311523 C45.2292311,50.8229722 44.863063,52.4070358 44.5354455,53.9991099 C44.3280303,55.0062834 44.5226796,55.534347 45.1341816,55.7918305 C45.9044365,56.1160689 46.8498757,55.8098861 47.3953992,55.1493298 C48.5339709,53.7708715 48.8565325,52.1152212 49.1620308,50.4172291 C49.6070697,47.9456424 50.1651064,45.4946543 50.6652538,43.0328583 C51.0515189,41.1314225 51.4051738,39.2232477 51.8073647,37.3253722 C52.0377839,36.2378384 52.5107563,35.9607735 53.5575648,35.8916026 C54.5516663,35.8257377 55.2195408,36.9641325 55.0529513,37.8107126 Z M67.9956478,32.761049 C68.6674405,33.0475232 69.0990815,33.6039417 68.9964483,34.3626596 C68.9100695,35.0009134 68.789928,35.634727 68.6622603,36.2673688 L68.404664,37.5320583 L68.404664,37.5320583 C67.7030419,41.0511258 66.9795534,44.5658702 66.2973963,48.0886252 C65.9562545,49.8498119 65.6957531,51.6265113 65.3796377,53.3927841 C65.2595618,54.0635126 65.0012092,54.745049 64.2395492,54.810151 C62.8834506,54.9259868 62.7803118,54.9599364 62.1958584,53.8496424 C62.1585717,53.7789457 62.1025785,53.7184212 62.0781841,53.6845987 C61.4578344,54.2124079 60.8862734,54.762596 60.251641,55.2251762 C59.1473225,56.0300503 57.9111734,55.9978808 56.7923194,55.2081377 C55.5916874,54.3607947 55.1924036,53.0787179 55.2195787,51.733955 C55.2453634,50.4614146 55.5162292,49.1848053 55.7667453,47.9277775 C56.3812808,44.843698 57.0022625,41.7593642 57.7185465,38.6984265 C57.9245713,37.8175152 58.3879376,36.9689007 58.8650811,36.1867868 C60.0783526,34.196853 61.9236023,33.3273854 64.2165452,33.3651497 C64.4051274,33.3682013 64.601799,33.3699815 64.7802696,33.4226225 C65.3951843,33.6044503 65.900514,33.7860238 66.3637539,32.9993325 C66.6605309,32.4954278 67.428637,32.5193325 67.9956478,32.761049 Z M63.9407499,36.3520848 C63.5130272,36.5437033 63.0564862,36.6887841 62.6632694,36.9358411 C61.5695681,37.622845 61.1223805,38.7486517 60.8597304,39.9344742 C60.2400126,42.7337325 59.6391279,45.538204 59.1048536,48.3548821 C58.9586139,49.1263152 59.0422878,49.9502623 59.0852623,50.7464901 C59.1068759,51.1486728 59.3460164,51.4792689 59.8274573,51.4355285 C60.8125848,51.3456318 62.4011249,49.9164397 62.6138487,48.9329166 C63.0374005,46.9741351 63.4772572,45.0184053 63.8659237,43.0525033 C64.2218538,41.2525351 64.527352,39.4421404 64.8380324,37.6333987 C64.9645545,36.8962967 64.6342827,36.468302 63.9407499,36.3520848 Z M32.2493238,34.8394172 C33.467272,34.8562013 34.2650811,35.7085033 34.2453634,36.9715073 C34.2210954,38.5270887 33.2766674,39.4724662 31.7624479,39.4568265 C30.5843143,39.444747 29.8615842,38.6447046 29.8678628,37.3598305 C29.8748557,35.9582305 30.9489657,34.8213616 32.2493238,34.8394172 Z" id="Fill-15"></path>
        </g>
    </g>
</svg>