<?xml version="1.0" encoding="UTF-8"?>
<svg width="184px" height="100px" viewBox="0 0 184 100" version="1.1" xmlns="http://www.w3.org/2000/svg" xmlns:xlink="http://www.w3.org/1999/xlink">
    <title>01_logos / Clients / Spirit / Black</title>
    <g id="01_logos-/-Clients-/-Spirit-/-Black" stroke="none" stroke-width="1" fill="none" fill-rule="evenodd">
        <path d="M152.089507,58.6190271 C152.392389,58.6308258 152.714417,58.692516 153.008245,58.7144279 C153.670013,58.7637678 154.235108,58.8180417 154.78368,58.9691874 C155.053058,59.0431667 155.254238,59.2125467 155.51261,59.287384 C155.797413,59.3704958 156.078559,59.4074547 156.368332,59.5107008 C156.374734,59.5353402 156.394672,59.5476292 156.431043,59.5426033 C156.542775,59.8658871 156.835627,60.007839 157.001504,60.2749182 C157.107779,60.5780983 157.558277,60.7091096 157.382096,61.1032162 C157.592848,61.1785132 157.763968,61.2930677 157.85808,61.4862289 C157.856312,61.7820846 157.41121,61.6318583 157.445629,61.9637537 C157.556508,62.1395387 157.847592,62.133624 157.984324,62.2824712 L157.984324,62.377872 C157.703087,62.4993218 157.663272,62.8622921 157.541021,63.1425797 C156.758497,63.3722096 155.953199,63.3690837 155.164272,63.5567287 C155.053058,63.5831761 154.960379,63.6594538 154.846848,63.6840931 C154.517107,63.7548545 154.145082,63.6840931 153.80083,63.7475608 C153.579224,63.7885957 153.389843,63.9539305 153.167719,64.0027801 C152.495067,64.151566 151.786076,64.3492628 151.10751,64.4807645 C150.927183,64.5159154 150.746856,64.4821436 150.568815,64.5122685 L150.204192,64.58958 L150.204192,64.58958 L149.478066,64.7837938 C149.356458,64.8142707 149.234243,64.8417045 149.110956,64.8629498 C148.491808,64.9688314 147.861441,65.0574288 147.24144,65.1816367 C146.628389,65.3039752 146.016131,65.4281525 145.402531,65.5317664 C144.150395,65.7427023 142.893624,65.9089257 141.663193,66.1372072 C141.541431,66.1596094 141.439271,66.2376645 141.313911,66.2645104 C141.176326,66.2946966 141.009138,66.2673298 140.870608,66.2965354 C140.703543,66.3321766 140.557666,66.4184142 140.395569,66.4558942 C140.212072,66.4974194 140.02269,66.4869385 139.825108,66.5193312 C139.13072,66.6334873 138.325452,66.8759578 137.606431,67.0293713 C137.355193,67.0826952 137.092278,67.0462265 136.845613,67.0927471 C136.53645,67.1517098 136.237958,67.2763161 135.926814,67.3475372 C135.618962,67.4178696 135.295136,67.5502907 134.975791,67.5707621 C134.856285,67.5789446 134.719218,67.5287772 134.596144,67.5388597 C134.408074,67.5548263 134.203236,67.6529851 133.992971,67.6981879 C133.785298,67.7424712 133.559699,67.719119 133.360287,67.7616862 C133.188527,67.7977258 133.033686,67.9277871 132.85336,67.9529168 C132.687148,67.9757786 132.515022,67.9282775 132.345609,67.9529168 C132.191226,67.9748899 132.058945,68.077615 131.901818,68.1122449 C130.655139,68.3880582 129.285294,68.4666037 128.003158,68.7181148 C127.746524,68.7684048 127.505438,68.8934401 127.243316,68.9404816 C126.811415,69.0185368 126.349912,69.0509602 125.912036,69.1317735 C125.481568,69.2112077 125.048692,69.3508918 124.643589,69.3869927 C124.520516,69.3979639 124.383296,69.3354156 124.264826,69.355029 C124.13846,69.3751327 124.042184,69.4906066 123.915483,69.5143571 C123.781892,69.5385368 123.634337,69.4933647 123.503154,69.5143571 C123.355936,69.5371884 123.241917,69.6385651 123.091161,69.6732869 C122.930864,69.7102765 122.758646,69.6754934 122.584203,69.7051893 C121.781741,69.8408894 121.116345,70.0343878 120.207942,70.119798 C119.804302,70.157707 119.410052,70.353136 119.034399,70.3744962 C118.862273,70.384119 118.69283,70.3120092 118.527471,70.3425938 C118.306323,70.384119 118.169592,70.5758399 117.893995,70.5973227 C117.507458,70.4192699 117.039644,70.6539564 116.562685,70.7247791 C115.910947,70.8214976 115.286006,70.9475443 114.597868,71.0434354 C114.282303,71.0871978 113.948477,71.2091073 113.646845,71.2342676 C113.539716,71.2433388 113.437038,71.1908423 113.330244,71.2023039 C113.129064,71.2246754 112.933738,71.3310474 112.728046,71.3620304 C112.38105,71.4141285 112.025457,71.3853826 111.682546,71.4255594 C111.525755,71.4437937 111.397742,71.5259248 111.238299,71.5529239 C110.757803,71.6341968 110.241851,71.6451681 109.748551,71.7117923 C108.557265,71.8752577 107.37735,72.2080417 106.19957,72.2218017 C105.895681,72.3783411 105.548777,72.3829993 105.21678,72.4454863 C104.493277,72.5797461 103.630726,72.6998168 102.903534,72.859574 C102.556965,72.9353307 102.212713,72.9349323 101.85718,72.9865094 C101.521982,73.035359 101.189986,73.1696188 100.843417,73.241269 C99.8432192,73.4503967 98.7418985,73.6248027 97.6745396,73.7831808 C97.1195655,73.9571884 96.5635852,74.1010097 95.899165,74.2292935 C95.5453704,74.2977565 95.2028559,74.4301775 94.7900093,74.4840224 C94.6632774,74.5000196 94.5361186,74.4657881 94.4094172,74.4840224 C93.8898073,74.5611888 93.3657158,74.7538597 92.8249788,74.8661464 C91.7640221,75.0862454 90.6834931,75.2889682 89.5923244,75.5031219 C87.9420658,75.8272638 86.2356209,76.0363916 84.5215848,76.2673699 C83.9833781,76.3403991 83.4426106,76.4532067 82.9053795,76.5225891 C81.5861726,76.6937772 80.1167288,76.9681502 78.8169723,77.191896 C78.3619934,77.2704109 77.9079597,77.25898 77.4542918,77.3517145 C76.1400542,77.6183647 74.6768906,77.8749017 73.3661284,78.1799206 C72.1625259,78.4588597 70.7009476,78.7890083 69.3726558,79.040029 C69.1744638,79.0770493 68.9879785,79.1697532 68.802103,79.1989587 C68.6671703,79.2204415 68.5245245,79.1742888 68.3905673,79.1989587 C68.2626769,79.2231384 68.1330793,79.3244844 68.0100058,79.3582869 C67.4510074,79.5117004 66.7870749,79.5623274 66.1397575,79.6765448 C65.3349778,79.8185273 64.5503802,80.0449701 63.7312415,80.1549583 C62.4348689,80.3284755 61.1731594,80.607905 59.7383786,80.7279757 C59.251511,80.7686122 58.7702834,80.8804698 58.2803977,80.9512313 C57.0651798,81.1251775 55.8168843,81.2430111 54.5722166,81.3973133 C52.6030705,81.6406419 50.7699546,81.9479286 48.7093798,82.1295976 C48.1162061,82.1825537 47.5201363,82.3332091 46.9344929,82.3843878 C45.9584102,82.4710851 44.9886383,82.4994326 44.0189883,82.5761087 C42.6703316,82.6815919 41.3804831,82.7884236 39.9939927,82.8309295 C39.5597751,82.8441379 39.1203749,82.9463727 38.6943581,82.9901964 L36.9832182,82.9901964 C36.7951782,82.9883883 36.4527551,82.8934778 36.1275873,82.8624029 C35.8358936,82.8350054 35.4776786,82.8920375 35.2085752,82.8309295 C34.9307528,82.7683199 34.7609436,82.5788055 34.4479704,82.4162902 C34.154356,82.2647461 33.7709897,82.1551563 33.782114,81.874838 C33.7988848,81.4639375 34.9335576,81.2721554 35.3036318,81.2059602 C36.0530786,81.0727423 36.6521666,80.9480441 37.1733313,80.8553402 C38.4869897,80.6229828 39.7692166,80.5224948 41.0082138,80.250451 C42.2417845,79.9796636 43.5073353,79.7765118 44.7477959,79.5810827 C46.0366688,79.3788197 47.3136215,79.1185745 48.5509115,78.9437395 C49.1647244,78.8574712 49.7731412,78.7040884 50.4207635,78.6254816 C51.0382043,78.5496942 51.6922592,78.3963114 52.2903716,78.2753213 C55.4399201,77.6384684 58.6001084,77.1974123 61.6713984,76.5869455 C62.3024666,76.4609295 62.9473451,76.3919762 63.509575,76.2039328 C67.6118841,75.3574005 71.796171,74.5210427 75.8696094,73.6558164 C76.5747443,73.5060651 77.2779738,73.3765248 77.9801819,73.2536576 L80.0846267,72.8915377 L80.0846267,72.8915377 C82.8885815,72.3989658 85.7651854,71.8040059 88.4198789,71.330128 C90.3113458,70.9922567 92.1711677,70.6411464 93.9983693,70.2786664 C94.9408559,70.0919102 95.8963907,69.9892157 96.8184514,69.769178 C100.47819,68.8957079 104.21204,68.3528767 107.878699,67.5388597 C109.712211,67.1315754 111.598495,66.8489587 113.456976,66.4874288 C117.154029,65.7687513 120.813402,64.9646942 124.485944,64.257509 C125.407913,64.0794562 126.316286,63.8360662 127.243316,63.6840931 C128.162602,63.5329781 129.057743,63.237582 129.968829,63.0787136 C130.86455,62.9225113 131.757008,62.691533 132.661661,62.4737631 C133.118622,62.3632845 133.602349,62.3258046 134.056505,62.2189729 C134.970334,62.0025207 135.881877,61.8628366 136.813846,61.645128 C137.270776,61.538235 137.719474,61.4099512 138.17741,61.3264104 C140.983774,60.8122944 143.562648,60.1603637 146.385321,59.5746282 C147.275524,59.3897107 148.223437,59.2290035 149.205403,59.0645882 C150.157432,58.9061488 151.211011,58.5829262 152.089507,58.6190271 Z M57.4247637,42.4670174 C57.8861752,42.6190212 58.0862878,43.0340283 58.3439283,43.3908694 C59.5414945,43.144752 60.7109217,42.6108388 62.1150332,42.6263149 C62.6201621,42.6318312 63.2257742,42.7443937 63.7633711,42.8174229 C64.1886257,42.8751598 64.6430253,42.9657798 64.9991063,43.0721518 C65.5032596,43.223083 66.2095987,43.4921848 66.7741456,43.6458435 C67.9767726,44.3613032 69.0616611,45.0470363 69.4043281,46.6404404 C69.5813057,47.4627317 69.678858,48.1320387 69.4363083,48.9980924 C69.2838764,49.5407704 69.221928,50.1710344 69.0557162,50.6545045 C68.9084975,51.0829958 68.6357663,51.564198 68.3905948,51.9924135 C68.1457586,52.4179934 67.8559855,52.8630948 67.5664563,53.1704121 C67.4444803,53.300075 67.2696104,53.3658105 67.1542499,53.4895587 C67.0489194,53.6022438 67.0053239,53.7739835 66.9006031,53.8721117 C66.8276492,53.9391957 66.6861924,53.9355794 66.6155249,53.9990778 C66.5344921,54.0711876 66.5076946,54.2314658 66.4253204,54.3181938 C66.3242275,54.4227577 66.2086232,54.4185898 66.1719175,54.5409896 C65.4642371,54.742793 65.1549222,55.3454451 64.6824137,55.7832527 C64.5779369,55.8060839 64.4795878,55.8344314 64.3651114,55.8467817 C64.0732957,56.1284484 63.7033434,56.4137619 63.2878445,56.7073805 C62.9341719,56.9565931 62.596962,57.3237313 62.1784449,57.5035922 C62.0648831,57.5519821 61.9103171,57.5497143 61.7666958,57.5990236 C61.4578382,57.7058859 61.0686795,57.9113668 60.7523527,58.1090024 C60.2027747,58.452819 59.7229189,58.8564257 59.0093241,58.5231513 C58.7455254,58.703901 58.3492329,58.7513715 58.0902815,58.9372084 C58.0894279,60.3438868 57.8552315,61.7578284 57.8366348,63.2379958 C57.8337386,63.4836535 57.8791633,63.7279321 57.8684016,63.970801 C57.8516036,64.3551928 57.697251,64.6930948 57.8684016,65.0227223 C57.8605361,65.1733777 57.771272,65.243281 57.7417002,65.3724536 C57.8278242,65.875108 57.8155077,66.6426351 57.7096895,67.1882244 C57.8266048,67.3584932 57.7167013,67.5287926 57.7096895,67.7301363 C57.6792336,68.640075 57.8166967,69.9270811 57.6147549,70.6923098 C57.6899953,70.8945116 57.6681365,71.2694338 57.5514651,71.4570787 C57.5873476,72.2495823 57.5548491,72.8559731 57.4565305,73.6239293 C57.4233004,73.8804663 57.4403423,74.1831561 57.3931189,74.3566733 C57.3510781,74.5096577 57.1580688,74.6351834 57.1077053,74.8027553 C56.932561,75.3867133 57.2566313,76.1349642 57.0127707,76.809297 C56.4182862,77.042206 56.38844,76.3943206 56.1886627,76.045049 C55.9904402,75.6984437 55.711063,75.6163126 55.4915,75.4396388 C55.1710576,74.6703036 54.6333388,74.0434413 54.4138673,73.1463432 C54.2463446,72.45871 54.1965908,71.630075 54.1286976,70.8201033 C54.0246781,69.5851339 54.0882422,68.2693206 54.0335191,66.9654286 C53.9295301,64.479462 53.8913611,62.196157 54.0019962,59.6699524 C54.0344947,58.9243984 54.1277525,58.2646836 54.0019962,57.662951 C54.306982,57.1155535 54.2009199,56.4434578 54.3190546,55.6239859 C54.4307872,54.8468666 54.5528852,53.8935332 54.6991589,53.043446 C54.758211,52.6996601 54.8705533,52.3298557 54.8258603,52.1828779 C54.7734237,52.0097897 54.5406906,51.9801245 54.3505775,51.896553 C54.0944004,51.7847567 53.7615196,51.5368006 53.431535,51.482496 C53.2630672,51.234785 53.2576101,50.9837336 53.1144765,50.7181867 C53.0287183,50.5588892 52.8317153,50.5145446 52.7343723,50.3677812 C52.5104498,50.0313503 52.4469162,49.5386865 52.4173139,49.0615908 C52.3282936,48.8113668 52.205464,48.5951598 52.0051989,48.4563951 C51.9851694,48.2641839 51.9370618,48.100504 51.8470965,47.97838 C52.0294966,47.6932197 52.0855305,47.4227082 52.3540241,47.2138868 C52.5138338,47.0894338 52.7338845,47.0796577 52.8610737,46.9271636 C52.9557644,46.8134366 52.9552766,46.6566521 53.0511868,46.5447638 C53.1613646,46.4753814 53.3041019,46.4381773 53.431535,46.3856502 C54.4404514,45.626612 55.5337847,44.9520952 56.6957123,44.3466544 C56.8724419,43.6533824 57.046824,42.9582716 57.4247637,42.4670174 Z M36.7613444,43.2634559 C37.0242895,43.378562 37.0556905,43.6214309 37.1733374,43.9323338 C37.2646442,44.0535691 37.5186567,44.0268458 37.5854524,44.1873079 C37.6476751,44.3377793 37.5317049,44.6516549 37.5854524,44.8564309 C37.6270358,45.0162188 37.7136172,45.1111598 37.7438292,45.270488 C37.8797985,45.982975 37.6649304,46.9070721 37.458751,47.3095144 C37.2270849,47.760132 37.0877012,48.4361198 36.6980547,48.5837718 C36.4770284,48.5442999 36.3701431,48.3548161 36.1275934,48.3926945 C35.9127254,48.4260372 35.5881978,48.5830976 35.3352523,48.6794177 C34.7844852,48.88876 34.3684985,49.2046582 33.9092821,49.4759052 C33.6749637,49.6138119 33.461559,49.775224 33.2435204,49.921926 C33.0222807,50.0708039 32.7645183,50.1664804 32.5462357,50.3361056 C32.3255753,50.5076921 32.1407668,50.6769189 31.9122409,50.8138755 C31.4460126,51.0939793 30.9072267,51.3238543 30.6761704,51.8007355 C31.5845732,52.1595686 32.4693186,52.3106223 33.2435204,52.6928076 C34.4093198,53.2689816 35.5443584,53.8543187 36.2860617,54.8592291 C36.5123011,55.1664851 36.8506086,55.5198326 37.0147473,55.8791867 C37.1034017,56.0727157 37.1168157,56.3192928 37.2053481,56.5475743 C37.2904966,56.7689604 37.3875043,56.9661975 37.458751,57.1849481 C37.6016407,57.6260042 37.777852,58.1364121 37.8070884,58.5870603 C37.8255937,58.8682673 37.7466949,59.2285408 37.7121538,59.5426002 C37.5991103,60.5639675 37.1433998,61.2597218 36.634643,61.8679208 C35.9418399,62.6974446 35.2008378,63.4421099 34.479286,64.2575059 C34.3700838,64.3812235 34.1750319,64.5880835 34.0673845,64.6715936 C33.7848976,64.8907732 33.5825595,65.1349906 33.3068406,65.3405328 C32.862471,65.6714781 32.4986465,66.0454503 32.0707091,66.3599387 C31.6764896,66.6494507 31.2233095,66.936174 30.7397954,67.2836374 C30.360057,67.5566313 29.8357522,68.0917397 29.2187687,68.0484064 C28.9771031,68.0314592 28.9301236,67.938786 28.7433945,67.8256106 C28.3037198,67.5588991 27.8688925,67.3416195 27.60235,66.9973432 C27.0951785,66.3426851 27.2625792,65.7245262 27.4755266,64.9907402 C27.7835306,63.9274187 28.1439102,63.0508227 28.8065623,62.4098326 C29.0343565,62.1897643 29.2841315,62.0592126 29.56735,61.8363555 C30.5449874,61.0661622 31.5571354,60.3955375 32.4827021,59.5106978 C32.9048471,59.10752 33.4038178,58.7719472 33.8455045,58.2364404 C34.1066509,57.9200519 34.9051503,57.0762777 34.7327803,56.4840759 C34.62495,56.1119731 33.9903149,56.1284606 33.6870363,55.8791867 C32.8542397,55.8508392 32.0005599,55.8134206 31.2153221,55.7193376 L30.6558817,55.6615853 C30.4701052,55.6400259 30.2859141,55.6111728 30.105953,55.5600707 C29.7260621,55.4527181 29.3266295,55.4235125 28.9968888,55.3057402 C28.3196947,55.0637294 27.8614233,54.6181683 27.5704613,54.0309925 C27.4190049,53.7250849 27.3647391,53.394538 27.2218799,53.0434583 C27.0783805,52.6900802 27.1787417,52.3207661 27,51.9600636 L27,51.5140123 C27.2968764,50.2840075 27.4551008,48.9133993 28.2994822,48.2333663 C28.712969,47.5752145 29.3225443,47.0093682 29.9159313,46.4493446 C30.3538988,46.0357473 30.8388457,45.6188708 31.3420235,45.3024823 C31.8677917,44.9714757 32.2874063,44.5195097 32.8315578,44.2193022 C33.2190093,44.004934 33.6097533,43.8992362 34.036014,43.7095073 C34.3825222,43.5549599 34.7829304,43.3513484 35.3036379,43.2634559 C35.5378038,43.223984 35.7973954,43.2262824 36.0644256,43.231768 C36.3551743,43.2377133 36.5722069,43.1805893 36.7613444,43.2634559 Z M84.2364182,39.7909083 C84.5545436,39.9812808 84.7884047,40.2554392 85.1554608,40.3962878 C85.2230796,40.7332091 85.5934282,40.8679286 85.7576888,41.1927753 C85.846953,41.3689894 85.8934447,41.7349017 85.9793249,42.0530983 C86.3196749,43.3091521 86.4311636,45.1326457 86.1380065,46.5447485 C86.2827254,46.9333081 86.1114529,47.4111087 86.0428585,47.8829333 C85.8888413,48.9394208 85.8162532,49.8665212 85.5358089,50.8138786 C85.4867563,50.9791214 85.4623672,51.1510144 85.4091075,51.3228767 C85.3252699,51.592714 85.1307058,51.8244279 85.0600384,52.0878909 C84.9859869,52.3672897 85.0345518,52.6590389 84.9337028,52.9156066 C84.8412986,53.1512124 84.6005781,53.3772261 84.4581761,53.6169078 C84.1173384,54.1903543 83.8918306,54.8866297 83.7292467,55.6874076 C83.5994051,55.7481172 83.5130372,55.8526198 83.4124321,55.9426268 C83.0256818,55.9087631 82.6107926,55.9197956 82.429612,55.6554745 C82.1716057,55.2787749 82.2218778,54.4085839 82.1132853,53.9990625 C82.0647205,53.8177612 81.9445431,53.6506796 81.8911615,53.457549 C81.7597347,52.9822308 81.6904391,52.3915 81.6375148,51.9600667 C81.5814808,51.5034731 81.5748347,50.9535627 81.5740979,50.4634425 C81.5732495,49.684086 81.6777263,48.8337537 81.7644601,48.2016815 C81.8795767,47.3617687 82.0297221,46.5306207 82.2399867,45.8120351 C82.3130626,45.5604628 82.4285145,45.3277989 82.5250344,44.984013 C82.7338662,44.2391332 83.0588815,43.5113845 83.2857307,42.7856584 C83.596387,41.790616 83.8623502,40.8334519 84.2364182,39.9819243 C84.2454726,39.9305924 84.2063281,39.9271294 84.2045294,39.8865236 C84.1957189,39.8349158 84.2344975,39.8317593 84.2364182,39.7909083 Z M63.3826571,46.76805 C62.9173739,46.8938208 62.5009299,47.0908435 62.1784449,47.2138868 C62.0850651,47.2497119 61.9547663,47.2455747 61.8616304,47.2778142 C61.4015603,47.4373569 60.9570688,47.6969279 60.5307167,47.8829486 C60.3233178,47.9733541 60.0985417,48.0982056 59.8965999,48.2016662 C59.5957297,48.3555087 58.9780146,48.6166426 58.8508559,48.8704828 C58.7059236,49.1592593 58.7027835,50.0664705 58.7556774,50.4949618 C58.7940902,50.8031066 58.8542399,51.0844055 58.819333,51.4505323 C58.7491533,52.1787407 58.5808989,52.9110556 58.5972091,53.5534861 C61.1448954,52.4394149 62.980938,50.6115695 64.6187581,48.5837595 C64.9232562,48.0080759 65.4399699,47.4770434 65.347901,46.608446 C64.706437,46.4899995 63.9602217,46.6116638 63.3826571,46.76805 Z M110.731368,34.4068213 C110.894409,34.4906686 111.399538,34.8689005 111.396805,35.0440113 C111.390484,35.455586 110.564699,35.2933159 110.255506,35.2035846 C110.151728,35.2584149 110.033801,35.2990726 109.912129,35.3360023 L109.666877,35.4079855 C109.341438,35.5055879 109.038698,35.6261942 108.955963,35.9678633 C108.669831,36.0637339 108.480004,36.2562149 108.306195,36.4648869 L108.100172,36.7179183 C108.030635,36.8014214 107.958523,36.8823682 107.878696,36.955612 C107.818333,37.0218378 107.842813,37.1736577 107.783792,37.2421513 C107.484446,37.7986506 107.060289,38.3011212 106.738292,38.8672433 C106.650094,39.0220358 106.661923,39.2140019 106.579701,39.3770075 C106.516168,39.5034526 106.35898,39.5941033 106.294989,39.7273824 C106.231364,39.8561565 106.233163,40.0137072 106.16783,40.1415007 C105.904855,40.652644 105.468808,41.3285705 105.438901,42.0531014 C105.284884,42.1556733 105.320278,42.329834 105.248544,42.5626511 C105.165895,42.833132 104.950082,43.0747138 104.868409,43.3272056 C104.813473,43.4963404 104.798839,43.6684173 104.741616,43.8369085 C104.656193,44.0889712 104.613573,44.2914182 104.520437,44.6333654 C104.465989,44.8279057 104.329745,44.9890726 104.29746,45.1750627 C104.274748,45.3077289 104.316544,45.4503857 104.29746,45.5889665 C104.199416,46.3023729 103.814708,46.9919981 103.758766,47.7236388 C103.742486,47.9487025 103.802392,48.1062225 103.790532,48.2970547 C103.776082,48.5424672 103.648039,48.7499708 103.632582,48.9980802 C103.610693,49.3309255 103.676178,49.6866327 103.600816,50.0812909 C103.442225,50.9022032 103.132026,51.7518307 102.71415,52.2787261 C102.505653,52.5398906 102.17012,52.6955413 102.04787,53.0115314 C101.393022,52.9028303 101.174496,52.2947232 100.875211,51.8007416 C100.604034,51.3525757 100.145306,50.8839076 99.8923602,50.367769 C99.8596483,50.2739925 99.7492571,50.2571066 99.67109,50.2084715 C99.4925922,49.5913852 98.8440858,49.4475639 98.7200367,48.7748859 C98.5737935,48.5390349 98.3753271,48.3566304 98.213231,48.1380024 C98.6165354,47.5866209 99.1097137,46.6915455 98.8150018,45.7483253 C99.0280711,45.0710198 98.9884388,44.3087638 99.0998056,43.5501546 C99.1715706,43.0685233 99.3046741,42.5996101 99.385463,42.1166304 C99.5539613,41.1005035 99.6893513,40.0755507 99.8923602,39.153752 C99.9813804,38.7510339 100.167164,38.3285186 100.30475,37.8477454 C100.411879,37.4728845 100.506326,36.7981226 100.715767,36.5735186 C100.843444,36.4373894 101.143582,36.4081839 101.286716,36.2865196 C101.967904,36.6645677 102.106464,37.5859373 102.745063,38.0068897 C103.513929,37.4089571 104.008205,36.5349048 104.741616,35.8404682 C104.897402,35.6927548 105.075442,35.5533159 105.248544,35.3944474 C105.535969,35.1323635 105.633709,34.9705224 105.977443,34.7574719 C106.383521,34.5045818 106.77646,34.1430212 107.276986,34.0564465 C108.376447,33.8667789 109.819459,33.9395629 110.731368,34.4068213 Z M123.503154,36.0315761 C123.927342,36.0940938 123.954536,36.5558972 124.326988,36.6688581 C124.695264,37.1989712 125.127683,37.6363805 125.278529,38.325546 C125.515164,39.411239 125.163199,40.4320853 125.087715,41.4159727 C125.059606,41.7819156 125.068661,42.1154658 124.99275,42.4670052 C124.833794,43.202967 124.554569,43.9044521 124.612676,44.6016162 C124.379669,45.1965761 124.566276,46.1288557 124.200287,46.6404587 C124.237511,46.889702 124.137607,47.0020193 124.137607,47.2138746 C124.024929,47.4049213 123.82189,47.4586129 123.725156,47.6598953 C123.62888,47.8587874 123.691591,48.1455106 123.598943,48.3290184 C123.487667,48.5485964 123.224753,48.5992848 123.154665,48.8385375 C123.144787,49.1471726 123.096619,49.4170405 122.96446,49.6032758 C122.780017,49.5318095 122.72505,49.3035587 122.616123,49.1574389 C122.324063,48.7652631 122.078282,48.3324201 121.665069,48.04205 C121.642387,47.757901 121.495138,47.5962131 121.348499,47.4369156 C120.828858,46.1062697 120.411926,44.5559844 120.524116,42.9767694 C120.549511,42.6190396 120.662189,42.2439642 120.71487,41.8618095 C120.758953,41.5303432 120.760782,41.1788039 120.840717,40.8740608 C121.326609,39.0254375 122.740538,37.4660198 123.503154,36.0315761 Z M144.261603,20.3890641 C144.4551,20.9063366 144.825692,21.2451579 145.053243,21.7274635 C145.408806,23.5815417 144.939193,25.5854479 144.578204,27.2071381 C145.467004,27.3685196 146.438026,27.3089439 147.271859,27.3979703 C148.930654,27.5758086 150.270957,28.2318765 151.582543,28.7044366 C151.647052,28.8822749 151.831007,28.97314 151.804697,29.1502735 C151.766132,29.4013555 151.524923,29.2956884 151.265606,29.4052475 C151.184665,29.439479 151.127564,29.5661999 151.012569,29.6282885 C150.811816,29.7357944 150.568809,29.7494625 150.505763,29.9466997 C150.133708,30.062909 149.808143,30.1199411 149.522821,30.3612777 C149.410235,30.4560349 149.355787,30.6194696 149.237164,30.7112541 C149.113633,30.8077888 148.93605,30.8854149 148.79438,30.9981612 C148.471895,31.2529514 148.342053,31.2899104 147.875093,31.4439981 C147.593917,31.536702 147.22238,31.6691231 146.955807,31.8263979 C146.874042,31.8747878 146.814137,31.9747548 146.733683,32.0176898 C146.208646,32.2969048 145.619131,32.2603442 145.181377,32.5591419 C144.582655,32.7553065 143.424935,32.7084795 143.121138,33.1963319 C142.976724,33.4273409 142.935415,33.9212918 142.867308,34.3116596 C142.532483,36.2301556 143.022118,38.5191301 143.786564,39.8228383 C143.949117,40.0997242 144.205691,40.4334889 144.452356,40.7466902 C144.717069,41.0831825 145.095009,41.509835 145.498344,41.5750802 C145.943079,41.6467916 146.598415,41.4833876 146.987574,41.4159972 C148.702128,41.117843 150.378574,40.6375908 151.836433,40.0456341 C152.092153,39.9414993 152.34519,39.8235125 152.596276,39.7273762 C153.140427,39.5180952 153.966578,39.2884041 154.434361,38.9624234 C154.543411,38.8875554 154.617493,38.6651886 154.783766,38.7076945 C154.790076,39.111761 154.458994,39.4518388 154.339884,39.7909052 C154.223243,40.1237199 154.170562,40.2599717 153.895819,40.4597218 C153.813049,40.5202475 153.671866,40.5617421 153.610985,40.6192951 C153.529708,40.6953277 153.526934,40.8357166 153.452517,40.906049 C153.254904,41.0927746 152.912023,41.1153607 152.8184,41.4159972 C152.448691,41.5858369 152.150352,41.8273574 151.962769,42.180521 C151.021624,42.3697595 150.771391,43.2552428 149.997982,43.6139227 C149.913413,43.9871287 149.495658,44.0617515 149.269449,44.3147336 C149.178112,44.416049 149.144516,44.5916195 149.047295,44.6970415 C148.885199,44.8726426 148.590365,44.9185502 148.476437,45.1431542 C148.23529,45.2445309 148.014934,45.3707308 147.684736,45.4618105 C147.569376,45.4935596 147.495355,45.5912282 147.399079,45.6208934 C147.263811,45.6629397 147.077082,45.6371358 146.924009,45.6846063 C146.795875,45.724538 146.687435,45.826834 146.575702,45.8442103 C145.794946,45.9654149 145.236314,45.5102617 144.546407,45.4301226 C144.271633,45.165066 143.908205,44.9888213 143.469536,44.8881801 C143.286892,44.6142056 142.969468,44.4937058 142.740119,44.2512353 C142.687804,44.1950613 142.675091,44.0857473 142.614241,44.0279797 C142.288585,43.7198043 141.788059,43.5563696 141.63142,43.0721334 C141.565113,43.0222112 141.421125,43.0504668 141.345793,43.008727 C140.591377,42.1659029 139.83876,41.3363178 139.318296,40.2052381 C139.25644,40.0728171 139.257415,39.9029774 139.191107,39.7594012 C139.134372,39.6351933 139.019012,39.5313036 138.969014,39.4087199 C138.834081,39.0782037 138.769602,38.6615724 138.652931,38.2616124 C138.542997,37.8888661 138.393614,37.4895804 138.335385,37.1147195 C138.141491,35.8555092 138.186459,34.4906624 138.208196,33.0372183 C138.020582,32.9349222 137.893088,33.0784983 137.733157,33.1009005 C136.754788,32.862322 136.399682,31.9993942 135.609902,31.5714239 C135.26882,30.9164592 134.697383,30.4921051 134.532483,29.6599764 C134.664641,29.4876544 134.800885,29.326702 135.03941,29.2142008 C135.947722,28.7834111 137.059652,28.5942032 138.177404,28.3538166 C138.552052,28.2730033 139.150652,28.261082 139.380976,28.1309901 C139.668463,27.9684135 140.019087,26.7976167 140.17347,26.4743329 C140.465042,25.8627628 140.707195,25.3699458 141.029192,24.881174 C141.593251,23.7235549 142.39669,22.5294059 143.15199,21.4727346 C143.480877,21.0138425 143.734737,20.6077841 144.198435,20.3890641 L144.261603,20.3890641 Z M86.0746253,22.1413979 C86.3019318,22.3780764 86.3777819,22.6417232 86.6133197,22.9061056 C86.7843484,23.0978265 87.0777189,23.1715912 87.2469488,23.3521264 C87.3171284,23.4261363 87.3486514,23.5925436 87.4374277,23.7025625 C87.536478,23.825851 87.7041226,23.9016077 87.7539983,23.9892857 C87.7932343,24.0570745 87.7833567,24.2305917 87.8176539,24.3396912 C87.8714014,24.5115842 88.0780686,24.725033 88.1980021,24.9770344 C88.3015034,25.1948656 88.4543926,25.6176261 88.419882,25.7413437 C88.3839995,25.8693824 88.2870223,25.8294507 88.1662353,25.9328807 C87.8406102,26.210686 87.8703039,26.4807685 87.7860091,27.0477793 C87.7119576,27.5438142 87.3656933,28.0129727 87.1522581,28.4174682 C86.9435483,28.8123715 86.7528254,29.2308416 86.3914398,29.4691749 C86.2195576,29.8695332 85.9238701,30.1457756 85.8212225,30.6158227 C85.4027054,30.8961716 85.0584531,31.2508982 84.8070014,31.6990335 C84.6086773,31.7723079 84.4462356,31.8816491 84.2935587,32.0007823 L83.9934858,32.2443194 C83.7917987,32.4050013 83.5765166,32.5519503 83.2857307,32.6228854 C83.1765285,32.6616832 83.2046979,32.8388472 83.0954957,32.8776143 C82.9724221,32.8637011 82.8447451,32.8534653 82.7469143,32.8139321 C83.0736369,31.1563861 83.111562,29.0208557 83.444077,27.3342574 C83.5530354,26.7811598 83.6872059,26.3538331 83.8241813,25.7413437 C83.8877149,25.4594319 84.0267328,25.1985125 84.1412397,24.9451014 C84.2070903,24.7994719 84.2679411,24.7371075 84.2679411,24.4990193 C84.7123107,23.6607921 85.1004938,22.7657166 85.9161571,22.3009099 C85.9112183,22.2216902 85.9659108,22.2020769 85.9793249,22.1413979 L86.0746253,22.1413979 Z M127.179678,17.9999111 C127.398174,18.0562996 127.440916,18.2898215 127.686606,18.3185368 C127.719348,18.6475207 128.04037,18.7591638 128.225301,18.9556655 C128.511781,19.2595198 128.55998,19.8548781 129.017764,20.0388762 C128.798445,20.6993265 129.548257,20.8671129 129.430214,21.6318512 C129.369333,21.6670021 129.279855,21.6724571 129.20809,21.6955335 C129.085535,21.9973039 128.965083,22.3011582 128.828016,22.5873911 C128.984168,23.0472025 128.57315,23.5169432 128.542725,23.9573251 C128.520958,24.2689328 128.48102,24.6704557 128.320235,24.9451044 C128.194387,25.1610356 127.884188,25.2096707 127.845074,25.4865566 C127.756542,25.503657 127.680204,25.5333835 127.592129,25.5502388 C127.471738,26.088136 127.002126,26.2741261 126.641106,26.5697673 C126.646533,26.6930559 126.641929,26.8046377 126.609217,26.8882397 C126.410751,27.0084943 126.205059,27.1194632 126.101436,27.3342605 L125.880318,27.3342605 C125.789328,27.2001068 125.734936,27.0292302 125.687968,26.8509464 L125.619436,26.5816297 C125.537468,26.2694959 125.433561,25.9795669 125.151358,25.8689564 C125.059594,25.4039352 124.760736,24.7864198 124.707111,24.3079757 C124.678118,24.0440837 124.751682,23.7724076 124.707111,23.4795552 C124.683545,23.3136075 124.553612,23.1658942 124.5491,23.0019691 C124.547301,22.9131572 124.628974,22.8540106 124.643607,22.7472402 C124.67257,22.5527306 124.554587,22.2924854 124.580897,22.141401 C124.607237,21.9893053 124.763389,21.8952836 124.834788,21.7274665 C124.96283,21.4261865 124.963776,21.0159295 125.087733,20.676005 C125.150413,20.5048168 125.250409,20.2808871 125.341593,20.1028036 C125.538352,19.7181667 125.66917,19.5200101 125.943974,19.2107008 C126.036957,19.1051869 126.212345,19.0175396 126.292311,18.9239776 C126.336273,18.8719102 126.310908,18.7760497 126.355327,18.7328696 C126.6301,18.4655759 126.993894,18.2886876 127.179678,17.9999111 Z" id="Fill-2" fill="#000000"></path>
    </g>
</svg>