<?xml version="1.0" encoding="UTF-8"?>
<svg width="184px" height="100px" viewBox="0 0 184 100" version="1.1" xmlns="http://www.w3.org/2000/svg" xmlns:xlink="http://www.w3.org/1999/xlink">
    <title>01_logos / Clients / Unitlife / Black Copy</title>
    <g id="01_logos-/-Clients-/-Unitlife-/-Black-Copy" stroke="none" stroke-width="1" fill="none" fill-rule="evenodd">
        <g id="Group" transform="translate(4.000000, 17.498804)" fill-rule="nonzero">
            <path d="M70.3846495,28.2955183 L72.9696594,28.2955183 L72.9696594,39.5713315 C72.9696594,42.3889923 74.2311442,43.7538775 76.9143845,43.7538775 C79.4993944,43.7538775 81.3916216,42.3269521 81.4536619,39.6023516 L81.4536619,28.2955183 L84.0386717,28.2955183 L84.0386717,45.5271943 L82.017194,45.5271943 L81.5208721,43.7228574 L81.3864516,43.7228574 C80.8901297,44.3897899 79.2667435,45.8787557 76.2474519,45.8787557 C72.5353777,45.8787557 70.4777098,44.0123785 70.3794795,40.0831635 L70.3794795,28.2955183 L70.3846495,28.2955183 Z" id="Path" fill="#000000"></path>
            <path d="M103.167745,45.5220243 L100.582735,45.5220243 L100.582735,34.215191 C100.582735,31.5888209 99.2230199,30.1308754 96.7052202,30.1308754 C94.4821117,30.1308754 92.7604951,31.5267807 92.1297527,33.2018671 L92.1297527,45.5220243 L89.5447428,45.5220243 L89.5447428,28.2903483 L91.4990103,28.2903483 L92.0315223,30.0946852 L92.1659429,30.0946852 C92.6622648,29.4949629 94.4872818,27.938787 97.3049425,27.938787 C100.918786,27.938787 103.074685,29.8051641 103.172915,33.6413188 L103.172915,45.5220243 L103.167745,45.5220243 Z" id="Path" fill="#000000"></path>
            <path d="M110.555703,21.4504121 C111.651747,21.4504121 112.478951,22.210405 112.478951,23.254749 C112.478951,24.2680729 111.651747,25.0280658 110.555703,25.0280658 C109.526869,25.0280658 108.699666,24.2680729 108.699666,23.254749 C108.699666,22.210405 109.526869,21.4504121 110.555703,21.4504121 Z M109.428639,28.2955183 L112.013649,28.2955183 L112.013649,45.5271943 L109.428639,45.5271943 L109.428639,28.2955183 Z" id="Shape" fill="#000000"></path>
            <path d="M118.708824,40.9310467 L118.708824,30.291146 L116.025584,30.291146 L116.025584,28.7091199 L118.708824,28.2334781 L119.505008,23.766581 L121.262814,23.766581 L121.262814,28.2955183 L126.236373,28.2955183 L126.236373,30.291146 L121.262814,30.291146 L121.262814,40.8069662 C121.262814,42.7405536 122.291648,43.5315667 123.884014,43.5315667 C125.34196,43.5315667 126.169163,43.2161955 126.634465,42.9318444 L127.363438,44.8964519 C126.665485,45.2790334 125.47121,45.6874649 123.320482,45.6874649 C120.332211,45.6822949 118.708824,44.1933292 118.708824,40.9310467 Z" id="Path" fill="#000000"></path>
            <path d="M133.526101,21.4866023 L133.526101,41.4428787 C133.526101,42.9628645 134.058613,43.629797 135.413158,43.629797 C136.074921,43.629797 136.571243,43.4385063 136.907294,43.2834057 L136.907294,45.3720937 C136.245532,45.6564448 135.351118,45.7546752 134.653166,45.7546752 C132.166386,45.7546752 130.972111,44.3587698 130.972111,42.1149812 L130.972111,21.4969423 L133.526101,21.4969423 L133.526101,21.4866023 Z" id="Path" fill="#000000"></path>
            <path d="M142.309965,21.4504121 C143.406009,21.4504121 144.233212,22.210405 144.233212,23.254749 C144.233212,24.2680729 143.406009,25.0280658 142.309965,25.0280658 C141.281131,25.0280658 140.453928,24.2680729 140.453928,23.254749 C140.453928,22.210405 141.281131,21.4504121 142.309965,21.4504121 Z M141.182901,28.2955183 L143.76791,28.2955183 L143.76791,45.5271943 L141.182901,45.5271943 L141.182901,28.2955183 Z" id="Shape" fill="#000000"></path>
            <path d="M158.481787,23.6683506 C157.820024,23.4460398 157.091051,23.3529794 156.062217,23.3529794 C154.340601,23.3529794 153.673668,24.1129723 153.673668,25.6639783 L153.673668,28.2903483 L158.347366,28.2903483 L158.347366,30.2239357 L153.642648,30.2239357 L153.642648,45.5220243 L151.057638,45.5220243 L151.057638,30.2239357 L148.074537,30.2239357 L148.074537,28.2903483 L151.088658,28.2903483 L151.088658,25.6949984 C151.088658,23.0324382 152.712045,21.1970812 156.227658,21.1970812 C157.489143,21.1970812 158.316346,21.3573518 159.014299,21.5796626 L158.481787,23.6683506 Z" id="Path" fill="#000000"></path>
            <path d="M174.291707,44.1933292 C173.097433,45.0463825 171.210375,45.7443351 168.625366,45.7443351 C163.486366,45.7443351 160.704895,43.2420456 160.704895,36.8105409 C160.704895,30.570327 164.349759,28.0059972 168.361695,28.0059972 C172.637301,28.0059972 174.92762,30.6685574 174.92762,34.7528731 C174.92762,35.6059263 174.860409,36.6244202 174.731159,37.7308045 L163.264055,37.7308045 C163.496706,41.9753907 165.352743,43.5884369 168.966587,43.5884369 C170.755414,43.5884369 172.3788,42.9215043 173.143963,42.2907619 L174.291707,44.1933292 Z M163.289905,35.7041567 L172.33744,35.7041567 C172.36846,35.3577654 172.36846,34.9131437 172.36846,34.7218529 C172.36846,31.7749417 171.044935,30.1308754 168.123874,30.1308754 C165.776685,30.1308754 163.522556,31.5578008 163.289905,35.7041567 Z" id="Shape" fill="#000000"></path>
            <path d="M72.4423174,54.5230287 L73.657272,58.1472126 L72.9282992,58.1472126 L72.6336081,57.2269491 L71.2325327,57.2269491 L70.9378416,58.1472126 L70.2347189,58.1472126 L71.4445035,54.5230287 L72.4423174,54.5230287 Z M71.4031434,56.684097 L72.4629974,56.684097 L72.2200065,55.9085941 C72.1166061,55.5570327 71.9976956,55.1951313 71.9511655,54.9676504 L71.9304854,54.9676504 C71.8787852,55.1847913 71.7650448,55.5725428 71.6616444,55.893084 L71.4031434,56.684097 Z" id="Shape" fill="#2F241E"></path>
            <path d="M76.3973825,56.8702177 L76.3973825,54.5230287 L77.0953352,54.5230287 L77.0953352,56.7823274 C77.0953352,57.8008213 76.4335726,58.1989128 75.5701793,58.1989128 C74.6085556,58.1989128 74.169104,57.6715708 74.169104,56.9115779 L74.169104,54.5230287 L74.8670566,54.5230287 L74.8670566,56.7926674 C74.8670566,57.3613696 75.1307276,57.6457207 75.6632397,57.6457207 C76.1285415,57.6457207 76.3973825,57.4285799 76.3973825,56.8702177 Z" id="Path" fill="#2F241E"></path>
            <path d="M81.4123017,57.195929 C81.4123017,56.5289964 79.5924547,56.6479069 79.5924547,55.5053325 C79.5924547,54.9211203 80.1404768,54.4713285 80.9056398,54.4713285 C81.4743419,54.4713285 81.8569234,54.6936394 82.017194,54.85391 L81.5880824,55.3398919 C81.4536619,55.2158114 81.226181,55.0348607 80.8487695,55.0348607 C80.4972082,55.0348607 80.3007474,55.2158114 80.3007474,55.4536323 C80.3007474,56.1360749 82.1154244,56.0119944 82.1154244,57.1545688 C82.1154244,57.6974209 81.6346125,58.1989128 80.704009,58.1989128 C80.0112263,58.1989128 79.5666046,57.9300718 79.401164,57.7749712 L79.8044255,57.2424592 C79.9905462,57.4027298 80.3162575,57.6457207 80.7918993,57.6457207 C81.2055009,57.6457207 81.4123017,57.4440899 81.4123017,57.195929 Z" id="Path" fill="#2F241E"></path>
            <polygon id="Path" fill="#2F241E" points="82.8960974 58.1420426 82.8960974 54.5178587 85.1192059 54.5178587 85.1192059 55.0607108 83.59405 55.0607108 83.59405 56.0326745 84.9124051 56.0326745 84.9124051 56.5755266 83.59405 56.5755266 83.59405 57.5991905 85.1915862 57.5991905 85.1915862 58.1420426 82.8960974 58.1420426"></polygon>
            <path d="M87.1717037,54.5230287 C88.019587,54.5230287 88.5107389,54.8228899 88.5107389,55.5725428 C88.5107389,56.1877751 88.1281574,56.5031463 87.6628556,56.5703566 L87.6628556,56.5910367 C87.8541464,56.673757 87.9782268,56.8030075 88.1643475,57.0976986 L88.80543,58.1472126 L87.9730568,58.1472126 L87.3061243,56.9736181 C87.2078939,56.8081775 87.0734734,56.7409672 86.8563325,56.7409672 L86.706402,56.7409672 L86.706402,58.1472126 L86.0136193,58.1472126 L86.0136193,54.5230287 L87.1717037,54.5230287 Z M86.706402,56.2136252 L87.0941534,56.2136252 C87.5801353,56.2136252 87.8024462,56.0275045 87.8024462,55.629413 C87.8024462,55.2313215 87.5439452,55.0658808 87.0889834,55.0658808 L86.706402,55.0658808 L86.706402,56.2136252 Z" id="Shape" fill="#2F241E"></path>
            <path d="M88.8416201,54.5230287 L89.6119531,54.5230287 L90.3305858,56.7306272 C90.3977961,56.9684481 90.5373866,57.3768797 90.5942568,57.6198706 L90.6149369,57.6198706 C90.6666371,57.3872197 90.7855476,56.9736181 90.8579279,56.7254572 L91.5765606,54.5230287 L92.3055334,54.5230287 L91.0388785,58.1472126 L90.0979349,58.1472126 L88.8416201,54.5230287 Z" id="Path" fill="#2F241E"></path>
            <polygon id="Path" fill="#2F241E" points="92.9414458 54.5230287 93.6393985 54.5230287 93.6393985 58.1472126 92.9414458 58.1472126"></polygon>
            <path d="M96.1882183,54.4764986 C96.891341,54.4764986 97.2222222,54.7453396 97.3359627,54.84874 L96.8861709,55.3243818 C96.7465804,55.1899613 96.5449496,55.0296907 96.1365181,55.0296907 C95.5523058,55.0296907 95.2265946,55.4329522 95.2265946,56.3221956 C95.2265946,57.1597388 95.5471358,57.6353807 96.1933883,57.6353807 C96.5707997,57.6353807 96.7879406,57.4906201 96.9171911,57.3613696 L97.2997725,57.8215014 C97.1291619,57.997282 96.7517504,58.1989128 96.126178,58.1989128 C94.9732636,58.1989128 94.5131319,57.46477 94.5131319,56.3687258 C94.5131319,55.2106414 95.087004,54.4764986 96.1882183,54.4764986 Z" id="Path" fill="#2F241E"></path>
            <polygon id="Path" fill="#2F241E" points="98.0080652 58.1420426 98.0080652 54.5178587 100.231174 54.5178587 100.231174 55.0607108 98.7060179 55.0607108 98.7060179 56.0326745 100.024373 56.0326745 100.024373 56.5755266 98.7060179 56.5755266 98.7060179 57.5991905 100.303554 57.5991905 100.303554 58.1420426 98.0080652 58.1420426"></polygon>
            <path d="M102.764483,54.5230287 L103.907058,54.5230287 C105.142693,54.5230287 105.701055,55.0917309 105.701055,56.2704954 C105.701055,57.2941594 105.261603,58.1472126 103.912228,58.1472126 L102.764483,58.1472126 L102.764483,54.5230287 Z M103.457266,57.6043605 L103.865698,57.6043605 C104.682561,57.6043605 104.977252,57.1597388 104.977252,56.3325357 C104.977252,55.381252 104.54814,55.0658808 103.850188,55.0658808 L103.457266,55.0658808 L103.457266,57.6043605 Z" id="Shape" fill="#2F241E"></path>
            <polygon id="Path" fill="#2F241E" points="106.517918 58.1420426 106.517918 54.5178587 108.741026 54.5178587 108.741026 55.0607108 107.21587 55.0607108 107.21587 56.0326745 108.534226 56.0326745 108.534226 56.5755266 107.21587 56.5755266 107.21587 57.5991905 108.813407 57.5991905 108.813407 58.1420426 106.517918 58.1420426"></polygon>
            <path d="M111.320866,57.195929 C111.320866,56.5289964 109.501019,56.6479069 109.501019,55.5053325 C109.501019,54.9211203 110.049041,54.4713285 110.814204,54.4713285 C111.382906,54.4713285 111.765488,54.6936394 111.930929,54.85391 L111.501817,55.3398919 C111.367396,55.2158114 111.139916,55.0348607 110.762504,55.0348607 C110.410943,55.0348607 110.214482,55.2158114 110.214482,55.4536323 C110.214482,56.1360749 112.029159,56.0119944 112.029159,57.1545688 C112.029159,57.6974209 111.548347,58.1989128 110.617744,58.1989128 C109.924961,58.1989128 109.480339,57.9300718 109.314899,57.7749712 L109.71816,57.2424592 C109.904281,57.4027298 110.229992,57.6457207 110.705634,57.6457207 C111.114065,57.6457207 111.320866,57.4440899 111.320866,57.195929 Z" id="Path" fill="#2F241E"></path>
            <path d="M117.199179,54.84874 L116.754557,55.3088718 C116.599456,55.1641112 116.377146,55.0348607 115.999734,55.0348607 C115.467222,55.0348607 114.96056,55.3088718 114.96056,56.2911755 C114.96056,57.2579692 115.312121,57.6612308 116.004904,57.6612308 C116.170345,57.6612308 116.382316,57.6353807 116.496056,57.5785104 L116.496056,56.2911755 L117.194009,56.2911755 L117.194009,57.8783716 C116.919998,58.0593223 116.542586,58.1989128 115.865314,58.1989128 C114.79512,58.1989128 114.252267,57.5785104 114.252267,56.3583858 C114.252267,55.0503708 115.04328,54.4713285 116.041094,54.4713285 C116.754557,54.4713285 117.090608,54.7349996 117.199179,54.84874 Z" id="Path" fill="#2F241E"></path>
            <path d="M118.114272,58.1420426 L118.114272,54.5178587 L120.337381,54.5178587 L120.337381,55.0607108 L118.812225,55.0607108 L118.812225,56.0326745 L120.13058,56.0326745 L120.13058,56.5755266 L118.812225,56.5755266 L118.812225,57.5991905 L120.409761,57.5991905 L120.409761,58.1420426 L118.114272,58.1420426 L118.114272,58.1420426 Z M119.220656,54.1921475 L118.848415,53.9077964 L119.846229,53.1684836 L120.461461,53.4993648 L119.220656,54.1921475 Z" id="Shape" fill="#2F241E"></path>
            <path d="M121.872877,55.3243818 C121.898727,55.5777128 121.914237,56.0326745 121.914237,56.4721262 L121.914237,58.1472126 L121.252474,58.1472126 L121.252474,54.5230287 L122.121038,54.5230287 L123.113681,56.2808355 C123.248102,56.5238264 123.527283,57.0253183 123.625513,57.2786493 L123.651363,57.2786493 C123.625513,56.9219179 123.625513,56.3170256 123.625513,56.0481846 L123.625513,54.5230287 L124.282106,54.5230287 L124.282106,58.1472126 L123.429053,58.1472126 L122.395049,56.3221956 C122.260628,56.0740347 122.017637,55.6035629 121.903897,55.3243818 L121.872877,55.3243818 L121.872877,55.3243818 Z" id="Path" fill="#2F241E"></path>
            <path d="M125.3006,58.1420426 L125.3006,54.5178587 L127.523708,54.5178587 L127.523708,55.0607108 L125.998552,55.0607108 L125.998552,56.0326745 L127.316907,56.0326745 L127.316907,56.5755266 L125.998552,56.5755266 L125.998552,57.5991905 L127.596089,57.5991905 L127.596089,58.1420426 L125.3006,58.1420426 L125.3006,58.1420426 Z M126.401814,54.1921475 L126.029573,53.9077964 L127.027386,53.1684836 L127.642619,53.4993648 L126.401814,54.1921475 Z" id="Shape" fill="#2F241E"></path>
            <path d="M129.581376,54.5230287 C130.429259,54.5230287 130.920411,54.8228899 130.920411,55.5725428 C130.920411,56.1877751 130.53783,56.5031463 130.072528,56.5703566 L130.072528,56.5910367 C130.263819,56.673757 130.387899,56.8030075 130.57402,57.0976986 L131.215102,58.1472126 L130.387899,58.1472126 L129.720967,56.9736181 C129.622736,56.8081775 129.488316,56.7409672 129.271175,56.7409672 L129.121244,56.7409672 L129.121244,58.1472126 L128.428462,58.1472126 L128.428462,54.5230287 L129.581376,54.5230287 Z M129.110904,56.2136252 L129.498656,56.2136252 C129.984638,56.2136252 130.206949,56.0275045 130.206949,55.629413 C130.206949,55.2313215 129.948448,55.0658808 129.493486,55.0658808 L129.110904,55.0658808 L129.110904,56.2136252 Z" id="Shape" fill="#2F241E"></path>
            <path d="M133.655352,54.5230287 L134.870306,58.1472126 L134.141334,58.1472126 L133.846642,57.2269491 L132.445567,57.2269491 L132.150876,58.1472126 L131.447753,58.1472126 L132.657538,54.5230287 L133.655352,54.5230287 Z M132.611008,56.684097 L133.670862,56.684097 L133.427871,55.9085941 C133.3193,55.5570327 133.20556,55.1951313 133.15903,54.9676504 L133.13835,54.9676504 C133.08665,55.1847913 132.972909,55.5725428 132.869509,55.893084 L132.611008,56.684097 Z" id="Shape" fill="#2F241E"></path>
            <polygon id="Path" fill="#2F241E" points="135.75955 55.0658808 134.761736 55.0658808 134.761736 54.5230287 137.450146 54.5230287 137.450146 55.0658808 136.457502 55.0658808 136.457502 58.1472126 135.75438 58.1472126 135.75438 55.0658808"></polygon>
            <polygon id="Path" fill="#2F241E" points="138.080889 54.5230287 138.778841 54.5230287 138.778841 58.1472126 138.080889 58.1472126"></polygon>
            <path d="M141.198411,58.1937428 C140.241957,58.1937428 139.652575,57.6974209 139.652575,56.3532158 C139.652575,55.0245207 140.303997,54.4661585 141.250111,54.4661585 C142.201394,54.4661585 142.811457,54.9676504 142.811457,56.3118556 C142.806287,57.6405507 142.144524,58.1937428 141.198411,58.1937428 Z M141.244941,57.6508907 C141.761943,57.6508907 142.087654,57.3355195 142.087654,56.3532158 C142.087654,55.360572 141.746433,55.0193506 141.208751,55.0193506 C140.707259,55.0193506 140.366037,55.3243818 140.366037,56.3118556 C140.366037,57.3096694 140.702089,57.6508907 141.244941,57.6508907 Z" id="Shape" fill="#2F241E"></path>
            <path d="M144.264232,55.3243818 C144.290082,55.5777128 144.305592,56.0326745 144.305592,56.4721262 L144.305592,58.1472126 L143.64383,58.1472126 L143.64383,54.5230287 L144.512393,54.5230287 L145.505037,56.2808355 C145.639458,56.5238264 145.918639,57.0253183 146.016869,57.2786493 L146.042719,57.2786493 C146.016869,56.9219179 146.016869,56.3170256 146.016869,56.0481846 L146.016869,54.5230287 L146.673462,54.5230287 L146.673462,58.1472126 L145.820408,58.1472126 L144.786404,56.3221956 C144.651984,56.0740347 144.408993,55.6035629 144.295252,55.3243818 L144.264232,55.3243818 L144.264232,55.3243818 Z" id="Path" fill="#2F241E"></path>
            <path d="M149.377382,57.195929 C149.377382,56.5289964 147.557535,56.6479069 147.557535,55.5053325 C147.557535,54.9211203 148.105557,54.4713285 148.87072,54.4713285 C149.439422,54.4713285 149.822004,54.6936394 149.987444,54.85391 L149.558333,55.3398919 C149.423912,55.2158114 149.196431,55.0348607 148.81902,55.0348607 C148.467458,55.0348607 148.270998,55.2158114 148.270998,55.4536323 C148.270998,56.1360749 150.085675,56.0119944 150.085675,57.1545688 C150.085675,57.6974209 149.604863,58.1989128 148.674259,58.1989128 C147.981477,58.1989128 147.536855,57.9300718 147.371414,57.7749712 L147.774676,57.2424592 C147.960796,57.4027298 148.286508,57.6457207 148.76215,57.6457207 C149.170581,57.6457207 149.377382,57.4440899 149.377382,57.195929 Z" id="Path" fill="#2F241E"></path>
            <polygon id="Path" fill="#2F241E" points="152.489734 58.1420426 152.489734 54.5178587 154.707672 54.5178587 154.707672 55.0607108 153.187686 55.0607108 153.187686 56.167095 154.506042 56.167095 154.506042 56.7099471 153.187686 56.7099471 153.187686 58.1420426 152.489734 58.1420426"></polygon>
            <path d="M157.644244,56.8702177 L157.644244,54.5230287 L158.342196,54.5230287 L158.342196,56.7823274 C158.342196,57.8008213 157.680434,58.1989128 156.81704,58.1989128 C155.855417,58.1989128 155.415965,57.6715708 155.415965,56.9115779 L155.415965,54.5230287 L156.113918,54.5230287 L156.113918,56.7926674 C156.113918,57.3613696 156.377589,57.6457207 156.910101,57.6457207 C157.370233,57.6457207 157.644244,57.4285799 157.644244,56.8702177 Z" id="Path" fill="#2F241E"></path>
            <polygon id="Path" fill="#2F241E" points="159.893202 55.0658808 158.895388 55.0658808 158.895388 54.5230287 161.583799 54.5230287 161.583799 55.0658808 160.591155 55.0658808 160.591155 58.1472126 159.888032 58.1472126 159.888032 55.0658808"></polygon>
            <path d="M164.375609,56.8702177 L164.375609,54.5230287 L165.073562,54.5230287 L165.073562,56.7823274 C165.073562,57.8008213 164.411799,58.1989128 163.548406,58.1989128 C162.586782,58.1989128 162.147331,57.6715708 162.147331,56.9115779 L162.147331,54.5230287 L162.845283,54.5230287 L162.845283,56.7926674 C162.845283,57.3613696 163.108954,57.6457207 163.641467,57.6457207 C164.106768,57.6457207 164.375609,57.4285799 164.375609,56.8702177 Z" id="Path" fill="#2F241E"></path>
            <path d="M167.22946,54.5230287 C168.077343,54.5230287 168.568495,54.8228899 168.568495,55.5725428 C168.568495,56.1877751 168.185914,56.5031463 167.720612,56.5703566 L167.720612,56.5910367 C167.911903,56.673757 168.035983,56.8030075 168.222104,57.0976986 L168.863187,58.1472126 L168.035983,58.1472126 L167.369051,56.9736181 C167.27082,56.8081775 167.1364,56.7409672 166.919259,56.7409672 L166.769328,56.7409672 L166.769328,58.1472126 L166.076546,58.1472126 L166.076546,54.5230287 L167.22946,54.5230287 Z M166.764158,56.2136252 L167.15191,56.2136252 C167.637892,56.2136252 167.860203,56.0275045 167.860203,55.629413 C167.860203,55.2313215 167.601702,55.0658808 167.14674,55.0658808 L166.764158,55.0658808 L166.764158,56.2136252 Z" id="Shape" fill="#2F241E"></path>
            <polygon id="Path" fill="#2F241E" points="169.488759 58.1420426 169.488759 54.5178587 171.711867 54.5178587 171.711867 55.0607108 170.186712 55.0607108 170.186712 56.0326745 171.505067 56.0326745 171.505067 56.5755266 170.186712 56.5755266 170.186712 57.5991905 171.784248 57.5991905 171.784248 58.1420426 169.488759 58.1420426"></polygon>
            <path d="M174.291707,57.195929 C174.291707,56.5289964 172.47186,56.6479069 172.47186,55.5053325 C172.47186,54.9211203 173.019882,54.4713285 173.785045,54.4713285 C174.353748,54.4713285 174.736329,54.6936394 174.90177,54.85391 L174.472658,55.3398919 C174.338237,55.2158114 174.110757,55.0348607 173.733345,55.0348607 C173.381784,55.0348607 173.185323,55.2158114 173.185323,55.4536323 C173.185323,56.1360749 175,56.0119944 175,57.1545688 C175,57.6974209 174.519188,58.1989128 173.588585,58.1989128 C172.895802,58.1989128 172.45118,57.9300718 172.28574,57.7749712 L172.689001,57.2424592 C172.875122,57.4027298 173.200833,57.6457207 173.676475,57.6457207 C174.084906,57.6457207 174.291707,57.4440899 174.291707,57.195929 Z" id="Path" fill="#2F241E"></path>
            <rect id="Rectangle" fill="#000000" x="41.256758" y="9.76996262e-14" width="19.3048539" height="18.5862212"></rect>
            <rect id="Rectangle" fill="#000000" x="41.256758" y="19.9149162" width="19.3048539" height="18.5913912"></rect>
            <rect id="Rectangle" fill="#000000" x="20.5611687" y="19.9149162" width="19.3048539" height="18.5862212"></rect>
            <rect id="Rectangle" fill="#000000" x="41.256758" y="39.8039824" width="19.3048539" height="18.4828208"></rect>
            <rect id="Rectangle" fill="#000000" x="20.5611687" y="39.8039824" width="19.3048539" height="18.4569707"></rect>
            <rect id="Rectangle" fill="#000000" x="3.21520588e-13" y="39.8298325" width="19.3048539" height="18.4569707"></rect>
            <path d="M13.7625927,55.4949925 C13.1680404,55.8000236 11.9168956,56.0998848 10.3452096,56.0998848 C6.69517563,56.0998848 3.96540518,53.8250761 3.96540518,49.61668 C3.96540518,45.5944046 6.71068569,42.9059943 10.7329611,42.9059943 C12.3253272,42.9059943 13.3645012,43.2472156 13.8091229,43.4746964 L13.3851812,44.8189016 C12.7699489,44.5138704 11.8651954,44.2863896 10.7898313,44.2863896 C7.75502969,44.2863896 5.73355195,46.1992969 5.73355195,49.5598097 C5.73355195,52.7083518 7.55856894,54.6988094 10.6916009,54.6988094 C11.7307749,54.6988094 12.7647789,54.4920086 13.4420515,54.1662974 L13.7625927,55.4949925 Z" id="Path" fill="#FFFFFF"></path>
            <path d="M25.1521463,43.3299359 C26.1706402,43.1593252 27.3804248,43.0455848 28.7091199,43.0455848 C31.1131791,43.0455848 32.8244557,43.614287 33.95669,44.6379509 C35.1302845,45.6822949 35.8023871,47.1609206 35.8023871,49.2289285 C35.8023871,51.3124465 35.1302845,53.018553 33.9411799,54.1973175 C32.7107152,55.3915921 30.7099176,56.0326745 28.1921179,56.0326745 C26.9823333,56.0326745 26.0000295,55.9758043 25.1573163,55.882744 L25.1573163,43.3299359 L25.1521463,43.3299359 Z M26.8220627,54.6315992 C27.2460043,54.6884694 27.8612367,54.7091495 28.5126592,54.7091495 C32.1058229,54.7091495 34.0290703,52.7393719 34.0290703,49.2857987 C34.0497504,46.2716772 32.3177937,44.3587698 28.7815002,44.3587698 C27.9181069,44.3587698 27.2615144,44.4363201 26.8220627,44.5293805 L26.8220627,54.6315992 L26.8220627,54.6315992 Z" id="Shape" fill="#FFFFFF"></path>
            <polygon id="Path" fill="#FFFFFF" points="47.543502 43.1438152 54.5178587 43.1438152 54.5178587 44.5242105 49.2340985 44.5242105 49.2340985 48.7739667 54.1145972 48.7739667 54.1145972 50.138852 49.2340985 50.138852 49.2340985 55.9189341 47.543502 55.9189341"></polygon>
            <path d="M27.0857337,23.1720287 L27.0857337,30.7564478 C27.0857337,33.5999586 28.3730686,34.8149133 30.1050253,34.8149133 C32.0075925,34.8149133 33.2587373,33.5637685 33.2587373,30.7564478 L33.2587373,23.1720287 L34.9493338,23.1720287 L34.9493338,30.6427073 C34.9493338,34.5667523 32.8554758,36.1591184 30.048155,36.1591184 C27.3959349,36.1591184 25.3951372,34.6804928 25.3951372,30.6995775 L25.3951372,23.1720287 L27.0857337,23.1720287 Z" id="Path" fill="#FFFFFF"></path>
            <path d="M45.5375343,35.9523176 L45.5375343,23.1720287 L47.3832314,23.1720287 L51.5140772,29.6397235 C52.4550208,31.1390292 53.2253538,32.4832344 53.8199061,33.7912494 L53.8767763,33.7705693 C53.7268457,32.0644628 53.6854855,30.5082868 53.6854855,28.5178292 L53.6854855,23.1720287 L55.2623416,23.1720287 L55.2623416,35.9523176 L53.5717451,35.9523176 L49.4564093,29.4691128 C48.5516559,28.0473574 47.6882626,26.5894118 47.0523501,25.2038465 L46.9954799,25.2245266 C47.0937103,26.8375727 47.1092204,28.3730686 47.1092204,30.4979468 L47.1092204,35.9574877 L45.5375343,35.9574877 L45.5375343,35.9523176 Z" id="Path" fill="#FFFFFF"></path>
            <path d="M59.3104671,9.5852167 C59.4345475,10.6399007 58.9899258,11.3120033 58.4936039,11.8393453 C57.981772,12.3873674 57.2476292,12.7079087 56.668587,13.1525304 C56.7874974,12.9147094 56.9064079,12.6562085 56.9787881,12.3356672 C57.0408284,12.025466 57.0718485,11.6894148 57.0976986,11.3430234 C57.1545688,10.6502408 57.206269,9.95745812 57.4596,9.46113622 C57.4285799,10.0350084 57.6095306,10.4951402 57.6560607,11.0173122 C57.712931,11.5911844 57.5268102,12.025466 57.2993294,12.3925374 C57.3768797,12.3770274 57.4078998,12.283967 57.4492599,12.2322668 C57.6560607,11.9530858 57.8576915,11.6377146 58.0851724,11.3637035 C58.5297941,10.8415315 59.1967266,10.43827 59.3104671,9.5852167" id="Path" fill="#FFFFFF"></path>
            <path d="M59.0933262,7.13979734 C59.3828474,7.74985967 59.3621673,8.65461313 59.1657065,9.30086561 C59.0467961,9.69378711 58.8813554,9.94711808 58.6693846,10.2211291 C58.4212237,10.5313303 58.1523826,10.8415315 57.9404118,11.1827528 C57.9455818,10.8363615 57.986942,10.5468404 57.9145617,10.2521493 C57.8628615,9.99364826 57.7439511,9.74548731 57.6664008,9.48698632 C57.5888505,9.23365535 57.5164702,8.9596443 57.4596,8.68046323 C57.3820497,8.32890189 57.3200095,7.95666046 57.3355195,7.53788886 C57.4596,7.95666046 57.6870809,8.27720169 57.9042217,8.62359302 C58.1213625,8.98032438 58.2868032,9.34222577 58.2868032,9.86956779 C58.2816331,10.0711986 58.2040828,10.2262992 58.1937428,10.4072498 C58.2609531,10.3658897 58.2609531,10.2831694 58.2712931,10.2211291 C58.3229933,10.0194984 58.3695235,9.79201749 58.4212237,9.58004668 C58.4884339,9.30603563 58.5866643,9.05270466 58.7004047,8.80971373 C58.9278856,8.32890189 59.1605365,7.81706993 59.0778162,7.1294573 C59.0933262,7.12428728 59.0933262,7.12428728 59.0933262,7.13979734" id="Path" fill="#FFFFFF"></path>
            <path d="M58.9020355,6.84510621 C58.9020355,7.72400957 58.4419037,8.21516145 58.3746935,9.00100446 C58.3385034,8.96998434 58.3436734,8.92345416 58.3333333,8.88726403 C58.1885728,8.30305179 57.8525215,7.93081036 57.5319803,7.50686874 C57.201099,7.06741706 56.9115779,6.6072853 56.7823274,5.94552276 C56.7823274,5.94035274 56.7823274,5.94035274 56.7874974,5.94035274 C56.7926674,5.94035274 56.7926674,5.94552276 56.7926674,5.94552276 C57.1287187,6.51939496 57.8266714,6.76755591 58.1213625,7.38278827 C58.2195929,7.58441904 58.250613,7.81189991 58.3178233,8.08591096 C58.3643535,8.06006086 58.3333333,8.01353068 58.3281633,7.97217052 C58.2919732,7.50686874 58.2661231,6.96401666 58.3074832,6.47286478 C58.3178233,6.29708411 58.3540134,6.12647346 58.3695235,5.9558628 C58.3902036,5.55777128 58.2971432,5.21654997 58.1420426,4.95287896 C58.1523826,4.92185884 58.1989128,4.97872906 58.2195929,5.00457916 C58.2919732,5.07695944 58.3540134,5.19586989 58.4315637,5.29410027 C58.7055748,5.67151171 58.9020355,6.22470383 58.9020355,6.84510621" id="Path" fill="#FFFFFF"></path>
            <path d="M58.767615,11.8393453 C58.7107448,12.289137 58.514284,12.6458684 58.2868032,12.9457296 C58.0593223,13.2507607 57.7801412,13.5092617 57.46994,13.7315726 C57.1493988,13.9538834 56.7874974,14.1244941 56.3635558,14.2175544 C55.9447842,14.3157848 55.4846524,14.377825 55.0452007,14.5070755 C54.9986706,14.5329256 55.0813909,14.4605454 55.0917309,14.4450353 C55.2830217,14.2692546 55.4536323,14.0314337 55.5777128,13.7832728 C55.882744,13.1887205 55.9913144,12.4494077 56.3428757,11.8962155 C56.5186564,11.6170345 56.7099471,11.3740435 56.9012379,11.1310526 C56.9115779,11.1413927 56.9064079,11.1413927 56.9012379,11.1413927 C56.668587,11.6377146 56.673757,12.2943071 56.5289964,12.8423292 C56.3894059,13.4006913 56.0688647,13.7677627 55.7121333,14.0831339 C55.8672339,14.0417738 55.9913144,13.9280333 56.1102248,13.8246329 C56.937428,13.1111702 58.2971432,12.9198795 58.767615,11.8393453" id="Path" fill="#FFFFFF"></path>
            <path d="M57.201099,4.00159532 C57.723271,4.30145647 58.1058525,4.87532867 58.0851724,5.69219179 C58.0748323,6.10579338 58.0127921,6.59694526 58.0955124,6.98469674 C57.8318414,6.4780348 57.3510296,6.18851369 56.9167479,5.84212237 C56.4876363,5.49573104 56.1360749,5.09763952 56.0430146,4.41002688 C56.3428757,5.02008922 57.0563384,5.22171999 57.4802801,5.70770185 C57.5526603,5.79042217 57.6250406,5.86797247 57.6819108,5.96103282 C57.7387811,6.0592632 57.7749712,6.15749357 57.8421815,6.24538391 C57.8370114,6.14198352 57.7698012,6.0592632 57.733611,5.9558628 C57.6198706,5.65600165 57.5526603,5.30444031 57.46477,4.963219 C57.4027298,4.74090815 57.3510296,4.50825726 57.2527992,4.31696653 C57.1545688,4.13084582 57.0149783,4.00159532 56.8650477,3.86717481 C56.952938,3.84649473 57.1235487,3.95506514 57.201099,4.00159532" id="Path" fill="#FFFFFF"></path>
            <path d="M57.4596,9.46113622 C57.4492599,9.41977606 57.4854501,9.4559662 57.4596,9.46113622" id="Path" fill="#FFFFFF"></path>
            <path d="M57.4854501,13.9693935 C57.4802801,14.0210937 57.3923897,14.1606842 57.3458596,14.2175544 C57.1649089,14.4812254 56.9064079,14.6931963 56.6582469,14.8586369 C56.2963455,15.1067978 55.8672339,15.3032586 55.3502319,15.3342787 C54.3679282,15.3911489 53.6699755,14.9982274 52.8272623,14.9258471 C53.1839936,14.8431268 53.4683447,14.7552365 53.7371857,14.6104759 C54.0008567,14.4760554 54.1973175,14.2692546 54.4092883,14.0624538 C54.8177199,13.6540223 55.2313215,13.2611008 55.7017933,12.9147094 C55.7017933,12.9612396 55.6656031,13.0025998 55.644923,13.0387899 C55.3088718,13.5506219 55.1589412,14.2434045 54.6212591,14.5742858 C54.4144583,14.6983663 54.1818074,14.7655765 53.9129664,14.8586369 C54.2179976,14.8689769 54.5437088,14.7604065 54.8745901,14.7242164 C55.2261514,14.6776862 55.5725428,14.6673462 55.9137641,14.636326 C56.5858666,14.5536057 57.1442288,14.362315 57.4854501,13.9693935" id="Path" fill="#FFFFFF"></path>
            <path d="M57.1183787,4.70471801 C57.1804189,4.88566871 57.2166091,5.09763952 57.3044994,5.25791013 C56.8340276,4.92185884 56.3945759,4.52893734 56.0326745,4.06363556 C55.9137641,3.90336494 55.8155337,3.73275429 55.6966232,3.5776537 C55.5570327,3.39153298 55.3502319,3.26228249 55.2054714,3.0813318 C55.2054714,3.07616178 55.2054714,3.07616178 55.2106414,3.07616178 C55.2158114,3.07616178 55.2158114,3.0813318 55.2158114,3.0813318 C55.7483234,3.27779255 56.2239653,3.42772312 56.5548465,3.76377441 C56.8133475,4.0222754 56.9839582,4.32730657 57.1183787,4.70471801" id="Path" fill="#FFFFFF"></path>
            <path d="M53.5303849,10.970782 C53.6079352,11.0224822 53.6751455,11.1000325 53.7371857,11.1569027 C53.7630358,11.1724128 53.794056,11.2034329 53.8199061,11.1930929 C53.814736,11.1258826 53.8199061,11.0948625 53.8612662,11.0793524 C53.9853467,11.0276522 54.0422169,11.2447931 54.0887471,11.2964932 C54.073237,11.4205737 54.1766374,11.4774439 54.1404473,11.5808443 C54.4868386,11.2447931 54.7453396,10.8570416 54.9573104,10.4072498 C55.117581,10.0505185 55.2261514,9.67827705 55.2933617,9.24916541 C55.3243818,9.07855476 55.3295518,8.84073385 55.381252,8.70631333 C55.0969009,8.72182339 54.7660197,8.73733345 54.4816686,8.69597329 C54.4816686,8.76318355 54.4920086,8.82005377 54.4816686,8.89243405 C54.4764986,9.00617448 54.4247984,9.140595 54.4454784,9.22848533 C54.4661585,9.31120565 54.5695589,9.32154569 54.5540489,9.41460604 C54.5437088,9.50249638 54.4506485,9.5076664 54.3730982,9.47664628 C54.2800378,9.77133741 54.1869775,10.0660285 54.0422169,10.3193595 C53.9750066,10.44344 53.8871163,10.5520104 53.809566,10.6605808 C53.7216757,10.7691512 53.6544654,10.8932317 53.5303849,10.970782 M51.6898579,12.9405595 C51.6381577,12.9405595 51.6123076,12.8888593 51.5657774,12.8630092 C51.5347573,12.8474992 51.4933971,12.8526692 51.457207,12.8319891 C51.3848267,12.7802889 51.3021064,12.6200183 51.3227865,12.532128 C51.3279565,12.4649177 51.3848267,12.4390676 51.3796567,12.3770274 C51.3434666,12.268457 51.1573459,12.3460073 51.0539455,12.3201572 C50.9867352,12.2994771 50.9919052,12.2477769 50.940205,12.2426069 C51.0022453,12.3149871 50.9763952,12.4132175 50.9815652,12.5579781 C50.9867352,12.7337588 51.0022453,12.9198795 50.9815652,13.04913 C51.1728559,12.9715797 51.467547,12.9922597 51.6898579,12.9405595 M50.2474224,9.38358593 C50.412863,9.49732636 50.661024,9.5852167 50.9557151,9.54385654 C51.0539455,9.46113622 50.9970752,9.23882537 51.1366658,9.20263523 C51.2142161,9.18195515 51.2969364,9.23365535 51.3951668,9.20263523 C51.4416969,9.12508494 51.4882271,9.0371946 51.5037372,8.92345416 C51.452037,8.87692399 51.3899968,8.78903365 51.4261869,8.68046323 C51.3796567,8.6442731 51.3951668,8.57189282 51.3538066,8.52536264 C51.3227865,8.4891725 51.2814263,8.49951254 51.2555762,8.45298236 C51.2814263,8.39094213 51.3021064,8.32373187 51.3538066,8.28754173 C51.3176165,8.23067151 51.2969364,8.16346125 51.3176165,8.07557092 C51.2814263,8.07557092 51.2504062,8.0704009 51.2245561,8.06006086 C51.188366,7.98251056 51.1159857,7.93598038 51.0694555,7.86360011 C51.0280954,7.85326007 50.9815652,7.83775001 50.935035,7.82223995 C50.9195249,7.83257999 50.8988449,7.84809005 50.8678248,7.84809005 C50.8264646,7.81189991 50.6248338,7.67747939 50.6455139,7.59475908 C50.666194,7.5223788 50.7747644,7.56890898 50.8471447,7.55856894 C50.7954445,7.50169872 50.671364,7.49135868 50.5834737,7.5223788 C50.6300038,7.59475908 50.6196638,7.70849951 50.6558539,7.78087979 C50.5731336,7.90496026 50.4283731,7.95666046 50.2681025,8.00319064 C50.2422524,8.03421076 50.2370823,8.10142102 50.2060622,8.12727112 C50.1181719,8.13761116 50.0974918,8.22033147 50.0457916,8.26169163 C50.0509616,8.38577211 50.0096015,8.49951254 50.0044314,8.62876304 C50.0457916,8.60808296 50.0768117,8.58223286 50.1336819,8.58223286 C50.149192,8.59774292 50.144022,8.63910308 50.144022,8.66495317 C50.1750421,8.67529321 50.2008922,8.67529321 50.1957222,8.72182339 C50.1957222,8.77869361 50.1233419,8.80454371 50.0974918,8.86658395 C50.0664717,8.92345416 50.0923218,9.05787468 49.9889214,9.0371946 C49.9423912,9.05787468 49.9785813,8.9854944 49.9320512,8.9854944 C49.9268811,9.0630447 49.9734113,9.09406482 50.0044314,9.12508494 C50.1078318,9.0888948 50.0974918,8.92862418 50.2370823,8.92862418 C50.2836125,8.86658395 50.2319123,8.82005377 50.2474224,8.76835357 C50.2836125,8.65978315 50.6972141,8.67012319 50.7385743,8.76318355 C50.7334042,8.81488375 50.7230642,8.86141393 50.7592543,8.89243405 C50.7230642,8.94930426 50.7075541,9.0371946 50.6455139,9.07855476 C50.6506839,9.10440486 50.666194,9.10957488 50.6558539,9.14576502 C50.6093238,9.19746521 50.6248338,9.23365535 50.5783036,9.27501551 C50.4904133,9.36290585 50.3456528,9.30603563 50.2474224,9.38358593 M56.3687258,6.18851369 C56.689267,6.89163639 56.8650477,7.72400957 56.8650477,8.67012319 C56.8650477,9.60589678 56.6220568,10.4124199 56.3015156,11.0741824 C55.6500931,12.4028775 54.6315992,13.4213714 53.2667139,14.0262637 C52.5584212,14.3364649 51.7467281,14.5277556 50.7592543,14.5277556 C49.8028007,14.5277556 48.9807675,14.3106148 48.2879849,14.0004136 C47.5900322,13.6953824 47.01099,13.2766108 46.5094981,12.7802889 C46.0131762,12.2943071 45.5995746,11.7049248 45.2945434,11.0173122 C44.9843422,10.3348696 44.7620314,9.51283642 44.7620314,8.5667228 C44.7672014,6.66932553 45.5323643,5.34580047 46.5094981,4.35315667 C47.5021419,3.33466277 48.8256669,2.67290023 50.7282342,2.56949984 L50.9867352,2.56949984 C50.9919052,2.57466986 50.9970752,2.57983988 51.0074153,2.57983988 C51.9586989,2.59017992 52.7342019,2.85385093 53.4114745,3.16405211 C54.7763597,3.79479453 55.7483234,4.81845845 56.3687258,6.18851369 M56.5393365,9.09406482 C56.5496765,8.9596443 56.5445065,8.76835357 56.6013767,8.68563325 C56.3325357,8.73216343 55.9861443,8.69597329 55.6811132,8.70631333 C55.6759432,8.68563325 55.6552631,8.68563325 55.639753,8.67529321 C55.6914532,8.83039381 55.6500931,9.02168454 55.624243,9.21814529 C55.5983929,9.37841591 55.5725428,9.5335165 55.5415226,9.65242696 C55.3295518,10.5365003 54.8952702,11.2499631 54.3679282,11.7979852 C54.6212591,11.9789359 54.8177199,12.2270968 55.0452007,12.4338976 C55.2261514,12.1805666 55.4329522,11.9634258 55.6035629,11.6997548 C56.0740347,10.9966321 56.4411061,10.1435788 56.5393365,9.09406482 M56.5910367,8.35475199 C56.5341664,8.25135159 56.5445065,8.07557092 56.5289964,7.94632042 C56.3738958,6.46769476 55.7224733,5.49056102 54.9573104,4.60648764 C54.7763597,4.83913853 54.5592189,5.04593932 54.3472481,5.24240007 C54.3110579,5.23206003 54.3058879,5.25791013 54.2645278,5.25274011 C54.2800378,5.27859021 54.3524181,5.33546043 54.3679282,5.39233064 C54.5437088,5.46471092 54.6160891,5.65600165 54.7349996,5.78008213 C54.7763597,5.82661231 54.8228899,5.85246241 54.85391,5.89382256 C54.8797601,5.92484268 54.8952702,5.97137286 54.9211203,6.007563 C54.9986706,6.11613342 55.107241,6.21953381 55.1641112,6.32810423 C55.1951313,6.4004845 55.1899613,6.46769476 55.2106414,6.54524506 C55.2209814,6.56592514 55.2468315,6.60211528 55.2571716,6.62796538 C55.4846524,7.14496736 55.6604331,7.74468965 55.6604331,8.4116222 C55.6862832,8.39094213 55.7173033,8.38577211 55.7586635,8.38060209 C56.0119944,8.36509203 56.3532158,8.40128216 56.5910367,8.35475199 M55.370912,8.37026205 C55.3295518,8.21516145 55.3192118,8.0187007 55.2933617,7.85843009 C55.2261514,7.43965848 55.112411,7.08809714 54.9573104,6.76755591 C54.8952702,6.78306597 54.8642501,6.81925611 54.7763597,6.80891607 C54.6626193,6.66415551 54.5437088,6.51939496 54.4144583,6.38497445 C54.2128276,6.37980443 54.1818074,6.21436379 54.0060268,6.18851369 C53.9698366,6.14198352 53.9646666,6.05409318 53.9233064,6.007563 C53.8819463,5.99205294 53.8612662,6.01790304 53.809566,6.007563 C53.7423558,5.9558628 53.6648055,5.92484268 53.6389554,5.80593223 C53.6286153,5.76974209 53.6441254,5.72838193 53.6389554,5.69219179 C53.6286153,5.60947148 53.5924252,5.5112411 53.545895,5.45437088 C53.4373246,5.31995037 53.3390942,5.43886082 53.2098437,5.48022098 C53.1529735,5.39233064 53.1478035,5.26825017 53.0857632,5.19069987 C53.2150137,5.05110934 53.0030429,4.97872906 52.9771928,4.87532867 C52.9720228,4.84947857 52.9927029,4.81845845 52.9875329,4.77709829 C52.9771928,4.72022807 52.8014122,4.5444474 52.754882,4.5185973 C52.7186918,4.49791722 52.6514816,4.47206712 52.5842713,4.44621702 C52.23271,4.30145647 51.6795179,4.1256758 51.2607463,4.0998257 C51.2090461,4.0998257 51.1418358,4.10499572 51.0901356,4.0998257 C51.0384354,4.09465568 50.9919052,4.06880558 50.940205,4.06880558 C50.9608851,4.08948566 50.9660551,4.11016574 50.9660551,4.14118585 C51.0022453,4.37383675 50.945375,4.72022807 50.945375,4.94770894 C51.0125853,4.93219888 51.0694555,4.93219888 51.1314958,4.94253892 C51.8346185,4.99940914 52.4395108,5.26308015 52.8944725,5.5887914 C52.8582824,5.52158114 52.7910721,5.48022098 52.7755621,5.39233064 C52.7807321,5.36648055 52.8220922,5.38199061 52.8117522,5.34580047 C52.8014122,5.26308015 52.6669916,5.21137995 52.7238619,5.12348962 C52.8065822,5.13382966 52.8531124,5.20103991 52.8944725,5.25274011 C52.9410027,5.30961033 52.9823628,5.37165057 53.028893,5.4336908 C53.1271234,5.41301072 53.2253538,5.47505096 53.2563739,5.5629413 C53.2667139,5.58362138 53.2563739,5.61981152 53.2667139,5.65600165 C53.277054,5.69736181 53.3080741,5.76457207 53.3287542,5.80593223 C53.3752844,5.94552276 53.545895,5.99722296 53.5148749,6.16266359 C53.535555,6.18334367 53.556235,6.18334367 53.5924252,6.18334367 C53.6389554,6.26089397 53.7061656,6.32810423 53.7630358,6.4004845 C53.7320157,6.4780348 53.7785459,6.54007504 53.8354161,6.54524506 C53.9026264,6.54524506 54.0163668,6.40565452 54.0525569,6.53490502 C54.078407,6.6072853 53.9956867,6.59694526 54.0060268,6.70034565 C54.057727,6.69517563 54.1197672,6.65898549 54.1456173,6.70551567 C54.1507873,6.78823599 54.0473869,6.81408609 54.062897,6.87095631 C54.078407,6.92782652 54.1766374,6.90197642 54.2128276,6.93299654 C54.2438477,6.95884664 54.2179976,6.99503678 54.2335076,7.0260569 C54.2386777,7.04156696 54.2645278,7.06224704 54.2748678,7.07258708 C54.336908,7.18632751 54.2283376,7.31557801 54.2438477,7.46033856 C54.2490177,7.4965287 54.2696978,7.5223788 54.2748678,7.55856894 C54.2903779,7.67747939 54.2283376,7.73434961 54.1818074,7.79121983 C54.1766374,7.95149044 54.068067,8.0187007 54.0060268,8.12727112 C53.9491565,8.13761116 53.8819463,8.13244114 53.8560962,8.17380129 C53.809566,8.20999143 53.8612662,8.28237171 53.8767763,8.32890189 C53.8974564,8.37026205 53.8302461,8.38577211 53.8767763,8.38577211 L54.1766374,8.38577211 C54.0939171,8.28237171 54.1404473,8.0445508 54.1973175,7.93598038 C54.2645278,7.79638985 54.2903779,7.59475908 54.4351384,7.58958906 C54.4403084,7.71366953 54.4351384,7.83775001 54.3834382,7.90496026 C54.4609885,8.02387072 54.4816686,8.19448137 54.4713285,8.40128216 C54.7763597,8.37543207 55.0658808,8.37026205 55.370912,8.37026205 M54.3834382,4.69954799 C54.4816686,4.5961476 54.595409,4.48240716 54.7246595,4.42553694 C54.2852078,3.98091524 53.7888859,3.65520399 53.1943337,3.39153298 C52.8944725,3.25711247 52.5842713,3.14854205 52.24305,3.0554817 C51.8604686,2.9520813 51.3796567,2.9003811 50.9557151,2.85902095 C50.9505451,2.85902095 50.945375,2.85902095 50.945375,2.86419097 C50.9867352,3.08650182 50.9763952,3.39153298 50.9557151,3.6293539 C50.9712251,3.68105409 50.9763952,3.56731366 51.0332654,3.59316376 C51.0901356,3.60867382 51.0953056,3.71724423 51.0746255,3.77928447 C51.2762563,3.73792431 51.5037372,3.80513457 51.710538,3.83615469 C52.23271,3.93955508 52.6928417,4.12050578 53.0599131,4.33247659 C53.1167834,4.28077639 53.2253538,4.22907619 53.3132441,4.23424621 C53.3546043,4.23424621 53.4011345,4.27043635 53.4476646,4.28077639 C53.4838548,4.28594641 53.5097049,4.27043635 53.535555,4.28077639 C53.6079352,4.30145647 53.6441254,4.38417679 53.6854855,4.4151969 C53.7837159,4.44621702 53.8716063,4.5185973 53.9336465,4.58063754 C53.9853467,4.64784779 54.0370469,4.72539809 54.0422169,4.82362847 C54.0939171,4.87532867 54.1352773,4.92185884 54.1869775,4.963219 C54.2283376,4.87532867 54.3058879,4.78226831 54.3834382,4.69954799 M54.8125499,12.6303584 C54.595409,12.4390676 54.3782682,12.2426069 54.1714674,12.0306361 C54.1611274,12.009956 54.1662974,11.9789359 54.1559573,11.9685958 C54.078407,12.1288664 53.9026264,12.2167568 53.7526958,12.3408372 C53.6803155,12.3977075 53.6234453,12.4545777 53.545895,12.5011079 C53.4683447,12.547638 53.3804544,12.5838282 53.3080741,12.6355284 C53.2408638,12.6975686 53.1788236,12.785459 53.1374634,12.8474992 C53.0547431,12.9870897 52.9771928,13.1111702 52.8376023,13.1783805 C52.8117522,13.2921209 52.6928417,13.2921209 52.5997814,13.3645012 C52.5584212,13.3903513 52.5429112,13.4213714 52.506721,13.4420515 C52.2533901,13.5971521 52.1137995,13.2507607 51.9069987,13.2300807 C51.8656386,13.2249106 51.7932583,13.2455907 51.7312181,13.2559308 C51.4830571,13.3024609 51.2193861,13.3645012 50.9712251,13.312801 C50.9867352,13.6074921 50.9919052,13.9487134 50.9712251,14.2382345 C51.1676859,14.1968744 51.4830571,14.1865343 51.705368,14.1503442 C53.0444031,13.9435434 54.0060268,13.3696712 54.8125499,12.6303584 M54.1869775,8.71148335 C54.0111968,8.73733345 53.7733759,8.71148335 53.6492954,8.69080327 C53.7526958,8.74250347 53.7733759,8.85624391 53.799226,8.96481432 C53.814736,9.02168454 53.9181364,9.05270466 53.9594966,9.09923484 C54.0215368,9.17161511 54.0163668,9.25433543 54.078407,9.31637567 C54.1352773,9.12508494 54.1301072,8.89243405 54.1869775,8.71148335 M54.0835771,7.72917959 C54.0370469,7.58441904 53.9905167,7.42931844 53.9181364,7.30523797 C53.8405861,7.28972791 53.7888859,7.19666755 53.7216757,7.16564743 C53.6648055,7.1294573 53.5769151,7.12428728 53.5717451,7.06741706 C53.556235,6.98469674 53.6699755,6.91231646 53.6596354,6.83476617 C53.6544654,6.76238589 53.535555,6.65898549 53.4683447,6.57109516 C53.3752844,6.45735472 53.3184141,6.35912435 53.2408638,6.30742415 C53.1839936,6.40565452 53.1012733,6.47286478 53.018553,6.55041508 C52.8014122,6.77789595 52.5739313,6.98986676 52.3774705,7.21734763 C52.4084906,7.24319773 52.4240007,7.28455789 52.4705309,7.29489793 C52.491211,7.21734763 52.5170611,7.13979734 52.5429112,7.07258708 C52.6204615,7.0002068 52.7083518,7.07258708 52.8065822,7.08292712 C52.8427723,7.08809714 52.8841325,7.07258708 52.9203226,7.07258708 C53.028893,7.07258708 53.1374634,7.11911726 53.2408638,7.10877722 C53.2977341,7.16047741 53.3442642,7.22768767 53.3804544,7.31040799 C53.5303849,7.36210819 53.3649443,7.46550858 53.4424946,7.55339892 C53.5252149,7.55339892 53.556235,7.46033856 53.6337853,7.44999852 C53.6854855,7.4448285 53.7216757,7.48618866 53.794056,7.49135868 C53.814736,7.58958906 53.9233064,7.58958906 53.9543266,7.68264941 C53.9439865,7.72917959 53.9077964,7.74985967 53.8664362,7.76019971 C53.8974564,7.85326007 53.7733759,7.91013028 53.814736,8.01353068 C53.9956867,8.03421076 54.0060268,7.83257999 54.0835771,7.72917959 M53.8560962,11.8548554 C53.8716063,11.8393453 53.9233064,11.7979852 53.8871163,11.7979852 C53.8509262,11.7876451 53.8457562,11.8134952 53.804396,11.8031552 C53.7371857,11.7669651 53.6958256,11.6997548 53.7009956,11.5911844 C53.5769151,11.4412538 53.4114745,11.3275134 53.3080741,11.1569027 C53.282224,11.2758132 53.1271234,11.3016633 53.1891636,11.4671039 C53.292564,11.5188041 53.5252149,11.5911844 53.5200449,11.746285 C53.5097049,11.8341753 53.3184141,11.9272357 53.3287542,12.0513161 C53.3339242,12.0926763 53.3804544,12.1185264 53.3856244,12.1753966 C53.3804544,12.2167568 53.2977341,12.2426069 53.3390942,12.2943071 C53.3390942,12.263287 53.3649443,12.2477769 53.3804544,12.2270968 C53.5303849,12.1133564 53.7268457,11.9841059 53.8560962,11.8548554 M53.7371857,10.184939 C53.8509262,9.98847824 53.9491565,9.76099737 53.9956867,9.51800644 C53.8302461,9.52834648 53.6182753,9.62657686 53.4683447,9.53868652 C53.4424946,9.60072676 53.4063045,9.67827705 53.3287542,9.66793701 C53.277054,9.65759697 53.287394,9.60072676 53.2512039,9.5593666 C53.2563739,9.65242696 53.1943337,9.66793701 53.1581435,9.72480723 C53.1167834,9.79201749 53.1116133,9.83337765 53.0702532,9.86439777 C53.013383,9.90575792 52.9410027,9.88507785 52.8789625,9.93677804 C52.8686224,10.0608585 52.7238619,10.0608585 52.6101214,10.0918786 C52.6463116,10.195279 52.7859021,10.1073887 52.8531124,10.0918786 C52.8944725,9.98847824 52.9410027,9.87990783 53.1116133,9.89541789 C53.1891636,9.9522881 53.2098437,10.0660285 53.1995037,10.2004491 C53.1219534,10.3245295 53.1426335,10.5623504 53.023723,10.6502408 C53.018553,10.6812609 53.028893,10.717451 53.013383,10.7277911 C52.8789625,10.7898313 52.7755621,10.7381311 52.6514816,10.696771 C52.5222311,10.6605808 52.3929806,10.6295607 52.24305,10.6088806 C52.1861798,10.5985406 52.0879494,10.5571804 52.0672693,10.6347307 C52.1448196,10.712281 52.2533901,10.696771 52.3774705,10.7381311 C52.4757009,10.7691512 52.5584212,10.8673816 52.6463116,10.8777216 C52.6876717,10.8828917 52.754882,10.8570416 52.8324323,10.8518715 C52.9616828,10.8415315 53.0444031,10.8828917 53.0909333,10.8053414 C53.0754232,10.707111 53.1322934,10.6502408 53.1736536,10.5933706 C53.1943337,10.5623504 53.2098437,10.5054802 53.2512039,10.5054802 C53.3080741,10.5520104 53.3080741,10.6399007 53.3287542,10.7226211 C53.4786847,10.5675205 53.6234453,10.3917398 53.7371857,10.184939 M52.9410027,6.18334367 C52.9823628,6.14715353 53.0495731,6.14715353 53.0702532,6.09028332 C52.9823628,6.06443322 52.9203226,6.00239298 52.8531124,5.95069278 C52.3464504,5.57845136 51.7518981,5.32512039 50.9557151,5.25274011 C51.0022453,5.50607108 50.9505451,5.86280245 50.9867352,6.13164348 C51.0074153,6.1109634 51.0436054,6.1109634 51.0746255,6.1109634 C51.5244173,6.17817365 51.9276788,6.32293421 52.23271,6.53490502 C52.3154303,6.58660522 52.3981506,6.61762534 52.4188307,6.70551567 C52.4757009,6.66932553 52.496381,6.61762534 52.5325711,6.56592514 C52.5791013,6.51939496 52.6308015,6.48837484 52.6721617,6.44184466 C52.765222,6.35912435 52.8427723,6.24538391 52.9410027,6.18334367 M52.3102603,9.81786759 C52.3257703,9.66276699 52.2171999,9.62657686 52.1396496,9.56453662 C52.1344796,9.53868652 52.1551597,9.53868652 52.1499897,9.51800644 C52.1086295,9.49215634 52.0776094,9.53868652 52.0517593,9.56453662 C52.0724394,9.6110668 52.0672693,9.67310703 52.1034595,9.69895713 C52.1396496,9.69378711 52.1499897,9.70929717 52.1758398,9.71446719 C52.1913498,9.76616739 52.23271,9.87990783 52.3102603,9.81786759 M52.1293096,7.08809714 C52.0827794,7.1036072 52.0259092,7.0777571 52.0000591,7.04673698 C52.0362492,6.96401666 52.1189695,6.93816656 52.1758398,6.87612633 C51.8346185,6.67449555 51.4416969,6.47286478 50.9557151,6.44701468 C51.0177553,6.59694526 50.9608851,6.86578629 50.9970752,7.051907 C51.0694555,7.07258708 51.1366658,7.1036072 51.2142161,7.11911726 C51.2504062,7.05707702 51.3589766,7.02088688 51.4261869,6.96918668 C51.462377,6.9485066 51.467547,6.89163639 51.5140772,6.89163639 C51.6433277,6.88646637 51.5864575,7.12428728 51.5554374,7.18632751 C51.4933971,7.30006795 51.3072764,7.34659813 51.2142161,7.42414842 C51.2090461,7.42414842 51.1573459,7.46550858 51.193536,7.47584862 C51.2555762,7.50686874 51.2917664,7.42414842 51.3538066,7.42414842 C51.4830571,7.4448285 51.5399273,7.64128926 51.705368,7.53271884 C51.7312181,7.26904783 52.0672693,7.30523797 52.1293096,7.08809714 M51.8708086,10.6657508 C51.984549,10.5933706 52.1189695,10.4796301 52.0620993,10.3090195 C51.9328488,10.2986794 51.8966587,10.44344 51.7984283,10.44344 C51.7312181,10.44344 51.7415581,10.3658897 51.6484977,10.3762297 C51.6536678,10.4175899 51.705368,10.4124199 51.6898579,10.4796301 C51.6278177,10.5882005 51.5192472,10.4692901 51.4365269,10.45895 C51.4106768,10.4692901 51.446867,10.5365003 51.4106768,10.5365003 C51.3744867,10.5158203 51.3641467,10.4848001 51.3176165,10.4692901 C51.2865964,10.44861 51.2348962,10.44861 51.193536,10.4279299 C51.1625159,10.4175899 51.1625159,10.3813997 51.1211557,10.3813997 C51.0591155,10.3969098 51.0332654,10.44861 50.9505451,10.44861 L50.9505451,10.5003102 C50.8729948,10.5158203 50.8729948,10.6088806 50.8161246,10.6399007 C50.7799344,10.6347307 50.7644244,10.6502408 50.7437443,10.6502408 C50.7075541,10.701941 50.6300038,10.701941 50.5938137,10.7536412 C50.6196638,10.8053414 50.7023841,10.8053414 50.7799344,10.8105114 C50.8419747,10.6864309 51.0436054,10.7588112 51.188366,10.7329611 C51.2142161,10.7588112 51.203876,10.8311915 51.2297261,10.8570416 C51.3641467,10.8311915 51.4416969,10.9501019 51.5554374,10.8828917 C51.5502674,10.8467015 51.5761175,10.8311915 51.5761175,10.7950013 C51.6588378,10.717451 51.7829183,10.7277911 51.8708086,10.6657508 M51.7001979,10.1694289 C51.7777482,10.1022187 51.9328488,10.1073887 51.9483589,9.98330822 C51.8139384,9.98330822 51.6950279,10.0505185 51.7001979,10.1694289 M50.6041537,10.3400396 C50.661024,10.3348696 50.7385743,10.3917398 50.7437443,10.2986794 C50.7282342,10.2573193 50.6920441,10.2624893 50.676534,10.2211291 C50.661024,10.184939 50.681704,10.1384088 50.6558539,10.0970487 C50.676534,10.0867086 50.6868741,10.0763686 50.7075541,10.0556885 C50.666194,10.0143283 50.6868741,9.91609796 50.7075541,9.86439777 C50.412863,9.92126798 50.2008922,9.75065733 50.0096015,9.64208692 C49.9940914,9.62140684 49.9940914,9.57487666 49.9630713,9.56453662 C49.8286508,9.81786759 49.5804898,9.94711808 49.4150492,10.1694289 C49.7200804,10.3917398 50.0457916,10.5882005 50.4955833,10.6502408 C50.5162634,10.5054802 50.4800733,10.3762297 50.6041537,10.3400396 M50.5576236,13.0025998 C50.5938137,13.0129398 50.6506839,13.0749801 50.6558539,13.0439599 C50.5938137,12.811309 50.6403439,12.4597477 50.6248338,12.1753966 C50.5162634,12.2167568 50.3818429,12.1960767 50.2370823,12.1753966 C49.5908299,12.0875063 48.9911076,11.7669651 48.6085261,11.487784 C48.6136961,11.5549942 48.7119265,11.5860144 48.7015865,11.6687347 C48.6809064,11.7824751 48.5206358,11.756625 48.3913853,11.761795 C48.2311147,11.7721351 48.0760141,11.9168956 47.9157434,11.8910455 C47.8175131,11.8703654 47.7813229,11.756625 47.6727525,11.7669651 C48.3396851,12.3615173 49.1772283,12.8578392 50.3198027,12.9870897 C50.3870129,12.9974298 50.4852433,12.9922597 50.5576236,13.0025998 M49.8286508,6.30742415 C50.0457916,6.20919377 50.3404827,6.10579338 50.6351739,6.13164348 C50.5989837,5.86280245 50.6196638,5.49573104 50.6248338,5.23723005 C50.5524535,5.28893025 50.3715029,5.28893025 50.2681025,5.30961033 C49.5442997,5.43886082 49.0479778,5.73872197 48.572336,6.11613342 C48.8204969,6.28157405 48.9859375,6.52456498 49.2237585,6.70551567 C49.2444385,6.66415551 49.2806287,6.63830542 49.3116488,6.6072853 C49.4512393,6.49871488 49.63219,6.39531448 49.8286508,6.30742415 M50.661024,7.09843718 C50.6093238,6.91748648 50.6248338,6.67966557 50.6248338,6.4521847 C50.0613017,6.51939496 49.63736,6.72619575 49.3374989,7.05707702 L49.4098792,7.05707702 C49.4719194,7.1294573 49.62702,7.11394724 49.6477001,7.22251765 C49.6528701,7.26387781 49.5908299,7.24319773 49.6011699,7.29489793 C49.62702,7.31040799 49.6425301,7.34142811 49.6890602,7.34142811 C49.7097403,7.30523797 49.7149103,7.25870779 49.7614405,7.24836775 C49.7976307,7.28455789 49.8183107,7.32591805 49.8596709,7.34659813 C49.895861,7.34142811 49.9217111,7.32591805 49.9579013,7.32074803 C49.9889214,7.33108807 50.0251115,7.34142811 50.0354516,7.37244823 C50.0664717,7.34142811 50.1336819,7.34659813 50.1750421,7.33108807 C50.2836125,7.24836775 50.2474224,6.99503678 50.3973529,6.98469674 C50.407693,7.03122692 50.3715029,7.06741706 50.3973529,7.09843718 C50.5059234,7.11394724 50.5886437,7.0260569 50.661024,7.09843718 M50.6248338,13.7832728 C50.6248338,13.591982 50.6041537,13.4162014 50.6558539,13.323141 C50.4593932,13.3645012 50.2474224,13.317971 50.0509616,13.2766108 C48.9549174,13.1111702 48.1277143,12.6251883 47.4969718,12.0409761 C47.3005111,12.278797 47.0575202,12.4597477 46.8662294,12.6975686 C47.6934326,13.3955213 48.6343762,13.9487134 49.9165411,14.1503442 C50.149192,14.1865343 50.4542232,14.1968744 50.661024,14.2537446 C50.6041537,14.1400041 50.6248338,13.9745635 50.6248338,13.7832728 M49.2599486,5.27342019 C49.63736,5.10280954 50.1181719,4.94770894 50.6248338,4.95287896 C50.6196638,4.67369789 50.5834737,4.35832669 50.6248338,4.0998257 C49.6425301,4.14635587 48.8928772,4.45138704 48.2776448,4.85981861 C48.0811841,4.98389908 47.9260835,5.15967975 47.7141127,5.26825017 C47.7606429,5.31995037 47.8278531,5.36131053 47.8847233,5.4078407 C47.9984638,5.50090106 48.1018642,5.60947148 48.1949245,5.71287187 C48.2414547,5.76457207 48.324175,5.80593223 48.3345151,5.88865255 C48.593016,5.65600165 48.9032172,5.44403084 49.2599486,5.27342019 M50.5938137,2.94174126 C50.5938137,2.9262312 50.6351739,2.86936099 50.5938137,2.87453101 C48.9187273,2.9779314 47.786493,3.61901386 46.8403793,4.441047 C46.9903099,4.50825726 47.0937103,4.63233774 47.2074507,4.73573813 C47.3160212,4.84430855 47.4297616,4.95804898 47.533162,5.07695944 C47.5952022,4.963219 47.7141127,4.88566871 47.8175131,4.80811841 C48.5309758,4.23941623 49.4202192,3.82064463 50.6300038,3.75343437 C50.5576236,3.53629354 50.6093238,3.21058229 50.5938137,2.94174126 M50.2370823,10.9552719 C49.9527312,10.960442 49.8234808,10.8518715 49.61668,10.7484712 C49.4150492,10.6347307 49.2599486,10.5313303 49.1513782,10.3969098 C48.9755975,10.6140506 48.7636267,10.8053414 48.5619959,11.0069721 C48.7015865,11.0638424 48.8049869,11.1879228 48.9342373,11.2706432 C49.1823983,11.4412538 49.4822594,11.5756743 49.8028007,11.6894148 C49.9579013,11.741115 50.1233419,11.7979852 50.2991226,11.8134952 C50.2474224,11.8031552 50.2164023,11.7721351 50.1647021,11.7669651 C50.0716417,11.6325445 49.9320512,11.5498242 49.9062011,11.3481934 C49.9682413,11.2861532 50.0147715,11.218943 50.0251115,11.1103725 C50.0768117,11.0431623 50.149192,10.9966321 50.2370823,10.9552719 M49.9579013,8.80454371 C50.0044314,8.79937369 50.0302815,8.71665337 50.0044314,8.67012319 C49.880351,8.83039381 49.8545009,8.54604272 49.7872906,8.49434252 C49.7666105,8.50985258 49.7769506,8.55121274 49.7252504,8.5408727 C49.6011699,8.42713226 49.4770894,8.57706284 49.4874295,8.73216343 C49.4512393,8.75284351 49.3891991,8.75284351 49.3891991,8.81488375 C49.5701498,8.79420367 49.7459305,8.77869361 49.895861,8.73216343 C49.9320512,8.74250347 49.9217111,8.79420367 49.9579013,8.80454371 M49.7769506,9.36290585 C49.7407604,9.34739579 49.7097403,9.32671571 49.6787202,9.31120565 C49.6632101,9.404266 49.5959999,9.45079618 49.5598097,9.52317646 C49.63736,9.47147626 49.6787202,9.38358593 49.7769506,9.36290585 M49.4357293,9.6369169 C49.4408993,9.59555674 49.4098792,9.5593666 49.3943691,9.52317646 C49.3788591,9.4559662 49.4047091,9.35773583 49.3323289,9.33188573 C49.2754587,9.37841591 49.368519,9.43528612 49.3323289,9.48698632 C49.2857987,9.5076664 49.2651186,9.41977606 49.2030784,9.42494608 C49.1823983,9.38875595 49.1462082,9.36807587 49.1358681,9.32671571 C49.1410381,9.29052557 49.1617182,9.30086561 49.1462082,9.26984549 C49.099678,9.22331531 49.0686579,9.23882537 48.9962776,9.24916541 C49.0066176,9.18712517 48.9704275,9.17161511 48.9497474,9.140595 C48.8773671,9.140595 48.7791368,9.10440486 48.7377766,9.1147449 C48.851517,9.33188573 48.9187273,9.56453662 49.0479778,9.75065733 C49.094508,9.81786759 49.1513782,9.87473781 49.1668882,9.94711808 C49.2030784,9.93160802 49.2134184,9.90058791 49.2237585,9.86956779 C49.2651186,9.79718751 49.4253892,9.70929717 49.4357293,9.6369169 M48.7481166,7.18115749 C48.8566871,7.12428728 48.8773671,6.95367662 49.0169577,6.93299654 C48.7687967,6.75721587 48.582676,6.51939496 48.3500251,6.32810423 C48.0243139,6.71068569 47.7554728,7.16047741 47.6107123,7.69298945 C47.5538421,7.91013028 47.5176519,8.19965139 47.4711217,8.42196224 C47.5641821,8.38060209 47.7089427,8.39611215 47.8278531,8.40128216 C47.8226831,8.33407191 47.7709829,8.22550149 47.786493,8.1221011 C47.796833,8.06006086 47.8330231,8.06006086 47.8485332,8.02387072 C47.8588732,7.98251056 47.8588732,7.93598038 47.8692133,7.9153003 C47.8898933,7.87911017 47.9467636,7.83775001 47.9674436,7.78604981 C48.0036338,7.71883955 47.9984638,7.67747939 48.0346539,7.65679931 C48.1070342,7.62060918 48.1897545,7.67230937 48.2466247,7.61026914 C48.2673048,7.56890898 48.2362847,7.55339892 48.2362847,7.50686874 C48.2828149,7.43448846 48.3810452,7.44999852 48.4430855,7.40863836 C48.4844456,7.37761825 48.4999557,7.32591805 48.5361458,7.28972791 C48.5671659,7.25353777 48.6085261,7.20700759 48.6602263,7.18115749 C48.6860764,7.19149753 48.7222665,7.19666755 48.7481166,7.18115749 M48.4482555,8.73733345 C48.4585955,8.70631333 48.4017253,8.72182339 48.4172354,8.68046323 C48.4585955,8.5667228 48.4224054,8.38577211 48.3758752,8.29788177 C48.2931549,8.25135159 48.1225442,8.26686165 48.0811841,8.34958197 C48.065674,8.49951254 48.2362847,8.60808296 48.1277143,8.72182339 C48.0863541,8.74250347 48.0398239,8.71148335 47.9777837,8.72182339 C47.9312535,8.77352359 47.9726137,8.9079441 47.9054034,8.9337942 C47.8175131,8.95447428 47.7347928,8.93896422 47.7192827,9.00617448 C47.6882626,9.07855476 47.802003,9.16644509 47.7554728,9.26984549 C47.802003,9.36290585 47.9002334,9.41460604 47.9467636,9.51800644 C47.9571036,9.54385654 47.9571036,9.56453662 47.9674436,9.59555674 C47.9777837,9.62140684 47.9932937,9.64725694 47.9984638,9.67827705 C48.0088038,9.75065733 47.9881237,9.80752755 48.0088038,9.86439777 C48.0191438,9.90058791 48.055334,9.91609796 48.070844,9.9522881 C48.0760141,9.96779816 48.0811841,9.99364826 48.0811841,10.0039883 C48.1070342,10.2004491 48.070844,10.3245295 48.1432243,10.45378 C48.1587344,10.4899702 48.2052646,10.5106502 48.2259446,10.5623504 C48.2466247,10.6347307 48.2311147,10.717451 48.2517947,10.7794913 C48.2156046,10.8415315 48.1122042,10.8311915 48.1070342,10.9242518 C48.1535644,10.9087418 48.1483943,10.9501019 48.1690744,10.965612 C48.4068953,10.6916009 48.6550563,10.4227599 48.9342373,10.195279 C48.6757364,9.89024787 48.4689356,9.51800644 48.3707052,9.05270466 C48.3396851,9.03202458 48.3034949,9.01651452 48.2724748,9.00617448 C48.2776448,9.05787468 48.2517947,9.10957488 48.2466247,9.15610505 C48.2311147,9.21297527 48.2517947,9.28535555 48.1949245,9.31120565 C48.1225442,9.26984549 48.0036338,9.22848533 48.0449939,9.11991492 C48.0863541,9.10440486 48.1018642,9.13542498 48.1328843,9.13542498 C48.2000945,9.02685456 48.1070342,8.9079441 48.1535644,8.80971373 C48.2311147,8.80971373 48.2311147,8.91311412 48.3034949,8.91828414 C48.3758752,8.9079441 48.4430855,8.84590387 48.4482555,8.73733345 M47.7347928,8.73733345 C47.6417324,8.75801353 47.5228219,8.73216343 47.4659517,8.72182339 C47.4814618,8.73733345 47.4969718,8.75801353 47.5021419,8.78386363 C47.5228219,8.96998434 47.5590121,9.13542498 47.5641821,9.34222577 C47.5745221,9.26467547 47.6210523,9.21814529 47.6624125,9.17161511 C47.5900322,9.10440486 47.6055423,9.07855476 47.6313924,8.9596443 C47.6520724,8.84073385 47.6624125,8.76835357 47.7347928,8.73733345 M48.1328843,6.09028332 C47.8898933,5.91450264 47.7037726,5.68702177 47.4969718,5.48022098 C47.4711217,5.58362138 47.3573813,5.69736181 47.274661,5.80076221 C47.1919407,5.89899258 47.1143904,6.00239298 47.0575202,6.09545334 C46.6284085,6.72619575 46.3750776,7.46033856 46.3078673,8.4116222 C46.5870484,8.40128216 46.9541198,8.39094213 47.1919407,8.40128216 C47.1712606,8.36509203 47.1764306,8.32373187 47.1764306,8.28237171 C47.1816006,8.06006086 47.2488109,7.82740997 47.2953411,7.6257792 C47.4504417,6.99503678 47.7761529,6.48837484 48.1328843,6.09028332 M47.2333008,11.8393453 C47.269491,11.8445153 47.285001,11.8290053 47.3056811,11.8134952 C47.1867707,11.746285 47.1092204,11.6325445 47.0265,11.5239741 C46.8713995,11.487784 46.757659,11.4102337 46.742149,11.234453 C46.6956188,11.2551331 46.6749387,11.2861532 46.6232385,11.2809832 C46.5818783,11.2758132 46.4733079,11.1827528 46.4371178,11.1207126 C46.4009276,11.0741824 46.4060977,11.0018021 46.3647375,10.970782 C46.230317,11.0069721 46.2561671,10.8673816 46.1372566,10.8725516 C46.0752164,10.8363615 46.0493663,10.7536412 45.9976661,10.701941 C45.9511359,10.9242518 45.7753553,10.6657508 45.7236551,10.6037106 C45.6926349,10.6037106 45.6926349,10.6399007 45.6461048,10.6295607 C45.6099146,10.5830305 45.5685545,10.5520104 45.5478744,10.4899702 C45.5323643,10.45895 45.5375343,10.4124199 45.5271943,10.3813997 C45.5168543,10.3503796 45.4858341,10.3296995 45.4754941,10.2935094 C45.449644,10.195279 45.4806641,10.0918786 45.4858341,9.9781382 C45.5271943,9.94194806 45.5530444,9.89024787 45.5737245,9.82820763 C45.6202547,9.81269757 45.6512748,9.79201749 45.6926349,9.79201749 C45.7339951,9.80235753 45.7391651,9.83854767 45.7805253,9.84371769 C45.8115454,9.84888771 45.8218854,9.82303761 45.8632456,9.82303761 C45.8839257,9.79718751 45.8477355,9.77133741 45.8735856,9.75065733 C45.9201158,9.72480723 45.982156,9.69895713 46.0493663,9.68861709 C46.1010665,9.72997725 46.1269166,9.85405773 46.1786168,9.85405773 C46.1114065,9.74031729 46.0855564,9.55419658 46.0597063,9.38875595 C46.0286862,9.20780525 46.0131762,9.00617448 45.976986,8.87175397 C45.9924961,8.82522379 45.9924961,8.77352359 45.9976661,8.71148335 C45.9976661,8.70114331 45.9924961,8.70114331 45.9873261,8.70114331 C45.976986,8.71665337 45.9407959,8.72699341 45.9252858,8.72699341 C45.702975,8.75801353 45.3307336,8.71148335 45.0825726,8.72699341 C45.1497829,9.926438 45.5168543,10.960442 46.0700464,11.741115 C46.1992969,11.9272357 46.3388874,12.0978463 46.4784779,12.283967 C46.5250081,12.3356672 46.6128985,12.4545777 46.6284085,12.4545777 C46.6335785,12.4545777 46.6852787,12.3925374 46.6956188,12.3770274 C46.7783391,12.289137 46.8610594,12.2115868 46.9282697,12.1443765 C47.0420101,12.0513161 47.1299004,11.9427457 47.2333008,11.8393453 M47.1660906,9.05270466 C47.1764306,9.0630447 47.2074507,9.10957488 47.2126208,9.07338474 C47.1505805,9.00100446 47.1867707,8.81488375 47.1764306,8.71148335 C47.1660906,8.73216343 47.1454105,8.73216343 47.1299004,8.73733345 C46.8507194,8.73733345 46.5405182,8.75801353 46.2871872,8.72182339 C46.2871872,8.76318355 46.3285474,8.75801353 46.3182073,8.80454371 C46.3492275,9.21297527 46.4422878,9.56970664 46.504328,9.94711808 C46.5301781,9.89024787 46.5301781,9.81269757 46.5973884,9.79718751 C46.6077284,9.61623682 46.6232385,9.34222577 46.7783391,9.23882537 C46.9230996,9.23882537 46.9644598,9.01651452 47.0937103,9.02685456 C47.1247304,9.01651452 47.1402405,9.0371946 47.1660906,9.05270466 M47.3056811,5.28893025 C47.0885403,5.10280954 46.8972495,4.89600874 46.6956188,4.69954799 C46.6852787,4.67886791 46.6904488,4.63750776 46.6645987,4.63750776 C46.5456882,4.76675825 46.4371178,4.88566871 46.3337174,5.0149192 C45.6512748,5.89899258 45.1601229,6.92782652 45.0774026,8.41679222 C45.3824337,8.40128216 45.708145,8.40128216 46.0131762,8.41679222 C45.976986,8.0704009 46.0545363,7.71883955 46.1320866,7.38795829 C46.2665071,6.84510621 46.4733079,6.4004845 46.7318089,5.99722296 C46.8920795,5.73872197 47.0937103,5.47505096 47.3056811,5.28893025" id="Shape" fill="#FFFFFF"></path>
            <path d="M50.5059234,15.1998582 C50.3663328,15.1274779 50.154362,15.1171379 49.9682413,15.158498 C49.5753198,15.2567284 49.3116488,15.5410795 48.9704275,15.7530503 C48.6550563,15.9546811 48.313835,16.1563119 47.8743833,16.2390322 C46.8507194,16.4406629 46.0803864,15.9753612 45.5892345,15.4583592 C45.7598452,15.5617596 45.9511359,15.6393099 46.1631067,15.7013501 C46.4009276,15.7582203 46.6490886,15.7944105 46.9127596,15.7789004 C47.4245916,15.7582203 47.807173,15.5565896 48.1742444,15.3911489 C48.582676,15.2205383 48.9600874,15.0550976 49.4150492,14.9723773 C49.7769506,14.9103371 50.1957222,14.9155071 50.5524535,14.9827174 C50.661024,15.0085675 50.7695944,15.0757777 50.8729948,15.0757777 C50.9557151,15.0706077 51.0177553,15.0137375 51.0746255,14.9930574 C51.2710863,14.9413572 51.5554374,14.9155071 51.7829183,14.9155071 C52.2740701,14.9155071 52.7186918,15.0240775 53.0909333,15.1740081 C53.282224,15.2515584 53.4476646,15.3394487 53.6286153,15.411829 C53.9750066,15.5514195 54.3782682,15.7220302 54.8745901,15.7272002 C55.3398919,15.7323702 55.7483234,15.6237998 56.0895447,15.3911489 C56.0998848,15.4325091 56.0533546,15.4428491 56.0326745,15.4635292 C55.8724039,15.6548199 55.6604331,15.8150905 55.4226122,15.944341 C55.0762209,16.1408018 54.6988094,16.2648823 54.1404473,16.2390322 C53.6234453,16.2080121 53.1684836,16.0115513 52.8272623,15.7892405 C52.6566516,15.6910101 52.4808709,15.5617596 52.3102603,15.4428491 C52.1396496,15.3187686 51.9328488,15.1791781 51.720878,15.158498 C51.5450973,15.137818 51.3434666,15.1636681 51.2142161,15.1843481 C51.9276788,15.5410795 52.5687613,15.9701911 53.1064433,16.4975332 C53.023723,16.6216136 52.8893025,16.6991639 52.7755621,16.8077343 C52.2844102,16.3165825 51.8035983,15.8099205 51.1625159,15.4480191 C51.0746255,15.401489 50.9557151,15.3135986 50.8781648,15.3084286 C50.8006145,15.3032586 50.661024,15.3756389 50.5627936,15.4273391 C50.2939526,15.5720996 50.0251115,15.7789004 49.8079707,15.9598511 C49.4719194,16.2235221 49.2030784,16.5027032 48.9600874,16.8335844 C48.836007,16.7353541 48.7274366,16.6371237 48.6033561,16.5492334 C49.1306981,15.9908712 49.7562705,15.5359095 50.5059234,15.1998582" id="Path" fill="#FFFFFF"></path>
            <path d="M53.8250761,4.35315667 C53.6958256,4.39968684 53.6648055,4.28594641 53.5820851,4.21873615 C53.551065,4.18771603 53.5200449,4.18771603 53.4993648,4.15152589 C53.5045348,4.13084582 53.4838548,4.08431564 53.5097049,4.07914562 C53.5717451,4.05329552 53.6286153,4.11016574 53.6958256,4.07914562 C53.809566,4.11533576 53.8250761,4.23941623 53.8250761,4.35315667" id="Path" fill="#FFFFFF"></path>
            <path d="M52.1086295,3.51561346 C52.0414192,3.60867382 51.8656386,3.69656415 51.7312181,3.62418388 C51.5347573,3.68622411 51.1366658,3.76377441 51.0694555,3.53629354 C51.0901356,3.49493338 51.1676859,3.50527342 51.2142161,3.51561346 C51.3538066,3.45874324 51.5192472,3.37085291 51.6484977,3.33983279 C51.8501285,3.34500281 52.0310792,3.38636296 52.1086295,3.51561346" id="Path" fill="#FFFFFF"></path>
            <path d="M48.8721971,14.9465272 C48.582676,14.9878874 48.2879849,15.0499276 48.0139738,15.1223079 C47.527992,15.2463884 46.9489497,15.406659 46.3078673,15.3808089 C45.7960353,15.3497888 45.3565837,15.1636681 45.0153623,14.9310172 C44.674141,14.6931963 44.40013,14.4088452 44.1829892,14.0417738 C44.3691099,14.2175544 44.5759107,14.377825 44.8499217,14.4863955 C45.1135927,14.5949659 45.4289639,14.6570061 45.7701852,14.6880262 C46.1114065,14.7293864 46.4784779,14.7293864 46.8248693,14.7604065 C47.1660906,14.8017667 47.4918018,14.899997 47.791663,14.899997 C47.6830926,14.8121067 47.543502,14.8224467 47.4349316,14.7914266 C46.8455494,14.6001359 46.5663683,14.1244941 46.3078673,13.5971521 C46.2044669,13.3851812 46.0907265,13.1628704 45.9459659,12.9870897 C46.0803864,13.0439599 46.1837868,13.1421903 46.2975273,13.2404207 C46.6335785,13.5040917 46.9541198,13.7987828 47.264321,14.098644 C47.6779225,14.5174156 48.1432243,14.8327868 48.8721971,14.9465272" id="Path" fill="#FFFFFF"></path>
            <path d="M46.2975273,3.15888209 C46.3337174,3.16922213 46.2716772,3.20541227 46.2561671,3.22092233 C46.1062365,3.36568289 45.9563059,3.53629354 45.8167154,3.70690419 C45.6564448,3.90853496 45.5168543,4.12050578 45.3617537,4.32213655 C45.0618925,4.74090815 44.6482909,5.02008922 44.2760495,5.35097049 C44.3742799,5.09763952 44.4311501,4.81328843 44.5242105,4.5702975 C44.8137316,3.79996455 45.5013442,3.43806316 46.2975273,3.15888209" id="Path" fill="#FFFFFF"></path>
            <path d="M46.0907265,13.834973 C46.235487,14.1193241 46.4371178,14.367485 46.6439186,14.5536057 C46.2044669,14.4243552 45.7288251,14.3881651 45.3048835,14.2951047 C44.8706018,14.2123844 44.5190404,14.0417738 44.1984992,13.8246329 C43.5780968,13.3903513 43.0817749,12.8164791 42.8801442,11.9685958 C43.2885757,12.8836893 44.3535998,13.1163402 45.175633,13.6230022 C45.449644,13.7936128 45.6667848,14.0314337 45.9511359,14.1555142 C45.9459659,14.103814 45.8787557,14.0727939 45.8322255,14.0314337 C45.5220243,13.7470826 45.2635233,13.4110313 45.1342728,12.9250495 C44.9895122,12.3821974 44.9843422,11.7307749 44.7465213,11.2499631 C44.8602618,11.3533635 44.9429821,11.4774439 45.0360424,11.6066944 C45.1291028,11.7307749 45.2273332,11.8548554 45.3152235,11.9944459 C45.6564448,12.5166179 45.8012054,13.2404207 46.0907265,13.834973" id="Path" fill="#FFFFFF"></path>
            <path d="M45.5065142,4.47206712 C45.5168543,4.81328843 45.3772637,5.08729948 45.2273332,5.31995037 C45.0774026,5.55260126 44.8912819,5.74906201 44.6896511,5.9300127 C44.4828503,6.1109634 44.2501994,6.26089397 44.0537387,6.44701468 C43.8521079,6.6331354 43.6659872,6.82442613 43.5419067,7.08809714 C43.5212266,6.90714644 43.5625868,6.74170581 43.5574168,6.57109516 C43.5522467,6.40565452 43.5263966,6.23504387 43.5160566,6.07477326 C43.4953765,5.72321191 43.5057166,5.38199061 43.5987769,5.08212946 C43.6763272,4.80811841 43.8159178,4.60131762 43.9968684,4.40485686 C44.1674791,4.21356613 44.3846199,4.06363556 44.674141,3.9705752 C44.5397205,4.10499572 44.4053,4.24458625 44.3122397,4.43587698 C44.131289,4.80294839 44.0950988,5.30444031 43.9606783,5.74906201 C43.893468,5.96620284 43.7745576,6.15232355 43.7642176,6.35912435 C43.8004077,6.31259417 43.8210878,6.26089397 43.8417679,6.20919377 C44.0175485,5.86280245 44.2812195,5.60947148 44.6017608,5.37165057 C44.9429821,5.12865964 45.3462436,4.9115188 45.5065142,4.47206712" id="Path" fill="#FFFFFF"></path>
            <path d="M44.6896511,12.4132175 C44.7516913,12.7337588 44.8861118,12.9870897 44.9946823,13.2352507 C43.8624479,12.4494077 42.4613726,11.9324057 42.3269521,10.1590889 L42.3269521,9.88507785 C42.3476321,9.84371769 42.3269521,9.76099737 42.3321221,9.69895713 C42.4303524,10.3710597 42.8749741,10.7691512 43.2730657,11.1569027 C43.4798665,11.3637035 43.6711572,11.5653343 43.8417679,11.7928151 C44.0123785,12.015126 44.136459,12.273627 44.3587698,12.4649177 C44.2760495,12.283967 44.1623091,12.1392065 44.0950988,11.9479157 C44.0330586,11.751455 43.9916984,11.5239741 43.9865284,11.2758132 C43.9710183,10.6709209 44.2605395,10.1590889 44.1829892,9.53868652 C44.5707406,10.2935094 44.5087004,11.487784 44.6896511,12.4132175" id="Path" fill="#FFFFFF"></path>
            <path d="M44.7672014,6.04892316 C44.7672014,6.21436379 44.7206712,6.36946439 44.674141,6.51422494 C44.3742799,7.51720878 43.5108866,8.0187007 43.2885757,9.1147449 C43.2110254,8.36509203 42.7457237,7.85843009 42.7095335,7.04673698 C42.6681734,6.15749357 43.0042246,5.54226122 43.4281663,5.03559928 C43.2989158,5.24757009 43.2110254,5.55777128 43.2058554,5.88348253 C43.2058554,6.26089397 43.2937458,6.63830542 43.3247659,7.0260569 C43.355786,7.34142811 43.3195959,7.6257792 43.2989158,7.92564034 C43.2885757,8.0187007 43.2678957,8.11693108 43.2989158,8.20482141 C43.3402759,8.17380129 43.3299359,8.10142102 43.345446,8.02387072 C43.4178262,7.574079 43.624627,7.26387781 43.883128,6.98469674 C44.1778191,6.65898549 44.5604006,6.43667464 44.7672014,6.04892316" id="Path" fill="#FFFFFF"></path>
            <path d="M44.2812195,7.5999291 C44.3277497,7.93598038 44.2605395,8.27203167 44.2088393,8.58223286 C44.1261189,9.09406482 44.0072085,9.5076664 43.872788,9.96262814 C43.8055777,10.184939 43.7176874,10.4124199 43.7021773,10.6502408 C43.6866673,10.8570416 43.7073473,11.0741824 43.7435375,11.2913232 C43.6814972,11.2603031 43.6659872,11.1930929 43.629797,11.1413927 C43.3919761,10.7588112 43.0507548,10.4692901 42.8077639,10.1022187 C42.5182428,9.67827705 42.3786522,9.09923484 42.3321221,8.43230228 L42.3321221,8.26686165 C42.3579722,7.88428019 42.4355225,7.56373896 42.5389229,7.25353777 C42.5596029,7.29489793 42.5337528,7.35693817 42.5285828,7.40863836 C42.4975627,7.82740997 42.6113031,8.11693108 42.7302136,8.42196224 C42.9111643,8.88209401 43.1386452,9.25950545 43.2575556,9.78684747 C43.3144258,10.0401784 43.3351059,10.2624893 43.4126562,10.45895 C43.4178262,10.45895 43.4591864,10.5313303 43.4643564,10.5313303 C43.5057166,10.5261603 43.4436763,10.4175899 43.4436763,10.4072498 C43.2627256,9.76099737 43.5005465,9.13542498 43.7435375,8.69080327 C43.9348282,8.34441195 44.2140093,8.0445508 44.2812195,7.5999291" id="Path" fill="#FFFFFF"></path>
        </g>
    </g>
</svg>