<?xml version="1.0" encoding="UTF-8"?>
<svg width="184px" height="100px" viewBox="0 0 184 100" version="1.1" xmlns="http://www.w3.org/2000/svg" xmlns:xlink="http://www.w3.org/1999/xlink">
    <!-- Generator: Sketch 63.1 (92452) - https://sketch.com -->
    <title>01_logos / Clients / ChateauForme / Black</title>
    <desc>Created with Sketch.</desc>
    <g id="01_logos-/-Clients-/-ChateauForme-/-Black" stroke="none" stroke-width="1" fill="none" fill-rule="evenodd">
        <path d="M124.916287,62.6089368 C126.18176,62.702188 127.314213,63.2117781 127.602468,64.5321048 C127.727809,65.107245 127.425017,66.0869307 126.98372,66.3784777 C126.615378,66.6214792 125.553686,66.3324006 125.157917,65.9275809 C123.430302,64.1615686 122.01261,64.2413806 120.957227,66.5378274 C120.168157,68.2541972 119.724117,70.1296425 119.037624,72.2042065 C120.042542,72.2042065 120.726293,72.1016302 121.356835,72.2404099 C121.772351,72.3320154 122.111621,72.7708444 122.4849,73.0541633 C122.109153,73.4787304 121.734502,73.9041202 121.354092,74.3245732 C121.333522,74.3476117 121.266052,74.3267673 121.220524,74.3297843 C118.779263,74.4883112 118.859624,74.5022989 118.438348,76.9260062 C117.721411,81.0520955 116.950444,85.1705054 116.082111,89.2669738 C115.71898,90.9797781 114.668533,92.3102527 112.98151,93.0230755 L111.061633,93.0230755 C110.84359,92.8689368 110.625273,92.7147982 110.406955,92.5606595 C109.604966,91.9948444 109.314271,91.1160894 109.954961,90.4712851 C110.319464,90.1045886 111.427781,90.076339 111.959587,90.3552696 C113.338607,91.0793374 113.706949,91.0837257 114.00261,89.4233066 C114.760687,85.1661171 115.38739,80.8856148 116.059895,76.6133405 C116.170425,75.9101171 116.246123,75.2014083 116.350894,74.39698 C115.58404,74.3476117 114.962823,74.3078428 114.286752,74.2642342 C113.866847,73.1312327 114.102992,72.4230724 115.400006,72.5218089 C116.528071,72.6073806 116.873649,72.0275778 117.057683,71.0690108 C117.493769,68.7950539 118.347017,66.6941602 119.894712,64.9328105 C121.219701,63.4246102 122.827735,62.455621 124.916287,62.6089368 Z M108.720837,72.4596598 C108.720837,73.7969911 108.733179,74.9714071 108.71782,76.1455488 C108.697524,77.6968092 108.579863,79.2508123 108.645688,80.7974102 C108.700267,82.0754995 108.61689,83.5066305 110.657719,84.1253794 C109.360979,85.0013917 108.388699,85.6991297 107.360467,86.3022453 C107.226899,86.3801374 106.641337,86.0222176 106.551925,85.7663254 C106.393947,85.3143316 106.45648,84.7852684 106.428779,84.3198354 C105.550024,84.9553146 104.772748,85.7548062 103.826797,86.1560604 C101.1184,87.3057923 98.4643072,85.6204148 98.2204829,82.6561251 C98.112147,81.3396382 98.1872965,80.0086151 98.1667263,78.6844487 C98.1349112,76.6227753 98.5361655,74.4472807 96.6538635,72.648082 L100.559441,72.648082 C100.559441,74.1935827 100.563007,75.8611328 100.558344,77.5286829 C100.554504,78.8531236 100.508702,80.1778385 100.53942,81.5009079 C100.581108,83.2981867 101.134307,84.0968555 102.367965,84.2737584 C104.061571,84.5170342 105.635321,83.6764025 106.048095,82.1289818 C106.302341,81.1756259 106.337447,80.147669 106.352532,79.151253 C106.371182,77.9211606 106.347047,76.6779032 106.182486,75.4617985 C106.097737,74.8350958 105.677558,74.2503562 105.390125,73.655743 C105.246683,73.3584364 105.061278,73.0816998 104.894797,72.7953639 C105.220628,72.6831883 105.542344,72.4912006 105.872837,72.4750188 C106.780939,72.4305874 107.692606,72.4596598 108.720837,72.4596598 Z M21.3016364,64.9676425 C21.6406317,65.1017596 22.0226872,65.5932481 22.0553251,65.9489738 C22.155433,67.0361726 22.1345886,68.140376 22.0673929,69.2325116 C22.0509368,69.4966317 21.701245,69.7747396 21.443433,69.9626133 C21.3861109,70.004302 20.9461849,69.7272912 20.8932512,69.5383205 C20.2245855,67.1447827 18.7885177,65.6294515 16.2315162,65.3645085 C13.1366749,65.0438891 10.3805547,65.7786533 8.34959938,68.2511803 C5.75968567,71.4038921 5.55755008,75.0870385 6.74814792,78.7523575 C7.89952542,82.2980955 10.6471433,84.2662435 14.3220616,84.8795069 C17.6193128,85.4294145 19.6820832,84.1932881 20.9711433,81.0093097 C21.2045455,80.4327982 21.652151,79.942681 22.00102,79.4125208 C22.1502219,80.0570508 22.4568536,80.7098089 22.4231186,81.3444653 C22.2248228,85.0621695 21.7596641,85.5418644 17.9931402,86.2396025 C12.4164468,87.2724961 7.13486595,85.244832 4.63600924,80.8946656 C3.83816333,79.505772 3.53125732,77.8346564 3,76.2927211 L3,73.8243082 C3.5537473,70.5355593 4.97253621,67.7649029 7.82547304,65.8798582 C12.1394361,63.0293898 16.6750077,63.1366287 21.3016364,64.9676425 Z M79.8636089,76.5375877 C79.9360157,77.4270391 79.6628447,77.800318 78.7407553,77.7635661 C77.508743,77.7144721 76.2731652,77.7514983 75.0389587,77.7514983 L75.0389587,77.7580807 C73.8047522,77.7580807 72.5686259,77.8000438 71.3371621,77.7438188 C70.4745889,77.7043242 70.241461,78.0721177 70.2310388,78.8718835 C70.2014179,81.1247217 71.1967368,83.0314336 72.8631898,83.7645522 C74.7279387,84.5854367 76.7185766,84.059939 78.4283639,82.3523458 C78.6647831,82.1164752 79.0805735,82.0597017 79.4132607,81.919825 C79.4009186,82.3213535 79.5177569,82.7856894 79.3570357,83.1142626 C77.1406752,87.6391378 71.5310696,87.2238958 69.1748324,83.980127 C65.9519079,79.5430176 68.2316243,72.8744629 73.4210512,71.8130453 C76.6198401,71.1586416 79.6063455,73.3689683 79.8636089,76.5375877 Z M60.9921532,69.3597445 C61.1103627,69.6754271 61.3267602,69.991384 61.3262117,70.3070666 C61.3253889,70.9356891 61.2055337,71.5640373 61.1067972,72.4422438 C62.0373889,72.4422438 62.8116478,72.3753223 63.564788,72.4724133 C63.9026863,72.5160219 64.198073,72.8873809 64.5126586,73.1103609 C64.1865538,73.4392083 63.905429,73.9682715 63.5247448,74.0532946 C62.8333149,74.2074333 62.0831917,74.0969032 61.1163966,74.0969032 L61.1163966,77.2589402 C61.1163966,78.7643978 61.1122826,80.2698555 61.1172194,81.7753131 C61.1254475,84.3833285 61.9049174,84.9219911 64.6752995,83.7316675 C64.5222579,84.4831621 64.5751917,85.1002653 64.2932441,85.4389864 C63.5346185,86.3503794 62.4496139,86.6062715 61.3103042,86.3413285 C60.102976,86.0602037 59.2316262,85.2903331 59.0486894,84.0473501 C58.8503935,82.7015165 58.8087048,81.3282561 58.7667418,79.9648693 C58.7203904,78.4605088 58.8317433,76.9476459 58.7077741,75.4523362 C58.6611485,74.8914579 58.2640083,74.2230666 57.8172256,73.865421 C57.2174012,73.3854518 57.1836663,73.1183146 57.6935307,72.5840404 C58.5380022,71.6981544 59.3029359,70.7365704 60.1383565,69.8419079 C60.3511886,69.6137168 60.7038974,69.5169002 60.9921532,69.3597445 Z M49.9023692,72.04738 C51.6483599,72.6568037 52.4689701,74.0783353 52.6003445,75.8240518 C52.7610656,77.9600518 52.6730256,80.1157991 52.8608992,82.2482336 C52.9300148,83.031269 53.5057035,83.7619193 53.8005418,84.5356296 C53.9417898,84.9064401 54.1494108,85.4371488 53.9933522,85.6845387 C53.8298884,85.9428992 53.1702737,86.1538114 52.8943599,86.0257282 C52.0287698,85.6241997 51.2421689,85.0534478 50.3228222,84.4851643 C50.1168468,84.7141781 49.7657837,85.1905818 49.331343,85.5720888 C47.9067945,86.8222028 45.524776,86.6905541 44.3873861,85.3326527 C43.2310718,83.9519871 43.5028715,81.8428653 45.1898946,80.6602213 C46.2919039,79.8873337 47.5688961,79.3110965 48.8401288,78.8453892 C50.5405911,78.2228006 50.7421781,78.0401381 50.4097652,76.3731365 C50.0496512,74.5679039 49.0666743,73.660625 47.5499716,73.9442182 C46.6780733,74.1071334 45.8613029,74.5643384 44.877229,74.9441997 C44.0985818,74.3268222 44.3415834,73.7226096 44.9671889,73.154326 C46.3996912,71.8537467 48.062853,71.4053183 49.9023692,72.04738 Z M89.6450518,72.0969676 C91.4799054,72.8490108 92.1622844,74.4063051 92.2618438,76.2375932 C92.363323,78.1028906 92.2237205,79.9857411 92.4041889,81.8403421 C92.4936003,82.7594145 93.0882136,83.6236333 93.405816,84.5295408 C93.5410302,84.9154361 93.7275325,85.444225 93.5681827,85.7250755 C93.4288545,85.9697227 92.7415387,86.1551279 92.4623337,86.0212851 C91.6038746,85.6090601 90.8252274,85.0309029 89.9294678,84.463168 C89.1897667,85.4538243 88.201853,86.490832 86.5389655,86.4208937 C85.2106851,86.364943 84.0922197,85.9422958 83.5730302,84.6359569 C83.0598746,83.3447026 83.1665649,81.9810416 84.2954524,81.1415069 C85.550229,80.2081726 86.9819085,79.4525639 88.4355294,78.8631618 C90.0106512,78.2238428 90.2794339,77.9440894 89.9404385,76.0398459 C89.6872891,74.6183143 88.6053014,73.6959507 87.2254586,73.9460832 C86.3105002,74.1117411 85.4501211,74.579094 84.4942968,74.9383852 C83.6923368,74.443057 83.858269,73.8808074 84.4855202,73.2423112 C85.8102351,71.8940092 87.9130487,71.3871618 89.6450518,72.0969676 Z M131.068312,71.7126357 C134.988975,71.8352336 137.890183,75.2589223 137.728639,79.571514 C137.573403,83.7168022 134.406155,86.5741273 130.141835,86.4158746 C126.585126,86.2842259 123.751662,82.9014031 123.881116,78.9412459 C124.016605,74.7789532 127.186321,71.5914092 131.068312,71.7126357 Z M149.968484,72.1666317 C150.372481,72.4998675 150.365076,73.3314484 150.544721,73.9359353 C150.026354,74.0867827 149.462459,74.4512851 148.997575,74.352 C146.646274,73.8492666 145.503399,74.3999969 145.229405,76.8077966 C144.973513,79.0573436 145.047291,81.3661325 145.222274,83.6299414 C145.275482,84.3210971 146.143541,84.949171 146.819063,85.8460277 L141.355368,85.8460277 C141.336444,85.6809183 141.264037,85.4617781 141.314228,85.4288659 C142.773334,84.4722188 142.638943,82.9475624 142.683649,81.51698 C142.727532,80.1028536 142.671032,78.6854361 142.657319,77.2693898 C142.6458,76.0508166 142.66445,74.8157874 140.580012,74.4279723 C142.126336,73.3690231 143.240687,72.5835193 144.397002,71.8649368 C144.471877,71.8183112 145.008894,72.2511063 145.082672,72.52702 C145.201978,72.9738028 145.114487,73.4757134 145.114487,73.7727458 C145.637242,73.3440647 146.203606,72.8311834 146.818789,72.3863205 C147.814931,71.6658182 148.95232,71.3281941 149.968484,72.1666317 Z M30.2249217,62.7716327 C30.4769741,63.0036635 30.6481174,63.4567544 30.6420835,63.8149485 C30.5927153,66.7353553 30.4928817,69.6552136 30.4127954,72.5750718 C30.4010018,73.010061 30.4111498,73.4455988 30.4111498,74.107682 C31.0946259,73.4801565 31.5466197,72.9837313 32.0762314,72.5928992 C34.7163362,70.6444986 38.1712915,72.0032228 38.6287707,75.2530256 C38.8816459,77.0492074 38.8125304,78.8909177 38.8802746,80.7128807 C38.9455504,82.4712136 38.4417199,84.3776512 40.1984071,85.8277066 L35.1727183,85.8277066 C35.1411775,85.6686311 35.08029,85.5290287 35.1132022,85.5021504 C36.5967183,84.2728807 36.5067584,82.57187 36.5075812,80.8977374 C36.508404,79.4816912 36.5553039,78.0637251 36.4963362,76.6501473 C36.4296891,75.0495186 35.5328324,74.0506342 34.1587492,73.9014324 C32.6099572,73.7338545 30.8859079,74.6052043 30.7767492,76.039078 C30.574065,78.7011242 30.672253,81.3941627 30.8017076,84.0669054 C30.8272145,84.5929516 31.5600589,85.0849886 32.1393131,85.8085079 L26.8900958,85.8085079 C26.8607492,85.677682 26.7968447,85.5408222 26.8286598,85.5122983 C28.2984626,84.2150102 28.2159079,82.4424154 28.2112453,80.7449701 C28.1989032,76.2713831 28.1404841,71.7969732 28.0096582,67.325306 C27.9934764,66.7655248 27.5519048,66.0677867 27.0925057,65.7071242 C26.4175319,65.1775125 26.5181883,64.8769146 27.108139,64.4797744 C27.8269957,63.9959655 28.540367,63.5014601 29.2833593,63.0571458 C29.570518,62.8851797 30.0993069,62.6561658 30.2249217,62.7716327 Z M164.535439,74.0969581 C164.747997,73.8627331 164.960829,73.648804 165.150622,73.4162247 C166.357402,71.9349026 167.932524,71.3891091 169.505177,71.914881 C171.046564,72.4302308 171.977155,73.8569735 171.991966,75.7743818 C172.005953,77.6021045 171.958505,79.4311985 172.006502,81.2575498 C172.047642,82.8315744 171.873482,84.5120151 173.739328,85.4620798 C173.666373,85.5602678 173.593143,85.6581815 173.519913,85.7566438 L168.462684,85.7566438 C168.458296,85.6718909 168.377661,85.4000952 168.452262,85.3474357 C169.861725,84.351294 169.767926,82.8749088 169.759423,81.4133341 C169.749276,79.7685482 169.791513,78.1229396 169.761892,76.4787023 C169.734191,74.9129057 168.968434,73.9869766 167.698573,73.8797378 C166.297611,73.7612539 164.922157,74.6279411 164.845362,76.0563294 C164.706034,78.6465174 164.76555,81.2559042 164.913929,83.8474635 C164.94739,84.4360428 165.682154,84.984579 166.291029,85.8227424 L161.057994,85.8227424 C161.057994,85.6543418 160.986684,85.3825421 161.068416,85.324123 C162.423849,84.3543109 162.36351,82.9193402 162.363784,81.5010998 C162.364058,79.8105112 162.378046,78.1193741 162.35775,76.4290598 C162.342665,75.1685236 161.876958,74.1814327 160.518782,73.9115529 C159.199553,73.6493525 157.67901,74.3706777 157.571223,75.7252878 C157.352083,78.4748256 157.451094,81.2575498 157.576708,84.0199781 C157.60057,84.5515097 158.346305,85.0506777 158.933787,85.7821507 L153.684021,85.7821507 C153.668937,85.7382678 153.592141,85.6005852 153.618745,85.5767239 C155.37077,83.9788379 154.912742,81.8650536 154.957448,79.8713988 C154.96979,79.3231368 154.973081,78.7743263 154.957448,78.2263387 C154.914114,76.7079904 155.317562,75.0075282 152.976135,74.3106129 C154.391084,73.3517716 155.493094,72.5764157 156.64118,71.8767578 C156.742385,71.8153217 157.287904,72.2031368 157.372379,72.4642401 C157.48236,72.8035097 157.337272,73.2256083 157.29147,73.7234049 C160.54045,70.8863757 162.082933,70.9741414 164.535439,74.0969581 Z M130.504417,73.3256065 C128.899674,73.4205032 127.722241,74.2537297 127.151764,75.7473938 C126.783422,76.7117205 126.631203,77.7580533 126.321006,79.0158468 C126.689896,80.219061 126.938657,81.6312675 127.548904,82.8651997 C128.271875,84.3270487 129.658574,84.9545741 131.318445,84.83993 C132.849409,84.7340626 133.882577,83.8819116 134.429468,82.5185248 C135.41409,80.0640995 135.354848,77.6061088 134.024374,75.2866234 C133.271234,73.973702 132.066922,73.2331781 130.504417,73.3256065 Z M89.8266173,79.5954576 C88.6522012,80.2103667 87.520571,80.6774453 86.5354,81.3570817 C85.6824262,81.9453867 85.2499054,82.9228783 86.0008515,83.8477103 C86.6884416,84.694376 87.6725156,84.4524715 88.4928515,83.9579661 C90.077024,83.0032388 90.1664354,81.5040894 89.8266173,79.5954576 Z M50.3598484,79.4899193 C49.0482983,80.2076789 47.9040518,80.7260456 46.8848715,81.4262521 C46.086477,81.974514 45.6421627,82.8667082 46.3311242,83.7734385 C46.9934817,84.6453368 47.9569855,84.4794046 48.7871951,84.0139716 C50.4201874,83.0990133 50.6116265,81.5738083 50.3598484,79.4899193 Z M70.6657538,76.2836154 L76.8502253,76.2836154 C76.7481975,74.4161239 75.7682376,73.3898126 74.0751806,73.2891562 C72.3834949,73.1884998 71.0892237,74.2844752 70.6657538,76.2836154 Z M177.820245,62.6878986 C178.596698,62.7811498 179.517416,63.0927183 180.020973,63.6431744 C180.548939,64.2205088 180.658097,65.1809957 180.950193,65.974179 C180.711031,68.3087492 179.292242,70.0799726 177.091241,70.5492453 C176.810116,70.6087615 176.477977,70.4282931 176.169426,70.3589032 C176.347151,70.0953316 176.475235,69.7686783 176.712751,69.5813532 C177.173521,69.2187707 177.759632,69.0015504 178.180634,68.6041359 C179.201734,67.6400835 179.070908,66.5361544 177.871533,65.844176 C177.058603,65.3751775 176.366899,64.7981174 176.681484,63.8052669 C176.830412,63.3343485 177.475765,62.6462099 177.820245,62.6878986 Z M48.3707464,62.4997781 C50.1680253,64.6574453 51.7554891,66.5630601 53.3426786,68.4689492 C53.1929282,68.629396 53.0431778,68.7901171 52.8931532,68.9508382 L51.1235753,67.6889002 C50.8275486,67.4802431 50.5300592,67.2737802 50.2297356,67.0715532 C47.8633504,65.4783297 48.7525276,65.4670847 46.4793935,67.0819753 C45.6472641,67.6727488 44.8280253,68.2818983 43.8025368,68.6960431 C44.9991686,66.4635008 46.6398404,64.6003975 48.3707464,62.4997781 Z M91.9888921,6.00159076 C105.921438,5.933298 117.671632,17.6066971 117.139003,32.1492148 C116.654371,45.3771655 105.777173,56.5217757 91.5895578,56.4318157 C77.8794438,56.3448727 66.5428459,44.7740499 66.6596841,31.0639359 C66.7784422,17.1522348 78.1923837,5.8584228 91.9888921,6.00159076 Z M91.0456841,24.2692179 C90.2494838,28.061523 89.5616194,31.8760438 88.8117704,35.6782225 C88.0800231,39.3896185 87.4234253,43.119939 86.5476872,46.7978743 C86.0265778,48.9862595 85.0257735,49.0954182 83.4446179,47.55458 C82.9819276,47.1036832 82.0702604,46.8628758 81.4180508,46.9465276 C80.996775,47.0002841 80.3552619,47.8365276 80.3807689,48.290167 C80.4186179,48.9607525 80.799302,49.8715969 81.329188,50.1919421 C82.0529815,50.629674 83.0631109,50.7928635 83.9350092,50.7511747 C86.991453,50.6049898 88.464547,48.4659729 89.4615116,45.938318 C89.9091171,44.8031223 90.3811325,44.4380715 91.7223035,44.5348881 C97.1094777,44.923526 101.432492,42.8997017 104.426676,38.3018712 C104.629909,37.9897541 104.726177,37.6082471 104.893481,37.2089128 C102.334834,36.9302564 102.334834,36.9302564 100.744079,38.6713103 C98.1349661,41.5278126 93.8412989,42.8651439 90.8454684,41.7258342 C92.1224607,35.4001146 93.4010986,29.0672641 94.6742512,22.7607433 C92.3926148,21.6579112 91.5234592,21.9930669 91.0456841,24.2692179 Z M94.4943313,16.1349744 C93.9817242,16.8428604 93.4447072,17.0839421 92.5766487,17.1097233 C87.2832743,17.2655076 83.1390832,19.528768 80.6330955,24.2524875 C78.0988582,29.0285923 78.3547504,33.8436431 81.2109784,38.4305029 C81.9800262,39.6658065 83.1009599,40.6822441 84.2213451,41.9861146 C84.8000508,40.1057325 85.1533082,38.7823889 83.8302388,37.3641485 C82.9808305,36.4538527 82.5469384,35.0597479 82.1838074,33.8079883 C80.7260724,28.7792826 83.1231757,23.1636431 87.6241895,20.83209 C92.2933297,18.4135938 97.8088613,19.5199914 101.132442,23.5415846 C102.203733,24.8377757 103.039428,25.0440253 104.852066,24.3945584 C103.055336,20.9086108 100.182378,18.7591716 96.444926,17.4857448 C96.7049322,16.9808173 96.8779954,16.5658496 97.1168829,16.1931193 C98.8398351,13.5069374 100.692516,13.5384783 102.203459,16.2701886 C102.749253,17.2572795 103.48868,17.8244659 104.663096,17.3491593 C105.690778,16.9333689 106.119185,15.7762317 105.719028,14.5785029 C105.22178,13.0903242 103.758011,12.1229806 101.834843,12.0799205 C98.6110955,12.0075137 96.2940786,13.6495569 94.4943313,16.1349744 Z" id="Fill-2" fill="#000000"></path>
    </g>
</svg>