<?xml version="1.0" encoding="UTF-8"?>
<svg width="184px" height="100px" viewBox="0 0 184 100" version="1.1" xmlns="http://www.w3.org/2000/svg" xmlns:xlink="http://www.w3.org/1999/xlink">
    <!-- Generator: Sketch 63.1 (92452) - https://sketch.com -->
    <title>01_logos / Clients / Malt / Black</title>
    <desc>Created with Sketch.</desc>
    <g id="01_logos-/-Clients-/-Malt-/-Black" stroke="none" stroke-width="1" fill="none" fill-rule="evenodd">
        <path d="M39.7619256,60.711255 C41.4025711,62.2844832 43.2849562,64.0747822 45.1389497,65.8942548 C45.2917396,66.0440782 45.3237418,66.3997645 45.2923961,66.6443607 C44.9384026,69.4015069 43.2124179,71.3310808 40.5092998,72.0332235 C40.4349562,72.0525077 40.3722648,72.1174476 40.3041575,72.1612903 L38.8271335,72.1612903 C38.7086433,72.1055804 38.5954048,72.0251472 38.4708425,71.9979515 C35.79907,71.4154697 34.0049781,69.1628444 34.0689825,66.4431128 C34.0737418,66.2408759 34.1170678,65.9741935 34.2481947,65.8504121 C36.1172867,64.0871439 38.0045952,62.3433247 39.7619256,60.711255 Z M43.3410667,57.1334772 C46.8964278,57.1312503 50.4521171,57.1795432 54.0069858,57.1450954 C54.8872921,57.1365246 55.2529376,57.7241158 55.7035941,58.239515 C58.3130033,61.2231269 57.1466466,65.8915517 53.4375109,67.2463904 C51.434174,67.9782011 49.4577516,67.7504168 47.9149179,66.2811914 C45.497686,63.9792842 43.2481783,61.4998634 40.8076422,58.9714905 C41.4376751,58.3796138 41.9536488,57.8488863 42.5232877,57.3844172 C42.7300711,57.2158041 43.0646991,57.1337226 43.3410667,57.1334772 Z M52.0685066,31.9061973 C54.1506182,31.9947069 55.9401149,33.0531952 56.9092068,35.234947 C57.8881455,37.4389498 57.5745241,39.5549376 55.9399508,41.3454015 C54.5929048,42.82089 53.1293381,44.1892442 51.7127079,45.6002873 C45.0360667,52.2502049 38.3677954,58.9081987 31.6760558,65.5427879 C28.7925766,68.4016294 24.2116685,67.6661926 22.5368873,64.0796609 C21.5106838,61.8817565 21.793616,59.772032 23.3827298,57.9505816 C24.4968982,56.6733741 25.7592615,55.5258818 26.9623796,54.3274594 L40.7060096,40.6437105 C42.9958406,38.362284 45.2846444,36.0798258 47.5714606,33.7953897 C48.7512746,32.6167459 50.1060339,31.9200424 52.0685066,31.9061973 Z M159.947538,30.1955733 L159.947538,37.3976454 L162.565481,37.3978102 L162.565481,37.3978102 C164.888512,37.4001177 166.182221,38.3785025 166.867068,40.6448081 C166.889387,40.718154 166.954869,40.7786437 167,40.8450671 L167,41.8340005 C166.737418,42.4280198 166.558862,43.0807158 166.19535,43.6040264 C165.433862,44.700259 164.343162,45.2768072 162.98709,45.2807629 C162.011105,45.2837297 161.034792,45.2814222 159.962801,45.2814222 L159.962801,46.7513068 C159.962801,49.2773723 159.958042,51.8036025 159.967232,54.329668 C159.968873,54.7666117 159.999234,55.2085001 160.06849,55.6395102 C160.307932,57.1281846 161.155252,57.8420297 162.662309,57.7973628 C163.424617,57.7746174 164.184628,57.6748999 165.076751,57.5989169 L165.076751,60.2243701 L165.076751,60.2243701 L165.084341,61.8722422 C165.085202,62.4214504 165.080115,62.9703909 165.056236,63.5185072 C165.044748,63.7804097 164.829759,64.2072993 164.62954,64.2610313 C161.135722,65.1982105 157.689168,65.3814928 154.665864,62.9523428 C152.616575,61.3059336 152.015755,58.9202967 151.931072,56.4135154 C151.851149,54.0549093 151.913348,51.6915234 151.883643,49.330445 C151.87593,48.7323052 151.820788,48.1190016 151.675711,47.5409701 C151.225875,45.7483636 150.291083,45.0371556 148.457932,45.0135861 C147.887144,45.0061691 147.316357,45.0124323 146.683698,45.0124323 L146.683698,37.9089239 C147.477024,37.9089239 148.236379,37.9321639 148.993928,37.9043089 C150.891083,37.8344243 152.399453,36.4957382 152.58244,34.6174241 C152.723085,33.1740758 152.725055,31.7170473 152.791849,30.1955733 L159.947538,30.1955733 Z M143.906729,31.179117 C144.176532,31.7823664 144.313895,32.4968707 144.316521,33.1615988 C144.344912,40.3002143 144.327352,47.4391594 144.347702,54.5777749 C144.349344,55.1666847 144.462746,55.7808123 144.654267,56.3380763 C144.982659,57.2938804 145.830306,57.5580904 146.765919,57.620558 L146.765919,64.1672969 C142.044201,65.0922793 137.850274,63.1472121 136.850656,58.4458229 C136.635503,57.4343089 136.523578,56.3812597 136.519639,55.3470002 C136.491904,47.9336261 136.499453,40.5199223 136.507495,33.1065482 C136.509792,31.0393478 137.678282,29.5559477 139.602681,29.1107629 C141.321772,28.7130469 143.18233,29.559409 143.906729,31.179117 Z M88.1294584,39.3012103 C88.554349,39.5865175 88.9131018,39.9712126 89.3437363,40.3455239 C90.817314,38.8789357 92.5519967,37.8779703 94.5853665,37.4731669 C98.8334519,36.6271344 102.688321,37.3282882 105.839798,40.5321027 C107.503583,42.2235084 108.166111,44.348891 108.176614,46.6755215 C108.201887,52.250963 108.186132,57.8264045 108.184491,63.4020108 C108.184327,63.5346927 108.15692,63.6672098 108.136898,63.8476901 L100.572237,63.8476901 L100.572237,62.8777113 L100.572237,62.8777113 C100.566493,57.7690464 100.566658,52.6603814 100.545979,47.5520462 C100.54401,47.0369767 100.465235,46.5098752 100.338868,46.0096397 C99.909546,44.3086744 98.7389223,43.23255 97.2714168,43.1351401 C95.2910558,43.0034471 93.7864606,43.828712 93.1767779,45.5893431 C92.8519967,46.527676 92.6916575,47.5673746 92.6813184,48.563725 C92.6320842,53.342251 92.659163,58.1216011 92.659163,62.9006216 L92.659163,63.8462067 L85.1054978,63.8462067 L85.1054978,62.924356 C85.1054978,58.0904497 85.1084519,53.2565434 85.1035284,48.4224723 C85.1020514,47.0040122 84.9354759,45.6139016 84.0351477,44.4479491 C83.0988786,43.235352 81.5450492,42.8119237 79.9644694,43.2782058 C78.473988,43.7179515 77.3952681,45.0561432 77.2162199,46.7262868 C77.1577954,47.2710243 77.1402352,47.8223546 77.1394147,48.3707182 C77.1328501,52.3257923 77.1379376,56.2808665 77.1338348,60.2359407 C77.1320295,61.8943819 76.4340536,63.1633482 74.9294584,63.881149 C73.5517232,64.5387897 72.2061543,64.3583094 71.0033643,63.422284 C69.9597648,62.6102049 69.5347101,61.4867765 69.5358589,60.1757806 C69.5402899,55.177052 69.5283096,50.1781587 69.5483315,45.179595 C69.5507932,44.5763457 69.3986597,44.2010454 68.8774344,43.8292065 C67.3779267,42.7596751 67.1278173,40.6268754 68.2449398,39.1527054 C69.326942,37.7246857 71.4243162,37.3685048 72.8363512,38.5169861 C73.5605853,39.1060607 74.0376641,39.0419449 74.8372265,38.6654909 C79.3575766,36.5364822 83.8303337,36.4159972 88.1294584,39.3012103 Z M129.818955,38.8722604 C132.566876,40.6068495 134.049809,43.1845044 134.109054,46.4013398 C134.214251,52.139296 134.139907,57.8803838 134.137609,63.620153 C134.137609,63.8050836 134.106592,63.9901789 134.08657,64.2117 L127.159491,64.2117 L127.159491,61.4959242 C125.389524,63.5154909 123.273113,64.1938992 120.898222,64.2360937 C118.569283,64.2776289 116.321581,63.94749 114.288211,62.7144549 C110.537883,60.4404026 109.357741,55.6284177 111.730662,52.2372004 C113.017478,50.398114 114.906756,49.5169743 117.031373,49.1143136 C119.496362,48.6473723 121.975629,48.2560843 124.446854,47.8209536 C125.318627,47.6675041 126.111296,47.3578032 126.298386,46.3548599 C126.468572,45.4417448 125.889086,44.4279232 124.941001,43.9326324 C123.70506,43.286859 122.391165,43.3135602 121.116329,43.7147375 C120.163485,44.0145491 119.242642,44.4546244 118.357905,44.9274994 C116.356045,45.9976901 114.002489,45.0555663 113.460093,42.8968896 C113.128911,41.5788062 113.567259,40.4313139 114.642205,39.712689 C118.708124,36.9946056 125.428747,36.101434 129.818955,38.8722604 Z M126.173496,52.5427808 C124.416001,52.7656204 122.725301,52.9873063 121.032631,53.1921804 C119.470596,53.3813963 118.437664,54.4332917 118.378747,55.9203179 C118.321307,57.3689404 119.053583,58.3211184 120.72459,58.5350577 C124.30227,58.9935931 127.0282,56.8739793 126.173496,52.5427808 Z M56.5023687,44.0087803 C59.5952571,43.969223 62.0289004,46.1630068 62.3825656,49.2646315 C62.6927407,51.9860113 60.6429595,54.6434401 57.756198,55.253612 C57.5177407,55.3040476 57.270093,55.3348693 57.0265481,55.3348693 C53.0661543,55.3343749 49.1057604,55.3279468 45.1452024,55.3210243 C45.0198195,55.3208594 44.8944365,55.302729 44.635465,55.2826207 C44.89657,54.998632 45.0649508,54.7995267 45.2497429,54.6170685 C48.6948195,51.2110172 52.1374344,47.8023287 55.5990864,44.4132541 C55.82343,44.193546 56.1961324,44.012736 56.5023687,44.0087803 Z M34.2583698,43.8873558 C34.3862144,43.8878502 34.513895,43.9302096 34.6419037,43.952955 L34.8398249,44.2046386 L34.8398249,44.2046386 C34.5834792,44.3622086 34.2857768,44.4775842 34.07686,44.683612 C30.7043217,48.0112079 27.3518053,51.359077 23.9643326,54.6710148 C23.6763129,54.9525312 23.1675602,55.1636685 22.7704048,55.1496586 C20.004267,55.0514245 17.638895,53.8594302 17.1094639,50.8481281 C17.1019147,50.8051095 17.0377462,50.772145 17,50.7344008 L17,48.5917118 C17.4025711,47.461361 17.7998906,46.3417236 18.709081,45.4764069 C19.7695842,44.4670356 21.0150438,43.866753 22.4530088,43.8555451 C26.3878009,43.8247233 30.3232495,43.8688957 34.2583698,43.8873558 Z M32.0538293,33.3951684 C34.2106127,35.6133459 36.3222648,37.8756958 38.57407,40.2450153 C37.9876915,40.7979939 37.4710613,41.3259195 36.9068381,41.7958276 C36.6998906,41.9682317 36.3797046,42.0885519 36.1113786,42.088223 C32.4769147,42.0842665 28.8424508,42.0593784 25.208151,42.0214693 C24.9578775,42.0188321 24.6552516,41.9362562 24.4676696,41.7804992 C21.8469365,39.6055051 21.5585886,35.8332187 23.8074398,33.380664 C25.995733,30.9940381 29.7058534,30.9803579 32.0538293,33.3951684 Z M41.1247265,27 C41.3543217,27.0726866 41.5832604,27.1470214 41.813512,27.2177302 C44.7132385,28.1090888 45.6798687,30.4136332 45.8190372,32.720485 C45.8315098,32.9271721 45.6913567,33.2020956 45.5338074,33.3515894 C43.7044311,35.0866729 41.858151,36.8039557 39.9962801,38.5444785 C39.0641138,37.6265835 37.8818381,36.466235 36.7043217,35.3009418 C36.1980306,34.7997174 35.7416302,34.2383329 35.1905361,33.7943019 C34.5002735,33.2380268 34.4607221,32.589781 34.6707877,31.8179185 C35.3169037,29.4449729 36.700547,27.794608 39.1314004,27.1433953 C39.2018053,27.1246056 39.2571116,27.049117 39.3194748,27 L41.1247265,27 Z" id="Fill-22" fill="#000000"></path>
    </g>
</svg>