<?xml version="1.0" encoding="UTF-8"?>
<svg width="147px" height="43px" viewBox="0 0 147 43" version="1.1" xmlns="http://www.w3.org/2000/svg" xmlns:xlink="http://www.w3.org/1999/xlink">
    <!-- Generator: Sketch 63.1 (92452) - https://sketch.com -->
    <title>Combined Shape</title>
    <desc>Created with Sketch.</desc>
    <g id="Symbols" stroke="none" stroke-width="1" fill="none" fill-rule="evenodd">
        <g id="01_logos-/-Clients-/-Ymanci-/-Black" transform="translate(-19.000000, -27.000000)" fill="#000000">
            <path d="M95.9161175,45.6320901 C98.6611365,45.6320901 100.927234,46.8580458 102.321162,48.4783047 L102.321162,48.4783047 L102.626164,46.0698699 L108.726634,46.0698699 L108.726634,69.2765059 L102.626164,69.2765059 L102.321162,66.8685015 C100.796151,68.5757138 98.4435226,69.7142857 95.4367673,69.7142857 C89.2056428,69.7142857 84.848225,64.6791719 84.848225,57.6734031 C84.848225,50.6676344 89.4673792,45.6320901 95.9161175,45.6320901 Z M149.012786,45.632004 C150.973453,45.632004 152.977814,46.0263072 154.807826,46.8579597 L154.807826,46.8579597 L154.807826,52.5942961 C153.80586,52.0247949 152.324544,51.3683404 150.276061,51.3683404 C146.877772,51.3683404 144.262978,53.6889609 144.262978,57.673317 C144.262978,61.6576732 146.877772,63.9782937 150.276061,63.9782937 C152.324544,63.9782937 153.80586,63.3218392 154.807826,62.752338 L154.807826,62.752338 L154.807826,68.4882439 C152.977814,69.3203269 150.973453,69.7141996 149.012786,69.7141996 C142.258618,69.7141996 137.465972,64.8542838 137.465972,57.673317 C137.465972,50.4923502 142.258618,45.632004 149.012786,45.632004 Z M73.6418393,45.6321331 C78.8268751,45.6321331 82.2692866,49.1348023 82.2692866,54.5207426 L82.2692866,54.5207426 L82.2692866,69.2765489 L75.5155461,69.2765489 L75.5155461,55.5275932 C75.5155461,52.988298 74.0342297,51.49933 71.7244384,51.49933 C69.2411558,51.49933 67.4544089,53.163496 67.4544089,56.4031529 L67.4544089,56.4031529 L67.4544089,69.2765489 L60.7006684,69.2765489 L60.7006684,55.5275932 C60.7006684,52.988298 59.219352,51.49933 56.9095608,51.49933 C54.4262782,51.49933 52.6395313,53.163496 52.6395313,56.4031529 L52.6395313,56.4031529 L52.6395313,69.2765489 L45.8857908,69.2765489 L45.8857908,46.069913 L51.9858329,46.069913 L52.290835,48.5218244 C53.9032338,46.726798 56.1252084,45.6321331 58.7832675,45.6321331 C62.0076367,45.6321331 64.5350418,46.9459031 66.0167866,49.2226165 C67.8031051,46.9893798 70.50443,45.6321331 73.6418393,45.6321331 Z M26.7924018,37.0064068 L26.7924018,42.4358238 C26.7924018,45.4133293 28.6224145,47.3835538 31.5854757,47.3835538 C34.5485369,47.3835538 36.3785495,45.4133293 36.3785495,42.4358238 L36.3785495,42.4358238 L36.3785495,37.0064068 L43.4377205,37.0064068 L43.4377205,42.9609874 C43.4377205,48.3038815 40.1216793,52.5163825 35.2018068,53.9020396 L35.2018068,53.9020396 L35.2018068,69.2764198 L28.0124102,69.2764198 L28.0124102,53.9140925 C23.0689772,52.5409188 19.7336592,48.3193782 19.7336592,42.9609874 L19.7336592,42.9609874 L19.7336592,37.0064068 L26.7924018,37.0064068 Z M164.707758,46.0698699 L164.707758,69.2765059 L157.953589,69.2765059 L157.953589,46.0698699 L164.707758,46.0698699 Z M125.823502,45.6321331 C131.22658,45.6321331 134.887034,49.1348023 134.887034,54.6081264 L134.887034,54.6081264 L134.887034,69.2765489 L128.132865,69.2765489 L128.132865,55.8340821 C128.132865,53.0756817 126.4772,51.49933 123.993489,51.49933 C121.204776,51.49933 119.156721,53.3382635 119.156721,56.3596762 L119.156721,56.3596762 L119.156721,69.2765489 L112.402981,69.2765489 L112.402981,46.069913 L118.503451,46.069913 L118.851719,48.7848367 C120.594772,46.8146122 122.991523,45.6321331 125.823502,45.6321331 Z M96.8311239,51.192798 C93.8680626,51.192798 91.646088,53.8203379 91.646088,57.6734031 C91.646088,61.5264683 93.8680626,64.1535778 96.8311239,64.1535778 C99.7941851,64.1535778 102.01616,61.5264683 102.01616,57.6734031 C102.01616,53.8203379 99.7941851,51.192798 96.8311239,51.192798 Z M161.308484,36.3493927 C163.400233,36.3493927 165.142857,38.0131282 165.142857,40.2024579 C165.142857,42.3917875 163.400233,44.0120464 161.308484,44.0120464 C159.217163,44.0120464 157.47411,42.3917875 157.47411,40.2024579 C157.47411,38.0131282 159.217163,36.3493927 161.308484,36.3493927 Z M39.9080065,27.2858004 C41.9993271,27.2858004 43.7423799,28.9495359 43.7423799,31.1388656 C43.7423799,33.3281952 41.9993271,34.9484541 39.9080065,34.9484541 C37.8166859,34.9484541 36.0736331,33.3281952 36.0736331,31.1388656 C36.0736331,28.9495359 37.8166859,27.2858004 39.9080065,27.2858004 Z M23.2629448,27.2857143 C25.3542655,27.2857143 27.0973182,28.9494498 27.0973182,31.1387795 C27.0973182,33.3281091 25.3542655,34.948368 23.2629448,34.948368 C21.1716242,34.948368 19.4285714,33.3281091 19.4285714,31.1387795 C19.4285714,28.9494498 21.1716242,27.2857143 23.2629448,27.2857143 Z" id="Combined-Shape"></path>
        </g>
    </g>
</svg>