<?xml version="1.0" encoding="UTF-8"?>
<svg width="184px" height="100px" viewBox="0 0 184 100" version="1.1" xmlns="http://www.w3.org/2000/svg" xmlns:xlink="http://www.w3.org/1999/xlink">
    <!-- Generator: Sketch 63.1 (92452) - https://sketch.com -->
    <title>01_logos / Clients / FranceTVSport / Black</title>
    <desc>Created with Sketch.</desc>
    <g id="01_logos-/-Clients-/-FranceTVSport-/-Black" stroke="none" stroke-width="1" fill="none" fill-rule="evenodd">
        <path d="M140.841564,43.4458679 C142.680273,43.6739488 144.151197,44.527469 145.285712,45.9689488 C145.919582,46.7743639 146.355508,47.7002237 146.565464,48.6932561 C146.769304,49.6571779 146.814731,50.6357278 146.643505,51.6383666 C146.406032,53.0287574 145.861342,54.2395364 144.911156,55.2655364 C144.181773,56.0531941 143.287061,56.5784933 142.282567,56.9794178 C141.187873,57.4163666 140.062822,57.4883423 138.945342,57.3561806 C137.69391,57.2081536 136.542505,56.711965 135.612558,55.8063369 C135.597124,55.791345 135.568951,55.7895256 135.480135,55.757504 L135.480135,56.7181509 C135.48079,59.0344016 135.476568,61.3508706 135.488725,63.6671213 C135.490108,63.9253315 135.3911,63.9788221 135.172191,63.9783854 L134.106232,63.9865795 C133.928629,63.9870216 133.751086,63.9856631 133.573648,63.980496 C133.502377,63.9784582 133.382403,63.8280296 133.376288,63.7398976 C133.352846,63.4019973 133.36646,63.0614771 133.36646,62.721903 L133.366387,43.6275175 C134.001785,43.6275175 134.591829,43.6184205 135.180781,43.6398167 C135.249796,43.6423639 135.363218,43.8103315 135.369333,43.9070512 C135.391901,44.2661294 135.37836,44.6274636 135.37836,45.0593181 C135.507508,44.9892345 135.602948,44.9548113 135.677423,44.8944798 C137.190789,43.6684906 138.909379,43.2061429 140.841564,43.4458679 Z M77.3584494,43.5005666 C78.6965862,43.7531003 79.825059,44.4367606 80.7267598,45.4728765 C81.4523574,46.3067472 81.940263,47.2545127 82.204163,48.3337121 C82.398175,49.127483 82.4944166,49.9213267 82.4639862,50.7347472 C82.4457086,51.2223094 82.4416997,51.260963 82.0282841,51.2639499 L73.006247,51.2641218 C73.1953814,52.7117876 73.9112238,53.7215585 75.1996382,54.2372512 C77.0993542,54.997545 78.6772942,54.2897229 80.0839358,53.0168658 C80.7595926,53.6800032 81.4308814,54.3387741 82.1236462,55.0185046 C81.6631134,55.59351 81.1014614,56.0241272 80.485355,56.3786205 C78.996231,57.2354156 77.3671854,57.5688038 75.6836854,57.3603725 C73.0445398,57.033607 70.751631,55.69889 69.859467,52.6390113 C69.1410038,50.1750976 69.510391,47.8223132 71.1059486,45.748917 C71.9549422,44.6457013 73.0771542,43.9345315 74.4437558,43.5921919 C75.4163638,43.3485369 76.3970526,43.3192081 77.3584494,43.5005666 Z M178.40217,40.1172919 C178.466162,40.1196935 178.57325,40.3207744 178.574852,40.4308849 C178.588538,41.4003377 178.587446,42.3700817 178.579366,43.3396073 C178.577691,43.5457825 178.612053,43.6442488 178.854622,43.6415561 C180.236294,43.6261275 181.618256,43.6272191 183,43.6226342 L183,45.5875938 L178.602006,45.5875938 C178.591814,45.7158984 178.58155,45.7854725 178.58155,45.8550466 C178.580967,48.0583485 178.580312,50.2616504 178.582787,52.4649523 C178.583151,52.7904806 178.56961,53.1199388 178.613145,53.4406639 C178.773814,54.6220412 179.721306,55.4366261 180.908674,55.4056235 C181.386898,55.3931059 181.86563,55.3320466 182.33985,55.2632003 C182.594067,55.2263027 182.69242,55.2532299 182.724015,55.5493566 C182.766385,55.9456962 182.90354,56.3318472 183,56.7223647 L183,57.0862461 C182.655802,57.1834024 182.315971,57.3419819 181.96675,57.3659981 C181.015763,57.4313512 180.060118,57.4492542 179.146405,57.0890116 C177.929189,56.609052 177.035423,55.7966504 176.748518,54.49461 C176.56812,53.676459 176.485274,52.8242488 176.468748,51.9851383 C176.429654,49.9982003 176.448364,48.0098795 176.463798,46.0222865 C176.466491,45.6795102 176.36115,45.5909415 176.028818,45.5982191 C175.071498,45.619397 174.113231,45.5977825 173.155547,45.6095722 C172.896525,45.6127016 172.786233,45.5668526 172.809529,45.268397 C172.843381,44.8348687 172.826928,44.3961733 172.811058,43.9604617 C172.801739,43.7029792 172.89769,43.626928 173.151252,43.6305668 C174.072463,43.6437394 174.993966,43.635734 175.915468,43.635734 L176.454698,43.635734 L176.454698,40.1030278 C177.12999,40.1030278 177.766699,40.0937124 178.40217,40.1172919 Z M127.956073,43.5843976 C128.862142,43.7797291 129.695119,44.1335674 130.468401,44.6368881 C130.537197,44.6817183 130.598058,44.7386294 130.686946,44.8092224 C130.310425,45.3875027 129.956835,45.9304865 129.592908,46.4893356 C129.171906,46.2557965 128.787376,46.0065377 128.374454,45.8200121 C127.060342,45.2262305 125.741861,45.1134272 124.442526,45.8749582 C123.778226,46.2642385 123.443055,47.0756213 123.672302,47.7625566 C123.812734,48.1836402 124.153074,48.4406132 124.537312,48.5833275 C125.3807,48.8967022 126.24105,49.1653194 127.097906,49.4412871 C128.233368,49.8070606 129.391616,50.1258208 130.255752,51.0273005 C131.114938,51.923686 131.224138,52.9980822 131.002607,54.157845 C130.777874,55.3342008 130.076518,56.154535 129.076174,56.7369636 C128.384428,57.1399259 127.626143,57.3581819 126.818646,57.3912951 C125.858414,57.4306671 124.906918,57.367279 123.986871,57.081996 C122.874997,56.7371819 121.856234,56.2166132 121.007895,55.3529771 C121.391551,54.867341 121.765452,54.3812682 122.160465,53.9130256 C122.203198,53.8623005 122.390149,53.8772925 122.473359,53.9254704 C123.107738,54.2925539 123.700549,54.7510445 124.368052,55.0369097 C125.575367,55.554058 126.833278,55.6515782 128.02021,54.9634057 C128.712319,54.5621173 129.172124,53.9400256 128.98117,52.9943706 C128.867893,52.4330472 128.471351,52.0757156 127.992036,51.8700499 C127.304367,51.574942 126.584302,51.3496267 125.867004,51.1302062 C124.813442,50.8078801 123.722971,50.5809636 122.801906,49.9299798 C122.004818,49.3666914 121.60784,48.6117102 121.534967,47.6092898 C121.392862,45.6556105 122.869027,44.2349447 124.225946,43.7403571 C125.469079,43.287252 126.696196,43.3128693 127.956073,43.5843976 Z M64.3124346,43.5937348 C65.7714194,43.9469181 67.0080002,44.6576512 68.0115482,45.7730205 C68.0835474,45.8530744 68.1451362,45.9424437 68.2375922,46.0607051 C67.3978442,46.7978561 66.5670506,47.5271472 65.7108498,48.2788534 C64.852465,47.2427375 63.785581,46.6373116 62.4012162,46.6903655 C61.4078602,46.7284275 60.5665834,47.1021337 59.902429,47.8289504 C58.502849,49.3606728 58.5812546,51.5813682 59.8731634,52.963972 C60.7263794,53.877096 61.8121914,54.2169612 63.0290434,54.0954976 C64.2488074,53.9738156 65.1780994,53.3124248 65.9125786,52.3407887 C66.7606986,52.9774356 67.5819554,53.5942146 68.403649,54.2104841 C68.5498314,54.3200852 68.6714074,54.4276485 68.4985802,54.6175218 C67.689481,55.5064113 66.8447826,56.3452307 65.7000754,56.8093978 C64.232209,57.4045623 62.7243754,57.5329396 61.1672562,57.2713089 C59.6409314,57.0149181 58.3290754,56.354255 57.2423898,55.2567887 C56.4817754,54.4887078 55.9469866,53.5680151 55.6305978,52.5449261 C55.3483522,51.6323844 55.2110514,50.677414 55.332409,49.7211337 C55.5443298,48.0514275 56.1899202,46.5836027 57.4289034,45.3962577 C58.313569,44.5484868 59.341505,43.9547779 60.5124202,43.6513008 C61.7636338,43.3269369 63.0359594,43.2847995 64.3124346,43.5937348 Z M155.593355,43.3671758 C159.472139,43.3621606 162.50739,46.2994841 162.551288,50.3490474 C162.593803,54.2598992 159.554476,57.4348372 155.619418,57.3988129 C151.761673,57.4360744 148.695774,54.3311472 148.686068,50.4145461 C148.676409,46.4958345 151.695425,43.3723493 155.593355,43.3671758 Z M29.9441443,43.429304 C31.1494939,43.4584873 32.2553259,43.8721477 33.2168683,44.6257461 C33.2518123,44.65311 33.3027723,44.6598054 33.4266779,44.706455 L33.4266779,43.6383175 L36.7954251,43.6383175 L36.7954251,57.1113175 L34.0003419,57.1112447 C33.4041827,57.1110992 33.4041099,57.1107353 33.4030907,56.5045817 C33.4028723,56.376641 33.4030907,56.2486275 33.4030907,56.0733822 C32.9831803,56.3369051 32.6289355,56.6018836 32.2392371,56.7957596 C31.0025835,57.4110102 29.7049963,57.5254873 28.3478587,57.2717892 C26.8661603,56.9949482 25.6114523,56.3329024 24.5979307,55.2246652 C23.8172963,54.371145 23.3235667,53.3675601 23.0294547,52.2459321 C22.7433507,51.1550156 22.7168515,50.0597326 22.9242587,48.9712178 C23.1862659,47.5960372 23.7795859,46.3731046 24.7738155,45.3513256 C25.5500819,44.5534792 26.4535299,43.9444873 27.5126243,43.670703 C28.2934771,43.4688216 29.1337347,43.4098 29.9441443,43.429304 Z M101.360107,39.9152358 L101.360107,43.6081226 C101.477024,43.6177291 101.568752,43.6316294 101.66048,43.6317022 C103.759158,43.632721 105.85791,43.638907 107.956515,43.6236968 C108.219614,43.6217318 108.253175,43.7902089 108.323573,43.942748 C108.752365,44.8726833 109.177153,45.8045108 109.596117,46.7389582 C110.291066,48.2889474 110.979899,49.8416294 111.673319,51.3922736 C111.740295,51.5419744 111.82154,51.6852709 111.930886,51.9000337 C112.762771,50.0471496 113.550904,48.2916402 114.339182,46.5361307 C114.734559,45.6552466 115.133867,44.7761092 115.522619,43.8922412 C115.612527,43.6881765 115.7309,43.6246429 115.961894,43.6283544 C117.063722,43.6458935 118.16606,43.6362143 119.34724,43.6362143 C119.213361,43.9557749 119.104598,44.2388019 118.978071,44.5136051 L115.468602,52.1189447 L115.468602,52.1189447 C114.748537,53.6823248 114.03466,55.2485431 113.317653,56.8133059 C113.223668,57.0183895 113.124223,57.1439286 112.836008,57.1241334 C112.208181,57.0809043 111.574602,57.0949501 110.94481,57.1202763 C110.719275,57.1293733 110.615026,57.0515027 110.531087,56.8676698 C109.669354,54.9811631 108.804126,53.0962574 107.940863,51.2104784 C107.278602,49.7639043 106.620344,48.3155108 105.950147,46.872721 C105.90887,46.7837156 105.77863,46.6787722 105.688868,46.6779717 C104.261114,46.6658181 102.833215,46.6693841 101.383622,46.6693841 L101.383694,47.6454596 L101.383694,47.6454596 C101.384568,49.185624 101.386898,50.7258612 101.38617,52.2660256 C101.385514,53.4621765 102.14511,54.135721 103.235654,54.2362251 C103.756902,54.2842574 104.293219,54.1878288 104.820874,54.1379771 C105.03527,54.1177453 105.146435,54.133465 105.187058,54.3929124 C105.304411,55.1430903 105.448482,55.8897749 105.60311,56.633403 C105.702846,57.1129259 105.66033,57.2037507 105.161432,57.2362817 C104.306323,57.2921011 103.440658,57.4351792 102.596397,57.3573086 C100.791685,57.1907965 99.2274311,56.5256941 98.3553599,54.7841577 C98.0162575,54.1069016 97.8509287,53.3705512 97.8377519,52.6224111 C97.8048463,50.7555539 97.8113255,48.8878235 97.8159119,47.0203841 C97.8165671,46.7718531 97.7544687,46.6658181 97.4981399,46.6673464 C96.4563719,46.6733868 95.4145311,46.6698208 94.3217303,46.6698208 L94.3217303,43.6360687 C95.3637895,43.6360687 96.3937639,43.6280633 97.4233743,43.6412358 C97.7128271,43.6449474 97.8244295,43.5802493 97.8178047,43.2575593 C97.7950911,42.1568908 97.8090687,41.0554218 97.8090687,39.9152358 L101.360107,39.9152358 Z M47.8390832,43.4414868 C49.61402,43.6399477 51.0069752,44.4711984 52.0601728,45.8842954 C52.6480328,46.672972 52.9553944,47.5811472 53.0558584,48.5593332 C53.3400696,51.3287617 53.1152632,54.1061957 53.1900288,56.8787536 C53.1947608,57.0558183 53.1595256,57.1267752 52.9462944,57.1226997 C51.9642224,57.1038507 50.981204,57.0944625 49.9995688,57.1203709 C49.6896592,57.1285218 49.6159128,57.0570555 49.6173688,56.753069 C49.6283616,54.4009396 49.629308,52.0485919 49.6150392,49.6964625 C49.6111808,49.0640367 49.4741712,48.4443466 49.1345592,47.9004167 C48.565336,46.9886027 47.6834368,46.6555057 46.655792,46.6841795 C45.4104752,46.7189666 44.3867616,47.2523439 43.5759152,48.1867186 C43.4692632,48.309565 43.3929688,48.5048237 43.3924592,48.6668237 C43.3843056,51.4310852 43.3904936,54.1954194 43.3924592,56.9597536 C43.3924592,56.9946863 43.380156,57.0296916 43.3687992,57.0893682 C43.2914856,57.0967186 43.2114784,57.1107644 43.1314712,57.11091 C42.112708,57.1128022 41.0937992,57.1010852 40.0754728,57.121972 C39.8434592,57.1267752 39.812592,57.054945 39.8142719,56.8616512 C39.8215464,56.0493224 39.8189256,55.2369935 39.8189256,54.4245919 L39.8191531,49.2412105 L39.8191531,49.2412105 L39.8192168,43.6408938 L43.2377592,43.6408938 L43.2377592,44.7472388 C43.4790912,44.5854571 43.640052,44.4719261 43.8064728,44.36691 C45.0420344,43.5866755 46.3765312,43.2778857 47.8390832,43.4414868 Z M10.9008,37.072769 C11.1722712,37.1215291 11.4419224,37.1885561 11.7155048,37.2150466 C12.1923448,37.261114 12.2885864,37.3740628 12.20392,37.8201814 C12.0578832,38.5900817 11.9100264,39.3598364 11.7836456,40.1330116 C11.7401112,40.3993 11.5724528,40.3593458 11.4091624,40.3351113 C10.9302112,40.2641544 10.467276,40.231769 9.9720176,40.31961 C8.7176736,40.5420143 8.2140432,41.3931329 8.1279936,42.3311464 C8.09072,42.737893 8.1217328,43.1508984 8.1217328,43.6024024 L12.2165144,43.6024024 C12.22758,43.7684051 12.2430136,43.8963458 12.243596,44.0244321 C12.2467264,44.8005911 12.2382816,45.5769685 12.2521136,46.3529092 C12.2565544,46.602459 12.197732,46.6827313 11.9263336,46.6778553 C10.8226128,46.6581329 9.7183824,46.6686854 8.6142976,46.6702137 C8.0974904,46.6710143 8.099456,46.6732704 8.0993832,47.1814671 C8.0989464,50.1650763 8.0974904,53.1487582 8.0964712,56.1324402 L8.0964712,57.1152838 L8.0964712,57.1152838 L6.4035163,57.1156477 C5.8475336,57.1149381 5.2978208,57.1124456 4.7481808,57.1053135 C4.6768368,57.1043674 4.5460152,56.960707 4.5458696,56.8832003 C4.5371336,53.5723889 4.5367696,50.2615049 4.5477624,46.9506935 C4.5487816,46.6641005 4.3933536,46.670141 4.202472,46.6705776 C3.1350056,46.6735615 2.0675392,46.6763997 1,46.679238 L1,43.6226342 L4.5416472,43.6226342 C4.55628,42.5461275 4.5200984,41.5450898 4.8324104,40.5686504 C5.3907136,38.8233296 6.6371952,37.8455075 8.3346,37.3547771 C8.7235704,37.2423377 9.123024,37.1657771 9.5176,37.072769 L10.9008,37.072769 Z M171.646294,43.6524943 C171.544083,44.2888501 171.442454,44.9210577 171.335292,45.5875429 C171.073067,45.5875429 170.833336,45.5882706 170.593606,45.5874701 C169.320188,45.5830307 168.334476,46.1739741 167.508633,47.0863704 C167.354952,47.2560846 167.216196,47.4431925 167.094911,47.6374323 C166.86974,47.9980388 166.752096,48.3771305 166.75559,48.8241951 C166.775974,51.4560038 166.765564,54.087958 166.765636,56.7199121 L166.765636,57.1064997 L164.661935,57.1064997 L164.661935,56.466869 C164.661935,52.3188394 164.666448,48.1707369 164.653845,44.0227073 C164.652762,43.6866992 164.754609,43.6152329 165.066266,43.6300792 C165.610592,43.6561332 166.157028,43.6373569 166.762506,43.6373569 L166.762506,45.1536507 C168.187493,43.8317423 169.800232,43.4592733 171.646294,43.6524943 Z M22.6011578,43.5071747 C22.4589794,44.6048593 22.320077,45.6770722 22.1845962,46.7226491 C21.6040162,46.7226491 21.0645682,46.7039456 20.5268674,46.7266518 C19.4925978,46.7702447 18.735041,47.3496167 18.0327394,48.0409914 C17.6669922,48.4010156 17.569877,48.8148216 17.5740994,49.3168323 C17.5944106,51.7171396 17.5834906,54.1176652 17.5835634,56.5182636 L17.5836362,57.0700534 L17.5836362,57.0700534 L14.0101026,57.0700534 L14.0100993,48.4111585 C14.0100005,46.9719806 14.0098039,45.5339941 14.0094362,44.0960075 C14.0093018,43.6322043 14.0052978,43.6347515 14.4610258,43.6356248 C15.334189,43.6371531 16.2075706,43.645959 17.0804426,43.6290749 C17.3647994,43.6235439 17.4793138,43.7029429 17.4586386,43.9968135 C17.4375994,44.2957057 17.4539794,44.5972906 17.4539794,45.0025817 C18.1543154,44.2657946 18.9337122,43.831393 19.8393442,43.5950884 C20.7476698,43.3581288 21.6498074,43.3476491 22.6011578,43.5071747 Z M139.222783,45.4264016 C137.700316,45.6857035 136.495331,46.4173235 135.598799,47.6652183 C135.534007,47.7553881 135.478897,47.8775067 135.47846,47.9849973 C135.473219,49.3913989 135.490764,50.7978733 135.473292,52.2039838 C135.468705,52.5840943 135.550532,52.8935391 135.78058,53.2 C136.802256,54.5613531 138.117533,55.3636388 140.009678,55.4393989 C140.237615,55.4007547 140.619888,55.3553423 140.992769,55.269248 C142.127648,55.0073261 143.056722,54.4050296 143.722842,53.4550809 C144.673974,52.0986038 144.850368,50.5965741 144.490736,48.9958598 C143.960898,46.6382722 141.602833,45.0211105 139.222783,45.4264016 Z M155.629974,45.3580118 C152.882283,45.3476431 150.778727,47.4548803 150.753611,50.3796863 C150.72966,53.1499881 152.826737,55.471042 155.617816,55.406635 C158.409769,55.4704598 160.510922,53.1724032 160.490611,50.390821 C160.469354,47.4912685 158.426513,45.3686755 155.629974,45.3580118 Z M29.8879427,46.6833499 C28.8817739,46.6759995 28.0035147,47.0191396 27.3525371,47.7821989 C26.5387059,48.7361504 26.2193323,49.8484631 26.4220803,51.1149887 C26.6364035,52.4537811 27.7265107,53.6927973 29.0475395,54.0067542 C30.4230955,54.333738 31.6237859,53.9468593 32.6928539,53.0806032 C33.0923075,52.7568943 33.3372067,52.3576437 33.2753267,51.7934092 C33.2253859,51.3385574 33.2652075,50.8738809 33.2657899,50.4134981 C33.2657899,49.8562501 33.2475899,49.2981288 33.2733611,48.7421181 C33.2865379,48.4585817 33.1837443,48.2575008 33.0033459,48.0647164 C32.1595939,47.1633094 31.1256155,46.6923741 29.8879427,46.6833499 Z M89.6760784,46.7347154 C91.6921288,46.7557477 93.3029744,48.422834 93.286012,50.4050415 C93.2828088,52.4269121 91.6383296,54.0725294 89.628904,54.0646253 C87.5621848,54.0564458 85.9399096,52.436373 85.9502702,50.3897585 C85.9609488,48.3057369 87.6048456,46.7131736 89.6760784,46.7347154 Z M73.772103,47.3784507 C73.466343,47.7434965 73.2451038,48.1449305 73.2135814,48.6509439 C73.306183,48.6748146 73.3408358,48.6915531 73.3755614,48.6916259 C75.0969174,48.6935181 76.8182734,48.6916259 78.5396294,48.6973792 C78.8048398,48.6982485 78.8159054,48.5576447 78.7591214,48.3673348 C78.5866582,47.7891272 78.315187,47.2695046 77.832887,46.8861919 C76.5845126,45.894324 74.8365118,46.1072674 73.772103,47.3784507 Z" id="Fill-5" fill="#000000"></path>
    </g>
</svg>