<?xml version="1.0" standalone="no"?>
<!DOCTYPE svg PUBLIC "-//W3C//DTD SVG 20010904//EN"
 "http://www.w3.org/TR/2001/REC-SVG-20010904/DTD/svg10.dtd">
<svg version="1.0" xmlns="http://www.w3.org/2000/svg"
 width="1080.000000pt" height="1080.000000pt" viewBox="0 0 1080.000000 1080.000000"
 preserveAspectRatio="xMidYMid meet">

<g transform="translate(0.000000,1080.000000) scale(0.100000,-0.100000)"
fill="#000000" stroke="none">
<path d="M1627 7445 c-80 -22 -188 -79 -272 -143 -85 -64 -433 -407 -423 -417
3 -3 135 -30 292 -59 158 -30 292 -58 298 -64 7 -7 9 -571 6 -1716 -2 -1353 0
-1705 9 -1701 19 7 407 289 641 465 181 136 209 162 236 210 l31 55 -1 291 -1
291 85 -101 c191 -227 222 -245 362 -215 60 13 480 260 548 323 53 49 80 100
93 174 6 34 10 443 10 997 0 1027 1 997 -59 1109 -14 28 -63 88 -107 132 -64
65 -97 89 -165 122 -79 38 -105 44 -385 92 -611 104 -881 150 -920 160 -57 14
-221 11 -278 -5z m980 -870 c64 -27 61 6 68 -725 7 -662 7 -665 -14 -698 -41
-64 -128 -79 -179 -31 l-22 20 0 731 0 730 58 -7 c31 -4 71 -13 89 -20z"/>
<path d="M4560 6860 c-197 -14 -257 -27 -366 -80 -121 -58 -240 -145 -311
-226 -50 -56 -123 -185 -123 -215 1 -8 67 -145 148 -306 l147 -291 -182 -78
c-256 -107 -273 -129 -259 -320 14 -197 124 -529 213 -639 56 -68 138 -127
220 -158 44 -16 88 -22 183 -25 109 -3 132 -1 182 18 90 34 176 120 241 243
l24 45 12 -81 c13 -97 41 -145 107 -187 62 -39 122 -50 272 -50 216 1 348 31
456 105 74 50 115 109 155 222 33 91 55 133 70 133 4 0 11 -60 14 -133 6 -152
17 -187 74 -244 63 -63 94 -73 267 -83 379 -21 593 42 722 213 l44 59 0 -346
c0 -190 -3 -346 -6 -346 -3 0 -26 14 -50 31 -77 52 -247 128 -351 156 -177 47
-474 34 -593 -27 -43 -22 -90 -74 -90 -98 0 -11 147 -116 413 -297 449 -304
461 -311 551 -285 25 7 56 22 68 34 24 22 807 1040 866 1124 18 26 42 72 55
102 l22 55 0 890 c0 993 5 921 -71 1005 -21 23 -56 51 -78 63 -40 21 -53 22
-426 25 -427 4 -588 -6 -731 -42 -296 -75 -522 -246 -634 -481 -65 -136 -65
-135 -65 -739 l0 -546 -34 0 c-22 0 -44 8 -60 23 l-24 22 -12 799 c-9 618 -14
807 -24 830 -17 40 -72 91 -116 109 -28 12 -117 16 -425 20 -214 3 -437 2
-495 -3z m2279 -588 l28 -28 -4 -564 c-6 -653 2 -605 -102 -605 -44 0 -64 5
-80 19 -21 19 -21 22 -21 586 0 438 3 570 13 582 20 26 50 37 95 38 35 0 49
-6 71 -28z m-2165 -44 c12 -17 16 -49 16 -129 l0 -106 -217 -81 c-120 -44
-219 -79 -220 -79 -1 1 -24 88 -51 193 -35 133 -47 196 -40 207 8 15 36 17
253 17 241 0 244 0 259 -22z m6 -804 c0 -125 -4 -233 -10 -243 -12 -24 -153
-38 -192 -20 -29 13 -61 86 -104 239 -15 52 -30 102 -35 111 -6 12 22 26 159
76 92 34 170 62 175 62 4 1 7 -101 7 -225z"/>
<path d="M8678 6849 c-341 -29 -607 -219 -727 -519 -61 -155 -62 -162 -59
-952 l3 -716 31 -39 c17 -21 53 -51 79 -68 l48 -30 837 0 836 0 42 28 c23 15
54 46 69 69 l28 42 0 1011 0 1012 -29 41 c-33 48 -103 98 -155 111 -43 11
-893 19 -1003 10z m286 -570 l26 -20 0 -564 c0 -310 -3 -571 -6 -580 -17 -44
-122 -60 -168 -24 l-26 20 0 574 0 574 26 20 c19 15 41 21 74 21 33 0 55 -6
74 -21z m753 -1335 c81 -47 115 -151 75 -231 -57 -111 -187 -148 -278 -78 -98
75 -108 188 -26 277 67 70 144 82 229 32z"/>
<path d="M9539 4937 c-56 -30 -89 -84 -89 -150 0 -155 184 -232 294 -123 140
140 -29 365 -205 273z m139 -54 c18 -25 15 -64 -9 -89 l-21 -22 24 -38 c14
-22 28 -45 32 -51 5 -9 1 -13 -11 -13 -11 0 -28 19 -45 50 -19 34 -34 50 -48
50 -17 0 -20 -7 -20 -50 0 -38 -4 -50 -15 -50 -13 0 -15 20 -15 121 l0 122 58
-7 c35 -4 62 -13 70 -23z"/>
<path d="M9580 4835 c0 -41 2 -45 24 -45 27 0 56 24 56 45 0 32 -13 45 -46 45
-34 0 -34 -1 -34 -45z"/>
</g>
</svg>
