<?xml version="1.0" encoding="UTF-8"?>
<svg width="184px" height="100px" viewBox="0 0 184 100" version="1.1" xmlns="http://www.w3.org/2000/svg" xmlns:xlink="http://www.w3.org/1999/xlink">
    <title>01_logos / Clients / ActionAid / Black</title>
    <g id="01_logos-/-Clients-/-ActionAid-/-Black" stroke="none" stroke-width="1" fill="none" fill-rule="evenodd">
        <path d="M58.7215812,41.152376 L58.7215812,44.8002483 L68.078226,44.8002483 L68.078226,49.0746846 L58.814539,49.0746846 C58.814539,50.4416706 58.8053121,51.7206064 58.8179818,52.9994043 C58.8262448,53.849682 58.8957909,54.7002358 58.8805045,55.5495474 C58.8710022,56.0720521 59.0834967,56.3820219 59.5474592,56.539629 C60.5304701,56.8736124 61.53042,56.8832731 62.5272025,56.6217447 C63.1393465,56.4611015 63.5036031,56.028027 63.6095061,55.4094676 C63.6943387,54.9141508 63.7289052,54.4101394 63.7917033,53.8576866 L68.6173809,53.8576866 C69.0762479,57.3754157 68.4183825,60.1372657 63.9613684,60.8176535 C61.615528,61.1756506 59.208129,61.1832412 56.8434216,60.7064177 C54.9118285,60.3169543 53.7130178,59.0806635 53.0047487,57.3059968 C52.9148207,57.080903 52.9011869,56.8146823 52.8982948,56.5669549 C52.8735061,54.3830895 52.8587706,52.1990861 52.8416939,50.0150826 L52.8408191,49.8519397 L52.8408191,49.8519397 L52.8408808,49.507695 C52.84111,49.3859792 52.8414185,49.2553117 52.8414185,49.109739 L49.8813684,49.109739 L49.8813684,44.8328186 L52.8377002,44.8328186 L52.8377002,41.152376 L58.7215812,41.152376 Z M179.914796,38.1439303 L179.914796,60.7354273 C179.684674,60.7489523 179.443947,60.7747601 179.203221,60.7754501 C177.872755,60.7794524 176.541049,60.744674 175.212098,60.7914593 C174.568417,60.8140928 174.291747,60.6515174 174.355922,59.9642291 C174.411008,59.3743757 174.367215,58.7751376 174.367215,58.0078037 C174.186533,58.1992232 174.127728,58.2375898 174.102526,58.2916896 C173.294138,60.0250914 171.813976,60.7602691 170.027259,60.9100096 C167.62468,61.1113657 165.21067,61.1640854 162.835221,60.6522075 C162.062364,60.4856298 161.288129,60.2005017 160.592943,59.8242873 C159.425944,59.1926169 158.751002,58.2148182 158.569907,56.8221624 C158.251785,54.3753885 158.000592,51.9435197 158.354245,49.4794946 C158.73062,46.8574484 160.405237,45.1603432 163.04565,44.9879691 C165.513368,44.8269118 167.994307,44.7130538 170.463265,44.7864749 C171.739472,44.8242896 172.834032,45.5753384 173.529631,46.7411062 C173.632642,46.9137564 173.705769,47.1043478 173.970458,47.2771359 L173.970458,38.1439303 L179.914796,38.1439303 Z M96.8611944,44.8724688 C98.9193477,44.9218762 100.763216,46.7136561 101.133532,48.9425127 C101.572155,51.5841563 101.549295,54.2627864 101.100756,56.9027739 C100.748068,58.9792678 98.9176951,60.5303587 96.7430347,60.8219732 C96.4477734,60.861582 96.1529252,60.9340371 95.8573884,60.9356932 C94.0004369,60.9461819 92.1433477,60.9409376 90.2862585,60.9409376 L90.2863962,60.9747499 L90.2863962,60.9747499 C88.5208876,60.9747499 86.7533133,61.0251235 84.9902836,60.9574987 C83.7748094,60.9109894 82.5864651,60.6436647 81.5513978,59.9169056 C80.0288188,58.8476065 79.3978078,57.2918232 79.3480926,55.5281973 C79.2906654,53.48869 79.28557,51.4341397 79.4680426,49.4051212 C79.710559,46.7081357 81.5234416,44.9076612 84.2098516,44.8379664 C88.4242116,44.7286627 92.6457327,44.7708936 96.8611944,44.8724688 Z M43.4096914,44.8669484 C45.7144926,44.9302948 47.5068557,46.3969239 47.9238573,48.3407904 C48.1141797,49.2273647 48.1269872,50.1520297 48.2294473,51.1497017 L42.6481264,51.1497017 C42.6114942,51.1165794 42.5570967,51.0918757 42.5507618,51.0583393 C42.2669308,49.53071 41.1664488,49.1154388 39.8226241,49.0872849 C38.4271562,49.0580268 37.0293471,49.0442258 35.6352563,49.0972216 C35.1235067,49.1168189 34.5981233,49.2940234 34.1173596,49.4926193 C33.3343111,49.8165281 32.8781984,50.4175603 32.8801264,51.3057907 C32.8821922,52.2021637 32.8502423,53.1003308 32.8945865,53.9944956 C32.9577978,55.2641848 33.5823362,56.1513111 34.7996006,56.2397753 C36.7548808,56.3816493 38.7299919,56.3610858 40.6899543,56.2668252 C41.5570091,56.2251463 42.2732657,55.6983633 42.4842454,54.7131121 C42.5222548,54.5361836 42.7381922,54.2648566 42.8759074,54.2625104 C44.6124958,54.2317342 46.3499105,54.242223 48.0792,54.242223 C48.433128,57.8642874 47.089441,60.5096573 43.1334347,60.7960274 C39.801416,61.0369923 36.4378604,61.032714 33.0968901,60.9075392 C29.3470435,60.7669073 27.1710059,58.398523 27.1055912,54.6378968 C27.0746053,52.8487391 27.0751562,51.0452284 27.2606585,49.2690436 C27.5210779,46.7779686 29.6931218,44.8675004 32.2013283,44.8403125 C35.9372657,44.7998596 39.6759574,44.7642692 43.4096914,44.8669484 Z M19.6426679,44.6012107 C22.178693,44.6250864 24.8573909,46.4397759 24.8918197,49.7620833 C24.9269371,53.1400086 24.9807837,56.5177958 25.0255412,59.8957211 C25.0275243,60.0464277 25.0273259,60.1971343 25.02685,60.366979 L25.026092,60.7378563 L25.026092,60.7378563 L19.4618479,60.7378563 C19.4336163,60.2292906 19.4063487,59.7388041 19.3709559,59.1021654 C19.0017415,59.3785988 18.7048275,59.5709843 18.4427556,59.8027026 C17.5785928,60.5665863 16.5648714,60.9488731 15.42638,60.9557736 L13.0187667,60.9750643 C11.4135279,60.9864117 9.80847282,60.9853077 8.20666166,60.9151987 C7.35117496,60.8779361 6.46635493,60.5309798 5.67917496,60.150211 C4.69396056,59.6738015 4.17794178,58.7944038 4.08608576,57.6624482 C3.95911236,56.0976943 3.92179155,54.5478455 4.33796682,53.0130396 C4.63501847,51.9177947 5.35099969,51.2465155 6.432477,51.0784197 C7.71901221,50.8785817 9.02358811,50.7222167 10.3232063,50.6969609 C12.3856288,50.6569381 14.4547994,50.6736373 16.5119887,50.8070927 C17.3155568,50.8591223 18.0944739,51.2920587 18.9495474,51.5727705 C18.9495474,50.9297833 19.0601327,50.1911554 18.9198009,49.5040051 C18.7648714,48.7449518 18.0600451,48.4254594 17.3451656,48.391233 C16.0649653,48.3299567 14.7803581,48.3619749 13.4975412,48.3590767 C13.0848088,48.3581106 12.6672563,48.4119344 12.2601703,48.3665292 C11.3962829,48.2703365 10.6924207,48.4781791 10.1896225,49.2375084 C10.1014848,49.3706878 9.89904351,49.5055232 9.74783224,49.5071794 C8.03341596,49.5262247 6.31858654,49.5191862 4.61312175,49.5191862 C4.33741596,47.4755386 5.38212332,45.6638854 7.2535349,45.1118466 C8.25114366,44.8177479 9.31540657,44.6384733 10.353779,44.6170818 C13.4489277,44.5538734 16.5465552,44.5722287 19.6426679,44.6012107 Z M143.85778,44.8680663 C145.826006,44.9087791 147.621674,46.9183383 147.691495,48.8804221 C147.826594,52.6704444 147.958112,56.4607426 148.068092,60.2514549 C148.072967,60.4223109 147.85455,60.7493939 147.735427,60.7517401 C146.020184,60.7845864 144.303977,60.7742356 142.546732,60.7742356 C142.494125,60.2191607 142.447439,59.726604 142.387533,59.0923115 C142.124084,59.2935296 141.93142,59.4015912 141.788472,59.5558861 C140.848428,60.5709474 139.650719,60.9339129 138.317361,60.9398473 C135.931996,60.950336 133.543326,61.0221011 131.162093,60.922044 C129.639652,60.8581455 128.156735,60.4050597 127.499833,58.8075975 C126.768704,57.0287905 126.860284,55.1519967 127.332372,53.3408955 C127.683132,51.9947489 128.795733,51.2286571 130.118901,51.0884392 C132.253762,50.8623794 134.408453,50.8213905 136.555571,50.7173312 C136.966375,50.6974578 137.380071,50.7543178 137.792941,50.7646685 C140.089204,50.8224946 140.089342,50.8212525 142.228472,51.7317024 C142.121605,50.9065425 142.069549,50.0692376 141.889693,49.2605008 C141.760929,48.6825162 141.232791,48.4251281 140.674356,48.4139494 C138.659308,48.3736505 136.643295,48.365508 134.627558,48.3570894 C134.046262,48.3548812 133.643583,48.6389052 133.379859,49.1718986 C133.299984,49.3329559 133.060772,49.5141626 132.892622,49.5163708 C131.218281,49.5380383 129.543802,49.5247894 127.869461,49.5171989 C127.806938,49.5169228 127.744553,49.4728977 127.687402,49.4513682 C127.410732,46.8740372 128.91224,44.9486639 131.54866,44.8734486 C135.648854,44.7566924 139.755934,44.7834663 143.85778,44.8680663 Z M120.737688,45.1069887 C123.151422,45.7960711 124.613544,47.4249995 124.737487,49.9420203 C124.907152,53.3842581 124.907015,56.8350525 124.958265,60.2825347 C124.960586,60.44373 124.75663,60.7483174 124.644943,60.7501115 C122.815947,60.7796456 120.986401,60.771089 119.075603,60.771089 C119.075603,60.6475979 119.075934,60.5376208 119.076172,60.4357608 L119.076185,60.1491356 C119.076,60.1036245 119.075686,60.0587934 119.07519,60.0139678 C119.04324,57.2083687 119.008949,54.4027697 118.979065,51.5970326 C118.966808,50.4547263 118.486182,49.7043676 117.340116,49.5279912 C116.424606,49.3871228 115.492161,49.3487758 114.559647,49.3221677 L113.441675,49.2900625 L113.441675,49.2900625 C112.988179,49.2746054 112.518433,49.325531 112.077193,49.4333166 C110.611904,49.7911757 109.585375,51.1451888 109.585099,52.6617774 L109.584845,54.6621675 L109.584845,54.6621675 L109.584962,60.7185073 L109.584962,60.7185073 L103.723803,60.7185073 L103.723803,44.8743043 L109.543234,44.8743043 C109.595841,45.6649618 109.646382,46.4273274 109.701469,47.2559376 C110.210739,46.7212881 110.608185,46.2138264 111.093494,45.8133223 C112.077193,45.0014112 113.289775,44.7789396 114.51365,44.7427811 C116.595766,44.6812287 118.690689,44.5225176 120.737688,45.1069887 Z M156.22251,44.8683285 L156.22251,60.719984 L150.405008,60.719984 L150.405008,44.8683285 L156.22251,44.8683285 Z M76.8956607,56.1781678 L76.8956607,60.5595616 L71.2234479,60.5595616 L71.2234479,56.1781678 L76.8956607,56.1781678 Z M139.980685,53.9913018 C138.127452,53.9989257 136.271326,53.9720138 134.422362,54.0730369 C133.265555,54.1363833 132.696654,54.8410608 132.736866,55.8504638 C132.771433,56.7179927 133.369254,57.2017167 134.51656,57.2719636 C135.408265,57.3266155 136.301073,57.3652582 137.19333,57.4110774 C137.19388,57.3967244 137.194294,57.3825094 137.194844,57.3681564 C137.492722,57.3681564 137.792941,57.3920321 138.088065,57.3638781 C139.110325,57.2665812 140.14553,57.2240743 141.14727,57.0196819 C141.955383,56.8547603 142.29733,56.2769137 142.283696,55.5108219 C142.271715,54.8342984 141.852234,54.3337372 141.067395,54.131001 C140.715946,54.0401906 140.343427,53.9898171 139.980685,53.9913018 Z M10.7187243,54.4517907 C9.93457402,54.6472124 9.60199186,55.1666809 9.68654898,55.9683792 C9.76504664,56.7145977 10.297729,57.1854867 11.3051155,57.2451069 C12.284959,57.303347 13.2709997,57.2578038 14.2542861,57.2591839 C15.1692657,57.2591839 16.0867243,57.3000348 16.9979856,57.2428988 C17.4872876,57.2121226 17.9995881,57.0840496 18.4426178,56.8748269 C19.2952125,56.4718386 19.4173659,55.3456795 18.6662673,54.7765275 C18.2971906,54.4967819 17.826067,54.299152 17.3711937,54.1956447 C15.1363518,53.686665 12.916934,53.9040302 10.7187243,54.4517907 Z M88.0453571,49.1346222 C86.2802617,49.2272267 85.4570003,49.9330083 85.2686059,51.3589244 C85.1410817,52.3260964 85.1686247,53.3321871 85.2666779,54.3066735 C85.3724432,55.3573413 86.0128188,56.1144625 87.0626216,56.321201 C88.1084307,56.5272495 89.1846748,56.5794172 89.8897765,56.6587727 C91.3587844,56.5661682 92.4572006,56.5180029 93.5514854,56.4222241 C94.6835042,56.3229952 95.3865402,55.5654599 95.4149095,54.4366786 C95.439836,53.4500473 95.4560864,52.4617599 95.4299205,51.4754046 C95.3913603,50.0205064 94.8918673,49.3627522 93.4516419,49.24641 C91.6570754,49.1013618 89.8417139,49.0403616 88.0453571,49.1346222 Z M170.68719,49.0311011 C168.974977,49.0611872 167.259184,49.100106 165.55427,49.2458442 C164.705118,49.3184373 164.122307,49.9099468 164.072868,50.8052157 C164.004836,52.0397125 163.950852,53.2833178 164.022877,54.5153304 C164.103027,55.8849386 164.821074,56.5083284 166.209794,56.56022 C167.14791,56.5954125 168.088367,56.5669825 169.027722,56.5669825 C169.028548,56.5894781 169.029512,56.6121117 169.030339,56.6346072 C170.195134,56.5731929 171.368467,56.5780233 172.522107,56.4293868 C173.457469,56.3089044 174.153206,55.7444447 174.220273,54.7259332 C174.299872,53.5158642 174.374927,52.2929603 174.286101,51.0879976 C174.214764,50.1202736 173.560479,49.4539628 172.592893,49.2390817 C171.971797,49.10121 171.321919,49.0197843 170.68719,49.0311011 Z M76.8966385,44.8745389 L76.8966385,54.0113328 L71.2215336,54.0113328 L71.2215336,44.8745389 L76.8966385,44.8745389 Z M156.214247,38.1380097 L156.214247,42.6335375 L150.421534,42.6335375 L150.421534,38.1380097 L156.214247,38.1380097 Z" id="Fill-17" fill="#000000"></path>
    </g>
</svg>