<?xml version="1.0" encoding="UTF-8"?>
<svg width="184px" height="100px" viewBox="0 0 184 100" version="1.1" xmlns="http://www.w3.org/2000/svg" xmlns:xlink="http://www.w3.org/1999/xlink">
    <title>01_logos / Clients / FondationVinci / Black</title>
    <g id="01_logos-/-Clients-/-FondationVinci-/-Black" stroke="none" stroke-width="1" fill="none" fill-rule="evenodd">
        <path d="M121.994843,89.578441 C123.196216,89.578441 123.800452,90.5720308 123.800452,91.9996205 C123.800452,93.5003385 123.196216,94.5360564 121.880464,94.5360564 C121.264396,94.5360564 120.822657,94.2459282 120.54657,93.9144667 L120.54657,96.6051077 L119.683601,96.6361077 L119.683601,89.640441 L120.463743,89.609441 L120.463743,90.4170308 C120.782427,89.9099026 121.315669,89.578441 121.994843,89.578441 Z M141.315014,89.5786 C142.679672,89.5786 143.007821,90.4473949 143.007821,91.2549846 L143.007821,93.2000359 C143.007821,93.5307026 143.070927,94.1006256 143.183728,94.4114205 L142.454858,94.5362154 C142.351523,94.2762923 142.309716,94.0584974 142.289995,93.7898308 C142.043094,94.2150872 141.591889,94.5362154 140.874063,94.5362154 C139.897504,94.5362154 139.373728,94.0076256 139.373728,93.1793692 C139.373728,92.579241 139.61984,92.1555744 140.267461,91.9584462 C140.605865,91.8551128 141.561125,91.6579846 142.157473,91.5546513 L142.157473,91.2343179 C142.157473,90.7375231 141.961846,90.2923949 141.211678,90.2923949 C140.626374,90.2923949 140.276138,90.6238564 140.051324,90.9648564 L139.464442,90.5721897 C139.784703,90.0849333 140.36843,89.5786 141.315014,89.5786 Z M74.9194137,89.5786 C76.2651404,89.5786 77.0863019,90.6341897 77.0863019,92.0514462 C77.0863019,93.4694974 76.2651404,94.5362154 74.9194137,94.5362154 C73.573687,94.5362154 72.7517366,93.4694974 72.7517366,92.0514462 C72.7517366,90.6341897 73.573687,89.5786 74.9194137,89.5786 Z M97.4043298,88.397659 L97.4043298,89.6400436 L98.6057025,89.6400436 L98.5749385,90.3228385 L97.4043298,90.3228385 L97.4043298,93.0866077 C97.4043298,93.5937359 97.6307211,93.8202744 98.060628,93.8202744 C98.2254913,93.8202744 98.4100752,93.7900692 98.6057025,93.7074026 L98.7800317,94.3599923 C98.5441745,94.4633256 98.2562553,94.5364538 97.9170627,94.5364538 C96.9618019,94.5364538 96.5397832,94.0484026 96.5397832,93.1271462 L96.5397832,90.3228385 L95.7604292,90.3228385 L95.7604292,89.6400436 L96.5397832,89.6400436 L96.5397832,88.5121205 L97.4043298,88.397659 Z M35.9285994,89.5786 C37.2735373,89.5786 38.0954876,90.6341897 38.0954876,92.0514462 C38.0954876,93.4694974 37.2735373,94.5362154 35.9285994,94.5362154 C34.5844503,94.5362154 33.7625,93.4694974 33.7625,92.0514462 C33.7625,90.6341897 34.5844503,89.5786 35.9285994,89.5786 Z M126.820448,89.5786 C128.165386,89.5786 128.986548,90.6341897 128.986548,92.0514462 C128.986548,93.4694974 128.165386,94.5362154 126.820448,94.5362154 C125.473933,94.5362154 124.652771,93.4694974 124.652771,92.0514462 C124.652771,90.6341897 125.473933,89.5786 126.820448,89.5786 Z M145.298948,87.5183718 L145.298948,90.375141 C145.575035,89.8990128 146.13983,89.5786795 146.736178,89.5786795 C147.93834,89.5786795 148.543365,90.5404744 148.543365,91.9903205 C148.543365,93.5212436 147.825539,94.5362949 146.624166,94.5362949 C145.955247,94.5362949 145.433048,94.2247051 145.153806,93.8105769 C145.123042,94.0903718 145.092278,94.2859103 144.999986,94.5362949 L144.271116,94.4520385 C144.385495,94.0808333 144.43598,93.5109103 144.43598,93.2001154 L144.43598,87.5501667 L145.298948,87.5183718 Z M116.833594,89.5783615 C117.748625,89.5783615 118.24006,89.9400282 118.550066,90.4678231 L117.984483,90.9026179 C117.727327,90.5099513 117.399178,90.2921564 116.824129,90.2921564 C116.229358,90.2921564 115.950905,90.5822846 115.950905,90.9852846 C115.950905,92.0726692 118.569787,91.3882846 118.569787,93.097259 C118.569787,93.9970538 117.870104,94.5359769 116.833594,94.5359769 C115.899632,94.5359769 115.231501,94.0073872 114.986178,93.345259 L115.632222,93.035259 C115.849147,93.531259 116.229358,93.8205923 116.813874,93.8205923 C117.429942,93.8205923 117.727327,93.5829256 117.727327,93.1489256 C117.727327,92.1132077 115.1187,92.7769256 115.1187,90.9956179 C115.1187,90.1578231 115.818383,89.5783615 116.833594,89.5783615 Z M51.2244478,89.640441 L51.2244478,92.8374154 C51.2244478,93.4288 51.4500503,93.8206718 52.1181807,93.8206718 C52.6309137,93.8206718 53.1042056,93.4693385 53.3305969,92.9510821 L53.3305969,89.640441 L54.1919882,89.640441 L54.1919882,92.7770051 C54.1919882,93.3453385 54.2132863,93.9351333 54.3568516,94.4732615 L53.6169385,94.5360564 C53.5459447,94.2975949 53.4946714,93.9963385 53.4741621,93.7292615 C53.1862429,94.2459282 52.6932304,94.5360564 51.9746155,94.5360564 C50.8544913,94.5360564 50.3614789,93.8945949 50.3614789,92.7976718 L50.3614789,89.640441 L51.2244478,89.640441 Z M136.871434,89.5783615 C137.784887,89.5783615 138.279477,89.9400282 138.586328,90.4678231 L138.022322,90.9026179 C137.765166,90.5099513 137.437017,90.2921564 136.861968,90.2921564 C136.26562,90.2921564 135.987166,90.5822846 135.987166,90.9852846 C135.987166,92.0726692 138.607626,91.3882846 138.607626,93.097259 C138.607626,93.9970538 137.907943,94.5359769 136.871434,94.5359769 C135.935893,94.5359769 135.270918,94.0073872 135.024017,93.345259 L135.671639,93.035259 C135.886986,93.531259 136.26562,93.8205923 136.850135,93.8205923 C137.467781,93.8205923 137.765166,93.5829256 137.765166,93.1489256 C137.765166,92.1132077 135.156539,92.7769256 135.156539,90.9956179 C135.156539,90.1578231 135.854645,89.5783615 136.871434,89.5783615 Z M87.283613,87.5179744 L87.283613,93.2005128 C87.283613,93.5311795 87.3459298,94.141641 87.4587311,94.4524359 L86.7290727,94.5358974 C86.6367807,94.2863077 86.6060168,94.0693077 86.5760416,93.800641 C86.2975882,94.2147692 85.8258739,94.5358974 85.1167248,94.5358974 C83.9358615,94.5358974 83.1754391,93.552641 83.1754391,92.0511282 C83.1754391,90.5718718 84.0794267,89.5782821 85.2098056,89.5782821 C85.8566379,89.5782821 86.1437683,89.7547436 86.4316876,90.0750769 L86.4316876,87.5497692 L87.283613,87.5179744 Z M112.20685,89.5783615 C113.542322,89.5783615 114.189943,90.5194897 114.253049,91.9582077 L110.954204,92.4867974 C111.05754,93.3659256 111.570273,93.8205923 112.290465,93.8205923 C112.845006,93.8205923 113.27649,93.5829256 113.501304,93.0757974 L114.128416,93.3555923 C113.810521,94.0693872 113.194453,94.5359769 112.279422,94.5359769 C110.986546,94.5359769 110.071515,93.6139256 110.071515,92.0512077 C110.071515,90.6339513 110.913186,89.5783615 112.20685,89.5783615 Z M62.7477652,89.5783615 C64.0824484,89.5783615 64.7300696,90.5194897 64.7915975,91.9582077 L61.4943304,92.4867974 C61.5976658,93.3659256 62.1103988,93.8205923 62.8305913,93.8205923 C63.383554,93.8205923 63.8166161,93.5829256 64.0414298,93.0757974 L64.6685416,93.3555923 C64.3506472,94.0693872 63.7337901,94.5359769 62.8195478,94.5359769 C61.5250944,94.5359769 60.611641,93.6139256 60.611641,92.0512077 C60.611641,90.6339513 61.4533118,89.5783615 62.7477652,89.5783615 Z M101.335966,89.5783615 C102.66986,89.5783615 103.317481,90.5194897 103.380587,91.9582077 L100.081742,92.4867974 C100.186655,93.3659256 100.699388,93.8205923 101.418003,93.8205923 C101.972543,93.8205923 102.405606,93.5829256 102.628842,93.0757974 L103.257531,93.3555923 C102.938059,94.0693872 102.321991,94.5359769 101.40696,94.5359769 C100.112506,94.5359769 99.1990528,93.6139256 99.1990528,92.0512077 C99.1990528,90.6339513 100.041512,89.5783615 101.335966,89.5783615 Z M153.864901,89.5783615 C155.198796,89.5783615 155.846417,90.5194897 155.907945,91.9582077 L152.612255,92.4867974 C152.714013,93.3659256 153.226746,93.8205923 153.948516,93.8205923 C154.501479,93.8205923 154.934541,93.5829256 155.159355,93.0757974 L155.784889,93.3555923 C155.466994,94.0693872 154.850926,94.5359769 153.937473,94.5359769 C152.643019,94.5359769 151.729566,93.6139256 151.729566,92.0512077 C151.729566,90.6339513 152.570448,89.5783615 153.864901,89.5783615 Z M89.5561242,89.640441 L89.5561242,92.8374154 C89.5561242,93.4288 89.7825155,93.8206718 90.4498571,93.8206718 C90.9633789,93.8206718 91.435882,93.4693385 91.6622733,92.9510821 L91.6622733,89.640441 L92.5252422,89.640441 L92.5252422,92.7770051 C92.5252422,93.3453385 92.5449627,93.9351333 92.688528,94.4732615 L91.9486149,94.5360564 C91.8776211,94.2975949 91.8263478,93.9963385 91.8058385,93.7292615 C91.5171304,94.2459282 91.024118,94.5360564 90.3062919,94.5360564 C89.1869565,94.5360564 88.6931553,93.8945949 88.6931553,92.7976718 L88.6931553,89.640441 L89.5561242,89.640441 Z M40.0238366,89.640441 L40.0238366,92.8374154 C40.0238366,93.4288 40.250228,93.8206718 40.9175696,93.8206718 C41.4310913,93.8206718 41.9035944,93.4693385 42.1291969,92.9510821 L42.1291969,89.640441 L42.9921658,89.640441 L42.9921658,92.7770051 C42.9921658,93.3453385 43.0126752,93.9351333 43.1562404,94.4732615 L42.4171161,94.5360564 C42.3453335,94.2975949 42.2932714,93.9963385 42.2727621,93.7292615 C41.9864205,94.2459282 41.4926193,94.5360564 40.7732155,94.5360564 C39.6538801,94.5360564 39.1616565,93.8945949 39.1616565,92.7976718 L39.1616565,89.640441 L40.0238366,89.640441 Z M70.276972,89.5783615 C71.1296863,89.5783615 71.6629286,89.9710282 71.9918665,90.5504897 L71.3655435,90.9026179 C71.1083882,90.5099513 70.7494752,90.2921564 70.2872267,90.2921564 C69.4755311,90.2921564 68.9730528,91.0162846 68.9730528,92.061541 C68.9730528,93.1067974 69.4755311,93.8205923 70.2872267,93.8205923 C70.8117919,93.8205923 71.2219783,93.5415923 71.4578354,93.035259 L72.0849472,93.3555923 C71.7552205,94.0487205 71.2006801,94.5359769 70.276972,94.5359769 C69.0456242,94.5359769 68.1195497,93.6139256 68.1195497,92.061541 C68.1195497,90.5099513 69.0456242,89.5783615 70.276972,89.5783615 Z M132.467137,89.578441 C133.453161,89.578441 133.978516,90.1785692 133.978516,91.2230308 L133.978516,94.4732615 L133.113969,94.4732615 L133.113969,91.2230308 C133.113969,90.6443641 132.78582,90.2922359 132.189472,90.2922359 C131.676739,90.2922359 131.224745,90.6546974 130.998354,91.141159 L130.998354,94.4732615 L130.135385,94.4732615 L130.135385,89.640441 L130.906062,89.609441 L130.906062,90.4679026 C131.16164,89.9822359 131.799795,89.578441 132.467137,89.578441 Z M58.0176068,89.578441 C59.0036317,89.578441 59.5281969,90.1785692 59.5281969,91.2230308 L59.5281969,94.4732615 L58.665228,94.4732615 L58.665228,91.2230308 C58.665228,90.6443641 58.3362901,90.2922359 57.7415199,90.2922359 C57.2272093,90.2922359 56.7752155,90.6546974 56.5488242,91.141159 L56.5488242,94.4732615 L55.6858553,94.4732615 L55.6858553,89.640441 L56.4565323,89.609441 L56.4565323,90.4679026 C56.7136876,89.9822359 57.351054,89.578441 58.0176068,89.578441 Z M109.677499,89.5783615 L109.584419,90.3962846 C108.96835,90.3962846 108.31994,90.6236179 107.993369,91.1824128 L107.993369,94.4731821 L107.1304,94.4731821 L107.1304,89.6403615 L107.890034,89.6093615 L107.890034,90.4678231 C108.136145,90.0028231 108.825574,89.5783615 109.677499,89.5783615 Z M31.0133839,87.7570718 C32.0601478,87.7570718 33.1597627,88.2538667 33.1597627,89.7442513 C33.1597627,91.3681744 32.0404273,91.8864308 30.7365081,91.8864308 C30.4383342,91.8864308 30.1614584,91.8649692 29.8735391,91.8236359 L29.8735391,94.4737385 L29.0003155,94.4737385 L29.0003155,87.7570718 L31.0133839,87.7570718 Z M94.8791596,89.6093615 L94.8791596,94.4731821 L94.0161907,94.4731821 L94.0161907,89.6403615 L94.8791596,89.6093615 Z M80.5675217,89.578441 C81.5535466,89.578441 82.077323,90.1785692 82.077323,91.2230308 L82.077323,94.4732615 L81.214354,94.4732615 L81.214354,91.2230308 C81.214354,90.6443641 80.8854161,90.2922359 80.2898571,90.2922359 C79.7763354,90.2922359 79.3243416,90.6546974 79.0979503,91.141159 L79.0979503,94.4732615 L78.2357702,94.4732615 L78.2357702,89.640441 L79.0064472,89.609441 L79.0064472,90.4679026 C79.2628137,89.9822359 79.8993913,89.578441 80.5675217,89.578441 Z M150.580334,87.5182128 L150.580334,94.473341 L149.717365,94.473341 L149.717365,87.5500077 L150.580334,87.5182128 Z M47.0333689,89.5783615 L46.941077,90.3962846 C46.3257975,90.3962846 45.6781764,90.6236179 45.3484497,91.1824128 L45.3484497,94.4731821 L44.4870584,94.4731821 L44.4870584,89.6403615 L45.2466919,89.6093615 L45.2466919,90.4678231 C45.4928037,90.0028231 46.1806547,89.5783615 47.0333689,89.5783615 Z M121.726644,90.3025692 C121.233632,90.3025692 120.782427,90.6340308 120.54657,91.0990308 L120.54657,93.1172103 C120.782427,93.5623385 121.172104,93.8206718 121.665116,93.8206718 C122.528085,93.8206718 122.917762,93.0671333 122.917762,92.0210821 C122.917762,90.9853641 122.558849,90.3025692 121.726644,90.3025692 Z M146.46798,90.2924744 C145.986011,90.2924744 145.534806,90.6342692 145.298948,91.0992692 L145.298948,93.1071154 C145.523762,93.5530385 145.915017,93.8201154 146.417495,93.8201154 C147.26942,93.8201154 147.670141,93.0665769 147.670141,92.0213205 C147.670141,90.9856026 147.311228,90.2924744 146.46798,90.2924744 Z M126.820448,90.2923949 C126.007964,90.2923949 125.525995,91.0475231 125.525995,92.0514462 C125.525995,93.0561641 126.007964,93.8208308 126.820448,93.8208308 C127.630566,93.8208308 128.112535,93.0561641 128.112535,92.0514462 C128.112535,91.0475231 127.630566,90.2923949 126.820448,90.2923949 Z M142.157473,92.2175744 C141.725989,92.2795744 140.830678,92.4870359 140.646094,92.5474462 C140.419703,92.6213692 140.205144,92.7771641 140.205144,93.1269077 C140.205144,93.5831641 140.471765,93.8208308 141.026306,93.8208308 C141.530361,93.8208308 141.942125,93.5004974 142.157473,93.0664974 L142.157473,92.2175744 Z M74.9194137,90.2923949 C74.1061404,90.2923949 73.6241714,91.0475231 73.6241714,92.0514462 C73.6241714,93.0561641 74.1061404,93.8208308 74.9194137,93.8208308 C75.7303205,93.8208308 76.2122894,93.0561641 76.2122894,92.0514462 C76.2122894,91.0475231 75.7303205,90.2923949 74.9194137,90.2923949 Z M85.3320727,90.2928718 C84.4998677,90.2928718 84.0486627,91.0265385 84.0486627,92.0813333 C84.0486627,93.1075128 84.4793584,93.8205128 85.3020975,93.8205128 C85.8045758,93.8205128 86.2052963,93.5621795 86.4316876,93.1075128 L86.4316876,90.8723333 C86.1437683,90.4892051 85.8156193,90.2928718 85.3320727,90.2928718 Z M35.9285994,90.2923949 C35.1176925,90.2923949 34.6349348,91.0475231 34.6349348,92.0514462 C34.6349348,93.0561641 35.1176925,93.8208308 35.9285994,93.8208308 C36.7395062,93.8208308 37.222264,93.0561641 37.222264,92.0514462 C37.222264,91.0475231 36.7395062,90.2923949 35.9285994,90.2923949 Z M62.7477652,90.2921564 C61.9676224,90.2921564 61.4746099,90.9646179 61.4746099,91.8238744 L63.8363366,91.4304128 C63.7440447,90.6856179 63.4048522,90.2921564 62.7477652,90.2921564 Z M153.864901,90.2921564 C153.085547,90.2921564 152.592535,90.9646179 152.592535,91.8238744 L154.952684,91.4304128 C154.86197,90.6856179 154.522777,90.2921564 153.864901,90.2921564 Z M112.20685,90.2921564 C111.427496,90.2921564 110.934484,90.9646179 110.934484,91.8238744 L113.296211,91.4304128 C113.203919,90.6856179 112.864726,90.2921564 112.20685,90.2921564 Z M101.335966,90.2921564 C100.555034,90.2921564 100.062022,90.9646179 100.062022,91.8238744 L102.423748,91.4304128 C102.333034,90.6856179 101.993842,90.2921564 101.335966,90.2921564 Z M30.9613217,88.5018667 L29.8735391,88.5018667 L29.8735391,91.078841 C30.1196509,91.109841 30.4178248,91.140841 30.6947006,91.140841 C31.5063963,91.140841 32.2660298,90.9023795 32.2660298,89.7649179 C32.2660298,88.8953282 31.7525081,88.5018667 30.9613217,88.5018667 Z M94.4476752,87.7358487 C94.7158739,87.7358487 94.9501534,87.9019769 94.9501534,88.2016436 C94.9501534,88.5013103 94.7158739,88.6682333 94.4476752,88.6682333 C94.181054,88.6682333 93.9436193,88.5013103 93.9436193,88.2016436 C93.9436193,87.9019769 94.181054,87.7358487 94.4476752,87.7358487 Z M116.94182,71.8051872 C119.735032,71.8051872 121.717336,73.6699564 121.717336,77.3168282 C121.717336,80.9788026 119.735032,82.8451615 116.94182,82.8451615 C114.149398,82.8451615 112.165516,80.9788026 112.165516,77.3168282 C112.165516,73.6699564 114.149398,71.8051872 116.94182,71.8051872 Z M63.1526665,71.8051872 C65.9458776,71.8051872 67.928182,73.6699564 67.928182,77.3168282 C67.928182,80.9788026 65.9458776,82.8451615 63.1526665,82.8451615 C60.3602441,82.8451615 58.3779398,80.9788026 58.3779398,77.3168282 C58.3779398,73.6699564 60.3602441,71.8051872 63.1526665,71.8051872 Z M96.3797317,71.9210795 L99.6178373,82.7289513 L97.4856571,82.7790282 L96.7772969,80.1646949 L93.290713,80.1646949 L92.5957627,82.7790282 L90.5795391,82.7289513 L93.7529615,71.9210795 L96.3797317,71.9210795 Z M106.666732,71.921159 L106.616247,73.5705179 L103.871943,73.5705179 L103.871943,82.7290308 L101.906204,82.7290308 L101.906204,73.5705179 L99.163477,73.5705179 L99.163477,71.921159 L106.666732,71.921159 Z M126.652272,71.921159 L129.956639,78.6990308 C130.239036,79.2657744 130.767545,80.3475949 130.916632,81.0796718 L130.948974,81.0796718 C130.893757,80.358988 130.884554,79.6598321 130.88302,79.0424632 L130.882713,71.921159 L132.816111,71.921159 L132.816111,82.7290308 L129.858036,82.7290308 L126.438502,75.6514923 C126.089843,74.9520051 125.760117,74.1690564 125.627595,73.5705179 L125.578688,73.5705179 C125.627595,74.2032359 125.644949,74.9186205 125.644949,75.7174667 L125.644949,82.7290308 L123.710763,82.7290308 L123.710763,71.921159 L126.652272,71.921159 Z M57.4102155,71.921159 L57.3455323,73.5705179 L53.3138739,73.5705179 L53.3138739,76.7007231 L56.7846814,76.7007231 L56.7846814,78.3492872 L53.3138739,78.3492872 L53.3138739,82.7290308 L51.347346,82.7290308 L51.347346,71.921159 L57.4102155,71.921159 Z M72.8630391,71.921159 L76.1674056,78.6990308 C76.4482255,79.2657744 76.9783124,80.3475949 77.1258217,81.0796718 L77.1589522,81.0796718 C77.1043921,80.358988 77.0952988,79.6598321 77.0937832,79.0424632 L77.0934801,71.921159 L79.0260888,71.921159 L79.0260888,82.7290308 L76.0680143,82.7290308 L72.6484801,75.6514923 C72.3021882,74.9520051 71.9708839,74.1690564 71.8383621,73.5705179 L71.7894553,73.5705179 C71.8383621,74.2032359 71.8557161,74.9186205 71.8557161,75.7174667 L71.8557161,82.7290308 L69.9215298,82.7290308 L69.9215298,71.921159 L72.8630391,71.921159 Z M85.3033596,71.9215564 C88.0792168,71.9215564 90.0615211,73.5367359 90.0615211,77.3338385 C90.0615211,81.1794282 88.0792168,82.7286333 85.3033596,82.7286333 L81.618782,82.7286333 L81.618782,71.9215564 L85.3033596,71.9215564 Z M110.178242,71.921 L110.178242,82.7288718 L108.210925,82.7288718 L108.210925,71.921 L110.178242,71.921 Z M63.1526665,73.4871359 C61.5994801,73.4871359 60.3768093,74.5697513 60.3768093,77.3168282 C60.3768093,80.0639051 61.5994801,81.1965974 63.1526665,81.1965974 C64.7066416,81.1965974 65.9301012,80.0639051 65.9301012,77.3168282 C65.9301012,74.5697513 64.7066416,73.4871359 63.1526665,73.4871359 Z M116.94182,73.4871359 C115.388634,73.4871359 114.165175,74.5697513 114.165175,77.3168282 C114.165175,80.0639051 115.388634,81.1965974 116.94182,81.1965974 C118.495796,81.1965974 119.719255,80.0639051 119.719255,77.3168282 C119.719255,74.5697513 118.495796,73.4871359 116.94182,73.4871359 Z M85.1053658,73.5709154 L83.5845211,73.5709154 L83.5845211,81.0800692 L85.1053658,81.0800692 C86.7240242,81.0800692 88.0634404,80.2470436 88.0634404,77.3338385 C88.0634404,74.4031462 86.7240242,73.5709154 85.1053658,73.5709154 Z M95.0576696,73.5879256 L95.0087627,73.5879256 C94.9251478,73.9694641 94.8265453,74.3859769 94.5291602,75.4844897 L93.7190422,78.5487205 L96.3473901,78.5487205 L95.537272,75.5011821 C95.239887,74.3859769 95.1073652,73.9694641 95.0576696,73.5879256 Z M145.807343,56.3238667 L145.807343,56.8103282 C130.154001,59.6535846 111.186827,61.3466615 92.212554,61.3466615 C73.2698335,61.3466615 54.3192248,59.6623282 38.6832373,56.8222513 L38.6832373,56.8222513 L38.6832373,56.3365846 C54.2750509,59.1806359 73.2422248,60.2719949 92.212554,60.2719949 C111.17815,60.2719949 130.149268,59.1790462 145.739504,56.3365846 L145.739504,56.3365846 L145.807343,56.3238667 Z M105.188878,32.2467231 L105.188878,36.085159 C105.188878,36.6685949 105.665325,36.984159 106.240375,36.984159 C106.814635,36.984159 107.275306,36.6685949 107.275306,36.085159 L107.275306,36.085159 L107.275306,32.2467231 L108.453803,32.2467231 L108.453803,36.0915179 C108.453803,37.0763641 107.532461,37.7543897 106.184368,37.7543897 C104.842586,37.7543897 103.921244,37.0763641 103.921244,36.0915179 L103.921244,36.0915179 L103.921244,32.2467231 L105.188878,32.2467231 Z M77.2480888,32.2467231 L77.2480888,36.085159 C77.2480888,36.6685949 77.7237472,36.984159 78.2987969,36.984159 C78.876213,36.984159 79.3305733,36.6685949 79.3305733,36.085159 L79.3305733,36.085159 L79.3305733,32.2467231 L80.5059149,32.2467231 L80.5059149,36.0915179 C80.5059149,37.0763641 79.5908839,37.7543897 78.2467348,37.7543897 C76.8994304,37.7543897 75.9836106,37.0763641 75.9836106,36.0915179 L75.9836106,36.0915179 L75.9836106,32.2467231 L77.2480888,32.2467231 Z M100.154629,32.1648513 C101.99889,32.1648513 102.726971,33.4215436 102.726971,34.956441 C102.726971,36.5024667 101.99889,37.746441 100.154629,37.746441 C98.3087907,37.746441 97.5688776,36.5024667 97.5688776,34.956441 C97.5688776,33.4215436 98.3087907,32.1648513 100.154629,32.1648513 Z M88.4280329,32.1648513 C90.2707161,32.1648513 90.9964304,33.4215436 90.9964304,34.956441 C90.9964304,36.5024667 90.2707161,37.746441 88.4280329,37.746441 C86.583772,37.746441 85.8446478,36.5024667 85.8446478,34.956441 C85.8446478,33.4215436 86.583772,32.1648513 88.4280329,32.1648513 Z M120.588219,32.1648513 C121.276859,32.1648513 121.78407,32.3023641 122.093288,32.4740564 L122.093288,32.4740564 L121.814834,33.0876974 C121.572666,32.9692615 121.194822,32.8468513 120.756238,32.8468513 C120.127548,32.8468513 119.768635,33.1528769 119.768635,33.6337744 C119.768635,34.1059282 120.208797,34.3261077 120.8083,34.5216462 C122.15166,34.9715436 122.35202,35.5708769 122.35202,36.0915179 C122.35202,37.0541077 121.433834,37.746441 120.158312,37.746441 C119.343461,37.746441 118.831517,37.6280051 118.46235,37.4420051 L118.46235,37.4420051 L118.769989,36.7401333 C119.012157,36.8625436 119.400257,36.9889282 119.9193,36.9889282 C120.599263,36.9889282 121.016548,36.661441 121.016548,36.1566974 C121.016548,35.744159 120.71443,35.4937744 119.948486,35.2410051 C118.831517,34.8698 118.534132,34.2887487 118.534132,33.760159 C118.534132,32.8993128 119.322952,32.1648513 120.588219,32.1648513 Z M149.913387,15.8358795 C151.458685,15.8358795 152.850952,16.4495205 153.84802,17.469341 C154.837201,18.4812128 155.464312,19.8746231 155.464312,21.4293923 C155.464312,24.6152385 152.891182,27.1564436 149.814784,27.1564436 C149.257089,27.1564436 148.19376,26.9100333 147.740977,26.9100333 C145.320089,26.9100333 143.36066,28.8829051 143.36066,31.3231615 L143.36066,31.3231615 L143.36066,36.0478795 C143.36066,36.9532385 142.633368,37.6861103 141.734114,37.6861103 L141.734114,37.6861103 L135.412511,37.6861103 C134.514045,37.6861103 133.783598,36.9532385 133.783598,36.0447 L133.783598,36.0447 L133.783598,29.6714179 C133.783598,28.7652641 134.514045,28.0308026 135.412511,28.0308026 L135.412511,28.0308026 L140.09889,28.0308026 C142.516623,28.0308026 144.476052,26.0579308 144.476052,23.620059 C144.476052,23.1653923 144.233884,22.0915205 144.233884,21.5279564 C144.233884,18.4287513 146.753375,15.8358795 149.913387,15.8358795 Z M72.990828,32.2467231 L75.2507969,37.6677487 L73.9476665,37.6677487 L73.4191571,36.2743385 L71.2033621,36.2743385 L70.6582876,37.6677487 L69.522387,37.6677487 L71.7933994,32.2467231 L72.990828,32.2467231 Z M117.644343,32.2467231 L117.644343,32.9152103 L115.573691,32.9152103 L115.573691,34.5550308 L117.415586,34.5550308 L117.415586,35.2163641 L115.573691,35.2163641 L115.573691,36.9984667 L117.644343,36.9984667 L117.644343,37.6677487 L114.303691,37.6677487 L114.303691,32.2467231 L117.644343,32.2467231 Z M94.090182,32.1648513 C95.7971882,32.1648513 96.6246602,32.7959795 96.6246602,33.8158 C96.6246602,34.6345179 95.8760702,35.1941077 94.7867099,35.2497487 L94.7867099,35.2497487 L94.7867099,35.2640564 L96.8344863,37.6677487 L95.4288093,37.6677487 L93.4820019,35.2100051 L93.4599149,35.2100051 L93.4599149,37.6677487 L92.2151571,37.6677487 L92.2151571,32.4740564 C92.645064,32.3023641 93.3029398,32.1648513 94.090182,32.1648513 Z M85.3547907,32.2467231 L85.3547907,32.9152103 L84.0682255,32.9152103 L84.0682255,37.6677487 L82.8053248,37.6677487 L82.8053248,32.9152103 L81.5274366,32.9152103 L81.5274366,32.2467231 L85.3547907,32.2467231 Z M113.297946,32.2467231 L113.297946,32.9152103 L112.009803,32.9152103 L112.009803,37.6677487 L110.744536,37.6677487 L110.744536,32.9152103 L109.469014,32.9152103 L109.469014,32.2467231 L113.297946,32.2467231 Z M88.4280329,32.8277744 C87.3702255,32.8277744 87.1304242,33.9088 87.1304242,34.9278256 C87.1304242,35.9349282 87.341828,37.0072103 88.4280329,37.0072103 C89.5142379,37.0072103 89.7130205,35.9349282 89.7130205,34.9278256 C89.7130205,33.9088 89.4818963,32.8277744 88.4280329,32.8277744 Z M100.154629,32.8277744 C99.0976106,32.8277744 98.8585981,33.9088 98.8585981,34.9278256 C98.8585981,35.9349282 99.0700019,37.0072103 100.154629,37.0072103 C101.240834,37.0072103 101.438039,35.9349282 101.438039,34.9278256 C101.438039,33.9088 101.212437,32.8277744 100.154629,32.8277744 Z M72.3518839,33.1258513 L72.3313745,33.1258513 C72.3313745,33.1258513 72.3021882,33.3810051 72.1420578,33.7840051 L72.1420578,33.7840051 L71.4037224,35.6916974 L73.2408839,35.6916974 L72.5293683,33.7840051 C72.381859,33.3810051 72.3518839,33.1258513 72.3518839,33.1258513 L72.3518839,33.1258513 Z M94.090182,32.7435179 C93.8204056,32.7435179 93.612946,32.7808769 93.4599149,32.8357231 L93.4599149,32.8357231 L93.4599149,34.9628 C93.5435298,34.9866462 93.7407348,35.0049282 93.9316292,35.0049282 C94.9081882,35.0049282 95.3877907,34.5868256 95.3877907,33.8611077 C95.3877907,33.1059795 95.0194118,32.7435179 94.090182,32.7435179 Z M46.727859,16.0686974 L49.832654,18.9334154 L39.4344304,28.3470821 L29.0275298,18.9262615 L32.140213,16.0734667 C32.140213,16.0734667 33.7946075,17.6780665 35.5399073,19.3666767 L36.1694406,19.9755781 C37.6349069,21.3925541 39.0321323,22.7400564 39.4344304,23.1168256 C39.8562398,22.722115 41.3695104,21.2610579 42.9091251,19.7707567 L43.328873,19.3643651 C45.0738752,17.6745388 46.727859,16.0686974 46.727859,16.0686974 L46.727859,16.0686974 Z M94.589505,16.0750564 C99.5788746,16.0750564 103.010173,16.7503916 103.921588,16.9515552 L104.039281,16.9780298 C104.121409,16.9968889 104.163412,17.007441 104.163412,17.007441 L104.163412,17.007441 L104.163412,20.5406462 C104.163412,20.5406462 100.001598,19.7314667 94.589505,19.7076205 C91.9934988,19.7076205 90.1815795,20.0231846 89.106418,20.1320821 C89.106418,20.2456957 89.1063339,20.3865541 89.1061992,20.5473749 L89.1053663,21.3812378 C89.1052611,21.4833994 89.1051559,21.5878209 89.1050549,21.6935918 L89.1043734,22.6573897 C89.1042977,22.8687409 89.1042893,23.0745667 89.1043818,23.2675851 L89.104996,23.8009359 C89.1053242,23.9610572 89.105787,24.1010889 89.106418,24.2137487 C90.0687783,24.3131077 91.8499335,24.6294667 94.5508528,24.6294667 C100.108089,24.6294667 104.163412,23.8282359 104.163412,23.8282359 L104.163412,23.8282359 L104.163412,27.3360051 C104.163412,27.3360051 100.391275,28.2620308 94.589505,28.2620308 C90.3662305,28.2620308 87.2443071,27.775349 85.8403881,27.5061208 L85.6105972,27.4610106 C85.2224696,27.3829724 85.0179646,27.3320308 85.0179646,27.3320308 L85.0179646,27.3320308 L85.0179646,17.0098256 C85.0179646,17.0098256 85.0778064,16.9945917 85.194485,16.9680134 L85.329998,16.9377977 C86.332532,16.7186888 89.6941056,16.0750564 94.589505,16.0750564 Z M112.895648,16.2674154 L112.895648,28.0307231 L108.707803,28.0307231 L108.707803,16.2674154 L112.895648,16.2674154 Z M56.8192317,16.2674154 L56.8192317,28.0307231 L52.6298093,28.0307231 L52.6298093,16.2674154 L56.8192317,16.2674154 Z M80.3907472,16.2674154 L80.3907472,28.0307231 L76.3204366,28.0307231 C76.3204366,28.0307231 73.2905795,25.5642359 68.8361137,23.238441 C67.5937224,22.5866462 66.5430143,22.1566205 65.5696106,21.7575949 L65.5696106,21.7575949 L65.5711882,28.0307231 L61.5127099,28.0307231 L61.5127099,16.2912615 C61.5127099,16.2912615 64.9448652,16.9613385 68.8400578,18.9985949 C73.2968901,21.3243897 76.3259584,23.5818256 76.3259584,23.5818256 L76.3259584,23.5818256 L76.3259584,16.2674154 L80.3907472,16.2674154 Z M141.73648,4.79511026 C142.633368,4.79511026 143.36066,5.52877692 143.36066,6.4341359 L143.36066,6.4341359 L143.36066,12.8090077 C143.36066,13.7143667 142.633368,14.4464436 141.73648,14.4464436 L141.73648,14.4464436 L136.885238,14.4464436 C135.378592,14.4464436 134.085716,15.6021872 133.569828,16.1013667 C133.052362,16.5965718 131.97089,17.9414949 131.966157,20.0884436 L131.966157,20.0884436 L131.966157,25.9689051 L122.35202,25.9689051 L122.35202,16.2770333 L128.185343,16.2770333 C130.312791,16.2722641 131.651418,15.1824949 132.141275,14.6594692 C132.63902,14.1412128 133.783598,12.8376231 133.783598,11.3202128 L133.783598,11.3202128 L133.783598,6.43254615 C133.783598,5.52877692 134.514045,4.79511026 135.412511,4.79511026 L135.412511,4.79511026 Z" id="Fill-13" fill="#000000"></path>
    </g>
</svg>