<?xml version="1.0" encoding="UTF-8"?>
<svg width="182px" height="49px" viewBox="0 0 182 49" version="1.1" xmlns="http://www.w3.org/2000/svg" xmlns:xlink="http://www.w3.org/1999/xlink">
    <title>Fill 13</title>
    <g id="Symbols" stroke="none" stroke-width="1" fill="none" fill-rule="evenodd">
        <g id="01_logos-/-Clients-/-Passerelle-/-Black" transform="translate(-1.000000, -26.000000)" fill="#000000">
            <path d="M108.672991,68.8798686 C109.086215,68.8798686 109.44564,68.9508379 109.753555,69.0927765 C110.06147,69.234715 110.30414,69.4338869 110.483852,69.6891473 C110.663565,69.9444078 110.795201,70.2305743 110.882196,70.5487914 C110.968046,70.8670085 111.011543,71.2184209 111.011543,71.6030286 C111.011543,71.7014699 111.00353,71.7770178 110.98636,71.8273831 L107.333732,71.8273831 C107.354336,72.3344701 107.508866,72.7099205 107.798466,72.9525896 C108.086922,73.1964034 108.472674,73.317738 108.952289,73.317738 C109.513176,73.317738 110.06147,73.1323021 110.596029,72.7602858 L110.934851,73.6737291 C110.607476,73.8992283 110.276668,74.0663495 109.94357,74.1728034 C109.610472,74.2781126 109.240745,74.3319119 108.835533,74.3319119 C107.959864,74.3319119 107.268486,74.0823748 106.763688,73.5821558 C106.257746,73.0807922 106.004775,72.427188 106.004775,71.6190539 C106.004775,71.2539055 106.066587,70.9070718 106.187921,70.5796974 C106.309256,70.2511783 106.480956,69.9604331 106.703021,69.7063173 C106.923941,69.4533462 107.204385,69.251885 107.545495,69.1030784 C107.884316,68.9542719 108.260911,68.8798686 108.672991,68.8798686 Z M113.991566,68.8901706 C114.322375,68.8901706 114.654328,68.9325232 114.986281,69.0160838 C115.317089,69.1019338 115.607834,69.2267024 115.857371,69.3926789 L115.533431,70.2534676 C115.330825,70.1470137 115.092735,70.0554404 114.820304,69.9810371 C114.547874,69.9066339 114.301771,69.8700045 114.083139,69.8700045 C113.795828,69.8700045 113.587499,69.9043445 113.459297,69.9753138 C113.329949,70.0462831 113.265848,70.163039 113.265848,70.3255815 C113.265848,70.4343248 113.286452,70.5178854 113.326515,70.5796974 C113.367723,70.63922 113.452429,70.7021766 113.580631,70.7674226 C113.708834,70.8303792 113.916018,70.9105058 114.199895,71.005513 L114.874103,71.2333015 C115.144245,71.3248748 115.361731,71.4244607 115.526563,71.533204 C115.689106,71.6396579 115.821887,71.7941878 115.921473,71.9945043 C116.021059,72.1936762 116.070279,72.444358 116.070279,72.7442604 C116.070279,72.9743383 116.03365,73.1826674 115.956957,73.3681033 C115.880265,73.5546838 115.780679,73.7069244 115.6582,73.8259696 C115.534576,73.9438702 115.388058,74.0411668 115.222082,74.1190041 C115.053816,74.1968414 114.884405,74.2517853 114.711561,74.2849806 C114.538716,74.3158866 114.361293,74.3319119 114.179291,74.3319119 C113.72257,74.3319119 113.303622,74.2678106 112.921304,74.1396081 C112.538985,74.0114055 112.234504,73.8568756 112.009005,73.6783077 L112.322643,72.7763111 C112.535551,72.941143 112.804548,73.0773582 113.129633,73.1838121 C113.453573,73.290266 113.767212,73.3440653 114.067114,73.3440653 C114.347557,73.3440653 114.560465,73.2959894 114.703548,73.2021268 C114.846631,73.1071195 114.91989,72.9525896 114.91989,72.7396818 L114.91989,72.6481085 C114.91989,72.5405099 114.877537,72.447792 114.792832,72.3710994 C114.708127,72.2966961 114.513534,72.2097015 114.209053,72.1112602 L113.468454,71.8731697 C113.279584,71.8113578 113.122765,71.7552692 112.996852,71.7026145 C112.872083,71.6499599 112.74388,71.5835693 112.614533,71.5011533 C112.484041,71.4210267 112.382166,71.3328875 112.310052,71.2355909 C112.236793,71.1394389 112.178415,71.0203937 112.132629,70.8807445 C112.086842,70.7399506 112.063949,70.5796974 112.063949,70.3965508 C112.063949,70.1332777 112.115459,69.9009105 112.219623,69.7017387 C112.321499,69.5014222 112.464582,69.3457476 112.647728,69.2301363 C112.82973,69.1145251 113.033481,69.0298198 113.255546,68.9737312 C113.478756,68.9187872 113.724859,68.8901706 113.991566,68.8901706 Z M56.6808955,69.0126498 L56.6808955,72.2886834 C56.6808955,72.6332278 56.7701794,72.8907777 56.9498919,73.0624775 C57.1284598,73.2330327 57.3757076,73.317738 57.6904907,73.317738 C58.0659411,73.317738 58.3429502,73.2238754 58.5249521,73.0361502 C58.7058093,72.848425 58.7962379,72.5462332 58.7962379,72.1307196 L58.7962379,69.0126498 L60.0542256,69.0126498 L60.0542256,72.8163744 L60.1148929,74.215156 L58.8156972,74.215156 L58.7962379,73.4447959 C58.7790679,73.5191992 58.7412939,73.6016151 58.6817713,73.6897544 C58.6233934,73.7813277 58.5421221,73.8763349 58.4379575,73.9770655 C58.3349376,74.0789408 58.1952883,74.1636461 58.0178651,74.2311813 C57.8392973,74.2987166 57.6447041,74.3319119 57.4317962,74.3319119 C56.80223,74.3319119 56.3123131,74.1533441 55.9609007,73.7916297 C55.6094883,73.4322046 55.4332097,72.937709 55.4332097,72.3081428 L55.4332097,69.0126498 L56.6808955,69.0126498 Z M81.8667487,66.8251935 L81.8667487,72.8266764 C81.8667487,72.8461357 81.8816293,73.3085807 81.9125353,74.215156 L80.6236416,74.215156 L80.6144843,73.5512498 C80.5835783,73.6290871 80.533213,73.7080691 80.461099,73.7893403 C80.3912744,73.8717563 80.2962672,73.9541722 80.1772219,74.0411668 C80.0593213,74.1258721 79.9047915,74.1968414 79.7159216,74.2517853 C79.5259071,74.3055846 79.3187226,74.3319119 79.0920787,74.3319119 C78.4190152,74.3319119 77.854695,74.0858088 77.4002626,73.5924578 C76.9458303,73.0979622 76.7180418,72.447792 76.7180418,71.6385132 C76.7180418,71.2699309 76.7706964,70.9219524 76.874861,70.5934333 C76.9801703,70.2660589 77.1324108,69.9730245 77.3292933,69.717764 C77.5273205,69.4590695 77.7871597,69.255319 78.1076661,69.1053678 C78.4293172,68.9554166 78.7898869,68.8798686 79.1882306,68.8798686 C79.5465111,68.8798686 79.8509922,68.9531272 80.0993846,69.1007891 C80.3477771,69.2473063 80.5206217,69.4006916 80.6190629,69.5598001 L80.6190629,66.8251935 L81.8667487,66.8251935 Z M150.077614,68.8901706 C150.408423,68.8901706 150.740376,68.9325232 151.072329,69.0160838 C151.403137,69.1019338 151.693882,69.2267024 151.944564,69.3926789 L151.619479,70.2534676 C151.416873,70.1470137 151.178783,70.0554404 150.906352,69.9810371 C150.633922,69.9066339 150.388963,69.8700045 150.169187,69.8700045 C149.881876,69.8700045 149.673547,69.9043445 149.545345,69.9753138 C149.415997,70.0462831 149.351896,70.163039 149.351896,70.3255815 C149.351896,70.4343248 149.3725,70.5178854 149.412563,70.5796974 C149.453771,70.63922 149.538477,70.7021766 149.666679,70.7674226 C149.794882,70.8303792 150.002066,70.9105058 150.285943,71.005513 L150.960151,71.2333015 C151.230293,71.3248748 151.447779,71.4244607 151.612611,71.533204 C151.775154,71.6396579 151.907935,71.7941878 152.007521,71.9945043 C152.107107,72.1936762 152.157472,72.444358 152.157472,72.7442604 C152.157472,72.9743383 152.119698,73.1826674 152.043005,73.3681033 C151.967457,73.5546838 151.866727,73.7069244 151.744248,73.8259696 C151.620624,73.9438702 151.475251,74.0411668 151.30813,74.1190041 C151.139864,74.1968414 150.970453,74.2517853 150.797609,74.2849806 C150.624764,74.3158866 150.447341,74.3319119 150.265339,74.3319119 C149.808618,74.3319119 149.38967,74.2678106 149.007352,74.1396081 C148.625033,74.0114055 148.321697,73.8568756 148.095053,73.6783077 L148.408691,72.7763111 C148.621599,72.941143 148.890596,73.0773582 149.215681,73.1838121 C149.539621,73.290266 149.85326,73.3440653 150.153162,73.3440653 C150.433605,73.3440653 150.646513,73.2959894 150.790741,73.2021268 C150.933824,73.1071195 151.005938,72.9525896 151.005938,72.7396818 L151.005938,72.6481085 C151.005938,72.5405099 150.963585,72.447792 150.87888,72.3710994 C150.794175,72.2966961 150.599582,72.2097015 150.295101,72.1112602 L149.555647,71.8731697 C149.365632,71.8113578 149.208813,71.7552692 149.084044,71.7026145 C148.958131,71.6499599 148.831073,71.5835693 148.700581,71.5011533 C148.570089,71.4210267 148.468214,71.3328875 148.3961,71.2355909 C148.322841,71.1394389 148.264463,71.0203937 148.218677,70.8807445 C148.17289,70.7399506 148.149997,70.5796974 148.149997,70.3965508 C148.149997,70.1332777 148.201507,69.9009105 148.305671,69.7017387 C148.407547,69.5014222 148.55063,69.3457476 148.733776,69.2301363 C148.915778,69.1145251 149.119529,69.0298198 149.342739,68.9737312 C149.565949,68.9187872 149.810907,68.8901706 150.077614,68.8901706 Z M32.1715397,68.8798686 C32.5847641,68.8798686 32.9441892,68.9508379 33.2521043,69.0927765 C33.5600194,69.234715 33.8038332,69.4338869 33.9824011,69.6891473 C34.1621136,69.9444078 34.2948949,70.2305743 34.3807448,70.5487914 C34.4665947,70.8670085 34.510092,71.2184209 34.510092,71.6030286 C34.510092,71.7014699 34.5020794,71.7770178 34.4849094,71.8273831 L30.8322807,71.8273831 C30.8528847,72.3344701 31.0074146,72.7099205 31.2970151,72.9525896 C31.5866155,73.1964034 31.9712232,73.317738 32.4508382,73.317738 C33.0117245,73.317738 33.5600194,73.1323021 34.0945783,72.7602858 L34.4333994,73.6737291 C34.106025,73.8992283 33.7752166,74.0663495 33.4421188,74.1728034 C33.1090211,74.2781126 32.739294,74.3319119 32.3340823,74.3319119 C31.4584129,74.3319119 30.7670348,74.0823748 30.2622372,73.5821558 C29.7574395,73.0807922 29.5033237,72.427188 29.5033237,71.6190539 C29.5033237,71.2539055 29.5651357,70.9070718 29.6864702,70.5796974 C29.8078048,70.2511783 29.9795047,69.9604331 30.2015699,69.7063173 C30.4224904,69.4533462 30.7040782,69.251885 31.0428992,69.1030784 C31.382865,68.9542719 31.7594601,68.8798686 32.1715397,68.8798686 Z M97.5627499,68.8901706 C97.8935583,68.8901706 98.2255114,68.9325232 98.5563198,69.0160838 C98.8882729,69.1019338 99.179018,69.2267024 99.4285552,69.3926789 L99.1046147,70.2534676 C98.9020089,70.1470137 98.6639184,70.0554404 98.3914879,69.9810371 C98.1190575,69.9066339 97.8729543,69.8700045 97.6543231,69.8700045 C97.367012,69.8700045 97.1575382,69.9043445 97.0304803,69.9753138 C96.901133,70.0462831 96.8370317,70.163039 96.8370317,70.3255815 C96.8370317,70.4343248 96.8576357,70.5178854 96.897699,70.5796974 C96.938907,70.63922 97.0236123,70.7021766 97.1518148,70.7674226 C97.2800174,70.8303792 97.4872019,70.9105058 97.7710791,71.005513 L98.4452872,71.2333015 C98.7154284,71.3248748 98.9329149,71.4244607 99.0966021,71.533204 C99.2602893,71.6396579 99.3930705,71.7941878 99.4926565,71.9945043 C99.5910977,72.1936762 99.641463,72.444358 99.641463,72.7442604 C99.641463,72.9743383 99.6048337,73.1826674 99.5281411,73.3681033 C99.4525931,73.5546838 99.3518626,73.7069244 99.2293833,73.8259696 C99.1046147,73.9438702 98.9592422,74.0411668 98.7932656,74.1190041 C98.6249998,74.1968414 98.4544445,74.2517853 98.2827447,74.2849806 C98.1099001,74.3158866 97.9324769,74.3319119 97.7504751,74.3319119 C97.2937534,74.3319119 96.8748057,74.2678106 96.4924873,74.1396081 C96.1101689,74.0114055 95.8056878,73.8568756 95.579044,73.6783077 L95.8938271,72.7763111 C96.1067349,72.941143 96.3757314,73.0773582 96.7008165,73.1838121 C97.0247569,73.290266 97.3372507,73.3440653 97.6382978,73.3440653 C97.9187409,73.3440653 98.1316488,73.2959894 98.274732,73.2021268 C98.4178152,73.1071195 98.4899292,72.9525896 98.4899292,72.7396818 L98.4899292,72.6481085 C98.4899292,72.5405099 98.4487212,72.447792 98.3640159,72.3710994 C98.2793107,72.2966961 98.0847175,72.2097015 97.7802364,72.1112602 L97.0396376,71.8731697 C96.8507677,71.8113578 96.6939485,71.7552692 96.5680353,71.7026145 C96.4432667,71.6499599 96.3150641,71.5835693 96.1857169,71.5011533 C96.055225,71.4210267 95.9533497,71.3328875 95.8812358,71.2355909 C95.8079772,71.1394389 95.7495992,71.0203937 95.7026679,70.8807445 C95.6580259,70.7399506 95.6351326,70.5796974 95.6351326,70.3965508 C95.6351326,70.1332777 95.6866426,69.9009105 95.7896625,69.7017387 C95.8926824,69.5014222 96.0357657,69.3457476 96.2189122,69.2301363 C96.4009141,69.1145251 96.6046646,69.0298198 96.8267297,68.9737312 C97.0499396,68.9187872 97.2960427,68.8901706 97.5627499,68.8901706 Z M28.329011,66.8251935 L28.3299855,72.862141 C28.33387,72.9873267 28.349288,73.4380914 28.3747977,74.215156 L27.0870486,74.215156 L27.0767466,73.5512498 C27.0469853,73.6290871 26.9954754,73.7080691 26.9245061,73.7893403 C26.8535368,73.8717563 26.7585295,73.9541722 26.6406289,74.0411668 C26.5227284,74.1258721 26.3681985,74.1968414 26.1793286,74.2517853 C25.9893141,74.3055846 25.7821296,74.3319119 25.5554857,74.3319119 C24.8824222,74.3319119 24.318102,74.0858088 23.8636697,73.5924578 C23.4092373,73.0979622 23.1814488,72.447792 23.1814488,71.6385132 C23.1814488,71.2699309 23.2341035,70.9219524 23.338268,70.5934333 C23.4435773,70.2660589 23.5946732,69.9730245 23.7927004,69.717764 C23.9907276,69.4590695 24.249422,69.255319 24.5710731,69.1053678 C24.8927242,68.9554166 25.2521493,68.8798686 25.6516377,68.8798686 C26.0099181,68.8798686 26.3132545,68.9531272 26.561647,69.1007891 C26.8111842,69.2473063 26.9840287,69.4006916 27.0813253,69.5598001 L27.0813253,66.8251935 L28.329011,66.8251935 Z M43.647387,68.8798686 C44.2769532,68.8798686 44.7600022,69.1088018 45.0976786,69.5643788 L45.0976786,69.0126498 L46.3304837,69.0126498 L46.3304837,74.215156 L45.0679173,74.215156 L45.0679173,73.5054632 C44.6890329,74.0571921 44.1956819,74.3319119 43.5867197,74.3319119 C43.164338,74.3319119 42.7854536,74.256364 42.4500665,74.1041234 C42.1158241,73.9518829 41.8468276,73.749277 41.6442218,73.4963059 C41.4404713,73.2421901 41.287086,72.9594576 41.1829215,72.6481085 C41.0776122,72.3379041 41.0249576,72.0116743 41.0249576,71.6694192 C41.0249576,71.3077048 41.0799015,70.9643051 41.1875001,70.6369306 C41.2962434,70.3107009 41.4542073,70.0153771 41.6613918,69.7498146 C41.869721,69.4853968 42.1444407,69.2736337 42.4866958,69.1156698 C42.8278062,68.9588505 43.2147033,68.8798686 43.647387,68.8798686 Z M70.4289044,68.8798686 C70.8421287,68.8798686 71.2015538,68.9508379 71.5094689,69.0927765 C71.817384,69.234715 72.0600532,69.4338869 72.2397657,69.6891473 C72.4194782,69.9444078 72.5511148,70.2305743 72.6381094,70.5487914 C72.7239593,70.8670085 72.7674566,71.2184209 72.7674566,71.6030286 C72.7674566,71.7014699 72.759444,71.7770178 72.742274,71.8273831 L69.0896453,71.8273831 C69.1102493,72.3344701 69.2647792,72.7099205 69.5543797,72.9525896 C69.8428355,73.1964034 70.2285878,73.317738 70.7082028,73.317738 C71.2690891,73.317738 71.817384,73.1323021 72.3519429,72.7602858 L72.690764,73.6737291 C72.3633896,73.8992283 72.0325812,74.0663495 71.6994834,74.1728034 C71.3663857,74.2781126 70.9966586,74.3319119 70.5914469,74.3319119 C69.7157775,74.3319119 69.0243994,74.0823748 68.5196018,73.5821558 C68.0136595,73.0807922 67.7606883,72.427188 67.7606883,71.6190539 C67.7606883,71.2539055 67.8225003,70.9070718 67.9438348,70.5796974 C68.0651694,70.2511783 68.2368693,69.9604331 68.4589345,69.7063173 C68.679855,69.4533462 68.9602981,69.251885 69.3002639,69.1030784 C69.6402296,68.9542719 70.0168247,68.8798686 70.4289044,68.8798686 Z M144.759039,68.8798686 C145.172263,68.8798686 145.531688,68.9508379 145.839603,69.0927765 C146.147518,69.234715 146.391332,69.4338869 146.5699,69.6891473 C146.749613,69.9444078 146.881249,70.2305743 146.968244,70.5487914 C147.054094,70.8670085 147.097591,71.2184209 147.097591,71.6030286 C147.097591,71.7014699 147.089578,71.7770178 147.072408,71.8273831 L143.41978,71.8273831 C143.440384,72.3344701 143.594914,72.7099205 143.884514,72.9525896 C144.17297,73.1964034 144.558722,73.317738 145.038337,73.317738 C145.599224,73.317738 146.147518,73.1323021 146.682077,72.7602858 L147.020899,73.6737291 C146.693524,73.8992283 146.362716,74.0663495 146.029618,74.1728034 C145.69652,74.2781126 145.326793,74.3319119 144.921581,74.3319119 C144.045912,74.3319119 143.354534,74.0823748 142.849736,73.5821558 C142.343794,73.0807922 142.090823,72.427188 142.090823,71.6190539 C142.090823,71.2539055 142.152635,70.9070718 142.273969,70.5796974 C142.395304,70.2511783 142.567004,69.9604331 142.789069,69.7063173 C143.009989,69.4533462 143.290433,69.251885 143.631543,69.1030784 C143.970364,68.9542719 144.346959,68.8798686 144.759039,68.8798686 Z M122.537527,68.8798686 C122.950751,68.8798686 123.311321,68.9508379 123.618091,69.0927765 C123.926006,69.234715 124.16982,69.4338869 124.348388,69.6891473 C124.528101,69.9444078 124.660882,70.2305743 124.747876,70.5487914 C124.832582,70.8670085 124.876079,71.2184209 124.876079,71.6030286 C124.876079,71.7014699 124.868066,71.7770178 124.850896,71.8273831 L121.198268,71.8273831 C121.218872,72.3344701 121.373402,72.7099205 121.663002,72.9525896 C121.951458,73.1964034 122.33721,73.317738 122.81797,73.317738 C123.378856,73.317738 123.926006,73.1323021 124.460565,72.7602858 L124.799386,73.6737291 C124.472012,73.8992283 124.141204,74.0663495 123.808106,74.1728034 C123.475008,74.2781126 123.105281,74.3319119 122.700069,74.3319119 C121.8244,74.3319119 121.133022,74.0823748 120.628224,73.5821558 C120.123426,73.0807922 119.870455,72.427188 119.870455,71.6190539 C119.870455,71.2539055 119.931123,70.9070718 120.052457,70.5796974 C120.173792,70.2511783 120.345492,69.9604331 120.567557,69.7063173 C120.788477,69.4533462 121.070065,69.251885 121.410031,69.1030784 C121.748852,68.9542719 122.125447,68.8798686 122.537527,68.8798686 Z M140.917082,66.8251935 L140.917997,72.862141 C140.921661,72.9873267 140.936378,73.4380914 140.962869,74.215156 L139.673975,74.215156 L139.664818,73.5512498 C139.633912,73.6290871 139.582402,73.7080691 139.511433,73.7893403 C139.440464,73.8717563 139.346601,73.9541722 139.227556,74.0411668 C139.109655,74.1258721 138.955125,74.1968414 138.766255,74.2517853 C138.576241,74.3055846 138.369056,74.3319119 138.142413,74.3319119 C137.469349,74.3319119 136.905029,74.0858088 136.450596,73.5924578 C135.996164,73.0979622 135.768376,72.447792 135.768376,71.6385132 C135.768376,71.2699309 135.82103,70.9219524 135.926339,70.5934333 C136.030504,70.2660589 136.182745,69.9730245 136.379627,69.717764 C136.577654,69.4590695 136.837493,69.255319 137.159145,69.1053678 C137.479651,68.9554166 137.840221,68.8798686 138.238564,68.8798686 C138.596845,68.8798686 138.901326,68.9531272 139.148574,69.1007891 C139.398111,69.2473063 139.570955,69.4006916 139.669397,69.5598001 L139.669397,66.8251935 L140.917082,66.8251935 Z M85.6630329,68.8798686 C86.2925991,68.8798686 86.7756481,69.1088018 87.1144692,69.5643788 L87.1144692,69.0126498 L88.3461296,69.0126498 L88.3461296,74.215156 L87.0835632,74.215156 L87.0835632,73.5054632 C86.7046788,74.0571921 86.2113278,74.3319119 85.6023656,74.3319119 C85.1799839,74.3319119 84.8010995,74.256364 84.4668571,74.1041234 C84.13147,73.9518829 83.8624735,73.749277 83.6598677,73.4963059 C83.4572618,73.2421901 83.302732,72.9594576 83.1985674,72.6481085 C83.0932581,72.3379041 83.0417481,72.0116743 83.0417481,71.6694192 C83.0417481,71.3077048 83.0955474,70.9643051 83.203146,70.6369306 C83.3118893,70.3107009 83.4698532,70.0153771 83.6770377,69.7498146 C83.8853669,69.4853968 84.1600867,69.2736337 84.5023417,69.1156698 C84.8434522,68.9588505 85.2303492,68.8798686 85.6630329,68.8798686 Z M131.216612,69.0126498 L131.216612,72.2886834 C131.216612,72.6332278 131.305896,72.8907777 131.485608,73.0624775 C131.665321,73.2330327 131.911424,73.317738 132.226207,73.317738 C132.601658,73.317738 132.878667,73.2238754 133.060669,73.0361502 C133.241526,72.848425 133.331954,72.5462332 133.331954,72.1307196 L133.331954,69.0126498 L134.589942,69.0126498 L134.589942,72.8163744 L134.650609,74.215156 L133.352558,74.215156 L133.331954,73.4447959 C133.314784,73.5191992 133.27701,73.6016151 133.217488,73.6897544 C133.15911,73.7813277 133.076694,73.8763349 132.973674,73.9770655 C132.870654,74.0789408 132.731005,74.1636461 132.553582,74.2311813 C132.375014,74.2987166 132.180421,74.3319119 131.967513,74.3319119 C131.339091,74.3319119 130.84803,74.1533441 130.496617,73.7916297 C130.145205,73.4322046 129.968926,72.937709 129.968926,72.3081428 L129.968926,69.0126498 L131.216612,69.0126498 Z M52.387025,68.8901706 C52.7178334,68.8901706 53.0497865,68.9325232 53.3817396,69.0160838 C53.712548,69.1019338 54.0032932,69.2267024 54.253975,69.3926789 L53.9288899,70.2534676 C53.726284,70.1470137 53.4881935,70.0554404 53.2169077,69.9810371 C52.9444773,69.9066339 52.6983741,69.8700045 52.4785983,69.8700045 C52.1912872,69.8700045 51.982958,69.9043445 51.8547554,69.9753138 C51.7265528,70.0462831 51.6613069,70.163039 51.6613069,70.3255815 C51.6613069,70.4343248 51.6819109,70.5178854 51.7219742,70.5796974 C51.7631821,70.63922 51.8478874,70.7021766 51.97609,70.7674226 C52.1042926,70.8303792 52.3114771,70.9105058 52.5953542,71.005513 L53.2695624,71.2333015 C53.5397035,71.3248748 53.75719,71.4244607 53.9208772,71.533204 C54.0857091,71.6396579 54.2173457,71.7941878 54.3169316,71.9945043 C54.4165175,72.1936762 54.4668828,72.444358 54.4668828,72.7442604 C54.4668828,72.9743383 54.4291089,73.1826674 54.3524162,73.3681033 C54.2768683,73.5546838 54.1761377,73.7069244 54.0536585,73.8259696 C53.9300346,73.9438702 53.784662,74.0411668 53.6175408,74.1190041 C53.4504196,74.1968414 53.2798644,74.2517853 53.1070198,74.2849806 C52.9353199,74.3158866 52.7578967,74.3319119 52.5747502,74.3319119 C52.1180286,74.3319119 51.6990809,74.2678106 51.3167625,74.1396081 C50.9344441,74.0114055 50.6311076,73.8568756 50.4044638,73.6783077 L50.7181022,72.7763111 C50.9310101,72.941143 51.2000066,73.0773582 51.5250917,73.1838121 C51.8490321,73.290266 52.1626705,73.3440653 52.4637176,73.3440653 C52.7430161,73.3440653 52.9559239,73.2959894 53.0990072,73.2021268 C53.2432351,73.1071195 53.315349,72.9525896 53.315349,72.7396818 L53.315349,72.6481085 C53.315349,72.5405099 53.2729964,72.447792 53.1882911,72.3710994 C53.1035858,72.2966961 52.9089926,72.2097015 52.6056562,72.1112602 L51.8650574,71.8731697 C51.6750429,71.8113578 51.5182237,71.7552692 51.3934551,71.7026145 C51.2675418,71.6499599 51.1404839,71.5835693 51.009992,71.5011533 C50.8806448,71.4210267 50.7787695,71.3328875 50.7055109,71.2355909 C50.633397,71.1394389 50.5738744,71.0203937 50.5280877,70.8807445 C50.4823011,70.7399506 50.4594078,70.5796974 50.4594078,70.3965508 C50.4594078,70.1332777 50.5109177,69.9009105 50.6150823,69.7017387 C50.7169576,69.5014222 50.8600408,69.3457476 51.0431873,69.2301363 C51.2251892,69.1145251 51.4289397,69.0298198 51.6521496,68.9737312 C51.8753594,68.9187872 52.1203179,68.8901706 52.387025,68.8901706 Z M39.8755986,66.8256513 L39.8755986,74.2156139 L38.6336362,74.2156139 L38.6336362,66.8256513 L39.8755986,66.8256513 Z M62.6223979,69.011963 L62.6223979,74.2156139 L61.4101968,74.2156139 L61.4101968,69.011963 L62.6223979,69.011963 Z M92.5588432,68.8804409 C92.8598903,68.8804409 93.1243081,68.9205042 93.3498073,68.9994862 C93.5775958,69.0796128 93.7767677,69.2066707 93.9519015,69.3840939 C94.1258907,69.5626618 94.258672,69.8053309 94.3491006,70.1178247 C94.4406738,70.4280291 94.4864605,70.8057689 94.4864605,71.2487545 L94.4864605,74.2157284 L93.2284727,74.2157284 L93.2284727,71.1629046 C93.2284727,70.7027489 93.1563588,70.3765192 93.0132756,70.18536 C92.8690477,69.9942008 92.6321018,69.8991935 92.3001487,69.8991935 C92.1788142,69.8991935 92.0448883,69.9266655 91.8995157,69.9816095 C91.7541431,70.0354088 91.6133492,70.109812 91.4759893,70.2071086 C91.3397741,70.3021159 91.2253075,70.4291738 91.1337343,70.585993 C91.042161,70.7439569 90.997519,70.9156568 90.997519,71.1010926 L90.997519,74.2157284 L89.7395313,74.2157284 L89.7395313,70.9957834 C89.7395313,70.6260563 89.730374,70.2780779 89.7143486,69.9472695 C89.6971787,69.6176057 89.6800087,69.3795152 89.6628387,69.2341427 L89.637656,69.0120775 L90.9711917,69.0120775 L90.9711917,69.7068897 C91.1509043,69.4356039 91.3901394,69.2318533 91.6888972,69.0899148 C91.9887996,68.9502656 92.2784001,68.8804409 92.5588432,68.8804409 Z M104.855988,66.8256513 L104.855988,74.2156139 L103.614026,74.2156139 L103.614026,66.8256513 L104.855988,66.8256513 Z M65.5826182,67.4245405 L65.5826182,69.012192 L66.9413365,69.012192 L66.9413365,69.8535214 L65.5826182,69.8535214 L65.5826182,72.3843775 C65.5826182,72.54692 65.5952095,72.6785566 65.6203922,72.7769979 C65.6455748,72.8777285 65.6833488,72.9601444 65.7348587,73.026535 C65.785224,73.091781 65.871074,73.1398569 65.9912639,73.1707629 C66.1114538,73.2016689 66.2419457,73.2222729 66.3838843,73.2325749 C66.5258228,73.2417322 66.7249947,73.2474555 66.9825445,73.2474555 L66.9825445,74.2101195 L66.4754575,74.2101195 C66.271707,74.2101195 66.0965731,74.2055408 65.9477666,74.1952388 C65.79896,74.1860815 65.6455748,74.1631882 65.4887556,74.1299929 C65.3319364,74.0956529 65.1980105,74.0510109 65.0881225,73.9949223 C64.9782346,73.9399784 64.8729254,73.8632857 64.7710501,73.7694231 C64.6691749,73.6744159 64.5879036,73.561094 64.5272363,73.4260234 C64.466569,73.2932422 64.418493,73.1341336 64.3830084,72.9475531 C64.3475238,72.7609726 64.3292091,72.5492094 64.3292091,72.3088296 L64.3292091,69.8535214 L63.2440659,69.8535214 L63.2440659,69.012192 L64.3807191,69.012192 L64.3807191,67.7954122 L65.5826182,67.4245405 Z M127.679022,67.4245405 L127.679022,69.012192 L129.037741,69.012192 L129.037741,69.8535214 L127.679022,69.8535214 L127.679022,72.3843775 C127.679022,72.54692 127.691614,72.6785566 127.716796,72.7769979 C127.741979,72.8777285 127.779753,72.9601444 127.831263,73.026535 C127.881628,73.091781 127.966333,73.1398569 128.086523,73.1707629 C128.206713,73.2016689 128.33835,73.2222729 128.480288,73.2325749 C128.622227,73.2417322 128.821399,73.2474555 129.078949,73.2474555 L129.078949,74.2101195 L128.571862,74.2101195 C128.368111,74.2101195 128.192977,74.2055408 128.044171,74.1952388 C127.895364,74.1860815 127.741979,74.1631882 127.58516,74.1299929 C127.427196,74.0956529 127.29327,74.0510109 127.184527,73.9949223 C127.074639,73.9399784 126.969329,73.8632857 126.867454,73.7694231 C126.765579,73.6744159 126.684308,73.561094 126.62364,73.4260234 C126.562973,73.2932422 126.513752,73.1341336 126.479412,72.9475531 C126.443928,72.7609726 126.426758,72.5492094 126.426758,72.3088296 L126.426758,69.8535214 L125.34047,69.8535214 L125.34047,69.012192 L126.477123,69.012192 L126.477123,67.7954122 L127.679022,67.4245405 Z M43.7183563,69.8997659 C43.2524773,69.8997659 42.8941969,70.0531511 42.6458044,70.3610662 C42.3974119,70.6689813 42.273788,71.0822057 42.273788,71.6030286 C42.273788,72.1238516 42.3974119,72.5405099 42.6458044,72.8507144 C42.8941969,73.1632081 43.2604899,73.317738 43.7446836,73.317738 C44.2300219,73.317738 44.5848683,73.1632081 44.8069335,72.8541484 C45.027854,72.5439439 45.1388865,72.1307196 45.1388865,71.6133306 C45.1388865,71.0822057 45.020986,70.6655473 44.7863295,70.3587769 C44.551673,70.0531511 44.1956819,69.8997659 43.7183563,69.8997659 Z M138.390805,69.8997659 C138.096626,69.8997659 137.849378,69.9787478 137.647917,70.1378563 C137.446456,70.2969649 137.303372,70.4995707 137.216378,70.7468186 C137.130528,70.9929217 137.087031,71.2767988 137.087031,71.5984499 C137.087031,71.8308171 137.112213,72.0483036 137.161434,72.2486201 C137.20951,72.447792 137.283913,72.6297939 137.383499,72.7934811 C137.48423,72.9571683 137.620445,73.0853708 137.795579,73.1792334 C137.969568,73.2719514 138.171029,73.317738 138.401107,73.317738 C138.631185,73.317738 138.832646,73.2719514 139.004346,73.1792334 C139.17719,73.0853708 139.312261,72.9571683 139.412992,72.7934811 C139.512577,72.6297939 139.586981,72.447792 139.636201,72.2531988 C139.685422,72.0574609 139.70946,71.8456978 139.70946,71.6190539 C139.70946,71.111967 139.599572,70.6975979 139.379796,70.3793808 C139.16002,70.0588744 138.830357,69.8997659 138.390805,69.8997659 Z M25.8038782,69.8997659 C25.5096991,69.8997659 25.2624513,69.9787478 25.0609901,70.1378563 C24.8595289,70.2969649 24.7164457,70.4995707 24.6294511,70.7468186 C24.5436012,70.9929217 24.5001039,71.2767988 24.5001039,71.5984499 C24.5001039,71.8308171 24.5252865,72.0483036 24.5745071,72.2486201 C24.6225831,72.447792 24.6969864,72.6297939 24.7965723,72.7934811 C24.8961582,72.9571683 25.0335181,73.0853708 25.2075073,73.1792334 C25.3826412,73.2719514 25.5841024,73.317738 25.8141802,73.317738 C26.0442581,73.317738 26.2457192,73.2719514 26.4174191,73.1792334 C26.5902637,73.0853708 26.7253342,72.9571683 26.8260648,72.7934811 C26.9256507,72.6297939 27.000054,72.447792 27.0492746,72.2531988 C27.0984953,72.0574609 27.1225333,71.8456978 27.1225333,71.6190539 C27.1225333,71.111967 27.0126453,70.6975979 26.7928695,70.3793808 C26.5730937,70.0588744 26.2434299,69.8997659 25.8038782,69.8997659 Z M85.7340022,69.8997659 C85.2681232,69.8997659 84.9109874,70.0531511 84.6614503,70.3610662 C84.4130578,70.6689813 84.2894339,71.0822057 84.2894339,71.6030286 C84.2894339,72.1238516 84.4130578,72.5405099 84.6614503,72.8507144 C84.9109874,73.1632081 85.2761358,73.317738 85.7603295,73.317738 C86.2468125,73.317738 86.6005142,73.1632081 86.8225794,72.8541484 C87.0434999,72.5439439 87.1545325,72.1307196 87.1545325,71.6133306 C87.1545325,71.0822057 87.0366319,70.6655473 86.8019754,70.3587769 C86.5673189,70.0531511 86.2113278,69.8997659 85.7340022,69.8997659 Z M79.3404712,69.8997659 C79.0462921,69.8997659 78.7990443,69.9787478 78.5975831,70.1378563 C78.3961219,70.2969649 78.2530387,70.4995707 78.1660441,70.7468186 C78.0801941,70.9929217 78.0378415,71.2767988 78.0378415,71.5984499 C78.0378415,71.8308171 78.0618795,72.0483036 78.1111001,72.2486201 C78.1603207,72.447792 78.2335793,72.6297939 78.3343099,72.7934811 C78.4338959,72.9571683 78.5701111,73.0853708 78.745245,73.1792334 C78.9192342,73.2719514 79.1206954,73.317738 79.3507732,73.317738 C79.580851,73.317738 79.7823122,73.2719514 79.9540121,73.1792334 C80.1268566,73.0853708 80.2630719,72.9571683 80.3626578,72.7934811 C80.4622437,72.6297939 80.536647,72.447792 80.5858676,72.2531988 C80.6350883,72.0574609 80.6591262,71.8456978 80.6591262,71.6190539 C80.6591262,71.111967 80.5492383,70.6975979 80.3306071,70.3793808 C80.1096866,70.0588744 79.7811675,69.8997659 79.3404712,69.8997659 Z M122.608496,69.8482559 C122.246782,69.8482559 121.94459,69.9501312 121.700776,70.1538817 C121.458107,70.3553429 121.295564,70.635786 121.214293,70.9894877 L123.801238,70.9894877 C123.74057,70.62205 123.603211,70.3393175 123.390303,70.1435797 C123.177395,69.9466972 122.916411,69.8482559 122.608496,69.8482559 Z M70.4998736,69.8482559 C70.1381592,69.8482559 69.8359675,69.9501312 69.5921536,70.1538817 C69.3494845,70.3553429 69.1857973,70.635786 69.1056707,70.9894877 L71.6914708,70.9894877 C71.6308035,70.62205 71.4945882,70.3393175 71.2816804,70.1435797 C71.0687726,69.9466972 70.8077887,69.8482559 70.4998736,69.8482559 Z M32.242509,69.8482559 C31.8807946,69.8482559 31.5786029,69.9501312 31.334789,70.1538817 C31.0921199,70.3553429 30.9284327,70.635786 30.8483061,70.9894877 L33.4341062,70.9894877 C33.3745835,70.62205 33.2372236,70.3393175 33.0243158,70.1435797 C32.8114079,69.9466972 32.5504241,69.8482559 32.242509,69.8482559 Z M144.830008,69.8482559 C144.468294,69.8482559 144.166102,69.9501312 143.922288,70.1538817 C143.679619,70.3553429 143.515932,70.635786 143.435805,70.9894877 L146.021605,70.9894877 C145.960938,70.62205 145.824723,70.3393175 145.611815,70.1435797 C145.398907,69.9466972 145.137923,69.8482559 144.830008,69.8482559 Z M108.74396,69.8482559 C108.382246,69.8482559 108.080054,69.9501312 107.83624,70.1538817 C107.592426,70.3553429 107.429884,70.635786 107.349757,70.9894877 L109.935557,70.9894877 C109.87489,70.62205 109.738675,70.3393175 109.525767,70.1435797 C109.312859,69.9466972 109.051875,69.8482559 108.74396,69.8482559 Z M125.155377,66.8309168 L123.359397,68.3006677 L122.203284,68.3006677 L123.542543,66.8309168 L125.155377,66.8309168 Z M62.6223979,66.8313746 L62.6223979,67.9371218 L61.4056181,67.9371218 L61.4056181,66.8313746 L62.6223979,66.8313746 Z M9.87116014,37.2533242 C12.2612224,37.2533242 14.3353569,38.1244149 16.0351856,39.8414136 C17.732725,41.556123 18.5935137,43.6485722 18.5935137,46.0615277 C18.5935137,48.5225592 17.7407377,50.640191 16.0592236,52.3606238 C14.3742755,54.0844905 12.3115877,54.9578705 9.9295381,54.9578705 C8.58913442,54.9578705 7.33801467,54.6751381 6.21051884,54.1165411 C5.54406896,53.7878949 4.91289174,53.4131228 4.47134279,52.903792 L4.31495223,52.7063128 L4.31495223,64.6028248 L1,64.6028248 L1,37.6608252 L4.31495223,37.6608252 L4.31495223,39.4957245 C4.81974986,38.9451403 5.38864877,38.5239033 6.10978824,38.1438742 C7.23156075,37.5532266 8.49756115,37.2533242 9.87116014,37.2533242 Z M159.620235,26 L159.620235,58.8862492 L155.809643,58.8862492 L155.809643,26 L159.620235,26 Z M144.439677,26 L144.439677,58.8862492 L140.62794,58.8862492 L140.62794,26 L144.439677,26 Z M90.6715182,37.2530953 C93.2607523,37.2530953 95.4390514,38.2020232 97.1457481,40.0746965 L97.1457481,40.0746965 C98.6921916,41.7779593 99.4751431,43.8223324 99.4751431,46.1494381 C99.4751431,46.5855557 99.4385138,47.0102268 99.3812805,47.4280298 L99.3812805,47.4280298 L85.1107316,47.4280298 C85.2343555,48.0221113 85.4472634,48.5955889 85.7505998,49.1358712 C86.2576868,50.0367232 86.9479203,50.739548 87.8075643,51.2271757 C88.668353,51.7182373 89.6298723,51.9666298 90.6646502,51.9666298 C91.4063937,51.9666298 92.1389798,51.8349932 92.8406599,51.5785881 C93.5411954,51.3210383 94.1410003,50.9776385 94.6274833,50.5586908 C94.8632845,50.3537956 95.1139663,50.0802205 95.3760947,49.7436887 L95.3760947,49.7436887 L97.8371263,51.4011649 C97.4742672,51.9082518 97.0827915,52.3569608 96.6684225,52.7381345 C95.882037,53.4581293 94.984619,54.0155816 94.0013511,54.391032 C93.0203725,54.767627 91.8986,54.9576416 90.6715182,54.9576416 C88.0925861,54.9576416 85.9532057,54.0659469 84.3117549,52.3088849 C82.6794614,50.5609801 81.8530127,48.489135 81.8530127,46.1494381 C81.8530127,43.8314898 82.6371088,41.7928399 84.1824076,40.0907218 C85.8879597,38.2077466 88.0708375,37.2530953 90.6715182,37.2530953 Z M126.426643,37.2530953 C129.015877,37.2530953 131.195321,38.2020232 132.900873,40.0746965 L132.900873,40.0746965 C134.447317,41.7779593 135.230268,43.8223324 135.230268,46.1494381 C135.230268,46.5855557 135.193639,47.0102268 135.136406,47.4280298 L135.136406,47.4280298 L120.865857,47.4280298 C120.989481,48.0221113 121.202388,48.5955889 121.505725,49.1358712 C122.012812,50.0367232 122.70419,50.739548 123.561545,51.2271757 C124.423478,51.7182373 125.384997,51.9666298 126.418631,51.9666298 C127.161519,51.9666298 127.894105,51.8349932 128.595785,51.5785881 C129.296321,51.3210383 129.896125,50.9776385 130.382608,50.5586908 C130.61841,50.3537956 130.869091,50.0802205 131.13122,49.7436887 L131.13122,49.7436887 L133.592251,51.4011649 C133.228248,51.9082518 132.839061,52.3569608 132.423548,52.7381345 C131.637162,53.4581293 130.739744,54.0155816 129.756476,54.391032 C128.774353,54.767627 127.653725,54.9576416 126.426643,54.9576416 C123.847711,54.9576416 121.709475,54.0659469 120.06688,52.3088849 C118.435731,50.5609801 117.608138,48.489135 117.608138,46.1494381 C117.608138,43.8314898 118.392234,41.7928399 119.937533,40.0907218 C121.643085,38.2077466 123.825963,37.2530953 126.426643,37.2530953 Z M174.183475,37.2530953 C176.772709,37.2530953 178.951008,38.2020232 180.657705,40.0746965 L180.657705,40.0746965 C182.204149,41.7779593 182.9871,43.8223324 182.9871,46.1494381 C182.9871,46.5855557 182.950471,47.0102268 182.892093,47.4280298 L182.892093,47.4280298 L168.622689,47.4280298 C168.746312,48.0221113 168.95922,48.5955889 169.262557,49.1358712 C169.769644,50.0367232 170.461022,50.739548 171.319521,51.2271757 C172.18031,51.7182373 173.141829,51.9666298 174.176607,51.9666298 C174.918351,51.9666298 175.650937,51.8349932 176.352617,51.5785881 C177.053152,51.3210383 177.652957,50.9776385 178.138296,50.5586908 C178.376386,50.3537956 178.625923,50.0802205 178.888052,49.7436887 L178.888052,49.7436887 L181.349083,51.4011649 C180.985079,51.9082518 180.594748,52.3569608 180.180379,52.7381345 C179.393994,53.4581293 178.496576,54.0155816 177.513308,54.391032 C176.532329,54.767627 175.410557,54.9576416 174.183475,54.9576416 C171.604543,54.9576416 169.465163,54.0659469 167.823712,52.3088849 C166.192563,50.5609801 165.36497,48.489135 165.36497,46.1494381 C165.36497,43.8314898 166.147921,41.7928399 167.694365,40.0907218 C169.398772,38.2077466 171.58165,37.2530953 174.183475,37.2530953 Z M31.8836563,37.2530953 C33.2675573,37.2530953 34.5415703,37.5529977 35.6690662,38.1447899 C36.392495,38.5225297 37.0632692,39.0261826 37.673376,39.6477362 L37.673376,39.6477362 L37.673376,37.661741 L40.7468038,37.661741 L40.7468038,54.5512852 L37.673376,54.5512852 L37.673376,52.6385486 C37.0174825,53.2520895 36.3089344,53.7465851 35.5545996,54.1174569 C34.4213804,54.6749091 33.165682,54.9576416 31.826423,54.9576416 C29.4409394,54.9576416 27.3759623,54.0842616 25.6898695,52.3603948 C24.0072108,50.6411068 23.15329,48.5223303 23.15329,46.0624434 C23.15329,43.6483432 24.0152234,41.5558941 25.7139075,39.84004 C27.4148809,38.124186 29.4913047,37.2530953 31.8836563,37.2530953 Z M53.2542238,37.0536945 C55.3309747,37.0536945 57.3163599,37.7046745 58.5083277,38.7614108 L58.6810845,38.9229338 L59.0267736,39.2651888 L56.7454546,41.5613885 L56.3997655,41.2260014 C55.6751921,40.5243213 54.3862983,40.0527189 53.1901226,40.0527189 C51.3529339,40.0527189 50.2563441,40.7738584 50.2563441,41.9803362 C50.2563441,43.176512 51.5349358,43.7030583 53.6422656,44.4264871 C56.0517871,45.2529358 59.0496669,46.2808457 59.0496669,49.6713459 C59.0496669,53.0229274 55.6832047,54.7765554 52.3590952,54.7765554 C49.3818618,54.7765554 47.1561321,53.7267854 46.0089887,52.7025294 L45.8814313,52.5845204 L45.5437549,52.2617246 L47.7254879,49.8029824 L48.091781,50.1555395 C49.1849368,51.2051981 50.7863243,51.8072923 52.4872977,51.8072923 C54.3862983,51.8072923 55.6133801,50.9922902 55.6133801,49.7297238 C55.6133801,48.5152334 54.3244864,47.9841084 52.2045653,47.256101 C49.8053457,46.4296522 46.8189126,45.4040317 46.8189126,42.0398588 C46.8189126,39.562802 49.0292623,37.0536945 53.2542238,37.0536945 Z M71.324033,37.0536945 C73.4007839,37.0536945 75.3861691,37.7046745 76.5781369,38.7614108 L76.7508937,38.9229338 L77.0977275,39.2651888 L74.8164085,41.5613885 L74.4695747,41.2260014 C73.7450012,40.5243213 72.4549629,40.0527189 71.2599317,40.0527189 C69.4227431,40.0527189 68.3261532,40.7738584 68.3261532,41.9803362 C68.3261532,43.176512 69.604745,43.7030583 71.7120747,44.4264871 C74.1204516,45.2529358 77.1194761,46.2808457 77.1194761,49.6713459 C77.1194761,53.0229274 73.7541586,54.7765554 70.4277597,54.7765554 C67.4516285,54.7765554 65.2259397,53.7267854 64.0787979,52.7025294 L63.9512405,52.5845204 L63.6147087,52.2617246 L65.7952971,49.8029824 L66.1615902,50.1555395 C67.254746,51.2051981 68.8561335,51.8072923 70.5571069,51.8072923 C72.4549629,51.8072923 73.6820446,50.9922902 73.6820446,49.7297238 C73.6820446,48.5152334 72.3942956,47.9841084 70.2743745,47.256101 C67.8740102,46.4296522 64.8887218,45.4040317 64.8887218,42.0398588 C64.8887218,39.562802 67.0990715,37.0536945 71.324033,37.0536945 Z M112.461262,37.0542668 C113.14334,37.0542668 113.709735,37.0963333 114.149712,37.1789325 L114.330502,37.2168094 L114.705952,37.303804 L114.705952,40.7446694 L114.088977,40.5706802 C113.556708,40.4218737 112.961481,40.3497597 112.268959,40.3497597 C110.647597,40.3497597 109.294831,40.9324061 108.578688,41.924971 L108.470957,42.0850731 L108.470957,54.5081313 L105.034671,54.5081313 L105.034671,37.3221186 L107.769277,37.3221186 L108.18708,38.6957176 C109.194386,37.6678077 110.760289,37.0542668 112.461262,37.0542668 Z M32.0519222,40.275013 C31.0148549,40.275013 30.045323,40.5302735 29.1696536,41.0385051 C28.2951289,41.5444474 27.5877255,42.2678762 27.0691918,43.1893322 C26.5483689,44.1107882 26.2839511,45.1009242 26.2839511,46.1276894 C26.2839511,47.1452973 26.5506582,48.1342886 27.0760598,49.0671912 C27.6003168,49.9966599 28.3122989,50.7303907 29.1936916,51.246635 C30.072795,51.7628793 31.0297356,52.0250077 32.0381862,52.0250077 C33.0580834,52.0250077 34.039062,51.7640239 34.9547947,51.2489243 C35.8659487,50.7372587 36.5756415,50.0378679 37.0632692,49.1690665 C37.5554755,48.2945418 37.8050126,47.2906699 37.8050126,46.1860674 C37.8050126,44.4828046 37.2612963,43.101193 36.1418132,41.9611058 C35.0246193,40.8255973 33.6876496,40.275013 32.0519222,40.275013 Z M9.7017496,40.2740973 C8.06831147,40.2740973 6.73248645,40.8258262 5.61758194,41.9613347 C4.50038809,43.1002772 3.95552716,44.4818889 3.95552716,46.1851516 C3.95552716,47.2908988 4.20506431,48.2947707 4.69727062,49.1692954 C5.18489826,50.0380968 5.89573573,50.7363429 6.80917906,51.2491532 C7.72834572,51.7631082 8.71161366,52.024092 9.73151091,52.024092 C10.7273702,52.024092 11.6774428,51.7631082 12.5554015,51.2480086 C13.4367942,50.729475 14.1476317,49.9968888 14.6707439,49.0662755 C15.1961456,48.1345175 15.4628527,47.1455263 15.4628527,46.1279183 C15.4628527,45.1000084 15.1984349,44.1110172 14.6776119,43.1884165 C14.160223,42.2681052 13.4539642,41.5446764 12.5805842,41.0387341 C11.7060595,40.5305025 10.7376722,40.2740973 9.7017496,40.2740973 Z M90.6646502,40.302485 C89.099892,40.302485 87.791539,40.8645159 86.6651878,42.0206284 C85.9188657,42.7864099 85.4300934,43.6437646 85.1805562,44.6098625 L85.1805562,44.6098625 L96.1464548,44.6098625 C95.8969177,43.6437646 95.4058561,42.7864099 94.6560999,42.0206284 C93.5240254,40.8645159 92.2191064,40.302485 90.6646502,40.302485 Z M126.418631,40.302485 C124.855017,40.302485 123.546664,40.8645159 122.420313,42.0206284 C121.673991,42.7864099 121.185219,43.6437646 120.935681,44.6098625 L120.935681,44.6098625 L131.90158,44.6098625 C131.652043,43.6437646 131.160981,42.7864099 130.411225,42.0206284 C129.279151,40.8645159 127.974232,40.302485 126.418631,40.302485 Z M174.176607,40.302485 C172.611849,40.302485 171.303496,40.8645159 170.176,42.0206284 C169.429678,42.7864099 168.94205,43.6437646 168.692513,44.6098625 L168.692513,44.6098625 L179.657267,44.6098625 C179.40773,43.6437646 178.917813,42.7864099 178.168057,42.0206284 C177.035982,40.8645159 175.729919,40.302485 174.176607,40.302485 Z" id="Fill-13"></path>
        </g>
    </g>
</svg>